<svg width="175" height="70" viewBox="0 0 175 70" fill="none" xmlns="http://www.w3.org/2000/svg">
<path d="M157.371 36.9054C157.268 36.4292 157.169 35.953 157.118 35.4667C157.069 34.9988 156.98 34.5327 156.904 34.0699C156.825 33.5836 156.751 33.0855 156.707 32.5892C156.674 32.2069 156.546 31.843 156.483 31.4657C156.431 31.1504 156.445 30.8318 156.386 30.5166C156.244 29.7704 156.187 29.0074 156.007 28.2729C155.84 27.5904 155.862 26.8828 155.636 26.207C155.557 25.9689 155.485 25.6788 155.529 25.3988C155.552 25.2411 155.461 25.112 155.396 24.9611C155.273 25.7627 155.173 26.5541 155.027 27.3389C154.885 28.0985 154.794 28.8665 154.663 29.6278C154.572 30.1527 154.52 30.6843 154.385 31.2058C154.321 31.4539 154.267 31.7357 154.271 32.0123C154.278 32.3997 154.108 32.7585 154.054 33.1392C154.03 33.3035 154.035 33.4679 154.012 33.6305C153.899 34.3767 153.783 35.1246 153.67 35.8708C153.611 36.2649 153.547 36.6589 153.5 37.0547C153.478 37.2391 153.412 37.323 153.21 37.3179C151.991 37.2811 150.772 37.2626 149.555 37.2224C148.743 37.1955 147.933 37.162 147.12 37.1939C147.071 37.1083 147.015 37.0849 146.948 37.1771C146.389 37.1486 145.83 37.1201 145.271 37.0916C144.941 37.0748 144.928 37.0798 144.862 36.7679C144.668 35.8389 144.355 34.9435 144.108 34.0313C143.887 33.218 143.66 32.4081 143.432 31.5965C143.178 30.6926 142.917 29.7922 142.666 28.8883C142.447 28.1052 142.242 27.3188 142.021 26.5357C141.695 25.3736 141.358 24.2149 141.033 23.0528C140.866 22.4559 140.728 21.8522 140.558 21.2569C140.243 20.1552 139.969 19.0434 139.61 17.9535C139.455 17.4806 139.342 16.9876 139.213 16.503C139.043 15.8758 138.89 15.2437 138.684 14.6249C138.573 14.2912 138.482 13.9458 138.4 13.6087C138.277 13.1006 138.088 12.6127 137.989 12.0995C137.98 12.0593 137.967 12.0191 137.957 11.9788C137.844 11.469 137.906 11.3802 138.425 11.3785C140.541 11.3751 142.656 11.3751 144.773 11.3785C145.163 11.3785 145.157 11.3902 145.286 11.7994C145.606 12.8206 145.783 13.8737 146.035 14.91C146.206 15.6109 146.384 16.3085 146.563 17.0077C146.797 17.925 147.024 18.8439 147.223 19.7695C147.381 20.5023 147.558 21.2351 147.748 21.9612C148.098 23.2876 148.447 24.614 148.73 25.9572C148.76 26.0997 148.736 26.2858 148.874 26.4049C148.891 26.4837 148.847 26.6195 148.987 26.6011C149.078 26.5893 149.046 26.4787 149.041 26.4049C149.041 26.3932 149.034 26.3797 149.029 26.368C149.011 25.8784 149.172 25.4139 149.25 24.9393C149.353 24.3155 149.507 23.6984 149.642 23.0797C149.736 22.6437 149.871 22.2178 149.94 21.7734C150.023 21.2519 150.134 20.7337 150.233 20.2139C150.385 19.4258 150.531 18.6376 150.688 17.8512C150.843 17.0765 151.008 16.3034 151.163 15.5287C151.316 14.7691 151.479 14.0128 151.609 13.2499C151.68 12.8323 151.836 12.4349 151.838 11.9989C151.838 11.6099 152.068 11.4171 152.462 11.3919C152.616 11.3818 152.771 11.3835 152.925 11.3835C154.592 11.3835 156.261 11.3835 157.928 11.3835C158.083 11.3835 158.236 11.3835 158.391 11.3886C158.839 11.4087 158.911 11.4875 158.989 11.9184C159.127 12.6797 159.28 13.4394 159.433 14.199C159.588 14.9703 159.758 15.74 159.906 16.5131C160.093 17.4856 160.273 18.4582 160.462 19.4308C160.644 20.3665 160.838 21.3005 161.008 22.2396C161.136 22.9472 161.294 23.6498 161.432 24.3574C161.573 25.0818 161.723 25.8046 161.871 26.5407C161.913 26.5089 161.986 26.482 161.989 26.4485C162.065 25.7861 162.301 25.1623 162.434 24.5134C162.572 23.8443 162.774 23.1903 162.924 22.5246C163.094 21.7751 163.287 21.0305 163.454 20.2793C163.623 19.5146 163.853 18.7584 164.03 17.9937C164.252 17.0329 164.478 16.072 164.715 15.1162C164.926 14.2644 165.087 13.3991 165.34 12.5557C165.419 12.289 165.456 12.0056 165.54 11.7373C165.611 11.5143 165.764 11.402 166.003 11.4003C166.172 11.4003 166.34 11.3886 166.507 11.3886C168.426 11.3886 170.346 11.3886 172.267 11.3886C172.365 11.3886 172.464 11.3869 172.562 11.3936C172.969 11.4238 173.084 11.5764 172.942 11.9671C172.836 12.2588 172.754 12.5557 172.673 12.8541C172.427 13.7546 172.124 14.6434 171.893 15.5455C171.683 16.3705 171.396 17.1737 171.237 18.0139C171.146 18.4901 170.96 18.9479 170.826 19.4157C170.688 19.8953 170.566 20.3799 170.422 20.8561C170.295 21.272 170.191 21.6929 170.065 22.1054C169.765 23.0881 169.527 24.0891 169.236 25.0735C168.846 26.4015 168.45 27.7279 168.098 29.0661C167.822 30.1175 167.515 31.1605 167.214 32.2035C167 32.9447 166.758 33.6791 166.576 34.427C166.342 35.3912 166.059 36.3403 165.784 37.2928C165.694 37.6114 165.695 37.6198 165.367 37.6114C164.205 37.5846 163.042 37.5527 161.88 37.5242C160.521 37.489 159.162 37.4554 157.803 37.4219C157.707 37.4202 157.611 37.4219 157.49 37.4219C157.453 37.2961 157.411 37.1536 157.369 37.0111C157.369 36.9775 157.366 36.9457 157.366 36.9121L157.371 36.9054Z" fill="#FDCF39"/>
<path d="M80.2753 22.6587C81.0667 21.5452 81.7149 20.4184 82.4154 19.3251C83.4156 17.7639 84.3905 16.186 85.3755 14.6147C85.9648 13.674 86.5625 12.7367 87.135 11.7859C87.3152 11.4857 87.5408 11.37 87.8809 11.37C90.3611 11.3767 92.843 11.3734 95.3232 11.375C95.4865 11.375 95.7004 11.3281 95.7896 11.484C95.9007 11.6819 95.7745 11.8815 95.6566 12.0542C94.3382 13.9725 93.0181 15.8908 91.698 17.8092C90.6507 19.3301 89.627 20.8678 88.541 22.3619C88.2497 22.761 88.317 23.0293 88.5039 23.3999C88.7902 23.965 89.0276 24.5535 89.2902 25.1304C89.6859 25.999 90.0867 26.8659 90.4807 27.7362C91.0262 28.9452 91.5667 30.1576 92.1123 31.3666C92.4086 32.0257 92.71 32.683 93.0097 33.3403C93.333 34.0513 93.6596 34.7606 93.9796 35.4733C94.1042 35.75 94.0873 35.7684 93.7826 35.7617C91.4859 35.703 89.1875 35.6443 86.8909 35.5856C86.736 35.5823 86.576 35.5538 86.4295 35.5856C86.2005 35.6376 86.1197 35.537 86.0422 35.3458C85.6432 34.3666 85.2105 33.4007 84.8131 32.4214C84.4359 31.4891 84.0386 30.5634 83.6951 29.6177C83.6883 29.5975 83.6563 29.5841 83.6176 29.554C83.5014 29.616 83.4273 29.7183 83.3465 29.8357C82.4609 31.1269 81.5836 32.4231 80.6693 33.6925C80.3528 34.1318 80.181 34.5678 80.2517 35.1061C80.2989 35.4649 80.2231 35.423 79.9352 35.4163C78.6892 35.3894 77.4415 35.3626 76.1955 35.3324C75.2846 35.3106 74.3737 35.2771 73.4645 35.2586C73.0856 35.2503 73.0991 35.2587 73.0991 34.8881C73.1008 30.9055 73.1008 26.9229 73.1008 22.9421C73.1008 19.3502 73.1008 15.7567 73.1008 12.1648C73.1008 12.0408 73.0957 11.9167 73.0957 11.7926C73.0957 11.5763 73.2001 11.4404 73.4038 11.4103C73.5419 11.3901 73.6833 11.3817 73.8231 11.3817C75.7005 11.3817 77.5796 11.3834 79.457 11.3801C80.2433 11.3784 80.2551 11.5159 80.2534 12.1514C80.2467 15.6041 80.2501 19.0568 80.2517 22.5111C80.2517 22.5363 80.2602 22.5631 80.2787 22.6604L80.2753 22.6587Z" fill="#FDCF39"/>
<path d="M12.3617 33.6758C10.2182 33.6238 8.07647 33.5718 5.93303 33.5198C5.65184 33.5131 5.64847 33.5115 5.63332 33.2163C5.62322 33.0084 5.61816 32.7988 5.61816 32.5909C5.61816 25.8532 5.61816 19.1156 5.61816 12.3779C5.61816 12.1834 5.61816 11.9872 5.63163 11.7944C5.65857 11.4724 5.68888 11.4422 6.00038 11.4037C6.12498 11.3886 6.25126 11.3852 6.37755 11.3852C8.42333 11.3852 10.4691 11.3852 12.5149 11.3852C12.5705 11.3852 12.6277 11.3852 12.6833 11.3852C13.1699 11.402 13.2558 11.4841 13.2878 11.9721C13.2945 12.0694 13.2878 12.1666 13.2878 12.2639C13.2878 15.4231 13.2878 18.584 13.2878 21.7432C13.2878 21.8271 13.2878 21.9109 13.2878 21.9931C13.2844 22.3419 13.281 22.3066 13.6077 22.3066C15.0086 22.3066 16.4095 22.3066 17.8121 22.3066C18.2162 22.3066 18.1673 22.3033 18.1673 21.9361C18.1673 18.7064 18.1673 15.4768 18.1673 12.2471C18.1673 12.0526 18.1724 11.8564 18.2027 11.6652C18.2246 11.5311 18.2869 11.4288 18.4738 11.4171C18.6388 11.4053 18.8072 11.3835 18.9739 11.3835C21.0196 11.3819 23.0654 11.3802 25.1112 11.3835C25.8723 11.3835 25.9076 11.4221 25.9076 12.1867C25.9093 14.3164 25.9076 16.446 25.9076 18.5756C25.9076 23.685 25.9076 28.7928 25.906 33.9022C25.8841 33.934 25.8605 33.9659 25.8386 33.9978C24.8721 34.0313 23.9073 33.9827 22.9425 33.9542C22.3684 33.9374 21.7959 33.9273 21.2217 33.9122C20.2838 33.8871 19.3477 33.8552 18.4098 33.8435C18.1943 33.8401 18.1606 33.7613 18.1606 33.5752C18.1673 32.4634 18.1657 31.35 18.164 30.2382C18.164 29.8928 18.1606 29.8894 17.8323 29.8878C16.433 29.8878 15.0321 29.8878 13.6329 29.8878C13.2894 29.8878 13.2878 29.8945 13.2861 30.2231C13.2861 31.2661 13.2861 32.3091 13.2861 33.3522C13.2861 33.6892 13.281 33.6909 12.9392 33.6909C12.786 33.6909 12.6311 33.6808 12.4779 33.6758C12.4375 33.6758 12.397 33.6758 12.3566 33.6741L12.3617 33.6758Z" fill="#FDCF39"/>
<path d="M128.279 36.669C127.541 36.6455 126.804 36.6153 126.066 36.5969C124.714 36.5617 123.364 36.5332 122.012 36.503C121.971 36.503 121.931 36.5164 121.89 36.5248C121.843 36.4376 121.789 36.4091 121.719 36.5047C120.852 36.4745 119.984 36.4443 119.117 36.4158C118.993 36.4124 118.868 36.4158 118.732 36.4158C118.671 36.2816 118.678 36.1592 118.711 36.0435C118.984 35.1061 119.264 34.1721 119.537 33.2348C119.819 32.2639 120.097 31.2913 120.378 30.3204C120.577 29.6329 120.798 28.952 120.978 28.2595C121.139 27.6391 121.32 27.0203 121.495 26.4049C121.744 25.5245 122.04 24.6526 122.286 23.7705C122.569 22.7493 122.923 21.7499 123.177 20.7203C123.308 20.1904 123.492 19.6605 123.643 19.1323C123.854 18.4012 124.1 17.6801 124.276 16.9356C124.419 16.3353 124.628 15.7417 124.798 15.1447C125.037 14.3013 125.315 13.4695 125.532 12.6194C125.62 12.2739 125.677 11.9033 125.881 11.5831C125.948 11.4757 126.004 11.4137 126.128 11.4087C126.282 11.4036 126.435 11.3818 126.59 11.3818C128.831 11.3818 131.074 11.3818 133.315 11.3818C133.343 11.3818 133.37 11.3818 133.399 11.3818C134.036 11.3936 134.049 11.3902 134.233 11.9972C134.377 12.4768 134.477 12.9698 134.61 13.4528C134.749 13.9592 134.928 14.4572 135.051 14.9687C135.265 15.8557 135.583 16.7126 135.797 17.6013C135.955 18.2553 136.149 18.9059 136.339 19.5532C136.561 20.3061 136.75 21.0724 136.977 21.822C137.388 23.1752 137.725 24.5486 138.127 25.9018C138.627 27.5871 139.105 29.279 139.558 30.9777C139.9 32.2605 140.286 33.5332 140.666 34.8077C140.856 35.4466 140.986 36.1039 141.213 36.7327C141.277 36.9121 141.22 36.9759 141.016 36.9708C139.839 36.9457 138.664 36.9205 137.487 36.8853C136.662 36.8602 135.837 36.8266 135.012 36.8585C134.963 36.7713 134.909 36.7461 134.842 36.8417C133.951 36.8132 133.061 36.7813 132.17 36.7562C131 36.7243 129.829 36.7008 128.659 36.674C128.59 36.674 128.521 36.6841 128.454 36.6891C128.407 36.6019 128.351 36.5734 128.284 36.6707L128.279 36.669ZM129.87 18.4398C129.845 18.5035 129.797 18.5655 129.797 18.6293C129.787 19.2262 129.612 19.7997 129.542 20.3883C129.476 20.9467 129.371 21.5001 129.286 22.0568C129.203 22.595 129.146 23.14 129.033 23.6733C128.935 24.1294 128.868 24.5922 128.806 25.0483C128.728 25.6084 128.607 26.1601 128.518 26.7151C128.452 27.1243 128.343 27.5384 128.307 27.9459C128.26 28.4691 128.083 28.9638 128.058 29.4836C128.041 29.8341 127.876 30.1695 127.957 30.5367H131.889C131.801 29.6664 131.621 28.8397 131.496 28.0046C131.389 27.2852 131.242 26.5675 131.161 25.8498C131.05 24.8488 130.819 23.8678 130.734 22.865C130.705 22.5347 130.575 22.2127 130.57 21.8891C130.562 21.4565 130.441 21.0456 130.37 20.6314C130.247 19.9054 130.165 19.1759 130.055 18.4498C130.089 18.2989 130.144 18.0742 129.952 18.0692C129.806 18.0641 129.872 18.3039 129.872 18.4414L129.87 18.4398Z" fill="#FDCF39"/>
<path d="M108.799 22.3215C109.856 22.6318 110.949 22.8246 111.981 23.2153C113.015 23.606 114.037 24.0303 114.922 24.7111C116.094 25.6132 116.894 26.777 117.342 28.1788C117.67 29.2084 117.879 30.2565 117.857 31.3431C117.846 31.9551 117.901 32.5722 117.788 33.1776C117.618 34.0814 117.487 34.9953 117.121 35.8522C117.054 36.0098 117.101 36.2295 116.931 36.3284C116.77 36.4223 116.574 36.3485 116.394 36.3435C112.639 36.2546 108.884 36.1607 105.13 36.0685C102.986 36.0165 100.843 35.9662 98.6993 35.9109C98.2784 35.9008 97.8591 35.874 97.4399 35.8522C97.2142 35.8404 97.1789 35.7717 97.3119 35.5755C97.5594 35.2133 97.8153 34.8561 98.0696 34.4989C98.8593 33.3922 99.6507 32.2872 100.44 31.1804C100.447 31.1704 100.442 31.1502 100.45 31.1402C100.735 30.721 100.897 30.7226 101.223 31.1569C101.649 31.7221 102.107 32.2586 102.606 32.76C103.074 33.2312 103.589 33.6421 104.155 33.9942C104.401 34.1468 104.603 34.3614 104.872 34.4822C106.047 35.0104 107.275 35.2234 108.558 35.0741C109.156 35.0037 109.731 34.8025 110.159 34.3933C110.681 33.8936 110.979 33.2363 110.833 32.5018C110.639 31.5326 110.016 30.9205 109.053 30.6405C108.703 30.5382 108.376 30.3671 108.016 30.2799C107.179 30.0787 106.35 29.8473 105.512 29.6528C104.202 29.3476 102.897 29.0357 101.7 28.3951C100.844 27.9374 100.058 27.3806 99.4183 26.6562C98.9755 26.1549 98.6269 25.578 98.3373 24.9676C97.9753 24.2063 97.7362 23.4048 97.6116 22.5831C97.5426 22.1237 97.519 21.6458 97.4937 21.1762C97.4432 20.2154 97.5106 19.2562 97.5981 18.3021C97.6436 17.8007 97.8254 17.306 97.9585 16.8114C98.211 15.8773 98.6555 15.0456 99.1674 14.239C99.7854 13.2681 100.636 12.5353 101.604 11.9317C102.777 11.1989 104.074 10.8182 105.436 10.6036C106.593 10.4208 107.756 10.4158 108.911 10.513C109.969 10.6002 111.001 10.8635 112.003 11.2492C113.117 11.6785 114.114 12.2905 115.024 13.0418C115.47 13.4107 115.939 13.7645 116.28 14.2508C116.381 14.3967 116.544 14.499 116.66 14.6348C116.871 14.8796 116.877 15.0573 116.692 15.3122C115.812 16.5213 114.928 17.7269 114.047 18.9343C113.798 19.2763 113.545 19.6167 113.306 19.9655C113.25 20.0477 113.183 20.1148 113.116 20.1819C112.846 20.4535 112.84 20.4502 112.565 20.1601C111.851 19.4038 111.035 18.7666 110.109 18.3021C108.797 17.6448 107.393 17.3932 105.963 17.8057C104.998 18.0841 104.557 18.7045 104.663 19.8163C104.719 20.4049 105.056 20.8291 105.534 21.1544C106.276 21.6609 107.11 21.9442 107.98 22.122C108.199 22.1673 108.379 22.2997 108.6 22.3266C108.667 22.4322 108.731 22.3651 108.797 22.3232L108.799 22.3215Z" fill="#FDCF39"/>
<path d="M29.041 33.986C29.2228 33.3672 29.4451 32.7552 29.5798 32.1263C29.7734 31.2225 30.0883 30.3522 30.3341 29.4652C30.4907 28.8984 30.649 28.3199 30.8426 27.7581C31.1036 27.0018 31.2753 26.2171 31.4909 25.4457C31.5784 25.1355 31.6677 24.8236 31.7771 24.5201C31.9034 24.1746 31.9387 23.8074 32.0734 23.4637C32.3193 22.8348 32.4237 22.1624 32.6442 21.5218C32.885 20.8209 33.0349 20.0915 33.2403 19.3771C33.3279 19.0703 33.4541 18.7667 33.5366 18.4666C33.6461 18.0641 33.7774 17.665 33.8801 17.2576C34.0468 16.5902 34.2489 15.9312 34.4425 15.2705C34.6294 14.6349 34.8214 13.9994 34.9931 13.3605C35.1329 12.8373 35.3652 12.341 35.4309 11.796C35.4595 11.5613 35.638 11.4254 35.8771 11.4003C36.0168 11.3869 36.1566 11.3802 36.2963 11.3802C38.524 11.3802 40.7516 11.3718 42.9793 11.3852C43.7673 11.3902 43.6864 11.3282 43.8935 12.0392C44.0518 12.5858 44.2034 13.1342 44.3583 13.6808C44.5367 14.3063 44.722 14.9318 44.8971 15.5589C45.0553 16.124 45.1766 16.7025 45.3652 17.2576C45.6396 18.0708 45.8316 18.9043 46.0639 19.7276C46.3468 20.7304 46.6364 21.7298 46.9311 22.7292C47.0877 23.2608 47.2746 23.7906 47.379 24.3323C47.5238 25.0818 47.7881 25.7962 47.9733 26.534C48.0912 27.0035 48.2629 27.468 48.3943 27.9375C48.566 28.5513 48.7731 29.1566 48.9028 29.7838C49.0088 30.2986 49.1856 30.7999 49.3254 31.308C49.519 32.0106 49.7177 32.7116 49.9113 33.4125C49.9972 33.7244 50.1235 34.0279 50.1993 34.3465C50.27 34.6484 50.2616 34.6735 49.9332 34.6685C49.1351 34.6551 48.337 34.6349 47.5389 34.6131C45.0469 34.5461 42.5533 34.4773 40.0613 34.4086C37.4851 34.3381 34.9089 34.2694 32.3327 34.1922C31.3242 34.1621 30.3156 34.1855 29.3087 34.1084C29.2397 34.1034 29.1689 34.0933 29.0999 34.0866C29.0797 34.0514 29.0595 34.0179 29.0376 33.9826L29.041 33.986ZM41.5464 30.5451C41.5514 30.4948 41.5666 30.4528 41.5581 30.4159C41.41 29.7385 41.314 29.0526 41.213 28.3651C41.1658 28.0415 41.186 27.7095 41.085 27.3892C40.9234 26.8794 40.952 26.3361 40.8308 25.8129C40.7415 25.434 40.7331 25.0198 40.6775 24.6224C40.558 23.7504 40.393 22.8868 40.228 22.0215C40.1084 21.3894 40.0377 20.7455 39.9737 20.1049C39.9451 19.8282 39.7935 19.5817 39.802 19.305C39.8154 18.9009 39.6437 18.5169 39.6925 18.1061C39.5006 18.418 39.4282 18.7701 39.3911 19.1088C39.3069 19.8735 39.1773 20.6297 39.0678 21.3894C38.9971 21.884 38.8591 22.372 38.8052 22.8667C38.7446 23.4167 38.6604 23.9617 38.561 24.505C38.5223 24.7179 38.46 24.9242 38.4415 25.1455C38.4263 25.33 38.4179 25.5279 38.364 25.709C38.2159 26.2087 38.2192 26.7285 38.1249 27.2349C38.0239 27.7766 37.9936 28.335 37.8555 28.8665C37.7377 29.3277 37.7545 29.8022 37.6232 30.26C37.5423 30.54 37.5929 30.5618 37.8909 30.5635C39.0544 30.5669 40.2162 30.5652 41.3797 30.5635C41.4335 30.5635 41.4874 30.5501 41.5464 30.5434V30.5451Z" fill="#FDCF39"/>
<path d="M64.1734 35.0156C63.0773 34.9938 61.9845 34.977 60.8934 34.9502C59.1288 34.9066 57.3642 34.8563 55.5996 34.8093C54.815 34.7875 54.0304 34.7456 53.2474 34.754C52.9645 34.7574 52.8366 34.6182 52.7642 34.4136C52.3954 33.3756 52.0536 32.3343 51.8179 31.251C51.4003 29.326 51.2892 27.3875 51.4188 25.434C51.5013 24.178 51.6562 22.9321 51.9694 21.6979C52.2775 20.4855 52.712 19.3386 53.2373 18.21C53.7138 17.1855 54.325 16.2498 55.0036 15.3594C55.3168 14.9485 55.6653 14.5545 56.0391 14.1822C56.6655 13.5584 57.3609 13.0369 58.0815 12.5389C58.9807 11.9201 59.9488 11.4321 60.9978 11.1286C61.9239 10.862 62.8668 10.6775 63.835 10.5853C64.9059 10.483 65.9633 10.53 67.0173 10.6759C67.8558 10.7916 68.6674 11.0398 69.4807 11.2712C69.6692 11.3248 69.7417 11.4757 69.7854 11.6384C69.8141 11.744 69.8073 11.8597 69.8073 11.9704C69.8073 14.5042 69.809 17.0379 69.804 19.5717C69.804 19.7276 69.8865 19.9707 69.7046 20.0177C69.5379 20.0596 69.4184 19.845 69.3123 19.7024C68.8206 19.0468 68.1707 18.6024 67.418 18.2805C66.1889 17.7539 64.9378 17.759 63.6784 18.1195C63.0318 18.3039 62.4812 18.6745 61.9744 19.1139C61.4087 19.6069 61.0382 20.2458 60.7032 20.888C60.3849 21.4984 60.1997 22.1741 60.0633 22.8566C59.6811 24.7616 59.6407 26.6715 59.8646 28.5999C59.9455 29.2941 60.0633 29.98 60.2586 30.639C60.6274 31.8866 61.2117 33.0369 62.2219 33.9105C62.7052 34.3281 63.2541 34.6567 63.8838 34.8228C63.9528 34.8412 64.0101 34.8731 64.0707 34.9016C64.1027 34.9167 64.1583 34.8965 64.1717 35.0156H64.1734Z" fill="#FDCF39"/>
<path d="M25.2543 35.3527C25.325 35.3376 25.3789 35.3158 25.4327 35.3175C26.3285 35.3342 27.2243 35.3527 28.1217 35.3728C29.0747 35.3946 30.0261 35.4114 30.9791 35.4399C32.1409 35.4751 33.3044 35.4852 34.4679 35.517C36.7224 35.5807 38.977 35.6528 41.2316 35.683C42.912 35.7065 44.5924 35.7853 46.2728 35.839C46.6517 35.8507 46.6769 35.8524 46.7493 36.2146C46.8958 36.9457 47.1517 37.6466 47.3184 38.3727C47.4801 39.082 47.7293 39.7712 47.933 40.4722C48.0997 41.0473 48.2597 41.6225 48.4112 42.201C48.4903 42.4995 48.4045 42.6152 48.1048 42.6521C48.0088 42.6638 47.9094 42.6588 47.8101 42.6588C45.6667 42.6588 43.5215 42.6622 41.3781 42.6538C41.2366 42.6538 41.0801 42.7208 40.9437 42.6001C40.7921 42.466 40.6844 42.2815 40.6608 42.1088C40.5884 41.5739 40.4335 41.0591 40.3207 40.5342C40.1893 39.9238 40.0311 39.3185 39.9182 38.7047C39.8745 38.4683 39.7718 38.4264 39.5579 38.4281C37.1198 38.4331 34.6817 38.4331 32.2436 38.4214C32.0045 38.4214 31.9001 38.4884 31.8479 38.7198C31.6964 39.3889 31.5263 40.0529 31.3967 40.727C31.2956 41.2486 31.1643 41.765 31.0448 42.2832C30.9909 42.5163 30.8343 42.632 30.6002 42.6504C30.5026 42.6588 30.4049 42.6605 30.3056 42.6605C28.1891 42.6605 26.0743 42.6621 23.9578 42.6605C23.3449 42.6605 23.3331 42.6353 23.3987 42.0283C23.4459 41.5873 23.6008 41.1748 23.7203 40.7539C23.9359 39.9959 24.1935 39.2514 24.4023 38.4918C24.6043 37.759 24.8097 37.0296 25.0269 36.3018C25.1196 35.9949 25.2879 35.6981 25.2559 35.3544L25.2543 35.3527Z" fill="#FDCF39"/>
<path d="M66.1109 39.6371C66.1109 40.5979 66.1109 41.5588 66.1109 42.5196C66.1109 42.9858 66.0031 43.1468 65.5502 43.2541C64.8868 43.4117 64.2217 43.5777 63.5482 43.675C62.3695 43.8443 61.1825 43.8645 59.992 43.7571C58.81 43.6498 57.6583 43.3983 56.5437 43.0042C55.8617 42.7628 55.2253 42.4039 54.5955 42.0467C54.0113 41.7147 53.4573 41.3307 52.9522 40.8964C52.415 40.4336 51.9015 39.9322 51.4401 39.3956C50.6538 38.4851 50.0157 37.4706 49.4886 36.389C49.2647 35.9279 49.2731 35.9195 49.7833 35.9279C51.1842 35.9513 52.5868 35.9798 53.9877 36.0218C56.1446 36.0855 58.3032 36.114 60.4601 36.1894C62.2247 36.2515 63.991 36.2649 65.7539 36.3387C66.1092 36.3538 66.1109 36.3571 66.1109 36.7143C66.1109 37.6886 66.1109 38.6645 66.1109 39.6388V39.6371Z" fill="#FDCF39"/>
<path d="M101.7 43.5256C101.117 43.4116 100.538 43.2741 99.9503 43.1936C99.7112 43.16 99.5108 43.0494 99.2903 42.984C98.9805 42.8951 98.6841 42.7542 98.3659 42.6771C98.1386 42.6218 97.9988 42.4155 97.7766 42.3417C97.5341 42.2612 97.3118 42.1237 97.0694 42.0416C96.7966 41.951 96.6265 41.7213 96.3858 41.5955C95.9143 41.349 95.4917 41.012 95.096 40.6799C94.6969 40.3446 94.2592 40.0327 93.9275 39.6017C93.6463 39.2362 93.2842 38.9276 92.9879 38.5688C92.7101 38.2317 92.7084 38.0842 92.961 37.7354C92.9862 37.7018 93.0216 37.6733 93.035 37.6347C93.2337 37.0931 93.658 37.0596 94.1632 37.0646C95.9429 37.0847 97.721 37.1602 99.4991 37.1904C101.656 37.2273 103.811 37.3061 105.968 37.3564C107.62 37.395 109.273 37.4402 110.925 37.5023C111.61 37.5274 112.297 37.4889 112.983 37.5677C113.255 37.5995 113.255 37.6012 113.143 37.8662C112.796 38.6794 112.292 39.3904 111.75 40.0863C111.092 40.9298 110.262 41.5754 109.351 42.1002C108.627 42.5178 107.872 42.8884 107.049 43.1181C105.87 43.4484 104.68 43.6245 103.459 43.6111C102.927 43.6061 102.393 43.6161 101.868 43.5138C101.809 43.4686 101.75 43.425 101.7 43.5222V43.5256Z" fill="#FDCF39"/>
<path d="M113.794 42.6151C113.77 42.6151 113.748 42.6101 113.728 42.5933C113.693 42.4826 113.735 42.3501 113.629 42.2596C113.676 41.8739 113.807 41.5083 113.915 41.1378C114.094 40.5274 114.299 39.9237 114.481 39.3133C114.636 38.7918 114.779 38.267 114.91 37.7388C114.946 37.5945 115.038 37.6096 115.126 37.608C115.434 37.6046 115.742 37.6113 116.05 37.6163C117.101 37.6365 118.153 37.6314 119.201 37.6851C120.95 37.774 122.701 37.784 124.451 37.8343C126.914 37.9064 129.379 37.95 131.844 38.0255C133.678 38.0825 135.513 38.0926 137.347 38.1664C137.54 38.1747 137.597 38.2351 137.646 38.4061C137.934 39.4139 138.237 40.4184 138.534 41.4245C138.609 41.6844 138.685 41.946 138.749 42.211C138.813 42.4793 138.724 42.6117 138.454 42.6486C138.316 42.6671 138.175 42.6587 138.035 42.6587C135.85 42.6587 133.664 42.6553 131.479 42.6536C131.209 42.6536 131.118 42.5916 131.058 42.3233C130.812 41.2535 130.517 40.1954 130.318 39.1155C130.3 39.0165 130.223 38.9578 130.211 38.8539C130.165 38.4313 130.157 38.433 129.731 38.433C127.406 38.4313 125.079 38.4296 122.753 38.4263C122.235 38.4263 122.245 38.4263 122.13 38.9411C121.964 39.6822 121.78 40.4201 121.602 41.1596C121.502 41.567 121.408 41.9762 121.293 42.3803C121.25 42.5363 121.179 42.6721 120.955 42.6704C118.63 42.6587 116.304 42.657 113.979 42.6536C113.932 42.5732 113.868 42.5782 113.796 42.6134L113.794 42.6151Z" fill="#FDCF39"/>
<path d="M71.2543 53.9575C71.4008 53.441 71.5372 52.9212 71.6971 52.4081C72.0204 51.3751 72.3622 50.3472 72.6771 49.3109C72.7192 49.17 72.768 49.1298 72.8926 49.1298C73.7749 49.1298 74.6572 49.1298 75.5378 49.1247C75.7365 49.1247 75.7129 49.2455 75.7129 49.3746C75.7095 50.1678 75.7062 50.9609 75.7062 51.7524C75.7062 53.8938 75.7062 56.0368 75.7095 58.1782C75.7095 58.5437 75.755 58.537 75.3459 58.5404C74.7717 58.5454 74.1975 58.5471 73.6233 58.5437C73.2799 58.5437 73.2815 58.5387 73.2815 58.2117C73.2815 56.4879 73.2832 54.7624 73.2849 53.0386C73.3657 52.9497 73.4146 52.8575 73.2967 52.7552C73.2125 52.8373 73.1536 52.9195 73.1873 53.0369C72.9347 53.8233 72.6804 54.6081 72.4329 55.3962C72.3386 55.693 72.246 55.9932 72.182 56.2984C72.1484 56.4594 72.0608 56.513 71.9261 56.5147C71.4075 56.5214 70.8889 56.5197 70.3703 56.5197C70.2305 56.5197 70.2053 56.4225 70.1548 56.3135C69.9275 55.8255 69.8315 55.299 69.6614 54.7942C69.4897 54.2828 69.4072 53.7428 69.163 53.2532C69.1209 53.1693 69.2135 53.057 69.0553 52.9715C69.0553 53.4192 69.0553 53.8418 69.0553 54.2643C69.0603 55.6008 69.0603 56.9373 69.0772 58.2737C69.0805 58.4968 69.0233 58.5588 68.7993 58.5521C68.1831 58.5336 67.5668 58.5454 66.9489 58.537C66.6407 58.5336 66.6475 58.5269 66.6475 58.2067C66.6508 55.2822 66.6525 52.3594 66.6525 49.435C66.6525 49.1348 66.6475 49.1264 66.9421 49.1247C67.7402 49.1214 68.54 49.1281 69.3381 49.1247C69.525 49.1247 69.6261 49.1667 69.6833 49.383C69.9494 50.3807 70.3029 51.3516 70.6229 52.3343C70.7997 52.8759 70.9579 53.4242 71.1583 53.9592C71.0977 54.0044 71.1145 54.0631 71.1684 54.0749C71.2593 54.095 71.2677 54.0262 71.2509 53.9558L71.2543 53.9575Z" fill="#FDCF39"/>
<path d="M2.00692 38.6041C2.00692 37.38 2.01029 36.1559 2.00187 34.9317C2.00187 34.7439 2.04733 34.7104 2.2376 34.7154C4.22445 34.7657 6.21299 34.7976 8.20153 34.8429C8.62079 34.8529 9.04005 34.8932 9.45931 34.9116C9.60748 34.9183 9.65463 34.9871 9.64621 35.1212C9.64116 35.2051 9.64116 35.2872 9.64116 35.3711C9.64116 37.5275 9.64116 39.684 9.64284 41.8404C9.64284 41.9377 9.64284 42.035 9.63779 42.1322C9.60917 42.5749 9.53171 42.6571 9.07036 42.6587C7.68461 42.6638 6.29718 42.6604 4.91143 42.6604C4.0847 42.6604 3.25965 42.6638 2.43292 42.6587C2.04565 42.6571 2.00187 42.6135 2.00019 42.2362C1.9985 41.6795 2.00861 41.1227 2.01029 40.5677C2.01197 39.9137 2.01029 39.2597 2.01029 38.6058C2.01029 38.6058 2.00692 38.6058 2.00524 38.6058L2.00692 38.6041Z" fill="#FDCF39"/>
<path d="M14.5141 38.6258C14.472 37.5693 14.4635 36.5112 14.4686 35.4531C14.4703 34.9987 14.4686 35.0205 14.9097 35.0423C15.6506 35.0792 16.3931 35.0859 17.1357 35.101C18.3952 35.1278 19.6563 35.1463 20.9158 35.1764C21.266 35.1848 21.6145 35.2318 21.9631 35.2368C22.1634 35.2402 22.2274 35.3005 22.2224 35.5017C22.2089 36.1423 22.214 36.7812 22.214 37.4218C22.214 38.9527 22.2156 40.4837 22.2156 42.013C22.2156 42.5513 22.1264 42.6486 21.5809 42.6486C19.4795 42.6519 17.3782 42.6486 15.2785 42.6486C15.1808 42.6486 15.0815 42.6402 14.9838 42.6452C14.6976 42.6569 14.5982 42.5966 14.5578 42.3367C14.5258 42.1321 14.5157 41.9208 14.5157 41.7129C14.5124 40.6833 14.5141 39.6537 14.5157 38.6241L14.5141 38.6258Z" fill="#FDCF39"/>
<path d="M125.498 58.3877C125.562 58.2268 125.54 58.0574 125.54 57.8914C125.54 55.0659 125.536 52.2403 125.535 49.4131C125.535 49.1398 125.535 49.1314 125.814 49.1298C126.402 49.1247 126.991 49.1348 127.58 49.1247C127.779 49.1214 127.872 49.2069 127.946 49.3796C128.518 50.7144 129.103 52.0475 129.678 53.3806C129.751 53.55 129.758 53.7512 129.985 53.9189C129.995 53.5953 130.007 53.327 130.008 53.0587C130.015 51.848 130.024 50.6373 130.015 49.4249C130.015 49.217 130.035 49.1214 130.278 49.1264C130.936 49.1415 131.595 49.1398 132.253 49.1264C132.487 49.1214 132.51 49.2035 132.51 49.4215C132.5 52.3443 132.505 55.2688 132.509 58.1915C132.509 58.262 132.51 58.3307 132.509 58.4012C132.509 58.5185 132.457 58.5722 132.33 58.5705C131.645 58.5554 130.958 58.5454 130.271 58.5319C130.138 58.5286 130.089 58.4716 130.03 58.3257C129.744 57.6164 129.419 56.9222 129.097 56.2279C128.973 55.958 128.836 55.6964 128.778 55.4029C128.772 55.3761 128.761 55.3493 128.749 55.3258C128.506 54.8244 128.264 54.3247 128.02 53.8233C128.027 53.7881 128.006 53.7629 127.978 53.7764C127.941 53.7931 127.917 53.8283 127.968 53.8636C128.054 54.0916 128.02 54.3297 128.02 54.5628C128.02 55.8641 128.02 57.167 128.02 58.4682C127.993 58.4951 127.966 58.5236 127.939 58.5504C127.159 58.5454 126.378 58.5403 125.599 58.537C125.585 58.4733 125.575 58.4095 125.499 58.3894L125.498 58.3877ZM129.983 53.9675C129.976 53.9927 129.968 54.0145 129.966 54.0379C129.966 54.048 129.981 54.0581 129.992 54.0698C130.005 54.0497 130.025 54.0296 130.03 54.0078C130.032 53.9994 130.002 53.9826 129.983 53.9692V53.9675Z" fill="#FDCF39"/>
<path d="M155.946 50.7797C155.976 50.6439 156.023 50.5097 156.034 50.3722C156.071 49.8608 156.396 49.5757 156.823 49.3812C157.204 49.2085 157.613 49.1363 158.027 49.1313C158.925 49.1229 159.82 49.1196 160.718 49.1363C161.208 49.1447 161.667 49.3158 162.072 49.579C162.484 49.8473 162.619 50.3034 162.659 50.7579C162.701 51.2274 162.664 51.7036 162.678 52.1765C162.683 52.3475 162.617 52.3878 162.459 52.3861C161.703 52.3794 160.945 52.3794 160.189 52.3861C160.029 52.3861 159.965 52.3392 159.972 52.1732C159.982 51.8814 159.98 51.5879 159.972 51.2962C159.963 50.9323 159.915 50.8853 159.559 50.8786C159.364 50.8753 159.167 50.8786 158.97 50.8786C158.8 50.8769 158.707 50.9474 158.711 51.1251C158.711 51.2224 158.701 51.3196 158.701 51.4169C158.701 53.0317 158.701 54.6465 158.704 56.2614C158.704 56.8281 158.724 56.8416 159.292 56.8483C159.883 56.855 159.962 56.7812 159.97 56.196C159.975 55.8757 159.965 55.5554 159.974 55.2351C159.979 55.0641 159.931 54.9651 159.741 54.9836C159.714 54.9869 159.686 54.9836 159.657 54.9819C159.187 54.9584 159.186 54.9584 159.184 54.5074C159.182 54.2005 159.192 53.8953 159.18 53.5884C159.174 53.3956 159.234 53.3117 159.441 53.3134C160.437 53.3218 161.432 53.3268 162.427 53.3201C162.632 53.3201 162.683 53.3822 162.681 53.5851C162.669 54.6432 162.671 55.7013 162.673 56.7594C162.674 57.7336 162.077 58.2652 161.255 58.5436C161.179 58.5687 161.088 58.557 161.004 58.5536C159.911 58.5117 158.818 58.5067 157.726 58.557C156.953 58.5922 156.485 58.116 156.054 57.581C156.002 57.5173 155.966 57.3966 155.99 57.3262C156.054 57.1367 155.953 56.9757 155.944 56.8013C155.944 56.7694 155.943 56.7376 155.941 56.7057C155.941 54.7606 155.941 52.8154 155.941 50.8702C155.941 50.8384 155.943 50.8065 155.944 50.7763L155.946 50.7797Z" fill="#FDCF39"/>
<path d="M9.84541 56.704C9.85046 56.2026 9.84541 55.7029 9.86393 55.2015C9.87067 55.0003 9.78816 54.9685 9.61473 54.9835C9.45141 54.9986 9.2864 54.9869 9.08771 54.9869C9.08771 54.4721 9.08771 53.9892 9.08771 53.5046C9.08771 53.3821 9.14159 53.3302 9.26282 53.3302C9.4312 53.3302 9.59958 53.3218 9.76627 53.3218C10.6065 53.3218 11.4467 53.3201 12.2869 53.3302C12.6068 53.3335 12.6203 53.3486 12.6152 53.6672C12.5984 54.737 12.6792 55.8102 12.558 56.8767C12.4452 57.8745 12.1555 58.1646 11.1705 58.5368C11.051 58.5821 10.923 58.5737 10.7967 58.567C9.7326 58.5117 8.66845 58.4932 7.60599 58.5737C7.03182 58.6173 6.64119 58.3322 6.27749 57.9667C6.03166 57.7202 5.89191 57.4301 5.89528 57.0629C5.90369 55.9913 5.88686 54.9198 5.88517 53.8483C5.88517 52.8187 5.91548 51.7874 5.88181 50.7595C5.85318 49.8557 6.47786 49.3761 7.23219 49.2017C7.44772 49.1514 7.67503 49.1313 7.89728 49.1279C8.76611 49.1195 9.63326 49.1212 10.5021 49.1246C10.9348 49.1246 11.3406 49.252 11.7312 49.4281C12.1976 49.6377 12.4435 50.0183 12.5361 50.4946C12.6455 51.0563 12.6236 51.6298 12.6152 52.1999C12.6119 52.3928 12.4974 52.3844 12.366 52.3844C11.5427 52.3844 10.7193 52.3844 9.8572 52.3844C9.8572 52.0004 9.86225 51.6281 9.8572 51.2559C9.85046 50.8903 9.84373 50.887 9.4733 50.8819C9.30492 50.8803 9.13654 50.8786 8.96985 50.8819C8.68529 50.8903 8.63983 50.9322 8.60615 51.219C8.59437 51.3146 8.59437 51.4135 8.59437 51.5108C8.59437 53.0837 8.59437 54.6549 8.59437 56.2278C8.59437 56.3385 8.60952 56.4508 8.60278 56.5615C8.59268 56.7409 8.68529 56.8029 8.8503 56.8197C9.12981 56.8499 9.40763 56.86 9.68545 56.7962C9.75785 56.7962 9.85046 56.8331 9.84541 56.7023V56.704Z" fill="#FDCF39"/>
<path d="M35.3486 58.468C35.6012 57.529 35.8554 56.5899 36.1046 55.6492C36.3016 54.903 36.4902 54.1518 36.7074 53.4123C36.9398 52.6225 37.1166 51.8192 37.3725 51.0361C37.5493 50.4928 37.6672 49.9277 37.7834 49.366C37.8204 49.1899 37.881 49.1279 38.0494 49.1295C39.0159 49.1329 39.9841 49.1296 40.9506 49.1329C41.1038 49.1329 41.188 49.1832 41.2351 49.3626C41.5634 50.6387 41.912 51.9098 42.2521 53.1825C42.5855 54.4318 42.9138 55.6811 43.2489 56.9303C43.3887 57.4535 43.5368 57.9733 43.6917 58.5317H40.9842C40.9724 58.1176 40.6997 57.7486 40.7131 57.3076C40.7165 57.1902 40.6407 57.1416 40.5212 57.1416C39.8477 57.145 39.1759 57.1433 38.5023 57.145C38.3727 57.145 38.3121 57.2003 38.2767 57.3361C38.1858 57.695 38.1168 58.0555 38.0646 58.4211C38.041 58.5787 38.046 58.7095 37.8221 58.5837C37.7345 58.5334 37.6049 58.5502 37.4938 58.5485C36.8068 58.5452 36.1198 58.5452 35.4328 58.5452C35.4042 58.52 35.3773 58.4965 35.3486 58.4714V58.468ZM39.516 52.0205C39.3308 52.8019 39.1624 53.5011 38.9974 54.2004C38.93 54.4888 38.8677 54.7789 38.8054 55.0707C38.7785 55.1998 38.8088 55.2904 38.9687 55.2887C39.3981 55.2803 39.8292 55.3172 40.2703 55.2686C40.0228 54.2021 39.7803 53.1557 39.516 52.0221V52.0205Z" fill="#FDCF39"/>
<path d="M88.8069 42.6572C87.6721 42.6572 86.5372 42.6588 85.404 42.6572C85.0235 42.6572 84.8501 42.5465 84.7288 42.201C84.5824 41.7818 84.4072 41.376 84.2355 40.9685C83.9644 40.328 83.7135 39.679 83.4441 39.0385C83.1764 38.3979 82.8918 37.7641 82.6241 37.1235C82.513 36.8586 82.5669 36.7764 82.8683 36.7831C84.0722 36.8099 85.2744 36.8518 86.4783 36.8803C87.4027 36.9021 88.3271 36.9139 89.2515 36.9323C89.6017 36.939 89.9519 36.9541 90.3005 36.9692C90.42 36.9743 90.4671 37.0279 90.5261 37.152C91.1743 38.5321 91.7569 39.9423 92.4372 41.309C92.5887 41.6141 92.6981 41.9395 92.816 42.2597C92.8935 42.4693 92.843 42.5716 92.6291 42.6203C92.4809 42.6538 92.3244 42.6538 92.1711 42.6538C91.0497 42.6572 89.93 42.6538 88.8086 42.6555L88.8069 42.6572Z" fill="#FDCF39"/>
<path d="M72.8931 42.6551C71.8711 42.6551 70.849 42.6568 69.827 42.6551C69.4818 42.6551 69.4195 42.5881 69.4178 42.2527C69.4128 40.4433 69.4094 38.6357 69.4077 36.8263C69.4077 36.434 69.4111 36.4289 69.7899 36.439C71.9452 36.4943 74.1004 36.5513 76.2556 36.61C76.589 36.6184 76.5941 36.6251 76.5957 36.9722C76.5974 38.6139 76.6008 40.2555 76.5957 41.8972C76.5941 42.6149 76.5402 42.6585 75.8364 42.6585C74.8564 42.6585 73.8765 42.6585 72.8948 42.6585V42.6551H72.8931Z" fill="#FDCF39"/>
<path d="M141.311 38.3458C141.556 38.2653 141.782 38.2804 142.001 38.2905C144.449 38.3995 146.901 38.4246 149.349 38.4934C149.391 38.4934 149.433 38.4967 149.475 38.5001C149.726 38.5169 149.755 38.5538 149.716 38.8003C149.585 39.6119 149.49 40.4318 149.307 41.2317C149.226 41.5822 149.28 41.9427 149.142 42.2814C149.024 42.5699 148.973 42.6319 148.672 42.657C148.63 42.6604 148.588 42.6587 148.546 42.6587C146.683 42.6587 144.82 42.6587 142.957 42.6554C142.59 42.6554 142.6 42.6202 142.482 42.2512C142.329 41.7666 142.191 41.2803 142.073 40.7873C141.912 40.1132 141.622 39.476 141.492 38.7902C141.465 38.6493 141.385 38.5202 141.311 38.3441V38.3458Z" fill="#FDCF39"/>
<path d="M161.997 38.8439C161.682 39.9892 161.378 41.0976 161.075 42.2043C160.975 42.5665 160.878 42.6554 160.487 42.6554C158.638 42.6604 156.791 42.6621 154.942 42.6554C154.494 42.6554 154.368 42.5246 154.353 42.0937C154.339 41.7097 154.174 41.3558 154.154 40.9668C154.139 40.665 154.02 40.3581 154.023 40.0496C154.028 39.6421 153.819 39.2782 153.833 38.8674C153.839 38.6645 153.868 38.5924 154.075 38.6007C155.208 38.646 156.341 38.6846 157.475 38.7215C157.88 38.7349 158.286 38.7466 158.692 38.7433C159.783 38.7382 160.874 38.755 162.001 38.8422L161.997 38.8439Z" fill="#FDCF39"/>
<path d="M99.256 58.4748C99.2526 57.2372 99.2492 55.998 99.2476 54.7605C99.2476 52.9931 99.2476 51.2273 99.2476 49.4599C99.2476 49.138 99.2526 49.1313 99.5607 49.1313C100.261 49.1279 100.962 49.1296 101.662 49.1346C101.97 49.1363 101.975 49.143 101.975 49.4247C101.977 52.3877 101.975 55.3524 101.982 58.3155C101.982 58.4999 101.931 58.5552 101.748 58.5519C100.95 58.5402 100.152 58.5418 99.3536 58.5385C99.3216 58.5167 99.2897 58.4966 99.2577 58.4748H99.256Z" fill="#FDCF39"/>
<path d="M68.0762 35.086C67.5997 35.086 67.1249 35.0894 66.6484 35.0827C66.5524 35.0827 66.4042 35.143 66.3806 34.977C66.3554 34.7993 66.512 34.8462 66.6096 34.816C67.1215 34.6534 67.6216 34.479 68.0813 34.1755C68.6352 33.8116 69.0764 33.3505 69.4923 32.8507C69.5461 32.787 69.6 32.7099 69.6977 32.7552C69.7751 32.7921 69.7415 32.8742 69.7499 32.9396C69.8324 33.5617 69.8122 34.1889 69.8071 34.8144C69.8038 35.1665 69.797 35.1631 69.4636 35.1598C69.0023 35.1548 68.5392 35.1598 68.0779 35.1598C68.0779 35.1363 68.0779 35.1112 68.0779 35.0877L68.0762 35.086Z" fill="#FDCF39"/>
<path d="M73.1866 53.0384C73.1546 52.921 73.2135 52.8372 73.296 52.7567C73.4122 52.859 73.3651 52.9496 73.2842 53.0401C73.2522 53.0401 73.2186 53.0401 73.1866 53.0401V53.0384Z" fill="#FDCF39"/>
<path d="M113.629 42.2612C113.735 42.3501 113.693 42.4843 113.728 42.5949C113.56 42.5228 113.461 42.4323 113.629 42.2612Z" fill="#FDCF39"/>
<path d="M149.029 26.3646C149.033 26.3764 149.04 26.3898 149.041 26.4015C149.046 26.4753 149.078 26.586 148.987 26.5977C148.848 26.6162 148.891 26.4803 148.875 26.4015C148.927 26.3898 148.977 26.3764 149.029 26.3646Z" fill="#FDCF39"/>
<path d="M113.794 42.6152C113.867 42.5783 113.931 42.575 113.978 42.6555C113.923 42.7471 113.862 42.7337 113.794 42.6152Z" fill="#FDCF39"/>
<path d="M101.699 43.5259C101.752 43.4281 101.811 43.472 101.869 43.5175C101.813 43.531 101.764 43.6811 101.699 43.5259Z" fill="#FDCF39"/>
<path d="M146.95 37.1753C147.015 37.0814 147.071 37.1065 147.121 37.1921C147.054 37.296 146.997 37.2943 146.95 37.1753Z" fill="#FDCF39"/>
<path d="M134.838 36.8404C134.906 36.7443 134.962 36.7712 135.009 36.8573C134.94 36.9618 134.882 36.9601 134.838 36.8404Z" fill="#FDCF39"/>
<path d="M128.278 36.6693C128.348 36.5715 128.402 36.6002 128.449 36.6879C128.38 36.7941 128.322 36.7908 128.278 36.6693Z" fill="#FDCF39"/>
<path d="M121.717 36.5046C121.786 36.409 121.84 36.4375 121.889 36.5247C121.82 36.6254 121.761 36.6237 121.717 36.5046Z" fill="#FDCF39"/>
<path d="M108.799 22.3216C108.733 22.3635 108.669 22.4306 108.602 22.325C108.666 22.2428 108.731 22.2747 108.799 22.3216Z" fill="#FDCF39"/>
<path d="M71.2544 53.9574C71.2696 54.0282 71.2629 54.0974 71.1714 54.0772C71.1172 54.0653 71.1003 54.0046 71.1613 53.9608C71.1917 53.9608 71.2239 53.9591 71.2544 53.9574Z" fill="#FDCF39"/>
<path d="M125.498 58.3877C125.574 58.4095 125.586 58.4732 125.597 58.5352C125.533 58.5554 125.463 58.5788 125.427 58.4967C125.4 58.4363 125.434 58.3977 125.498 58.386V58.3877Z" fill="#FDCF39"/>
<path d="M12.3613 33.6757C12.402 33.6757 12.4426 33.6757 12.4833 33.6773C12.4629 33.7111 12.4426 33.7465 12.4223 33.7802C12.402 33.7448 12.3833 33.7094 12.363 33.6757H12.3613Z" fill="#FDCF39"/>
<path d="M9.84546 56.7041C9.85224 56.8357 9.7574 56.7986 9.68457 56.7986C9.69304 56.6906 9.77941 56.7142 9.84546 56.7041Z" fill="#FDCF39"/>
<path d="M157.371 36.9054C157.371 36.9391 157.374 36.9712 157.374 37.0049C157.352 36.9948 157.315 36.9897 157.31 36.9729C157.293 36.9256 157.333 36.9138 157.371 36.9054Z" fill="#FDCF39"/>
<path d="M155.946 50.7798C155.946 50.8118 155.945 50.8439 155.943 50.8742C155.906 50.8675 155.865 50.8574 155.882 50.8101C155.887 50.795 155.924 50.7899 155.946 50.7798Z" fill="#FDCF39"/>
<path d="M29.0417 33.986C29.062 34.0214 29.0824 34.0551 29.1044 34.0905C29.0315 34.0872 29.0163 34.0484 29.0417 33.986Z" fill="#FDCF39"/>
<path d="M25.8423 33.9982C25.8643 33.9662 25.888 33.9341 25.91 33.9021C25.9304 33.9645 25.9219 34.005 25.8423 33.9982Z" fill="#FDCF39"/>
<path d="M155.943 56.7108C155.943 56.7429 155.944 56.7749 155.946 56.807C155.924 56.7968 155.887 56.7918 155.882 56.7766C155.866 56.7294 155.907 56.7193 155.943 56.7125V56.7108Z" fill="#FDCF39"/>
<path d="M35.3493 58.4683C35.3781 58.4936 35.4052 58.5172 35.434 58.5425C35.3645 58.5644 35.3408 58.5357 35.3493 58.4683Z" fill="#FDCF39"/>
<path d="M99.2563 58.4749L99.3529 58.5389C99.2885 58.5642 99.2512 58.5508 99.2563 58.4749Z" fill="#FDCF39"/>
<path d="M127.939 58.5509C127.967 58.5239 127.994 58.4952 128.021 58.4683C128.038 58.5374 128.014 58.5695 127.939 58.5509Z" fill="#FDCF39"/>
<path d="M130.053 18.448C129.995 18.3625 129.933 18.3876 129.869 18.4396C129.869 18.3021 129.804 18.0623 129.95 18.0673C130.14 18.0724 130.086 18.2971 130.053 18.448Z" fill="#FDCF39"/>
<path d="M129.984 53.9674C130.001 53.9809 130.033 53.9977 130.031 54.0062C130.026 54.0281 130.006 54.0483 129.992 54.0686C129.984 54.0585 129.967 54.0467 129.967 54.0365C129.967 54.0146 129.977 53.991 129.984 53.9657V53.9674Z" fill="#FDCF39"/>
<path d="M127.968 53.8641C127.917 53.8287 127.94 53.7933 127.978 53.7764C128.008 53.7629 128.027 53.7882 128.02 53.8236C128.022 53.8624 128.007 53.8776 127.968 53.8641Z" fill="#FDCF39"/>
</svg>
