<svg width="175" height="70" viewBox="0 0 175 70" fill="none" xmlns="http://www.w3.org/2000/svg">
<path d="M34.3005 33.3023C33.3541 32.9035 32.4773 32.3943 31.5693 31.9379C26.4649 29.3749 21.3533 26.8311 16.2464 24.2753C12.6794 22.4929 9.12669 20.6842 5.5524 18.9234C3.83011 18.0755 2.01173 19.0171 2.00933 20.7418C1.99492 30.463 1.99972 40.1818 2.00693 49.903C2.00693 51.1401 2.95335 52.1562 4.06551 52.197C5.27856 52.2403 6.41474 51.3491 6.55647 50.1817C6.64775 49.4322 6.69338 48.6732 6.69338 47.9165C6.70059 40.7968 6.69338 33.677 6.68618 26.5572C6.68618 25.0151 6.80628 24.9286 8.2091 25.6324C12.922 27.9937 17.6276 30.3669 22.3381 32.7306C23.9523 33.5401 25.5737 34.3352 27.3032 35.1927C26.9093 35.5434 26.6595 35.8773 26.3232 36.0479C23.0804 37.6813 19.8111 39.2666 16.5755 40.9169C15.8381 41.294 15.7708 40.9961 15.7756 40.3908C15.7877 38.791 15.8141 37.1912 15.7877 35.5915C15.7612 33.9941 14.7956 32.9948 13.3351 32.9756C11.9924 32.9588 11.0724 33.9845 11.0676 35.5626C11.058 38.6037 11.1132 41.6423 11.0604 44.6833C11.0219 47.0229 12.295 48.2432 14.8196 47.0806C18.096 45.5721 21.2908 43.8858 24.5168 42.2692C27.6587 40.6959 30.8078 39.1417 33.9233 37.5179C34.7737 37.0735 35.4198 36.3914 35.391 35.2648C35.367 34.3784 35.0451 33.6145 34.2957 33.2999L34.3005 33.3023Z" fill="#FDCF39"/>
<path d="M128.968 33.7827C126.53 33.7419 124.087 33.7274 121.652 33.7971C120.559 33.8283 120.295 33.4104 120.367 32.3967C120.429 31.5223 120.278 30.7729 121.616 30.8113C124.734 30.8978 127.854 30.8305 130.972 30.8425C131.942 30.8449 132.593 30.5015 132.641 29.4445C132.689 28.3876 132.211 27.9288 131.032 27.9192C129.353 27.9024 127.674 27.9144 125.992 27.9144C124.272 27.9144 122.553 27.8976 120.833 27.9216C119.692 27.9384 118.81 28.4309 118.198 29.4301C117.246 30.9819 117.427 32.5264 117.828 34.2391C118.339 36.4226 119.814 36.7372 121.599 36.7517C124.039 36.7709 126.482 36.8285 128.916 36.7204C130.232 36.6604 130.275 37.2849 130.268 38.2914C130.263 39.2907 130.249 39.9176 128.913 39.8696C125.877 39.7639 122.836 39.8335 119.797 39.8407C119.245 39.8407 118.632 39.7903 118.282 40.3308C118.008 40.7535 117.849 41.1859 118.142 41.76C118.486 42.4326 118.949 42.6752 119.648 42.6752C123.088 42.668 126.528 42.6752 129.965 42.6632C130.314 42.6632 130.65 42.5887 130.996 42.435C133.045 41.5222 134.03 37.8734 132.8 35.6323C131.964 34.1094 130.506 33.8091 128.968 33.7851V33.7827Z" fill="#FDCF39"/>
<path d="M149.168 27.9097C147.808 27.9049 146.446 27.9097 145.086 27.9097C143.727 27.9097 142.439 27.9985 141.128 27.8905C138.827 27.7007 137.22 29.5383 137.311 31.6881C137.409 34.0254 137.433 36.3722 137.227 38.7214C137.023 41.025 138.584 42.644 140.883 42.6632C143.684 42.6873 146.484 42.7065 149.285 42.6584C151.86 42.6128 152.891 41.1451 153.023 38.9808C153.172 36.5499 153.083 34.1022 153.047 31.6617C153.016 29.5335 151.313 27.9193 149.17 27.9097H149.168ZM149.97 39.1682C149.931 39.6654 149.698 39.8144 149.321 39.8168C146.566 39.836 143.811 39.8408 141.056 39.8336C140.544 39.8336 140.258 39.5622 140.261 39.0097C140.27 36.4587 140.275 33.9053 140.261 31.3543C140.256 30.7129 140.741 30.8546 141.049 30.8474C142.406 30.8138 143.765 30.833 145.123 30.833V30.8378C146.4 30.8378 147.681 30.8714 148.956 30.8258C149.845 30.7946 150.152 31.1837 150.162 32.0244C150.186 34.4097 150.155 36.7902 149.972 39.1706L149.97 39.1682Z" fill="#FDCF39"/>
<path d="M172.838 29.6197C172.74 28.3659 172.139 27.847 171.135 27.9527C169.996 28.0752 170.107 28.9496 170.078 29.7423C169.987 32.3797 170.325 35.034 169.766 37.818C169.033 36.9989 168.08 36.5569 167.472 35.8603C165.07 33.11 162.158 30.9121 159.6 28.3394C159.072 27.8086 158.469 27.8278 157.96 28.0368C157.484 28.2313 157.128 28.7406 157.131 29.3651C157.143 33.2421 157.138 37.119 157.169 40.996C157.177 41.9112 157.491 42.6414 158.625 42.5886C159.663 42.5429 160.078 41.9736 160.071 40.9816C160.059 38.7428 160.064 36.5041 160.071 34.2654C160.071 33.9291 159.814 33.4895 160.169 33.2781C160.621 33.0091 160.869 33.4919 161.145 33.7465C164.195 36.5594 167.251 39.3698 170.28 42.2066C170.803 42.6967 171.37 42.675 171.935 42.5045C172.531 42.3243 172.968 41.8703 172.961 41.2098C172.91 37.3448 173.146 33.4775 172.84 29.6173L172.838 29.6197Z" fill="#FDCF39"/>
<path d="M57.6298 27.8953C54.4711 27.9433 51.31 27.9025 48.1488 27.9145C46.8205 27.9193 46.4385 28.2964 46.4265 29.6152C46.4097 31.5344 46.4217 33.4537 46.4217 35.3753C46.4193 37.2538 46.4289 39.1346 46.4145 41.013C46.4073 41.8826 46.4698 42.5912 47.6444 42.6104C48.7758 42.6296 49.2178 42.0051 49.3138 41.0514C49.3931 40.2588 49.3787 39.4493 49.3186 38.6542C49.261 37.8855 49.5757 37.7174 50.2867 37.7294C52.6071 37.7678 54.9275 37.7798 57.2479 37.7342C59.501 37.6885 61.084 36.4322 61.0816 33.826C61.0816 33.0261 61.1056 32.2262 61.096 31.4287C61.0744 29.7064 59.4266 27.8688 57.6322 27.8977L57.6298 27.8953ZM55.4584 34.7268C53.9811 34.7268 52.5014 34.7292 51.0241 34.7268C49.924 34.7244 49.3763 34.2127 49.2922 33.1318C49.1737 31.6041 49.8775 30.8394 51.4036 30.8378C52.1627 30.8378 52.9218 30.8378 53.6808 30.8378C54.8794 30.8378 56.0781 30.8474 57.2767 30.833C57.9157 30.8258 58.1847 31.066 58.2255 31.7458C58.3985 34.7268 58.4177 34.7268 55.4608 34.7268H55.4584Z" fill="#FDCF39"/>
<path d="M98.1473 40.3716C95.9542 36.6603 93.7395 32.9636 91.6497 29.1947C90.7369 27.5469 89.2933 27.5709 88.4141 29.1611C86.3147 32.9563 84.0592 36.6676 81.8757 40.4148C81.5754 40.9312 81.5706 41.5366 81.8372 42.0146C82.087 42.4662 82.6083 42.6103 83.1752 42.6055C83.9991 42.6007 84.3306 42.0674 84.6813 41.4669C86.2859 38.7021 87.9121 35.9493 89.5191 33.1869C89.7737 32.7498 90.0019 32.4159 90.3934 33.0428C91.2029 34.3351 92.0293 35.6178 92.7931 36.9342C93.7107 38.5172 94.5634 40.1386 95.457 41.7359C95.8774 42.4902 96.5572 42.7832 97.3739 42.5599C97.9648 42.3989 98.4956 42.0722 98.3227 41.4621C98.2626 40.9817 98.3371 40.6982 98.1473 40.3764V40.3716Z" fill="#FDCF39"/>
<path d="M112.868 27.9288C111.89 27.9672 111.561 28.7479 111.056 29.3076C109.473 31.0587 107.938 32.8506 106.38 34.621C106.233 34.7891 105.928 35.0774 105.825 34.7867C105.587 34.1189 104.905 33.9772 104.513 33.4752C103.206 31.7913 101.825 30.1627 100.389 28.587C99.7786 27.9168 98.8034 27.9312 98.1188 28.3852C97.3333 28.9064 97.4414 29.7183 98.0707 30.4245C99.5024 32.0339 101.02 33.5761 102.318 35.2863C103.31 36.5931 105.337 37.429 104.669 39.3194C104.669 40.213 104.643 40.7727 104.676 41.33C104.722 42.0914 105.037 42.6031 105.918 42.5983C106.785 42.5935 107.393 42.2476 107.511 41.3732C107.612 40.6262 107.643 39.8503 107.561 39.1033C107.453 38.1016 107.835 37.3473 108.46 36.6411C110.295 34.5657 112.092 32.4543 113.972 30.4197C114.475 29.8769 114.52 29.3124 114.292 28.7983C114.061 28.2795 113.6 27.9 112.868 27.9288Z" fill="#FDCF39"/>
<path d="M76.5509 39.8334C74.2738 39.8382 71.9966 39.831 69.7194 39.8334C67.6296 39.8334 67.4999 39.6869 67.8026 37.6283C67.8074 37.5899 67.8026 37.549 67.8098 37.5082C68.2037 34.7746 67.9131 32.029 67.9539 29.2907C67.9635 28.5893 67.363 28.1521 66.7505 27.9791C66.1788 27.8182 65.816 28.0752 65.3693 28.6445C64.8288 29.3315 65.1218 29.884 65.117 30.4773C65.0858 33.9915 65.0954 37.5058 65.1074 41.0224C65.1122 42.358 65.3933 42.6438 66.7336 42.6679C68.331 42.6967 69.9284 42.6751 71.5282 42.6751C73.2048 42.6751 74.8839 42.6991 76.5605 42.663C77.4421 42.6438 78.1603 42.418 78.1507 41.2506C78.1411 40.0976 77.5094 39.8358 76.5509 39.8382V39.8334Z" fill="#FDCF39"/>
</svg>
