<svg width="175" height="70" viewBox="0 0 175 70" fill="none" xmlns="http://www.w3.org/2000/svg">
<path d="M25.4695 34.6593C25.4866 33.3954 25.5267 32.1316 25.4123 30.8678C25.378 30.4903 25.1836 30.2616 24.7947 30.2158C24.4001 30.1701 24.1027 30.3016 23.9826 30.7077C23.9197 30.925 23.8339 31.1308 23.8054 31.371C23.7596 31.737 23.508 31.9829 23.1134 32.0515C22.6788 32.1259 22.5358 31.8114 22.41 31.5083C22.1755 30.9536 22.227 30.3645 22.2556 29.7869C22.2785 29.2951 22.2156 28.8777 21.6608 28.7576C21.1462 28.6432 20.986 29.0435 20.8202 29.4095C20.6143 29.8727 20.3284 30.2444 19.7451 30.0672C19.2361 29.9128 19.2533 29.4553 19.2533 29.0321C19.2533 28.1171 19.2933 27.2021 19.2304 26.2928C19.2075 25.9669 19.2418 25.4693 18.6299 25.4236C18.0924 25.3836 17.7721 25.4979 17.6292 26.087C17.5148 26.533 17.5834 26.9676 17.5491 27.4023C17.532 27.6424 17.5205 27.8369 17.2575 27.9741C16.6741 28.2772 16.1938 28.0199 16.1537 27.3451C16.0851 26.2013 16.2224 25.0519 16.0565 23.9139C15.9879 23.4449 15.7878 23.0961 15.1816 23.1761C14.5811 23.2562 14.5868 23.6794 14.5582 24.0969C14.5068 25.0233 14.6211 25.9497 14.4324 26.8819C14.3295 27.3908 14.1065 27.5509 13.6375 27.5452C13.14 27.5395 12.9799 27.265 12.9856 26.8247C12.9856 26.5673 13.0142 26.3043 12.9799 26.0526C12.9113 25.5551 12.8312 25.0862 12.1049 25.1434C11.4587 25.1948 11.4358 25.618 11.4187 26.0755C11.3901 26.7789 11.4072 27.4823 11.3386 28.18C11.2929 28.6318 10.9783 28.9863 10.5037 28.912C10.0519 28.8376 9.86319 28.4716 9.88035 27.9741C9.91466 27.0591 9.88607 26.1499 9.86891 25.2349C9.85747 24.6973 9.73166 24.2799 9.02255 24.3084C8.35918 24.3313 8.2734 24.7088 8.2734 25.2349C8.28484 26.6188 8.2734 27.997 8.2734 29.3809C8.2734 29.5925 8.29055 29.8155 8.22765 30.0043C8.10756 30.3703 7.91312 30.7019 7.43275 30.639C6.96954 30.5761 6.74651 30.273 6.71792 29.8327C6.69504 29.461 6.70648 29.0835 6.71792 28.7061C6.72935 28.18 6.50061 27.854 5.95161 27.8312C5.36259 27.8083 5.18531 28.22 5.16243 28.6947C5.13384 29.3237 5.151 29.9585 5.14528 30.5933C5.14528 31.1308 5.17387 31.6741 5.11097 32.206C5.07093 32.5662 4.91653 33.0123 4.46475 32.9951C4.06445 32.978 3.70989 32.7264 3.70989 32.2288C3.70989 31.8114 3.53261 31.4225 3.57836 30.9879C3.61839 30.5876 3.36105 30.3703 2.92071 30.3474C2.56043 30.3302 2.29737 30.5132 2 30.639V45.6849C2.80062 45.9022 3.41823 46.4455 4.09876 46.8629C6.84373 48.55 9.68591 50.0768 12.4309 51.7639C13.3344 52.3186 14.0378 52.5302 14.8785 51.7639C15.1816 51.4894 15.6048 51.3464 15.9765 51.152C17.7435 50.2312 19.4248 49.1619 21.1862 48.224C22.3757 47.5892 23.4679 46.7371 24.6746 46.1138C25.3265 45.7764 25.521 45.3875 25.4981 44.6956C25.3666 41.3501 25.4009 37.999 25.4523 34.6478L25.4695 34.6593ZM19.2533 42.6997C19.2533 43.0943 19.1503 43.3116 18.6871 43.2945C17.835 43.2659 16.9772 43.2659 16.1252 43.283C15.7363 43.2888 15.6448 43.1344 15.6619 42.7741C15.6905 42.2365 15.6391 41.6933 15.6619 41.1614C15.6905 40.6753 15.4732 40.4752 15.0043 40.4809C14.1522 40.4809 13.2944 40.498 12.4423 40.4809C11.9562 40.4695 11.8419 40.6868 11.8762 41.1271C11.9162 41.6418 11.8762 42.1565 11.8762 42.6711C11.8819 43.0943 11.7446 43.3116 11.2528 43.2888C10.4236 43.2545 9.5887 43.2602 8.75949 43.2888C8.37633 43.3002 8.27912 43.1687 8.27912 42.8141C8.29627 41.5503 8.28484 40.2865 8.28484 39.0169C8.28484 37.776 8.31343 36.535 8.26768 35.294C8.25052 34.8251 8.44496 34.6593 8.85099 34.6593C9.70307 34.6593 10.5609 34.6821 11.413 34.6821C11.7561 34.6821 11.8647 34.8365 11.859 35.1568C11.8476 35.7401 11.8876 36.3291 11.859 36.9124C11.8304 37.3871 11.9791 37.5987 12.4938 37.5815C13.3459 37.5529 14.2037 37.5701 15.0558 37.5872C15.416 37.5987 15.5704 37.49 15.559 37.1126C15.5361 36.4549 15.559 35.803 15.5533 35.1454C15.5533 34.8651 15.5533 34.745 15.965 34.7279C16.8343 34.6936 17.7092 34.6993 18.5785 34.6535C19.076 34.625 19.2476 34.8423 19.2476 35.3169C19.2361 37.776 19.2418 40.235 19.2476 42.694L19.2533 42.6997Z" fill="#FDCF39"/>
<path d="M12.6766 18.3896C13.0311 18.0866 12.9797 17.732 12.6937 17.3889C12.5908 17.2688 12.5107 17.1258 12.4192 17H11.8474C11.8359 17.1372 11.9046 17.3145 11.7559 17.3832C11.2069 17.6519 11.367 18.0522 11.6415 18.3382C11.9103 18.6184 12.3392 18.6699 12.6709 18.3896H12.6766Z" fill="#FDCF39"/>
<path d="M116.843 30.2044C115.894 30.233 114.944 30.2044 114.001 30.1586C113.458 30.1357 113.286 30.3016 113.275 30.8677C113.229 33.2753 113.532 35.6714 113.44 38.0733C113.423 38.4907 113.475 38.9082 113.515 39.3257C113.578 40.0176 113.532 40.7267 113.532 41.556C112.485 40.5781 112.371 39.3371 111.896 38.2849C111.376 37.1354 111.039 35.9059 110.604 34.7164C110.135 33.424 109.546 32.1716 109.174 30.8391C109.071 30.4789 108.825 30.2787 108.431 30.2101C107.83 30.1014 107.236 30.1815 106.641 30.1872C105.383 30.1929 104.125 30.1643 102.867 30.1643C102.626 30.1643 102.335 30.0442 102.146 30.3187C102.146 30.2501 102.18 30.1758 102.072 30.1529C102.095 30.2044 102.117 30.2616 102.146 30.313C101.843 30.3759 101.912 30.6161 101.906 30.8163C101.906 35.62 101.906 40.4237 101.889 45.2216C101.889 45.5933 102.003 45.6963 102.369 45.6906C103.273 45.6677 104.17 45.6848 105.074 45.6848C105.966 45.6848 106.029 45.6391 106.012 44.7527C105.989 43.5175 105.932 42.288 105.886 41.0527C105.812 39.0969 106.035 37.1297 105.755 35.1739C105.692 34.7564 105.743 34.3218 105.743 33.8872C106.063 33.9044 106.109 34.0588 106.166 34.2132C106.424 34.8937 106.687 35.5742 106.95 36.2605C108.071 39.2056 109.054 42.2022 110.221 45.1301C110.404 45.5933 110.558 45.6906 111.004 45.6848C112.737 45.662 114.47 45.6734 116.203 45.6734C117.466 45.6734 117.489 45.6734 117.495 44.4382C117.512 39.9147 117.512 35.3969 117.535 30.8735C117.535 30.3588 117.386 30.1758 116.843 30.1929V30.2044Z" fill="#FDCF39"/>
<path d="M82.834 38.102C82.5767 38.0449 82.3594 37.9476 82.0849 37.7532C82.7197 37.4158 83.5146 37.3472 83.8005 36.6381C84.3895 35.1798 84.5611 33.6701 84.0464 32.1546C83.8977 31.7257 83.6289 31.3254 83.1772 31.0338C82.1935 30.399 81.1127 30.1988 79.9918 30.1874C77.264 30.1531 74.5305 30.1702 71.8027 30.1531C71.3852 30.1531 71.2137 30.2674 71.2194 30.7135C71.2365 35.5401 71.2365 40.3666 71.2365 45.1989C71.2365 45.5363 71.2994 45.7079 71.6997 45.6965C74.9365 45.5992 78.1847 45.868 81.4215 45.5478C83.1314 45.3819 84.2866 44.1696 84.5496 42.5112C84.664 41.7849 84.5153 41.1101 84.5325 40.4124C84.5554 39.3544 83.9549 38.3537 82.8397 38.1078L82.834 38.102ZM75.5141 33.7959C75.5255 33.5671 75.8058 33.6129 75.9888 33.6186C77.0296 33.6529 78.0704 33.6472 79.0997 33.7501C79.7574 33.813 80.1177 33.9617 80.1005 34.8596C80.0833 35.9404 79.9404 36.1577 79.1112 36.2721C78.3334 36.3807 77.55 36.3178 76.7722 36.3464C76.5206 36.3579 76.2461 36.2549 76.0231 36.4551C75.903 36.5466 75.7829 36.6152 75.7543 36.3807C75.6685 36.3407 75.5141 36.2949 75.5141 36.2549C75.4969 35.4371 75.4741 34.6194 75.5141 33.8016V33.7959ZM80.3807 41.0586C80.192 41.8993 79.3342 42.4311 78.2534 42.2938C77.4985 42.1966 76.7493 42.2309 76.0002 42.2367C75.8915 42.1909 75.7943 42.1852 75.7429 42.3167C75.5942 42.2367 75.5027 42.1108 75.4626 41.9507H75.4569C75.4684 41.2302 75.4741 40.5039 75.4855 39.7833C75.4855 39.5546 75.4398 39.2687 75.7943 39.2744C77.0181 39.2973 78.2534 39.2172 79.4657 39.4059C80.1005 39.5031 80.5351 40.3781 80.3807 41.0643V41.0586Z" fill="#FDCF39"/>
<path d="M144.052 39.4917C144.99 39.1657 145.773 38.6225 146.036 37.6331C146.408 36.2378 146.414 34.8081 146.196 33.3841C146.008 32.1718 145.493 31.2282 144.224 30.7593C143.183 30.3761 142.119 30.1931 141.038 30.1874C139.7 30.1817 138.35 30.2446 137.024 30.2332C135.886 30.2217 134.719 30.3704 133.581 30.1702C133.003 30.0673 132.929 30.3247 132.935 30.8222C132.958 33.1897 132.946 35.5515 132.946 37.9191H132.963C132.963 40.3324 132.981 42.7456 132.952 45.1532C132.952 45.5993 133.066 45.7022 133.501 45.6908C134.542 45.6622 135.588 45.6622 136.635 45.6908C137.018 45.7022 137.11 45.5707 137.104 45.2161C137.081 44.2096 137.132 43.2031 137.087 42.1966C137.064 41.682 137.252 41.5619 137.727 41.5847C138.711 41.6305 139.694 41.5562 140.678 41.7277C141.324 41.8364 141.639 42.1452 141.805 42.7571C142.016 43.5577 141.965 44.3697 141.959 45.1761C141.959 45.5649 142.079 45.7022 142.485 45.6908C143.577 45.6622 144.67 45.6679 145.756 45.6908C146.139 45.7022 146.242 45.5707 146.231 45.2104C146.208 44.3697 146.214 43.5234 146.219 42.6827C146.219 42.3339 146.242 42.0079 146.082 41.6534C145.682 40.7384 145.116 40.0636 144.058 39.9092C143.92 39.8863 143.783 39.7948 143.783 39.6404C143.783 39.4688 143.949 39.5317 144.052 39.4974V39.4917ZM141.925 36.924C141.896 37.5416 141.496 37.9191 140.89 37.9477C139.774 37.9991 138.659 37.9763 137.544 37.9877C137.201 37.9877 137.092 37.8218 137.104 37.5073C137.115 36.9469 137.104 36.3807 137.104 35.8203H137.098C137.098 35.7288 137.098 35.6316 137.098 35.5401C137.087 33.6301 137.092 33.5843 139.031 33.8073C139.752 33.8931 140.478 33.7501 141.193 33.9903C141.684 34.1562 141.879 34.4764 141.913 34.8939C141.965 35.5687 141.959 36.2549 141.925 36.9297V36.924Z" fill="#FDCF39"/>
<path d="M160.802 31.4054C159.944 30.8221 158.926 30.4847 157.822 30.3131C155.781 29.9986 153.796 30.0386 151.801 30.5018C149.805 30.9593 148.535 32.0402 148.152 34.1561C147.906 35.5 147.963 36.8267 147.9 38.2106C147.98 39.2972 147.797 40.4352 148.049 41.5675C148.449 43.3689 149.261 44.7528 151.229 45.2961C153.905 46.0338 156.547 45.9938 159.201 45.2675C160.27 44.9758 161.168 44.4097 161.568 43.3289C162.106 41.882 162.271 40.3609 162.443 38.8397C162.603 37.4215 162.552 36.0032 162.294 34.6021C162.077 33.4184 161.871 32.126 160.807 31.4111L160.802 31.4054ZM158.011 40.3837C157.948 41.3102 157.342 41.8363 156.358 42.0422C155.403 42.2423 154.465 42.2709 153.516 42.0307C152.967 41.8935 152.641 41.5389 152.515 41.0014C152.075 39.2 152.138 37.4157 152.424 35.5858C152.675 33.9788 153.505 33.71 154.843 33.7501C155.375 33.7672 155.901 33.6929 156.444 33.8587C157.393 34.1389 157.965 34.6136 158.022 35.5457C158.045 35.9403 158.217 36.3006 158.177 36.7009C158.137 37.0726 158.171 37.45 158.171 37.9933C158.297 38.691 158.074 39.5374 158.017 40.3952L158.011 40.3837Z" fill="#FDCF39"/>
<path d="M52.3932 30.8563C52.3932 30.4045 52.2788 30.1872 51.7527 30.2044C50.7576 30.2387 49.7626 30.2101 48.7675 30.1701C48.3043 30.1529 48.1671 30.2901 48.1728 30.7591C48.2014 32.326 48.1728 33.8986 48.1957 35.4656C48.2014 35.8887 48.0984 36.026 47.6467 36.0145C46.2456 35.9745 44.8445 35.9631 43.4491 35.9917C42.9059 36.0031 42.7572 35.8201 42.7629 35.3054C42.7915 33.83 42.7743 32.3546 42.7743 30.8792C42.7743 30.5418 42.8029 30.2158 42.2883 30.2158C41.2475 30.2158 40.2009 30.1472 39.1601 30.1529C38.7427 30.1529 38.005 29.9928 38.491 30.8849C38.5597 31.0107 38.5025 31.2051 38.5025 31.371C38.5025 35.9402 38.5082 40.5037 38.491 45.0729C38.491 45.5362 38.5654 45.7306 39.0915 45.702C40.1094 45.6563 41.1331 45.662 42.151 45.702C42.6428 45.7192 42.7915 45.5876 42.7858 45.0844C42.7572 43.4431 42.7858 41.8076 42.7972 40.1663C42.7972 39.9547 42.6943 39.6459 43.0774 39.6516C44.5185 39.6802 45.9654 39.4744 47.4065 39.6516C47.5666 39.8518 47.6924 39.7832 47.8068 39.6002C48.2986 39.623 48.1842 39.9948 48.1842 40.275C48.1899 41.9162 48.2014 43.5518 48.1785 45.193C48.1785 45.5933 48.2929 45.702 48.6932 45.6963C49.734 45.6677 50.7805 45.6677 51.827 45.6963C52.2388 45.7077 52.3188 45.5705 52.3303 45.1873C52.4504 42.4481 52.3989 39.7145 52.4046 36.9753C52.4046 34.9394 52.3932 32.8979 52.3989 30.862L52.3932 30.8563Z" fill="#FDCF39"/>
<path d="M96.2039 30.6449C96.1181 30.3475 96.0095 30.1816 95.7064 30.1816C93.8306 30.1816 91.9549 30.1931 90.0792 30.1816C89.7418 30.1816 89.6388 30.3589 89.5817 30.622C89.3701 31.5999 89.0384 32.5549 88.7353 33.4985C88.0605 35.603 87.5001 37.7417 86.8195 39.8462C86.2019 41.762 85.6644 43.7063 85.0811 45.6793C85.9446 45.6793 86.728 45.6793 87.5115 45.6793C88.7277 45.6793 89.5092 45.1093 89.8562 43.9694C89.8962 43.8379 89.9133 43.7006 89.9305 43.5634C89.9648 43.1859 90.1306 42.9972 90.5538 43.0029C92.1436 43.0144 93.7334 43.0087 95.3232 42.9915C95.6549 42.9915 95.8322 43.0658 95.918 43.4204C96.0724 44.0838 96.3297 44.7243 96.4727 45.3933C96.5299 45.645 96.6099 45.685 96.8272 45.6793C98.1254 45.6793 99.4292 45.6793 100.79 45.6793C100.053 43.4147 99.4464 41.1844 98.7487 38.9884C97.868 36.2149 97.0274 33.4356 96.2096 30.6449H96.2039ZM94.0365 40.0578C93.7563 40.0407 93.4761 39.9835 93.1959 39.9663C92.9385 39.9492 92.6755 39.9663 92.4181 39.9663C92.0007 39.8977 91.4631 40.1493 91.1829 39.8748C90.9484 39.6403 91.2915 39.1829 91.3602 38.8226C91.6347 37.3357 92.1894 35.9232 92.5497 34.4592C92.5954 34.2648 92.6926 34.0017 93.0014 33.996C93.356 33.996 93.2245 34.3163 93.2759 34.4649C93.865 36.0261 94.2824 37.6445 94.717 39.2515C94.9115 39.9606 94.7799 40.1093 94.0365 40.0578Z" fill="#FDCF39"/>
<path d="M68.3311 41.5788C67.7764 39.543 67.0959 37.5414 66.4725 35.5284C65.9864 33.9672 65.5461 32.3889 65.0715 30.822C64.9914 30.5589 64.9914 30.2158 64.5339 30.2158C62.6582 30.2215 60.7882 30.2101 58.9124 30.2043C58.7123 30.2043 58.495 30.2444 58.4549 30.456C58.2719 31.5025 57.8316 32.4632 57.5342 33.4697C57.2654 34.3733 57.0081 35.2883 56.7393 36.1975C55.8701 39.1484 54.9608 42.0821 54.0687 45.0215C53.9429 45.4389 53.9486 45.7535 54.5491 45.6905C54.9723 45.6505 55.4012 45.6905 55.8301 45.6791C56.6135 45.6734 57.5685 45.925 58.1232 45.5705C58.6379 45.2445 58.6036 44.2266 58.7466 43.5003C58.8095 43.18 58.941 42.9742 59.3928 42.9856C60.9311 43.0314 62.4752 43.0199 64.0135 42.9856C64.5739 42.9685 64.7912 43.2315 64.837 43.7004C64.8942 44.3181 65.1801 44.8671 65.2773 45.4732C65.3116 45.6791 65.4317 45.8564 65.6548 45.782C66.2781 45.5647 66.9186 45.7592 67.4447 45.6848C68.068 45.6848 68.5884 45.6848 69.1088 45.6848C69.4577 45.6848 69.6121 45.6562 69.4577 45.2102C69.0345 44.015 68.6571 42.8026 68.3254 41.5788H68.3311ZM63.6475 40.0119C62.5838 40.0062 61.5202 39.9719 60.4565 39.9833C60.0161 39.9833 59.8617 39.9947 59.999 39.4286C60.4622 37.5243 61.1313 35.6771 61.5831 33.7671C61.6116 33.6356 61.6803 33.5212 61.7718 33.5097C61.8404 33.504 61.9776 33.6298 62.0005 33.7156C62.5781 35.7458 63.1443 37.7759 63.7047 39.8117C63.7218 39.8689 63.6704 39.9433 63.6532 40.0119H63.6475Z" fill="#FDCF39"/>
<path d="M130.173 42.2938C129.761 42.351 129.326 42.2366 128.897 42.2366C127.405 42.2309 125.912 42.1794 124.425 42.3167C123.899 42.3624 123.779 42.128 123.785 41.6762C123.796 40.927 123.768 40.1779 123.756 39.4288V39.423C124.002 39.2286 124.294 39.2743 124.574 39.2743C125.786 39.2743 126.993 39.2743 128.205 39.2743C130.441 39.2743 130.424 39.2743 130.396 37.0326C130.39 36.4951 130.184 36.3578 129.675 36.3635C127.851 36.3807 126.021 36.3464 124.197 36.375C123.796 36.3807 123.688 36.2434 123.688 35.9003C123.688 35.3399 123.722 34.7737 123.676 34.2133C123.63 33.6986 123.836 33.5843 124.317 33.59C126.238 33.6071 128.16 33.5843 130.081 33.6014C130.619 33.6071 130.853 33.4299 130.836 32.8866C130.813 32.2061 130.813 31.5255 130.836 30.8507C130.853 30.3303 130.653 30.1702 130.127 30.1759C127.565 30.1931 125.003 30.1645 122.441 30.1588C122.51 30.1187 122.515 30.0615 122.458 30.0158C122.435 29.9986 122.372 29.9986 122.349 30.0158C122.292 30.0615 122.298 30.1187 122.367 30.1588C121.846 30.1588 121.326 30.1588 120.8 30.153C119.484 30.1473 119.502 30.1473 119.507 31.4283C119.519 33.63 119.479 35.8317 119.513 38.0334C119.553 40.4581 119.416 42.8828 119.576 45.3133C119.604 45.7536 119.736 45.685 119.97 45.685C123.436 45.685 126.902 45.685 130.367 45.6964C130.859 45.6964 130.979 45.4906 130.962 45.0559C130.939 44.4269 130.916 43.7864 130.962 43.1573C131.008 42.5454 130.927 42.1852 130.167 42.2938H130.173Z" fill="#FDCF39"/>
<path d="M172.972 30.7877C172.972 30.7076 172.943 30.5876 172.88 30.5418C172.44 30.1815 171.285 30.6161 171.136 31.1766C171.01 31.6512 170.959 32.1602 170.621 32.5605C170.564 32.4576 170.484 32.3661 170.456 32.2574C170.335 31.8685 170.238 31.4739 170.13 31.0794C169.998 30.599 168.871 30.2158 168.505 30.5361C168.448 30.5876 168.431 30.7019 168.431 30.7877C168.431 31.7713 168.431 32.7492 168.431 33.7328C168.431 34.0302 168.568 34.1503 168.86 34.1446C169.152 34.1389 169.289 34.0073 169.283 33.7157C169.278 33.2696 169.266 32.8293 169.283 32.3832C169.283 32.2746 169.054 32.1373 169.295 32.0573C169.512 31.9829 169.581 32.1488 169.632 32.3089C169.764 32.7206 169.878 33.1381 170.027 33.5384C170.135 33.83 170.233 34.1903 170.65 34.1446C171.033 34.1045 171.21 33.7671 171.25 33.464C171.319 32.8865 171.748 32.4747 171.788 31.9028C171.851 31.9086 171.92 31.9143 171.982 31.92C171.982 32.4576 172 33.0008 171.977 33.5384C171.965 33.8529 172.137 34.0817 172.377 34.116C172.663 34.1617 172.777 33.8758 172.852 33.6185C173.115 32.6806 172.937 31.7313 172.983 30.782L172.972 30.7877Z" fill="#FDCF39"/>
<path d="M12.1102 20.0768C11.5383 20.1454 11.4296 20.4885 11.4239 20.9403C11.4182 21.2663 11.4239 21.5922 11.4239 21.9239C11.4239 22.2956 11.4468 22.6731 11.4239 23.0448C11.3896 23.5537 11.7327 23.8282 12.1159 23.8454C12.5219 23.8683 12.9623 23.6395 12.9794 23.1306C13.008 22.3585 13.0309 21.5865 12.968 20.8202C12.9337 20.3799 12.7335 20.0024 12.1102 20.0768Z" fill="#FDCF39"/>
<path d="M14.5637 21.0776C14.5351 21.4893 14.7981 21.638 15.1127 21.6323C15.4386 21.6323 15.879 21.8382 16.0048 21.2377C16.1992 20.3342 16.1649 19.4592 15.9933 18.5614C15.9076 18.1325 15.6845 17.9495 15.2671 17.9838C14.8325 18.0181 14.5751 18.2583 14.5637 18.6986C14.5522 19.0932 14.5637 19.4935 14.5637 19.8881H14.5751C14.5751 20.2827 14.598 20.683 14.5694 21.0776H14.5637Z" fill="#FDCF39"/>
<path d="M167.499 30.4732C167.121 30.4503 166.744 30.4675 166.366 30.4675C166.366 30.4561 166.366 30.4503 166.366 30.4389C166.103 30.4389 165.846 30.4275 165.583 30.4389C165.326 30.4503 164.988 30.3245 164.988 30.7992C164.988 31.1766 165.12 31.3825 165.526 31.3367C165.938 31.291 165.966 31.5026 165.943 31.8514C165.903 32.4576 165.926 33.0638 165.926 33.67C165.926 33.933 166.063 34.0245 166.332 34.0131C166.578 34.0074 166.721 33.9902 166.721 33.6814C166.727 33.2239 166.841 32.7607 166.835 32.3032C166.83 31.7428 166.721 31.1938 167.579 31.1823C167.825 31.1823 167.865 30.9193 167.853 30.6905C167.842 30.4275 167.63 30.4732 167.493 30.4675L167.499 30.4732Z" fill="#FDCF39"/>
<path d="M18.4065 24.4057C18.7439 24.4229 19.2472 24.2856 19.1156 23.7481C19.1499 23.1991 18.9555 22.9017 18.4008 22.9074C17.949 22.9074 17.7146 23.0961 17.686 23.5651C17.6517 24.0969 17.9948 24.3886 18.4065 24.4057Z" fill="#FDCF39"/>
<path d="M76.0227 36.4493C75.9884 36.2263 75.8683 36.2949 75.7539 36.3807C75.7825 36.6152 75.9026 36.5465 76.0227 36.4493Z" fill="#FDCF39"/>
</svg>
