<svg width="175" height="70" viewBox="0 0 175 70" fill="none" xmlns="http://www.w3.org/2000/svg">
<path d="M24.4327 9.11601C23.3481 9.13492 22.2698 9.15699 21.2104 9.50381C20.2803 9.80965 19.3218 10.0083 18.4138 10.4055C17.676 10.7303 16.9256 11.0267 16.2068 11.3956C15.882 11.5627 15.5825 11.7676 15.2609 11.9221C14.5042 12.2878 13.8169 12.7482 13.1232 13.2085C11.862 14.0472 10.6829 14.9867 9.62348 16.0682C9.14739 16.5569 8.58932 16.9762 8.26142 17.5973C8.12899 17.6604 8.05963 17.7771 8.00603 17.9032C7.98396 17.9284 7.95874 17.9568 7.93667 17.9852C7.90829 18.0198 7.88307 18.0545 7.85469 18.0892C7.81055 18.086 7.79479 18.105 7.79794 18.1491L7.78217 18.1617C7.67813 18.2027 7.60246 18.2721 7.55832 18.3761C7.46688 18.5022 7.3786 18.6315 7.28717 18.7576C6.97503 19.013 6.74171 19.322 6.60298 19.7035C6.05438 20.3656 5.70125 21.1507 5.22516 21.8538C4.92879 22.2889 4.82159 22.7902 4.55044 23.2221C4.11849 23.9095 3.84103 24.6693 3.5415 25.4166C3.14108 26.4066 2.86993 27.4407 2.58932 28.4686C2.27403 29.6289 2.22043 30.8301 2.10378 32.0156C1.99973 33.0655 1.99027 34.1186 2.00604 35.1748C2.0218 36.3067 2.22359 37.4229 2.27719 38.5548C2.30556 39.1444 2.39069 39.7403 2.53572 40.3078C2.65554 40.7713 2.91407 41.1969 2.90777 41.7045C2.90777 41.8653 3.05596 41.9095 3.17892 41.7676C3.27351 41.6604 3.35864 41.5437 3.43746 41.4239C3.97661 40.6105 4.5063 39.7939 5.0486 38.9836C6.02285 37.5269 7.08853 36.1333 7.98711 34.6231C8.26142 34.1628 8.64923 33.7718 8.90776 33.3052C9.48475 32.2679 10.2099 31.3283 10.8153 30.3099C11.3387 29.4302 11.8873 28.5663 12.3949 27.6772C12.7417 27.0719 13.098 26.4696 13.47 25.8895C14.2614 24.6504 14.9267 23.3451 15.6613 22.0776C15.9325 21.611 16.1878 21.1349 16.4495 20.6651C16.563 20.5895 16.6103 20.4665 16.6702 20.3498C16.9256 19.8422 17.1621 19.3283 17.4427 18.8333C17.84 18.1302 18.1206 17.3735 18.5242 16.6704C18.7795 16.2258 18.9529 15.7214 19.2241 15.2705C19.6088 14.6305 20.1574 14.1796 20.8668 13.9746C21.6329 13.7508 22.2761 14.1071 22.8499 14.5674C23.0044 14.6904 23.2283 14.7849 23.263 15.0151C23.3103 15.3304 23.4774 15.5984 23.5657 15.8948C23.8274 16.7681 23.3733 19.0382 23.367 19.2999C23.3576 19.6373 23.367 19.9778 23.3387 20.3152C23.2125 21.8096 23.2661 23.3041 23.2787 24.7986C23.2693 25.8328 23.2567 26.8638 23.2472 27.8979C22.9887 27.961 23.2535 33.5574 23.2567 33.6772L23.2315 33.6898L23.2567 33.7024C23.2567 33.8002 23.2567 33.9011 23.2567 33.9988H23.2346L23.2567 34.0083C23.3134 35.1875 23.1148 36.3666 23.2819 37.5427C23.3859 38.2678 23.2819 39.0025 23.4301 39.7245C23.4868 39.9893 23.5814 40.6987 23.6193 40.7713C23.8368 41.1969 24.149 43.0319 24.2656 43.4954C24.3633 43.8832 24.3539 44.2615 24.5935 44.662C24.8331 45.0624 25.057 45.5259 25.243 45.9799C25.4196 46.4087 25.8641 46.4717 26.2299 46.1659C27.5762 45.0498 28.5883 43.6625 29.5215 42.209C29.7138 41.9095 29.9251 41.6162 30.0922 41.3041C30.6912 40.1817 31.3975 39.1223 31.9524 37.9746C32.17 37.5238 32.5483 37.1391 32.7186 36.6756C33.0055 35.8937 33.4406 35.1843 33.8 34.4434C34.3171 33.3714 34.8468 32.2994 35.3702 31.2274C35.635 30.8617 35.7044 30.4076 35.9219 30.0167C36.253 29.4271 36.5273 28.8091 36.8111 28.1943C37.057 27.6614 37.3187 27.116 37.4732 26.5705C37.7538 25.5774 38.3434 24.9153 39.2136 24.4802C40.5977 23.7928 42.2025 25.1297 42.2971 26.5232C42.3539 27.3651 43.1232 32.0566 43.2335 33.0403C43.2871 33.5196 44.6618 37.549 44.7375 37.9147C44.7816 38.1354 44.9203 38.312 45.0023 38.5043C45.1883 38.9457 45.8536 40.4717 46.1531 40.7051C46.1752 40.7303 46.3928 41.1654 46.6009 41.2568C46.5819 41.2757 47.0139 42.1144 47.1463 42.2058C47.4837 42.4423 47.5247 42.7544 47.4742 43.1139C47.1337 43.2904 46.7837 43.3819 46.4085 43.2211C46.3675 43.1832 46.3297 43.1454 46.2887 43.1076C46.273 43.0414 46.2351 42.9941 46.1626 42.9878C46.1248 42.9531 46.0869 42.9184 46.0522 42.8837C46.027 42.7765 45.9766 42.6945 45.8536 42.6914C45.7969 42.6504 45.7401 42.6063 45.6865 42.5653C45.6644 42.5432 45.6424 42.5211 45.6171 42.4991C45.5572 42.4455 45.5005 42.3887 45.4406 42.3351C45.2955 42.1081 45.1694 41.8653 44.9077 41.7392C44.706 41.6099 44.6618 41.3293 44.4222 41.2347C44.4253 41.1433 44.3938 41.0802 44.2992 41.0582L44.2677 41.0708L44.2992 41.055C44.1983 40.7555 43.9398 40.5852 43.7412 40.3614C43.7349 40.2258 43.6813 40.1186 43.5551 40.0556C43.5331 39.9168 43.4542 39.8222 43.3313 39.7592L43.3155 39.7434C43.2966 39.715 43.2777 39.6898 43.2588 39.6614V39.6583C43.2588 39.5952 43.2367 39.5416 43.1736 39.5164C43.0885 39.384 43.0034 39.2516 42.9151 39.1191C42.666 38.5863 42.3066 38.1228 41.9944 37.6278C41.985 37.5647 41.9944 37.4922 41.9062 37.4733C41.8683 37.1013 41.5783 36.868 41.4143 36.5653C41.0454 35.8842 40.8531 35.1149 40.3802 34.4812C40.3392 34.4276 40.3675 34.3267 40.3392 34.2573C40.191 33.8948 40.027 33.5353 39.8126 33.2043C39.7086 33.0435 39.5099 33.034 39.4973 33.1696C39.4406 33.6804 39.0969 34.0556 38.9204 34.5064C38.6965 35.0739 38.3844 35.6068 38.1447 36.168C37.924 36.6882 37.5488 37.1328 37.4006 37.6877L37.3943 37.6972C37.3061 37.8296 37.2209 37.9589 37.1326 38.0913C37.1232 38.126 37.1137 38.1606 37.1043 38.1985C37.0002 38.271 37.0318 38.394 36.9908 38.4917C36.975 38.5232 36.9561 38.5579 36.9403 38.5894C36.893 38.5863 36.8394 38.5642 36.8268 38.6399C36.5399 39.4565 35.9661 40.1281 35.6823 40.9478C35.5184 41.4208 35.0959 41.7424 34.9004 42.2058C34.5788 42.9783 34.0523 43.6373 33.6361 44.3593C33.3933 44.7786 33.1411 45.2232 32.8037 45.6078C32.3024 46.1848 31.902 46.8469 31.4385 47.4554C30.9435 48.1018 30.3539 48.663 29.7674 49.2211C29.0265 49.9273 28.1626 50.5012 27.1821 50.7723C26.0975 51.075 24.975 51.0403 23.8841 50.6462C23.5184 50.5138 23.1779 50.3372 22.8972 50.1007C22.1311 49.4607 21.4311 48.7387 20.9456 47.8622C20.706 47.4302 20.5767 46.9131 20.3623 46.4686C20.0565 45.8348 19.9335 45.1507 19.656 44.5106C19.4511 44.0377 19.0475 41.8338 19.0192 41.5122C18.9466 40.6483 18.9656 39.7718 18.7543 38.9237C18.5683 38.1827 18.6156 37.4229 18.5683 36.6725C18.5242 35.9883 18.4201 35.301 18.4706 34.6136C18.5399 33.7056 18.5084 32.7975 18.4516 31.8927C18.3886 30.9058 18.3413 29.9252 18.4579 28.9415C18.4926 28.642 18.5115 28.333 18.3602 28.0146C18.2625 28.4245 17.8841 28.6199 17.7139 28.9604C17.0139 30.3698 16.2635 31.7539 15.469 33.1128C15.1442 33.6709 14.8542 34.2479 14.5546 34.8186C14.233 35.4239 13.8421 35.9946 13.4921 36.5873C12.9719 37.4702 12.4674 38.3593 11.9472 39.2421C11.4585 40.0682 10.9792 40.9005 10.4558 41.7045C10.087 42.272 9.80004 42.8837 9.43115 43.4481C9.0055 44.0976 8.55148 44.725 8.14161 45.3808C7.55516 46.3204 7.00025 47.2757 6.34444 48.1712C6.20887 48.354 6.07014 48.6756 6.21833 48.7671C6.52416 48.9562 6.58091 49.2715 6.77324 49.5111C7.17366 50.0124 7.56147 50.5232 7.96504 51.0245C8.50419 51.6961 9.06541 52.3551 9.7086 52.9131C10.4464 53.5532 11.1274 54.2626 11.9283 54.8427C12.4611 55.2274 13.0066 55.5963 13.5394 55.9809C13.8074 56.1732 14.0848 56.3624 14.3812 56.5106C15.0433 56.848 15.6834 57.2295 16.3486 57.5668C17.2661 58.0303 18.2215 58.3834 19.161 58.7712C19.965 59.1023 20.8321 59.2789 21.6708 59.5216C21.8189 59.5658 21.9451 59.6446 22.1122 59.6572C23.2031 59.7297 24.2656 60.0387 25.3628 60.0797C25.8011 60.0955 26.233 60.2216 26.6807 60.2121C27.5446 60.1964 28.4117 60.1901 29.2756 60.2027C29.6697 60.209 30.067 60.1964 30.4327 60.0829C31.12 59.8716 31.8294 59.8464 32.5262 59.736C32.9897 59.6604 33.4753 59.6572 33.9167 59.5153C34.7554 59.2442 35.5562 58.8532 36.4295 58.7082C36.8394 58.642 37.1169 58.2573 37.511 58.2605C38.1037 58.2699 38.5388 57.8758 39.0023 57.6551C39.4847 57.425 40.027 57.261 40.481 56.889C40.8594 56.5831 41.3796 56.3845 41.821 56.1165C43.5299 55.0697 45.0496 53.7802 46.4495 52.3582C47.7327 51.0561 48.8237 49.5931 49.8011 48.045C50.5325 46.8879 51.0906 45.6457 51.6991 44.4286C51.7622 44.3057 51.759 44.1764 51.7369 44.0471C51.8189 44.003 51.8662 43.9368 51.9167 43.8548C52.1121 43.549 52.2162 43.2242 52.2793 42.8648C52.3581 42.4108 52.6702 42.0293 52.7207 41.5532C52.7869 40.9447 53.1463 40.4087 53.1747 39.7844C53.1999 39.2736 53.1968 38.7439 53.3355 38.2584C53.6728 37.0981 53.6318 35.9095 53.7107 34.7271C53.7517 34.1281 53.6192 33.5385 53.6224 32.9426C53.6224 32.3593 53.5688 31.7792 53.531 31.1959C53.5247 31.1076 53.4963 31.0161 53.4553 30.9373C53.3071 30.6409 53.2535 30.3162 53.2472 29.9946C53.2283 29.1212 53.0044 28.2983 52.749 27.4691C52.6387 27.1128 52.3581 26.8165 52.3455 26.4602C52.3171 25.6057 51.8568 24.9058 51.5509 24.1649C51.3586 23.6982 51.2577 23.1528 50.8384 22.7933C50.8289 22.787 50.8258 22.7713 50.8226 22.7587C50.7501 22.2542 50.4348 21.8664 50.1668 21.466C49.6182 20.6399 49.1673 19.7539 48.5304 18.9783C47.7674 18.0451 46.995 17.1244 46.1815 16.2353C45.8284 15.8506 45.3838 15.5763 45.0212 15.2137C44.7249 14.9205 44.438 14.6273 44.1006 14.3877C43.5173 13.9778 42.9624 13.5364 42.3728 13.136C41.4648 12.5212 40.5252 11.9789 39.5572 11.4775C38.8825 11.1307 38.192 10.8249 37.4826 10.5443C36.5021 10.1596 35.5247 9.78442 34.4968 9.55111C34.254 9.49435 34.0239 9.42184 33.8 9.31779C33.5068 9.17906 33.1947 9.16015 32.8825 9.14753C32.2898 9.12231 31.697 9.11285 31.1074 9.10339" fill="#FDCF39"/>
<path d="M70.0019 25.4039C69.0466 25.4134 68.0881 25.4197 67.1328 25.4355C67.0003 25.4355 66.8679 25.4638 66.8584 25.6467C66.8206 26.5106 66.4139 27.2768 66.1837 28.0902C65.818 29.364 65.3766 30.6157 64.9793 31.88C64.4685 33.5132 63.8789 35.1212 63.4312 36.8049C63.2704 36.726 63.1853 36.6378 63.1412 36.5085C62.9362 35.9126 62.6903 35.3293 62.5295 34.7239C62.3529 34.0555 62.1638 33.3808 61.9399 32.7376C61.6152 31.8075 61.2999 30.8679 60.9972 29.9347C60.5526 28.5631 60.1112 27.1853 59.695 25.8044C59.6099 25.5206 59.4523 25.4165 59.1559 25.4228C58.5001 25.4355 57.8443 25.4165 57.1885 25.4102C56.4128 25.4039 56.4034 25.4039 56.4034 26.1669C56.4002 30.3698 56.4034 34.5726 56.4002 38.7754C56.4002 39.0624 56.4223 39.3524 56.3845 39.6362C56.3498 39.9136 56.4412 40.0587 56.7092 40.0681C57.1159 40.0839 57.5227 40.0776 57.9262 40.0776C58.0429 40.0776 58.1469 40.0398 58.128 39.901C58.0965 39.6393 58.1848 39.3871 58.1848 39.1317C58.1848 37.4228 58.1974 35.7108 58.1753 34.0019C58.1438 31.7444 58.2731 29.487 58.1123 27.2326C58.1028 27.1128 58.0618 26.9489 58.2636 26.9362C58.4591 26.9236 58.6199 26.9709 58.6735 27.2011C58.8122 27.8001 58.9825 28.3929 59.1843 28.9762C59.4901 29.8495 59.6982 30.7576 60.0009 31.6341C60.3351 32.6115 60.7134 33.5731 60.9436 34.5789C61.035 34.973 61.2494 35.3167 61.3408 35.695C61.4922 36.3162 61.6971 36.9247 61.8926 37.5269C62.1165 38.2048 62.3845 38.8637 62.561 39.5605C62.6934 40.0839 62.8889 40.169 63.3997 40.1627C63.8253 40.1596 63.9073 39.9389 64.0051 39.5857C64.2794 38.5926 64.6293 37.6246 64.9541 36.6472C65.3986 35.3135 65.7644 33.9515 66.1963 32.6146C66.4233 31.9084 66.6472 31.1927 66.8963 30.499C67.2904 29.3987 67.5773 28.2668 67.943 27.1601C67.9966 26.9993 68.0156 26.7849 68.2394 26.8196C68.4696 26.8574 68.4128 27.0813 68.416 27.2421C68.4286 27.8537 68.3435 28.4591 68.3466 29.0708C68.3655 32.6619 68.3624 36.25 68.3498 39.8411C68.3498 40.0807 68.4191 40.1407 68.6241 40.1312C69.0024 40.1154 69.3839 40.0839 69.7623 40.0934C70.1249 40.0997 70.2163 39.9483 70.2163 39.5983C70.2005 35.3419 70.2005 31.0886 70.2005 26.8322C70.2005 26.4539 70.21 26.0755 70.2195 25.6972C70.2226 25.5395 70.1974 25.4071 69.9956 25.4071L70.0019 25.4039Z" fill="#FDCF39"/>
<path d="M144.351 29.2346C143.742 28.7932 143.014 28.705 142.289 28.6261C140.892 28.4748 139.637 28.8752 138.486 29.6351C138.177 29.84 137.954 29.8463 137.755 29.5121C137.61 29.2693 137.395 29.1306 137.131 29.0139C136.705 28.8248 136.273 28.7522 135.819 28.686C134.529 28.4937 133.338 28.7081 132.222 29.3608C131.597 29.7265 131.604 29.7391 131.386 29.077C131.342 28.9446 131.348 28.7522 131.146 28.8027C130.875 28.8689 130.617 28.7901 130.355 28.7806C129.964 28.768 129.819 28.8941 129.822 29.2882C129.832 30.8647 129.822 32.4443 129.816 34.0208C129.81 35.8211 129.8 37.6214 129.794 39.4217C129.794 39.7055 129.769 40.0145 130.169 40.0807C130.207 40.1153 130.248 40.128 130.295 40.0996C130.371 40.1059 130.45 40.1122 130.528 40.1153H130.554C130.626 40.1153 130.702 40.109 130.777 40.1059C130.932 40.0996 131.09 40.0933 131.244 40.087C131.373 40.0807 131.503 40.0775 131.635 40.0712L131.641 40.1027V40.0681H131.635C131.887 40.0018 131.786 39.7938 131.786 39.6456C131.786 37.0759 131.761 34.5095 131.777 31.9398C131.783 30.7039 131.588 30.8836 132.773 30.2877C133.801 29.7675 134.835 29.7454 135.879 30.1711C136.188 30.2972 136.497 30.4958 136.607 30.8426C136.822 31.5174 136.96 32.2078 136.957 32.9236C136.948 35.1779 136.951 37.4354 136.957 39.6897C136.957 39.8284 136.859 40.0145 137.086 40.087C137.105 40.0933 137.124 40.0996 137.143 40.109C137.247 40.109 137.348 40.109 137.452 40.109H137.474C137.547 40.109 137.622 40.1059 137.695 40.1027C137.733 40.1027 137.771 40.1027 137.808 40.0996C138.001 40.1185 138.199 40.2509 138.385 40.0775C138.66 40.0239 138.578 39.8032 138.578 39.6361C138.609 37.1075 138.609 34.582 138.521 32.0533C138.512 31.7917 138.559 31.5363 138.455 31.2683C138.363 31.0255 138.449 30.7922 138.723 30.6629C139.029 30.5179 139.309 30.3035 139.628 30.2089C139.937 30.1143 140.202 29.8936 140.536 29.8841C141.006 29.8715 141.475 29.8589 141.932 29.9724C142.636 30.1458 143.231 30.458 143.443 31.2273C143.556 31.6403 143.635 32.0533 143.635 32.4821C143.629 34.8689 143.635 37.2588 143.616 39.6456C143.616 40.0271 143.73 40.1689 144.105 40.128C144.392 40.0964 144.682 40.0586 144.966 40.0807C145.398 40.1122 145.505 39.8726 145.521 39.5226C145.527 39.3523 145.527 39.1821 145.524 39.015C145.508 36.5147 145.555 34.0113 145.439 31.511C145.394 30.5999 145.114 29.7832 144.341 29.222L144.351 29.2346Z" fill="#FDCF39"/>
<path d="M172.985 34.6389C172.985 33.0088 172.985 31.3787 172.985 29.7455C172.985 28.8186 172.985 28.8249 172.074 28.7839C171.718 28.7681 171.453 28.765 171.472 29.2726C171.491 29.7361 171.305 29.8054 170.911 29.5784C169.501 28.7713 168.01 28.4497 166.383 28.7114C165.103 28.9163 164.277 29.6037 163.873 30.8049C163.593 31.6373 163.508 32.5138 163.479 33.3777C163.438 34.6988 163.438 36.0198 163.725 37.3283C163.946 38.3309 164.346 39.2011 165.327 39.652C166.598 40.2384 167.916 40.2857 169.252 39.8569C169.76 39.693 170.252 39.5007 170.737 39.2799C170.873 39.2169 171.084 39.0876 171.094 39.4061C171.116 40.1754 171.072 40.9478 170.778 41.6572C170.514 42.2973 169.99 42.5842 169.256 42.6851C168.02 42.8554 166.806 42.8459 165.582 42.663C165.459 42.6441 165.273 42.6063 165.236 42.7576C165.16 43.0666 165.027 43.3661 165.04 43.694C165.043 43.8138 165.116 43.8611 165.223 43.9116C165.45 44.0156 165.683 43.962 165.913 43.9936C167.301 44.1827 168.688 44.2269 170.069 43.9841C170.955 43.8265 171.746 43.4576 172.276 42.6662C172.837 41.8307 172.957 40.8785 172.979 39.9231C173.017 38.1638 172.992 36.4013 172.992 34.6389H172.985ZM170.791 38.0629C170.261 38.3372 169.681 38.4728 169.126 38.6809C168.363 38.9678 167.632 38.8732 166.885 38.6588C166.342 38.5012 165.702 37.7003 165.592 37.1612C165.333 35.9158 165.305 34.6578 165.371 33.4029C165.415 32.6052 165.437 31.7823 165.828 31.0414C166.229 30.2847 166.916 29.9757 167.711 29.9C168.842 29.7928 169.845 30.2153 170.807 30.7576C171.034 30.8837 171.138 31.0729 171.135 31.3346C171.128 32.3656 171.135 33.3935 171.135 34.4245C171.135 35.4555 171.128 36.4833 171.141 37.5143C171.144 37.7918 171.021 37.9431 170.791 38.0629Z" fill="#FDCF39"/>
<path d="M114.987 28.787C114.612 28.7807 114.313 28.7902 114.366 29.2883C114.376 29.3703 114.322 29.4586 114.297 29.5469C114.234 29.777 114.133 29.8401 113.925 29.6635C113.581 29.3766 113.175 29.1937 112.762 29.0329C111.693 28.6167 110.599 28.5537 109.46 28.7019C108.256 28.8595 107.269 29.5815 106.888 30.726C106.73 31.2021 106.557 31.6845 106.531 32.1795C106.506 32.6745 106.298 33.1727 106.506 33.6709L106.484 33.6835L106.497 33.7024C106.412 34.9699 106.383 36.2436 106.689 37.4827C106.856 38.1606 107.146 38.8007 107.717 39.2831C108.492 39.9389 109.432 40.0776 110.378 40.1375C111.456 40.2037 112.459 39.8443 113.427 39.406C113.969 39.1601 114.013 39.1759 113.997 39.7497C113.997 39.7623 113.997 39.7749 113.997 39.7875C114.051 40.6766 113.934 41.5185 113.348 42.2405H113.326V42.2626C113.298 42.2657 113.279 42.2815 113.272 42.3098H113.244L113.238 42.3445C113.219 42.3382 113.206 42.3445 113.2 42.3634C113.105 42.3761 113.026 42.4107 112.989 42.5085L112.97 42.5211C112.421 42.6188 111.872 42.7166 111.324 42.8112C110.696 42.8049 110.066 42.7985 109.435 42.7922C109.085 42.6724 108.723 42.6787 108.357 42.6756C108.139 42.6756 108.083 42.7796 108.117 42.9688C108.105 43.0855 108.004 43.1674 108.007 43.2936C108.029 44.0282 107.953 43.984 108.631 43.984C109.11 43.984 109.593 44.0408 110.072 44.0755C111.412 44.1732 112.733 44.2237 114.01 43.6751C114.981 43.2589 115.514 42.5022 115.7 41.5216C115.914 40.3897 115.955 39.2358 115.955 38.0818C115.955 35.3009 115.955 32.5201 115.955 29.7392C115.955 28.787 115.955 28.7996 114.991 28.7838L114.987 28.787ZM114.136 31.1832C114.136 31.1832 114.136 31.2116 114.127 31.2242C114.133 31.2116 114.136 31.1958 114.136 31.1832ZM114.215 34.891C114.215 34.8248 114.221 34.7523 114.174 34.7082C114.224 34.7492 114.215 34.8248 114.215 34.891ZM111.98 29.8748C111.705 29.7739 111.403 29.8275 111.113 29.8243C111.406 29.8243 111.705 29.7739 111.98 29.8748ZM111.97 38.8606C111.97 38.8606 111.986 38.8606 111.989 38.8543C111.983 38.8606 111.976 38.8637 111.97 38.8606ZM112.005 38.8227C111.98 38.8101 111.961 38.8164 111.948 38.8416C111.806 38.807 111.667 38.8196 111.529 38.8511C111.251 38.8511 110.971 38.8479 110.693 38.8448C109.618 38.7439 108.887 38.2111 108.552 37.1706C108.36 37.0098 108.373 36.8175 108.392 36.6188C108.373 36.8143 108.36 37.0098 108.552 37.1706C108.584 36.8553 108.461 36.5684 108.395 36.272C108.332 35.3766 108.351 34.4812 108.335 33.5857C108.322 32.7817 108.373 31.9651 108.716 31.2053C109.098 30.3572 109.817 30.0072 110.69 29.8842C110.832 29.8653 110.974 29.8432 111.116 29.8243C111.491 29.8937 111.869 29.963 112.244 30.0324C112.787 30.25 113.338 30.4423 113.818 30.7891C113.938 30.8742 114.048 30.9562 114.098 31.0981C114.098 31.1548 114.098 31.2116 114.098 31.2652C114.098 31.3409 114.098 31.4134 114.098 31.489C114.057 32.3624 114.029 33.2358 114.098 34.106C114.061 34.1911 114.057 34.2762 114.098 34.3614L114.079 34.3929L114.098 34.4244C114.057 34.5095 114.057 34.5947 114.101 34.6766C114.089 34.7901 114.061 34.9068 114.061 35.0203C114.061 35.8117 114.061 36.6062 114.073 37.3976C114.079 37.6971 113.982 37.8895 113.714 38.0597C113.446 38.23 113.074 38.2016 112.881 38.5011C112.588 38.6083 112.292 38.7187 111.999 38.8259L112.005 38.8227Z" fill="#FDCF39"/>
<path d="M127.574 34.4717C127.574 32.8416 127.574 31.2084 127.574 29.5784C127.574 29.055 127.312 28.7912 126.789 28.787C126.36 28.7849 126.095 28.9814 125.994 29.3766C125.982 29.4239 125.947 29.468 125.938 29.5185C125.903 29.7329 125.843 29.7675 125.638 29.6383C124.166 28.7019 122.551 28.4023 120.849 28.7334C119.906 28.9163 119.115 29.4365 118.664 30.3067C118.235 31.1328 118.134 32.0597 118.093 32.9709C118.036 34.2068 118.109 35.4491 118.178 36.685C118.219 37.4386 118.342 38.1984 118.774 38.8101C119.288 39.5384 119.998 40.0492 120.943 40.2037C122.321 40.4307 123.639 40.3582 124.885 39.6803C125.115 39.5573 125.323 39.3902 125.556 39.2767C125.698 39.2074 125.903 39.056 125.944 39.4092C126.026 40.128 126.048 40.1406 126.783 40.1186C126.899 40.1154 127.019 40.0902 127.136 40.0996C127.476 40.128 127.587 39.9861 127.583 39.6425C127.568 37.921 127.577 36.1963 127.577 34.4748L127.574 34.4717ZM125.178 38.3246C124.257 38.8574 123.311 39.0087 122.271 38.9993C121.047 38.9867 120.303 37.9683 120.136 37.1454C119.95 36.2436 119.998 35.3167 120.035 34.396C119.944 33.4281 120.013 32.4664 120.215 31.5237C120.411 30.6062 121.41 29.9315 122.406 29.881C123.447 29.8306 124.358 30.2184 125.275 30.6094C125.534 30.7197 125.622 30.9057 125.638 31.2179C125.748 33.1979 125.648 35.1779 125.695 37.1548C125.695 37.2463 125.695 37.3377 125.698 37.4291C125.707 37.8327 125.597 38.0818 125.178 38.3277V38.3246Z" fill="#FDCF39"/>
<path d="M161.411 31.1265C161.314 30.3982 161.042 29.7518 160.409 29.3041C159.964 28.9888 159.469 28.8343 158.943 28.7366C158.088 28.5758 157.237 28.5506 156.376 28.6987C155.528 28.8438 154.784 29.2473 154.008 29.5721C153.74 29.6856 153.649 29.6225 153.624 29.3293C153.579 28.7902 153.56 28.7933 153.021 28.7933C152.838 28.7933 152.652 28.8091 152.473 28.7839C152.107 28.7303 152.044 28.9068 152.044 29.2253C152.057 30.9468 152.05 32.6714 152.05 34.3929H152.053C152.053 36.1428 152.06 37.8895 152.047 39.6394C152.047 39.9736 152.161 40.1249 152.492 40.1217C152.82 40.1217 153.151 40.0965 153.472 40.1375C153.863 40.1848 153.967 40.0461 153.964 39.6709C153.945 37.5805 153.945 35.4933 153.942 33.4029C153.942 32.6966 153.945 31.9935 153.942 31.2873C153.942 31.0382 153.98 30.7923 154.229 30.6882C155.046 30.3509 155.799 29.8306 156.748 29.8842C157.136 29.9063 157.533 29.8905 157.908 29.9851C158.47 30.1239 158.993 30.3256 159.289 30.8963C159.646 31.5868 159.696 32.3277 159.696 33.0781C159.696 35.282 159.696 37.4891 159.683 39.693C159.683 40.0366 159.794 40.1722 160.134 40.1438C160.487 40.1123 160.841 40.0934 161.194 40.0808C161.468 40.0713 161.588 39.9515 161.582 39.6677C161.572 39.0561 161.591 38.4412 161.582 37.8264C161.541 35.591 161.711 33.3524 161.411 31.1265Z" fill="#FDCF39"/>
<path d="M85.1419 36.3541C85.0378 36.3541 84.9306 36.3541 84.8266 36.3541C84.1645 36.3667 84.1266 36.3699 84.1739 37.0351C84.2401 37.9495 83.5244 38.7535 82.6321 38.9143C81.929 39.0404 81.2196 39.0151 80.5197 38.9615C79.6842 38.8985 78.9211 38.1166 78.7131 37.2937C78.4734 36.3478 78.505 35.3893 78.4924 34.0619C78.4734 33.5322 78.4671 32.6273 78.6752 31.754C78.8486 31.032 79.2238 30.4171 79.9805 30.1082C80.7089 29.8118 81.475 29.8149 82.2128 29.9095C83.1713 30.0325 83.9343 30.3667 84.1392 31.5049C84.1771 31.7193 84.1708 31.9463 84.1644 32.167C84.1613 32.3814 84.2464 32.4634 84.464 32.4792C84.8959 32.5075 85.331 32.4413 85.7567 32.5454C85.9049 32.58 85.9648 32.4949 85.9711 32.3499C86.0278 31.0982 85.7094 30.0199 84.5838 29.2947C83.7546 28.7619 82.8118 28.724 81.8754 28.6326C81.2984 28.5758 80.7278 28.6547 80.1602 28.724C79.0031 28.8628 78.0194 29.2947 77.3352 30.332C76.6794 31.3252 76.7078 32.4382 76.629 33.5228C76.5596 34.4844 76.5848 35.4618 76.6857 36.4298C76.7646 37.1833 76.9159 37.9116 77.3384 38.558C77.9721 39.5228 78.8991 40.002 80.0215 40.1849C81.371 40.4087 82.6952 40.3677 83.9942 39.9106C85.1324 39.5102 85.9711 38.2805 85.9805 37.2022C85.99 36.3635 85.9931 36.3635 85.1419 36.3541Z" fill="#FDCF39"/>
<path d="M93.923 28.6514C92.5484 28.5095 91.2998 28.8279 90.1931 29.6603C90.0765 29.7486 89.9945 29.9315 89.8022 29.8558C89.5909 29.7738 89.5499 29.5657 89.5184 29.3765C89.4301 28.8059 89.4364 28.8027 88.8721 28.7933C88.7018 28.7901 88.5284 28.8153 88.3613 28.7933C87.9829 28.7365 87.8978 28.9099 87.901 29.2536C87.9136 30.9751 87.9073 32.6966 87.9073 34.4212H87.9325C87.9325 36.0134 87.9325 37.6057 87.9325 39.1979C87.9325 40.1532 87.9356 40.1816 88.9067 40.1343C89.9157 40.087 89.8211 40.2982 89.8211 39.1947C89.8211 36.7008 89.8179 34.21 89.8148 31.716C89.8148 31.5048 89.8274 31.303 90.0292 31.1611C91.1737 30.3666 92.4065 29.8716 93.8316 30.0513C94.0491 30.0796 94.1248 30.0134 94.1343 29.8211C94.15 29.4964 94.1595 29.1716 94.1658 28.8469C94.169 28.6829 94.0397 28.6671 93.923 28.6545V28.6514Z" fill="#FDCF39"/>
<path d="M149.783 28.8658C149.553 28.664 149.206 28.8311 148.979 28.7901C148.768 28.7901 148.626 28.7901 148.481 28.7901C147.926 28.7901 147.92 28.7901 147.92 29.3356C147.914 32.1417 147.904 34.9446 147.904 37.7507C147.904 38.416 147.942 39.0812 147.958 39.7434C147.961 39.9073 147.967 40.0618 148.169 40.1122C148.658 40.2289 149.137 40.1438 149.613 40.0366C149.711 40.0145 149.783 39.9609 149.783 39.8222C149.783 39.5132 149.837 39.2042 149.837 38.8952C149.837 35.818 149.84 32.7376 149.824 29.6603C149.824 29.3923 150.007 29.0644 149.783 28.869V28.8658Z" fill="#FDCF39"/>
<path d="M74.6527 33.22C74.6527 31.8895 74.6464 30.559 74.6716 29.2284C74.678 28.869 74.5834 28.7429 74.2082 28.787C73.8582 28.828 73.4988 28.8185 73.1488 28.787C72.8114 28.7555 72.7421 28.8785 72.7452 29.1969C72.7578 32.1732 72.7515 35.1464 72.7515 38.1228C72.7515 38.6714 72.7641 39.22 72.7578 39.7655C72.7578 39.9956 72.8461 40.0902 73.0763 40.1091C73.4578 40.1407 73.8361 40.0902 74.2145 40.0934C74.596 40.0934 74.6653 39.9294 74.6622 39.5952C74.6496 37.8611 74.6559 36.1238 74.6559 34.3897C74.6559 33.9988 74.6559 33.6078 74.6559 33.2137L74.6527 33.22Z" fill="#FDCF39"/>
<path d="M104.753 35.0614C104.753 35.0078 104.753 34.9542 104.753 34.9006C104.753 34.8502 104.753 34.7966 104.753 34.7461C104.753 34.6925 104.753 34.6389 104.753 34.5885C104.753 34.538 104.753 34.4844 104.753 34.434C104.753 34.1723 104.75 33.9137 104.747 33.652C104.747 33.5985 104.747 33.548 104.747 33.4944C104.737 33.4755 104.728 33.4597 104.725 33.4408C104.728 33.4597 104.74 33.4786 104.747 33.4944C104.747 33.4692 104.747 33.4408 104.747 33.4156C104.744 33.3368 104.737 33.2579 104.734 33.176C104.763 33.1318 104.728 33.1192 104.7 33.1034C104.712 32.4697 104.551 31.8707 104.413 31.2558C104.154 30.1176 103.457 29.4177 102.42 29.0393C101.335 28.6452 100.194 28.5696 99.0432 28.661C98.8351 28.6768 98.627 28.6894 98.4189 28.7083C97.473 28.7966 96.6533 29.1528 95.9754 29.8244C95.1273 30.6662 94.9728 31.7635 94.8813 32.8701C94.8183 33.6331 94.8813 34.4151 94.8183 35.1718C94.7363 36.1523 94.9917 37.0477 95.2754 37.9274C95.6254 38.9994 96.4515 39.6899 97.5487 40.0146C98.7531 40.3709 99.9796 40.4087 101.209 40.207C102.048 40.0682 102.852 39.8192 103.501 39.2201C104.498 38.2994 104.681 37.1045 104.687 35.8433C104.693 35.7141 104.696 35.5848 104.703 35.4587C104.807 35.3988 104.769 35.3042 104.756 35.219C104.756 35.1686 104.756 35.115 104.759 35.0646L104.753 35.0614ZM102.474 37.754C102.215 38.4066 101.701 38.7976 100.976 38.9048C100.159 39.0246 99.349 39.0246 98.5293 38.908C97.719 38.7913 97.2681 38.2206 97.0253 37.568C96.792 36.9374 96.7226 36.2248 96.6911 35.5438C96.6533 34.765 96.6753 33.9768 96.6911 33.1949C96.7069 32.5202 96.8046 31.8265 97.0821 31.2022C97.287 30.7388 97.6464 30.3636 98.1446 30.1649C98.5576 30.001 98.9927 29.919 99.4247 29.8339C99.6265 29.8307 99.8283 29.8276 100.03 29.8244C100.222 29.8686 100.415 29.9095 100.604 29.9537C101.824 30.0987 102.549 30.7009 102.726 32.0315C102.751 32.2112 102.811 32.3814 102.833 32.558C102.861 32.6179 102.877 32.6778 102.887 32.7409C102.896 32.8008 102.899 32.8638 102.896 32.9237C102.896 32.8607 102.896 32.8008 102.887 32.7409C102.877 32.681 102.861 32.6179 102.833 32.558C102.827 32.8039 102.795 33.053 102.877 33.2926C102.877 33.4377 102.877 33.5795 102.877 33.7246C102.795 34.3331 102.833 34.9479 102.849 35.5596C102.868 36.3194 102.751 37.0572 102.474 37.754Z" fill="#FDCF39"/>
<path d="M148.897 27.3714C149.547 27.3819 149.866 27.0625 149.856 26.413C149.845 25.7635 149.507 25.4313 148.84 25.4166C148.174 25.4019 147.855 25.7172 147.882 26.3625C147.909 27.0078 148.247 27.3441 148.894 27.3714H148.897Z" fill="#FDCF39"/>
<path d="M73.7187 27.3587C74.3514 27.3587 74.6656 27.0339 74.6614 26.3844C74.6572 25.7349 74.3388 25.4102 73.7061 25.4102C73.0734 25.4102 72.756 25.7265 72.7539 26.3592C72.7539 26.3592 72.7539 26.3844 72.7539 26.397C72.7539 27.0381 73.0766 27.3576 73.7218 27.3555L73.7187 27.3587Z" fill="#FDCF39"/>
<path d="M120.067 34.396H120.032C120.032 34.396 120.032 34.396 120.032 34.3992H120.067V34.396Z" fill="#FDCF39"/>
</svg>
