<svg width="175" height="70" viewBox="0 0 175 70" fill="none" xmlns="http://www.w3.org/2000/svg">
<path d="M168.2 62.0343H168.28C168.258 62.0183 168.238 62.0024 168.216 61.9896C168.21 62.0056 168.207 62.0215 168.2 62.0343Z" fill="#FDCF39"/>
<path d="M28.9043 37.44C28.2393 36.3252 27.5678 35.2167 26.9124 34.0987C26.1381 32.7846 25.3798 31.4609 24.6088 30.1437C23.7927 28.7461 22.9702 27.3549 22.1445 25.9638C21.9999 25.7228 22.0803 25.6136 22.3276 25.5589C22.6811 25.4786 23.0505 25.4369 23.3782 25.2987C24.8594 24.6754 26.0867 23.7405 26.9477 22.3589C27.7863 21.0128 27.9726 19.4867 28.1622 17.9638C28.3067 16.8136 28.1108 15.673 27.8987 14.5517C27.7124 13.5718 27.3911 12.5983 26.8128 11.7759C25.926 10.5164 24.779 9.52686 23.2754 9.04815C21.7558 8.56623 20.1943 8.25458 18.6007 8.24494C13.9389 8.21603 9.27708 8.22245 4.61525 8.21924C3.90843 8.21924 3.19839 8.21924 2.49156 8.23209C2.19277 8.2353 2.00964 8.33811 2.00964 8.69474C2.01606 12.8875 2.00321 17.0803 2 21.273C2 24.0136 2 26.7541 2 29.4947H2.00321C2.00321 32.1935 2.00321 34.8955 2.00321 37.5942C2.00321 38.2721 2.07068 38.3364 2.74859 38.2882C2.82891 38.2818 2.90923 38.2946 2.98955 38.2946C4.43212 38.2946 5.87469 38.2979 7.31725 38.2882C8.09797 38.2818 8.19114 38.1758 8.19114 37.4272C8.19114 33.9155 8.19436 30.4039 8.18472 26.8923C8.18472 26.5485 8.24897 26.4071 8.62809 26.4103C10.9799 26.4296 13.3285 26.4264 15.6803 26.4232C15.8763 26.4232 15.9662 26.526 16.0465 26.6738C16.2843 27.114 16.522 27.5509 16.763 27.9878C17.2064 28.7846 17.6562 29.5782 18.1028 30.3718C18.8096 31.628 19.51 32.8842 20.22 34.1372C20.914 35.3645 21.608 36.595 22.3116 37.8159C22.4369 38.0344 22.5686 38.3043 22.8642 38.3043C24.6923 38.3107 26.5236 38.3043 28.3517 38.2946C28.4995 38.2946 28.6441 38.285 28.7919 38.2657C29.0971 38.2304 29.1614 38.044 29.0746 37.7838C29.0328 37.6617 28.9654 37.5493 28.9011 37.4368L28.9043 37.44ZM21.6786 18.7927C21.3317 19.8722 20.5863 20.4891 19.555 20.8425C18.6329 21.1573 17.669 21.1445 16.718 21.1573C14.4626 21.1895 12.2072 21.1638 9.95178 21.1702C9.5309 21.1702 9.11002 21.2248 8.68913 21.2441C8.355 21.2602 8.18472 21.1541 8.18793 20.7557C8.20721 18.4553 8.204 16.1582 8.18793 13.8578C8.18793 13.5461 8.27789 13.4947 8.56383 13.4979C10.1253 13.5108 11.6867 13.5044 13.2482 13.5044C14.6618 13.5044 16.0787 13.5044 17.4923 13.5044C18.4851 13.5044 19.4457 13.6843 20.3421 14.1084C21.1035 14.4682 21.5566 15.1268 21.7268 15.9236C21.9293 16.8746 21.9839 17.8321 21.6754 18.7991L21.6786 18.7927Z" fill="#FDCF39"/>
<path d="M61.91 33.1542C58.7164 33.1574 55.5229 33.1671 52.3325 33.1671C51.3301 33.1671 50.3341 33.1928 49.3446 32.9133C48.4835 32.6723 47.6835 32.3446 47.0153 31.7599C45.7237 30.6289 45.351 29.0804 45.0683 27.4836C44.9912 27.053 45.0683 26.6161 44.9526 26.192C44.8273 25.7229 44.898 25.633 45.3896 25.633C50.7743 25.633 56.159 25.633 61.5405 25.633C61.6883 25.633 61.8361 25.6458 61.9807 25.6298C62.514 25.5719 62.7453 25.3663 62.7325 24.8812C62.7036 23.792 62.7228 22.6996 62.7196 21.6105C62.7196 20.8523 62.3298 20.4721 61.5502 20.4699C58.9574 20.4699 56.3678 20.4699 53.7751 20.4699C51.1181 20.4699 48.4578 20.4699 45.8008 20.4667C45.0362 20.4667 45.0362 20.4635 45.0747 19.7406C45.0747 19.7278 45.0747 19.7149 45.0747 19.7021C45.1615 18.4619 45.441 17.2764 46.0868 16.1936C46.5912 15.3487 47.2145 14.6129 48.1012 14.1567C49.4795 13.4467 50.9928 13.2475 52.5124 13.2218C55.3172 13.1768 58.1221 13.2089 60.9301 13.2121C61.3959 13.2121 61.8618 13.2635 62.3309 13.2314C62.6393 13.2089 62.7261 13.0836 62.7228 12.7848C62.71 11.4933 62.7068 10.2049 62.7261 8.91335C62.7325 8.38966 62.7357 8.21617 62.0192 8.21295C60.2554 8.20653 58.4915 8.2001 56.7309 8.21938C54.2056 8.25151 51.6739 8.08444 49.155 8.39608C47.796 8.56315 46.4787 8.89086 45.2032 9.40813C43.6257 10.0475 42.2635 10.9824 41.1679 12.2708C40.053 13.5816 39.3077 15.1077 38.8322 16.7527C38.2699 18.7029 37.9775 20.6948 37.9647 22.735C37.9454 25.2153 38.0322 27.6763 38.8225 30.0603C39.5036 32.1165 40.5735 33.9157 42.2346 35.3454C44.0691 36.9229 46.196 37.8578 48.5896 38.1598C49.5149 38.2755 50.4498 38.2916 51.3847 38.2916C54.7646 38.2916 58.1445 38.298 61.5245 38.3012C61.7365 38.3012 61.9518 38.3012 62.1638 38.2787C62.6457 38.2273 62.7357 38.1309 62.7357 37.6554C62.7357 36.4185 62.7293 35.1815 62.7164 33.9446C62.71 33.4145 62.4369 33.1542 61.9132 33.1574L61.91 33.1542Z" fill="#FDCF39"/>
<path d="M133.139 38.2883C133.624 38.2883 133.759 38.1438 133.64 37.71C133.492 37.1735 133.335 36.6209 133.058 36.1422C132.75 35.6088 132.541 35.0369 132.3 34.4811C131.786 33.302 131.372 32.0811 130.832 30.9181C130.315 29.8064 129.865 28.6659 129.341 27.5542C128.708 26.2113 128.178 24.8201 127.603 23.4482C127.05 22.1342 126.507 20.8201 125.948 19.5093C125.155 17.6491 124.345 15.7952 123.548 13.9382C122.806 12.2033 122.064 10.4684 121.344 8.72378C121.219 8.41856 121.01 8.2772 120.724 8.23864C120.461 8.2033 120.191 8.20973 119.924 8.20973C118.668 8.20973 117.412 8.21615 116.159 8.20973C115.757 8.20973 115.359 8.18403 114.957 8.23222C114.742 8.25792 114.585 8.3286 114.462 8.53744C114.087 9.18964 113.871 9.91253 113.572 10.5969C113.116 11.6475 112.666 12.7045 112.217 13.7615C111.69 14.992 111.14 16.2161 110.607 17.4466C110.154 18.4972 109.685 19.5414 109.251 20.6017C108.92 21.4113 108.586 22.2209 108.246 23.0241C107.828 24.0137 107.43 25.0129 106.964 25.9799C106.565 26.8056 106.263 27.6699 105.858 28.4956C105.479 29.2699 105.193 30.0892 104.859 30.886C104.577 31.5671 104.297 32.2482 104.001 32.9229C103.638 33.7518 103.24 34.5614 102.903 35.4C102.578 36.2032 102.167 36.9711 101.936 37.8096C101.865 38.0699 101.984 38.1502 102.183 38.253C102.469 38.4008 102.752 38.2915 103.034 38.2915C104.532 38.3012 106.026 38.298 107.523 38.298C107.947 38.298 108.313 38.2209 108.477 37.7582C108.85 36.7076 109.209 35.6538 109.624 34.6193C110.042 33.5687 110.401 32.4924 110.883 31.4675C111.005 31.2072 111.156 31.0916 111.462 31.0916C113.412 31.1044 115.362 31.098 117.521 31.098C119.555 31.1333 121.797 31.0627 124.04 31.1366C124.268 31.143 124.403 31.188 124.487 31.4193C124.756 32.1615 125.042 32.8972 125.322 33.6361C125.829 34.9695 126.347 36.2996 126.845 37.6361C127.018 38.0988 127.285 38.3108 127.815 38.3012C129.592 38.2691 131.368 38.2948 133.145 38.2851L133.139 38.2883ZM121.942 25.8771C120.512 25.8771 119.086 25.8771 117.656 25.8771C116.268 25.8771 114.88 25.8771 113.492 25.8771C113.01 25.8771 112.962 25.8097 113.136 25.3534C113.364 24.7494 113.598 24.1486 113.865 23.5575C114.032 23.1912 114.173 22.796 114.283 22.4041C114.43 21.8771 114.687 21.4016 114.877 20.894C115.593 18.9824 116.323 17.0804 117.052 15.172C117.145 14.9278 117.242 14.69 117.348 14.4523C117.393 14.3495 117.415 14.2049 117.579 14.221C117.714 14.2338 117.727 14.3559 117.772 14.4459C118.144 15.2137 118.43 16.0201 118.742 16.8169C119.291 18.2177 119.834 19.6249 120.39 21.0225C120.988 22.5294 121.592 24.033 122.205 25.5334C122.334 25.845 122.176 25.8771 121.939 25.8771H121.942Z" fill="#FDCF39"/>
<path d="M93.7426 33.5239C93.733 33.4018 93.6751 33.3536 93.553 33.405C91.3362 33.405 89.1193 33.3761 86.9025 33.4275C85.8037 33.4532 84.7242 33.405 83.6382 33.2251C80.9105 32.7753 79.423 30.793 79.3941 28.2773C79.3523 24.6501 79.3716 21.0195 79.4455 17.3922C79.5033 14.6003 79.5129 11.8083 79.5418 9.01637C79.5483 8.43806 79.3587 8.23244 78.7675 8.2228C77.8744 8.20674 76.978 8.21959 76.0848 8.21959C75.378 8.21959 74.668 8.20995 73.9611 8.22923C73.3378 8.24529 73.2897 8.31276 73.2864 8.91356C73.28 10.43 73.264 11.9497 73.264 13.4662C73.2607 16.6308 73.2479 19.7955 73.1836 22.9601C73.1515 24.5119 73.1644 26.0669 73.1836 27.6187C73.1933 28.5697 73.3089 29.5047 73.4664 30.4267C73.7684 32.1938 74.5748 33.7295 75.8085 35.05C76.6599 35.9625 77.6206 36.7207 78.7515 37.2572C79.59 37.6556 80.4671 37.9191 81.3989 38.0155C81.9547 38.0733 82.5073 38.2339 83.0631 38.2372C84.1523 38.2468 85.235 38.34 86.3274 38.3175C88.6631 38.2661 91.002 38.2886 93.3378 38.3014C93.7522 38.3014 93.8711 38.1408 93.8647 37.7617C93.8486 36.6982 93.8711 35.6348 93.8326 34.5713C93.8197 34.2275 93.8968 33.8645 93.7426 33.5271V33.5239Z" fill="#FDCF39"/>
<path d="M145.206 8.16479C142.697 8.17443 140.875 10.0668 140.875 12.5921C140.875 14.6579 142.812 16.9069 145.161 16.8491C147.564 17.0097 149.652 14.9503 149.662 12.5825C149.675 10.0925 147.824 8.15516 145.206 8.16801V8.16479Z" fill="#FDCF39"/>
<path d="M156.747 18.8732C154.369 18.886 152.348 20.6884 152.409 23.1784C152.323 25.7358 154.488 27.5896 156.576 27.5928C159.22 27.5992 161.068 25.8932 161.126 23.2073C161.177 20.8587 159.169 18.8635 156.743 18.8764L156.747 18.8732Z" fill="#FDCF39"/>
<path d="M145.598 29.8097C142.783 29.5912 140.997 31.8113 140.875 33.935C140.75 36.1486 142.655 38.5326 145.28 38.4908C147.898 38.4394 149.656 36.425 149.652 34.2209C149.649 31.7214 147.959 29.9896 145.595 29.8065L145.598 29.8097Z" fill="#FDCF39"/>
<path d="M165.032 14.9953C165.893 16.1552 167.037 16.8395 168.522 16.8716C168.631 16.9809 168.737 16.9841 168.843 16.8684C169.479 16.8652 170.044 16.621 170.603 16.3544C172.316 15.5383 173.277 13.4114 172.93 11.8307C172.685 10.7222 172.197 9.75197 171.24 9.05157C170.555 8.55037 169.81 8.31904 168.968 8.21623C167.776 8.06844 166.738 8.3833 165.868 9.12225C164.673 10.1375 163.995 11.3969 164.261 13.058C164.377 13.7809 164.612 14.4299 165.036 14.9985L165.032 14.9953Z" fill="#FDCF39"/>
<path d="M168.2 29.8161C165.957 29.9511 164.206 31.7631 164.216 34.1888C164.225 36.4828 166.086 38.4683 168.505 38.4908C171.111 38.4747 173.096 36.4506 172.974 33.9639C172.871 31.8049 171.249 29.633 168.197 29.8161H168.2Z" fill="#FDCF39"/>
<path d="M78.7543 57.3918C78.4748 56.0681 78.3141 54.722 78.0957 53.3886C77.9929 52.7621 77.8965 52.1324 77.7712 51.5091C77.6748 51.0433 77.1093 50.6192 76.7784 50.7188C76.2611 50.873 75.9848 51.2103 75.8467 51.7404C75.5639 52.8232 75.217 53.893 74.9085 54.9693C74.7415 55.5476 74.5326 56.1163 74.3977 56.6978C74.2049 57.5235 73.9383 58.33 73.7423 59.1557C73.7262 59.2199 73.6877 59.3163 73.5881 59.3163C73.4949 59.3163 73.4499 59.236 73.4178 59.1653C73.315 58.9533 73.1993 58.7412 73.1318 58.5163C72.4539 56.1838 71.7856 53.8513 71.1142 51.5188C70.9953 51.1107 70.6419 50.8023 70.2885 50.7798C69.9061 50.7573 69.5367 50.9758 69.3824 51.387C69.2604 51.7083 69.1865 52.0521 69.1286 52.3894C68.9712 53.3051 68.8491 54.2304 68.6853 55.146C68.5246 56.0553 68.319 56.9549 68.1584 57.8609C67.9816 58.8633 67.8306 59.8721 67.6764 60.8778C67.6282 61.2023 67.6636 61.5428 67.9302 61.7516C68.1005 61.8834 68.3543 61.8159 68.5696 61.7227C68.8652 61.5974 68.833 61.3019 68.8684 61.0834C69.0547 59.9139 69.2057 58.738 69.3664 57.5621C69.4563 56.9035 69.4981 56.2352 69.6363 55.5894C69.784 54.8987 69.8451 54.2015 69.9158 53.5043C69.9158 53.424 69.9158 53.3436 69.9158 53.2633C69.9158 53.0706 69.9286 52.8842 70.1792 52.8585C70.4106 52.8328 70.5005 52.9099 70.5744 53.1669C71.1913 55.3356 71.821 57.5043 72.4957 59.6569C72.6885 60.2673 72.7366 60.9324 73.1318 61.4753C73.376 61.8127 73.723 61.8255 73.9864 61.5075C74.1953 61.2537 74.2146 60.9324 74.3077 60.6368C74.6708 59.4802 75.0178 58.3203 75.3615 57.1605C75.776 55.7597 76.1776 54.3557 76.5953 52.9581C76.6306 52.8392 76.7013 52.6432 76.8651 52.6689C76.9937 52.6882 77.0322 52.8585 77.0515 52.9934C77.1318 53.5718 77.2186 54.1533 77.2957 54.7316C77.3824 55.3774 77.4595 56.0232 77.5527 56.6689C77.7037 57.726 77.8643 58.7798 78.025 59.8368C78.1021 60.3348 78.1149 60.8456 78.2659 61.3308C78.3591 61.6328 78.5583 61.7966 78.8892 61.7163C79.1977 61.6424 79.5093 61.2312 79.4354 60.9774C79.0916 59.8047 78.9985 58.587 78.7479 57.3983L78.7543 57.3918Z" fill="#FDCF39"/>
<path d="M138.266 51.3936C138.221 50.9599 138.012 50.8185 137.552 50.8603C137.18 50.8924 137.093 51.1302 137.096 51.4643C137.103 53.8836 137.103 56.306 137.096 58.7253C137.096 58.8956 137.205 59.1558 137.016 59.2233C136.807 59.3004 136.701 59.037 136.563 58.9052C136.534 58.8763 136.502 58.8538 136.479 58.8217C134.757 56.3574 133.038 53.89 131.319 51.4257C131.178 51.2233 131.04 51.0145 130.821 50.8763C130.41 50.6161 130.079 50.7703 130.028 51.249C129.758 51.4225 129.758 51.4257 129.996 51.6603C130.018 51.6282 130.034 51.596 130.044 51.5607C130.034 51.5928 130.018 51.6282 129.996 51.6603C129.999 52.9904 130.005 54.3173 130.009 55.6474C130.015 57.4562 130.012 59.2619 130.028 61.0707C130.031 61.4755 130.272 61.7229 130.581 61.7229C130.931 61.7229 131.172 61.4466 131.175 61.0289C131.181 60.2707 131.194 59.5125 131.175 58.7542C131.136 57.1928 131.287 55.6249 131.091 54.0635C131.072 53.9189 131.069 53.7647 131.104 53.6265C131.188 53.2988 131.371 53.2538 131.599 53.5044C131.724 53.6426 131.837 53.7904 131.943 53.9446C133.552 56.2546 135.162 58.5647 136.772 60.8747C136.955 61.1382 137.141 61.3984 137.405 61.588C137.797 61.8675 138.099 61.7422 138.23 61.2827C138.291 61.0707 138.278 60.8619 138.278 60.653C138.278 57.8868 138.275 55.1205 138.272 52.3542C138.272 52.0362 138.298 51.7149 138.266 51.3968V51.3936Z" fill="#FDCF39"/>
<path d="M170.983 55.5156C170.678 55.5028 170.369 55.5156 170.061 55.5156C170.061 55.5092 170.061 55.5028 170.061 55.4932C169.662 55.5124 169.261 55.5317 168.862 55.5478C168.496 55.5606 168.335 55.7534 168.355 56.1036C168.374 56.4538 168.56 56.608 168.92 56.6177C169.476 56.6337 170.032 56.547 170.588 56.6787C170.79 56.7269 170.861 56.7944 170.851 56.9871C170.835 57.3148 170.813 57.6393 170.784 57.967C170.591 60.1036 168.467 60.955 166.947 60.7237C165.698 60.5341 164.959 59.6056 164.441 58.5164C163.895 57.363 163.976 56.1325 164.143 54.9341C164.258 54.0891 164.692 53.3213 165.302 52.6916C166.279 51.6795 167.5 51.6924 168.75 51.943C169.383 52.0715 169.862 52.5309 170.401 52.8554C170.681 53.0225 170.957 52.9839 171.208 52.7815C171.388 52.6402 171.378 52.4667 171.272 52.2835C171.028 51.8594 170.617 51.5317 170.218 51.3839C169.315 51.053 168.377 50.8153 167.375 50.8442C166.029 50.8827 164.525 51.5831 163.773 52.7655C163.131 53.7711 162.825 54.8731 162.764 56.0393C162.716 56.9486 162.903 57.8385 163.249 58.6771C163.629 59.5863 164.149 60.4152 165.004 60.9678C166.167 61.7196 167.426 61.8835 168.769 61.5622C169.698 61.3405 170.51 60.9357 171.073 60.1486C171.844 59.0658 172.03 57.8064 172.04 56.5277C172.046 55.792 171.735 55.5542 170.989 55.5221L170.983 55.5156Z" fill="#FDCF39"/>
<path d="M10.0766 55.5094C9.5561 55.5319 9.03562 55.5094 8.51514 55.5094C8.38663 55.3262 8.27418 55.3519 8.17137 55.5319C7.81474 55.5576 7.65089 55.8339 7.65731 56.1038C7.66374 56.4186 7.90791 56.6146 8.26454 56.6082C8.79787 56.5985 9.3312 56.6017 9.86775 56.6082C9.99305 56.6082 10.1698 56.5632 10.1922 56.7495C10.2212 56.9937 10.3336 57.2347 10.2694 57.4885C10.1698 57.8772 10.083 58.2724 9.96734 58.658C9.72317 59.4644 9.15771 59.9816 8.41875 60.3415C7.23643 60.9166 6.07659 60.9744 5.00351 60.123C4.31596 59.5768 3.92399 58.8122 3.63162 57.9961C3.27821 57.0098 3.32319 55.9881 3.49668 55.0017C3.66375 54.054 4.10712 53.1833 4.83323 52.4957C5.85491 51.5319 8.03964 51.6604 8.91032 52.3094C9.23803 52.5536 9.62357 52.7142 9.94164 52.9648C10.279 53.2315 10.3593 52.8588 10.5392 52.7656C10.7256 52.6692 10.777 52.4989 10.642 52.2837C10.324 51.7728 9.81634 51.4708 9.30871 51.2877C8.46695 50.9857 7.58984 50.7704 6.66133 50.8475C5.58824 50.9375 4.63082 51.2363 3.82118 51.9881C2.82199 52.9166 2.34006 54.0829 2.20512 55.3841C2.03484 57.0323 2.27902 58.6098 3.34889 59.9688C3.90793 60.6788 4.5762 61.2154 5.46294 61.482C6.19226 61.7005 6.91515 61.7616 7.67016 61.6363C9.19947 61.3824 10.3914 60.7656 11.0083 58.9857C11.2236 58.3656 11.3328 57.7198 11.4035 57.0676C11.5127 56.0588 11.3039 55.4483 10.083 55.5029L10.0766 55.5094Z" fill="#FDCF39"/>
<path d="M42.6583 57.62C42.1571 56.2738 41.6334 54.9373 41.1193 53.5975C40.8269 52.8329 40.5828 52.0489 40.194 51.3228C40.0559 51.0626 39.9113 50.7574 39.5257 50.7734C39.2527 50.7831 38.9924 50.8538 38.8575 51.1076C38.6422 51.5028 38.3916 51.8979 38.2695 52.322C38.0061 53.2441 37.6237 54.1212 37.3025 55.024C36.9105 56.1228 36.4639 57.2023 36.0462 58.2915C35.7153 59.1525 35.4133 60.0264 35.0503 60.8746C34.8736 61.2826 35.0888 61.4593 35.3523 61.6489C35.6125 61.8352 35.7989 61.665 35.9691 61.4947C36.1105 61.3533 36.1908 61.1766 36.2711 60.9903C36.48 60.5019 36.5667 59.9686 36.8109 59.4899C36.9073 59.3003 36.9972 59.2264 37.2189 59.2296C38.6872 59.2489 40.1555 59.2585 41.6237 59.2489C41.9771 59.2489 42.1378 59.371 42.2663 59.6923C42.4976 60.2706 42.5972 60.9003 42.9571 61.4304C43.1563 61.726 43.4293 61.8031 43.7056 61.6746C43.9755 61.5493 43.998 61.2891 43.9081 60.9871C43.5546 59.8401 43.0759 58.7413 42.6615 57.62H42.6583ZM41.4245 58.2079C40.7691 58.1951 40.1169 58.2047 39.4615 58.2047C38.8189 58.2047 38.1796 58.2047 37.537 58.2047C37.3731 58.2047 37.2318 58.2112 37.3185 57.9766C37.9482 56.2353 38.5715 54.4907 39.198 52.7461C39.2591 52.5758 39.3201 52.4409 39.5514 52.4505C39.7956 52.4602 39.7731 52.6433 39.8181 52.7815C40.3932 54.4843 41.0069 56.1742 41.6559 57.8513C41.7555 58.1051 41.7298 58.2144 41.4213 58.2079H41.4245Z" fill="#FDCF39"/>
<path d="M104.856 50.812C104.603 50.947 104.342 50.7189 104.121 50.8699C103.873 51.0369 103.979 51.3132 103.944 51.5413C103.918 51.7084 103.944 51.8851 103.944 52.0586C103.941 54.9309 103.938 57.8032 103.931 60.6755C103.783 60.7815 103.783 60.8875 103.931 60.9903C103.944 61.0546 103.96 61.122 103.966 61.1863C103.999 61.5236 104.249 61.6971 104.516 61.7678C104.725 61.8257 105.033 61.3437 105.04 61.0353C105.046 60.7718 105.065 60.5052 105.065 60.2417C105.065 57.5943 105.065 54.947 105.065 52.3028C105.065 51.9333 105.046 51.5606 105.036 51.1911C105.036 51.0273 104.93 50.7735 104.856 50.812Z" fill="#FDCF39"/>
</svg>
