<svg width="175" height="70" viewBox="0 0 175 70" fill="none" xmlns="http://www.w3.org/2000/svg">
<path d="M172.904 28.1904C172.932 28.2085 172.953 28.255 172.999 28.224V28.1593C172.953 28.1257 172.935 28.1723 172.904 28.1904Z" fill="#FDCF39"/>
<path d="M172.998 25.5251V25.4597C172.961 25.4806 172.94 25.5016 172.998 25.5251Z" fill="#FDCF39"/>
<path d="M115.932 43.7317C115.134 42.5744 114.328 41.4198 113.527 40.2651C112.538 38.84 111.555 37.4149 110.565 35.9897C109.73 34.7909 108.887 33.5946 108.055 32.3957C107.02 30.9056 105.993 29.4128 104.96 27.9227C104.183 26.7992 103.402 25.681 102.625 24.5575C102.57 24.4795 102.534 24.3677 102.422 24.3755C102.123 24.3911 101.832 24.2532 101.53 24.3209C101.379 24.3183 101.228 24.3105 101.078 24.3105C74.9129 24.3105 48.7457 24.3105 22.5811 24.3105C15.9288 24.3079 9.27647 24.3026 2.62414 24.3C2.20805 24.3 2 24.5012 2 24.9034C2 29.6235 2 34.3436 2.0052 39.0636C2.0052 41.2897 2.0208 43.5159 2.0182 45.742C2.0182 45.9682 2.07282 46.0358 2.30427 46.0228C2.68136 45.9994 3.06104 46.0098 3.44073 46.0098C13.479 46.0098 23.5147 46.0098 33.553 46.0098C52.4386 46.0098 71.3241 46.0098 90.2096 46.0098C90.6517 46.0098 91.0964 46.0098 91.5385 46.0046C91.8636 46.0228 92.1601 46.0566 92.3889 45.703C93.0339 44.7069 93.7178 43.7343 94.3914 42.7565C94.5006 42.6004 94.5474 42.3794 94.7841 42.3352C94.8595 42.3378 94.9349 42.343 95.0103 42.343C99.5068 42.343 104.003 42.343 108.5 42.343C108.648 42.343 108.804 42.3144 108.931 42.4236C109.077 42.6187 109.23 42.8111 109.366 43.0139C109.977 43.932 110.588 44.8474 111.259 45.7238C111.423 45.937 111.581 46.0202 111.841 46.0202C113.592 46.0098 115.344 46.0124 117.097 46.0098C117.188 46.0098 117.303 46.0566 117.365 45.9604C117.433 45.8564 117.326 45.7732 117.282 45.7056C116.842 45.0424 116.392 44.3819 115.94 43.7265L115.932 43.7317ZM79.0271 40.8164C79.0323 36.4526 79.0375 32.0862 79.0323 27.7224C79.0323 27.4624 79.1259 27.4234 79.3496 27.4234C85.0475 27.4234 90.7454 27.4182 96.4433 27.4156C96.6903 27.4156 96.94 27.439 97.187 27.452C97.1714 27.7953 96.888 27.9903 96.7293 28.253C96.3289 28.9161 95.8868 29.5585 95.4629 30.2086C95.4082 30.2944 95.3276 30.3412 95.234 30.3724C95.1898 30.4115 95.1586 30.4505 95.1378 30.4947C95.1586 30.4531 95.1924 30.4115 95.234 30.3724C91.8532 30.3646 88.4698 30.3568 85.0891 30.3516C84.2465 30.3516 83.4039 30.362 82.5613 30.3594C82.4105 30.3594 82.3792 30.4193 82.3818 30.5493C82.3844 31.4699 82.387 32.3879 82.3818 33.3085C82.3818 33.4932 82.4703 33.5192 82.6211 33.5192C83.1386 33.514 83.6587 33.514 84.1763 33.514C86.6078 33.514 89.042 33.514 91.4735 33.514C91.6036 33.514 91.731 33.501 91.861 33.4958C92.2381 33.5088 92.6152 33.5296 92.9897 33.5296C93.1379 33.5296 93.2315 33.5972 93.1275 33.7038C92.844 34.0003 92.7322 34.393 92.4826 34.7102C92.1263 35.1653 91.7934 35.6465 91.5255 36.1666C91.4085 36.3876 91.2031 36.385 90.9898 36.385C88.2436 36.3824 85.4974 36.3876 82.7485 36.372C82.4209 36.372 82.3662 36.4656 82.374 36.7621C82.3949 37.7035 82.3923 38.6449 82.3766 39.5864C82.3714 39.8464 82.4287 39.9322 82.7095 39.9296C84.4389 39.9166 86.1709 39.9192 87.9003 39.9244C88.2436 39.9244 88.5843 39.9608 88.9276 39.9816C88.8547 40.3379 88.5661 40.5668 88.397 40.8658C88.0511 41.4848 87.5362 41.9945 87.2294 42.6395C87.1826 42.7383 87.0681 42.8059 86.9849 42.8865C86.8783 42.8917 86.7743 42.8943 86.6676 42.8995C86.3842 42.8995 86.0981 42.8995 85.8146 42.8995C85.7964 42.8995 85.7756 42.8995 85.7574 42.8995C83.9474 42.8943 82.1374 42.8891 80.3248 42.8839C80.0985 42.8839 79.8723 42.8917 79.646 42.8969C79.5758 42.8813 79.503 42.8501 79.4536 42.9333C79.0245 42.9307 79.0271 42.9307 79.0245 42.5146C79.0245 42.3118 79.0115 42.1089 79.0037 41.9087C79.0115 41.5446 79.0245 41.1831 79.0245 40.819L79.0271 40.8164ZM49.5961 42.8163C49.5701 42.9047 49.4895 42.8657 49.4323 42.8709C49.2919 42.8813 49.1514 42.8839 49.0136 42.8891C48.7145 42.8969 48.4155 42.9021 48.1164 42.9099C48.067 42.9099 48.0202 42.9099 47.9708 42.9099C47.9525 42.8917 47.9343 42.8917 47.9187 42.9099C47.3544 42.8683 46.7875 42.8839 46.2232 42.8969C46.2049 42.8813 46.1841 42.8787 46.1607 42.8891C45.9995 42.8553 45.8955 42.7383 45.8123 42.6187C45.2739 41.8515 44.7408 41.0765 44.2155 40.3015C44.1609 40.2209 44.1089 40.1507 44.0178 40.1143L43.997 40.0935L43.9736 40.1065C43.6616 40.0675 43.3495 40.0623 43.0348 40.0961L43.014 40.0805L42.9906 40.0961C42.9178 40.0675 42.845 40.0701 42.7722 40.0961H42.6707C42.5979 40.0701 42.5225 40.0675 42.4497 40.0961L42.4289 40.0805L42.4107 40.0961C42.3353 40.0883 42.2624 40.0753 42.187 40.0753C39.3238 40.0727 36.4579 40.0675 33.5947 40.0675C33.54 40.0675 33.488 40.0779 33.4334 40.0831C33.4126 40.0935 33.3944 40.1013 33.3762 40.1117C33.2358 40.1117 33.0953 40.1013 32.9575 40.1117C32.7469 40.1325 32.5726 40.1949 32.44 40.4029C31.9797 41.1207 31.483 41.8151 31.0253 42.5328C30.8562 42.7955 30.6586 42.9151 30.3491 42.8865C30.1905 42.8709 30.0266 42.8943 29.868 42.9021C29.8056 42.9021 29.7458 42.9021 29.6834 42.9021H29.4805C29.4623 42.8865 29.4415 42.8865 29.4233 42.9021C28.9448 42.8735 28.4663 42.8761 27.9878 42.9021H27.8681C27.8213 42.9021 27.7771 42.9021 27.7303 42.8969C27.7199 42.9073 27.7095 42.9177 27.6965 42.9229C27.7069 42.9177 27.7173 42.9099 27.7303 42.8969C27.6887 42.8969 27.6471 42.8917 27.6055 42.8917C27.5431 42.8917 27.4754 42.8813 27.4182 42.8995C27.3272 42.9307 27.3142 42.8501 27.2674 42.8189C27.1894 42.7617 27.27 42.7331 27.2986 42.7019C27.8343 42.0829 28.2218 41.3626 28.6873 40.6968C29.6391 39.3419 30.539 37.9532 31.4648 36.5853C32.1565 35.5632 32.8587 34.5516 33.553 33.5296C34.8741 31.5869 36.19 29.6417 37.5085 27.699C37.584 27.5872 37.6724 27.478 37.7322 27.3584C37.9793 26.8616 38.6372 26.8824 38.9441 27.3479C39.5292 28.24 40.1534 29.1086 40.7619 29.9876C41.9998 31.7768 43.2377 33.566 44.4755 35.3578C45.5626 36.9311 46.6262 38.5175 47.7393 40.0701C48.3504 40.9231 48.9122 41.8125 49.5519 42.6447C49.5935 42.6993 49.6247 42.7539 49.6039 42.8189L49.5961 42.8163ZM16.1004 27.1581C17.9937 27.1295 19.8661 27.2959 21.6917 27.8265C22.0194 27.9669 22.3601 28.0709 22.6877 28.2139C23.4679 28.5546 24.1831 28.9889 24.8358 29.5272C24.9919 29.6547 25.0153 29.7665 24.8696 29.9433C24.3833 30.5285 23.9152 31.1292 23.4471 31.73C23.2053 32.0394 23.1403 32.0576 22.849 31.769C22.126 31.0538 21.2392 30.6481 20.264 30.401C20.0351 30.3022 19.7985 30.2346 19.5488 30.2242C19.385 30.1384 19.2081 30.1488 19.0313 30.1462C18.6698 29.998 18.2823 30.0604 17.9079 30.0136C17.0054 29.8991 16.103 29.9485 15.2006 29.9772C15.12 29.9928 15.0368 30.0136 14.9562 30.0188C14.0356 30.076 13.1384 30.258 12.2854 30.6039C10.9617 31.1422 10.015 32.0576 9.59114 33.4281C9.28687 34.4138 9.30508 35.4306 9.49492 36.4344C9.73417 37.6801 10.4207 38.6605 11.5 39.3289C12.5844 40.0025 13.8171 40.2625 15.0732 40.3483C15.999 40.4107 16.9326 40.3535 17.861 40.3483C18.1341 40.2547 18.4254 40.2781 18.7062 40.2417C19.8739 40.0961 20.9792 39.771 22.022 39.2327C22.1728 39.1547 22.2639 39.074 22.2613 38.8998C22.256 38.2783 22.2482 37.6593 22.2586 37.0378C22.2613 36.8297 22.204 36.7673 21.983 36.7699C19.6581 36.7803 17.3331 36.7803 15.0082 36.7829C14.9874 36.7751 14.9666 36.7673 14.9432 36.7621C14.9328 36.7413 14.9224 36.7231 14.912 36.7023C14.9068 36.6347 14.9016 36.5671 14.8964 36.4994L14.9146 36.476L14.9016 36.45C14.9302 36.255 14.9354 36.0625 14.899 35.8675C14.9094 35.3006 14.9276 34.7336 14.925 34.1693C14.925 33.9951 14.9562 33.9535 15.1434 33.9327C15.908 33.8468 16.6752 33.8963 17.4397 33.891C19.1587 33.8754 20.8777 33.878 22.5967 33.8728C23.5251 33.9067 24.4536 33.8598 25.3794 33.9587C25.3924 33.9301 25.4054 33.9041 25.4236 33.878C25.408 33.9041 25.3924 33.9301 25.3794 33.9587C25.3846 35.506 25.3872 37.0534 25.3924 38.6007C25.3924 38.7178 25.4002 38.8348 25.4054 38.9518C25.4002 39.2613 25.3586 39.576 25.395 39.8802C25.4522 40.3431 25.2467 40.6292 24.8931 40.8867C23.5303 41.8801 22.0116 42.486 20.3576 42.8137C19.4656 42.9905 18.5684 43.0608 17.666 43.1388C16.9014 43.2064 16.1368 43.157 15.3749 43.1908C15.1824 43.1986 15.0056 43.0738 14.8079 43.1362C13.18 42.9203 11.5624 42.6733 10.0827 41.8983C9.78879 41.724 9.48972 41.5576 9.20105 41.3756C7.85394 40.5304 6.93853 39.3419 6.3456 37.8882C6.17916 37.4799 6.13755 37.0404 5.97111 36.6373C5.95031 36.2732 5.9217 35.9117 5.9139 35.545C5.9009 34.9209 5.96591 34.3045 5.97371 33.683C5.99972 33.6388 6.04393 33.5946 6.04913 33.5478C6.15055 32.7806 6.48083 32.0914 6.86572 31.4387C7.6537 30.1046 8.81356 29.1372 10.1789 28.435C11.6846 27.66 13.3308 27.3636 15.003 27.1867C15.3697 27.2283 15.7338 27.1659 16.0978 27.1607L16.1004 27.1581ZM63.798 39.8386C63.5873 39.9842 63.3481 39.9868 63.1062 39.9738C63.0828 39.8802 62.9814 39.914 62.9268 39.8646C61.8345 38.879 60.7397 37.896 59.6474 36.9077C58.5344 35.8987 57.4265 34.8871 56.3187 33.8728C56.2276 33.7896 56.1288 33.696 56.0118 33.761C55.9182 33.813 55.9676 33.9249 55.9988 34.0185C56.0196 34.0835 55.9988 34.1615 55.9988 34.2343C56.0066 34.9495 56.0144 35.6647 56.0222 36.3824C55.9936 36.4474 55.9962 36.5125 56.0222 36.5749C55.991 36.6815 55.9936 36.7881 56.0222 36.8947C56.0144 37.9168 56.0014 38.9388 56.004 39.9608C56.0066 40.8242 55.9676 41.685 56.0274 42.5484C56.0378 42.7825 55.9468 42.8943 55.6893 42.8787C55.4579 42.8631 55.2212 42.8891 54.9872 42.8969C54.9456 42.8969 54.9065 42.8969 54.8649 42.8969C54.8181 42.8969 54.7739 42.8969 54.7271 42.8969C54.6855 42.8969 54.6465 42.8969 54.6049 42.8969C54.103 42.8969 53.601 42.8319 53.0965 42.9229C52.7558 42.9853 52.6414 42.8033 52.6596 42.291C52.7454 42.1765 52.6882 42.0517 52.6882 41.9321C52.6882 37.5137 52.6882 33.0927 52.6882 28.6743C52.6882 28.2504 52.7012 27.8265 52.6908 27.4026C52.6856 27.2257 52.7558 27.1893 52.9171 27.1919C53.1823 27.1997 53.4528 27.1711 53.6869 27.3375C53.9729 27.7328 54.3838 28.0059 54.7453 28.3154C55.7517 29.1814 56.6984 30.1098 57.6944 30.9862C58.2327 31.4595 58.7658 31.9354 59.2859 32.4295C59.9751 33.0849 60.6955 33.7116 61.408 34.341C62.0036 34.8637 62.5913 35.3916 63.1582 35.9481C63.2597 36.0495 63.4001 36.112 63.5093 35.9689C63.6784 35.7427 63.9202 35.597 64.1179 35.402C64.9839 34.5542 65.8421 33.696 66.7445 32.8846C67.6287 32.0914 68.4869 31.2696 69.3555 30.4583C70.2969 29.5793 71.2305 28.6899 72.1511 27.7874C72.3435 27.5976 72.627 27.491 72.718 27.2023C73.7999 27.1529 73.636 27.1685 73.636 28.0527C73.636 32.7546 73.636 37.4565 73.6438 42.1557C73.6438 42.3456 73.5398 42.5432 73.6646 42.7305C73.6126 42.8657 73.5372 42.9645 73.3682 42.9229C73.3552 42.8917 73.3422 42.8605 73.3006 42.8787C73.0821 42.8813 72.8637 42.8839 72.6452 42.8865C72.6036 42.8865 72.5646 42.8865 72.523 42.8865C72.4762 42.8865 72.4294 42.8865 72.3852 42.8865C72.3461 42.8865 72.3045 42.8865 72.2655 42.8865C71.8182 42.8787 71.3683 42.8709 70.921 42.8631C70.5292 42.8562 70.3229 42.662 70.3021 42.2806C70.3645 42.0803 70.3229 41.8775 70.3229 41.6772C70.3229 40.0883 70.3229 38.5019 70.3229 36.9129C70.3229 36.7959 70.3125 36.6789 70.3099 36.5619L70.3047 34.1849C70.3047 34.0549 70.3853 33.8702 70.2449 33.813C70.068 33.7402 69.9562 33.9197 69.8496 34.0393C69.8106 34.0835 69.7794 34.1381 69.7429 34.1901C69.5427 34.2525 69.5011 34.4788 69.3347 34.5802C69.2904 34.5724 69.2748 34.5984 69.2644 34.6322C69.2254 34.679 69.1838 34.7258 69.1448 34.7753C69.1266 34.7935 69.1058 34.8117 69.0876 34.8299L68.4947 35.3474C68.4531 35.3396 68.4348 35.363 68.427 35.3994C66.9343 36.8167 65.4416 38.234 63.9514 39.6514C63.9072 39.6462 63.889 39.6722 63.8786 39.7086C63.8162 39.7268 63.8136 39.7814 63.8006 39.8308L63.798 39.8386ZM105.192 37.5995C102.875 37.7243 100.555 37.6229 98.2351 37.6541C98.1233 37.6541 98.0192 37.6541 97.9594 37.5371C98.3027 37.0066 98.6408 36.4708 98.9919 35.9455C99.5744 35.0691 100.16 34.1953 100.755 33.3267C100.997 32.9704 101.275 32.6376 101.517 32.2813C101.668 32.0602 101.769 32.107 101.897 32.2917C102.3 32.8768 102.706 33.4567 103.109 34.0393C103.925 35.2226 104.739 36.4084 105.556 37.5943C105.532 37.6177 105.509 37.6385 105.486 37.6619C105.465 37.6619 105.447 37.6645 105.428 37.6749C105.358 37.6203 105.285 37.5943 105.192 37.5995Z" fill="#FDCF39"/>
<path d="M172.742 25.1528C172.742 25.0592 172.779 24.9214 172.602 24.9292C172.186 24.9474 171.767 24.8771 171.351 24.9396C171.302 24.8927 171.247 24.9005 171.19 24.9266C171.14 24.9266 171.091 24.9266 171.042 24.9266C171.005 24.9266 170.966 24.9266 170.93 24.9266C170.774 24.8953 170.618 24.8979 170.462 24.924C170.443 24.9058 170.425 24.9058 170.407 24.924H170.267C170.228 24.924 170.189 24.924 170.15 24.924C170.079 24.924 170.012 24.924 169.941 24.924C169.923 24.9084 169.905 24.9084 169.887 24.924C169.819 24.924 169.749 24.924 169.681 24.924C169.663 24.9084 169.645 24.9084 169.627 24.924C169.559 24.924 169.489 24.924 169.421 24.924C169.403 24.9084 169.385 24.9084 169.367 24.924C169.299 24.924 169.229 24.924 169.161 24.924C169.143 24.9084 169.125 24.9084 169.107 24.924C169.039 24.924 168.969 24.924 168.901 24.924C168.883 24.9084 168.865 24.9084 168.847 24.924C168.779 24.924 168.709 24.924 168.641 24.924C168.623 24.9084 168.605 24.9084 168.587 24.924C168.519 24.924 168.449 24.924 168.381 24.924C168.363 24.9084 168.345 24.9084 168.327 24.924C168.259 24.924 168.189 24.924 168.121 24.924C168.103 24.9084 168.085 24.9084 168.066 24.924C167.999 24.924 167.929 24.924 167.861 24.924C167.843 24.9084 167.825 24.9084 167.806 24.924C167.739 24.924 167.669 24.924 167.601 24.924C167.583 24.9084 167.565 24.9084 167.546 24.924C167.479 24.924 167.409 24.924 167.341 24.924C167.323 24.9084 167.304 24.9084 167.286 24.924C167.219 24.924 167.148 24.924 167.081 24.924C167.063 24.9084 167.044 24.9084 167.026 24.924C166.959 24.924 166.888 24.924 166.821 24.924C166.803 24.9084 166.784 24.9084 166.766 24.924C166.699 24.924 166.628 24.924 166.561 24.924C166.543 24.9084 166.524 24.9084 166.506 24.924C166.438 24.924 166.368 24.924 166.301 24.924C166.282 24.9084 166.264 24.9084 166.246 24.924C166.178 24.924 166.108 24.924 166.041 24.924C166.022 24.9084 166.004 24.9084 165.986 24.924C165.918 24.924 165.848 24.924 165.781 24.924C165.762 24.9084 165.744 24.9084 165.726 24.924C165.658 24.924 165.588 24.924 165.52 24.924C165.502 24.9084 165.484 24.9084 165.466 24.924C165.398 24.924 165.328 24.924 165.26 24.924C165.242 24.9084 165.224 24.9084 165.206 24.924C165.138 24.924 165.068 24.924 165 24.924C164.982 24.9084 164.964 24.9084 164.946 24.924C164.878 24.924 164.808 24.924 164.74 24.924C164.722 24.9084 164.704 24.9084 164.686 24.924C164.618 24.924 164.548 24.924 164.48 24.924C164.462 24.9084 164.444 24.9084 164.426 24.924C164.358 24.924 164.288 24.924 164.22 24.924C164.202 24.9084 164.184 24.9084 164.166 24.924C164.098 24.924 164.028 24.924 163.96 24.924C163.942 24.9084 163.924 24.9084 163.906 24.924C163.838 24.924 163.768 24.924 163.7 24.924C163.682 24.9084 163.664 24.9084 163.645 24.924C163.578 24.924 163.508 24.924 163.44 24.924C163.422 24.9084 163.404 24.9084 163.385 24.924C163.318 24.924 163.248 24.924 163.18 24.924C163.162 24.9084 163.144 24.9084 163.125 24.924C163.058 24.924 162.987 24.924 162.92 24.924C162.902 24.9084 162.883 24.9084 162.865 24.924C162.798 24.924 162.727 24.924 162.66 24.924C162.642 24.9084 162.623 24.9084 162.605 24.924C162.538 24.924 162.467 24.924 162.4 24.924C162.382 24.9084 162.363 24.9084 162.345 24.924C162.278 24.924 162.207 24.924 162.14 24.924C162.121 24.9084 162.103 24.9084 162.085 24.924C162.017 24.924 161.947 24.924 161.88 24.924C161.861 24.9084 161.843 24.9084 161.825 24.924C161.757 24.924 161.687 24.924 161.62 24.924C161.601 24.9084 161.583 24.9084 161.565 24.924C161.497 24.924 161.427 24.924 161.36 24.924C161.341 24.9084 161.323 24.9084 161.305 24.924C161.237 24.924 161.167 24.924 161.099 24.924C161.081 24.9084 161.063 24.9084 161.045 24.924C160.977 24.924 160.907 24.924 160.839 24.924C160.821 24.9084 160.803 24.9084 160.785 24.924C160.717 24.924 160.647 24.924 160.579 24.924C160.561 24.9084 160.543 24.9084 160.525 24.924C160.457 24.924 160.387 24.924 160.319 24.924C160.301 24.9084 160.283 24.9084 160.265 24.924C160.197 24.924 160.127 24.924 160.059 24.924C160.041 24.9084 160.023 24.9084 160.005 24.924C159.937 24.924 159.867 24.924 159.799 24.924C159.781 24.9084 159.763 24.9084 159.745 24.924C159.677 24.924 159.607 24.924 159.539 24.924C159.521 24.9084 159.503 24.9084 159.484 24.924C159.417 24.924 159.347 24.924 159.279 24.924C159.261 24.9084 159.243 24.9084 159.224 24.924C159.157 24.924 159.087 24.924 159.019 24.924C159.001 24.9084 158.983 24.9084 158.964 24.924C158.918 24.924 158.871 24.924 158.824 24.924C158.785 24.924 158.746 24.924 158.707 24.924C158.572 24.8979 158.439 24.8979 158.304 24.924C158.265 24.924 158.226 24.924 158.187 24.924C158.119 24.924 158.049 24.924 157.981 24.924C157.963 24.9084 157.945 24.9084 157.924 24.924C157.857 24.924 157.789 24.924 157.721 24.924C157.703 24.9084 157.682 24.9084 157.664 24.924C157.531 24.924 157.399 24.924 157.266 24.924C157.227 24.924 157.188 24.924 157.149 24.924C157.079 24.924 157.011 24.924 156.941 24.9266C156.923 24.9084 156.905 24.9084 156.889 24.9266C156.733 24.8979 156.58 24.8979 156.424 24.9266C156.405 24.9084 156.387 24.9084 156.369 24.9266C156.213 24.8979 156.059 24.9005 155.903 24.9266C155.885 24.911 155.867 24.911 155.849 24.9266C155.802 24.9266 155.755 24.9266 155.708 24.9266C155.669 24.9266 155.63 24.9266 155.591 24.9266H155.383C155.365 24.9084 155.347 24.9084 155.329 24.9266C155.261 24.9266 155.191 24.9266 155.123 24.9266C155.105 24.911 155.087 24.911 155.069 24.9266C155.001 24.9266 154.931 24.9266 154.863 24.9266C154.845 24.911 154.827 24.911 154.809 24.9266C154.741 24.9266 154.671 24.9266 154.603 24.9266C154.585 24.911 154.567 24.911 154.549 24.9266C154.481 24.9266 154.411 24.9266 154.343 24.9266C154.325 24.911 154.307 24.911 154.289 24.9266C154.221 24.9266 154.151 24.9266 154.083 24.9266C154.065 24.911 154.047 24.911 154.028 24.9266C153.961 24.9266 153.891 24.9266 153.823 24.9266C153.805 24.911 153.787 24.911 153.768 24.9266C153.701 24.9266 153.631 24.9266 153.563 24.9266C153.545 24.911 153.527 24.911 153.508 24.9266C153.441 24.9266 153.37 24.9266 153.303 24.9266C153.285 24.911 153.266 24.911 153.248 24.9266C153.181 24.9266 153.11 24.9266 153.043 24.9266C153.025 24.911 153.006 24.911 152.988 24.9266C152.921 24.9266 152.85 24.9266 152.783 24.9266C152.765 24.911 152.746 24.911 152.728 24.9266C152.661 24.9266 152.59 24.9266 152.523 24.9266C152.504 24.911 152.486 24.911 152.468 24.9266C152.4 24.9266 152.33 24.9266 152.263 24.9266C152.244 24.911 152.226 24.911 152.208 24.9266C152.14 24.9266 152.07 24.9266 152.003 24.9266C151.984 24.911 151.966 24.911 151.948 24.9266C151.88 24.9266 151.81 24.9266 151.743 24.9266C151.724 24.911 151.706 24.911 151.688 24.9266C151.62 24.9266 151.55 24.9266 151.482 24.9266C151.464 24.911 151.446 24.911 151.428 24.9266C151.36 24.9266 151.29 24.9266 151.222 24.9266C151.204 24.911 151.186 24.911 151.168 24.9266C151.1 24.9266 151.03 24.9266 150.962 24.9266C150.944 24.911 150.926 24.911 150.908 24.9266C150.84 24.9266 150.77 24.9266 150.702 24.9266C150.684 24.911 150.666 24.911 150.648 24.9266C150.58 24.9266 150.51 24.9266 150.442 24.9266C150.424 24.911 150.406 24.911 150.388 24.9266C150.341 24.9266 150.294 24.9266 150.247 24.9266H150.13C150.06 24.9266 149.992 24.9266 149.922 24.9266C149.904 24.911 149.886 24.911 149.867 24.9266C149.113 24.9162 148.357 24.9058 147.602 24.8979C147.449 24.8979 147.358 24.95 147.366 25.1216C147.381 25.4077 147.387 25.6963 147.397 25.985C147.392 27.0877 147.387 28.1877 147.381 29.2904C147.381 29.7507 147.376 29.7533 147.855 29.7559C149.132 29.7559 150.406 29.7559 151.683 29.7559C153.488 29.7507 155.295 29.7403 157.1 29.7325C157.279 29.7325 157.422 29.7117 157.42 29.9899C157.409 33.779 157.412 37.5655 157.412 41.3545C157.412 42.7875 157.412 44.223 157.417 45.6559C157.417 45.825 157.349 46.0408 157.682 46.0356C159.25 46.0226 160.819 46.0278 162.387 46.0304C162.621 46.0304 162.714 45.9368 162.717 45.7079C162.725 44.9798 162.751 44.2542 162.751 43.526C162.753 39.5887 162.751 35.6514 162.751 31.7115C162.751 31.1862 162.761 30.6635 162.743 30.1382C162.733 29.8391 162.831 29.7429 163.146 29.7455C165.45 29.7585 167.752 29.7559 170.056 29.7533C170.846 29.7533 171.634 29.7429 172.425 29.7377C172.576 29.7377 172.719 29.7611 172.714 29.5192C172.698 28.5362 172.703 27.5506 172.701 26.5675C172.706 26.0994 172.714 25.6339 172.714 25.1658L172.742 25.1528Z" fill="#FDCF39"/>
<path d="M145.927 45.3804C145.919 45.3674 145.888 45.3674 145.867 45.3622C145.756 45.2114 145.638 45.0631 145.514 44.9201C144.26 43.4638 142.913 42.0906 141.636 40.6551C140.892 39.8177 140.115 39.0037 139.345 38.1898C139.166 38.0025 139.251 37.9115 139.436 37.8673C140.331 37.6566 141.134 37.2431 141.925 36.7958C142.185 36.6476 142.448 36.476 142.663 36.2887C142.864 36.1145 143.033 35.8622 143.215 35.649C143.961 34.7778 144.382 33.7713 144.562 32.6557C144.663 32.1642 144.637 31.6675 144.629 31.1733C144.624 30.7625 144.59 30.349 144.44 29.9563C144.336 29.3217 144.096 28.7418 143.74 28.2035C143.381 27.6599 142.913 27.2438 142.398 26.8382C141.79 26.357 141.139 26.0164 140.411 25.7927C140.307 25.7459 140.203 25.6939 140.097 25.6549C139.644 25.491 139.176 25.387 138.705 25.2934C137.897 25.1348 137.088 24.9631 136.256 25.0203C136.193 24.9865 136.136 24.9449 136.055 24.9397C135.062 24.8773 134.066 24.8825 133.07 24.9163C133.052 24.8981 133.033 24.9007 133.015 24.9163C132.948 24.9163 132.877 24.9163 132.81 24.9163C132.792 24.8981 132.773 24.9007 132.755 24.9163C132.688 24.9163 132.617 24.9163 132.55 24.9163C132.531 24.9007 132.513 24.9007 132.495 24.9163C132.427 24.9163 132.357 24.9163 132.29 24.9163C132.271 24.9007 132.253 24.9007 132.235 24.9163C132.167 24.9163 132.097 24.9163 132.03 24.9163C132.011 24.9007 131.993 24.9007 131.975 24.9163C131.907 24.9163 131.837 24.9163 131.77 24.9163C131.751 24.9007 131.733 24.9007 131.715 24.9163C131.647 24.9163 131.577 24.9163 131.509 24.9163C131.491 24.9007 131.473 24.9007 131.455 24.9163C131.387 24.9163 131.317 24.9163 131.249 24.9163C131.231 24.9007 131.213 24.9007 131.195 24.9163C131.127 24.9163 131.057 24.9163 130.989 24.9163C130.971 24.9007 130.953 24.9007 130.935 24.9163C130.867 24.9163 130.797 24.9163 130.729 24.9163C130.711 24.9007 130.693 24.9007 130.675 24.9163C130.607 24.9163 130.537 24.9163 130.469 24.9163C130.451 24.9007 130.433 24.9007 130.415 24.9163C130.347 24.9163 130.277 24.9163 130.209 24.9163C130.191 24.9007 130.173 24.9007 130.155 24.9163C130.087 24.9163 130.017 24.9163 129.949 24.9163C129.931 24.9007 129.913 24.9007 129.894 24.9163C129.827 24.9163 129.757 24.9163 129.689 24.9163C129.671 24.9007 129.653 24.9007 129.634 24.9163C129.567 24.9163 129.497 24.9163 129.429 24.9163C129.411 24.9007 129.393 24.9007 129.374 24.9163C129.307 24.9163 129.237 24.9163 129.169 24.9163C129.151 24.9007 129.133 24.9007 129.114 24.9163C129.047 24.9163 128.976 24.9163 128.909 24.9163C128.891 24.9007 128.872 24.9007 128.854 24.9163C128.787 24.9163 128.716 24.9163 128.649 24.9163C128.631 24.9007 128.612 24.9007 128.594 24.9163C128.527 24.9163 128.456 24.9163 128.389 24.9163C128.371 24.9007 128.352 24.9007 128.334 24.9163C128.267 24.9163 128.196 24.9163 128.129 24.9163C128.11 24.9007 128.092 24.9007 128.074 24.9163C128.006 24.9163 127.936 24.9163 127.869 24.9163C127.85 24.9007 127.832 24.9007 127.814 24.9163C127.767 24.9163 127.72 24.9163 127.674 24.9163C127.635 24.9163 127.596 24.9163 127.557 24.9163C127.421 24.8903 127.289 24.8903 127.153 24.9163C127.114 24.9163 127.075 24.9163 127.036 24.9163C126.969 24.9163 126.899 24.9163 126.831 24.9163C126.813 24.9007 126.795 24.9007 126.776 24.9163C126.709 24.9163 126.641 24.9163 126.574 24.9163C126.555 24.9007 126.537 24.9007 126.516 24.9163C126.384 24.9163 126.251 24.9163 126.116 24.9163H125.999C125.929 24.9163 125.861 24.9189 125.791 24.9215C125.773 24.9033 125.754 24.9033 125.739 24.9215C125.583 24.8929 125.429 24.8929 125.273 24.9215C125.255 24.9033 125.237 24.9033 125.219 24.9215C125.063 24.8929 124.909 24.8955 124.753 24.9215C124.735 24.9059 124.717 24.9059 124.698 24.9215C124.652 24.9215 124.605 24.9215 124.558 24.9215C124.519 24.9215 124.48 24.9215 124.441 24.9215C124.371 24.9215 124.303 24.9215 124.233 24.9215C124.215 24.9059 124.197 24.9059 124.178 24.9215C124.111 24.9215 124.041 24.9215 123.973 24.9215C123.955 24.9059 123.937 24.9059 123.918 24.9215C123.851 24.9215 123.78 24.9215 123.713 24.9215C123.695 24.9059 123.676 24.9059 123.658 24.9215C123.591 24.9215 123.52 24.9215 123.453 24.9215C123.435 24.9059 123.416 24.9059 123.398 24.9215C123.331 24.9215 123.26 24.9215 123.193 24.9215C123.175 24.9059 123.156 24.9059 123.138 24.9215C123.071 24.9215 123 24.9215 122.933 24.9215C122.914 24.9059 122.896 24.9059 122.878 24.9215C122.831 24.9215 122.784 24.9215 122.738 24.9215C122.699 24.9215 122.66 24.9215 122.621 24.9215C122.55 24.9215 122.483 24.9215 122.413 24.9215C122.394 24.9059 122.376 24.9059 122.358 24.9215C122.116 24.8929 121.877 24.8955 121.635 24.9189C121.617 24.9033 121.599 24.9033 121.578 24.9189C121.229 24.9189 120.881 24.9189 120.532 24.9163C120.491 24.8929 120.483 24.9267 120.467 24.9527C120.272 25.0333 120.08 24.7863 119.882 24.9475C119.872 24.9709 119.859 24.9917 119.848 25.0151C119.841 25.4026 119.815 25.7901 119.867 26.1776C119.859 26.2296 119.846 26.2816 119.846 26.3362C119.867 32.8091 119.804 39.2846 119.874 45.7575C119.877 45.9993 119.971 46.0332 120.181 46.0332C121.739 46.0254 123.297 46.0201 124.852 46.0384C125.167 46.041 125.211 45.9343 125.211 45.6613C125.2 43.3701 125.211 41.0816 125.2 38.7905C125.2 38.5694 125.25 38.4992 125.484 38.4992C127.83 38.507 130.178 38.4992 132.524 38.4992C132.662 38.4992 132.805 38.4836 132.924 38.5824C132.948 38.6032 132.968 38.6267 132.992 38.6475C133.684 39.399 134.381 40.1506 135.07 40.9074C135.808 41.7214 136.518 42.564 137.285 43.3519C137.995 44.0801 138.666 44.8395 139.34 45.5989C139.608 45.9031 139.889 46.1398 140.331 46.0201C141.368 46.0149 142.409 46.0097 143.446 46.0045C143.641 46.0306 143.836 46.0358 144.031 46.0019C144.312 46.0332 144.593 46.0332 144.874 45.9993C144.918 45.9993 144.96 45.9993 145.004 46.0019C145.082 45.9265 145.178 45.8745 145.274 45.8303C145.176 45.8771 145.082 45.9265 145.004 46.0019C145.217 46.0097 145.43 46.0306 145.644 46.0175C145.88 46.0045 146.229 46.1528 146.32 45.9369C146.408 45.7315 146.044 45.5885 145.912 45.3934L145.927 45.3804ZM134.698 33.8858C134.656 33.8858 134.612 33.8858 134.57 33.8884H134.438C134.417 33.8884 134.396 33.8884 134.375 33.8884C133.275 33.8884 132.175 33.8884 131.078 33.8884C129.341 33.891 127.606 33.8962 125.869 33.9014C125.827 33.9014 125.786 33.8988 125.747 33.8962C125.4 33.8632 125.226 33.6699 125.226 33.3162C125.226 33.1602 125.219 33.0016 125.213 32.8455C125.213 32.0107 125.213 31.1759 125.213 30.3412C125.219 30.2345 125.247 30.1227 125.226 30.0213C125.156 29.691 125.307 29.5844 125.614 29.6182C125.635 29.6182 125.656 29.6182 125.676 29.6182C125.741 29.6182 125.806 29.6182 125.871 29.6182C127.502 29.6208 129.133 29.6234 130.763 29.626C131.822 29.626 132.883 29.5922 133.938 29.6468C134.804 29.691 135.676 29.6676 136.539 29.7638C137.015 29.8158 137.491 29.9017 137.943 30.0759C138.393 30.1903 138.765 30.4088 139.033 30.8015C139.199 31.0433 139.171 31.3034 139.179 31.566C139.181 31.6935 139.186 31.8235 139.189 31.9509C139.173 32.2448 139.158 32.5309 138.96 32.7883C138.666 33.1732 138.255 33.35 137.819 33.4905C136.846 33.8077 135.834 33.8338 134.825 33.8858H134.695H134.698Z" fill="#FDCF39"/>
<path d="M85.7598 42.8968C85.7781 42.8968 85.799 42.8968 85.8173 42.8968C85.7964 42.8811 85.7781 42.8811 85.7598 42.8968Z" fill="#FDCF39"/>
<path d="M33.3735 40.1069C33.3918 40.0965 33.4128 40.0886 33.4311 40.0782C33.3945 40.0494 33.3866 40.0834 33.3735 40.1069Z" fill="#FDCF39"/>
<path d="M41.5288 36.4342C40.9385 35.5734 40.3481 34.7126 39.7552 33.8544C39.3547 33.2745 38.9568 32.6919 38.5485 32.1172C38.4575 31.9898 38.3379 31.7349 38.148 32.0158C37.3704 33.16 36.6033 34.3147 35.8335 35.4642C35.8153 35.4928 35.7945 35.5188 35.7763 35.5474C35.6827 35.6306 35.6124 35.7294 35.5734 35.8465C35.3134 36.2183 35.0533 36.5928 34.7985 36.9647C34.7568 37.0245 34.6268 37.0479 34.6944 37.1598C34.7412 37.2378 34.8297 37.1988 34.8999 37.1988C37.1754 37.2014 39.4535 37.204 41.729 37.204C41.7993 37.204 41.8877 37.243 41.9293 37.1546C41.9709 37.0687 41.9241 36.9881 41.8721 36.9179C41.7577 36.7567 41.6432 36.5928 41.5288 36.4316V36.4342Z" fill="#FDCF39"/>
</svg>
