<svg width="175" height="70" viewBox="0 0 175 70" fill="none" xmlns="http://www.w3.org/2000/svg">
<path d="M2 42.5175C2.3956 42.4229 2.24345 42.0523 2.28149 41.8443C2.53635 40.3846 2.82925 38.9249 3.00042 37.4614C3.14877 36.2059 3.4645 34.9844 3.64708 33.7364C3.81826 32.5603 3.86391 31.3615 4.14159 30.193C4.36221 29.2741 4.43068 28.3211 4.56382 27.3832C4.70076 26.4038 4.91758 25.4357 5.05452 24.4524C5.21429 23.3179 5.39307 22.1834 5.59848 21.0527C5.92561 19.2602 6.10059 17.445 6.45055 15.6563C6.5 15.3991 6.62172 15.3802 6.83094 15.3613C8.40194 15.2025 9.98056 15.2517 11.5554 15.2327C14.2751 15.2063 16.9949 15.2063 19.7109 15.1836C22.7959 15.1571 25.8808 15.142 28.9658 15.0701C30.9248 15.0248 32.8838 15.0512 34.8428 15.0172C35.1813 15.0096 35.3335 15.1269 35.478 15.4294C35.9193 16.3521 36.5203 17.1879 37.068 18.0501C37.6919 19.0409 38.3271 20.0241 38.9852 20.9884C39.3314 21.4952 39.145 22.0057 39.0613 22.5049C39.0118 22.7961 38.7798 22.6713 38.6657 22.4935C38.2929 21.9187 37.9201 21.3477 37.574 20.7615C37.049 19.8653 36.4556 19.0182 35.866 18.1635C35.6226 17.8118 35.4134 17.4375 35.1775 17.0555C35.0063 17.2484 34.9189 17.4412 34.9417 17.6341C35.0292 18.3451 34.7667 19.0068 34.626 19.6762C34.5118 20.2132 34.5993 20.7502 34.4662 21.2834C34.1162 22.6864 34.044 24.131 33.8424 25.5567C33.7016 26.5702 33.4544 27.5685 33.4011 28.6009C33.3631 29.327 33.2147 30.0531 33.074 30.7792C32.9142 31.5884 32.8686 32.4204 32.7544 33.241C32.6213 34.1827 32.4615 35.1167 32.3284 36.0546C32.2105 36.8903 32.0888 37.7223 32.0089 38.5618C31.9366 39.3295 31.8149 40.0896 31.697 40.8497C31.5676 41.7006 31.4459 42.5553 31.3242 43.4061C31.3128 43.4969 31.3394 43.6028 31.3014 43.6822C31.1644 43.9847 31.2785 44.17 31.5068 44.4045C33.1006 46.0722 34.7743 47.6605 36.41 49.2904C37.4256 50.3039 38.3918 51.3665 39.4227 52.3649C39.5786 52.5162 39.6927 52.7053 39.8791 52.9435C40.0427 52.2628 40.1986 51.6426 40.3394 51.0149C40.3736 50.8598 40.3622 50.6821 40.579 50.6783C40.7883 50.6783 40.754 50.9014 40.773 50.9959C40.8605 51.4913 41.2067 51.9111 41.123 52.4594C41.0621 52.8527 40.8719 53.212 40.8757 53.628C40.8757 53.7982 40.6285 53.8549 40.4193 53.8624C38.8102 53.9419 37.1974 53.8662 35.5883 53.8624C32.1116 53.8473 28.6348 53.8019 25.1581 53.749C21.6167 53.6961 18.079 53.6242 14.5376 53.6507C13.8948 53.6545 13.5562 53.1817 13.134 52.8603C11.7075 51.775 10.3381 50.6178 8.89265 49.5476C8.21175 49.0446 7.60313 48.4471 6.90702 47.9555C6.36306 47.5698 5.85714 47.1386 5.30558 46.7643C4.98605 46.5487 4.735 46.2348 4.43449 45.989C3.64708 45.3386 2.77219 44.8054 2.01522 44.1171V43.2738C2.12933 43.1792 2.20161 43.0847 2.01522 42.9939V42.525L2 42.5175ZM3.93618 44.1133C3.92096 44.1511 3.90575 44.1889 3.89053 44.2268C4.51817 44.707 5.16864 45.1646 5.76965 45.6751C7.04396 46.7529 8.43238 47.687 9.68766 48.7912C9.93111 49.0068 10.1631 49.245 10.4408 49.419C11.7303 50.2169 12.8221 51.272 14.0469 52.1569C14.2675 52.3157 14.4615 52.4254 14.7316 52.467C15.3136 52.5653 15.8994 52.4897 16.4776 52.501C20.4184 52.5805 24.3631 52.6296 28.3039 52.6712C30.7346 52.6977 33.1615 52.8792 35.5959 52.8187C36.3681 52.7998 37.1441 52.8111 37.9201 52.8111C38.038 52.8111 38.1522 52.796 38.2092 52.6939C38.2701 52.588 38.1636 52.5313 38.0989 52.467C36.8474 51.2493 35.5655 50.0619 34.3673 48.795C32.9142 47.2559 31.385 45.7924 29.8939 44.2873C29.7608 44.1549 29.6238 44.1474 29.4679 44.1474C25.4396 44.0831 21.4112 44.1738 17.3829 44.1322C13.9404 44.0982 10.4941 44.1511 7.04776 44.1133C6.0131 44.102 4.97464 44.1133 3.93998 44.1133H3.93618ZM18.7485 38.5845C19.6957 38.5845 20.6467 38.5845 21.5938 38.5845C21.8335 38.5845 21.9818 38.5543 22.0389 38.248C22.1188 37.8168 22.134 37.3857 22.1872 36.9546C22.3318 35.7823 22.4231 34.5986 22.6095 33.4339C22.7312 32.6776 22.7502 31.9023 22.9176 31.1611C23.1953 29.9094 23.2181 28.635 23.4463 27.3832C23.5795 26.6609 23.5642 25.9197 23.7164 25.1974C23.8533 24.5394 23.9675 23.8663 24.0017 23.1931C24.0587 22.0851 24.3098 21.0036 24.4277 19.9031C24.4696 19.4985 24.3897 19.4644 24.0473 19.4644C21.2363 19.4644 18.4214 19.4644 15.6103 19.438C15.1995 19.438 14.9979 19.6043 14.9294 19.9712C14.8762 20.2737 14.8229 20.58 14.8191 20.8863C14.8153 21.9112 14.4996 22.8906 14.3855 23.9003C14.336 24.3579 14.4501 24.3541 14.7811 24.3503C15.5723 24.3428 16.3597 24.3466 17.1509 24.3503C17.3221 24.3503 17.5845 24.3466 17.5351 24.5659C17.4704 24.8571 17.5465 25.171 17.4324 25.4319C17.0596 26.2865 17.1471 27.2055 16.9987 28.0904C16.8428 29.0245 16.7933 29.9775 16.5993 30.9002C16.4205 31.7586 16.3216 32.6208 16.2494 33.4868C16.1961 34.1448 16.0097 34.7764 15.9413 35.4306C15.8462 36.3609 15.7396 37.2874 15.5951 38.2101C15.5456 38.5202 15.6141 38.5845 15.907 38.5807C16.8542 38.5694 17.8052 38.577 18.7523 38.577L18.7485 38.5845Z" fill="#FDCF39"/>
<path d="M172.958 32.7343C172.969 32.7607 172.977 32.7872 172.988 32.8137L173 31.3918L172.958 32.7343ZM169.603 23.8549C168.747 21.6351 167.868 19.4228 167.062 17.184C166.708 16.2008 166.309 15.2327 165.909 14.2684C165.898 14.2419 165.89 14.2192 165.883 14.1965C151.318 14.2003 143.006 14.2117 138.518 14.2154C138.213 15.7773 137.981 17.3278 137.753 18.882C137.548 20.2775 137.251 21.6615 137.034 23.057C136.848 24.2709 136.616 25.4848 136.718 26.7214C136.741 26.9861 136.768 27.2622 136.893 27.5118C136.928 27.5836 136.954 27.682 137.034 27.6744C137.125 27.6668 137.175 27.5836 137.19 27.4815C137.285 26.8802 137.376 26.279 137.483 25.6777C137.616 24.9176 137.764 24.1612 137.901 23.4011C138.141 22.07 138.35 20.735 138.62 19.4152C138.78 18.6362 138.951 17.8685 138.993 17.0744C139.001 16.9307 139.122 16.874 139.214 16.821C139.484 17.9858 139.754 19.1505 140.032 20.3115C140.598 22.6977 141.169 25.0839 141.743 27.4702C142.181 29.3005 142.633 31.1308 143.059 32.9687C143.162 33.4112 142.964 33.8461 142.877 34.2772C142.554 35.9146 142.211 37.5483 141.85 39.1744C141.378 41.2922 140.986 43.425 140.526 45.5428C140.13 47.3542 139.746 49.1694 139.404 50.9884C139.297 51.5443 139.183 52.1002 139.092 52.6599C139.065 52.8262 139.012 52.9699 138.871 53.125C138.255 48.9841 137.403 44.9377 136.756 40.8497C136.528 41.3829 136.433 41.935 136.334 42.4872C136.129 43.6444 136.498 44.7524 136.654 45.8755C136.783 46.7756 136.939 47.6756 137.095 48.5757C137.327 49.9371 137.578 51.2947 137.81 52.6561C137.962 53.5599 138.099 54.4637 138.217 55.3675C138.24 55.5264 138.32 55.6587 138.324 55.81H166.024C166.164 54.9251 166.529 54.1044 166.792 53.2536C167.633 50.5572 168.496 47.8647 169.352 45.1722C170.12 42.7595 170.881 40.343 171.657 37.934C172.003 36.8487 172.266 35.7331 172.699 34.678C172.711 34.6478 172.718 34.6175 172.734 34.5911C172.84 34.4095 172.642 34.0276 172.92 34.0427L172.958 32.7343C171.851 29.6787 170.725 26.7668 169.603 23.8549ZM147.719 16.5903C148.145 16.5941 148.575 16.5828 148.997 16.6281C149.671 16.7 150.157 17.1727 150.694 17.5168C152.47 18.6476 154.239 19.7858 155.993 20.9468C156.712 21.4233 157.412 21.9187 158.199 22.278C158.252 22.191 158.248 22.1153 158.207 22.017C157.503 20.3682 156.94 18.6627 156.339 16.9723C156.202 16.5865 156.327 16.5639 156.647 16.5639C158.275 16.579 159.903 16.5903 161.531 16.5752C161.87 16.5752 162.033 16.6735 162.147 16.9874C163.498 20.667 164.86 24.3465 166.221 28.0261C166.343 28.3551 166.48 28.6803 166.617 29.0018C166.758 29.3194 166.78 29.5009 166.305 29.4858C165.202 29.4518 164.091 29.448 162.988 29.4896C162.045 29.5236 161.257 29.3118 160.474 28.7181C159.078 27.6593 157.571 26.7441 156.114 25.7684C155.049 25.0537 153.984 24.339 152.919 23.6242C152.828 23.5637 152.74 23.454 152.626 23.5183C152.497 23.5978 152.543 23.7339 152.577 23.8511C153.113 25.5075 153.516 27.1979 154.106 28.8391C154.262 29.2816 154.19 29.4026 153.722 29.4026C151.983 29.4102 150.245 29.395 148.507 29.4253C148.111 29.4329 147.97 29.2362 147.909 28.9375C147.582 27.3378 147.057 25.7873 146.643 24.2066C146.034 21.8733 145.346 19.5552 144.691 17.2294C144.634 17.029 144.558 16.8324 144.478 16.5903C145.581 16.5903 146.65 16.5865 147.719 16.5903ZM171.866 33.7591C171.6 34.4209 171.429 35.147 171.212 35.8428C170.759 37.3063 170.28 38.7584 169.812 40.2182C169.12 42.3775 168.424 44.5368 167.735 46.6999C166.955 49.1391 166.183 51.5821 165.411 54.025C165.171 54.7814 165.175 54.77 164.403 54.77C158.442 54.77 152.485 54.77 146.529 54.77C144.455 54.77 142.386 54.77 140.317 54.7851C139.898 54.7889 139.799 54.6793 139.94 54.2897C140.229 53.4729 140.328 52.6069 140.488 51.7598C140.64 50.9392 140.857 50.1337 141.005 49.3093C141.249 47.9517 141.561 46.6054 141.835 45.2516C142.162 43.633 142.474 42.0069 142.808 40.3883C143.17 38.645 143.577 36.913 143.896 35.1621C143.995 34.6137 144.208 34.0805 144.204 33.5095C144.204 33.2334 144.444 33.2599 144.615 33.2523C145.022 33.2297 145.437 33.2334 145.848 33.2334H158.222V33.2448C162.634 33.2448 167.043 33.2448 171.452 33.2486C171.798 33.2486 172.136 33.0859 171.866 33.7591Z" fill="#FDCF39"/>
<path d="M106.097 27.1792C105.972 27.0468 106.01 26.8804 106.017 26.7329C106.067 25.398 106.128 24.0669 106.185 22.7357C106.207 22.1647 106.139 21.5823 106.192 21.0302C106.28 20.1226 106.177 19.2112 106.322 18.3036C106.39 17.8763 106.363 17.4338 106.367 16.9989C106.371 16.2048 106.371 15.4069 106.36 14.6127C106.356 14.3291 106.417 14.2156 106.748 14.1929C108.067 14.106 109.384 14.1665 110.7 14.1665C115.2 14.1665 119.704 14.2118 124.204 14.2081C126.828 14.2081 129.457 14.1324 132.085 14.1854C132.549 14.1929 133.021 14.295 133.474 14.1135C133.865 14.1703 133.824 14.5219 133.873 14.764C134.147 16.0384 134.379 17.3166 134.645 18.591C134.843 19.544 135.083 20.4932 135.288 21.4462C135.551 22.6714 135.783 23.9043 136.053 25.1295C136.231 25.9501 136.368 26.7745 136.597 27.5914C136.969 28.9301 137.201 30.3104 137.464 31.6794C137.582 32.292 137.825 32.9008 137.745 33.5324C137.647 34.2849 137.464 35.0224 137.327 35.7711C137.118 36.9094 136.916 38.0477 136.711 39.186C136.555 40.052 136.399 40.9142 136.239 41.7802C136.117 42.4495 135.942 43.1113 135.874 43.7882C135.783 44.6845 135.566 45.5581 135.425 46.4468C135.281 47.3733 135.117 48.296 134.927 49.2149C134.672 50.4364 134.508 51.673 134.295 52.9058C134.128 53.8777 133.945 54.8496 133.77 55.8215H106.732C106.732 55.0387 106.744 54.2521 106.725 53.4693C106.713 53.042 106.637 52.6147 106.607 52.1835C106.58 51.847 106.614 51.518 106.561 51.1738C106.436 50.3494 106.489 49.5023 106.428 48.6742C106.344 47.4867 106.394 46.2955 106.257 45.1118C106.097 43.7126 106.063 42.3096 106.124 40.8953C106.573 42.9714 106.717 45.0929 107.037 47.1993C107.261 47.1426 107.189 47.0102 107.189 46.9195C107.2 46.1404 107.143 45.3539 107.215 44.5824C107.333 43.2929 107.261 42.0071 107.307 40.7175C107.337 39.8062 107.501 38.8986 107.474 37.991C107.436 36.8527 107.588 35.7295 107.6 34.5988C107.615 33.0899 107.531 31.5848 107.47 30.0797C107.421 28.7977 107.349 27.5157 107.276 26.2338C107.2 24.827 107.109 23.424 107.094 22.0172C107.086 21.4651 106.942 20.913 106.854 20.3457C106.824 20.3646 106.755 20.3911 106.755 20.4062C106.865 21.2647 106.687 22.1117 106.614 22.9588C106.519 24.0706 106.481 25.1938 106.261 26.2981C106.2 26.593 106.318 26.922 106.086 27.1867L106.097 27.1792ZM122.663 33.1731V33.1656C118.144 33.1656 113.621 33.1656 109.102 33.158C108.817 33.158 108.71 33.2147 108.718 33.5097C108.76 35.7333 108.566 37.9494 108.554 40.1692C108.547 41.6251 108.448 43.0773 108.349 44.5295C108.28 45.5656 108.338 46.6056 108.281 47.6455C108.22 48.7876 108.163 49.9372 108.151 51.0869C108.14 52.0777 108.231 53.0722 108.071 54.063C107.972 54.6794 108.014 54.6832 108.672 54.6832C116.577 54.6832 124.481 54.6832 132.386 54.687C132.732 54.687 132.994 54.7059 132.934 54.2181C132.899 53.942 133.013 53.647 133.063 53.3634C133.234 52.4104 133.413 51.4537 133.584 50.5007C133.767 49.4834 133.934 48.4662 134.117 47.4489C134.318 46.3106 134.565 45.1799 134.725 44.0378C134.866 43.0433 135.067 42.0562 135.239 41.0655C135.436 39.9158 135.646 38.7624 135.866 37.6166C136.121 36.2741 136.285 34.9165 136.547 33.574C136.619 33.2072 136.57 33.1618 136.228 33.1618C131.709 33.1693 127.186 33.1656 122.667 33.1656L122.663 33.1731ZM120.537 16.738C120.537 16.738 120.537 16.7607 120.537 16.772C119.669 16.772 118.802 16.7758 117.931 16.772C117.699 16.772 117.585 16.7796 117.676 17.0784C117.779 17.4111 117.794 17.7704 117.84 18.1183C117.931 18.8141 118.018 19.5062 118.11 20.202C118.239 21.1739 118.395 22.142 118.49 23.1177C118.574 23.9534 118.722 24.7816 118.817 25.6174C118.943 26.7518 119.163 27.875 119.243 29.0171C119.266 29.3385 119.354 29.4406 119.681 29.4368C120.658 29.4179 121.64 29.4066 122.617 29.4293C123.511 29.4482 124.405 29.3272 125.295 29.5011C125.493 29.5389 125.603 29.4746 125.55 29.1759C125.288 27.754 125.071 26.3245 124.854 24.8951C124.683 23.7643 124.535 22.6336 124.371 21.5029C124.188 20.2209 123.869 18.9616 123.8 17.6645C123.759 16.8515 123.66 16.7683 122.811 16.7493C122.054 16.7342 121.294 16.7493 120.537 16.7493V16.738Z" fill="#FDCF39"/>
<path d="M74.4797 55.8139C74.5026 54.8382 74.2249 53.9003 74.1336 52.9436C74.0537 52.1343 73.9358 51.3364 73.8179 50.5347C73.6847 49.6422 73.6391 48.7422 73.4527 47.8535C73.3158 47.1955 73.3272 46.511 73.2435 45.8378C73.0685 44.4613 72.9468 43.081 72.7185 41.7083C72.5512 40.7023 72.418 39.6851 72.3115 38.6678C72.2164 37.7715 72.0719 36.8829 71.9578 35.9904C71.8284 34.9769 71.5241 33.9672 71.6458 32.9272C71.7486 32.0537 71.8475 31.1725 72.0415 30.3179C72.1898 29.6712 72.1822 29.0208 72.2887 28.3741C72.3496 28.0035 72.4447 27.6367 72.4941 27.2661C72.5968 26.4644 72.6311 25.6551 72.787 24.8647C73.0267 23.6395 73.0419 22.3915 73.3272 21.17C73.5136 20.3683 73.525 19.5326 73.6315 18.712C73.7114 18.0766 73.7874 17.4375 73.9206 16.8136C74.0689 16.1253 74.0537 15.4181 74.1945 14.7261C74.3124 14.1475 74.3885 14.0113 74.9476 14.1324C75.5943 14.2723 76.2257 14.1626 76.8648 14.1664C81.186 14.1777 85.5072 14.174 89.8322 14.174C93.1568 14.174 96.4852 14.1815 99.8098 14.1891C100.282 14.1891 100.757 14.2307 101.229 14.208C101.537 14.1929 101.609 14.3101 101.605 14.5824C101.594 15.3879 101.537 16.1971 101.556 16.9951C101.579 17.8119 101.605 18.6325 101.624 19.4532C101.651 20.6671 101.579 21.8886 101.636 23.0949C101.78 26.1316 101.727 29.1645 101.742 32.2012C101.761 35.8505 101.773 39.5035 101.704 43.1491C101.636 46.598 101.67 50.0468 101.605 53.4919C101.59 54.2672 101.62 55.0424 101.525 55.8139H74.4874H74.4797ZM87.9113 54.7663C87.9113 54.7663 87.9113 54.7739 87.9113 54.7777C91.9434 54.7777 95.9717 54.7777 100.004 54.7815C100.282 54.7815 100.453 54.7474 100.449 54.4109C100.426 51.9793 100.472 49.5439 100.514 47.1123C100.563 44.3214 100.552 41.5267 100.578 38.7321C100.593 37.1135 100.635 35.495 100.67 33.8764C100.677 33.5815 100.62 33.4378 100.255 33.434C94.6594 33.4226 89.0639 33.4869 83.4683 33.3886C80.0068 33.3281 76.5453 33.4983 73.0875 33.3357C72.8593 33.3243 72.73 33.3546 72.7642 33.6306C72.8745 34.5949 72.9163 35.5668 73.0761 36.5198C73.3005 37.8661 73.4831 39.2161 73.601 40.57C73.7266 42.0221 73.9358 43.4667 74.145 44.9038C74.3999 46.6698 74.6129 48.4434 74.8639 50.2132C75.0503 51.5141 75.1682 52.8264 75.3622 54.1272C75.4003 54.3768 75.3128 54.7815 75.8758 54.7777C79.8889 54.7512 83.9058 54.7663 87.9189 54.7663H87.9113ZM84.484 16.7984C84.1682 16.7984 83.8525 16.7909 83.5368 16.7984C82.4641 16.8287 81.3914 16.7266 80.3187 16.8589C80.1513 16.8778 80.0068 16.8816 79.9802 17.0934C79.8889 17.88 79.7329 18.6666 79.7139 19.4532C79.6949 20.149 79.5884 20.8335 79.4857 21.5142C79.3335 22.5125 79.3069 23.526 79.1281 24.5206C78.9988 25.2315 78.9797 25.9501 78.858 26.661C78.7135 27.5157 78.6412 28.3855 78.4662 29.2363C78.4282 29.4254 78.5575 29.501 78.7553 29.501C80.6991 29.4897 82.6391 29.4821 84.5829 29.4859C84.8187 29.4859 84.9024 29.433 84.9214 29.1796C84.9861 28.3855 85.1458 27.5989 85.1078 26.7934C85.0926 26.4114 85.2333 26.1883 85.7355 26.2148C87.3825 26.3018 89.041 26.2866 90.6501 25.9274C92.3504 25.5492 94.0165 25.0349 95.3973 23.8777C96.5043 22.9512 96.9759 21.2268 96.3825 20.115C95.713 18.8594 94.648 18.0993 93.328 17.5964C91.5858 16.9308 89.7714 16.8249 87.9417 16.8022C86.7891 16.7871 85.6327 16.8022 84.4802 16.7984H84.484Z" fill="#FDCF39"/>
<path d="M2 42.9863C2.18639 43.0809 2.11412 43.1754 2 43.2662V42.9863Z" fill="#FDCF39"/>
<path d="M70.8651 30.0831C70.0472 26.4187 69.237 22.7731 68.423 19.1276C68.0692 20.1449 68.016 21.1924 67.8372 22.2172C67.5937 23.6089 67.3807 25.0043 67.0916 26.3922C66.871 27.451 66.7645 28.5288 66.6009 29.599C66.3765 31.0739 66.0988 32.5412 65.8668 34.0122C65.7146 34.9766 65.4559 35.9447 65.5587 36.9468C65.6614 37.949 65.9847 38.9019 66.1559 39.8852C66.5134 41.9197 67.0916 43.9089 67.4758 45.9434C67.7307 47.2934 68.0768 48.6322 68.3469 49.986C68.5105 50.8028 68.7083 51.6083 68.8947 52.4176C68.9023 52.4554 68.9327 52.4895 68.986 52.5802C69.819 47.8531 70.4733 43.1563 71.4889 38.5124C71.4623 39.0154 71.4661 39.5259 71.3976 40.0251C71.2759 40.9213 71.1618 41.8138 71.0553 42.7101C70.9335 43.7425 70.8879 44.7824 70.6977 45.811C70.5646 46.5333 70.5874 47.2783 70.5075 48.012C70.3934 49.0784 70.1994 50.141 70.1309 51.2075C70.0701 52.1756 69.8494 53.1248 69.8304 54.0929C69.8266 54.3727 69.6935 54.6261 69.7201 54.9135C69.7429 55.148 69.5223 55.0572 69.4044 55.0572C68.0768 55.0685 66.7493 55.0572 65.4217 55.0761C63.8165 55.0988 62.215 55.1631 60.6098 55.182C55.5544 55.2425 50.4953 55.2879 45.4399 55.337C44.603 55.3446 43.7662 55.3522 42.9255 55.3673C42.6745 55.3711 42.5679 55.2917 42.469 55.0307C42.0734 53.9643 41.7197 52.8865 41.3469 51.8125C40.6051 49.6835 39.7797 47.5809 39.0075 45.4593C38.5701 44.2568 38.1745 43.0391 37.7484 41.8289C37.2463 40.407 36.8013 38.9624 36.1964 37.5821C35.8084 36.6972 36.0785 35.9106 36.2573 35.1051C36.7594 32.874 37.311 30.6503 37.8473 28.4267C38.1859 27.0237 38.5434 25.6245 38.8782 24.2215C39.6428 21.0336 40.4111 17.8418 41.1453 14.6463C41.2518 14.1887 41.4534 14.0337 41.8756 14.1131C42.857 14.2984 43.8423 14.1547 44.8275 14.1585C52.2831 14.1774 59.7387 14.1661 67.1981 14.1661C67.7117 14.1661 68.2252 14.1661 68.7387 14.1547C68.9289 14.1472 68.9631 14.2493 68.9783 14.393C69.1001 15.5766 69.3397 16.7414 69.4462 17.9288C69.5223 18.7608 69.7543 19.5852 69.7962 20.4172C69.8532 21.5554 70.1576 22.6559 70.2108 23.7942C70.245 24.5203 70.4695 25.2388 70.5227 25.9649C70.614 27.2393 71.0134 28.4797 70.9297 29.7692C70.9221 29.8675 70.964 29.981 70.8537 30.0755L70.8651 30.0831ZM65.2543 54.1042C65.2543 54.0815 65.2543 54.0588 65.2543 54.0362C66.0455 54.0362 66.8368 54.0059 67.6242 54.0475C68.0388 54.0702 68.1149 53.8584 68.0084 53.5899C67.7763 53.0038 67.7155 52.3836 67.5823 51.7785C67.3807 50.8747 67.1791 49.9709 66.9851 49.067C66.6846 47.6678 66.3917 46.2686 66.0874 44.8732C65.7945 43.5269 65.4826 42.1806 65.1897 40.8344C64.9196 39.6015 64.6723 38.3687 64.4023 37.1359C64.3452 36.8825 64.2805 36.6783 63.8926 36.6821C55.3566 36.7086 46.8169 36.7123 38.281 36.7237C37.9805 36.7237 37.68 36.7086 37.3794 36.7123C37.1246 36.7123 37.0295 36.8523 37.1436 37.0754C37.5963 37.9679 37.8549 38.9284 38.1897 39.8625C39.2015 42.7025 40.259 45.5312 41.2936 48.3637C41.9936 50.2772 42.6897 52.1945 43.3744 54.1118C43.4581 54.3425 43.5798 54.403 43.8118 54.3992C44.3291 54.3916 44.8427 54.3425 45.3562 54.3198C47.2772 54.2366 49.1981 54.2782 51.1191 54.2366C55.0713 54.1534 59.0274 54.1874 62.9834 54.1004C63.7404 54.0853 64.5012 54.1004 65.2581 54.1004L65.2543 54.1042ZM51.7886 32.2424C52.9716 32.3937 54.2497 32.1365 55.5126 31.8832C57.3727 31.5088 58.9969 30.7449 60.3549 29.3154C61.5722 28.0334 61.6977 25.2463 59.9821 24.2026C59.3355 23.8093 58.6394 23.6202 57.9433 23.4198C56.3647 22.9622 54.7252 22.8072 53.1199 22.4706C52.8118 22.4063 52.5151 22.2513 52.2336 22.1C52.0282 21.9865 51.9559 21.718 52.0054 21.5365C52.1119 21.1697 52.3934 20.9239 52.7738 20.8029C53.5954 20.5419 54.4247 20.6592 55.2653 20.6857C56.6461 20.731 57.9509 21.0449 59.21 21.563C59.4534 21.6651 59.5942 21.6311 59.7273 21.442C60.431 20.4588 61.1309 19.4755 61.8308 18.4885C61.9183 18.3675 61.9488 18.2503 61.7548 18.186C61.169 18.0007 60.6098 17.736 60.005 17.6187C58.7345 17.3729 57.4678 17.1347 56.1668 17.0288C54.9648 16.9305 53.778 17.0288 52.6102 17.1952C51.4957 17.3502 50.4116 17.7019 49.3541 18.1444C47.6918 18.8402 46.543 19.9747 45.9686 21.6462C45.748 22.2929 45.6986 22.9584 46.0485 23.6391C46.6039 24.7093 47.5548 25.2388 48.6085 25.6661C49.7611 26.135 51.005 26.1842 52.2032 26.43C53.0857 26.6115 53.9986 26.6985 54.8013 27.1674C55.1854 27.3943 55.2425 27.7498 54.9192 28.0296C54.7556 28.1696 54.5654 28.2906 54.3676 28.3738C53.2264 28.8578 52.0282 28.8389 50.8414 28.6498C49.51 28.4381 48.2091 28.1015 47.0223 27.4321C46.7218 27.262 46.4898 27.3452 46.2882 27.6061C45.5312 28.5969 44.7932 29.6066 44.002 30.5709C43.7319 30.8999 43.8765 30.968 44.1466 31.0739C45.2421 31.5088 46.3642 31.7924 47.5396 31.9739C48.909 32.1857 50.267 32.3597 51.781 32.2538L51.7886 32.2424Z" fill="#FDCF39"/>
<path d="M106.097 27.1792C106.151 27.6746 106.135 28.1624 105.999 28.654C106.01 28.6503 106.006 28.654 105.999 28.654C106.052 28.1624 105.945 27.6633 106.097 27.1792Z" fill="#FDCF39"/>
<path d="M133.454 14C133.511 14.0299 133.515 14.0673 133.477 14.1121C133.436 14.0822 133.398 14.0523 133.454 14Z" fill="#FDCF39"/>
<path d="M16.3672 47.6568C16.9301 47.7892 17.2877 47.5245 17.4703 46.9156C17.5844 46.5375 17.8088 46.1971 17.9496 45.8265C18.1284 45.3689 18.2158 45.316 18.6723 45.5164C19.9999 46.0988 21.4187 46.4505 22.7463 47.0215C23.8608 47.5018 24.9906 47.6682 26.1964 47.6795C27.6685 47.6947 29.1368 47.8497 30.6051 47.9405C30.7801 47.9518 30.9703 47.9745 31.0426 48.1295C31.1415 48.3489 30.8828 48.364 30.7725 48.4321C30.1258 48.8405 29.4715 49.2489 28.7983 49.6157C28.5472 49.7519 28.551 49.7784 28.7526 49.975C29.4487 50.6557 30.335 51.0792 31.073 51.6994C31.1681 51.7789 31.3126 51.8545 31.2936 51.9755C31.2632 52.1457 31.0844 52.0587 30.9741 52.0625C30.0269 52.1041 29.1368 51.7826 28.2125 51.6578C27.0941 51.5104 25.9872 51.257 24.8688 51.1473C24.0967 51.0755 23.3321 51.3251 22.5675 51.465C21.9018 51.5898 21.2361 51.7373 20.5743 51.881C20.3156 51.9377 20.0645 52.0209 19.8059 52.0663C19.4787 52.1192 19.2695 51.9906 19.0869 51.6919C18.7636 51.1624 18.3984 50.6481 17.9952 50.1754C17.6947 49.82 17.2116 49.7557 16.778 49.6309C15.2222 49.1884 13.6664 48.7384 12.0878 48.3867C11.9965 48.3678 11.9128 48.33 11.8291 48.2884C11.7606 48.2543 11.677 48.2203 11.6846 48.1258C11.6922 48.0161 11.7911 48.0388 11.8633 48.0312C12.3426 47.9707 12.8181 47.8875 13.2974 47.8497C14.294 47.7741 15.2945 47.7211 16.3672 47.6531V47.6568Z" fill="#FDCF39"/>
<path d="M150.85 36.7012C151.672 36.7012 152.494 36.7126 153.315 36.6974C153.593 36.6937 153.753 36.7504 153.821 37.0454C153.863 37.2307 153.981 37.416 154.114 37.5559C154.958 38.4597 155.685 39.4618 156.442 40.4337C157.081 41.2506 157.773 42.0334 158.359 42.8918C158.443 43.0128 158.488 43.2057 158.69 43.1792C158.915 43.1527 158.785 42.9523 158.835 42.8389C159.181 42.0712 159.322 41.2392 159.588 40.4489C159.873 39.6131 160.044 38.7471 160.272 37.9C160.36 37.5748 160.55 37.2609 160.615 36.9168C160.657 36.6937 160.816 36.7088 160.972 36.7088C162.901 36.7088 164.83 36.7126 166.758 36.705C167.108 36.705 167.116 36.879 167.04 37.121C166.762 38.0248 166.435 38.9135 166.18 39.8249C165.659 41.6741 165.069 43.5044 164.518 45.3461C164.187 46.4541 163.875 47.5697 163.517 48.6664C163.243 49.5097 162.992 50.3492 162.772 51.2077C162.718 51.4119 162.57 51.4913 162.349 51.4913C161.197 51.4913 160.033 51.4119 158.892 51.5291C157.868 51.6388 157.355 51.0715 156.822 50.4135C155.586 48.8857 154.346 47.3655 153.106 45.8415C152.977 45.6827 152.832 45.5352 152.733 45.3612C152.665 45.244 152.619 45.1268 152.467 45.1608C152.33 45.1911 152.307 45.3385 152.277 45.4444C151.828 47.0138 151.463 48.6059 150.964 50.1639C150.9 50.3682 150.964 50.5799 150.873 50.7993C150.611 51.4611 150.573 51.514 149.835 51.514C148.553 51.514 147.275 51.5064 145.993 51.5064C145.745 51.5064 145.506 51.4951 145.251 51.5783C144.844 51.7069 144.585 51.427 144.68 50.9997C144.893 50.077 145.118 49.1618 145.335 48.2391C145.643 46.9382 145.958 45.6411 146.229 44.3288C146.404 43.478 146.62 42.6195 146.833 41.7687C147.229 40.203 147.56 38.6223 147.883 37.0378C147.944 36.739 148.07 36.7012 148.324 36.7012C149.161 36.7088 150.002 36.7012 150.839 36.7012H150.85Z" fill="#FDCF39"/>
<path d="M122.606 36.932C123.523 36.932 124.439 36.932 125.352 36.932C125.767 36.932 125.988 37.3177 125.748 37.7299C125.634 37.9265 125.615 38.1005 125.615 38.2971C125.615 39.4316 125.409 40.5472 125.261 41.6666C125.147 42.5477 125.052 43.4364 124.949 44.3213C124.824 45.4294 124.74 46.5374 124.519 47.6379C124.379 48.3412 124.424 49.0787 124.291 49.7972C124.177 50.3985 124.093 51.0035 124.029 51.6124C124.006 51.8279 123.941 51.9074 123.717 51.9036C121.898 51.896 120.084 51.896 118.266 51.8998C117.988 51.8998 117.897 51.775 117.923 51.5254C118.011 50.6859 118.129 49.8463 118.174 49.003C118.235 47.9101 118.513 46.8361 118.498 45.7395C118.486 44.9793 118.585 44.2419 118.741 43.5007C118.848 42.9902 118.794 42.457 118.863 41.9313C119.007 40.8384 119.034 39.7304 119.228 38.6413C119.297 38.248 119.259 37.8433 119.323 37.4425C119.388 37.0454 119.57 36.9206 119.947 36.9244C120.833 36.9357 121.716 36.9244 122.602 36.9244L122.606 36.932Z" fill="#FDCF39"/>
<path d="M87.6481 45.883C87.5036 46.0078 87.4199 46.1061 87.3742 46.2763C87.0699 47.4826 86.6249 48.6512 86.2331 49.831C86.0695 50.3264 85.8983 50.8445 85.8375 51.374C85.8108 51.5895 85.7195 51.6651 85.5027 51.6651C83.9698 51.6614 82.4368 51.6576 80.9038 51.6727C80.6109 51.6727 80.5463 51.495 80.4473 51.2983C79.9528 50.3226 79.6409 49.2789 79.2187 48.2768C78.6785 47.0061 78.1574 45.7279 77.6287 44.4497C77.0467 43.0467 76.4761 41.6437 75.9702 40.2105C75.799 39.7302 75.5784 39.2613 75.3235 38.815C75.0268 38.297 74.9621 37.6919 74.6008 37.2003C74.4867 37.0414 74.6008 36.875 74.8366 36.875C75.2779 36.8713 75.7229 36.8561 76.1642 36.8524C77.4271 36.841 78.69 36.8372 79.9528 36.8221C80.5272 36.8183 80.687 36.9431 80.8353 37.4877C81.1929 38.7961 81.657 40.0743 82.0906 41.3601C82.2466 41.8215 82.4025 42.2866 82.5395 42.7555C82.5775 42.8917 82.665 42.9635 82.7601 43.0429C83.2965 42.5362 83.2128 41.7988 83.479 41.1861C83.9165 40.1727 84.1561 39.0873 84.5936 38.0738C84.6963 37.8356 84.7914 37.5784 84.8066 37.3288C84.8332 36.9507 85.0615 36.8448 85.3658 36.8486C86.5944 36.8561 87.8231 36.8826 89.0517 36.8977C89.2496 36.8977 89.3827 36.9961 89.455 37.1662C89.7479 37.8205 90.0788 38.4596 90.307 39.1327C90.5619 39.8853 90.9689 40.5697 91.2428 41.3109C91.4634 41.9084 91.7107 42.4984 91.9351 43.0959C91.9769 43.2056 91.9161 43.3682 92.1177 43.3417C92.247 43.3266 92.2774 43.2207 92.3079 43.1072C92.6464 41.8101 93.0192 40.5244 93.3121 39.2159C93.4643 38.5276 93.818 37.8923 93.8332 37.1776C93.837 36.9469 93.9854 36.894 94.1794 36.894C95.8227 36.8826 97.4659 36.875 99.1054 36.8561C99.3793 36.8561 99.3831 36.9507 99.3413 37.1927C99.1853 38.1306 98.7783 39.0003 98.5615 39.9193C98.3637 40.7626 97.9909 41.5492 97.7855 42.3925C97.6561 42.9257 97.4659 43.4741 97.291 44.0073C96.9752 44.9754 96.6861 45.9548 96.4009 46.9343C96.1764 47.7057 95.952 48.4772 95.7314 49.2524C95.5374 49.9218 95.3358 50.5874 95.1646 51.2643C95.0923 51.5517 94.9554 51.6727 94.6473 51.6727C93.2398 51.6651 91.8362 51.6803 90.4288 51.6765C90.2348 51.6765 90.037 51.7143 89.9304 51.4458C89.2419 49.7289 88.5306 48.0196 87.8307 46.3103C87.7774 46.1855 87.7242 46.0607 87.6519 45.883H87.6481Z" fill="#FDCF39"/>
<path d="M86.6974 23.004C86.5072 23.004 86.3208 23.004 86.1306 23.004C85.4345 23.0002 85.3851 22.9889 85.4954 22.3233C85.6057 21.6426 85.5676 20.9657 85.5676 20.285C85.5676 19.9522 85.6856 19.8501 86.0089 19.8539C86.8914 19.869 87.7701 19.8576 88.6526 19.8576C89.1547 19.8576 89.5922 20.0429 89.984 20.3304C90.5698 20.7577 90.5355 21.809 89.9801 22.2779C89.1091 23.0078 88.0668 22.9813 87.0283 23.0153C86.918 23.0153 86.8077 23.0153 86.6974 23.0153V23.004Z" fill="#FDCF39"/>
<path d="M57.5709 44.8621C58.3773 44.8621 59.1838 44.881 59.9864 44.8507C60.3059 44.8394 60.4543 44.9604 60.5303 45.2289C60.614 45.539 60.7433 45.8377 60.7319 46.1705C60.7205 46.6016 60.964 46.7983 61.3976 46.8021C61.9416 46.8058 62.4893 46.7302 63.0257 46.9004C63.2311 46.9647 63.3376 47.0252 63.3985 47.2748C63.5811 48.0424 63.7903 48.8101 64.0641 49.5513C64.1973 49.9068 64.144 50.0392 63.7865 50.0505C63.2691 50.0656 62.7404 50.1072 62.2307 50.0392C61.8351 49.9862 61.8198 50.1677 61.8731 50.4136C61.9378 50.7085 62.0405 50.9997 62.1546 51.2833C62.2497 51.5102 62.2383 51.7409 62.2345 51.9716C62.2345 52.104 62.1736 52.2363 62.0139 52.2174C60.2679 52.0245 58.5181 52.1909 56.7721 52.1569C56.3346 52.1493 56.1711 51.9792 56.1597 51.5934C56.1445 51.1434 55.8706 50.7615 55.8249 50.3152C55.8059 50.111 55.5929 50.0959 55.4103 50.0959C53.0405 50.0921 50.6707 50.077 48.3046 50.0808C47.8368 50.0808 47.3727 50.0316 46.901 50.0959C46.5472 50.1413 46.2201 49.9408 46.106 49.5286C45.9462 48.9727 45.7712 48.4206 45.5849 47.8723C45.4783 47.5584 45.5354 47.2748 45.7256 47.0327C46.2657 46.3369 46.7793 45.626 47.2852 44.9074C48.122 43.7238 49.0426 42.6006 49.9061 41.4321C50.1761 41.0691 50.5033 40.7401 50.6707 40.2976C50.7924 39.9762 51.0548 39.7833 51.4695 39.7833C53.3486 39.7871 55.2277 39.7606 57.1068 39.753C57.2742 39.753 57.491 39.7001 57.5785 39.8816C57.6736 40.0858 57.434 40.1577 57.3389 40.29C56.7873 41.0577 56.2548 41.8367 55.6842 42.5893C54.8435 43.7049 54.0599 44.8621 53.147 45.9172C53.1089 45.9625 53.0785 46.0193 53.0557 46.076C52.83 46.56 52.9961 46.8033 53.554 46.8058C53.5844 46.8058 53.6187 46.8058 53.6491 46.8058C54.931 46.8134 55.1174 46.5336 54.6191 45.365C54.4403 44.9415 54.4822 44.8583 54.9652 44.8545C55.6766 44.8469 56.3879 44.8621 57.0992 44.8658C57.259 44.8658 57.415 44.8658 57.5747 44.8658C57.5747 44.8621 57.5747 44.8583 57.5747 44.8545L57.5709 44.8621Z" fill="#FDCF39"/>
</svg>
