<svg width="175" height="70" viewBox="0 0 175 70" fill="none" xmlns="http://www.w3.org/2000/svg">
<path d="M162.664 32.6448C162.528 31.267 161.645 30.4785 160.426 30.1204C158.993 29.6989 157.48 29.6853 156.002 29.8077C154.697 29.9165 154.072 30.8048 154.18 32.0012C154.203 32.2777 154.244 32.4046 154.593 32.3004C155.196 32.1236 155.816 32.0103 156.451 31.965C157.588 31.8834 158.712 31.9151 159.755 32.4545C160.158 32.6629 160.194 33.0708 159.877 33.3971C159.682 33.6011 159.433 33.6872 159.175 33.7098C158.214 33.8005 157.249 33.8277 156.292 33.9455C154.81 34.1313 153.985 34.5528 153.618 35.8807C153.442 36.5243 153.51 37.1724 153.514 37.8159C153.523 38.7858 154.692 40.0367 155.662 40.1273C156.804 40.2361 157.956 40.2497 159.102 40.2043C160.761 40.1409 162.107 39.5834 162.66 37.8386C162.732 37.612 162.882 37.4126 163 37.1996V32.9258C162.796 32.9394 162.687 32.8533 162.664 32.6448ZM158.676 37.9156C158.527 37.9156 158.377 37.9156 158.169 37.9156C157.734 37.8975 157.235 37.9156 156.773 37.6573C156.46 37.4805 156.233 37.2857 156.224 36.9095C156.215 36.5061 156.56 36.4382 156.823 36.275C157.312 35.9668 157.874 36.0983 158.395 36.0076C158.894 35.9215 159.37 35.8218 159.814 35.5861C160.063 35.4547 160.199 35.4819 160.176 35.8037C160.163 36.0076 160.158 36.2161 160.176 36.42C160.281 37.5123 159.632 37.9292 158.676 37.9111V37.9156Z" fill="#FDCF39"/>
<path d="M64.0327 58.1333C61.6715 59.6743 59.1834 60.9886 56.5321 61.963C54.3114 62.7787 52.0408 63.4812 49.7068 63.8665C47.6809 64.1973 45.6415 64.4375 43.5884 64.5961C41.6532 64.7457 39.7452 64.655 37.8281 64.4511C36.1558 64.2743 34.5242 63.9707 32.9561 63.3135C30.7853 62.4071 28.986 61.1517 27.853 58.9944C26.8197 57.0275 26.6248 55.0515 27.2094 52.9396C27.3771 52.3277 27.6536 51.7703 27.9119 51.2038C28.4422 50.0345 29.054 48.9105 29.9649 47.9724C30.9439 46.9617 31.9183 45.9465 32.9969 45.0356C35.1361 43.2318 37.1393 41.2649 39.6002 39.8599C40.8284 39.1574 42.0475 38.4051 42.9902 37.3174C43.7652 36.4246 44.1278 35.3822 43.8422 34.2084C43.6609 33.4742 43.2213 32.8352 42.682 32.323C41.2952 30.9997 39.6954 29.9799 37.946 29.1959C37.8689 28.6747 37.3885 28.5206 37.0577 28.2532C35.8476 27.2697 34.5197 26.4313 33.4139 25.3164C33.0377 24.9402 32.657 24.555 32.2219 24.2514C31.0572 23.4401 30.2822 22.2663 29.3848 21.2194C28.7549 20.4807 28.3289 19.5878 27.9164 18.7041C26.9103 16.5332 26.4798 14.3351 27.3862 11.983C28.3878 9.39062 30.2459 7.71374 32.7658 6.68949C34.701 5.9009 36.7404 5.60631 38.8161 5.4205C40.2528 5.28907 41.6668 5.25734 43.108 5.2936C44.7849 5.33892 46.4301 5.61085 48.0752 5.82385C50.0376 6.07765 51.9864 6.50367 53.8854 7.12457C55.9475 7.80438 57.996 8.49779 59.9493 9.46313C62.0839 10.5191 64.0327 11.8561 65.9951 13.2792C65.9136 12.8078 65.5691 12.5586 65.338 12.2458C63.3212 9.54471 60.7334 7.47354 57.8917 5.71962C54.4927 3.62125 50.7718 2.38399 46.847 1.64073C44.5447 1.20565 42.2288 1.1422 39.9084 1.01077C39.0337 0.960912 38.1454 1.10141 37.2798 1.08328C35.5847 1.05155 33.9668 1.42772 32.3352 1.7495C28.9135 2.42025 25.7048 3.70283 22.6229 5.30266C19.7994 6.77106 17.3204 8.69721 15.1178 10.9769C14.6238 11.4844 14.1525 12.0147 13.8125 12.6583C13.3911 13.4468 13.2324 14.2853 13.1735 15.16C13.0013 15.2959 12.9741 15.4908 13.0194 15.6676C13.2506 16.5513 13.4137 17.4668 13.8579 18.2781C14.4334 19.3295 15.1586 20.2858 15.997 21.1469C16.9306 22.1032 17.7917 23.1274 18.7843 24.0293C20.6062 25.6835 22.2966 27.4601 23.4025 29.6944C24.0415 30.9861 24.3995 32.3548 24.5582 33.796C24.7304 35.3142 24.7258 36.7962 24.2092 38.2465C23.6699 39.7602 22.9583 41.1742 21.9703 42.4704C21.354 43.2817 20.7104 44.0748 19.9989 44.7727C18.5758 46.1686 17.0983 47.5101 15.784 49.0102C14.6283 50.3291 13.5723 51.7114 13.2188 53.5015C13.1509 53.8369 12.9696 54.1542 13.0194 54.5167C13.3004 56.597 14.2748 58.301 15.8112 59.7105C17.2705 61.0475 18.8341 62.2394 20.5065 63.309C22.6184 64.655 24.7757 65.8787 27.155 66.7126C28.6189 67.2247 30.0873 67.7369 31.592 68.1176C33.6677 68.6433 35.7887 68.8019 37.9233 68.8563C42.2379 68.9696 46.498 68.6977 50.654 67.3562C56.4959 65.4708 61.5401 62.4252 65.406 57.5986C65.6099 57.3448 65.8864 57.1317 65.9407 56.7465C65.6235 56.8281 65.4105 57.032 65.1839 57.2133C64.8032 57.517 64.4542 57.8705 64.0463 58.1333H64.0327Z" fill="#FDCF39"/>
<path d="M84.9531 27.0386C84.9033 26.5945 84.7945 26.2274 84.2461 26.1594C83.6298 26.0823 83.0225 25.9464 82.4061 25.8421C82.2294 25.8104 82.1206 25.8784 82.1251 26.0823C82.1342 26.531 82.0571 26.9978 82.1432 27.4284C82.3336 28.3575 82.175 29.2729 82.2384 30.27C81.2278 29.7443 80.2126 29.844 79.2246 29.8984C77.8287 29.9709 76.6821 30.6099 75.8753 31.7656C74.6653 33.5105 74.8148 35.4457 75.3315 37.3356C75.9479 39.5653 77.6701 40.159 79.6597 40.3449C80.983 40.4672 82.2837 40.2723 83.5573 39.9052C84.5362 39.6243 85.0211 39.0124 85.0166 37.9927C85.0166 35.2009 85.0166 32.4092 85.0121 29.6129C85.0121 28.7518 85.0393 27.8907 84.9441 27.0341L84.9531 27.0386ZM81.5223 37.7298C80.7836 37.7933 80.0494 37.8431 79.3333 37.5531C78.6037 37.2585 78.2094 36.692 78.0145 35.9714C77.6882 34.7749 77.8559 33.6872 78.8167 32.817C79.4104 32.2732 81.3683 32.0194 82.0662 32.382C82.2747 32.4907 82.2475 32.6901 82.2475 32.876C82.2475 33.5875 82.2475 34.299 82.2475 35.0106H82.2384C82.2384 35.6088 82.1886 36.2161 82.252 36.8053C82.3155 37.399 82.0707 37.68 81.5223 37.7253V37.7298Z" fill="#FDCF39"/>
<path d="M118.708 30.5871C117.72 29.871 116.551 29.8937 115.422 29.7803C114.507 29.6897 113.596 29.8211 112.685 29.8891C111.865 29.9526 111.148 30.3242 110.586 30.8862C110.228 31.2487 110.464 31.8153 110.437 32.2911C110.423 32.5132 110.437 32.7398 110.437 32.9664C110.451 36.2477 110.455 39.5289 110.478 42.8101C110.482 43.5081 110.763 43.8027 111.466 43.9975C111.896 44.1154 112.363 43.9885 112.775 44.1788C113.306 44.4236 113.324 44.1471 113.315 43.7301C113.297 42.4974 113.306 41.2647 113.306 39.9912C114.552 40.3583 115.744 40.3039 116.931 40.0138C118.173 39.7102 119.265 39.0304 119.805 37.9381C120.553 36.4153 120.593 34.7249 120.158 33.0435C119.909 32.0736 119.556 31.1989 118.708 30.5825V30.5871ZM117.43 35.8624C117.199 37.6073 115.422 38.0741 114.108 37.8384C113.292 37.6934 113.301 37.6481 113.301 36.8051C113.301 36.5785 113.301 36.3564 113.301 36.1298H113.206C113.206 35.1781 113.206 34.2218 113.206 33.2701C113.206 32.3636 113.206 32.3546 114.094 32.3682C114.629 32.3772 115.159 32.3365 115.699 32.4679C116.832 32.7443 117.434 33.406 117.475 34.5844C117.489 35.0059 117.489 35.4319 117.435 35.8624H117.43Z" fill="#FDCF39"/>
<path d="M132.734 33.8592C132.739 33.2247 132.666 32.6129 132.508 31.992C132.209 30.8227 131.425 30.1293 130.305 29.9027C129.023 29.6489 127.713 29.7123 126.426 29.9843C126.113 30.0477 125.914 30.0205 125.936 29.5945C125.977 28.8467 125.954 28.0944 125.945 27.3466C125.927 26.2453 125.51 25.8374 124.418 25.8283C124.155 25.8283 123.865 25.8827 123.639 25.7875C123.185 25.6017 123.135 25.783 123.135 26.1682C123.145 28.4162 123.14 30.6686 123.14 32.9165C123.135 32.9165 123.131 32.9165 123.122 32.9165C123.122 35.1645 123.122 37.4169 123.122 39.6648C123.122 39.8733 123.018 40.1951 123.335 40.2223C124.042 40.2857 124.762 40.1906 125.365 39.828C125.882 39.5198 125.95 38.917 125.95 38.346C125.95 36.583 125.954 34.82 125.932 33.057C125.932 32.7217 126.036 32.5585 126.344 32.4815C127.115 32.2911 127.894 32.282 128.665 32.4407C129.499 32.6129 129.793 32.912 129.775 33.7414C129.743 35.2007 130.011 36.6419 129.925 38.1013C129.906 38.3959 129.965 38.6995 129.983 38.9986C130.002 39.2705 130.138 39.47 130.31 39.6784C130.804 40.2767 131.475 40.2268 132.141 40.2313C132.544 40.2313 132.734 40.0999 132.725 39.6467C132.703 37.716 132.703 35.7854 132.725 33.8547L132.734 33.8592Z" fill="#FDCF39"/>
<path d="M53.7131 36.4246C54.3476 36.3159 54.9776 36.1754 55.6302 36.189C56.4868 36.2071 57.3479 36.2026 58.1999 36.0757C58.916 35.9669 59.4508 35.6497 59.7861 34.9653C60.1578 34.2039 59.9946 33.4471 59.8813 32.6902C59.6864 31.4076 59.0202 30.5148 57.7286 30.0888C57.0714 29.8712 56.4143 29.8667 55.6574 29.7942C55.1997 29.8214 54.6558 29.8395 54.1165 29.8894C52.9971 29.9891 52.0227 30.4015 51.2522 31.249C50.4319 32.1509 50.2551 33.2658 50.169 34.4124C50.1146 35.1738 50.2778 35.9125 50.3775 36.6648C50.586 38.2284 51.9184 39.8464 53.4729 40.1092C54.6966 40.3177 55.9293 40.5534 57.2028 40.363C58.7664 40.1319 59.41 39.5518 59.5686 38.0245C59.623 37.5033 59.4417 37.3356 58.9477 37.4308C57.6107 37.6891 56.2647 37.8477 54.9051 37.7435C54.402 37.7027 53.8899 37.5849 53.5137 37.186C53.3959 37.0591 53.1602 36.9776 53.2282 36.7464C53.2962 36.5244 53.5092 36.4609 53.7086 36.4292L53.7131 36.4246ZM53.1013 33.8278C53.2146 32.7219 54.189 32.024 55.3039 32.2189C55.8432 32.314 56.4007 32.2778 56.8584 32.6675C57.3071 33.0482 57.298 33.5468 56.8176 33.8957C56.5276 34.1042 56.1786 34.2583 55.8613 34.2538C55.2994 34.2538 54.76 34.4351 54.2298 34.3897C54.0349 34.3897 53.8627 34.3671 53.6995 34.3897C53.1149 34.4804 53.0424 34.4169 53.1058 33.8232L53.1013 33.8278Z" fill="#FDCF39"/>
<path d="M95.458 30.0977C94.325 29.7261 93.1784 29.7624 92.0227 29.8485C90.5815 29.9572 89.376 30.5056 88.5647 31.7565C88.3472 32.0919 87.9891 32.3865 87.9076 32.749C87.7263 33.5603 87.7127 34.4123 87.7761 35.2462C87.8622 36.4155 88.039 37.5712 88.7732 38.5546C89.1856 39.1076 89.734 39.5744 90.3413 39.7602C91.6194 40.1454 92.9427 40.3765 94.316 40.1545C95.6711 39.9324 96.8177 39.4656 97.6153 38.2872C98.3133 37.2539 98.3586 36.0937 98.3948 35.0966C98.3677 34.367 98.4175 33.8141 98.2861 33.2566C97.9099 31.6885 97.0216 30.6144 95.4535 30.1023L95.458 30.0977ZM95.1317 36.9186C94.8236 37.2675 94.4746 37.544 93.9896 37.5848C92.9609 37.6754 91.9139 37.8658 91.0891 36.9639C90.6586 36.488 90.5951 35.8807 90.4999 35.3051C90.4365 34.9335 90.4591 34.5392 90.5407 34.1449C90.8217 32.8306 91.8686 32.2505 93.192 32.3729C93.6225 32.3139 94.112 32.3457 94.5471 32.5587C95.1635 32.8623 95.5895 33.3473 95.6257 34.0633C95.6801 35.0468 95.8886 36.0665 95.1317 36.9186Z" fill="#FDCF39"/>
<path d="M149.531 30.6914C148.47 29.9164 147.246 29.8212 146.009 29.7804C145.094 29.7533 144.183 29.7714 143.267 29.8711C142.696 29.9345 142.161 30.0614 141.64 30.288C141.318 30.4285 141.187 30.6325 141.192 31.0041C141.214 32.4453 141.201 33.8911 141.201 35.3368C141.201 36.8369 141.21 38.337 141.192 39.8372C141.192 40.1454 141.264 40.2677 141.59 40.2541C142.071 40.2315 142.533 40.0864 143.004 40.0411C143.557 39.9867 143.734 39.606 143.875 39.2163C143.983 38.9126 144.024 38.5772 144.02 38.2373C144.001 36.4744 144.024 34.7114 144.001 32.9484C143.997 32.4997 144.169 32.3547 144.582 32.3683C145.125 32.3819 145.678 32.4181 146.218 32.3592C147.269 32.2504 147.999 32.8985 147.972 34.095C147.931 35.6495 147.972 37.2086 147.962 38.7631C147.962 39.3114 148.212 39.6921 148.683 39.9187C149.191 40.1635 149.739 40.2541 150.301 40.2451C150.632 40.2405 150.795 40.1046 150.791 39.7375C150.777 37.5621 150.84 35.3821 150.759 33.2112C150.723 32.2504 150.387 31.3259 149.517 30.6914H149.531Z" fill="#FDCF39"/>
<path d="M69.5165 30.0116C68.1388 29.64 66.6976 29.6898 65.2881 29.8032C64.6536 29.853 63.9557 29.8167 63.3801 30.2201C62.9767 30.5056 62.664 30.7911 62.6867 31.3803C62.7365 32.7445 62.7003 34.1132 62.7003 35.4819C62.7003 36.9231 62.7003 38.3688 62.7048 39.81C62.7048 39.9641 62.5688 40.227 62.8906 40.2406C64.1868 40.2859 65.6416 40.0457 65.5374 38.1513C65.4422 36.4155 65.5102 34.6661 65.5056 32.9258C65.5056 32.6992 65.4694 32.4771 65.8274 32.468C66.4392 32.4544 67.0465 32.3457 67.6629 32.3547C68.9953 32.3819 69.5029 32.8351 69.4803 34.1721C69.4576 35.5952 69.4712 37.0183 69.4803 38.4459C69.4803 38.7404 69.4667 39.035 69.6162 39.3115C69.938 39.9097 71.0801 40.372 71.7916 40.2224C72.1859 40.1409 72.2992 39.9641 72.2902 39.5562C72.2539 37.553 72.2992 35.5453 72.2403 33.5421C72.1859 31.6296 71.3974 30.5238 69.512 30.0116H69.5165Z" fill="#FDCF39"/>
<path d="M107.677 29.7804C106.548 29.7895 105.42 29.7804 104.291 29.8076C102.175 29.8711 101.182 31.5208 101.11 33.2747C101.073 34.0995 101.105 34.9244 101.105 35.7492C101.105 36.6103 101.101 37.4714 101.105 38.337C101.114 39.2616 101.549 39.819 102.442 40.0139C102.746 40.0819 103.045 40.1318 103.339 40.236C103.924 40.4445 103.96 40.4173 103.96 39.7873C103.956 37.9518 103.929 36.1163 103.942 34.2763C103.951 33.0209 104.495 32.3592 105.823 32.3637C106.163 32.3637 106.503 32.3773 106.838 32.3501C107.291 32.3184 107.681 32.1371 107.853 31.693C108.066 31.1446 107.989 30.56 107.994 29.9889C107.994 29.7623 107.831 29.7759 107.677 29.7804Z" fill="#FDCF39"/>
<path d="M138.273 31.0403C138.192 30.5146 138.056 30.0568 137.385 29.9481C137.045 29.8937 136.719 29.9073 136.388 29.8891C136.093 29.8755 135.776 29.5946 135.531 29.803C135.246 30.0387 135.531 30.3967 135.531 30.7004C135.463 33.7324 135.617 36.7643 135.441 39.7963C135.422 40.0954 135.518 40.2405 135.848 40.2495C136.429 40.2677 136.963 40.109 137.512 39.9504C137.965 39.819 138.16 39.5199 138.237 39.1392C138.327 38.7086 138.355 38.2599 138.364 37.8203C138.382 36.8459 138.368 35.8715 138.368 34.7294C138.309 33.61 138.468 32.3229 138.273 31.0403Z" fill="#FDCF39"/>
</svg>
