<svg width="175" height="70" viewBox="0 0 175 70" fill="none" xmlns="http://www.w3.org/2000/svg">
<path d="M172.845 28.4454C172.822 28.2841 172.484 27.1548 172.353 26.7707C171.907 25.48 171.132 24.3892 170.156 23.5057C168.074 21.6158 165.57 20.694 162.719 20.9552C160.507 21.1549 158.548 21.8386 156.942 23.5441C155.736 24.827 154.968 26.2329 154.492 27.8923C153.977 29.6899 154.069 31.4415 154.722 33.1239C156.028 36.4657 160.038 39.6462 164.701 38.9855C166.891 38.6782 168.673 37.7487 170.256 36.3351C171.731 35.0215 172.292 33.2161 172.891 31.4108C172.945 31.2494 172.983 31.0804 172.991 30.9114C173.044 29.7591 172.86 28.4761 172.852 28.4377L172.845 28.4454ZM163.48 35.7282C160.323 36.12 157.757 33.2699 157.81 29.9742C157.864 26.6631 160.015 24.2586 163.034 24.1664C167.928 24.0127 169.426 26.9858 169.38 30.4659C169.342 33.17 167.421 35.928 163.48 35.7282Z" fill="#FDCF39"/>
<path d="M48.6137 21.178C48.099 21.178 47.7533 21.37 47.4921 21.8233C46.0325 24.3507 44.5575 26.8782 43.0748 29.3903C42.9749 29.567 42.8597 29.713 42.9365 29.8974C43.0594 30.1739 43.313 30.028 43.5127 30.0203C44.957 29.9665 46.4012 29.9665 47.9915 30.0971C46.0171 33.0317 44.3731 36.0048 42.66 38.9241C41.0544 41.6513 39.4564 44.3785 37.8355 47.098C37.4206 47.7971 37.1133 47.7818 36.6908 47.0673C36.3912 46.568 36.1377 46.0379 35.8304 45.5462C34.5167 43.4336 33.4335 41.1827 31.9892 39.1392C31.6205 38.3633 31.2133 37.6027 30.7678 36.8652C29.554 34.8371 28.417 32.7705 27.2339 30.7194C27.0265 30.3506 27.2723 30.0126 27.5028 30.1202C28.1327 30.4274 28.6859 30.0817 29.2697 30.0971C31.8049 30.1432 34.34 30.1278 36.8675 30.1432C37.2363 30.1432 37.4129 29.9358 37.5896 29.6515C39.0262 27.2239 40.4782 24.8117 41.9148 22.3918C42.3373 21.6773 42.176 21.3086 41.3386 21.347C39.5563 21.4238 37.8047 21.1088 36.0225 21.1242C33.0264 21.1549 30.0303 21.1165 27.0418 21.1395C25.6821 21.1549 24.33 21.0704 22.9702 21.3009C21.5567 21.5313 21.2187 21.2394 20.5426 19.9334C20.3198 19.4955 20.1355 19.0423 19.8819 18.6121C19.083 17.2216 18.092 15.9386 17.4543 14.3638C17.8154 14.3407 18.092 14.31 18.3685 14.31C27.4797 14.31 36.5909 14.31 45.7022 14.3177C46.1247 14.3177 46.5318 14.3407 46.8007 13.9335C47.4076 12.9963 48.1144 12.1128 48.6061 11.1218C49.4357 9.4394 50.4882 7.88757 51.4792 6.30502C51.6022 6.11296 51.7865 5.95931 51.6636 5.72116C51.5561 5.51374 51.3256 5.59825 51.1489 5.60593C48.7367 5.64434 46.3321 5.43692 43.9275 5.42924C33.5027 5.37546 23.0855 5.39851 12.6683 5.39851C9.35719 5.39851 6.03843 5.39851 2.72736 5.40619C2.49689 5.40619 2.1896 5.26791 2.04364 5.55215C1.88999 5.8364 2.18192 5.99004 2.30483 6.19747C5.16265 10.9682 8.02815 15.7312 10.8552 20.5096C14.3046 26.3481 17.8769 32.1175 21.1572 38.056C22.709 40.86 24.5374 43.5104 26.0739 46.3298C26.289 46.7293 26.312 47.4437 27.0342 47.4745C26.9881 48.1044 27.3722 48.6038 27.6718 49.0801C30.9444 54.3655 34.0251 59.7585 37.2055 65.1361C45.802 50.5243 54.3755 35.9587 62.972 21.347C62.2037 21.2778 61.4662 21.2164 60.7595 21.2087C56.7186 21.1472 52.67 21.178 48.6291 21.1703L48.6137 21.178Z" fill="#FDCF39"/>
<path d="M119.614 30.0203C119.683 29.2444 119.475 29.0754 118.753 29.0908C117.002 29.1292 115.25 29.0523 113.498 29.1138C110.779 29.206 111.178 28.576 111.148 31.1573C111.148 31.2495 111.163 31.3493 111.148 31.4415C111.025 32.1483 111.386 32.2635 112.016 32.2482C113.345 32.2174 114.674 32.2482 116.003 32.2635C116.264 32.955 116.241 33.654 115.688 34.1534C113.775 35.8819 110.817 36.5579 108.451 35.3057C105.97 33.9921 105.109 31.3493 105.47 28.9678C105.801 26.7553 106.861 24.7195 109.918 24.2125C111.678 23.9282 113.422 24.1818 114.881 25.3034C116.325 26.4173 116.295 26.4557 117.724 25.3187C118.638 24.5889 118.684 24.4583 117.808 23.6363C115.319 21.3086 112.392 20.3713 109.004 21.1319C107.084 21.5621 105.355 22.4686 104.103 23.9282C102.298 26.0332 101.422 28.4915 101.975 31.357C102.474 33.9229 103.803 35.8896 105.878 37.4337C107.291 38.4862 108.95 38.8396 110.618 39.0931C112.054 39.3082 113.537 38.9779 114.82 38.4555C116.103 37.9254 117.317 37.065 118.346 36.0663C119.176 35.2596 119.852 34.307 119.683 33.0932C119.529 32.0561 119.537 31.019 119.629 30.0049L119.614 30.0203Z" fill="#FDCF39"/>
<path d="M98.7333 21.4546C98.1725 21.0013 96.9664 21.3701 96.0522 21.3086C95.4068 21.2625 95.2686 21.4853 95.2762 22.0922C95.3223 25.4033 95.3454 28.722 95.33 32.0331C95.3223 33.946 94.3774 35.1137 92.6028 35.6515C92.1265 35.7974 91.6579 35.6668 91.1893 35.7283C89.4838 35.9511 87.4633 34.2149 87.4557 32.5017C87.4557 30.827 87.4557 29.1599 87.4557 27.4852C87.4787 27.4852 87.5018 27.4852 87.5171 27.4852C87.5171 25.7182 87.5325 23.9513 87.5018 22.1844C87.5018 21.9001 87.6708 21.4008 87.1945 21.3316C86.3571 21.2087 85.5044 21.1396 84.667 21.155C84.3443 21.155 83.8373 21.2087 83.868 21.8233C84.037 25.434 83.7298 29.0447 84.014 32.6554C84.1907 34.8986 85.3661 36.5042 87.0869 37.8179C88.5696 38.9548 90.2981 39.0163 92.0727 38.9548C94.339 38.878 96.0368 37.8025 97.3889 36.1124C98.6565 34.5298 98.8101 32.5939 98.9023 30.6964C99.0098 28.4915 98.9484 26.279 98.9177 24.0665C98.9023 23.1677 99.3325 21.9309 98.741 21.4546H98.7333Z" fill="#FDCF39"/>
<path d="M134.548 31.3415C134.133 30.3966 133.803 29.4056 133.342 28.4837C132.482 26.7628 131.729 24.9959 131.007 23.2136C130.722 22.5068 130.453 21.777 129.893 21.2009C129.601 20.9089 129.232 20.8014 128.971 21.0395C128.64 21.3468 128.395 21.7617 128.21 22.1765C126.558 25.9332 124.93 29.6898 123.294 33.4541C122.541 35.1826 121.795 36.9188 121.05 38.6474C121.181 38.7088 121.235 38.7549 121.288 38.7549C121.957 38.7549 122.625 38.7626 123.294 38.7626C124.853 38.7626 124.838 38.7626 125.314 37.1647C125.429 36.7729 125.544 36.4425 126.174 36.4656C128.333 36.5424 130.5 36.4963 132.666 36.4886C133.027 36.4886 133.242 36.4733 133.357 36.9803C133.757 38.7319 133.864 38.7626 135.7 38.7626C135.954 38.7626 136.207 38.7626 136.461 38.7626C137.575 38.7395 137.721 38.486 137.268 37.4797C136.346 35.4362 135.432 33.3927 134.533 31.3415H134.548ZM131.191 33.4464C130.3 33.3543 129.462 33.7691 128.656 33.6462C127.529 33.6462 127.135 33.1571 127.473 32.1789C127.918 30.8498 128.633 29.6283 128.978 28.2609C129.017 28.0996 129.086 27.7462 129.447 27.7769C129.8 27.8076 129.662 28.1149 129.739 28.2839C130.354 29.7666 130.968 31.257 131.544 32.755C131.652 33.0316 131.821 33.5079 131.199 33.4464H131.191Z" fill="#FDCF39"/>
<path d="M147.017 28.5301C145.903 28.023 144.75 27.5621 143.851 26.7171C143.068 25.9796 143.513 24.3202 144.574 24.2049C146.118 24.0436 147.731 23.89 148.76 25.5109C148.891 25.7107 149.191 26.0333 149.36 25.8413C149.905 25.196 150.789 24.9809 151.242 24.2664C151.426 23.9745 151.288 23.6902 151.05 23.4213C149.582 21.7773 147.792 20.8708 145.349 20.94C143.552 20.94 142.684 21.301 141.163 22.7684C139.434 24.4277 139.611 27.4238 141.47 29.0525C142.791 30.2125 144.366 31.0038 146.033 31.6184C146.763 31.8872 147.447 32.279 147.984 32.8859C148.837 33.8539 148.484 35.0293 147.293 35.5747C145.58 36.3507 142.945 35.7053 141.823 33.9999C141.7 33.8078 141.531 33.4698 141.14 33.754C140.563 34.1689 139.887 34.4762 139.488 35.0831C139.365 35.2598 139.158 35.4672 139.419 35.8129C141.017 37.9178 143.137 39.0548 145.772 39.1163C147.454 39.1547 148.86 38.3788 150.297 37.5107C151.864 36.5658 152.363 32.7169 151.28 31.3725C150.128 29.9513 148.599 29.2368 147.024 28.5301H147.017Z" fill="#FDCF39"/>
<path d="M80.7722 21.3005C79.059 21.1469 77.3536 21.3159 75.6404 21.3005C73.8965 21.2775 72.1603 21.1776 70.4165 21.1392C69.8326 21.1315 69.6482 21.2698 69.6636 21.8613C69.7251 23.974 69.7711 26.0866 69.7635 28.1992C69.7635 31.4104 69.725 34.614 69.6559 37.8252C69.6405 38.6011 69.9017 38.8392 70.6469 38.7701C71.2769 38.7163 71.9222 38.724 72.5598 38.7701C73.1437 38.8085 73.328 38.6088 73.2973 38.0249C73.2051 36.3041 73.3434 34.5756 73.1129 32.8547C73.0208 32.171 73.3434 31.9866 73.9887 32.0097C75.1641 32.0404 76.3472 32.0097 77.5226 32.0097C79.9963 31.9943 79.9809 31.9943 79.8887 29.559C79.8734 29.1058 79.7889 28.9137 79.2588 28.8907C77.5764 28.8138 75.8939 28.7754 74.2115 28.9137C73.5355 28.9675 73.0208 28.9137 73.0976 27.9918C73.1744 27.0853 73.1437 26.1558 73.0976 25.2416C73.0669 24.5886 73.282 24.3274 73.958 24.3504C75.0719 24.3888 76.1859 24.3581 77.2998 24.3581C77.8452 24.3581 78.383 24.3581 78.9284 24.3581C81.4406 24.3581 81.4252 24.3581 81.3407 21.8998C81.3253 21.4619 81.2331 21.3466 80.7645 21.3005H80.7722Z" fill="#FDCF39"/>
</svg>
