<svg width="175" height="70" viewBox="0 0 175 70" fill="none" xmlns="http://www.w3.org/2000/svg">
<path d="M126.114 35.4401C125.188 34.4989 124.031 34.0253 122.888 33.5141C122.919 33.4229 122.919 33.3853 122.937 33.3773C123.167 33.2584 123.397 33.1356 123.631 33.0266C125.274 32.2657 126.474 31.0649 127.182 29.3965C127.937 27.6131 128.069 25.7842 127.846 23.8423C127.35 19.5365 124.124 16.3245 119.537 16.4255C116.733 16.487 113.925 16.4632 111.12 16.4196C110.357 16.4077 110.123 16.594 110.127 17.3905C110.159 24.6845 110.149 31.9784 110.145 39.2723C110.145 43.5623 110.151 47.8522 110.105 52.1422C110.099 52.7109 110.363 52.7089 110.723 52.7129C111.615 52.7228 112.507 52.7525 113.396 52.7109C116.365 52.5662 119.367 53.0121 122.297 52.1204C124.737 51.3773 126.607 50.024 127.74 47.6957C128.7 45.7261 128.646 43.6316 128.6 41.5332C128.549 39.1891 127.796 37.1481 126.114 35.4381V35.4401ZM114.882 19.8199C116.658 19.7703 118.423 19.909 120.187 20.0477C122.341 20.2162 123.682 21.7697 124.021 24.3516C124.176 25.5325 124.023 26.7155 123.772 27.8588C123.322 29.8938 121.885 30.9777 119.957 31.5623C118.186 32.0993 116.379 31.8971 114.581 31.9506C114.052 31.9665 114.116 31.6118 114.116 31.2849C114.116 29.4698 114.116 27.6547 114.116 25.8397C114.116 24.09 114.143 22.3403 114.1 20.5926C114.084 19.9705 114.286 19.8377 114.882 19.8218V19.8199ZM124.691 44.4044C124.483 46.8714 122.319 48.8826 119.462 49.16C117.952 49.3067 116.44 49.3007 114.928 49.3324C114.262 49.3463 114.092 49.1244 114.104 48.4843C114.141 46.4394 114.118 44.3945 114.118 42.3496C114.118 40.3047 114.114 38.2598 114.122 36.2148C114.122 35.8839 113.977 35.4322 114.589 35.4599C116.428 35.5411 118.267 35.341 120.112 35.6323C123.052 36.096 124.412 38.4678 124.653 40.8278C124.774 42.0108 124.794 43.2016 124.693 44.4044H124.691Z" fill="#FDCF39"/>
<path d="M60.871 23.9928C59.8129 20.3528 58.1861 17.1665 54.015 16.2531C51.3974 15.6804 48.9939 16.0688 46.9093 17.8402C44.6999 19.7167 43.7488 22.3085 43.0394 24.9856C42.1596 28.3006 42.2092 31.7286 42.011 35.121C41.9892 36.9202 42.2548 38.6916 42.4053 40.475C42.6174 43.0054 43.2118 45.4208 44.2184 47.7352C45.6035 50.9255 47.8822 53.0794 51.4886 53.2874C55.5011 53.5193 58.3763 51.4129 60.0269 47.7016C61.4575 44.4836 61.8023 40.9902 62.0044 37.5245C62.1233 35.5074 62.0143 33.4664 61.9073 31.4314C61.7726 28.905 61.5764 26.4122 60.873 23.9908L60.871 23.9928ZM58.2633 36.3911C58.0315 39.506 57.9602 42.6507 56.9258 45.6527C56.3235 47.3984 55.4021 48.9004 53.5533 49.5424C51.7402 50.1705 49.2891 49.6514 47.9615 46.9347C47.1055 45.1851 46.5943 43.3403 46.41 41.4241C46.1781 39.0245 45.8769 36.623 45.9978 34.4512C45.9483 31.1401 46.1028 28.0787 46.8538 25.1124C47.3512 23.1487 47.8763 21.078 49.834 19.897C51.2627 19.0351 54.5163 19.2055 55.7131 21.0503C56.8585 22.8118 57.4331 24.7359 57.661 26.763C58.0216 29.9611 58.4991 33.1632 58.2594 36.3931L58.2633 36.3911Z" fill="#FDCF39"/>
<path d="M150.308 49.3382C146.68 49.3699 143.05 49.3303 139.422 49.3699C138.691 49.3778 138.485 49.2035 138.493 48.4525C138.532 44.3943 138.524 40.3362 138.499 36.2781C138.495 35.646 138.647 35.432 139.311 35.4439C141.719 35.4835 144.128 35.4597 146.538 35.4597C147.675 35.4597 147.798 35.3408 147.61 34.2312C147.534 33.7913 147.479 33.4009 147.548 32.9274C147.619 32.4439 147.443 31.8792 146.547 31.9148C144.142 32.0139 141.73 31.9267 139.323 31.9624C138.675 31.9723 138.493 31.786 138.499 31.1381C138.528 27.6407 138.528 24.1433 138.499 20.646C138.493 20.004 138.663 19.8138 139.317 19.8217C142.319 19.8554 145.323 19.8375 148.325 19.8375C150.788 19.8375 150.758 19.8375 150.788 17.3884C150.796 16.6572 150.617 16.4452 149.865 16.4511C145.079 16.4868 140.294 16.4927 135.51 16.4472C134.666 16.4392 134.563 16.7424 134.567 17.4637C134.593 23.1387 134.581 28.8138 134.581 34.4888C134.581 40.1975 134.609 45.9043 134.555 51.613C134.546 52.6097 134.851 52.786 135.768 52.7761C140.189 52.7266 144.612 52.7543 149.034 52.7543C151.42 52.7543 151.378 52.7543 151.416 50.3745C151.43 49.4987 151.097 49.3303 150.314 49.3382H150.308Z" fill="#FDCF39"/>
<path d="M33.19 35.5411C30.8875 33.4387 28.1709 31.8555 25.7316 29.9216C23.5936 28.2254 22.2402 26.0794 22.6286 23.2042C22.7812 22.0708 23.2409 20.977 24.2217 20.343C27.0929 18.4823 31.3016 19.3245 32.3221 23.3152C32.5322 24.1356 32.3479 25.3245 32.9542 25.7009C33.6022 26.1012 34.6861 25.7485 35.5698 25.8357C36.4793 25.9268 36.3327 25.3502 36.2713 24.8568C36.1781 24.0939 36.0692 23.3271 35.8789 22.584C35.2726 20.2201 34.0341 18.306 31.8664 17.0576C29.6828 15.7994 27.3248 15.8192 25.0024 16.3165C22.7633 16.7961 21.0414 18.1038 20.0209 20.2657C19.26 21.8747 19.1372 23.5292 19.2283 25.271C19.3452 27.5259 20.2448 29.4163 21.6795 31.0748C23.7026 33.415 26.3499 35.0041 28.7713 36.8648C30.8261 38.446 32.7164 40.1184 33.1821 42.9321C33.7211 46.1878 32.2131 49.8634 27.8954 49.7882C24.406 49.7287 22.8129 47.0457 22.4423 44.3945C22.2462 42.9975 22.3631 42.9817 20.9186 42.9817C20.7541 42.9817 20.5876 42.9757 20.4232 42.9817C19.8664 43.0035 19.2006 42.8509 18.7845 43.1065C18.3723 43.3582 19.054 43.9645 18.8538 44.446C18.83 44.5015 18.8419 44.5788 18.8518 44.6422C19.1689 46.8615 19.8168 48.9361 21.4199 50.6065C23.1557 52.4156 25.2263 53.3628 27.7627 53.0933C28.8188 53.2043 29.8948 53.1924 30.8697 52.8436C33.9965 51.7261 36.0295 49.6891 36.513 46.2155C37.0876 42.094 36.3446 38.4242 33.19 35.5451V35.5411Z" fill="#FDCF39"/>
<path d="M82.3642 16.493C77.9097 16.5227 73.4533 16.5286 68.9989 16.489C68.2102 16.4831 67.9982 16.6971 68.0022 17.4857C68.0359 23.1944 68.02 28.9012 68.02 34.6099C68.02 39.6588 68.0161 44.7057 68.024 49.7546C68.024 50.7057 67.701 51.9818 68.1825 52.5188C68.7413 53.1429 70.0471 52.6119 71.018 52.7288C71.7849 52.8219 71.9315 52.5267 71.9276 51.8034C71.8959 46.6238 71.9196 41.4421 71.8978 36.2625C71.8959 35.6462 72.0147 35.4084 72.6944 35.4302C74.3767 35.4837 76.059 35.4481 77.7433 35.4481C80.3589 35.4481 80.3331 35.4481 80.3212 32.8186C80.3192 32.1845 80.127 32.0617 79.5405 32.0696C77.2638 32.1033 74.987 32.0577 72.7103 32.0993C72.0464 32.1112 71.8919 31.9091 71.8978 31.2691C71.9276 27.7063 71.9295 24.1416 71.8978 20.5788C71.8919 19.9606 72.0583 19.814 72.6627 19.8219C75.3675 19.8576 78.0742 19.8378 80.7809 19.8378C83.2717 19.8378 83.24 19.8378 83.2618 17.3391C83.2677 16.6119 83.0319 16.489 82.3681 16.493H82.3642Z" fill="#FDCF39"/>
<path d="M172.132 16.4552C167.18 16.4869 162.231 16.473 157.279 16.473C154.653 16.473 154.671 16.473 154.707 19.1005C154.715 19.693 154.851 19.905 155.478 19.8892C157.194 19.8475 158.912 19.9288 160.626 19.8535C161.606 19.8099 161.916 20.0715 161.912 21.1038C161.87 31.2353 161.888 41.3667 161.888 51.4981V52.7207C162.934 52.7207 163.901 52.6137 164.832 52.7505C165.795 52.8931 165.839 52.4869 165.837 51.7221C165.815 42.4149 165.823 33.1098 165.823 23.8026C165.823 22.7465 165.865 21.6884 165.807 20.6362C165.772 19.9625 166.021 19.8059 166.647 19.8277C167.933 19.8713 169.221 19.8416 170.509 19.8416C173.01 19.8416 172.982 19.8416 173 17.337C173.006 16.6514 172.838 16.4532 172.132 16.4572V16.4552Z" fill="#FDCF39"/>
<path d="M105.114 16.493C100.196 16.5227 95.278 16.5009 90.3599 16.5148C89.5455 16.5168 88.4517 16.1522 87.9841 16.6574C87.4788 17.2024 87.9009 18.2902 87.8236 19.1363C87.7721 19.703 87.9762 19.8615 88.537 19.8516C90.4174 19.8199 92.2998 19.8754 94.1803 19.8219C94.9115 19.8001 95.1156 19.9784 95.1096 20.7354C95.072 25.8833 95.0898 31.0313 95.0898 36.1792C95.0898 40.701 95.0779 45.2209 95.0997 49.7427C95.1037 50.7156 94.6658 52.0571 95.2879 52.5643C95.8883 53.0538 97.1783 52.6575 98.1592 52.7367C98.8091 52.7882 98.9161 52.5346 98.9121 51.962C98.8923 49.6198 98.922 47.2777 98.924 44.9335C98.926 36.9144 98.9438 28.8952 98.9002 20.8761C98.8963 19.9725 99.1479 19.7724 99.992 19.8199C101.274 19.8932 102.566 19.8397 103.852 19.8397C106.202 19.8397 106.158 19.8397 106.206 17.5174C106.224 16.6376 105.891 16.489 105.114 16.493Z" fill="#FDCF39"/>
<path d="M8.10713 16.075C4.77027 15.6133 1.97833 19.1662 2.00013 21.7084C2.03976 26.2857 4.89907 28.4139 8.19035 28.4555C11.3845 28.4951 14.1666 25.7606 14.1131 22.5506C14.0477 18.4766 11.8779 16.075 8.10713 16.075ZM8.04174 25.3207C6.57146 25.4238 4.97635 23.8663 4.99022 22.5308C5.01202 20.5948 6.16327 19.2296 7.77226 19.2335C10.0609 19.2375 11.1507 20.2025 11.1487 22.2216C11.0933 24.3458 9.75773 25.2018 8.03976 25.3207H8.04174Z" fill="#FDCF39"/>
<path d="M9.94728 32.0317C9.94728 31.4729 9.78876 31.2292 9.22997 31.3283C8.23327 31.5046 7.25045 31.3877 6.17251 31.2233C6.17251 37.465 6.1626 43.6632 6.18241 49.8613C6.1844 50.8045 5.74648 52.0925 6.3766 52.5958C6.96709 53.0674 8.20355 52.7087 9.15467 52.7642C9.72931 52.7979 9.9552 52.6612 9.95322 52.0172C9.92944 45.3554 9.93143 38.6955 9.94926 32.0337L9.94728 32.0317Z" fill="#FDCF39"/>
</svg>
