<svg width="175" height="70" viewBox="0 0 175 70" fill="none" xmlns="http://www.w3.org/2000/svg">
<path d="M73.1767 35.3152C73.1767 39.6065 73.1767 43.8899 73.1767 48.1811C73.1767 49.3005 72.4863 50.0002 71.3356 50.0002C65.5266 50.0002 59.7254 50.0002 53.9164 50.0002C52.3689 50.0002 51.6864 49.3239 51.6864 47.8002C51.6864 39.5754 51.6864 31.3505 51.6705 23.1335C51.6705 22.4727 51.607 21.8352 52.0197 21.2677C52.353 20.8091 52.7974 20.537 53.3926 20.537C56.2098 20.537 59.035 20.5292 61.8522 20.5137C62.2014 20.5137 62.2728 20.6147 62.0665 20.8946C62.0586 20.9101 62.0427 20.9179 62.0427 20.9335C61.7411 22.014 60.8047 21.8508 59.9794 21.9752C58.6382 22.1773 57.2415 22.2628 56.1146 23.1568C55.4004 23.7243 55.1782 24.4939 55.2496 25.3491C55.2972 25.9166 55.5194 25.9477 56.0273 25.6911C56.6939 25.3491 57.3923 25.077 58.1541 24.9681C58.5747 24.9059 59.0033 24.836 59.4159 24.7427C59.9159 24.6339 60.4238 24.6183 60.9396 24.595C61.9554 24.5406 62.9633 24.5172 63.9791 24.595C65.225 24.696 66.455 24.8515 67.6454 25.2324C68.193 25.4112 68.7406 25.5667 69.2326 25.8777C69.4389 26.0098 69.5659 25.8932 69.6056 25.6756C69.8516 24.4862 69.3754 23.4833 68.2565 22.8225C67.3915 22.3095 66.4074 22.2084 65.4472 22.0451C64.7964 21.9363 64.1616 21.742 63.4791 21.7808C63.249 21.7886 63.2648 21.5787 63.4156 21.4932C64.0902 21.0812 64.7012 20.537 65.5583 20.5292C67.4867 20.5292 69.4151 20.5292 71.3435 20.5292C72.2641 20.5292 72.9307 20.9801 73.1212 21.7808C73.1767 22.0296 73.1688 22.2939 73.1688 22.5504C73.1688 26.8106 73.1688 31.0629 73.1688 35.323L73.1767 35.3152ZM62.5109 24.7893C61.265 24.9759 59.9159 24.8982 58.6144 25.2014C57.7653 25.4035 56.9161 25.5823 56.1543 26.0176C55.9479 26.1342 55.8686 26.2431 55.8448 26.4841C55.7813 27.2925 55.9479 28.0855 55.9797 28.8862C55.9956 29.2671 56.0352 29.6714 56.1146 30.0678C56.4638 31.8014 57.6462 32.9131 59.035 33.8615C60.154 34.6234 61.384 35.2375 62.2014 36.3647C62.3681 36.5979 62.5427 36.4736 62.6141 36.3103C62.8045 35.8439 63.2251 35.6184 63.5902 35.3386C64.6139 34.5689 65.7567 33.9704 66.7645 33.1774C67.8438 32.3223 68.5739 31.2728 68.7168 29.8968C68.812 29.0106 68.9152 28.1244 68.9945 27.2381C69.0977 26.0876 69.0818 26.072 67.9549 25.6833C66.217 25.0847 64.4076 24.8982 62.503 24.7971L62.5109 24.7893Z" fill="#FDCF39"/>
<path d="M26.8393 35.1442C26.8393 30.9541 26.8711 26.7639 26.8235 22.5738C26.8076 21.2211 27.6567 20.5137 28.8789 20.5137C33.3626 20.5292 37.8464 20.5137 42.3302 20.5137C43.6951 20.5137 45.068 20.5214 46.433 20.5292C47.7266 20.5292 48.2265 21.3766 48.3059 22.2706C48.3218 22.4183 48.3059 22.5582 48.3059 22.7059C48.3059 31.0551 48.29 39.4043 48.3218 47.7535C48.3218 49.3083 47.4329 50.0002 45.9886 50.0002C40.2986 50.0002 34.6086 50.0002 28.9185 50.0002C27.5932 50.0002 26.8393 49.2772 26.8314 47.9634C26.8235 43.6878 26.8314 39.4199 26.8314 35.1442H26.8393ZM31.0612 35.2142C31.1247 35.8205 31.1088 36.4269 31.1882 37.0333C31.3787 38.5259 31.9659 39.7775 33.196 40.7181C33.8308 41.2079 34.4657 41.6899 35.1403 42.1252C35.9815 42.6616 36.8227 43.2136 37.4099 44.0298C37.5766 44.263 37.6877 44.1775 37.7829 43.9754C37.9892 43.5556 38.3622 43.2835 38.7193 42.9959C39.4971 42.3662 40.3859 41.8998 41.2112 41.34C42.4492 40.4927 43.4174 39.4432 43.7983 37.9817C44.0523 37.0177 44.0681 36.0149 44.0602 35.0198C44.0602 34.7944 44.0046 34.5456 44.0761 34.3513C44.2665 33.8537 44.0205 33.6283 43.5999 33.4728C42.1953 32.952 40.7351 32.6099 39.2352 32.5399C38.1242 32.4855 37.0052 32.5477 35.8862 32.5944C34.3308 32.6566 32.8627 33.0064 31.4263 33.5117C31.1565 33.605 31.0136 33.7915 31.0453 34.1103C31.0771 34.4757 31.0453 34.8488 31.0453 35.222L31.0612 35.2142ZM35.5688 29.5081C34.3546 29.6325 33.1563 29.8268 32.0373 30.3088C30.7835 30.8452 30.2359 31.8247 30.4105 33.0453C30.4502 33.3251 30.5216 33.6361 30.9342 33.4339C32.6246 32.5866 34.4578 32.3301 36.3068 32.1668C37.7194 32.0502 39.1399 32.1279 40.5446 32.3534C41.8461 32.5633 43.1317 32.8431 44.3062 33.465C44.6157 33.6283 44.7189 33.5039 44.7585 33.2085C44.949 31.7626 44.1792 30.5731 42.7349 30.13C41.481 29.7413 40.1716 29.6092 38.8781 29.4226C38.7273 29.3993 38.4892 29.5081 38.4416 29.3138C38.394 29.1272 38.6003 29.0106 38.7511 28.9173C38.8781 28.8396 39.005 28.7696 39.132 28.6996C39.7748 28.342 40.4335 28 40.87 27.3781C41.0763 27.0826 41.3779 26.7017 41.1398 26.4219C40.9096 26.1498 40.4652 26.383 40.124 26.4918C40.0684 26.5074 40.0367 26.5773 39.9811 26.6007C39.3701 26.9272 38.9019 27.4713 38.2511 27.7279C37.6639 27.9611 37.2591 28.3653 37.0211 28.9095C36.8623 29.2671 36.6401 29.4304 36.2592 29.4926C36.0291 29.5314 35.7989 29.5003 35.5688 29.5159V29.5081Z" fill="#FDCF39"/>
<path d="M2 35.1752C2 30.9384 2.00794 26.6939 2 22.4571C2 21.7185 2.26982 21.151 2.89675 20.7468C3.07928 20.6302 3.26974 20.5447 3.49195 20.5369C4.3014 20.5291 5.11086 20.5136 5.91239 20.5214C6.21395 20.5214 6.39648 20.9101 6.3568 21.3376C6.22982 22.768 6.68217 24.0274 7.69002 25.038C8.36457 25.7143 9.22165 26.2119 10.0152 26.7638C10.9279 27.4013 11.9198 27.9921 12.5944 28.925C12.7293 29.1193 12.8483 29.1116 12.9912 28.9017C13.4832 28.1709 14.1736 27.6345 14.9355 27.1914C15.9354 26.6006 16.9036 25.9709 17.721 25.1469C18.1574 24.7115 18.5225 24.2218 18.6653 23.6465C18.7685 23.2189 18.9907 22.838 19.0621 22.3871C19.1415 21.9051 19.0859 21.4154 19.205 20.9256C19.2843 20.5991 19.3875 20.5214 19.7049 20.5058C20.443 20.4825 21.181 20.5525 21.9191 20.4903C22.5539 20.4358 23.3475 21.291 23.3951 21.944C23.5538 23.9963 23.4745 26.0564 23.4824 28.1165C23.4983 34.771 23.4824 41.4177 23.5142 48.0722C23.5142 49.1061 22.8555 50.039 21.6175 49.9846C20.9429 49.9535 20.2684 49.9612 19.5938 49.969C19.3161 49.969 19.197 49.8835 19.2288 49.6036C19.2526 49.4093 19.205 49.215 19.2447 49.0284C19.3875 48.2821 19.2685 48.0644 18.5463 47.8156C16.6338 47.1549 14.6419 46.8828 12.6261 46.945C10.8088 46.9994 8.99151 47.1004 7.25355 47.7146C7.10277 47.769 6.94405 47.8234 6.80121 47.8934C6.3806 48.0877 6.01555 48.2277 6.14253 48.8884C6.34093 49.9224 6.24569 49.9379 5.16642 49.9613C4.75375 49.969 4.34108 49.9768 3.92842 49.9613C2.72216 49.9224 2.00794 49.215 2.00794 48.0255C2 45.74 2.00794 43.4467 2.00794 41.1612C2.00794 39.1633 2.00794 37.1654 2.00794 35.1675L2 35.1752ZM5.57115 47.1626C5.57115 47.3725 5.5394 47.5902 5.57908 47.7923C5.6267 48.0411 5.7378 48.2432 6.03143 47.9556C6.20602 47.7845 6.45203 47.7146 6.68217 47.6213C7.99159 47.1082 9.34862 46.8595 10.7533 46.7428C12.396 46.6029 14.0308 46.6029 15.6576 46.8361C16.975 47.0227 18.2606 47.3181 19.4351 47.9867C19.6335 48.0955 19.7526 48.0877 19.8478 47.8545C20.0859 47.2948 19.824 46.0432 19.4034 45.5923C18.8161 44.9626 18.0622 44.6439 17.2448 44.4495C16.229 44.2085 15.2053 44.0686 14.1657 43.952C13.9673 43.9287 13.6737 43.9209 13.634 43.7188C13.6023 43.5633 13.8403 43.4078 14.007 43.3068C14.3958 43.0735 14.7926 42.8559 15.1894 42.6227C15.7132 42.3195 16.0941 41.8841 16.3163 41.3244C16.3798 41.1767 16.4116 41.0057 16.2925 40.8657C16.1735 40.7258 16.0386 40.8269 15.8957 40.8347C15.491 40.8735 15.1894 41.0679 14.872 41.2778C14.5625 41.4799 14.2689 41.6976 13.9276 41.8764C13.1658 42.2728 12.3563 42.6615 12.0548 43.5555C11.9437 43.8976 11.7294 43.952 11.3881 43.9675C9.99936 44.0453 8.61852 44.2474 7.29323 44.6905C6.2695 45.0326 5.53147 46.1132 5.55527 47.1704L5.57115 47.1626Z" fill="#FDCF39"/>
<path d="M114.951 37.3676C109.936 37.4687 106.587 33.5895 106.325 29.7181C105.944 23.9732 110.531 20.4904 114.999 20.5682C120.078 20.6537 123.657 24.0975 123.617 29.2128C123.578 33.5584 119.959 37.492 114.951 37.3754V37.3676ZM114.737 23.8177C113.062 23.7866 111.777 24.6262 110.825 25.9788C110.269 26.7718 110.055 27.6969 110.015 28.6608C109.96 30.169 110.325 31.5139 111.404 32.6333C113.348 34.6623 116.491 34.6468 118.38 32.8354C120.014 31.2651 120.284 29.3294 119.681 27.2848C119.014 25.0149 117.245 23.8099 114.737 23.8177Z" fill="#FDCF39"/>
<path d="M159.21 37.1578C157.813 37.1578 156.528 37.1578 155.25 37.1578C154.972 37.1578 154.829 36.9634 154.678 36.7613C153.21 34.7401 151.734 32.7189 150.258 30.7054C149.877 30.1923 149.869 30.1923 149.401 30.6588C149.163 30.8998 148.949 31.1796 148.679 31.374C148.004 31.8482 147.909 32.5012 147.933 33.2397C147.965 34.398 147.933 35.5641 147.949 36.7224C147.949 37.0723 147.846 37.1966 147.465 37.1889C146.576 37.1578 145.687 37.1655 144.798 37.1889C144.417 37.1966 144.33 37.0723 144.33 36.7147C144.346 31.8482 144.346 26.9817 144.362 22.1152C144.362 21.7032 144.156 21.159 144.457 20.9102C144.703 20.7081 145.243 20.8481 145.647 20.8403C146.29 20.8403 146.933 20.8481 147.576 20.8247C147.846 20.817 147.965 20.8714 147.957 21.1668C147.917 23.258 147.989 25.3569 147.909 27.4481C147.909 27.6036 147.647 27.798 147.893 27.899C147.973 27.9301 148.187 27.7047 148.314 27.5725C149.663 26.1499 151.004 24.7195 152.345 23.2891C153.012 22.5739 153.671 21.8587 154.329 21.1279C154.512 20.9336 154.726 20.8481 154.98 20.8403C156.147 20.8403 157.321 20.8403 158.488 20.8403C158.567 20.8403 158.662 20.8092 158.678 20.9258C158.686 21.0113 158.638 21.0657 158.575 21.1279C157.908 21.7809 157.369 22.5583 156.655 23.1802C155.448 24.2297 154.448 25.4891 153.298 26.593C153.091 26.7873 152.885 26.9817 152.695 27.1916C152.195 27.7358 152.202 27.7358 152.631 28.3033C154.218 30.4333 155.813 32.5556 157.369 34.709C157.94 35.5019 158.519 36.3026 159.218 37.15L159.21 37.1578Z" fill="#FDCF39"/>
<path d="M126.292 37.1498C125.8 37.1498 125.3 37.1498 124.808 37.1498C124.585 37.1498 124.474 37.1421 124.593 36.8544C125.157 35.5173 125.593 34.1102 126.268 32.8353C127.014 31.4282 127.474 29.9201 128.149 28.4897C128.855 26.9738 129.474 25.4112 130.133 23.8797C130.553 22.908 130.974 21.9363 131.394 20.9567C131.466 20.7857 131.569 20.7002 131.759 20.7002C132.68 20.7002 133.609 20.7002 134.529 20.7002C134.751 20.7002 134.839 20.8246 134.918 21.0034C136.18 24.0197 137.434 27.036 138.719 30.0445C139.299 31.3971 139.854 32.7576 140.433 34.118C140.798 34.9887 141.179 35.8671 141.576 36.73C141.751 37.111 141.671 37.1965 141.259 37.1809C140.497 37.1498 139.727 37.0954 138.965 37.2509C138.394 37.3675 137.886 36.8933 137.632 36.1548C137.346 35.3307 137.005 34.5222 136.696 33.706C136.632 33.5427 136.537 33.4961 136.37 33.5039C134.196 33.5039 132.021 33.5039 129.839 33.5039C129.601 33.5039 129.522 33.6205 129.45 33.7915C129.101 34.6933 128.649 35.5562 128.387 36.4891C128.292 36.8311 128.125 37.3053 127.498 37.1809C127.117 37.1032 126.712 37.1654 126.315 37.1654L126.292 37.1498ZM133.061 24.9525C132.712 25.7766 132.378 26.5306 132.069 27.2925C131.712 28.1632 131.402 29.0494 130.99 29.8968C130.807 30.2855 130.863 30.3166 131.244 30.3166C132.466 30.3166 133.68 30.3088 134.902 30.3476C135.291 30.3632 135.275 30.2544 135.164 29.9745C134.68 28.8162 134.22 27.6501 133.736 26.4918C133.529 26.002 133.394 25.4812 133.069 24.9525H133.061Z" fill="#FDCF39"/>
<path d="M166.305 20.5991C168.312 20.6924 170.193 21.0189 171.812 22.2006C171.899 22.2627 172.011 22.2627 172.066 22.3094C172.288 22.4726 172.518 22.6203 172.264 22.9702C171.772 23.631 171.32 24.3151 170.868 24.9992C170.693 25.2557 170.582 25.2713 170.304 25.0925C168.987 24.2373 167.582 23.6232 165.947 23.732C165.463 23.7631 165.035 23.9497 164.654 24.2451C164.106 24.6649 164.162 26.0253 164.916 26.4296C165.575 26.7872 166.265 27.0282 166.987 27.2225C168.431 27.6034 169.892 27.9377 171.169 28.7695C172.32 29.5158 172.86 30.5731 172.939 31.9024C173.01 33.0996 172.764 34.2191 172.137 35.253C171.852 35.7272 171.376 36.0148 170.931 36.3102C169.733 37.111 168.368 37.3597 166.947 37.3753C164.527 37.4064 162.416 36.5901 160.527 35.1597C160.226 34.9343 160.091 34.7788 160.424 34.429C160.948 33.877 161.408 33.2706 161.868 32.672C162.075 32.4 162.249 32.4077 162.519 32.5865C163.495 33.2473 164.503 33.8537 165.686 34.1335C166.574 34.3434 167.455 34.359 168.336 34.0947C168.931 33.9159 169.36 33.5583 169.455 32.9364C169.558 32.2756 169.32 31.7547 168.709 31.4049C167.773 30.8685 166.701 30.7441 165.694 30.4176C164.178 29.9278 162.606 29.5547 161.551 28.2331C161.154 27.7356 160.892 27.1836 160.821 26.5695C160.726 25.6755 160.678 24.7893 161.019 23.903C161.964 21.4853 163.924 20.7157 166.305 20.6224V20.5991Z" fill="#FDCF39"/>
<path d="M91.7468 23.856C90.0009 23.856 88.3661 23.856 86.7393 23.856C86.4139 23.856 86.0885 23.9027 85.7552 23.9104C85.4695 23.9104 85.3188 23.8094 85.3267 23.4829C85.3505 22.7443 85.3505 21.998 85.3426 21.2595C85.3426 20.9408 85.414 20.8164 85.787 20.8164C89.1518 20.832 92.5166 20.832 95.8814 20.8164C96.2861 20.8164 96.3893 20.8941 96.4449 21.3217C96.6353 22.7832 96.1909 23.8949 94.9688 24.82C94.072 25.4963 93.3419 26.3748 92.5404 27.1599C92.4611 27.2377 92.3341 27.2999 92.3817 27.432C92.4293 27.572 92.5642 27.572 92.6991 27.5953C93.707 27.8052 94.6752 28.1939 95.4132 28.8624C96.0322 29.4144 96.3734 30.2384 96.5322 31.0858C97.0004 33.6201 95.5719 36.4187 92.8261 37.1028C91.0643 37.5459 89.3502 37.4759 87.6837 36.924C86.8742 36.6519 86.0885 36.2166 85.4537 35.5558C85.2077 35.2992 84.8744 35.066 84.5887 34.8095C84.4538 34.6929 84.4379 34.5918 84.5887 34.4519C85.2711 33.7833 85.9536 33.1148 86.6282 32.4384C86.8186 32.2441 86.9615 32.3451 87.0726 32.5006C87.6598 33.3247 88.5249 33.7678 89.4613 34.0632C90.5406 34.4052 91.604 34.3975 92.5245 33.6201C93.1991 33.0526 93.215 32.2596 93.0166 31.5444C92.842 30.8992 92.2785 30.4716 91.5722 30.2928C90.7152 30.0752 89.8422 29.9896 88.9613 30.0441C88.5963 30.0674 88.3899 29.9974 88.3344 29.5854C88.263 29.0956 88.0884 28.6214 87.9614 28.1317C87.9138 27.9296 87.9376 27.7663 88.1043 27.5797C89.1439 26.4292 90.3025 25.403 91.3897 24.2914C91.5087 24.1747 91.6119 24.0426 91.7786 23.856H91.7468Z" fill="#FDCF39"/>
<path d="M124.133 45.4988C123.641 45.9964 123.316 46.6105 122.927 47.1858C122.8 47.3723 122.681 47.5667 122.546 47.7455C122.212 48.1964 122.197 48.1886 121.887 47.6911C121.427 46.9681 120.943 46.2607 120.467 45.5377C120.3 45.6699 120.371 45.8176 120.371 45.9497C120.371 47.108 120.371 48.2741 120.379 49.4324C120.379 49.7123 120.3 49.79 120.022 49.7978C118.792 49.8367 118.792 49.8445 118.792 48.6395C118.792 46.8981 118.8 45.1568 118.784 43.4154C118.784 43.0578 118.879 42.949 119.252 42.949C119.649 42.949 120.022 43.0656 120.411 43.0734C120.514 43.0734 120.562 43.1355 120.609 43.2366C120.998 44.0762 121.57 44.8069 122.046 45.5921C122.189 45.8331 122.292 45.8253 122.435 45.5766C122.855 44.8769 123.347 44.2161 123.72 43.4932C123.919 43.1122 124.165 43.0034 124.546 42.9878C125.649 42.9334 125.657 42.9257 125.665 43.9829C125.665 45.8331 125.665 47.6911 125.665 49.5413C125.665 49.7667 125.609 49.8522 125.363 49.8522C123.958 49.8289 124.189 50.0077 124.189 48.7717C124.189 47.7766 124.212 46.7737 124.22 45.7787C124.22 45.6932 124.268 45.5843 124.125 45.5066L124.133 45.4988Z" fill="#FDCF39"/>
<path d="M155.369 43.1434C155.496 43.3222 155.433 43.5165 155.433 43.7031C155.44 45.5222 155.44 47.3491 155.433 49.1682C155.433 49.8367 154.972 50.0777 154.345 49.7512C154.06 49.6035 153.893 49.347 153.71 49.1138C152.853 48.0254 152.012 46.9215 151.163 45.8332C151.1 45.7476 151.036 45.6544 150.973 45.5611C150.933 45.5844 150.901 45.5999 150.861 45.6233C150.861 46.836 150.838 48.0565 150.869 49.2692C150.877 49.6813 150.766 49.7745 150.361 49.759C149.385 49.7279 149.393 49.7512 149.393 48.7872C149.393 46.9992 149.393 45.2112 149.377 43.4232C149.377 43.1667 149.425 43.089 149.711 43.0579C150.449 42.9801 150.925 43.2056 151.369 43.843C152.171 44.9702 152.996 46.0975 154.012 47.2247C154.012 46.6028 154.012 46.0819 154.012 45.5611C154.012 44.8225 154.004 44.0762 153.996 43.3377C153.996 43.0656 154.028 42.9024 154.393 43.0501C154.687 43.1745 155.044 42.9957 155.353 43.1356H155.369V43.1434Z" fill="#FDCF39"/>
<path d="M172.629 47.4502C172.629 47.6912 172.597 47.94 172.629 48.1732C172.74 48.8107 172.407 49.1449 171.859 49.3859C170.47 50.0156 169.09 50.0934 167.732 49.3548C166.931 48.9195 166.55 48.1421 166.312 47.3336C165.796 45.5845 166.733 43.47 168.828 43.0035C169.947 42.7548 171.073 42.9025 172.073 43.5477C172.343 43.7187 172.407 43.882 172.153 44.1074C172.073 44.1852 172.002 44.2784 171.938 44.3717C171.692 44.6905 171.51 44.8148 171.05 44.5583C170.113 44.0375 169.01 44.0686 168.328 44.776C167.605 45.5223 167.431 46.7117 168.026 47.5979C168.605 48.4764 169.304 48.7718 170.566 48.4841C171.208 48.3364 171.367 48.0566 171.248 47.4113C171.216 47.217 171.105 47.2325 170.97 47.2325C170.693 47.2325 170.407 47.2325 170.129 47.2325C169.804 47.2325 169.645 47.0848 169.653 46.7739C169.653 46.7583 169.653 46.7428 169.653 46.7272C169.637 46.1623 169.912 45.8799 170.478 45.8799C171.089 45.8799 171.7 45.8877 172.311 45.8799C172.565 45.8799 172.661 45.9421 172.653 46.1986C172.637 46.6184 172.653 47.0382 172.653 47.458H172.637L172.629 47.4502Z" fill="#FDCF39"/>
<path d="M89.3977 45.88C89.7628 45.88 90.1199 45.8955 90.4849 45.88C90.7786 45.8644 90.8897 45.9577 90.8817 46.2609C90.8579 46.774 90.8579 47.2949 90.8817 47.8079C90.9214 49.145 90.8262 48.974 89.612 49.5415C88.5486 50.0468 87.4058 50.0391 86.3265 49.5493C85.033 48.9662 84.1759 47.3337 84.3584 45.9189C84.5251 44.6051 85.7472 43.2291 87.1122 43.0036C88.1835 42.8248 89.2708 42.9181 90.2389 43.5245C90.477 43.6722 90.5881 43.8199 90.3342 44.0453C90.3024 44.0764 90.3024 44.1386 90.2786 44.1697C89.9665 44.6206 89.5617 44.732 89.0644 44.504C87.9534 43.9987 87.0328 44.1697 86.3742 45.0093C85.7948 45.7478 85.7234 47.0694 86.4535 47.9245C87.0963 48.6708 88.493 48.8108 89.2866 48.2122C89.5961 47.979 89.5168 47.6369 89.485 47.3415C89.4533 47.0305 89.1517 47.186 88.9613 47.1471C88.8978 47.1316 88.8263 47.1471 88.7629 47.1471C87.9137 47.1471 87.9375 47.1471 87.9058 46.3153C87.8978 45.95 87.9851 45.8334 88.3581 45.8722C88.6994 45.9033 89.0485 45.8722 89.3977 45.8722V45.88Z" fill="#FDCF39"/>
<path d="M101.183 49.7434C101.651 48.6473 102.095 47.59 102.548 46.5328C102.889 45.732 103.278 44.9469 103.524 44.1151C103.635 43.7264 103.952 43.4465 104.024 43.05C104.04 42.9801 104.079 42.949 104.214 42.949C105.436 42.9723 105.428 42.9645 105.897 44.0606C106.301 45.0013 106.738 45.9264 107.135 46.867C107.515 47.7533 107.865 48.655 108.246 49.549C108.349 49.7823 108.198 49.8445 108.015 49.8367C107.127 49.7978 106.777 50.1165 106.492 48.8494C106.396 48.4296 106.206 48.1964 105.674 48.2508C105.024 48.313 104.357 48.2819 103.698 48.2508C103.373 48.2352 103.206 48.3519 103.111 48.6317C103 48.9582 102.746 49.2303 102.754 49.6035C102.754 49.8056 102.595 49.8367 102.413 49.8522C102.016 49.8911 101.643 49.7278 101.183 49.7434ZM104.722 44.6748C104.405 45.46 104.119 46.113 103.881 46.7738C103.801 46.9836 104.016 46.9759 104.167 46.9759C104.563 46.9759 104.96 46.9681 105.349 46.9914C105.595 47.007 105.658 47.007 105.571 46.7193C105.365 46.0663 105.055 45.46 104.722 44.6826V44.6748Z" fill="#FDCF39"/>
<path d="M138.283 46.4938C138.283 47.4966 138.283 48.4917 138.283 49.4945C138.283 49.7588 138.219 49.8521 137.926 49.8521C136.743 49.8754 136.735 49.8832 136.735 48.7637C136.735 46.9913 136.735 45.2188 136.728 43.4464C136.728 43.0888 136.831 42.9722 137.204 42.9722C138.283 42.9722 138.275 42.9644 138.275 43.9828C138.275 44.8224 138.275 45.6619 138.275 46.5015L138.283 46.4938Z" fill="#FDCF39"/>
<path d="M15.2769 24.5405C16.372 23.4599 17.1339 22.1928 17.61 20.7002C18.1417 21.7186 16.253 24.2762 15.2769 24.5405Z" fill="#FDCF39"/>
<path d="M155.369 43.1438H155.353C155.337 43.0894 155.353 43.0505 155.416 43.0427C155.424 43.0427 155.448 43.0583 155.456 43.0661C155.456 43.1205 155.44 43.1594 155.377 43.1516L155.369 43.1438Z" fill="#FDCF39"/>
<path d="M67.2169 28.3884C67.1772 30.0365 65.8519 32.1277 64.5425 32.6563C65.1932 32.0655 65.717 31.3969 66.1614 30.6584C66.5979 29.9354 66.8518 29.1425 67.2089 28.3884H67.2169Z" fill="#FDCF39"/>
<path d="M40.3062 39.6695C40.4808 39.203 40.8777 38.9152 41.1079 38.5109C41.4731 37.8654 41.9097 37.2589 42.0923 36.5357C42.1161 36.4424 42.1558 36.388 42.251 36.4035C42.4098 36.4346 42.2828 36.5202 42.2828 36.5746C42.1875 37.5777 41.6715 38.402 41.0365 39.1407C40.8618 39.3429 40.711 39.6618 40.3062 39.6618V39.6695Z" fill="#FDCF39"/>
</svg>
