<svg width="175" height="70" viewBox="0 0 175 70" fill="none" xmlns="http://www.w3.org/2000/svg">
<path d="M18.4045 33.3574C18.5106 33.573 18.7084 33.4672 18.8583 33.4672C23.7095 33.4735 28.5585 33.4735 33.4097 33.4672C33.5596 33.4672 33.7595 33.5709 33.8636 33.3512C35.0711 32.2608 35.1732 30.7352 35.4709 29.2862C35.7561 28.9235 35.6125 28.4985 35.6125 28.1067C35.6208 24.1538 35.6145 20.1987 35.5937 16.2457C35.5916 15.856 35.7686 15.4331 35.4834 15.0621C34.8942 10.4354 31.8023 7.36129 27.2385 6.86795C24.2945 6.62749 21.3505 6.66688 18.4045 6.84514C17.9235 7.0089 18.1171 7.42141 18.1171 7.72405C18.1067 15.9762 18.1067 24.2263 18.1171 32.4785C18.1171 32.7811 17.9235 33.1936 18.4065 33.3574H18.4045ZM24.0634 31.1477C23.9135 25.9116 23.8948 20.6754 24.0072 15.4414C23.8948 20.6754 23.9135 25.9116 24.0634 31.1497V31.1477ZM29.5142 25.385C29.5038 22.2363 29.6016 19.0876 29.408 15.9368C29.6016 19.0835 29.5038 22.2343 29.5142 25.383V25.385ZM29.408 15.9368C29.2248 17.4666 29.3206 19.0047 29.3393 20.5407C29.3684 23.2417 29.2185 25.9447 29.4247 28.6416C29.1665 30.561 28.1692 31.4462 26.1975 31.3736C25.4896 31.3467 24.7213 31.697 24.0655 31.1497C24.0967 30.9197 24.153 30.6875 24.153 30.4533C24.1571 24.9352 24.1571 19.4172 24.153 13.8992C24.153 13.6649 24.0947 13.4307 24.0634 13.1985C26.818 12.5477 29.2602 12.8503 29.408 15.9368Z" fill="#FDCF39"/>
<path d="M119.748 35.5712C118.432 35.6314 117.11 35.6396 115.796 35.5692C114.976 35.5236 114.83 35.8303 114.834 36.5724C114.864 41.8542 114.853 47.1338 114.843 52.4155C114.843 52.9296 114.816 53.4582 114.691 53.9536C114.237 55.7612 112.107 56.7022 110.475 55.8379C109.273 55.2015 108.834 54.1733 108.84 52.8467C108.865 47.4282 108.84 42.0076 108.876 36.589C108.88 35.8138 108.736 35.4883 107.87 35.5422C106.558 35.6231 105.232 35.6168 103.92 35.5422C103.079 35.4966 102.884 35.7744 102.888 36.5807C102.919 42.1713 102.892 47.764 102.898 53.3566C102.904 58.8 108.116 63.0556 113.302 62.0648C117.601 61.2419 120.683 57.7325 120.768 53.3545C120.82 50.6287 120.779 47.9008 120.779 45.1749H120.787C120.787 42.3102 120.752 39.4434 120.808 36.5807C120.824 35.7267 120.537 35.536 119.75 35.5733L119.748 35.5712Z" fill="#FDCF39"/>
<path d="M96.9826 36.1101C96.7744 35.8344 96.6079 35.5567 96.1852 35.5587C93.1184 35.5691 90.0516 35.5649 86.7161 35.5649C87.8758 36.5164 88.8273 37.2896 89.7705 38.0711C91.3133 39.348 92.3355 40.9358 92.9039 42.8719C93.4473 44.725 93.3724 46.6031 93.4057 48.4832C93.4328 50.0005 93.4286 51.52 93.4203 53.0394C93.412 54.7267 92.1336 55.8627 90.5138 56.2441C89.4852 56.4866 87.957 55.3486 87.499 54.0136C86.941 52.3864 87.3158 50.7136 87.2533 48.9662C85.5502 48.9662 83.7534 48.9662 81.9566 48.9662C81.6256 48.9662 81.4382 49.0802 81.4444 49.445C81.4861 51.5075 81.1696 53.6156 81.713 55.6222C82.7977 59.6249 86.7265 62.1352 90.3326 62.1249C94.3093 62.1124 99.1375 59.142 99.3083 53.3545C99.3999 50.2161 99.3936 47.0736 99.3437 43.9332C99.2999 41.1203 98.7357 38.4317 96.9806 36.1143L96.9826 36.1101Z" fill="#FDCF39"/>
<path d="M99.494 16.0717C99.419 14.005 99.0068 12.0544 97.6576 10.365C95.2216 7.31788 91.449 6.25449 87.7596 7.32203C84.4013 8.29421 81.4448 12.1415 81.5677 15.7566C81.6863 19.2391 81.5593 22.7298 81.6135 26.2164C81.6509 28.5899 82.4671 30.7332 83.8017 32.6983C84.0848 33.117 84.3805 33.2891 84.8927 33.2849C87.77 33.2601 90.6495 33.2725 93.6705 33.2725C93.4269 32.9056 93.227 32.7253 92.9772 32.5408C89.8417 30.2357 87.4327 27.4974 87.4931 23.3019C87.5285 20.7834 87.5098 18.2627 87.5556 15.7442C87.5702 14.9046 87.8075 14.0092 88.4821 13.5303C89.469 12.8297 90.6745 12.6618 91.8217 13.1738C92.9647 13.6837 93.454 14.687 93.4831 15.9017C93.5081 17.0397 93.5144 18.1819 93.479 19.3199C93.4623 19.8568 93.6226 20.0433 94.1765 20.033C95.7359 19.9998 97.2974 20.006 98.8589 20.033C99.3524 20.0413 99.5231 19.8941 99.5085 19.3904C99.4752 18.2876 99.5314 17.1807 99.4919 16.0758L99.494 16.0717Z" fill="#FDCF39"/>
<path d="M124.84 32.2609C124.838 33.0444 125.005 33.3015 125.846 33.2932C130.212 33.2476 134.578 33.2725 138.946 33.2725C140.02 33.2725 140.538 32.7211 140.499 31.6183C140.479 31.4649 140.397 31.4172 140.254 31.4815C137.416 31.4836 134.578 31.4691 131.74 31.5022C131.08 31.5105 130.853 31.3447 130.857 30.6503C130.884 24.9996 130.884 19.351 130.857 13.7003C130.853 13.0058 131.082 12.84 131.74 12.8483C134.578 12.8815 137.416 12.867 140.254 12.869C140.397 12.9333 140.479 12.8877 140.499 12.7343C140.51 11.0781 140.485 9.42182 140.543 7.76766C140.568 7.05251 140.374 6.83901 139.635 6.84522C135.026 6.88668 130.418 6.89705 125.809 6.86595C125.021 6.85973 124.838 7.07531 124.84 7.84021C124.869 15.9825 124.869 24.1227 124.84 32.265V32.2609Z" fill="#FDCF39"/>
<path d="M41.3341 33.2954C45.873 33.2539 50.4118 33.2809 54.9506 33.2622C55.2921 33.2622 55.8834 33.5047 55.9459 33.057C56.0146 32.5595 56.3414 31.9045 55.6939 31.4775C52.6916 31.295 49.6914 31.3344 46.685 31.4588C46.254 31.3158 46.4185 30.9447 46.4185 30.669C46.4081 25.008 46.4081 19.3449 46.4185 13.6838C46.4185 13.4081 46.2561 13.0391 46.6829 12.8899C49.6893 13.0101 52.6958 13.0619 55.7043 12.8837C55.7751 12.8215 55.9125 12.7634 55.9167 12.6971C56.0312 10.8149 56.0187 8.93274 55.9396 7.04849C55.9375 6.9863 55.798 6.93033 55.7231 6.87229C55.6231 6.65256 55.4254 6.75414 55.2754 6.75414C50.5846 6.7417 45.8917 6.73548 41.2009 6.73755C41.0198 6.73755 40.7887 6.61733 40.6512 6.86193C40.264 7.09409 40.4243 7.47965 40.4222 7.79887C40.4056 15.9723 40.4118 24.1457 40.3785 32.3191C40.3743 33.0757 40.5367 33.3037 41.3341 33.2954Z" fill="#FDCF39"/>
<path d="M159.547 6.8534C154.211 6.86376 148.873 6.86998 143.537 6.84718C142.906 6.84511 142.797 7.09593 142.808 7.64317C142.835 9.09212 142.845 10.5411 142.795 11.99C142.772 12.6554 142.947 12.8979 143.649 12.8731C145.034 12.8233 146.422 12.9 147.807 12.842C148.592 12.8109 148.873 12.9995 148.856 13.8494C148.8 16.9193 148.833 19.9893 148.833 23.0613C148.833 26.2017 148.852 29.3401 148.819 32.4805C148.812 33.1107 148.967 33.3138 149.62 33.2889C150.969 33.235 152.325 33.2185 153.674 33.291C154.584 33.3408 154.89 33.1231 154.882 32.1343C154.83 26.0276 154.871 19.9209 154.836 13.8162C154.832 13.043 155.021 12.7984 155.808 12.842C157.051 12.9104 158.302 12.842 159.55 12.8668C160.064 12.8772 160.297 12.7383 160.284 12.1704C160.255 10.6178 160.253 9.06517 160.295 7.51258C160.312 6.91144 160.033 6.8534 159.545 6.8534H159.547Z" fill="#FDCF39"/>
<path d="M139.681 35.5423C135.036 35.5858 130.391 35.5817 125.744 35.5444C124.986 35.5382 124.838 35.7911 124.843 36.4855C124.872 40.5919 124.857 44.6983 124.857 48.8046C124.857 52.911 124.876 57.0879 124.84 61.2275C124.834 61.9592 125.038 62.1706 125.765 62.1395C127.114 62.0815 128.472 62.0732 129.819 62.1395C130.662 62.181 130.93 61.9633 130.926 61.0741C130.891 53.5516 130.924 46.027 130.897 38.5045C130.895 37.7085 131.08 37.4473 131.917 37.466C134.516 37.5219 137.118 37.4473 139.717 37.5074C140.572 37.5261 140.541 37.1177 140.549 36.5124C140.56 35.8678 140.493 35.534 139.679 35.5402L139.681 35.5423Z" fill="#FDCF39"/>
<path d="M154.876 36.5601C154.88 35.7206 154.632 35.5092 153.83 35.5444C152.446 35.6066 151.055 35.6025 149.67 35.5444C148.958 35.5154 148.817 35.7683 148.821 36.4213C148.848 40.565 148.836 44.7087 148.836 48.8524C148.836 52.1669 148.829 55.4815 148.838 58.796C148.84 59.8615 148.469 61.2835 149.01 61.897C149.627 62.5977 151.09 62.094 152.184 62.1085C153.037 62.1209 154.145 62.4899 154.686 61.9468C155.225 61.4037 154.846 60.3051 154.849 59.451C154.863 51.8207 154.842 44.1904 154.878 36.5581L154.876 36.5601Z" fill="#FDCF39"/>
<path d="M71.4257 35.5423C69.9704 35.5858 68.5129 35.592 67.0597 35.5423C66.3726 35.5195 66.1936 35.735 66.1936 36.4087C66.2123 44.6899 66.1977 52.9711 66.2061 61.2544C66.2061 61.557 66.0041 61.9654 66.4809 62.1395C68.2464 62.3447 70.012 62.3323 71.7817 62.1457C72.3168 62.1208 72.219 61.7208 72.219 61.3912C72.2252 53.0416 72.2231 44.6899 72.2502 36.3403C72.2523 35.6832 72.0482 35.5257 71.4236 35.5443L71.4257 35.5423Z" fill="#FDCF39"/>
<path d="M172.754 24.4274C169.479 27.487 166.325 30.6689 163.154 33.8342C162.625 34.3628 162.736 34.6322 163.221 35.1049C166.265 38.0691 169.275 41.0706 172.296 44.0577C172.5 44.2587 172.715 44.4494 173 44.7148V24.3652C172.869 24.3963 172.792 24.3922 172.752 24.4274H172.754Z" fill="#FDCF39"/>
<path d="M2.00278 25.2338C2.00278 28.4095 1.99653 31.5851 2.00278 34.7587C2.0111 37.8639 2.03817 40.967 2.05691 44.0722C2.12145 44.1676 2.17767 44.3313 2.2547 44.3438C2.45666 44.3769 2.50871 44.2152 2.50663 44.0411C3.69547 43.2472 4.52412 42.0843 5.52766 41.1038C7.82206 38.8672 10.0623 36.5766 12.1943 34.4374C8.86099 31.1146 5.44646 27.713 2.00278 24.2844V25.2338Z" fill="#FDCF39"/>
<path d="M76.9141 6.73734C71.7111 6.73734 66.5081 6.74356 61.303 6.75392C61.1448 6.75392 60.9532 6.67308 60.8304 6.86378C60.566 6.86793 60.3786 6.99437 60.2703 7.23898C60.0392 8.89728 60.11 10.5577 60.2204 12.2222C60.2329 12.6575 60.4577 12.8855 60.8991 12.898C62.5731 13.0451 64.2449 13.0265 65.9231 12.9083C66.4519 13.155 66.1916 13.6338 66.1937 13.9904C66.2125 20.1323 66.2166 26.2743 66.1937 32.4163C66.1916 33.063 66.3207 33.3242 67.0349 33.2931C68.4527 33.2351 69.8789 33.2247 71.2968 33.2952C72.0963 33.3366 72.2587 33.0817 72.2545 32.323C72.2212 26.2163 72.2316 20.1075 72.2483 14.0007C72.2483 13.6318 72.013 13.1674 72.4939 12.8876C74.1159 13.0057 75.7378 13.0596 77.3617 12.8627C77.8198 10.8582 77.8323 8.85168 77.3659 6.8472C77.2618 6.62955 77.064 6.73526 76.9141 6.73526V6.73734Z" fill="#FDCF39"/>
<path d="M36.2 45.3367C36.1625 43.5333 36.3228 41.7257 36.0917 39.9244C36.0751 39.7586 36.073 39.5865 36.0355 39.4207C35.7378 38.0754 35.6337 36.6472 34.4802 35.6501C34.4657 35.619 34.4511 35.561 34.4365 35.561C29.1065 35.5568 23.7786 35.5548 18.4486 35.5589C18.434 35.5589 18.4194 35.6169 18.4007 35.648C19.3189 35.7164 20.2391 35.7434 21.1594 35.7517C20.2391 35.7455 19.3189 35.7164 18.4007 35.648C17.9239 35.8159 18.1217 36.2264 18.1196 36.529C18.1071 44.7708 18.1071 53.0105 18.1196 61.2523C18.1196 61.555 17.9177 61.9633 18.3945 62.1375C19.0441 62.4173 19.7249 62.2577 20.3849 62.2452C22.7355 62.2038 25.0924 62.4152 27.443 62.1395C31.9964 61.9924 35.8107 58.4 36.0938 53.5288C36.302 53.3774 36.2167 53.1536 36.2167 52.9649C36.2208 50.4236 36.25 47.8801 36.1979 45.3388L36.2 45.3367ZM24.7613 56.1738C25.3443 56.2567 25.9293 56.267 26.5144 56.2152C25.9293 56.2691 25.3443 56.2567 24.7613 56.1738ZM27.2181 56.1199C26.2854 55.9748 25.3484 55.981 24.4095 56.1157C23.9868 55.9603 24.1534 55.5934 24.1534 55.3177C24.143 49.6607 24.143 44.0038 24.1534 38.3469C24.1534 38.0712 23.9889 37.7064 24.4095 37.5489C25.3401 37.6836 26.2729 37.6795 27.2056 37.5509C26.6227 37.4369 26.0418 37.3955 25.4588 37.4224C26.0418 37.3955 26.6247 37.4369 27.2056 37.5509C28.9524 37.7707 29.7644 38.5625 30.0747 40.3473C30.0434 41.1598 29.9893 41.9745 29.9893 42.7912C29.9935 46.2799 30.0143 49.7685 30.0268 53.2572C29.8373 54.9881 28.9587 55.8856 27.2181 56.124V56.1199ZM30.1767 42.6751C30.1767 41.9973 30.2849 41.3112 30.1496 40.6354C30.287 41.3091 30.1767 41.9973 30.1767 42.6751Z" fill="#FDCF39"/>
<path d="M46.7022 56.101C46.2962 56.0077 46.4316 55.6719 46.4316 55.4294C46.4253 49.6668 46.4295 43.9041 46.4336 38.1415C46.4336 37.9156 46.3608 37.642 46.6731 37.53C49.6816 37.6585 52.6902 37.7207 55.7029 37.5279C56.2879 36.9973 56.0547 36.2946 55.9048 35.737C55.7986 35.3431 55.1636 35.567 54.7701 35.5649C50.3 35.5504 45.8299 35.5753 41.3618 35.538C40.5998 35.5318 40.3728 35.7038 40.3749 36.4977C40.4062 44.7416 40.3916 52.9834 40.4041 61.2273C40.4041 61.5341 40.2146 61.9362 40.6622 62.1331C40.8767 62.4005 41.1723 62.2492 41.4201 62.2492C45.7986 62.2616 50.1771 62.2616 54.5536 62.2492C54.8097 62.2492 55.1011 62.3819 55.3323 62.1435C55.8632 62.1684 55.7924 61.7952 55.7986 61.4532C55.8153 60.5432 55.8569 59.6374 55.9485 58.7253C56.0318 57.8899 56.3504 56.9343 55.6924 56.1342C52.6964 55.9538 49.7004 55.9849 46.7022 56.0989V56.101Z" fill="#FDCF39"/>
<path d="M103.056 33.2475C104.651 33.2558 106.25 33.2185 107.841 33.289C108.663 33.3263 108.876 33.0817 108.869 32.2649C108.836 26.7739 108.846 21.2849 108.869 15.7938C108.878 13.7354 110.878 12.3922 112.846 13.0804C114.222 13.5613 114.876 14.6205 114.878 16.4322C114.884 21.716 114.901 26.9998 114.859 32.2815C114.853 33.1148 115.092 33.3263 115.892 33.2869C117.208 33.2205 118.53 33.2143 119.844 33.289C120.649 33.3346 120.806 33.0672 120.801 32.3105C120.768 26.9231 120.762 21.5357 120.793 16.1503C120.806 14.0277 120.304 12.1103 119.036 10.3753C116.475 6.87208 111.601 5.99732 108.114 7.67843C104.587 9.3782 102.917 12.3424 102.908 16.2229C102.894 21.8176 102.9 27.4102 102.898 33.005C102.842 33.1542 102.896 33.2351 103.056 33.2433V33.2475Z" fill="#FDCF39"/>
</svg>
