<svg width="175" height="70" viewBox="0 0 175 70" fill="none" xmlns="http://www.w3.org/2000/svg">
<path d="M169.422 64.8132H5.48535C5.45401 64.5708 5.22317 64.6164 5.08638 64.5737C3.60446 64.1031 2.67256 63.1077 2.21659 61.6446C2.16529 61.482 2.09689 61.3337 2 61.194V18.841C2.25649 18.1821 2.39898 17.4834 2.8407 16.8959C3.35937 16.2085 4.00914 15.6552 4.77574 15.3444C5.35426 15.1105 6.02682 14.9964 6.68799 15.0763C6.73928 15.0649 6.78773 15.0506 6.83903 15.0392C7.15821 15.0335 7.47739 15.0221 7.79942 15.0221C58.8771 15.0221 109.955 15.0221 161.03 15.0221C161.503 15.0221 161.979 15.0335 162.452 15.0392C162.597 15.1133 162.742 15.1162 162.879 15.0164C163.64 14.3262 164.341 13.5761 165.039 12.826C166.792 10.9493 168.536 9.06698 170.28 7.18463C170.836 6.58569 171.389 5.98676 171.936 5.38213C172.204 5.08551 172.546 5.18534 172.839 5.24238C173.093 5.29371 172.97 5.58748 172.97 5.77001C172.976 23.8805 172.976 41.9911 172.97 60.1045C172.97 60.5351 172.945 60.9715 172.834 61.3908C172.389 63.0621 171.386 64.1915 169.662 64.6136C169.559 64.6393 169.422 64.6535 169.417 64.8132H169.422ZM80.2338 31.1162C80.2167 31.0905 80.1967 31.0677 80.1768 31.0421C80.1739 29.5305 80.1682 28.016 80.1654 26.5044C80.1654 25.6203 80.1654 25.6175 79.2762 25.6631C79.0825 25.6716 78.8716 25.6602 78.7177 25.8085C78.3358 26.1822 77.9511 26.5529 77.5834 26.9408C75.4233 29.2281 73.2916 31.5412 71.0972 33.7971C70.5329 34.379 70.2309 34.9494 70.3363 35.7508C70.3733 36.0246 70.436 36.1529 70.7324 36.1501C71.5731 36.1415 72.4138 36.1501 73.2574 36.1501C73.833 36.1501 73.833 36.1501 73.833 36.7405C73.833 38.8681 73.8444 40.9957 73.8273 43.1234C73.8188 44.1615 73.9584 45.1626 74.3261 46.1408C74.8219 47.4556 75.674 48.4453 76.9166 49.0813C78.0537 49.6631 79.2876 49.8884 80.5615 49.8884C81.9123 49.8884 83.2632 49.8884 84.614 49.8884C84.7137 49.9312 84.8135 49.9455 84.9104 49.8827C84.9873 49.8114 84.9902 49.7173 84.9902 49.6203C84.9902 47.9319 84.9845 46.2407 84.9902 44.5522C84.9902 44.307 84.9047 44.2242 84.6567 44.23C83.8759 44.2442 83.0893 44.2813 82.3142 44.2214C81.2882 44.1415 80.6698 43.6881 80.4276 42.6385C80.2908 42.0453 80.3107 41.4521 80.3193 40.8503C80.3335 39.4442 80.325 38.041 80.325 36.6349C80.3991 36.5408 80.4019 36.4467 80.3164 36.3583C80.2623 36.0987 80.4475 36.1444 80.5929 36.1444C81.8781 36.1444 83.1634 36.1444 84.4458 36.1444C84.5826 36.1444 84.7308 36.1872 84.8505 36.0731C84.9218 36.0103 84.936 35.9419 84.8762 35.8649C84.8762 35.8192 84.8762 35.7708 84.8762 35.7251C84.9218 35.6766 84.9161 35.6282 84.8733 35.5797C84.8676 35.5084 84.8619 35.4371 84.8534 35.3686C84.8591 35.3458 84.8591 35.323 84.8534 35.3002C84.8591 33.9768 84.8676 32.6506 84.8733 31.3273C84.879 31.3187 84.8904 31.3073 84.8876 31.3016C84.8819 31.2845 84.8705 31.2674 84.8619 31.2503C84.8534 31.2303 84.8477 31.2103 84.8477 31.1904C84.8306 31.1447 84.7992 31.1248 84.7508 31.1305C84.6995 31.1333 84.6539 31.1248 84.6254 31.0734C84.5741 31.0192 84.5314 31.0249 84.4972 31.0934C84.4373 31.1504 84.3661 31.1305 84.2948 31.1248C84.2578 31.1248 84.2207 31.1276 84.1837 31.1305C82.8898 31.179 81.5932 31.1704 80.2965 31.1476C80.2708 31.1362 80.2452 31.1248 80.2224 31.1162H80.2338ZM88.0338 28.7062C88.068 28.7747 88.1364 28.7946 88.2019 28.8175C88.2247 28.8175 88.2504 28.8118 88.2732 28.8118C88.4157 28.8089 88.5582 28.8032 88.6978 28.8003C88.7434 28.846 88.7919 28.846 88.8375 28.8003C90.4277 28.8003 92.015 28.8003 93.6052 28.7975C93.8161 28.8688 94.0299 28.8659 94.2436 28.8032C94.292 28.7918 94.3405 28.7832 94.3861 28.7718C94.4545 28.7405 94.463 28.6863 94.4488 28.6207C94.3747 26.9693 94.4003 25.3151 94.4317 23.6638C94.4659 23.6153 94.4687 23.564 94.4488 23.5098C94.3661 23.2502 94.1439 23.3301 93.9729 23.3301C92.092 23.3187 90.2139 23.3187 88.333 23.3158C88.2304 23.3158 88.1164 23.2873 88.0338 23.3786C88.0253 23.3843 88.011 23.3928 88.011 23.3986C88.011 23.4185 88.0195 23.4356 88.0252 23.4556C88.048 25.1098 88.0594 26.764 88.0252 28.4182C88.0195 28.4267 88.0053 28.4353 88.0053 28.441C88.0082 28.4581 88.0167 28.4781 88.0252 28.4952C88.0252 28.5408 88.0252 28.5864 88.0281 28.6321C88.0224 28.6406 88.0082 28.6492 88.011 28.6549C88.0167 28.672 88.0253 28.6891 88.0338 28.7091V28.7062ZM87.9939 31.1932C87.9939 32.6335 87.9854 34.0766 87.9854 35.5169C87.9854 40.2884 87.9911 45.0628 87.9939 49.8342C88.0253 49.8542 88.0566 49.877 88.0879 49.897C89.8092 49.8913 91.5306 49.8827 93.2519 49.8799C93.5568 49.8799 93.8646 49.897 94.1695 49.9084C94.2465 49.9369 94.3205 49.9398 94.3918 49.8941C94.4146 49.6146 94.4573 49.338 94.4573 49.0585C94.4602 43.2488 94.4602 37.4364 94.4602 31.6267C94.4602 31.544 94.4516 31.4613 94.4602 31.3786C94.483 31.1704 94.3804 31.1134 94.1894 31.1219C93.8104 31.139 93.4314 31.1419 93.0524 31.1476C91.4679 31.1675 89.8805 31.1875 88.296 31.1333C88.2589 31.1333 88.219 31.1305 88.182 31.1276C88.1506 31.1276 88.1164 31.1276 88.0851 31.1305C88.0538 31.1504 88.0224 31.1733 87.9939 31.1932ZM44.1662 24.451C43.9525 24.3654 43.7302 24.3854 43.5051 24.3882C41.7182 24.4167 39.9285 24.4338 38.1417 24.3797C38.1132 24.3797 38.0818 24.3797 38.0533 24.3797C37.8253 24.3654 37.7085 24.4396 37.7199 24.7019C37.737 25.1155 37.7113 25.529 37.7113 25.9426C37.7113 33.8143 37.7113 41.6831 37.6971 49.5547C37.6971 49.9227 37.851 49.9112 38.1132 49.9027C40.0083 49.8542 41.9034 49.8656 43.7986 49.8941C43.8299 49.8941 43.8613 49.8913 43.8926 49.8884C43.9724 49.8542 44.0836 49.8884 44.1235 49.7743C44.1406 49.7487 44.1577 49.7259 44.1776 49.7002C44.1833 49.6546 44.189 49.6089 44.1947 49.5604C44.2004 49.5519 44.2118 49.5433 44.209 49.5376C44.209 49.5205 44.2004 49.5034 44.1947 49.4863C44.1947 49.1326 44.1919 48.7761 44.1919 48.4225C44.1919 45.1369 44.1976 41.8485 44.1976 38.5629C44.1976 34.1879 44.1976 29.8157 44.2004 25.4406C44.2061 25.4321 44.2204 25.4235 44.2175 25.4178C44.2147 25.4007 44.2061 25.3807 44.1976 25.3636C44.1976 25.1297 44.1976 24.893 44.1976 24.6592C44.2489 24.5793 44.2574 24.508 44.1634 24.451H44.1662ZM131.015 50.4988C131.041 50.4988 131.066 50.4988 131.092 50.4988C131.16 50.4988 131.232 50.4988 131.3 50.4988C131.326 50.4988 131.351 50.4988 131.377 50.4988C131.953 50.4588 132.528 50.4959 133.104 50.4132C135.29 50.1023 137.122 49.1469 138.618 47.5241C139.149 46.948 139.482 46.2663 139.827 45.579C140.297 44.6435 140.528 43.651 140.536 42.63C140.565 38.8139 140.548 35.0007 140.545 31.1847C140.417 31.0306 140.257 31.0991 140.106 31.1219C139.978 31.1219 139.847 31.1248 139.718 31.1276C139.656 31.1276 139.593 31.1276 139.53 31.1276C137.815 31.1733 136.102 31.179 134.386 31.1276C134.349 31.1276 134.309 31.1248 134.272 31.1219C134.241 31.1219 134.21 31.1219 134.176 31.1248C134.05 31.139 134.007 31.2018 134.067 31.3187C134.07 31.3529 134.079 31.39 134.076 31.4242C134.036 34.9893 134.161 38.5544 133.993 42.1166C133.956 42.8724 133.668 43.5455 133.033 44.0588C132.44 44.538 131.793 44.6891 131.055 44.6635C130.14 44.6321 129.168 43.9447 128.815 43.1005C128.581 42.5387 128.536 41.954 128.533 41.3722C128.519 38.1465 128.524 34.9209 128.524 31.6952C128.524 31.564 128.524 31.4356 128.516 31.3044C128.51 31.179 128.442 31.0734 128.319 31.1191C127.923 31.2617 127.527 31.1476 127.131 31.1476C125.674 31.1504 124.218 31.139 122.762 31.1333C122.711 31.0991 122.656 31.102 122.599 31.1248C122.543 31.1248 122.483 31.1219 122.426 31.1191C122.394 31.1191 122.363 31.1162 122.332 31.1134C122.044 31.0592 122.052 31.236 122.052 31.4413C122.055 34.9608 122.052 38.4802 122.061 41.9968C122.061 42.5587 122.052 43.1205 122.172 43.6824C122.22 43.9134 122.48 44.0845 122.431 44.2128C122.303 44.5522 122.457 44.8032 122.554 45.0856C122.933 46.1722 123.506 47.1476 124.332 47.9519C124.925 48.5251 125.569 49.0471 126.319 49.4093C127.8 50.1223 129.365 50.4845 131.012 50.4959L131.015 50.4988ZM68.2274 39.1105V39.0791C68.2274 36.5037 68.2274 33.9283 68.2331 31.3529C68.2331 31.2018 68.1505 31.0848 68.045 31.1305C67.7572 31.256 67.4922 31.1162 67.2186 31.1162C66.033 31.1162 64.8475 31.1162 63.6648 31.0991C63.4511 31.0991 63.3371 31.1733 63.2687 31.3643C63.149 31.6895 63.0208 32.0118 62.8925 32.3369C62.8298 32.4966 62.7586 32.6249 62.5619 32.4738C61.2168 31.4242 59.7064 30.8224 57.9908 30.6684C57.0047 30.58 56.0216 30.58 55.0669 30.7312C52.2712 31.179 50.1623 32.702 48.6405 35.0606C47.814 36.344 47.3552 37.7529 47.2269 39.2702C47.2212 39.2788 47.2099 39.2873 47.2099 39.293C47.2099 39.3102 47.2184 39.3301 47.2212 39.3472C47.207 39.6011 47.1956 39.8549 47.1814 40.1087C47.1814 40.143 47.1785 40.1743 47.1757 40.2086C47.113 41.2182 47.1529 42.2392 47.4236 43.2004C47.871 44.7918 48.5151 46.2977 49.7177 47.5127C50.4701 48.2713 51.2338 49.0214 52.2085 49.4549C53.6505 50.0938 55.1695 50.4817 56.7654 50.5073C56.791 50.5358 56.8167 50.5387 56.8423 50.5102C58.8942 50.5444 60.7865 50.0681 62.4223 48.7761C62.6189 48.6221 62.7244 48.7391 62.7928 48.9102C62.884 49.144 62.978 49.3808 63.0293 49.6232C63.0721 49.8285 63.2031 49.897 63.3684 49.9112C63.5679 49.9284 63.7703 49.9227 63.9726 49.9084C65.3177 49.82 66.6657 49.8514 68.0137 49.8913C68.0963 49.9398 68.1647 49.9227 68.2189 49.8485C68.2331 49.7772 68.2474 49.703 68.2616 49.6317C68.2673 49.626 68.2787 49.6175 68.2787 49.6118C68.2787 49.5947 68.2673 49.5776 68.2616 49.5633C68.2531 49.1497 68.2388 48.7362 68.2388 48.3255C68.2331 45.2538 68.2303 42.185 68.2274 39.1134V39.1105ZM15.6051 48.451C15.6051 48.5052 15.6051 48.5565 15.6051 48.6107C15.6051 48.6535 15.6051 48.6934 15.6051 48.7362C15.6051 48.7904 15.6051 48.8417 15.6051 48.8959C15.6051 48.9358 15.6051 48.9758 15.6023 49.0157V49.184C15.5994 49.2182 15.5966 49.2524 15.5937 49.2895L15.6023 49.5348C15.5681 49.6432 15.5538 49.7487 15.6308 49.8456C15.7647 49.9711 15.9215 49.8998 16.0697 49.897C18.1044 49.8599 20.1392 49.8656 22.174 49.8941C22.2082 49.8884 22.2396 49.8799 22.2738 49.8742C22.3023 49.8428 22.3308 49.8086 22.3564 49.7772C22.3621 49.7686 22.3764 49.7629 22.3764 49.7544C22.3764 49.7344 22.3678 49.7173 22.3621 49.7002C22.3621 49.6317 22.3621 49.5633 22.3621 49.492C22.3678 49.4834 22.3821 49.4749 22.3792 49.4692C22.3792 49.4521 22.3678 49.4321 22.3621 49.415C22.3621 49.3237 22.3621 49.2296 22.3621 49.1383C22.3678 49.1298 22.3821 49.1212 22.3792 49.1155C22.3764 49.0984 22.3678 49.0784 22.3593 49.0613C22.3593 48.9929 22.3621 48.9244 22.365 48.856C22.3735 48.8474 22.3878 48.8389 22.3849 48.8332C22.3821 48.8132 22.3735 48.7961 22.365 48.779C22.3678 48.4367 22.3792 48.0945 22.3764 47.7522C22.3678 46.3576 22.3536 44.9658 22.345 43.5711C22.345 43.4342 22.2681 43.2431 22.5103 43.2118C22.5473 43.2061 22.5844 43.2032 22.6243 43.1975C23.7984 43.1918 24.9697 43.1861 26.1438 43.1832C26.9646 43.1832 27.7768 43.1062 28.5691 42.8866C31.094 42.1936 32.9749 40.6963 34.149 38.3576C34.6136 37.4335 34.8415 36.4438 34.947 35.4057C35.0524 34.3733 34.9641 33.3579 34.796 32.3626C34.454 30.3319 33.3511 28.7319 31.721 27.4998C30.9031 26.8838 30.0054 26.4246 29.0108 26.1109C27.848 25.7429 26.6711 25.5975 25.4684 25.5889C23.9381 25.5775 22.4105 25.5832 20.8802 25.5861C19.2558 25.5861 17.6314 25.5889 16.007 25.5861C15.8046 25.5861 15.6137 25.5861 15.6165 25.8627C15.5681 25.9055 15.5681 25.954 15.6051 26.0053C15.6051 26.1707 15.6051 26.3362 15.6051 26.5016C15.5994 26.5101 15.588 26.5158 15.588 26.5216C15.588 26.5387 15.5994 26.5558 15.6051 26.5729C15.6051 26.6442 15.6051 26.7155 15.6051 26.7839C15.5994 26.7896 15.588 26.7982 15.588 26.8039C15.588 26.821 15.5994 26.8381 15.6051 26.8552C15.6051 26.9265 15.6051 26.9978 15.6051 27.0691V27.1661C15.6023 27.1946 15.6023 27.2232 15.6023 27.2517C15.6023 27.3173 15.6023 27.3857 15.6023 27.4513C15.6023 27.4798 15.6023 27.5084 15.6023 27.5369V27.7365C15.6023 27.765 15.6023 27.7936 15.6023 27.8192C15.6023 27.8848 15.6023 27.9533 15.6023 28.0189V28.1016C15.6023 28.1672 15.6023 28.2356 15.6023 28.3012C15.6023 28.3298 15.6023 28.3554 15.6023 28.3839C15.6023 28.4495 15.6023 28.518 15.6023 28.5836C15.6023 28.6121 15.6023 28.6406 15.6023 28.6663C15.6023 28.7319 15.6023 28.8003 15.6023 28.8659C15.6023 28.8945 15.6023 28.923 15.6023 28.9486V29.1483C15.6023 29.1768 15.6023 29.2053 15.6023 29.231C15.6023 29.2966 15.6023 29.365 15.6023 29.4306C15.6023 29.4592 15.6023 29.4877 15.6023 29.5134C15.6023 29.579 15.6023 29.6474 15.6023 29.713C15.6023 29.7415 15.6023 29.77 15.6023 29.7957C15.6023 29.8613 15.6023 29.9298 15.6023 29.9954C15.6023 30.0239 15.6023 30.0524 15.6023 30.0781C15.6023 30.1437 15.6023 30.2121 15.6023 30.2777C15.6023 30.3062 15.6023 30.3347 15.6023 30.3604C15.6023 30.426 15.6023 30.4945 15.6023 30.5601C15.6023 30.5886 15.6023 30.6171 15.6023 30.6428C15.6023 30.7084 15.6023 30.7768 15.6023 30.8424C15.6023 30.8709 15.6023 30.8995 15.6023 30.9251C15.6023 30.9907 15.6023 31.0592 15.6023 31.1248C15.6023 31.1533 15.6023 31.1818 15.6023 31.2075C15.6023 31.2731 15.6023 31.3415 15.6023 31.4071C15.6023 31.4356 15.6023 31.4642 15.6023 31.4898C15.6023 31.5554 15.6023 31.6239 15.6023 31.6895C15.6023 31.718 15.6023 31.7465 15.6023 31.7722C15.6023 31.8378 15.6023 31.9062 15.6023 31.9718C15.6023 32.0003 15.6023 32.0289 15.6023 32.0545C15.6023 32.1201 15.6023 32.1886 15.6023 32.2542C15.6023 32.2827 15.6023 32.3112 15.6023 32.3369C15.6023 32.4025 15.6023 32.4709 15.6023 32.5365C15.6023 32.5651 15.6023 32.5936 15.6023 32.6192C15.6023 32.6848 15.6023 32.7533 15.6023 32.8189C15.6023 32.8474 15.6023 32.8759 15.6023 32.9016C15.6023 32.9672 15.6023 33.0356 15.6023 33.1012C15.6023 33.1298 15.6023 33.1583 15.6023 33.1839C15.6023 33.2495 15.6023 33.318 15.6023 33.3836C15.6023 33.4121 15.6023 33.4406 15.6023 33.4663C15.6023 33.5319 15.6023 33.6003 15.6023 33.6659C15.6023 33.6945 15.6023 33.723 15.6023 33.7487C15.6023 33.8143 15.6023 33.8827 15.6023 33.9483C15.6023 33.9768 15.6023 34.0053 15.6023 34.031C15.6023 34.0966 15.6023 34.1651 15.6023 34.2307C15.6023 34.2592 15.6023 34.2877 15.6023 34.3134C15.6023 34.379 15.6023 34.4474 15.6023 34.513C15.6023 34.5415 15.6023 34.57 15.6023 34.5957C15.6023 34.6613 15.6023 34.7298 15.6023 34.7954C15.6023 34.8239 15.6023 34.8524 15.6023 34.8781C15.6023 34.9437 15.6023 35.0121 15.6023 35.0777C15.6023 35.1062 15.6023 35.1348 15.6023 35.1604C15.6023 35.226 15.6023 35.2945 15.6023 35.3601C15.6023 35.3886 15.6023 35.4171 15.6023 35.4428C15.6023 35.5084 15.6023 35.5768 15.6023 35.6424C15.6023 35.6709 15.6023 35.6995 15.6023 35.7251C15.6023 35.7907 15.6023 35.8592 15.6023 35.9248C15.6023 35.9533 15.6023 35.9818 15.6023 36.0075C15.6023 36.0731 15.6023 36.1415 15.6023 36.2071C15.6023 36.2356 15.6023 36.2642 15.6023 36.2898C15.6023 36.3554 15.6023 36.4239 15.6023 36.4895C15.6023 36.518 15.6023 36.5465 15.6023 36.5722C15.6023 36.6378 15.6023 36.7062 15.6023 36.7718C15.6023 36.8004 15.6023 36.8289 15.6023 36.8545C15.6023 36.9201 15.6023 36.9886 15.6023 37.0542C15.6023 37.0827 15.6023 37.1112 15.6023 37.1369C15.6023 37.2025 15.6023 37.2709 15.6023 37.3365C15.6023 37.3651 15.6023 37.3936 15.6023 37.4193C15.6023 37.4848 15.6023 37.5533 15.6023 37.6189C15.6023 37.6474 15.6023 37.6759 15.6023 37.7016C15.6023 37.7672 15.6023 37.8356 15.6023 37.9012C15.6023 37.9526 15.6023 38.0039 15.6023 38.0553C15.6023 38.098 15.6023 38.1408 15.6023 38.1865C15.6023 38.215 15.6023 38.2435 15.6023 38.272V38.4688C15.6023 38.5201 15.6023 38.5743 15.6023 38.6257C15.6023 38.6684 15.6023 38.7084 15.6023 38.7512C15.6023 38.7797 15.6023 38.8111 15.6023 38.8396C15.6023 38.9052 15.6023 38.9708 15.6023 39.0335C15.6023 39.1676 15.6023 39.3016 15.6051 39.4328C15.5681 39.4784 15.5681 39.5241 15.6051 39.5697C15.6051 39.641 15.6051 39.7152 15.6051 39.7865C15.6051 39.8178 15.6051 39.8521 15.6051 39.8834C15.6051 39.9119 15.6051 39.9405 15.6051 39.969C15.6051 40.0346 15.6051 40.103 15.6051 40.1686V40.2513C15.6051 40.3169 15.6051 40.3854 15.6051 40.451C15.6051 40.4795 15.6051 40.508 15.6051 40.5337C15.6051 40.5993 15.6051 40.6677 15.6051 40.7333C15.6051 40.7619 15.6051 40.7904 15.6051 40.816C15.6051 40.8816 15.6051 40.9501 15.6051 41.0157C15.6051 41.0442 15.6051 41.0727 15.6051 41.0984C15.6051 41.164 15.6051 41.2324 15.6051 41.298V41.3808C15.6051 41.4464 15.6051 41.5148 15.6051 41.5804V41.6631C15.6051 41.7287 15.6051 41.7972 15.6051 41.8628V41.9455C15.6051 42.0111 15.6051 42.0795 15.6051 42.1451V42.2278C15.6051 42.2934 15.6051 42.3619 15.6051 42.4275V42.5102C15.6051 42.5758 15.6051 42.6442 15.6051 42.7098V42.7925C15.6051 42.8581 15.6051 42.9266 15.6051 42.9922V43.0749C15.6051 43.1405 15.6051 43.2089 15.6051 43.2745V43.3572C15.6051 43.4228 15.6051 43.4913 15.6051 43.5569V43.6396C15.6051 43.7052 15.6051 43.7736 15.6051 43.8392V43.9219C15.6051 43.9875 15.6051 44.056 15.6051 44.1216V44.2043C15.6051 44.2699 15.6051 44.3383 15.6051 44.4039V44.4866C15.6051 44.5522 15.6051 44.6207 15.6051 44.6863V44.769C15.6051 44.8346 15.6051 44.903 15.6051 44.9686V45.0513C15.6051 45.1169 15.6051 45.1854 15.6051 45.251V45.3337C15.6051 45.3993 15.6051 45.4677 15.6051 45.5333V45.6161C15.6051 45.6816 15.6051 45.7501 15.6051 45.8157C15.6051 45.8442 15.6051 45.8727 15.6051 45.8984C15.6051 45.964 15.6051 46.0325 15.6051 46.098C15.6051 46.1266 15.6051 46.1551 15.6051 46.1808C15.6051 46.2464 15.6051 46.3148 15.6051 46.3804C15.6051 46.4089 15.6051 46.4374 15.6051 46.4631C15.6051 46.5287 15.6051 46.5972 15.6051 46.6628V46.7455C15.6051 46.8111 15.6051 46.8795 15.6051 46.9451V47.0278C15.6051 47.0934 15.6051 47.1619 15.6051 47.2275C15.6051 47.256 15.6051 47.2845 15.6051 47.3102C15.6051 47.3758 15.6051 47.4442 15.6051 47.5098C15.6051 47.5383 15.6051 47.5669 15.6051 47.5925C15.6051 47.6581 15.6051 47.7266 15.6051 47.7922C15.6051 47.8435 15.6051 47.8948 15.6051 47.9462C15.6051 47.989 15.6051 48.0317 15.6051 48.0774V48.2342C15.6051 48.277 15.6051 48.3169 15.6051 48.3597V48.451ZM105.193 49.492C106.378 50.1109 107.649 50.4332 108.974 50.5073C111.539 50.6528 113.888 50.031 115.897 48.3797C118.211 46.4774 119.208 43.9419 119.351 41.0242C119.393 40.1287 119.314 39.2446 119.157 38.3547C118.94 37.134 118.513 36.0046 117.88 34.9551C117.361 34.0966 116.729 33.3465 115.894 32.739C114.996 32.0859 114.073 31.5126 113.024 31.1533C111.662 30.6884 110.268 30.5287 108.826 30.6C107.527 30.6656 106.35 31.0506 105.213 31.6381C105.025 31.7351 104.902 32.0203 104.799 32.0175C104.392 32.0032 104.204 32.3084 103.927 32.4852C103.862 32.528 103.779 32.6192 103.714 32.528C103.54 32.2884 103.317 32.0517 103.238 31.7779C103.081 31.2446 102.95 31.0991 102.42 31.1162C102.217 31.1248 102.018 31.1248 101.816 31.1276C101.773 31.1276 101.733 31.1276 101.69 31.1276C100.736 31.1733 99.7808 31.1704 98.8261 31.1276C98.7891 31.1276 98.7492 31.1248 98.7121 31.1219C98.6808 31.1219 98.6466 31.1219 98.6152 31.1248C98.5839 31.1447 98.5526 31.1675 98.5241 31.1875C98.5241 37.4021 98.5184 43.6139 98.5155 49.8285C98.5155 51.9419 98.5155 54.0581 98.5127 56.1715C98.5127 56.4425 98.5184 56.6564 98.9059 56.6535C100.884 56.6364 102.862 56.6449 104.839 56.6421C104.985 56.6278 104.996 56.548 104.942 56.4339C104.942 56.3027 104.933 56.1744 104.933 56.0432C104.925 54.1893 104.919 52.3355 104.913 50.4817C104.913 50.4531 104.913 50.4246 104.913 50.3961C104.919 50.2335 104.922 50.071 104.928 49.9084C104.962 49.8599 104.962 49.8114 104.93 49.7629C104.93 49.7173 104.93 49.6688 104.93 49.6232C104.993 49.5319 105.07 49.4635 105.193 49.4834V49.492ZM146.57 43.7365V43.748C145.692 43.748 144.814 43.7651 143.939 43.7394C143.628 43.7308 143.477 43.8563 143.352 44.1016C143.269 44.2642 143.392 44.3954 143.398 44.5465C143.443 45.6303 143.828 46.5972 144.438 47.4841C144.894 48.1515 145.504 48.662 146.145 49.1298C146.644 49.4948 147.225 49.7287 147.803 49.8998C148.761 50.185 149.724 50.4674 150.742 50.4874C152.816 50.5273 154.848 50.4617 156.709 49.3266C157.222 49.0128 157.704 48.6735 158.18 48.3169C158.51 48.0688 158.653 47.6638 158.898 47.353C159.536 46.5487 159.767 45.6132 159.878 44.6406C159.949 44.0132 159.878 43.3829 159.767 42.7469C159.67 42.1822 159.545 41.6431 159.248 41.1611C158.399 39.775 157.057 39.0934 155.546 38.7055C154.506 38.4374 153.449 38.2292 152.395 38.0153C151.694 37.8727 151.007 37.7159 150.371 37.3651C149.986 37.154 149.85 36.8403 149.844 36.4467C149.835 36.0103 149.989 35.6652 150.4 35.4371C150.921 35.149 151.457 35.1376 152.033 35.2175C152.725 35.3144 153.335 35.8506 153.418 36.5294C153.458 36.8545 153.649 37.0028 153.953 36.9059C154.073 36.8688 154.181 36.8631 154.298 36.8631C155.934 36.8631 157.57 36.8545 159.206 36.8688C159.494 36.8688 159.559 36.7918 159.542 36.5094C159.479 35.4684 159.228 34.4845 158.619 33.6317C157.308 31.7979 155.41 30.9765 153.252 30.6913C152.409 30.58 151.56 30.5087 150.693 30.6C149.833 30.6884 148.98 30.7797 148.16 31.0506C146.783 31.5041 145.561 32.1857 144.68 33.3807C143.817 34.5529 143.486 35.8563 143.586 37.3052C143.648 38.2264 143.908 39.0649 144.398 39.8349C144.731 40.3569 145.21 40.7162 145.709 41.0813C146.364 41.5604 147.088 41.8513 147.841 42.0995C148.322 42.2592 148.821 42.3619 149.317 42.4645C149.958 42.5986 150.605 42.707 151.249 42.821C151.867 42.9323 152.454 43.1062 153.01 43.4228C153.66 43.7936 153.651 44.7234 153.167 45.1654C152.503 45.7701 151.719 45.8784 150.91 45.6161C150.157 45.3708 149.699 44.7975 149.59 43.9989C149.559 43.7736 149.471 43.7308 149.274 43.7308C148.373 43.7365 147.473 43.7308 146.572 43.7308L146.57 43.7365Z" fill="#FDCF39"/>
<path d="M93.6055 28.7948C93.8192 28.7606 94.0301 28.7578 94.2438 28.8005C94.0301 28.8661 93.8192 28.869 93.6055 28.7948Z" fill="#FDCF39"/>
<path d="M104.928 49.6318C104.911 49.5434 104.882 49.4408 104.976 49.3951C105.065 49.3523 105.147 49.4008 105.19 49.4921C105.068 49.4721 104.991 49.5406 104.928 49.6318Z" fill="#FDCF39"/>
<path d="M80.3278 36.6409C80.2024 36.5525 80.2081 36.4612 80.3193 36.3643C80.4048 36.4527 80.4048 36.5468 80.3278 36.6409Z" fill="#FDCF39"/>
<path d="M162.452 15.0362C162.595 15.0277 162.737 15.022 162.88 15.0134C162.743 15.1132 162.6 15.1104 162.452 15.0362Z" fill="#FDCF39"/>
<path d="M140.541 31.1874C140.396 31.1675 140.248 31.1447 140.103 31.1247C140.256 31.1019 140.416 31.0363 140.541 31.1874Z" fill="#FDCF39"/>
<path d="M104.833 56.6481C104.828 56.5597 104.888 56.5027 104.936 56.4399C104.99 56.554 104.976 56.6339 104.833 56.6481Z" fill="#FDCF39"/>
<path d="M134.173 31.1301C134.136 31.1957 134.101 31.2585 134.064 31.3241C134.004 31.2071 134.047 31.1444 134.173 31.1301Z" fill="#FDCF39"/>
<path d="M84.6143 49.8912C84.714 49.8912 84.8109 49.8855 84.9106 49.8855C84.8137 49.9511 84.714 49.934 84.6143 49.8912Z" fill="#FDCF39"/>
<path d="M84.632 31.0729C84.5983 31.1434 84.5532 31.1265 84.5054 31.0927C84.5392 31.025 84.5814 31.0194 84.632 31.0729Z" fill="#FDCF39"/>
<path d="M15.6023 49.5347C15.6507 49.6345 15.6422 49.74 15.6308 49.8455C15.5567 49.7486 15.5681 49.643 15.6023 49.5347Z" fill="#FDCF39"/>
<path d="M84.8501 36.0761C84.8586 36.0077 84.8672 35.9364 84.8757 35.8679C84.9356 35.9449 84.9213 36.0162 84.8501 36.0761Z" fill="#FDCF39"/>
<path d="M44.1978 24.6591C44.1864 24.5907 44.175 24.5194 44.1636 24.4509C44.2548 24.508 44.2491 24.5793 44.1978 24.6591Z" fill="#FDCF39"/>
<path d="M94.167 49.9056C94.2411 49.8999 94.3152 49.8942 94.3893 49.8914C94.318 49.9398 94.2439 49.9341 94.167 49.9056Z" fill="#FDCF39"/>
<path d="M68.0083 49.8882C68.0767 49.874 68.1451 49.8597 68.2135 49.8455C68.1565 49.9196 68.0881 49.9367 68.0083 49.8882Z" fill="#FDCF39"/>
<path d="M15.6079 41.1584C15.6478 41.224 15.6478 41.2925 15.6079 41.3581C15.6079 41.2925 15.6079 41.224 15.6079 41.1584Z" fill="#FDCF39"/>
<path d="M15.6079 43.4285C15.6478 43.4941 15.6478 43.5625 15.6079 43.6281C15.6079 43.5625 15.6079 43.4941 15.6079 43.4285Z" fill="#FDCF39"/>
<path d="M15.6079 30.3748C15.6478 30.4404 15.6478 30.5088 15.6079 30.5744C15.6079 30.5088 15.6079 30.4404 15.6079 30.3748Z" fill="#FDCF39"/>
<path d="M15.6079 28.3867C15.6478 28.4523 15.6478 28.5208 15.6079 28.5864C15.6079 28.5208 15.6079 28.4523 15.6079 28.3867Z" fill="#FDCF39"/>
<path d="M15.6079 30.6567C15.6478 30.7223 15.6478 30.7908 15.6079 30.8564C15.6079 30.7908 15.6079 30.7223 15.6079 30.6567Z" fill="#FDCF39"/>
<path d="M15.6079 28.1045C15.6478 28.1701 15.6478 28.2385 15.6079 28.3041C15.6079 28.2385 15.6079 28.1701 15.6079 28.1045Z" fill="#FDCF39"/>
<path d="M15.6079 30.9421C15.6478 31.0077 15.6478 31.0762 15.6079 31.1418C15.6079 31.0762 15.6079 31.0077 15.6079 30.9421Z" fill="#FDCF39"/>
<path d="M104.922 49.9125C104.922 49.8646 104.922 49.8167 104.925 49.7688C104.956 49.8167 104.956 49.8646 104.922 49.9125Z" fill="#FDCF39"/>
<path d="M15.6079 29.8071C15.6478 29.8727 15.6478 29.9412 15.6079 30.0068C15.6079 29.9412 15.6079 29.8727 15.6079 29.8071Z" fill="#FDCF39"/>
<path d="M15.605 27.8191C15.6449 27.8847 15.6449 27.9531 15.605 28.0187C15.605 27.9531 15.605 27.8847 15.605 27.8191Z" fill="#FDCF39"/>
<path d="M15.6079 29.5217C15.6478 29.5873 15.6478 29.6558 15.6079 29.7214C15.6079 29.6558 15.6079 29.5873 15.6079 29.5217Z" fill="#FDCF39"/>
<path d="M15.6079 29.2397C15.6478 29.3053 15.6478 29.3738 15.6079 29.4394C15.6079 29.3738 15.6079 29.3053 15.6079 29.2397Z" fill="#FDCF39"/>
<path d="M15.605 27.5369C15.6449 27.6025 15.6449 27.6709 15.605 27.7365C15.605 27.6709 15.605 27.6025 15.605 27.5369Z" fill="#FDCF39"/>
<path d="M94.4312 23.659C94.4059 23.6054 94.4143 23.5547 94.4481 23.5068C94.4678 23.5604 94.4678 23.6111 94.4312 23.659Z" fill="#FDCF39"/>
<path d="M15.6079 47.6836C15.6478 47.7492 15.6478 47.8176 15.6079 47.8832C15.6079 47.8176 15.6079 47.7492 15.6079 47.6836Z" fill="#FDCF39"/>
<path d="M15.6079 47.4014C15.6478 47.467 15.6478 47.5354 15.6079 47.601C15.6079 47.5354 15.6079 47.467 15.6079 47.4014Z" fill="#FDCF39"/>
<path d="M15.605 27.2544C15.6449 27.32 15.6449 27.3884 15.605 27.454C15.605 27.3884 15.605 27.32 15.605 27.2544Z" fill="#FDCF39"/>
<path d="M15.6079 47.116C15.6478 47.1816 15.6478 47.25 15.6079 47.3156C15.6079 47.25 15.6079 47.1816 15.6079 47.116Z" fill="#FDCF39"/>
<path d="M15.6079 46.8337C15.6478 46.8993 15.6478 46.9678 15.6079 47.0334C15.6079 46.9678 15.6079 46.8993 15.6079 46.8337Z" fill="#FDCF39"/>
<path d="M15.6079 46.5486C15.6478 46.6142 15.6478 46.6826 15.6079 46.7482C15.6079 46.6826 15.6079 46.6142 15.6079 46.5486Z" fill="#FDCF39"/>
<path d="M15.6079 30.0894C15.6478 30.155 15.6478 30.2234 15.6079 30.289C15.6079 30.2234 15.6079 30.155 15.6079 30.0894Z" fill="#FDCF39"/>
<path d="M122.761 31.139C122.707 31.1674 122.653 31.1674 122.599 31.1305C122.653 31.105 122.707 31.105 122.761 31.139Z" fill="#FDCF39"/>
<path d="M15.6079 28.9543C15.6478 29.0199 15.6478 29.0884 15.6079 29.154C15.6079 29.0884 15.6079 29.0199 15.6079 28.9543Z" fill="#FDCF39"/>
<path d="M15.6079 45.9812C15.6478 46.0468 15.6478 46.1152 15.6079 46.1808C15.6079 46.1152 15.6079 46.0468 15.6079 45.9812Z" fill="#FDCF39"/>
<path d="M139.715 31.1301C139.652 31.1701 139.59 31.1701 139.527 31.1301C139.59 31.1301 139.652 31.1301 139.715 31.1301Z" fill="#FDCF39"/>
<path d="M15.6079 45.6987C15.6478 45.7643 15.6478 45.8328 15.6079 45.8984C15.6079 45.8328 15.6079 45.7643 15.6079 45.6987Z" fill="#FDCF39"/>
<path d="M15.6079 45.4136C15.6478 45.4792 15.6478 45.5476 15.6079 45.6132C15.6079 45.5476 15.6079 45.4792 15.6079 45.4136Z" fill="#FDCF39"/>
<path d="M15.6079 31.2246C15.6478 31.2902 15.6478 31.3587 15.6079 31.4243C15.6079 31.3587 15.6079 31.2902 15.6079 31.2246Z" fill="#FDCF39"/>
<path d="M15.6079 45.1313C15.6478 45.1969 15.6478 45.2654 15.6079 45.331C15.6079 45.2654 15.6079 45.1969 15.6079 45.1313Z" fill="#FDCF39"/>
<path d="M15.6079 44.8462C15.6478 44.9118 15.6478 44.9802 15.6079 45.0458C15.6079 44.9802 15.6079 44.9118 15.6079 44.8462Z" fill="#FDCF39"/>
<path d="M88.6978 28.7974C88.7428 28.7974 88.7906 28.7974 88.8357 28.7974C88.7878 28.8424 88.7428 28.8424 88.6978 28.7974Z" fill="#FDCF39"/>
<path d="M15.6079 31.5098C15.6478 31.5754 15.6478 31.6438 15.6079 31.7094C15.6079 31.6438 15.6079 31.5754 15.6079 31.5098Z" fill="#FDCF39"/>
<path d="M15.6079 31.7922C15.6478 31.8578 15.6478 31.9263 15.6079 31.9919C15.6079 31.9263 15.6079 31.8578 15.6079 31.7922Z" fill="#FDCF39"/>
<path d="M15.6079 32.0774C15.6478 32.143 15.6478 32.2114 15.6079 32.277C15.6079 32.2114 15.6079 32.143 15.6079 32.0774Z" fill="#FDCF39"/>
<path d="M15.6079 32.3596C15.6478 32.4252 15.6478 32.4937 15.6079 32.5593C15.6079 32.4937 15.6079 32.4252 15.6079 32.3596Z" fill="#FDCF39"/>
<path d="M15.6079 32.645C15.6478 32.7106 15.6478 32.7791 15.6079 32.8447C15.6079 32.7791 15.6079 32.7106 15.6079 32.645Z" fill="#FDCF39"/>
<path d="M15.6079 32.9272C15.6478 32.9928 15.6478 33.0613 15.6079 33.1269C15.6079 33.0613 15.6079 32.9928 15.6079 32.9272Z" fill="#FDCF39"/>
<path d="M15.6079 33.2124C15.6478 33.278 15.6478 33.3464 15.6079 33.412C15.6079 33.3464 15.6079 33.278 15.6079 33.2124Z" fill="#FDCF39"/>
<path d="M15.6079 33.4949C15.6478 33.5605 15.6478 33.6289 15.6079 33.6945C15.6079 33.6289 15.6079 33.5605 15.6079 33.4949Z" fill="#FDCF39"/>
<path d="M15.6079 33.7798C15.6478 33.8454 15.6478 33.9138 15.6079 33.9794C15.6079 33.9138 15.6079 33.8454 15.6079 33.7798Z" fill="#FDCF39"/>
<path d="M15.6079 34.0625C15.6478 34.1281 15.6478 34.1965 15.6079 34.2621C15.6079 34.1965 15.6079 34.1281 15.6079 34.0625Z" fill="#FDCF39"/>
<path d="M15.6079 34.3474C15.6478 34.413 15.6478 34.4815 15.6079 34.5471C15.6079 34.4815 15.6079 34.413 15.6079 34.3474Z" fill="#FDCF39"/>
<path d="M15.6079 34.6296C15.6478 34.6952 15.6478 34.7637 15.6079 34.8293C15.6079 34.7637 15.6079 34.6952 15.6079 34.6296Z" fill="#FDCF39"/>
<path d="M15.6079 34.915C15.6478 34.9806 15.6478 35.0491 15.6079 35.1147C15.6079 35.0491 15.6079 34.9806 15.6079 34.915Z" fill="#FDCF39"/>
<path d="M15.6079 35.1975C15.6478 35.2631 15.6478 35.3316 15.6079 35.3972C15.6079 35.3316 15.6079 35.2631 15.6079 35.1975Z" fill="#FDCF39"/>
<path d="M15.6079 44.5635C15.6478 44.6291 15.6478 44.6975 15.6079 44.7631C15.6079 44.6975 15.6079 44.6291 15.6079 44.5635Z" fill="#FDCF39"/>
<path d="M15.6079 35.4829C15.6478 35.5485 15.6478 35.617 15.6079 35.6826C15.6079 35.617 15.6079 35.5485 15.6079 35.4829Z" fill="#FDCF39"/>
<path d="M84.8793 35.7233C84.8793 35.6754 84.8793 35.6275 84.8765 35.5796C84.9187 35.6275 84.9243 35.6754 84.8793 35.7233Z" fill="#FDCF39"/>
<path d="M15.6079 35.7651C15.6478 35.8307 15.6478 35.8992 15.6079 35.9648C15.6079 35.8992 15.6079 35.8307 15.6079 35.7651Z" fill="#FDCF39"/>
<path d="M15.6219 25.8628C15.6191 25.9107 15.6135 25.9558 15.6107 26.0037C15.5741 25.9529 15.5741 25.9079 15.6219 25.8628Z" fill="#FDCF39"/>
<path d="M15.6079 44.2783C15.6478 44.3439 15.6478 44.4124 15.6079 44.478C15.6079 44.4124 15.6079 44.3439 15.6079 44.2783Z" fill="#FDCF39"/>
<path d="M6.68799 15.0759C6.7274 15.0196 6.77807 15.0168 6.83719 15.0393C6.78651 15.0506 6.73866 15.0647 6.68799 15.0759Z" fill="#FDCF39"/>
<path d="M15.6079 28.6721C15.6478 28.7377 15.6478 28.8062 15.6079 28.8718C15.6079 28.8062 15.6079 28.7377 15.6079 28.6721Z" fill="#FDCF39"/>
<path d="M15.6079 36.3328C15.6478 36.3984 15.6478 36.4668 15.6079 36.5324C15.6079 36.4668 15.6079 36.3984 15.6079 36.3328Z" fill="#FDCF39"/>
<path d="M15.6079 43.9961C15.6478 44.0617 15.6478 44.1301 15.6079 44.1957C15.6079 44.1301 15.6079 44.0617 15.6079 43.9961Z" fill="#FDCF39"/>
<path d="M15.6079 36.6177C15.6478 36.6833 15.6478 36.7517 15.6079 36.8173C15.6079 36.7517 15.6079 36.6833 15.6079 36.6177Z" fill="#FDCF39"/>
<path d="M15.6079 36.9004C15.6478 36.966 15.6478 37.0344 15.6079 37.1C15.6079 37.0344 15.6079 36.966 15.6079 36.9004Z" fill="#FDCF39"/>
<path d="M15.6079 37.1853C15.6478 37.2509 15.6478 37.3193 15.6079 37.3849C15.6079 37.3193 15.6079 37.2509 15.6079 37.1853Z" fill="#FDCF39"/>
<path d="M15.6079 43.7107C15.6478 43.7763 15.6478 43.8447 15.6079 43.9103C15.6079 43.8447 15.6079 43.7763 15.6079 43.7107Z" fill="#FDCF39"/>
<path d="M15.6079 40.873C15.6478 40.9386 15.6478 41.0071 15.6079 41.0727C15.6079 41.0071 15.6079 40.9386 15.6079 40.873Z" fill="#FDCF39"/>
<path d="M94.3862 28.767C94.4059 28.7163 94.4256 28.6656 94.4482 28.6177C94.4651 28.6825 94.4566 28.7388 94.3862 28.767Z" fill="#FDCF39"/>
<path d="M15.6079 36.0503C15.6478 36.1159 15.6478 36.1843 15.6079 36.2499C15.6079 36.1843 15.6079 36.1159 15.6079 36.0503Z" fill="#FDCF39"/>
<path d="M15.6079 43.1433C15.6478 43.2089 15.6478 43.2774 15.6079 43.343C15.6079 43.2774 15.6079 43.2089 15.6079 43.1433Z" fill="#FDCF39"/>
<path d="M15.6079 37.4673C15.6478 37.5329 15.6478 37.6013 15.6079 37.6669C15.6079 37.6013 15.6079 37.5329 15.6079 37.4673Z" fill="#FDCF39"/>
<path d="M15.6079 37.7529C15.6478 37.8185 15.6478 37.887 15.6079 37.9526C15.6079 37.887 15.6079 37.8185 15.6079 37.7529Z" fill="#FDCF39"/>
<path d="M15.6079 42.8606C15.6478 42.9262 15.6478 42.9946 15.6079 43.0602C15.6079 42.9946 15.6079 42.9262 15.6079 42.8606Z" fill="#FDCF39"/>
<path d="M15.605 38.3208C15.6449 38.3864 15.6449 38.452 15.605 38.5176C15.605 38.452 15.605 38.3864 15.605 38.3208Z" fill="#FDCF39"/>
<path d="M15.6079 42.5759C15.6478 42.6415 15.6478 42.71 15.6079 42.7756C15.6079 42.71 15.6079 42.6415 15.6079 42.5759Z" fill="#FDCF39"/>
<path d="M15.605 38.8909C15.6449 38.9565 15.6449 39.0221 15.605 39.0848C15.605 39.0192 15.605 38.9536 15.605 38.8909Z" fill="#FDCF39"/>
<path d="M15.6079 42.2935C15.6478 42.3591 15.6478 42.4275 15.6079 42.4931C15.6079 42.4275 15.6079 42.3591 15.6079 42.2935Z" fill="#FDCF39"/>
<path d="M15.6079 42.0083C15.6478 42.0739 15.6478 42.1423 15.6079 42.2079C15.6079 42.1423 15.6079 42.0739 15.6079 42.0083Z" fill="#FDCF39"/>
<path d="M15.6075 39.4871C15.6075 39.5321 15.6075 39.5772 15.6075 39.6223C15.5709 39.5772 15.5709 39.5321 15.6075 39.4871Z" fill="#FDCF39"/>
<path d="M15.6079 41.7256C15.6478 41.7912 15.6478 41.8596 15.6079 41.9252C15.6079 41.8596 15.6079 41.7912 15.6079 41.7256Z" fill="#FDCF39"/>
<path d="M15.6079 40.0229C15.6478 40.0885 15.6478 40.157 15.6079 40.2226C15.6079 40.157 15.6079 40.0885 15.6079 40.0229Z" fill="#FDCF39"/>
<path d="M15.6079 41.4404C15.6478 41.506 15.6478 41.5745 15.6079 41.6401C15.6079 41.5745 15.6079 41.506 15.6079 41.4404Z" fill="#FDCF39"/>
<path d="M15.6079 40.3052C15.6478 40.3708 15.6478 40.4392 15.6079 40.5048C15.6079 40.4392 15.6079 40.3708 15.6079 40.3052Z" fill="#FDCF39"/>
<path d="M15.6079 40.5908C15.6478 40.6564 15.6478 40.7249 15.6079 40.7905C15.6079 40.7249 15.6079 40.6564 15.6079 40.5908Z" fill="#FDCF39"/>
<path d="M15.6079 46.2664C15.6478 46.332 15.6478 46.4004 15.6079 46.466C15.6079 46.4004 15.6079 46.332 15.6079 46.2664Z" fill="#FDCF39"/>
<path d="M88.0248 28.6265C88.0248 28.6512 88.0275 28.676 88.0303 28.7007C88.022 28.6842 88.011 28.6677 88.0083 28.6485C88.0083 28.643 88.0193 28.632 88.0248 28.6265Z" fill="#FDCF39"/>
<path d="M47.2177 39.2698C47.2177 39.2945 47.2149 39.3193 47.2122 39.344C47.2067 39.3275 47.2012 39.3083 47.2012 39.2918C47.2012 39.2835 47.2122 39.278 47.2177 39.2698Z" fill="#FDCF39"/>
<path d="M68.2231 39.1094C68.2065 39.1039 68.1899 39.0984 68.1733 39.0956C68.1899 39.0901 68.2065 39.0873 68.2231 39.0818V39.1122V39.1094Z" fill="#FDCF39"/>
<path d="M15.605 38.677C15.6388 38.7193 15.6388 38.7615 15.605 38.801C15.605 38.7587 15.605 38.7193 15.605 38.677Z" fill="#FDCF39"/>
<path d="M15.6079 38.1067C15.6417 38.1489 15.6389 38.194 15.6079 38.2363C15.6079 38.194 15.6079 38.1518 15.6079 38.1067Z" fill="#FDCF39"/>
<path d="M22.5161 43.2087C22.5527 43.203 22.5893 43.2002 22.6287 43.1946C22.5921 43.2002 22.5555 43.203 22.5161 43.2087Z" fill="#FDCF39"/>
<path d="M44.1973 25.4378C44.1973 25.413 44.1973 25.3883 44.1973 25.3635C44.2028 25.38 44.2137 25.3965 44.2165 25.4158C44.2165 25.4213 44.2055 25.4295 44.2 25.4378H44.1973Z" fill="#FDCF39"/>
<path d="M84.8572 35.3663C84.838 35.3553 84.8215 35.3443 84.8022 35.3333C84.8215 35.3223 84.838 35.3113 84.8572 35.3003C84.8627 35.3223 84.8627 35.3443 84.8572 35.3663Z" fill="#FDCF39"/>
<path d="M15.6132 26.5017C15.6132 26.5237 15.6132 26.5485 15.6132 26.5705C15.6077 26.554 15.5994 26.5375 15.5967 26.521C15.5967 26.5155 15.6077 26.5072 15.6132 26.5017Z" fill="#FDCF39"/>
<path d="M84.8792 31.3242C84.8764 31.2994 84.8709 31.2747 84.8682 31.2527C84.8764 31.2692 84.8874 31.2829 84.8929 31.3022C84.8929 31.3077 84.8847 31.3187 84.8792 31.3269V31.3242Z" fill="#FDCF39"/>
<path d="M15.6107 26.7839C15.6107 26.8059 15.6107 26.8307 15.6107 26.8527C15.6052 26.8362 15.597 26.8197 15.5942 26.8032C15.5942 26.7977 15.6052 26.7894 15.6107 26.7839Z" fill="#FDCF39"/>
<path d="M15.6107 27.072C15.6107 27.103 15.6107 27.134 15.6079 27.1678C15.6079 27.1368 15.6079 27.1058 15.6107 27.072Z" fill="#FDCF39"/>
<path d="M134.382 31.1304C134.343 31.1614 134.306 31.1586 134.27 31.1248C134.306 31.1248 134.346 31.1276 134.382 31.1304Z" fill="#FDCF39"/>
<path d="M122.424 31.1245C122.391 31.1527 122.36 31.1471 122.332 31.1189C122.363 31.1189 122.393 31.1217 122.424 31.1245Z" fill="#FDCF39"/>
<path d="M101.811 31.1331C101.769 31.1669 101.729 31.1669 101.687 31.1331C101.726 31.1331 101.769 31.1331 101.811 31.1331Z" fill="#FDCF39"/>
<path d="M98.8216 31.1304C98.7822 31.1614 98.7456 31.1586 98.709 31.1248C98.7456 31.1248 98.785 31.1276 98.8216 31.1304Z" fill="#FDCF39"/>
<path d="M98.6086 31.1301C98.5777 31.1498 98.5467 31.1724 98.5186 31.1921C98.5495 31.1724 98.5805 31.1498 98.6086 31.1301Z" fill="#FDCF39"/>
<path d="M88.2947 31.1304C88.2553 31.1614 88.2187 31.1586 88.1821 31.1248C88.2187 31.1248 88.2581 31.1276 88.2947 31.1304Z" fill="#FDCF39"/>
<path d="M88.0842 31.1301C88.0533 31.1498 88.0223 31.1724 87.9941 31.1921C88.0251 31.1724 88.0561 31.1498 88.0842 31.1301Z" fill="#FDCF39"/>
<path d="M15.6079 48.0371C15.6417 48.0794 15.6389 48.1244 15.6079 48.1667C15.6079 48.1244 15.6079 48.0822 15.6079 48.0371Z" fill="#FDCF39"/>
<path d="M15.605 48.3254C15.6388 48.3677 15.6388 48.4071 15.605 48.4494C15.605 48.4071 15.605 48.3677 15.605 48.3254Z" fill="#FDCF39"/>
<path d="M15.605 48.6077C15.6388 48.6499 15.6388 48.6894 15.605 48.7316C15.605 48.6894 15.605 48.6499 15.605 48.6077Z" fill="#FDCF39"/>
<path d="M22.3677 48.8501C22.3677 48.8254 22.3677 48.8006 22.3677 48.7759C22.3732 48.7924 22.3842 48.8116 22.3869 48.8281C22.3869 48.8336 22.3732 48.8419 22.3677 48.8501Z" fill="#FDCF39"/>
<path d="M15.6054 48.8931C15.6391 48.9325 15.6363 48.9748 15.6025 49.0114C15.6025 48.9719 15.6025 48.9325 15.6054 48.8931Z" fill="#FDCF39"/>
<path d="M22.3618 49.1328V49.0586C22.3673 49.0751 22.3756 49.0916 22.3783 49.1108C22.3783 49.1163 22.3673 49.1246 22.3618 49.1328Z" fill="#FDCF39"/>
<path d="M15.5999 49.1841C15.628 49.2207 15.6252 49.2545 15.5942 49.2883C15.5942 49.2545 15.5971 49.2207 15.5999 49.1841Z" fill="#FDCF39"/>
<path d="M84.8521 31.1924C84.8211 31.1727 84.7901 31.153 84.7563 31.1333C84.8042 31.1276 84.8352 31.1473 84.8521 31.1924Z" fill="#FDCF39"/>
<path d="M22.3618 49.4893C22.3618 49.4645 22.3618 49.4398 22.3618 49.415C22.3673 49.4315 22.3756 49.448 22.3783 49.4673C22.3783 49.4728 22.3673 49.481 22.3618 49.4893Z" fill="#FDCF39"/>
<path d="M44.1914 49.5576C44.1914 49.5329 44.1914 49.5081 44.1914 49.4834C44.1969 49.4999 44.2024 49.5164 44.2051 49.5329C44.2051 49.5384 44.1969 49.5466 44.1914 49.5549V49.5576Z" fill="#FDCF39"/>
<path d="M84.3017 31.1248C84.2679 31.1529 84.2313 31.1586 84.1919 31.1304C84.2285 31.1304 84.2651 31.1276 84.3017 31.1248Z" fill="#FDCF39"/>
<path d="M68.2583 49.6265C68.2583 49.6045 68.2583 49.5825 68.2583 49.5605C68.2638 49.577 68.272 49.5908 68.2748 49.6073C68.2748 49.6128 68.2638 49.621 68.2583 49.6265Z" fill="#FDCF39"/>
<path d="M22.3564 49.7715C22.3564 49.7468 22.3592 49.722 22.3619 49.6973C22.3674 49.7138 22.3729 49.733 22.3757 49.7495C22.3757 49.755 22.3647 49.7633 22.3564 49.7715Z" fill="#FDCF39"/>
<path d="M44.1205 49.7714C44.1068 49.7274 44.1315 49.7055 44.1727 49.7C44.1562 49.7247 44.1397 49.7467 44.1205 49.7714Z" fill="#FDCF39"/>
<path d="M80.3053 31.1462C80.2696 31.1627 80.2476 31.149 80.2339 31.116C80.2586 31.127 80.2833 31.138 80.3053 31.1462Z" fill="#FDCF39"/>
<path d="M80.2287 31.1106C80.1847 31.1051 80.1655 31.0831 80.1737 31.0391C80.193 31.0638 80.2095 31.0858 80.2287 31.1106Z" fill="#FDCF39"/>
<path d="M43.7964 49.8938C43.8274 49.8938 43.8583 49.891 43.8893 49.8882C43.8583 49.8882 43.8274 49.891 43.7964 49.8938Z" fill="#FDCF39"/>
<path d="M88.0217 28.4153C88.0217 28.44 88.0217 28.4648 88.0217 28.4895C88.0162 28.473 88.0052 28.4565 88.0024 28.4373C88.0024 28.4318 88.0134 28.4235 88.0217 28.4153Z" fill="#FDCF39"/>
<path d="M104.907 50.4889C104.89 50.4692 104.873 50.4523 104.859 50.4326C104.876 50.4213 104.893 50.4129 104.907 50.4016C104.907 50.4298 104.907 50.458 104.907 50.4861V50.4889Z" fill="#FDCF39"/>
<path d="M56.7593 50.5044C56.784 50.5044 56.8087 50.5044 56.8335 50.5071C56.806 50.5346 56.784 50.5319 56.7593 50.5044Z" fill="#FDCF39"/>
<path d="M88.0303 23.3757C88.0275 23.4005 88.0248 23.4252 88.022 23.45C88.0165 23.4307 88.011 23.4142 88.0083 23.395C88.0083 23.3895 88.022 23.3812 88.0303 23.3757Z" fill="#FDCF39"/>
<path d="M47.176 40.1057C47.2042 40.1395 47.2014 40.1705 47.1704 40.2043C47.1704 40.1705 47.1732 40.1395 47.176 40.1057Z" fill="#FDCF39"/>
<path d="M108.644 36.2785C110.909 36.2671 112.793 37.984 112.782 40.5223C112.77 43.0322 111.023 44.8432 108.476 44.7748C106.264 44.7177 104.42 43.1491 104.455 40.4083C104.486 37.9498 106.25 36.3013 108.644 36.2756V36.2785Z" fill="#FDCF39"/>
<path d="M24.115 37.3337C24.0466 37.3337 23.9782 37.3337 23.907 37.3337C23.8813 37.3337 23.8557 37.3337 23.83 37.3337C23.642 37.3337 23.4539 37.3337 23.2658 37.3337C23.2401 37.3337 23.2145 37.3337 23.1888 37.3337C23.0948 37.3337 23.0036 37.3337 22.9095 37.3337C22.8839 37.3337 22.8582 37.3337 22.8326 37.3337C22.7386 37.3308 22.6474 37.3251 22.5533 37.3223C22.5248 37.3137 22.4963 37.3051 22.4678 37.2966C22.2712 37.2738 22.351 37.1198 22.351 37.0228C22.3567 36.2584 22.3795 35.4912 22.3795 34.7269C22.3795 33.7372 22.3652 32.7447 22.3538 31.7551C22.3738 31.6638 22.3937 31.5725 22.4137 31.4813C23.4282 31.3786 24.4428 31.4185 25.4573 31.5041C26.1954 31.564 26.8309 31.8321 27.3268 32.3882C27.9595 33.0984 28.0763 33.9169 27.9937 34.8524C27.9139 35.785 27.3838 36.3412 26.734 36.8602C26.3863 37.1397 25.9446 37.1882 25.5257 37.288C25.0811 37.3936 24.6365 37.3451 24.192 37.3308C24.1663 37.3308 24.1407 37.3308 24.115 37.3308V37.3337Z" fill="#FDCF39"/>
<path d="M22.4164 31.4812C22.3964 31.5725 22.3765 31.6637 22.3565 31.755C22.3394 31.6552 22.2995 31.5525 22.4164 31.4812Z" fill="#FDCF39"/>
<path d="M22.4678 37.2966C22.4952 37.3049 22.5227 37.3131 22.5502 37.3214C22.5145 37.3434 22.487 37.3296 22.4678 37.2966Z" fill="#FDCF39"/>
<path d="M57.8341 44.746C55.8477 44.8087 53.545 43.0632 53.7046 40.1941C53.8215 38.0893 55.5684 36.3096 57.8854 36.2868C59.923 36.2696 62.1231 37.8383 62.0404 40.773C61.9777 42.9805 60.1624 44.746 57.8369 44.746H57.8341Z" fill="#FDCF39"/>
</svg>
