<svg width="175" height="70" viewBox="0 0 175 70" fill="none" xmlns="http://www.w3.org/2000/svg">
<path d="M86.0017 45.5339C80.2422 45.6231 76.0058 40.8962 75.6113 36.1829C75.3746 33.3426 76.1224 30.7768 77.9919 28.6157C79.8477 26.4649 82.2249 25.1648 85.1201 24.9693C88.1936 24.7635 90.931 25.6553 93.1779 27.7547C95.0988 29.5522 96.2446 31.7819 96.4058 34.4335C96.5876 37.4178 95.6854 40.0283 93.6272 42.2443C91.8709 44.1344 88.8728 45.6712 86.0051 45.5374L86.0017 45.5339ZM86.0017 29.8712C82.9075 29.6276 80.5475 32.4096 80.4926 35.0578C80.4274 38.1862 82.959 40.6835 85.9399 40.6801C89.1267 40.6766 91.5039 38.2308 91.521 35.2876C91.5382 32.2484 89.0889 29.71 86.0017 29.8712Z" fill="#FDCF39"/>
<path d="M37.6134 35.5483C37.6134 32.5297 37.6134 29.511 37.6134 26.4923C37.6134 26.3037 37.658 26.1013 37.6512 25.9263C37.6409 25.6965 37.5208 25.3843 37.6718 25.2643C37.8193 25.1442 38.1314 25.2163 38.3715 25.2163C43.3626 25.2163 48.3537 25.2163 53.3448 25.2163C53.8696 25.2163 53.8731 25.2163 53.6673 25.7102C53.1047 27.0515 52.5353 28.3927 51.9795 29.7374C51.8801 29.9775 51.6983 29.9569 51.5027 29.9569C48.8511 29.9569 46.1995 29.9638 43.5479 29.9466C43.1877 29.9466 43.0608 30.005 43.0813 30.396C43.1259 31.1404 43.1156 31.8916 43.1019 32.6394C43.0985 32.8796 43.1534 32.9276 43.3935 32.9276C45.6472 32.9241 47.8975 32.9344 50.1512 32.9447C50.2747 32.9447 50.4359 32.8761 50.5079 32.9928C50.5937 33.1334 50.4599 33.2603 50.3776 33.3632C50.1718 33.6205 50.1375 33.9395 50.0208 34.2277C49.7258 34.9617 49.3279 35.6478 49.1358 36.4299C48.9472 37.1983 48.7276 37.3081 47.9009 37.3115C46.419 37.3184 44.9337 37.3287 43.4518 37.3149C43.1499 37.3149 43.0813 37.387 43.0882 37.6854C43.1122 38.4607 43.1156 39.2393 43.0779 40.0111C43.0573 40.4056 43.198 40.4639 43.5582 40.4639C46.7964 40.4502 50.0311 40.4571 53.2693 40.4571C53.9382 40.4571 53.9417 40.4571 53.9417 41.0917C53.9417 42.3335 53.9245 43.5752 53.9451 44.817C53.952 45.16 53.8285 45.2081 53.53 45.2046C49.9522 45.1978 46.371 45.1978 42.7932 45.1978C41.1947 45.1978 39.5996 45.1875 38.0011 45.2046C37.6855 45.2081 37.6031 45.1394 37.6031 44.817C37.6169 41.7263 37.61 38.639 37.61 35.5483H37.6134Z" fill="#FDCF39"/>
<path d="M133.137 45.1979C133.504 44.258 133.858 43.3627 134.242 42.4811C134.828 41.1365 135.381 39.7746 135.953 38.4265C136.355 37.4798 136.657 36.4781 137.123 35.5759C137.861 34.1421 138.437 32.6465 139.089 31.1817C139.929 29.2882 140.715 27.3672 141.504 25.4531C141.62 25.1718 141.751 25.0483 142.08 25.0552C143.606 25.0758 145.13 25.0689 146.656 25.0552C146.924 25.0552 147.061 25.1478 147.164 25.3914C147.984 27.3398 148.814 29.2813 149.64 31.2263C150.268 32.7082 150.879 34.197 151.527 35.6686C151.832 36.358 152.155 37.0475 152.44 37.7405C152.947 38.9891 153.493 40.224 154 41.4761C154.155 41.8568 154.34 42.2239 154.515 42.5909C154.662 42.8996 154.758 43.253 154.896 43.5823C155.077 44.0248 155.263 44.4673 155.468 44.8961C155.571 45.1053 155.582 45.1979 155.307 45.1979C153.496 45.1945 151.685 45.1911 149.877 45.1979C149.675 45.1979 149.616 45.0985 149.555 44.9475C149.16 43.9596 148.759 42.9785 148.368 41.9906C148.261 41.723 148.114 41.5996 147.798 41.603C145.462 41.627 143.123 41.6339 140.787 41.6339C140.478 41.6339 140.313 41.7059 140.197 42.0215C139.83 43.0094 139.411 43.9836 139.02 44.9647C138.952 45.1362 138.856 45.2048 138.653 45.2048C136.828 45.1945 135.003 45.1979 133.144 45.1979H133.137ZM144.272 37.3391C144.272 37.3391 144.272 37.3528 144.272 37.3597C144.742 37.3597 145.212 37.3563 145.682 37.3597C146.601 37.37 146.615 37.3666 146.275 36.5056C145.665 34.9653 145.037 33.432 144.426 31.8918C144.395 31.8095 144.402 31.7306 144.282 31.7306C144.152 31.7306 144.186 31.83 144.155 31.9021C143.733 32.9655 143.301 34.0254 142.876 35.0888C142.639 35.6823 142.406 36.2757 142.173 36.8726C141.994 37.3254 142.011 37.3425 142.478 37.3391C143.075 37.3357 143.675 37.3391 144.272 37.3391Z" fill="#FDCF39"/>
<path d="M98.9511 25.2988C99.054 25.1444 99.2118 25.2199 99.3422 25.2199C101.737 25.2164 104.134 25.2096 106.529 25.2199C106.903 25.2199 107.283 25.3879 107.644 25.3399C107.997 25.2919 108.336 25.3914 108.69 25.3296C109.17 25.2473 109.637 25.4806 110.113 25.5698C111.115 25.7516 112.075 26.1323 112.909 26.6812C114.226 27.5456 115.125 28.7702 115.489 30.3276C115.801 31.6517 115.818 32.9826 115.482 34.2964C115.19 35.425 114.645 36.4369 113.753 37.2225C112.926 37.9497 111.959 38.4608 110.926 38.845C109.808 39.2601 108.645 39.4282 107.455 39.435C106.57 39.4419 105.685 39.4659 104.803 39.4282C104.402 39.411 104.35 39.5517 104.357 39.8947C104.374 41.5309 104.357 43.1672 104.371 44.8035C104.371 45.0985 104.33 45.2082 103.987 45.2048C102.405 45.1842 100.821 45.1876 99.2393 45.2048C98.9408 45.2048 98.8482 45.1293 98.8517 44.8343C98.8654 43.7641 98.8517 42.6904 98.8517 41.6167C98.8517 36.3272 98.8585 31.0342 98.8619 25.7447C98.8619 25.6624 98.8414 25.5732 98.9237 25.5149C99.0094 25.4531 98.9614 25.3742 98.9477 25.2988H98.9511ZM106.165 35.1403V35.1334C106.549 35.1334 106.933 35.1334 107.318 35.1334C108.213 35.1334 108.957 34.8178 109.578 34.1661C110.367 33.336 110.401 31.6997 109.661 30.825C109.029 30.0772 108.161 29.9194 107.276 29.8645C106.395 29.8096 105.51 29.8611 104.628 29.8473C104.426 29.8473 104.361 29.8851 104.361 30.0978C104.371 31.6757 104.371 33.2536 104.361 34.8316C104.361 35.1163 104.47 35.1506 104.714 35.1437C105.198 35.1266 105.681 35.1403 106.168 35.1403H106.165Z" fill="#FDCF39"/>
<path d="M58.1746 25.2164C59.0871 25.2164 59.9996 25.2267 60.912 25.2096C61.1693 25.2061 61.2688 25.2885 61.3511 25.532C61.9548 27.2506 62.5826 28.9623 63.2 30.6775C64.0027 32.8935 64.85 35.0957 65.6081 37.3288C65.6493 37.4455 65.6664 37.6753 65.8722 37.6547C66.0403 37.6376 66.0335 37.442 66.0746 37.3185C66.3628 36.4747 66.5823 35.5931 66.9219 34.7801C67.903 32.4372 68.6302 30.0086 69.577 27.6588C69.8651 26.9453 70.0675 26.2009 70.311 25.4737C70.3659 25.3056 70.462 25.2164 70.6712 25.2164C72.5099 25.2267 74.3485 25.2233 76.1872 25.2199C76.417 25.2199 76.5233 25.2267 76.3964 25.5217C76.0191 26.3862 75.6932 27.2712 75.3364 28.1425C74.8425 29.3499 74.3314 30.5471 73.8408 31.7546C73.0038 33.8128 72.1771 35.8778 71.3401 37.936C70.4071 40.2343 69.4603 42.5292 68.5376 44.8309C68.4312 45.095 68.3112 45.2048 68.023 45.2048C66.572 45.2117 65.1176 45.2322 63.6666 45.2563C63.3853 45.2597 63.2103 45.2014 63.0903 44.9029C62.5483 43.5377 61.9754 42.1827 61.4163 40.8243C60.7234 39.1366 60.0339 37.4489 59.3444 35.7578C58.7921 34.3994 58.2467 33.0341 57.6944 31.6757C57.0804 30.1664 56.4629 28.657 55.8352 27.1546C55.5951 26.5783 55.4235 25.978 55.0977 25.4325C54.9536 25.1959 55.1971 25.213 55.3481 25.213C56.288 25.213 57.2313 25.213 58.1712 25.213L58.1746 25.2164Z" fill="#FDCF39"/>
<path d="M152.309 25.2164C154.312 25.2164 156.295 25.2164 158.274 25.2164C158.442 25.2164 158.552 25.2507 158.645 25.4222C159.231 26.5062 159.835 27.5799 160.435 28.6536C160.662 29.0584 160.905 29.4563 161.149 29.8473C161.626 30.6157 161.979 31.4561 162.528 32.1799C162.607 32.2863 162.59 32.4852 162.772 32.4887C163.015 32.4955 162.864 32.2725 162.929 32.1662C163.406 31.3738 163.873 30.578 164.332 29.7787C165.142 28.3723 165.955 26.9659 166.744 25.5457C166.878 25.3056 167.005 25.2061 167.289 25.2096C168.757 25.2267 170.226 25.2164 171.694 25.2164C172.05 25.2164 172.407 25.2164 172.761 25.2164C173.004 25.2164 173.069 25.2713 172.922 25.508C172.009 26.9865 171.117 28.4752 170.208 29.9537C169.495 31.1131 168.805 32.2931 168.037 33.4183C167.186 34.6669 166.469 35.9979 165.632 37.2499C165.337 37.689 165.464 38.1761 165.478 38.6392C165.529 40.7248 165.512 42.8104 165.471 44.8995C165.468 45.0882 165.413 45.1911 165.21 45.2014C164.919 45.2151 164.6 45.2837 164.339 45.2528C163.331 45.1362 162.329 45.2185 161.324 45.2151C160.998 45.2151 160.665 45.1808 160.343 45.2082C159.931 45.2459 159.897 45.0744 159.897 44.7348C159.911 42.464 159.893 40.1931 159.911 37.9257C159.914 37.442 159.578 37.1436 159.382 36.7765C159.012 36.087 158.559 35.4421 158.147 34.7732C156.889 32.7391 155.612 30.7118 154.378 28.6639C153.729 27.5868 153.081 26.5096 152.405 25.4497C152.364 25.3845 152.347 25.3056 152.309 25.213V25.2164Z" fill="#FDCF39"/>
<path d="M2.01431 31.2023C2.01431 30.3138 2.02117 29.4254 2.01087 28.5369C2.00744 28.2625 2.10692 28.1459 2.38135 28.0841C3.28352 27.8817 4.17883 27.6519 5.07413 27.4221C8.53531 26.5336 11.9931 25.6383 15.4542 24.7464C18.7988 23.8854 22.1467 23.021 25.4947 22.1703C27.0212 21.7827 28.5374 21.347 30.081 21.0246C30.4961 20.9388 30.4927 21.0829 30.3795 21.3745C30.0502 22.208 29.7243 23.0416 29.3778 23.8717C28.8839 25.062 28.3522 26.2386 27.8788 27.4392C27.7519 27.7582 27.5529 27.8646 27.2716 27.9332C25.3129 28.4031 23.3679 28.9108 21.4195 29.4185C19.0114 30.0463 16.5897 30.6294 14.1747 31.2366C12.3189 31.7065 10.47 32.1902 8.61764 32.6601C6.5423 33.185 4.46354 33.6892 2.39164 34.2209C2.07262 34.3033 2.00401 34.2244 2.00744 33.9191C2.0246 33.0169 2.01431 32.1147 2.01431 31.2091V31.2023Z" fill="#FDCF39"/>
<path d="M123.316 32.2245C123.316 34.341 123.316 36.4541 123.316 38.5706C123.316 39.0474 123.303 39.5276 123.279 40.0044C123.265 40.2377 123.33 40.3166 123.584 40.3132C126.29 40.2994 129 40.3063 131.707 40.296C131.974 40.296 132.067 40.3132 131.933 40.615C131.436 41.747 130.973 42.8928 130.493 44.0316C130.441 44.1585 130.359 44.2717 130.311 44.3987C130.103 44.9292 129.714 45.1956 129.144 45.1979C125.467 45.1979 121.79 45.1945 118.113 45.2048C117.814 45.2048 117.701 45.1636 117.708 44.8274C117.732 43.6028 117.718 42.3748 117.718 41.1502C117.718 35.9773 117.718 30.8009 117.711 25.628C117.711 25.3125 117.773 25.2061 118.119 25.2096C119.715 25.2301 121.313 25.2267 122.908 25.2096C123.2 25.2096 123.296 25.2747 123.296 25.58C123.282 27.7926 123.289 30.0085 123.289 32.2211C123.299 32.2211 123.31 32.2211 123.32 32.2211L123.316 32.2245Z" fill="#FDCF39"/>
<path d="M25.7104 32.1455C25.4874 32.9139 25.1718 33.6 24.8871 34.2963C24.4034 35.4901 23.8855 36.6666 23.4258 37.8707C23.2646 38.2995 22.9833 38.4504 22.5819 38.4916C21.4637 38.6048 20.3523 38.7523 19.2408 38.9204C18.0437 39.1022 16.8465 39.2634 15.6459 39.4246C14.3218 39.603 12.9943 39.7642 11.6702 39.946C10.545 40.1004 9.42331 40.2822 8.29474 40.4331C7.32054 40.5635 6.33947 40.6698 5.36184 40.7933C4.3842 40.9168 3.40656 41.0334 2.43236 41.1844C2.10991 41.2358 2.00357 41.1844 2.007 40.8413C2.02072 39.1639 2.03101 37.4831 2.00014 35.8056C1.99328 35.3769 2.24026 35.2396 2.52155 35.3048C2.98807 35.4112 3.40656 35.2259 3.82163 35.1642C4.75124 35.0201 5.69457 34.9481 6.61733 34.7765C7.7013 34.5742 8.799 34.4953 9.88297 34.3066C11.063 34.1042 12.2636 34.0219 13.4471 33.8298C14.6648 33.6343 15.8894 33.4936 17.1072 33.2981C18.0196 33.1506 18.9458 33.058 19.8652 32.9242C20.7982 32.787 21.7312 32.6429 22.6677 32.5469C23.6728 32.4439 24.6539 32.1798 25.707 32.1455H25.7104Z" fill="#FDCF39"/>
<path d="M11.8553 42.4022C14.922 42.4022 17.9853 42.4022 21.0519 42.4022C21.6008 42.4022 21.6488 42.4639 21.4327 42.975C20.7775 44.5427 20.112 46.1035 19.4191 47.6574C19.1996 48.1479 18.9457 48.2611 18.4415 48.2577C13.2514 48.2405 8.06139 48.2474 2.87135 48.2474C2.72727 48.2474 2.5832 48.2337 2.44256 48.2474C2.12011 48.2817 2.00348 48.1754 2.00691 47.8289C2.02406 46.1652 2.02406 44.5015 2.00691 42.8344C2.00691 42.5051 2.0961 42.3884 2.44256 42.3953C3.4545 42.4159 4.46644 42.4056 5.47837 42.4056C7.60173 42.4056 9.72852 42.4056 11.8519 42.4056L11.8553 42.4022Z" fill="#FDCF39"/>
<path d="M98.9511 25.2986C98.9648 25.3741 99.0128 25.453 98.9271 25.5147C98.8173 25.5353 98.8276 25.453 98.831 25.3913C98.831 25.3192 98.8482 25.2472 98.9511 25.3021V25.2986Z" fill="#FDCF39"/>
</svg>
