<svg width="175" height="70" viewBox="0 0 175 70" fill="none" xmlns="http://www.w3.org/2000/svg">
<path d="M146.93 43.7703C147.91 43.6167 148.742 43.1213 149.543 42.5788C151.278 41.3997 152.635 39.8441 153.77 38.0929C154.201 37.4265 154.299 36.6165 154.464 35.8536C154.676 34.8702 155.02 33.9215 155.227 32.9431C155.532 31.5014 156.04 30.1192 156.355 28.68C156.579 27.657 156.938 26.6662 157.187 25.6432C157.605 23.9241 158.194 22.2521 158.566 20.5181C158.647 20.1367 158.861 19.8419 158.723 19.3787C158.484 18.5687 158.477 18.4745 157.586 18.321C156.749 18.1154 155.899 18.264 155.055 18.2169C155.067 17.9618 155.124 17.6992 155.084 17.4515C155.018 17.0304 155.291 17.0701 155.54 17.0502C155.87 17.0899 156.2 17.1295 156.51 16.9561C158.332 16.8124 160.094 16.4012 161.81 15.7721C162.17 15.7646 162.529 15.7622 162.886 15.7498C163.152 15.7399 163.251 15.8761 163.248 16.1238C162.763 17.8875 162.273 19.6487 161.793 21.4123C160.739 25.2666 159.619 29.1036 158.647 32.9827C158.516 33.0867 158.442 33.2453 158.58 33.3468C158.676 33.4162 158.78 33.27 158.822 33.1487C159.415 32.522 160.067 31.9572 160.631 31.3008C160.931 30.949 161.286 30.6543 161.692 30.4016C162.165 30.1093 162.482 29.6139 162.935 29.2621C164.39 28.1376 165.821 26.9882 167.522 26.2401C167.864 26.089 168.199 25.8438 168.536 25.7422C169.536 25.4376 170.57 25.1626 171.589 25.7125C172.148 26.0147 172.488 26.9932 172.318 27.7858C171.978 29.3736 171.471 30.9143 171.023 32.4699C170.555 34.1073 170.102 35.7496 169.605 37.377C169.41 38.0086 169.1 38.6378 168.962 39.2546C168.728 40.3074 168.295 41.3254 168.248 42.4203C168.241 42.5788 168.221 42.7398 168.248 42.8934C168.339 43.478 168.827 43.7331 169.334 43.4334C170.176 42.9405 170.88 42.2741 171.557 41.5756C171.791 41.3329 171.973 41.0356 172.266 40.8523C172.554 40.9588 172.719 41.2041 173 41.4097C172.791 41.6747 172.635 41.9546 172.407 42.1429C171.705 42.72 171.161 43.4532 170.494 44.0725C169.455 45.0336 168.33 45.7222 166.998 46.1185C166.527 46.1185 166.055 46.1185 165.585 46.1185C164.422 45.695 164.051 45.0906 164.292 43.8917C164.585 42.4376 165.087 41.0381 165.501 39.6163C165.929 38.1424 166.429 36.6884 166.781 35.1972C167.047 34.0701 167.584 33.0174 167.672 31.8457C168.145 31.271 168.049 30.523 168.258 29.8665C168.512 29.0739 168.017 28.5265 167.172 28.5884C166.611 28.6305 166.126 28.898 165.649 29.1655C164.523 29.7972 163.529 30.6072 162.544 31.432C161.463 32.3387 160.385 33.2651 159.462 34.3228C158.602 35.3087 157.903 36.4258 157.517 37.7411C156.862 39.963 156.352 42.2271 155.614 44.4267C155.439 44.9494 155.225 45.4993 155.198 46.0764C154.796 46.2474 154.37 46.0244 153.967 46.1507C153.398 46.1086 152.829 46.0913 152.261 46.1582C152.086 46.0963 151.926 46.1384 151.766 46.2152C151.724 46.2028 151.699 46.1755 151.687 46.1334C151.702 46.0641 151.714 45.9972 151.729 45.9278C152.046 44.7735 152.364 43.6167 152.679 42.4624C152.75 42.3782 152.768 42.2395 152.679 42.2172C152.502 42.1726 152.457 42.346 152.403 42.4748C151.076 43.9164 149.57 45.0906 147.686 45.7222C147.172 45.8956 146.63 45.9352 146.118 46.1037C145.18 46.1037 144.24 46.1062 143.302 46.1086C140.815 45.5612 138.983 43.9858 138.183 41.6697C137.784 41.9794 137.398 42.2841 137.009 42.5813C135.386 43.8223 133.666 44.8924 131.728 45.5662C131.002 45.8188 130.258 46.0294 129.488 46.1136C128.547 46.1384 127.607 46.178 126.666 46.1086C125.243 45.8386 124.133 45.1054 123.38 43.852C123.047 43.2996 122.808 42.7076 122.715 42.0512C122.39 42.1379 122.282 42.4005 122.119 42.5887C121.412 43.4161 120.644 44.179 119.788 44.8478C119.027 45.4423 118.205 45.9179 117.247 46.1185C116.828 46.1185 116.407 46.1185 115.989 46.1185C115.13 45.9823 114.233 45.1376 114.12 44.283C113.995 43.3219 114.012 42.3633 114.265 41.4097C114.738 39.6361 115.226 37.8625 115.612 36.0691C115.836 35.0362 116.07 34.0032 116.336 32.9827C116.528 32.2396 116.654 31.4791 116.902 30.7459C117.158 29.9904 117.306 29.1977 117.503 28.4249C117.633 27.9171 117.766 27.4118 117.909 26.8668H115.4C116.043 28.7965 115.233 30.4809 114.659 32.1999C113.827 34.6993 112.663 37.05 111.432 39.3686C110.324 41.4542 109.164 43.5102 107.882 45.4918C106.503 47.6221 105.112 49.7351 103.248 51.5037C102.606 52.113 101.985 52.7397 101.259 53.2426C99.9592 54.1467 98.5288 54.5975 96.9261 54.4762C95.6926 54.382 94.7817 53.8247 94.1392 52.7744C93.9496 52.4623 94.0136 52.1229 93.9791 51.796C93.7551 49.7177 95.732 48.5634 97.3077 48.8285C97.7607 48.9052 98.194 49.1827 98.6051 49.4205C99.036 49.6707 99.5357 49.7697 99.8976 50.1908C100.181 50.5228 100.964 50.4831 101.35 50.1586C102.431 49.257 103.241 48.1894 103.172 46.6734C103.113 45.3903 102.953 44.127 102.707 42.8612C102.549 42.0487 102.5 41.2016 102.357 40.3767C102.042 38.5561 101.737 36.733 101.392 34.9148C101.247 34.1444 101.001 33.3939 100.828 32.6285C100.715 32.1306 100.624 31.6154 100.54 31.1224C100.412 30.3669 100.139 29.6758 99.937 28.955C99.8041 28.4843 99.4397 28.1871 98.9867 27.9047C98.5903 28.8683 98.3983 29.8443 98.1127 30.788C97.8124 31.7739 97.576 32.7796 97.3175 33.7778C96.899 35.3879 96.4805 36.998 96.0669 38.6106C95.8699 39.376 95.5892 40.1191 95.4883 40.9118C95.4415 41.2759 95.348 41.6375 95.4095 42.0066C95.5105 42.6185 95.8822 42.7993 96.4214 42.502C96.8891 42.2419 97.2264 41.8357 97.5391 41.4121C97.9109 40.9068 98.2605 40.3841 98.6125 39.8788C98.6913 39.9011 98.7479 39.9036 98.7848 39.9284C99.3921 40.3346 99.5021 40.8507 99.1147 41.4765C98.4623 42.5268 97.7533 43.5325 96.8621 44.397C95.9684 45.2615 94.9541 45.908 93.7108 46.1309C93.1322 46.1805 92.5414 46.1012 91.9702 46.2573C90.4537 46.0938 89.5083 44.8998 89.464 43.7059C89.4344 42.9157 89.6067 42.1503 89.656 41.3725C89.8012 41.2536 89.8234 41.1223 89.6904 40.9762C89.5846 41.0926 89.4516 41.1892 89.464 41.37C88.8879 42.3138 88.2625 43.2204 87.4846 44.0081C86.3792 45.1302 85.0989 45.9303 83.5085 46.1458C82.8241 46.1408 82.1397 46.1359 81.4553 46.1309C80.5419 46.1185 79.8476 45.6182 79.2149 45.046C78.501 44.4019 78.016 43.5919 77.7599 42.5689C77.1937 43.2798 76.6447 43.9412 76.0193 44.5308C75.1503 45.3507 74.1655 45.9724 72.9813 46.1879C72.0827 46.3514 71.1693 46.3687 70.3298 45.9179C68.956 45.1822 68.6458 43.9313 68.6532 42.4797C68.6606 41.0926 69.2712 39.8516 69.4853 38.5189C69.5912 38.2638 69.7192 38.0086 69.6232 37.6272C69.4016 37.9566 69.3081 38.244 69.2268 38.5363C68.2125 40.5006 66.9545 42.2841 65.3099 43.7728C63.914 45.0361 62.3211 45.8907 60.4377 46.1458C59.7804 46.1309 59.1231 46.2275 58.4657 46.1136C58.3599 46.0963 58.2712 46.1433 58.2122 46.2399C57.6262 45.9873 57.0329 45.7544 56.474 45.4423C56.0506 45.207 55.9841 45.2491 55.8585 45.7272C55.4868 47.144 55.1273 48.5634 54.7457 49.9778C54.6128 50.4658 54.5709 50.9612 54.5734 51.4591C54.5783 52.4474 55.0387 52.9478 56.0235 53.0494C56.282 53.0766 56.5454 53.0692 56.8064 53.0766C56.8581 53.1361 56.9172 53.1782 57.0009 53.1608C57.0797 53.4977 57.1338 53.8346 56.9812 54.1665C53.4902 54.1665 49.9991 54.1715 46.5106 54.1764C46.225 54.1764 45.9369 54.1343 45.6587 54.2309C45.575 53.9312 45.6194 53.624 45.6218 53.3218C45.6218 53.0766 45.804 53.0518 45.9862 53.037C46.2693 53.1039 46.5401 53.0816 46.7838 52.9106C47.1925 52.6233 47.7366 52.4821 47.8843 51.905C48.2462 50.5054 48.8666 49.1852 49.0168 47.7187C49.0931 46.9806 49.3098 46.2523 49.5117 45.5315C50.0016 43.7876 50.4743 42.0413 50.8707 40.2727C51.235 38.6477 51.5206 36.998 51.9908 35.4053C52.3774 34.0924 52.6876 32.7598 53.0125 31.4345C53.1553 30.8475 53.3991 30.2703 53.4163 29.6387C53.4458 28.6379 53.2587 28.3506 52.2641 28.1128C51.9687 27.9567 51.6363 28.0236 51.3237 27.9617C51.2793 27.6446 51.2744 27.3276 51.3286 27.0105C51.7496 26.9981 52.1706 26.9684 52.5792 26.852C52.6826 26.8445 52.7836 26.8396 52.887 26.8321C53.3154 26.8792 53.7314 26.8123 54.1401 26.686C54.2435 26.6786 54.3494 26.6711 54.4528 26.6637C54.7851 26.7256 55.0978 26.6538 55.4055 26.5399C55.5582 26.525 55.7084 26.5077 55.861 26.4928C56.1417 26.5646 56.4002 26.4705 56.6611 26.3813C57.1437 26.4358 57.5819 26.1708 58.0595 26.1856C58.2909 26.2476 58.5002 26.1757 58.7045 26.0692C59.2659 26.0568 59.8001 25.881 60.4476 25.7744C60.2605 27.1542 59.7533 28.41 59.48 29.817C59.8444 29.3711 60.1595 28.9996 60.4574 28.6181C61.26 27.5951 62.1931 26.681 63.2813 26.0073C64.3596 25.341 65.6275 25.1304 66.8954 25.336C67.3164 25.4054 67.7571 25.4326 68.1756 25.6134C69.8153 26.3144 70.6031 27.6322 70.965 29.2993C71.0708 29.7898 71.1028 30.2852 71.1225 30.7831C71.0561 31.11 71.0438 31.4321 71.1915 31.9349C71.2949 31.4345 71.4968 31.1546 71.4229 30.8054C71.3195 30.3595 71.6568 30.0399 71.7454 29.6436C72.0482 28.2837 72.3609 26.9288 72.6933 25.5763C72.8065 25.1205 73.0108 24.687 73.1266 24.2312C73.289 23.5897 73.39 22.9333 73.5475 22.2892C73.7494 21.4569 73.9956 20.6345 74.1901 19.7998C74.2787 19.4282 74.4092 19.0393 74.227 18.6529C74.1852 18.591 74.1433 18.5315 74.1015 18.4696C74.1113 18.42 74.0966 18.3755 74.0621 18.3383C74.0695 18.1228 73.8701 18.1228 73.7544 18.0386L73.747 18.0237C73.747 17.9197 73.6928 17.88 73.5943 17.8949C73.4983 17.8776 73.3998 17.8602 73.3038 17.8429C72.9739 17.6274 72.5874 17.7488 72.2353 17.6621C72.2353 17.3698 72.2353 17.075 72.2353 16.7827C72.6391 16.7158 73.0429 16.6514 73.4466 16.5845C73.55 16.5771 73.6559 16.5697 73.7593 16.5623C74.1409 16.6267 74.5052 16.5449 74.8696 16.4359C74.9705 16.4285 75.0739 16.4186 75.1749 16.4112C75.554 16.4706 75.9135 16.3666 76.2729 16.27C76.3763 16.2551 76.4772 16.2427 76.5806 16.2278C76.8588 16.2923 77.1173 16.2006 77.3734 16.1139C77.947 15.9851 78.5379 15.9702 79.1164 15.834C79.9116 15.6482 80.7118 15.4352 81.5808 15.5021C80.9038 18.1278 80.2834 20.7188 79.6334 23.3048C78.7151 26.9486 77.7747 30.5874 76.8982 34.2435C76.5807 35.5737 76.1892 36.8841 75.8839 38.2167C75.6968 39.0416 75.4211 39.8417 75.2438 40.6591C75.1256 41.2016 74.9213 41.8506 75.4949 42.3311C75.7017 42.4748 75.9036 42.5318 76.0907 42.2989C76.7284 41.7936 77.0533 41.0381 77.5679 40.4337C77.7279 40.2454 77.6762 40.0374 77.6885 39.8417C77.7821 38.2935 78.0209 36.78 78.6659 35.3557C79.1386 34.3104 79.4685 33.166 80.116 32.247C80.7487 31.3478 81.1919 30.3124 82.0388 29.5396C82.4425 29.173 82.7355 28.6379 83.1565 28.254C84.0157 27.4663 84.8823 26.6513 85.9286 26.146C87.0069 25.6258 88.1616 25.2097 89.3975 25.2889C90.4143 25.3533 91.4113 25.502 92.1031 26.416C92.31 26.6885 92.5094 26.9461 92.6128 27.278C92.6866 27.5158 92.7457 27.771 93.0116 27.9741C93.2356 27.3177 93.2529 26.6439 93.5434 26.0544C95.0821 26.0469 96.6208 26.0246 98.157 26.037C98.6248 26.0395 99.1369 25.8661 99.5431 26.3045C99.5997 26.3665 99.8336 26.2599 99.9838 26.2327C100.035 26.2377 100.085 26.2327 100.134 26.2129C100.511 26.2723 100.865 26.1584 101.22 26.0568L101.234 26.0519C101.564 26.1039 101.877 26.0395 102.18 25.9156C102.749 25.8488 103.317 25.7819 103.886 25.715C104.359 25.5763 104.846 25.5986 105.331 25.5713C105.993 26.2178 106.151 27.117 106.382 27.9394C106.946 29.9458 107.313 32.0018 107.7 34.0528C107.825 34.7216 108.037 35.4102 108.145 36.0666C108.249 36.6983 108.33 37.3621 108.47 37.9888C108.613 38.6155 108.561 39.2794 108.852 39.8714C109.223 39.7723 109.061 39.3884 109.187 39.1481C109.822 37.9343 110.481 36.7231 110.984 35.4523C111.451 34.2658 112.018 33.0917 112.114 31.7813C112.2 31.6946 112.138 31.6401 112.072 31.5856C111.799 30.9664 111.316 30.518 110.77 30.1811C110.257 29.8641 110.009 29.438 109.888 28.8807C109.772 28.3456 109.834 27.8081 109.851 27.2706C109.864 26.8792 110.132 26.6488 110.358 26.3689C111.183 25.3484 112.207 25.0833 113.438 25.4252C114.662 25.7645 115.75 25.3335 116.767 24.7217C118.507 23.6788 119.884 22.2719 120.91 20.4958C121.316 19.7923 121.856 19.1681 122.109 18.3804C122.163 18.212 122.262 18.1946 122.395 18.1946C122.757 18.1946 123.119 18.1946 123.547 18.1946C122.983 20.5825 122.434 22.8961 121.873 25.2766H125.246C125.253 25.5688 125.263 25.8091 125.192 26.0568C124.965 26.8371 124.968 26.8396 124.145 26.8396C123.414 26.8396 122.68 26.8321 121.949 26.8396C121.314 26.847 121.272 26.9337 121.164 27.5381C121.023 28.3134 120.817 29.0764 120.63 29.8418C120.233 31.4742 119.879 33.1189 119.413 34.729C119.049 35.9849 118.778 37.2606 118.448 38.5239C118.187 39.5197 117.862 40.508 117.771 41.5409C117.715 42.1875 117.631 42.8736 118.357 43.265C118.665 43.4953 118.978 43.4953 119.295 43.2848C119.98 42.8042 120.735 42.4228 121.277 41.749C121.597 41.3502 121.878 40.9167 122.272 40.5774C122.498 40.3817 122.57 40.1117 122.567 39.7996C122.562 38.5833 122.813 37.4067 123.126 36.2351C123.473 34.9272 123.961 33.6936 124.662 32.5244C125.128 31.7516 125.595 30.9887 126.115 30.253C126.376 29.8839 126.76 29.6733 127.036 29.3315C128.045 28.0855 129.296 27.1418 130.741 26.4655C131.595 26.0667 132.496 25.8042 133.407 25.5763C133.688 25.6209 133.951 25.5763 134.202 25.4425C134.303 25.4351 134.407 25.4301 134.508 25.4227C134.983 25.4648 135.46 25.4673 135.935 25.4054C136.711 25.5589 137.482 25.6605 138.218 26.0395C139.412 26.6563 139.924 27.6644 140.035 28.9054C140.177 30.5032 139.53 31.8383 138.484 33.0025C137.939 33.6094 137.294 34.0924 136.625 34.5482C134.572 35.9527 132.243 36.624 129.845 37.0971C129.47 37.1714 129.101 37.3151 128.705 37.2804C128.326 37.2333 127.961 37.2903 127.607 37.4265C126.873 37.4587 126.873 37.2953 126.659 38.2341C126.423 39.2695 126.368 40.3321 126.558 41.3428C126.807 42.668 127.688 43.5498 129.03 43.8941C129.598 44.1196 130.167 44.0973 130.733 43.8941C133.24 43.1981 135.32 41.7465 137.322 40.1464C137.678 39.8615 137.858 39.5865 137.836 39.1035C137.784 38.0037 137.986 36.9286 138.186 35.8462C138.321 35.108 138.698 34.4689 138.828 33.7283C138.912 33.2527 139.338 32.8465 139.559 32.3857C140.096 31.271 140.781 30.2554 141.625 29.3687C142.674 28.2713 143.791 27.2632 145.222 26.6315C146.182 26.2055 147.154 25.8512 148.161 25.5763C148.445 25.6283 148.715 25.6159 148.964 25.4549C150.264 25.3187 151.544 25.4599 152.755 25.928C153.794 26.3293 154.592 26.9907 154.954 28.1648C155.173 28.8732 155.318 29.5272 155.057 30.2109C154.767 30.9713 154.331 31.6302 153.501 31.9076C153.026 31.977 152.531 31.8309 152.066 32.0216C151.14 31.5212 150.707 30.4586 151.044 29.4009C151.214 28.8683 151.463 28.363 151.677 27.8477C151.731 27.7165 151.736 27.6 151.645 27.4861C151.677 27.2954 151.502 27.4118 151.446 27.3523C151.288 27.2409 151.133 27.1294 150.975 27.0179C150.353 26.6761 149.725 26.7777 149.097 27.0006C148.427 27.283 147.753 27.5059 147.113 27.9022C146.273 28.4224 145.559 29.0714 144.995 29.8096C143.91 31.2364 143.041 32.8093 142.457 34.5358C141.849 36.3416 141.746 38.1919 141.925 40.0572C142.095 41.8109 143.693 43.4185 145.478 43.7802C145.96 43.9957 146.443 43.9957 146.926 43.7777L146.93 43.7703ZM127.255 35.8709L127.269 35.9007C127.653 36.1137 128.02 35.9304 128.392 35.8511C128.444 35.8561 128.493 35.8486 128.542 35.8313C128.774 35.8709 128.995 35.8759 129.19 35.7124C129.458 35.7372 129.697 35.6133 129.948 35.5588C131.972 35.108 133.754 34.1964 135.244 32.735C135.847 32.143 136.354 31.4717 136.637 30.6666C136.901 29.9235 137.085 29.1631 136.908 28.358C136.79 27.8279 136.514 27.4985 135.985 27.3152C135.394 27.1071 134.813 27.1195 134.229 27.2285C132.944 27.4712 131.871 28.1227 130.943 29.0318C129.483 30.4586 128.483 32.1801 127.774 34.08C127.58 34.6002 127.218 35.0709 127.272 35.6703C127.188 35.7322 127.109 35.7917 127.255 35.8709ZM89.9416 27.7883C89.4812 27.9617 89.0159 28.1821 88.7278 28.5686C87.7701 29.8492 86.9528 31.224 86.3201 32.7003C86.197 32.9876 85.8769 33.1288 85.8597 33.4806C85.8375 33.9364 85.5938 34.3277 85.4165 34.7315C84.9512 35.7966 84.6336 36.9014 84.4318 38.0433C84.3456 38.1449 84.289 38.2539 84.3431 38.3926C84.1634 39.324 84.0674 40.2603 84.1585 41.209C84.2693 42.3732 85.286 42.8959 86.3225 42.4426C87.3221 42.0066 87.9597 41.2338 88.4349 40.3495C89.1291 39.0564 89.7274 37.7089 90.2789 36.3465C90.8796 34.8603 91.2907 33.3022 91.6009 31.7318C91.7585 30.9267 91.9382 30.1043 91.852 29.2646C91.7831 28.6032 91.564 28.0459 90.8943 27.7784C90.5743 27.5654 90.2567 27.5777 89.9416 27.7883ZM58.2491 44.3871C59.1206 44.1864 59.6918 43.5721 60.2186 42.9157C60.9621 41.9918 61.5235 40.9539 61.974 39.859C62.2842 39.101 62.4885 38.2861 62.8332 37.5553C63.2813 36.6066 63.3921 35.5687 63.7958 34.62C63.8648 34.4565 63.8992 34.2633 63.8968 34.0825C63.8918 33.5871 64.0494 33.1264 64.1627 32.6557C64.3744 31.7689 64.4827 30.8821 64.1996 29.983C63.9312 29.1284 63.232 28.7048 62.3876 28.9377C62.0331 29.0343 61.7106 29.2126 61.425 29.4504C60.9794 29.822 60.6224 30.2703 60.3073 30.7583C59.4653 32.0563 58.968 33.5029 58.5421 34.9767C57.961 36.9782 57.3973 38.9846 56.8581 40.9985C56.6956 41.6029 56.6119 42.232 56.5454 42.8563C56.4568 43.6663 56.6981 44.0403 57.4465 44.3871C57.7148 44.5679 57.9807 44.5654 58.2491 44.3871Z" fill="#FDCF39"/>
<path d="M15.8694 53.8424C15.0816 53.8424 14.2938 53.8424 13.5084 53.8424C13.0406 53.7458 12.5704 53.674 12.0928 53.7136C11.9377 53.7037 11.7826 53.6913 11.6275 53.6814C11.3788 53.56 11.1179 53.5006 10.8397 53.5452C9.76133 53.4634 8.73963 53.1389 7.75485 52.7178C7.44219 52.5841 7.09998 52.6163 6.79962 52.4305C5.12058 51.3926 3.55479 50.2433 2.70789 48.3657C2.41492 47.7167 2.07517 47.0875 2.02839 46.3394C1.92992 44.7095 2.08009 43.0969 2.5971 41.5686C3.23474 39.6885 4.34015 38.0437 5.49972 36.4386C6.17183 35.5122 6.99658 34.722 7.67115 33.803C7.96904 33.3968 8.46635 33.2135 8.7864 32.8394C9.70963 31.7644 10.8987 31.0039 11.9672 30.1048C12.7797 29.4211 13.7472 28.9232 14.6458 28.3386C14.8428 28.2123 15.0249 28.0637 15.217 27.9324C15.4435 27.7788 15.5296 27.5881 15.5272 27.2958C15.5075 25.8764 15.5149 24.4546 15.5173 23.0327C15.5173 22.6661 15.5395 22.3045 15.6478 21.9428C16.118 20.3996 17.7823 19.9785 19.0354 20.7365C19.9439 21.2864 20.8351 21.8685 21.7337 22.4358C22.2606 22.7677 22.8047 23.0798 23.3167 23.434C23.691 23.6941 24.0479 23.7536 24.4886 23.6124C25.3675 23.3275 26.2637 23.1021 27.1475 22.8296C28.2308 22.4977 29.3337 22.2797 30.449 22.1063C31.0792 22.0072 31.7095 21.8933 32.3373 21.7868C32.7189 21.8314 33.0906 21.8116 33.4476 21.6555C33.7036 21.6456 33.9597 21.6357 34.2182 21.6258C35.3753 21.6208 36.5299 21.6159 37.687 21.6134C37.9431 21.6283 38.1991 21.6406 38.4552 21.6555C38.7088 21.7893 38.9771 21.8264 39.2578 21.7744C40.5626 22.0122 41.86 22.2921 43.0959 22.7702C45.4791 23.6916 47.3501 25.2027 48.2488 27.6921C48.6968 28.9356 48.8027 30.2459 48.6205 31.5588C48.554 32.0369 48.2758 32.4803 48.3325 32.9905C48.1847 33.0525 48.1971 33.1887 48.1872 33.315C47.9065 33.3992 48.101 33.637 48.0346 33.7906C47.9238 33.7906 47.8696 33.8426 47.8942 33.9591C47.7342 34.831 47.3354 35.6088 46.9168 36.3668C45.5948 38.7571 43.8271 40.7908 41.8428 42.6412C39.2602 45.0489 36.3773 47.028 33.2777 48.7001C31.1334 49.8568 28.9103 50.8254 26.6157 51.6428C24.7964 52.2893 22.9327 52.7674 21.0542 53.2034C20.328 53.3718 19.5943 53.4734 18.8557 53.5501C18.5283 53.4981 18.2181 53.57 17.9128 53.6839C17.7552 53.6938 17.6001 53.7012 17.4426 53.7112C16.9132 53.674 16.3889 53.7359 15.8719 53.8424H15.8694ZM36.4339 25.3983C37.3399 25.651 38.2804 25.7352 39.1814 26.0473C40.8974 26.6418 42.3032 27.5905 43.2166 29.2031C43.2707 29.2997 43.2781 29.4657 43.4529 29.4632C43.7459 26.8648 41.9881 24.4967 39.5926 23.7189C38.8712 23.4836 38.1105 23.3795 37.367 23.216C36.3207 22.9758 35.2744 22.9981 34.228 23.216C31.547 23.4885 28.9964 24.2366 26.4779 25.3587C27.118 25.9061 27.6867 26.2282 28.504 25.9359C29.1195 25.7179 29.7966 25.6758 30.4465 25.5569C30.7272 25.6163 30.9857 25.5296 31.2442 25.4355C31.3451 25.4281 31.4485 25.4182 31.5494 25.4107C31.8793 25.4504 32.2043 25.4504 32.5121 25.2968C33.551 25.2968 34.5899 25.2968 35.6264 25.2968C35.8825 25.433 36.1533 25.4528 36.4339 25.4033V25.3983ZM14.6064 49.9089C14.2765 49.842 13.9392 49.7999 13.6167 49.7057C10.7067 48.8784 8.4048 47.4194 7.90257 44.1051C7.96165 43.9713 8.03305 43.7633 7.86564 43.7385C7.67115 43.7113 7.71546 43.9317 7.72777 44.0729C7.49389 45.1579 7.40526 46.2577 7.60714 47.3501C8.10691 50.0624 10.5762 52.1134 13.437 52.2472C14.6089 52.3017 15.7783 52.3389 16.9477 52.2323C17.2776 52.3017 17.5878 52.2101 17.8956 52.1011C19.1413 51.9401 20.3378 51.5734 21.5343 51.2118C24.0676 50.4464 26.4409 49.3168 28.7231 47.9842C28.9989 47.9297 29.2057 47.7662 29.3805 47.5383C29.0678 47.5309 28.7945 47.6126 28.5631 47.8232C27.2189 48.3186 25.8796 48.8239 24.4911 49.1781C23.3512 49.4704 22.2187 49.7825 21.0419 49.9039C20.6628 49.8544 20.3009 49.9287 19.9464 50.0501C19.8405 50.055 19.7371 50.06 19.6312 50.0649C18.3732 50.0649 17.1176 50.0674 15.8595 50.0699C15.7044 50.0624 15.5493 50.0525 15.3942 50.0451C15.1456 49.9138 14.8822 49.8643 14.604 49.9089H14.6064ZM32.9774 33.0004C32.7656 32.4059 32.2339 32.1582 31.7538 31.8536C30.156 30.8404 28.5582 29.8248 26.9579 28.8117C25.3331 27.7837 23.7082 26.7558 22.0833 25.7278C21.5121 25.3661 20.9607 24.9723 20.3673 24.6577C19.4146 24.1524 18.3904 24.675 18.1885 25.7377C18.1442 25.9681 18.1344 26.2083 18.1344 26.4437C18.1541 31.2021 18.1762 35.9605 18.2033 40.7165C18.2107 42.1235 19.3604 42.77 20.5692 42.0541C21.298 41.6231 22.0242 41.1797 22.7382 40.7239C24.5526 39.5597 26.4089 38.4624 28.2332 37.3105C29.5479 36.4807 30.8946 35.6881 32.2388 34.8979C32.8887 34.5164 33.2186 33.9714 33.0512 33.1912C33.098 33.0995 33.0438 33.0475 32.9749 33.0004H32.9774ZM32.0271 26.9985C31.1703 27.1372 30.3136 27.2859 29.3953 27.6178C30.7469 28.408 31.9729 29.1313 33.2063 29.8471C34.3117 30.4887 35.4245 31.1179 36.5299 31.757C37.2513 32.1756 37.5344 32.8692 37.5738 33.6494C37.6107 34.3802 37.2907 34.9623 36.6777 35.4007C36.4241 35.5815 36.1779 35.7723 35.912 35.9358C30.348 39.3491 24.7816 42.7625 19.2152 46.1759C18.9493 46.3394 18.6932 46.5252 18.3855 46.6069C17.9103 46.7035 17.4401 46.6416 16.9699 46.5822C15.9728 46.1338 15.5395 45.3412 15.542 44.2636C15.542 41.9253 15.5395 39.5869 15.5272 37.2486C15.5272 37.095 15.6404 36.887 15.3795 36.7656C14.5473 37.7812 13.8334 38.8736 13.245 40.0477C12.7009 41.1326 12.2897 42.2696 12.174 43.4834C12.0559 44.6922 12.1494 45.8638 12.9249 46.8918C13.5626 47.734 14.3947 48.3012 15.3696 48.6183C16.7015 49.0518 18.0851 49.0171 19.4663 48.9131C19.7962 48.9849 20.1064 48.8933 20.4141 48.7868C21.4137 48.6381 22.3984 48.3929 23.3561 48.0857C26.6305 47.0404 29.6144 45.4204 32.3274 43.3025C34.6589 41.4819 36.6801 39.3714 38.2238 36.825C38.5487 36.29 38.7112 35.6781 39.0017 35.1381C39.7255 33.7832 40.0604 32.3539 39.8437 30.8454C39.7132 29.9388 39.3218 29.1238 38.6275 28.4303C38.2385 28.0414 37.7683 27.9026 37.3719 27.6079C36.9312 27.2809 36.4733 27.167 35.9563 27.167C35.7003 26.8771 35.3802 26.7979 35.0109 26.8697C34.2822 26.8276 33.5535 26.8301 32.8247 26.8771C32.5465 26.8226 32.2806 26.8648 32.0295 27.001L32.0271 26.9985Z" fill="#FDCF39"/>
</svg>
