<svg width="175" height="70" viewBox="0 0 175 70" fill="none" xmlns="http://www.w3.org/2000/svg">
<path d="M23.467 13.2674C11.6845 13.2031 2.03396 22.6959 2.00089 34.6405C1.89391 46.2068 11.3907 56.6924 24.4085 56.156C35.0997 55.7152 44.723 46.9518 44.7405 34.7361C44.758 22.8715 35.3351 13.3318 23.467 13.2674ZM23.395 52.4638C13.8165 52.7583 6.79988 44.9468 5.8039 37.4707C5.01607 31.5588 6.61508 26.3296 10.7507 22.0874C14.2153 18.5337 18.6057 16.9928 23.6051 16.9401C33.1544 16.8368 41.2487 25.448 41.1806 34.7849C41.1106 44.2407 33.0688 52.7505 23.395 52.4658V52.4638Z" fill="#FDCF39"/>
<path d="M94.4109 32.1985C93.5667 31.1725 92.4559 30.4957 91.353 29.8131C89.4155 28.6174 87.3048 27.8607 85.0406 27.7066C82.8404 27.5564 80.6812 27.7787 78.5764 28.6291C76.6506 29.4093 74.9777 30.4782 73.5615 31.982C73.2931 31.6348 73.4078 31.2291 73.4078 30.8507C73.4 25.3582 73.4078 19.8638 73.3961 14.3713C73.3961 14.0046 73.5576 13.5813 73.1783 13.281C72.369 13.279 71.552 13.3317 70.7486 13.2595C69.9297 13.1854 69.671 13.3902 69.6748 14.2894C69.7176 22.4793 69.7001 30.6713 69.7001 38.8612C69.7001 44.3206 69.7196 49.7819 69.6787 55.2412C69.6729 56.0409 69.9199 56.2262 70.6494 56.1716C71.4878 56.1091 72.334 56.154 73.1763 56.1521C73.5518 55.8595 73.365 55.446 73.4 55.0852C73.507 53.9558 73.1997 52.8051 73.5693 51.6875C73.7852 51.8825 74.0031 52.0756 74.2151 52.2726C76.993 54.8374 80.2727 56.1228 84.0485 56.1638C86.9664 56.1969 89.4836 55.052 91.8918 53.5462C93.1465 52.7622 94.2067 51.746 95.1307 50.6245C96.1831 49.3508 96.7122 47.8138 97.2841 46.2398C97.7412 44.9876 97.7451 43.7393 98.0447 42.5203C98.3307 41.352 97.9844 40.1056 97.7432 38.8905C97.2374 36.3373 96.0352 34.1762 94.409 32.2004L94.4109 32.1985ZM83.8637 52.4618C78.1348 52.6393 73.2425 47.847 73.2541 41.8923C73.2658 35.9512 77.7691 31.114 83.9551 31.2232C89.931 31.3286 93.7982 35.288 94.4168 40.3709C95.3213 47.8021 89.4583 52.7895 83.8637 52.4618Z" fill="#FDCF39"/>
<path d="M161.56 27.5447C160.655 27.572 159.751 27.5427 158.846 27.5369C158.412 27.8021 158.632 28.2312 158.589 28.5901C158.455 29.7233 158.846 30.8897 158.375 32.0015C153.829 27.847 148.69 26.5226 142.786 28.6389C137.349 30.5874 133.087 36.9049 133.882 43.2888C134.386 47.3399 136.156 50.6693 139.386 53.1737C142.263 55.405 145.564 56.4758 149.165 56.1267C152.734 55.7815 155.883 54.3147 158.42 51.6835C158.784 52.6393 158.48 53.634 158.593 54.6034C158.654 55.1202 158.371 55.6878 158.813 56.1501C159.751 56.152 160.688 56.1325 161.626 56.1657C162.099 56.1813 162.303 56.0916 162.303 55.5435C162.285 46.4349 162.285 37.3262 162.303 28.2156C162.303 27.6129 162.066 27.5291 161.562 27.5447H161.56ZM147.715 52.4618C144.825 52.6666 142.574 51.3012 140.545 49.4639C138.88 47.9562 138.22 45.8322 137.294 43.8759C136.898 35.4031 142.389 31.1901 148.013 31.192C154.034 31.1959 158.21 35.8166 158.62 40.878C159.198 48.003 153.279 52.9455 147.713 52.4618H147.715Z" fill="#FDCF39"/>
<path d="M130.221 28.3093C130.284 27.7144 130.081 27.5271 129.472 27.5408C127.595 27.5798 125.716 27.5369 123.837 27.5661C123.298 27.5739 123.111 27.4394 123.123 26.8698C123.162 24.7594 123.148 22.649 123.154 20.5386C121.946 20.1095 120.738 20.129 119.528 20.5269C119.532 22.0522 119.559 23.5794 119.528 25.1047C119.513 25.9024 119.898 26.9634 119.353 27.4238C118.894 27.8138 117.869 27.5973 117.101 27.5369C116.254 27.4706 115.861 27.6773 115.978 28.6194C116.077 29.4171 115.723 30.5016 116.13 30.9716C116.604 31.5217 117.717 31.2037 118.534 31.1335C119.464 31.0516 119.555 31.4339 119.554 32.2238C119.524 39.3684 119.53 46.5129 119.546 53.6574C119.546 54.4591 119.19 55.4967 119.701 55.9999C120.209 56.4973 121.246 56.0623 122.04 56.1638C122.919 56.2749 123.164 55.9765 123.16 55.0696C123.121 47.4374 123.156 39.8053 123.113 32.1751C123.108 31.274 123.374 31.0906 124.191 31.1433C125.288 31.2135 126.393 31.1706 127.494 31.1589C128.362 31.1491 129.546 31.4515 130.019 31.0067C130.622 30.4372 130.128 29.2318 130.225 28.3073L130.221 28.3093Z" fill="#FDCF39"/>
<path d="M172.983 21.9625C172.983 19.3352 172.965 16.706 172.996 14.0787C173.002 13.476 172.895 13.2088 172.218 13.2576C171.318 13.322 170.407 13.2771 169.501 13.2771C169.137 13.5404 169.283 13.9305 169.283 14.266C169.275 27.8977 169.275 41.5295 169.283 55.1612C169.283 55.4967 169.141 55.8868 169.505 56.1501C170.345 56.1501 171.193 56.0857 172.026 56.1735C172.884 56.2632 173.002 55.92 173 55.1515C172.975 44.0885 172.983 33.0255 172.983 21.9625Z" fill="#FDCF39"/>
<path d="M59.0323 27.5482C56.9917 27.5287 54.9511 27.5502 52.9144 27.4663C52.0001 27.4293 51.7764 27.7374 51.7803 28.621C51.8134 36.969 51.8037 45.315 51.8056 53.6629C51.8056 56.1888 51.8056 56.142 54.3617 56.2024C55.3382 56.2258 55.5347 55.8826 55.5289 54.9775C55.49 49.7152 55.5094 44.4548 55.5094 39.1925C55.5094 36.8207 55.5308 34.4509 55.4958 32.0792C55.4861 31.3887 55.7195 31.1683 56.3926 31.1937C57.264 31.2288 58.1394 31.1702 59.0128 31.1527C60.1625 31.1585 61.3102 31.1644 62.4599 31.1702C62.8645 29.9571 62.8839 28.7439 62.4482 27.5326C61.3102 27.5365 60.1722 27.5424 59.0342 27.5463L59.0323 27.5482Z" fill="#FDCF39"/>
<path d="M108.78 20.4587C107.621 20.1779 106.464 20.1174 105.312 20.4977C105.31 21.4691 105.329 22.4404 105.292 23.4098C105.273 23.8896 105.444 24.0144 105.897 23.9988C106.864 23.9657 107.833 23.9813 108.802 23.9754C109.156 22.8188 109.117 21.6583 108.827 20.4958L108.78 20.4587Z" fill="#FDCF39"/>
<path d="M108.74 27.5349C107.833 27.5408 106.925 27.5759 106.018 27.5447C105.493 27.5271 105.287 27.6519 105.289 28.2351C105.306 37.334 105.306 46.431 105.289 55.5298C105.289 56.0662 105.469 56.1852 105.958 56.1676C106.895 56.1325 107.837 56.1559 108.776 56.154C109.146 55.8946 109 55.5025 109 55.1671C109.008 46.2749 109.008 37.3847 109 28.4926C109 28.163 109.162 27.7592 108.738 27.5349H108.74Z" fill="#FDCF39"/>
</svg>
