<svg width="168" height="66" viewBox="0 0 168 66" fill="none" xmlns="http://www.w3.org/2000/svg">
<path d="M97.5565 37.9125C96.2572 37.9125 94.9534 37.8992 93.6541 37.9169C93.1299 37.9257 92.7687 37.6702 92.434 37.3178C91.5178 36.3577 90.5885 35.4151 89.5314 34.6002C88.6637 33.9307 87.7652 33.3141 86.7697 32.8648C85.9329 32.486 85.074 32.1821 84.127 32.2438C83.5236 32.2834 82.9422 32.3715 82.374 32.5873C81.4402 32.9397 80.5813 33.4066 79.7621 33.9792C79.1498 34.402 78.5816 34.8733 78.0223 35.3534C77.2911 35.9833 76.5864 36.6572 75.9565 37.3927C75.6306 37.7715 75.2342 37.9389 74.7188 37.9345C72.1642 37.9125 69.6095 37.9213 67.0593 37.9169C66.9404 37.9169 66.8215 37.9169 66.7025 37.9125C66.403 37.8904 66.2489 37.6614 66.3546 37.3883C66.7157 36.4193 67.0945 35.4547 67.4469 34.4857C67.742 33.6709 68.0327 32.8516 68.3587 32.05C68.9885 30.4908 69.5435 28.9051 70.1645 27.3459C70.3803 26.8042 70.6182 26.2668 70.8164 25.7162C71.1379 24.8089 71.4771 23.9104 71.8118 23.0118C72.5254 21.1002 73.2565 19.1931 73.9833 17.2815C74.688 15.4228 75.3971 13.564 76.1063 11.7053C76.5599 10.5161 77.0004 9.32245 77.4629 8.13762C78.1324 6.42865 78.749 4.69766 79.3921 2.97988C79.6608 2.26634 79.9074 1.54399 80.2289 0.856881C80.4756 0.323928 80.7795 -0.032841 81.4798 0.00239546C83.3606 0.0992958 85.2457 0.0684639 87.1265 0.0244183C87.7872 0.0112046 88.1439 0.420829 88.3069 0.843667C89.0293 2.72441 89.7252 4.60957 90.4343 6.49472C90.9408 7.84692 91.4562 9.19472 91.9627 10.5469C92.6454 12.3748 93.3237 14.2027 94.0108 16.0262C94.6583 17.744 95.3234 19.4573 95.9576 21.1795C96.539 22.7564 97.1689 24.3112 97.7018 25.9012C97.997 26.7777 98.3669 27.6322 98.6973 28.4955C99.0629 29.4689 99.4284 30.4423 99.7984 31.4157C100.138 32.301 100.406 33.2172 100.803 34.0805C100.935 34.3712 101.01 34.6883 101.129 34.9834C101.397 35.6529 101.648 36.3268 101.877 37.0095C101.935 37.1725 102.032 37.3267 102.084 37.4896C102.159 37.7275 102.045 37.8684 101.807 37.9081C101.732 37.9213 101.648 37.9213 101.569 37.9213C100.239 37.9213 98.9087 37.9213 97.5741 37.9213C97.5741 37.9213 97.5741 37.9125 97.5741 37.9081L97.5565 37.9125ZM85.9152 19.4265C88.1439 19.4265 90.3727 19.4265 92.597 19.4265C92.7071 19.4265 92.8172 19.4441 92.9229 19.4265C93.0154 19.4089 93.1784 19.4265 93.0506 19.2239C92.9757 19.1094 92.9669 18.942 92.9713 18.7967C92.9757 18.506 92.8304 18.4311 92.5661 18.4311C91.7689 18.4267 90.9717 18.4575 90.1744 18.4223C89.9718 18.4135 89.9278 18.343 89.8749 18.1932C89.6327 17.5193 89.32 16.8851 88.8399 16.3345C87.5009 14.7753 85.8448 13.9913 83.7614 14.1102C82.4929 14.1851 81.3962 14.6388 80.4272 15.4228C79.3921 16.2552 78.6873 17.3079 78.3658 18.6029C78.2821 18.9464 78.2028 19.29 78.2117 19.66C78.2117 19.8494 78.0927 20.0652 78.1192 20.2766C78.194 20.9109 78.2909 21.5495 78.5288 22.1397C79.4405 24.3861 81.0878 25.7162 83.5103 26.0598C84.5058 26.2007 85.4748 26.0598 86.3909 25.7162C87.0164 25.4784 87.6066 25.1128 88.1087 24.6547C88.8619 23.972 89.4389 23.1572 89.8089 22.2058C89.9366 21.8799 89.9278 21.8622 89.5754 21.8622C86.3425 21.8622 83.1095 21.8622 79.8766 21.8622C79.6387 21.8622 79.4009 21.8402 79.1674 21.8622C78.8723 21.8887 78.7402 21.7301 78.7182 21.4878C78.6741 20.9637 78.586 20.444 78.6565 19.911C78.7226 19.4309 78.7094 19.4265 79.1983 19.4265C81.4358 19.4265 83.6733 19.4265 85.9108 19.4265H85.9152ZM92.7247 20.3162C92.3151 20.3162 92.3107 20.3162 92.3195 20.7259C92.3415 21.5143 92.1036 22.2542 91.8746 22.9942C91.8306 23.1352 91.6764 23.1792 91.6456 23.3201C91.5046 23.9148 91.1963 24.4169 90.8087 24.8838C90.7558 24.9498 90.6193 24.9851 90.703 25.1172C90.8175 25.2934 90.9408 25.4652 91.1523 25.518C91.2712 25.5489 91.3328 25.4255 91.3945 25.3374C92.3679 23.95 92.9537 22.4216 93.0815 20.7259C93.1079 20.3427 93.1035 20.325 92.7247 20.325V20.3162ZM88.8443 12.6171C88.6329 12.6435 88.6152 12.8505 88.5051 12.965C88.3906 13.0839 88.4302 13.2029 88.5668 13.2777C89.0733 13.5508 89.4785 13.9472 89.8926 14.3392C90.6634 15.066 91.28 15.8985 91.672 16.8851C91.7116 16.9908 91.7645 17.048 91.8878 17.0348C92.3151 16.9776 92.4472 16.7265 92.2314 16.3653C92.2094 16.3301 92.1873 16.2993 92.1741 16.264C91.4694 14.7885 90.3815 13.6521 89.0513 12.7316C88.9852 12.6875 88.9147 12.6567 88.8487 12.6215L88.8443 12.6171ZM84.9242 28.936C85.2017 28.8831 85.5056 28.9095 85.7875 28.8523C86.6288 28.6717 87.448 28.425 88.2232 28.0418C88.4655 27.9229 88.4523 27.782 88.3554 27.5926C88.2541 27.3988 88.1351 27.271 87.8885 27.412C87.3335 27.7247 86.7169 27.8701 86.109 28.0462C85.7743 28.1431 85.4175 28.1431 85.0784 28.2048C84.5102 28.3061 83.9596 28.3634 83.3914 28.2356C83.1448 28.1784 83.0435 28.2841 83.0082 28.6144C82.9862 28.8347 83.0655 28.9404 83.3033 28.9404C83.8451 28.9316 84.3824 28.9404 84.9242 28.9404V28.936ZM79.8986 27.249C79.925 27.0993 79.8457 27.0552 79.7709 27.0068C79.3789 26.7601 79.0133 26.4782 78.6653 26.1699C78.2293 25.7867 77.8505 25.3462 77.5113 24.8882C77.1942 24.4609 76.9564 23.9676 76.7053 23.4919C76.604 23.2981 76.5027 23.2188 76.2957 23.3378C76.0843 23.4611 76.0887 23.602 76.1944 23.8046C76.5776 24.5402 77.0092 25.2405 77.5245 25.8836C78.0355 26.5267 78.7182 26.9847 79.3524 27.5001C79.4405 27.5705 79.533 27.6719 79.6652 27.6014C79.8193 27.5221 79.8634 27.3635 79.8986 27.249ZM75.5998 20.0211C75.9389 20.0211 76.0446 19.9198 76.049 19.6511C76.049 19.4485 76.0754 19.2459 76.1019 19.0433C76.2781 17.7131 76.7626 16.5063 77.5378 15.4184C77.7007 15.1849 77.6655 15.0616 77.4497 14.9206C77.225 14.7753 77.1325 14.9295 77.04 15.088C77.0004 15.1541 76.9652 15.2246 76.9211 15.2906C75.9962 16.6252 75.5645 18.1228 75.4104 19.7172C75.3927 19.8978 75.472 20.0211 75.6042 20.0211H75.5998ZM84.2591 11.3441C83.9508 11.3133 83.5896 11.3662 83.2285 11.4058C82.6691 11.4675 82.0965 11.4895 81.5635 11.7009C81.1363 11.8683 80.6914 12.0004 80.2906 12.2383C80.1188 12.3396 80.0528 12.4717 80.1805 12.6479C80.2906 12.8021 80.4051 12.9694 80.6298 12.8109C80.894 12.6171 81.1891 12.5114 81.4975 12.4056C82.1361 12.1854 82.7836 12.0048 83.4619 11.9299C84.0433 11.8683 84.6203 11.8859 85.2017 11.9299C85.3911 11.9432 85.5056 11.8595 85.5144 11.6657C85.5232 11.4763 85.4043 11.419 85.2325 11.397C84.9286 11.3574 84.6247 11.3485 84.2591 11.3485V11.3441Z" fill="#FDCF39"/>
<path d="M14.9923 60.7521C14.8469 60.7521 14.7016 60.7521 14.5518 60.7521C13.6004 60.7403 12.9633 60.2793 12.6403 59.3691C12.4288 58.7744 12.2042 58.1842 11.9928 57.5896C11.8739 57.2416 11.6756 57.1051 11.2792 57.0831C9.81692 57.0126 8.35902 57.0038 6.8967 57.0258C6.53112 57.0302 6.16995 57.1051 5.80877 57.0875C5.41677 57.0699 5.27582 57.2813 5.16571 57.5984C4.85739 58.5014 4.51824 59.3955 4.21873 60.3028C4.10421 60.642 3.91481 60.7389 3.57126 60.7301C2.67713 60.7036 1.7786 60.7036 0.884473 60.7124C0.483658 60.7124 0.364735 60.642 0.571749 60.2235C1.53194 58.3031 2.21906 56.2771 2.98105 54.273C3.52281 52.8459 4.0954 51.432 4.65918 50.0094C5.30225 48.3797 5.96293 46.7544 6.58398 45.1159C6.76456 44.6402 7.02443 44.4728 7.52215 44.4993C8.25331 44.5389 8.98446 44.5213 9.71562 44.4948C10.1869 44.4772 10.4688 44.6534 10.645 45.0983C12.442 49.6526 14.2523 54.2069 16.0582 58.7568C16.2696 59.2942 16.5163 59.8183 16.7497 60.3469C16.873 60.6288 16.8026 60.7433 16.4766 60.7301C15.9833 60.7124 15.49 60.7257 14.9967 60.7257C14.9967 60.7301 14.9967 60.7389 14.9967 60.7433L14.9923 60.7521ZM6.3153 54.251C7.68952 54.251 8.98006 54.2377 10.2662 54.2598C10.6978 54.2686 10.6934 54.1276 10.5613 53.7929C9.93585 52.1896 9.33683 50.5775 8.71578 48.9743C8.67174 48.8642 8.7334 48.6351 8.49996 48.666C8.30176 48.6924 8.29295 48.8774 8.2489 49.0315C8.12117 49.4544 8.01546 49.886 7.8569 50.3001C7.35478 51.595 7.02003 52.9516 6.3153 54.2554V54.251Z" fill="#FDCF39"/>
<path d="M108.157 53.0529C109.055 53.0529 109.95 53.0529 110.848 53.0529C111.336 53.0529 111.579 53.2878 111.579 53.7576C111.579 55.3477 111.566 56.9333 111.588 58.5234C111.593 58.911 111.478 59.1929 111.165 59.4087C108.677 61.1133 105.972 62.0823 102.942 61.4392C99.753 60.7653 97.5508 58.955 96.8284 55.6252C96.2074 52.7666 96.6082 50.0886 98.3304 47.7102C99.5504 46.0232 101.317 45.2348 103.391 45.0234C104.51 44.9089 105.602 44.9529 106.695 45.1467C109.082 45.5652 110.522 47.0451 111.271 49.287C111.363 49.5645 111.289 49.701 111.029 49.7803C110.958 49.8023 110.892 49.8332 110.822 49.8552C110.381 49.9741 109.928 50.2296 109.509 50.1811C108.998 50.1195 109.135 49.4764 108.937 49.1108C108.113 47.6089 106.831 46.8865 105.157 46.7984C103.902 46.7324 102.691 46.8381 101.572 47.534C100.295 48.3268 99.5901 49.4852 99.1716 50.8682C98.6651 52.542 98.7356 54.2289 99.2157 55.885C99.6209 57.2989 100.502 58.3648 101.845 59.0211C104.466 60.2984 106.884 59.717 109.21 58.2415C109.465 58.0785 109.492 57.8407 109.492 57.5764C109.483 56.9025 109.461 56.2242 109.483 55.5503C109.496 55.1275 109.32 55.0173 108.928 55.0217C107.721 55.0394 106.514 55.0129 105.307 55.035C104.814 55.0438 104.572 54.8896 104.664 54.3699C104.677 54.2994 104.669 54.2245 104.673 54.1496C104.682 53.4214 105.062 53.0602 105.814 53.0661C106.602 53.0661 107.386 53.0661 108.175 53.0661C108.175 53.0661 108.175 53.0617 108.175 53.0573L108.157 53.0529Z" fill="#FDCF39"/>
<path d="M36.3936 44.5523C37.3714 44.3894 38.3536 44.4995 39.3358 44.4819C39.5472 44.4819 39.5472 44.6448 39.5384 44.7946C39.4327 46.4859 39.6133 48.1817 39.4371 49.873C39.4239 50.0052 39.3666 50.1946 39.5076 50.2739C39.6926 50.3796 39.7498 50.1549 39.8379 50.0624C41.1549 48.7234 42.7802 48.468 44.4936 48.8952C45.7489 49.2079 46.687 49.9523 46.9073 51.4807C47.1055 52.8593 46.9733 54.238 46.9998 55.621C47.0262 57.1714 46.9998 58.7262 47.0262 60.2766C47.0306 60.6466 46.9293 60.7259 46.5725 60.7127C45.859 60.6818 45.1454 60.6818 44.4319 60.7215C44.0311 60.7435 43.9122 60.6422 43.9166 60.2238C43.9386 57.907 43.9474 55.5858 43.9166 53.269C43.9078 52.5334 43.7976 51.7538 43.0136 51.4014C41.472 50.7055 39.9084 51.4543 39.6618 53.1104C39.349 55.2114 39.5869 57.33 39.5384 59.4397C39.5076 60.6642 39.534 60.6686 38.2831 60.6818C37.825 60.6862 37.3626 60.651 36.9133 60.7039C36.4949 60.7523 36.4464 60.5893 36.4508 60.2282C36.4552 55.7575 36.4508 51.2869 36.4376 46.8163C36.4376 46.1248 36.4068 45.4288 36.3892 44.7373C36.4596 44.6757 36.4464 44.614 36.3892 44.5479L36.3936 44.5523Z" fill="#FDCF39"/>
<path d="M126.533 51.0885C126.995 50.7053 127.401 50.331 127.841 50.0138C129.48 48.829 132.074 49.3091 133.157 50.996C133.395 51.366 133.567 51.2647 133.761 50.9872C134.285 50.2385 134.981 49.7055 135.875 49.5205C136.751 49.3399 137.659 49.2915 138.522 49.6086C139.94 50.1283 140.544 51.2559 140.57 52.6742C140.619 55.1407 140.588 57.6029 140.592 60.0694C140.592 60.9181 140.171 61.3453 139.328 61.3512C138.597 61.3556 138.601 61.3556 138.601 60.6288C138.601 58.2195 138.593 55.8058 138.61 53.3965C138.619 52.4848 138.381 51.6655 137.491 51.3264C136.553 50.9696 135.584 51.0357 134.765 51.7448C134.087 52.3306 133.765 53.0882 133.756 53.9691C133.739 56.1802 133.739 58.3869 133.734 60.598C133.734 61.3159 133.704 61.3512 133.003 61.3512C132.119 61.3512 131.677 60.9137 131.677 60.0386C131.677 57.8672 131.673 55.6913 131.677 53.5199C131.677 53.0133 131.563 52.542 131.334 52.0972C131.017 51.4849 130.572 51.1326 129.814 51.1546C127.973 51.2075 126.995 52.0752 126.841 53.9295C126.661 56.1186 126.788 58.3076 126.762 60.5011C126.753 61.3468 126.762 61.3468 125.934 61.3424C124.731 61.3336 124.749 61.3336 124.753 60.1311C124.762 56.8057 124.762 53.4846 124.745 50.1592C124.745 49.7187 124.872 49.5998 125.304 49.6042C126.564 49.6218 126.564 49.6042 126.458 50.8507C126.458 50.8991 126.489 50.9476 126.533 51.0797V51.0885Z" fill="#FDCF39"/>
<path d="M55.1479 55.7001C53.9939 55.7001 52.8443 55.7089 51.6903 55.6957C51.4172 55.6957 51.2234 55.7485 51.2983 56.0436C51.4833 56.7572 51.7255 57.4487 52.2805 57.9816C53.298 58.9639 55.2139 58.6511 55.7029 57.2989C55.8218 56.9642 55.9715 56.9774 56.3107 57.0611C57.0683 57.2461 57.8523 57.3386 58.6319 57.4134C59.0107 57.4487 59.0019 57.5808 58.8918 57.8627C58.3984 59.0784 57.5836 60.043 56.3679 60.5143C54.7118 61.1573 52.9808 61.1926 51.3071 60.5539C49.673 59.9285 48.726 58.6379 48.3516 56.9818C48.0213 55.5195 48.0125 54.0351 48.4309 52.5684C48.8361 51.159 49.629 50.0534 50.9151 49.3267C53.2451 48.0141 56.8216 48.7277 58.143 50.9784C58.6495 51.8417 58.8873 52.7843 58.9975 53.7797C59.0547 54.2862 59.0591 54.7883 59.0944 55.2904C59.1208 55.6428 58.9843 55.7221 58.6583 55.7177C57.4867 55.7001 56.3151 55.7133 55.1435 55.7133V55.7045L55.1479 55.7001ZM53.6547 53.8061C54.2934 53.8061 54.9365 53.7753 55.5751 53.8149C56.0728 53.8502 56.0684 53.5903 56.0068 53.2511C55.9891 53.1498 55.9319 53.0529 55.9099 52.9516C55.628 51.7536 54.6678 51.0797 53.3772 51.1722C52.4787 51.2382 51.4613 52.4055 51.3996 53.4185C51.382 53.7356 51.4833 53.8237 51.7916 53.8105C52.4126 53.7885 53.0337 53.8061 53.6591 53.8061H53.6547Z" fill="#FDCF39"/>
<path d="M162.104 65.998C160.941 66.0068 159.818 65.8747 158.796 65.2228C157.862 64.6282 157.506 63.7297 157.303 62.721C157.25 62.4656 157.4 62.3334 157.642 62.351C158.114 62.3863 158.585 62.4391 159.056 62.4964C159.228 62.5184 159.334 62.6417 159.408 62.8047C159.985 64.038 161.245 64.659 162.633 64.3948C164.368 64.0644 165.218 63.069 165.262 61.2983C165.271 61.0253 165.289 60.7522 165.275 60.4791C165.271 60.347 165.346 60.162 165.183 60.0827C165.02 60.0034 164.914 60.1488 164.813 60.2501C164.064 61.0209 163.069 61.3468 162.086 61.3248C160.58 61.2895 159.193 60.7962 158.224 59.4969C156.387 57.0215 156.515 53.1059 158.558 50.8375C159.369 49.939 160.395 49.4545 161.646 49.406C162.963 49.3532 164.104 49.6483 165.015 50.6393C165.121 50.7538 165.253 50.9168 165.434 50.8067C165.579 50.7186 165.5 50.538 165.5 50.4015C165.5 50.2737 165.5 50.1416 165.474 50.0183C165.39 49.7011 165.544 49.6307 165.817 49.6395C166.183 49.6483 166.548 49.6483 166.914 49.6351C167.213 49.6263 167.354 49.7452 167.337 50.0535C167.169 53.2644 167.315 56.4753 167.262 59.6863C167.249 60.435 167.301 61.1838 167.178 61.9238C166.751 64.4917 165.134 65.9099 162.54 65.998C162.395 66.0024 162.249 65.998 162.1 65.998H162.104ZM165.491 55.5504C165.478 54.4933 165.311 53.5023 164.791 52.5861C163.685 50.6349 160.99 50.5116 159.814 52.4187C158.69 54.2378 158.695 56.2111 159.655 58.0566C160.611 59.8889 162.901 60.435 164.518 58.5895C165.275 57.7218 165.469 56.6471 165.491 55.5504Z" fill="#FDCF39"/>
<path d="M60.5 54.8634C60.5 53.0927 60.5088 51.3221 60.4912 49.5515C60.4912 49.1683 60.5573 48.9877 61.0021 49.0141C61.676 49.0582 62.3543 49.0273 63.0326 49.0317C63.341 49.0317 63.5171 49.1242 63.3894 49.4854C63.3057 49.7189 63.4731 49.9963 63.2881 50.2254C63.2353 50.287 63.2617 50.3839 63.3366 50.4016C63.4599 50.4324 63.5964 50.4456 63.7021 50.3531C63.9048 50.1725 64.0941 49.9743 64.3012 49.7981C65.0279 49.1815 65.8339 48.7631 66.825 48.7631C67.7499 48.7631 68.6529 48.7895 69.4985 49.2343C70.4103 49.7144 70.8772 50.4676 71.0754 51.4498C71.1723 51.9343 71.1679 52.4188 71.1679 52.9078C71.1679 55.3699 71.1679 57.8365 71.1767 60.2986C71.1767 60.6069 71.1503 60.7435 70.7759 60.7214C70.0271 60.6774 69.2739 60.6774 68.5295 60.717C68.0715 60.7391 67.9349 60.5673 67.9878 60.1489C68.1552 58.8099 68.0627 57.4621 68.1023 56.1187C68.1331 55.044 67.9569 53.9869 67.979 52.9122C67.9966 52.0577 67.4372 51.3573 66.7721 51.1944C65.8251 50.9609 64.7548 51.3838 64.2219 52.0929C63.5964 52.921 63.6625 53.8724 63.6405 54.7973C63.6052 56.2024 63.6449 57.6074 63.6581 59.0125C63.6581 59.4133 63.57 59.8141 63.6933 60.2237C63.777 60.5012 63.6933 60.6598 63.3013 60.7435C62.4601 60.9152 61.6452 60.7435 60.8216 60.7259C60.4295 60.7214 60.5044 60.4616 60.5044 60.2325C60.5044 58.4443 60.5044 56.656 60.5044 54.8678L60.5 54.8634Z" fill="#FDCF39"/>
<path d="M27.6332 49.0317C27.9856 49.0405 27.9019 49.3048 27.9019 49.503C27.9107 52.388 27.9195 55.2686 27.9283 58.1535C27.9283 58.8671 27.9415 59.5762 27.968 60.2898C27.9812 60.6377 27.8799 60.7743 27.4967 60.7478C26.8052 60.7038 26.1092 60.7038 25.4133 60.7346C25.0742 60.7522 25.0125 60.6377 25.0301 60.3426C25.0477 59.9814 25.0345 59.6159 25.0345 59.1798C24.4972 59.6511 24.0435 60.162 23.4092 60.4351C21.7355 61.1442 20.0706 61.294 18.5334 60.1444C17.8595 59.6379 17.4234 58.8935 17.3662 58.0214C17.2208 55.8323 17.3309 53.6433 17.3001 51.4542C17.2913 50.7451 17.2781 50.0315 17.2517 49.3224C17.2428 49.0713 17.3177 48.9744 17.5864 48.9788C18.3924 48.9965 19.1941 48.9965 20.0001 48.9788C20.3304 48.97 20.4141 49.1374 20.4009 49.4149C20.3128 51.3221 20.4362 53.2292 20.3393 55.132C20.304 55.8632 20.3745 56.6031 20.5595 57.3167C20.8502 58.4354 21.7575 58.6733 22.6693 58.4839C23.9686 58.2108 24.691 57.2374 24.7482 55.8323C24.8275 53.7005 24.7702 51.5687 24.8099 49.4369C24.8143 49.0934 24.9332 49.0053 25.2592 49.0185C26.0432 49.0405 26.8316 49.0273 27.6156 49.0317L27.6244 49.0625L27.6376 49.0361L27.6332 49.0317Z" fill="#FDCF39"/>
<path d="M87.2706 54.8458C87.2794 55.7267 87.2441 56.6032 87.8255 57.3784C88.4157 58.1624 89.42 58.5809 90.4771 58.2902C91.3536 58.0479 91.7941 57.3608 91.9086 56.4887C91.9438 56.22 92.0495 56.1848 92.2433 56.2156C93.1418 56.3566 94.0404 56.5107 94.9345 56.6561C95.1591 56.6913 95.1283 56.8631 95.0975 56.9908C94.6526 58.9156 93.1771 60.5894 91.1025 60.8448C89.8693 60.9946 88.658 61.0959 87.4688 60.6686C85.5484 59.9859 84.5221 58.5016 84.1521 56.6076C83.8438 55.0264 83.8658 53.4275 84.5353 51.8859C85.2709 50.1814 86.5438 49.1947 88.3409 48.8908C89.6843 48.6618 91.0144 48.6618 92.327 49.1948C93.6572 49.7365 94.3839 50.7672 94.8596 52.0357C94.9433 52.2603 94.9389 52.4761 94.5865 52.5378C93.7277 52.6876 92.8732 52.8726 92.0143 53.0443C91.8337 53.0796 91.8337 52.9695 91.7985 52.8285C91.4637 51.5027 90.7634 51.3133 89.8869 51.1944C88.9707 51.0755 88.059 51.6393 87.6494 52.4806C87.3058 53.1809 87.2662 53.4319 87.2662 54.8502L87.2706 54.8458Z" fill="#FDCF39"/>
<path d="M122.877 55.7618C122.926 56.9819 122.833 58.2064 122.974 59.4264C123.027 59.9065 123.15 60.3514 123.344 60.7919C123.565 61.2852 123.507 61.3644 122.983 61.3733C122.635 61.3733 122.287 61.3733 121.939 61.3733C121.274 61.3733 121.151 61.2764 121.041 60.6201C120.922 59.9242 120.904 59.933 120.31 60.3866C118.667 61.6375 115.958 62.1044 114.024 60.902C113.082 60.3162 112.205 58.4266 112.769 57.2153C113.588 55.4667 115.042 54.8589 116.812 54.6783C118.063 54.5506 119.301 54.3348 120.517 54.0044C120.715 53.9516 120.794 53.8326 120.812 53.608C120.922 52.2294 120.279 51.3969 118.904 51.1415C118.358 51.0401 117.808 51.0446 117.266 51.093C116.178 51.1899 115.487 51.8198 115.156 52.8196C115.015 53.2424 114.799 53.3085 114.425 53.2336C114.086 53.1676 113.742 53.1279 113.399 53.0883C113.016 53.0442 112.967 52.8592 113.09 52.5245C113.623 51.0401 114.619 50.0491 116.16 49.6659C117.561 49.3136 118.988 49.2959 120.393 49.6395C121.97 50.0271 122.842 51.1282 122.886 52.7535C122.913 53.7578 122.891 54.762 122.891 55.7662L122.877 55.7618ZM120.798 56.2948C120.807 55.4535 120.926 55.4579 120.014 55.709C119.38 55.8852 118.742 56.0217 118.098 56.1406C117.42 56.264 116.715 56.286 116.068 56.5547C115.28 56.8762 114.733 57.6162 114.777 58.2901C114.835 59.0741 115.438 59.7215 116.31 59.9374C118.231 60.4131 120.86 59.4264 120.803 56.2948H120.798Z" fill="#FDCF39"/>
<path d="M35.2882 51.4498C34.8037 51.4498 34.3192 51.4895 33.8391 51.4498C33.381 51.4102 33.2005 51.5468 33.2974 52.0048C33.2974 53.5728 33.3018 55.1409 33.3062 56.7089C33.3062 56.819 33.3062 56.9291 33.3062 57.0392C33.3414 58.343 33.5308 58.4883 34.8081 58.2064C35.1385 58.1316 35.4292 58.1624 35.4688 58.5808C35.5217 59.1358 35.5393 59.6952 35.5921 60.2502C35.6186 60.5188 35.504 60.6201 35.253 60.6818C34.1871 60.9505 33.1168 61.0342 32.0332 60.8228C31.1259 60.6466 30.2802 59.6864 30.2098 58.6513C30.06 56.427 30.1481 54.2027 30.1525 51.9784C30.1525 51.6084 30.0908 51.5071 29.7253 51.5027C28.6726 51.4895 28.677 51.4763 28.743 50.3928C28.7651 50.0492 28.7607 49.6968 28.7298 49.3533C28.7034 49.0538 28.8223 48.9877 29.0998 48.9789C30.0908 48.9481 30.0908 48.9348 30.0908 47.957C30.0908 47.8469 30.1129 47.7324 30.0908 47.6311C29.875 46.6929 30.5005 46.3626 31.192 46.0234C31.791 45.7327 32.3416 45.3451 32.923 45.0148C33.174 44.8738 33.4779 44.8166 33.3766 45.2482C33.1784 46.1159 33.3634 46.9792 33.3238 47.8425C33.2709 48.9965 33.3062 49.0009 34.4778 49.0185C35.4204 49.0317 35.4115 49.0317 35.3895 49.9523C35.3807 50.406 35.3939 50.8596 35.3983 51.3133H35.3763L35.3939 51.3265C35.3631 51.3618 35.3323 51.4014 35.3058 51.4366L35.2838 51.419V51.4454L35.2882 51.4498Z" fill="#FDCF39"/>
<path d="M73.3523 55.2157C73.3523 54.1366 73.3391 53.0619 73.3611 51.9828C73.3699 51.6216 73.2598 51.5027 72.903 51.4939C71.8503 51.4674 71.8503 51.4542 71.8768 50.3663C71.8768 50.3311 71.8768 50.2914 71.8768 50.2562C71.9252 49.8598 71.7006 49.3753 71.9605 49.0846C72.2071 48.8159 72.6872 48.9921 73.0616 48.9921C73.48 48.9921 73.4052 48.6882 73.3479 48.5076C73.1893 48.0055 73.2994 47.4989 73.251 46.9968C73.229 46.7854 73.3127 46.6312 73.4712 46.5387C74.3521 46.0102 75.2374 45.486 76.1272 44.9707C76.4135 44.8033 76.4487 44.9663 76.4443 45.2218C76.4311 46.3537 76.4487 47.4857 76.4311 48.6177C76.4267 48.9216 76.506 49.0317 76.8231 49.0185C77.2988 49.0009 77.7745 49.0317 78.2502 49.0317C78.5189 49.0317 78.651 49.111 78.6422 49.4105C78.6246 49.9743 78.6201 50.5425 78.6422 51.1063C78.6554 51.4058 78.5189 51.4895 78.2546 51.4851C77.7613 51.4851 77.268 51.4983 76.7746 51.4807C76.506 51.4718 76.4355 51.5687 76.4355 51.8242C76.4443 53.705 76.4355 55.5857 76.4487 57.4665C76.4487 58.017 76.9288 58.3914 77.4662 58.2989C77.6071 58.2769 77.7392 58.224 77.8758 58.1932C78.6069 58.0302 78.5453 58.039 78.6642 58.7878C78.7391 59.2459 78.6642 59.7216 78.8316 60.1664C78.8976 60.3338 78.88 60.5496 78.6334 60.5981C77.5058 60.8183 76.3826 61.0914 75.2198 60.8139C74.1892 60.5673 73.3787 59.5674 73.3743 58.4927C73.3655 57.396 73.3743 56.3036 73.3743 55.2069C73.3699 55.2069 73.3611 55.2069 73.3567 55.2069L73.3523 55.2157Z" fill="#FDCF39"/>
<path d="M146.278 55.4975C146.278 53.7269 146.292 51.9562 146.27 50.1856C146.265 49.7495 146.397 49.5734 146.829 49.6394C146.882 49.6482 146.939 49.6394 146.992 49.6394C148.142 49.6482 148.04 49.5029 148.036 50.6437C148.036 50.767 147.974 50.9344 148.093 51.0004C148.269 51.0973 148.406 50.93 148.512 50.8198C149.141 50.1504 149.859 49.6174 150.784 49.4853C152.467 49.2474 154.044 49.4104 155.184 50.8903C155.651 51.4937 155.806 52.2205 155.823 52.9296C155.872 55.5944 155.854 58.2591 155.872 60.9239C155.872 61.2543 155.744 61.3864 155.418 61.3732C155.088 61.36 154.757 61.3467 154.431 61.3776C153.925 61.4216 153.832 61.1926 153.837 60.7301C153.863 58.3781 153.859 56.0216 153.85 53.6696C153.841 52.3879 153.079 51.3264 152.04 51.1898C149.899 50.9079 148.476 52.0751 148.393 54.1805C148.309 56.33 148.362 58.4882 148.362 60.642C148.362 61.3247 148.331 61.36 147.666 61.3644C146.3 61.3776 146.309 61.3776 146.314 60.043C146.322 58.5278 146.314 57.0127 146.314 55.4975H146.283H146.278Z" fill="#FDCF39"/>
<path d="M79.5581 54.9647C79.5581 52.9915 79.5625 51.1812 79.5537 49.3753C79.5537 49.1067 79.6022 48.9745 79.9105 48.9833C80.7165 49.0009 81.5225 49.0009 82.3242 48.9833C82.6325 48.9745 82.6897 49.1066 82.6897 49.3709C82.6897 53.0223 82.6942 56.6781 82.703 60.3295C82.703 60.6114 82.584 60.7215 82.3066 60.7171C81.5005 60.7083 80.6945 60.6995 79.8929 60.7171C79.4392 60.7303 79.4964 60.4264 79.5141 60.1621C79.6506 58.3738 79.5141 56.5856 79.5581 54.9603V54.9647Z" fill="#FDCF39"/>
<path d="M142.438 55.8234C142.438 54.4008 142.438 52.9737 142.438 51.551C142.438 51.115 142.469 50.6833 142.346 50.2517C142.24 49.8773 142.377 49.6086 142.843 49.6218C143.244 49.635 143.649 49.635 144.05 49.6218C144.451 49.6086 144.535 49.8112 144.522 50.1724C144.385 53.7313 144.407 57.2902 144.5 60.8491C144.508 61.1794 144.411 61.3732 144.042 61.3644C142.077 61.3203 142.456 61.6727 142.443 59.88C142.429 58.5278 142.443 57.1756 142.443 55.8279L142.438 55.8234Z" fill="#FDCF39"/>
<path d="M79.5498 44.9706C79.4926 44.7063 79.5719 44.5566 79.8714 44.5566C80.6906 44.5566 81.5099 44.539 82.3291 44.5345C82.5934 44.5345 82.7079 44.6491 82.6991 44.9398C82.6771 45.6137 82.6903 46.2832 82.6991 46.9571C82.7035 47.3094 82.5846 47.4768 82.197 47.4636C81.4702 47.4372 80.7391 47.4283 80.0123 47.468C79.5454 47.4944 79.475 47.305 79.519 46.9086C79.5895 46.2743 79.6071 45.6401 79.5542 45.0014L79.5851 44.9882L79.5542 44.975L79.5498 44.9706Z" fill="#FDCF39"/>
<path d="M144.495 46.3845C144.501 47.1098 144.14 47.4754 143.412 47.4813C143.266 47.4813 143.121 47.4857 142.976 47.4813C142.328 47.4636 142.267 47.3711 142.403 46.7281C142.465 46.4418 142.438 46.1599 142.359 45.8692C142.218 45.3406 142.359 45.1821 142.918 45.1556C143.029 45.1512 143.139 45.1556 143.249 45.1556C144.077 45.1556 144.494 45.5667 144.5 46.3889L144.495 46.3845Z" fill="#FDCF39"/>
<path d="M36.3935 44.5522C36.4551 44.6139 36.4639 44.6756 36.3935 44.7416C36.3406 44.68 36.345 44.6183 36.3935 44.5522Z" fill="#FDCF39"/>
<path d="M33.3018 52.0045V52.0004L33.3224 52.0045H33.3018Z" fill="#FDCF39"/>
<path d="M27.6334 49.0317L27.6157 49.0625L27.6069 49.0317L27.6201 49.0052L27.6334 49.0317Z" fill="#FDCF39"/>
<path d="M35.3985 51.3308L35.3809 51.3176H35.4029L35.4205 51.3264L35.3985 51.3308Z" fill="#FDCF39"/>
<path d="M79.5494 44.9707L79.5802 44.9839L79.5538 44.9971L79.5273 44.9839L79.5494 44.9707Z" fill="#FDCF39"/>
<path d="M35.2886 51.4498V51.4233L35.3106 51.441V51.4674L35.2886 51.4498Z" fill="#FDCF39"/>
</svg>
