<svg width="175" height="70" viewBox="0 0 175 70" fill="none" xmlns="http://www.w3.org/2000/svg">
<path d="M41.0533 35.8688C39.1422 35.8908 37.3428 35.2983 35.5214 34.8415C35.1244 34.7417 34.6436 34.5522 35.3219 34.0415C37.0814 32.7169 38.8828 31.47 41.0374 30.8696C41.7316 30.6761 41.8812 30.2152 41.7096 29.6487C41.3565 28.4777 40.9276 27.3306 40.5426 26.1695C40.4109 25.7745 40.2374 25.6688 39.8244 25.8603C38.9487 26.2673 38.019 26.5645 37.1572 26.9974C34.7055 28.2323 32.4592 29.7684 30.4682 31.6675C30.2648 31.863 30.1511 32.2301 29.6783 31.9109C28.0963 30.8416 26.6759 29.6088 25.3812 28.1166C29.9555 27.1969 33.726 24.9805 36.9817 21.7986C37.4864 21.3039 37.5442 20.9628 37.0276 20.474C36.2555 19.7439 35.5174 18.9778 34.7693 18.2237C34.2865 17.735 33.8736 17.5933 33.333 18.2237C31.8408 19.9653 29.8997 21.1004 27.8569 22.0739C27.7272 22.1358 27.5616 22.3632 27.3402 22.1617C27.1467 21.9862 27.3242 21.8645 27.3761 21.7388C28.1282 19.8755 28.4893 17.9065 28.9561 15.9655C29.2254 14.8503 29.0499 14.6169 27.9307 14.3296C27.2704 14.1601 26.626 13.9307 25.9657 13.7711C25.4949 13.6574 24.9583 13.4579 24.5373 13.5835C23.9129 13.7691 24.29 14.4473 24.1763 14.8982C24.1124 15.1476 24.0266 15.389 23.9728 15.6463C23.5159 17.7968 22.9075 19.9035 21.904 21.8725C21.8302 22.0181 21.8462 22.3213 21.5649 22.2774C21.3594 22.2455 21.2637 22.068 21.1839 21.8705C20.9345 21.2421 20.6273 20.6336 20.4038 19.9972C19.7256 18.0741 19.0772 16.1371 19.0074 14.0703C18.9914 13.6175 18.782 13.4479 18.385 13.5476C17.1342 13.8608 15.8913 14.202 14.6465 14.5311C14.2794 14.6289 14.1318 14.7725 14.1917 15.2373C14.463 17.3659 15.0195 19.4127 15.7756 21.4136C15.8454 21.5992 16.1527 21.7947 15.9312 22.0181C15.7377 22.2156 15.5283 22.04 15.3108 21.9363C13.9044 21.262 12.5438 20.5458 11.309 19.5564C10.5689 18.9639 10.0442 17.8627 9.14849 17.7948C8.12509 17.719 7.59843 18.896 6.89821 19.5643C5.46586 20.9309 5.45588 21.1463 6.94011 22.463C10.0123 25.19 13.4795 27.1889 17.7546 27.9749C16.5935 29.2357 15.4963 30.2671 14.3413 31.2506C13.4655 31.9967 12.7952 32.1044 12.095 31.077C11.9035 30.7958 11.5344 30.6421 11.2611 30.4127C8.9091 28.4358 6.28776 26.9316 3.39712 25.8823C2.91235 25.7067 2.69092 25.8364 2.54529 26.2832C2.16825 27.4463 1.75131 28.5934 1.41616 29.7724C1.23662 30.4028 1.41217 30.5205 1.93684 30.686C4.06143 31.3563 5.88878 32.5872 7.69219 33.848C7.8837 33.9816 8.20289 34.1373 8.12709 34.4325C8.06325 34.6839 7.73807 34.6081 7.53459 34.6918C5.74315 35.422 3.87989 35.7851 1.95279 35.8669C1.38823 35.8908 0.905459 35.9147 1.01718 36.7985C1.15682 37.8977 1.41815 38.963 1.60169 40.0442C1.73535 40.8402 1.96875 40.932 2.73281 40.8761C6.04438 40.6287 9.14051 39.6692 12.1209 38.2747C15.2829 36.7965 18.0957 34.8295 20.4996 32.28C21.4691 31.2526 21.5031 31.2666 22.4606 32.2481C24.4057 34.241 26.5901 35.9207 29.0279 37.2633C32.6108 39.2363 36.3932 40.543 40.5087 40.908C41.3346 40.9818 41.4064 40.6228 41.5181 40.1719C41.7695 39.1704 41.9311 38.1451 42.1346 37.1316C42.3121 36.2459 41.9131 35.8549 41.0533 35.8649V35.8688Z" fill="#FDCF39"/>
<path d="M26.1033 37.4587C24.8266 39.3798 23.3304 41.1374 22.0197 43.0305C21.5848 43.6589 21.3614 43.3896 21.0881 43.0265C19.6577 41.1374 18.1914 39.2721 16.8548 37.3171C16.4638 36.7445 16.2205 36.934 15.8614 37.1335C14.8499 37.6961 13.8764 38.3365 12.8351 38.8332C12.2326 39.1205 12.1548 39.3758 12.5299 39.8706C14.4151 42.3523 16.2763 44.8539 18.1934 47.3097C18.9236 48.2453 19.3844 49.1709 19.2867 50.4217C19.169 51.9399 19.2767 53.474 19.2488 55.0021C19.2388 55.5487 19.3206 55.7641 19.9749 55.8499C21.0921 55.9936 22.1673 55.9796 23.2805 55.8439C23.9269 55.7661 24.1403 55.5986 24.1303 54.9642C24.1024 53.1049 24.1303 51.2456 24.1164 49.3864C24.1124 48.8138 24.2041 48.3151 24.5692 47.8323C26.7058 45.0155 28.8144 42.1767 30.953 39.318C29.7301 38.6238 28.4553 38.0352 27.3442 37.2213C26.6759 36.7326 26.3866 37.0278 26.0993 37.4587H26.1033Z" fill="#FDCF39"/>
<path d="M104.961 26.0797C103.032 25.6568 101.079 25.986 99.1435 25.8503C98.2777 25.7905 97.9645 25.992 97.9825 26.9535C98.0503 30.5045 98.0024 34.0574 98.0124 37.6084C98.0144 38.7296 97.6254 40.2437 98.1959 40.8701C98.8463 41.5843 100.382 40.9818 101.474 41.1035C102.988 41.0018 104.476 41.2791 105.89 40.6686C109.529 39.0966 111.069 36.4394 110.766 32.4854C110.523 29.3175 108.103 26.768 104.963 26.0778L104.961 26.0797ZM102.934 38.0633C102.537 38.0453 102.136 38.0433 101.739 38.0633C101.382 38.0812 101.282 37.8797 101.262 37.5825C101.262 34.8415 101.262 32.1024 101.262 29.3614C101.304 29.1779 101.288 28.9764 101.541 28.9026C104.55 28.0388 107.61 30.3249 107.56 33.451C107.526 35.4938 105.932 38.2029 102.934 38.0633Z" fill="#FDCF39"/>
<path d="M122.223 36.5172C121.79 35.9227 121.696 35.6534 122.412 35.2504C124.507 34.0754 125.205 31.5937 124.668 29.3913C124.176 27.3664 122.099 25.952 119.789 25.8782C117.83 25.8164 115.869 25.8942 113.908 25.8483C113.249 25.8324 113.088 26.0259 113.092 26.6722C113.122 30.692 113.106 34.7118 113.106 38.7315C113.106 41.1234 113.106 41.0915 115.548 41.1055C116.234 41.1095 116.348 40.8801 116.344 40.2656C116.318 36.7107 116.342 33.1557 116.32 29.6028C116.316 29.0621 116.427 28.8407 117.018 28.8766C117.932 28.9305 118.843 28.9125 119.759 29.0641C120.555 29.1978 121.109 29.5549 121.383 30.2691C121.66 30.9932 121.634 31.7214 121.117 32.3817C120.423 33.2714 119.45 33.2634 118.464 33.2854C118.157 33.2914 117.624 33.0959 117.576 33.445C117.463 34.2589 117.535 35.1008 117.531 35.9307C117.527 36.567 118.153 36.0683 118.345 36.3835C118.46 36.571 118.626 36.7187 118.749 36.9181C119.535 38.171 120.363 39.3978 121.189 40.6247C121.319 40.8162 121.353 41.0816 121.732 41.0676C122.843 41.0257 123.956 41.0536 125.029 41.0536C125.075 40.914 125.105 40.8701 125.093 40.8541C124.146 39.4018 123.24 37.9196 122.223 36.5192V36.5172Z" fill="#FDCF39"/>
<path d="M79.2083 36.2179C79.2083 35.4538 79.1804 34.6878 79.2183 33.9257C79.2443 33.413 79.0946 33.2055 78.556 33.2335C77.7939 33.2714 77.0279 33.2434 76.2638 33.2434C74.243 33.2434 74.2569 33.2434 74.4385 35.2244C74.4804 35.6832 74.6619 35.9525 75.1068 35.8568C76.2439 35.6134 76.0444 36.3795 76.0464 37.0258C76.0464 37.3629 75.8848 37.5026 75.5995 37.6861C74.3327 38.504 72.9762 38.3684 71.6236 38.119C69.6068 37.75 68.1944 35.2683 68.4757 33.0719C68.9704 29.1977 72.1363 27.7394 75.398 29.3753C76.7666 30.0615 76.7147 30.1653 77.6443 28.8227C77.7002 28.7409 77.77 28.6711 77.8338 28.5953C78.7236 27.53 78.6777 27.4861 77.4169 26.7599C75.5457 25.6807 73.5068 25.4971 71.4581 25.7305C69.6965 25.932 68.0946 26.744 66.9575 28.1384C65.591 29.8162 64.9087 31.7632 65.0603 33.9855C65.2598 36.8862 66.5107 39.1404 69.0662 40.5409C72.1124 42.2106 75.0449 41.4705 77.8877 39.9025C78.8712 39.3599 79.4777 38.6357 79.2183 37.4108C79.1365 37.0298 79.2063 36.6168 79.2063 36.2179H79.2083Z" fill="#FDCF39"/>
<path d="M95.4252 33.6842C95.4272 33.2892 95.2457 33.1516 94.8846 33.1695C93.6936 33.1695 92.5007 33.1695 91.3177 33.1695C90.9586 33.1476 90.783 33.2932 90.799 33.6882C90.8209 34.2188 90.8389 34.7535 90.793 35.2821C90.7491 35.7888 90.9486 35.8966 91.4154 35.8866C91.6748 35.8806 92.1954 35.6173 92.1755 36.1779C92.1575 36.6786 92.5206 37.313 91.7965 37.6661C90.5855 38.2566 89.3188 38.4202 88.0101 38.1548C85.5723 37.6621 84.0242 34.3804 84.908 31.8748C85.4686 30.2848 86.4042 29.04 88.1258 28.7348C89.4265 28.5034 90.8249 28.5553 91.8623 29.4929C92.78 30.3247 93.2288 29.6944 93.6697 29.1078C93.945 28.7388 94.2063 28.3757 94.5515 28.0705C94.9285 27.7353 94.8248 27.5757 94.4158 27.2725C92.6044 25.9279 90.5676 25.5708 88.3812 25.6925C86.0631 25.8222 84.1878 26.8276 82.8472 28.671C81.3969 30.6659 80.9301 32.962 81.4528 35.3739C81.8039 36.9878 82.6198 38.3623 83.9025 39.4974C85.5603 40.9637 87.4595 41.2968 89.5861 41.2849C91.7566 41.2729 93.4921 40.3612 95.1679 39.1742C95.3754 39.0286 95.4252 38.8132 95.4252 38.5658C95.4192 36.9379 95.4133 35.3101 95.4252 33.6822V33.6842Z" fill="#FDCF39"/>
<path d="M150.848 32.2839C149.725 31.9009 148.576 31.5957 147.463 31.1847C146.78 30.9314 146.262 30.4326 146.463 29.6127C146.649 28.8567 147.233 28.5075 147.991 28.4956C148.873 28.4796 149.685 28.8088 150.523 29.0322C151.145 29.1978 151.564 30.0337 152.25 29.7085C152.877 29.4112 153.048 28.6113 153.501 28.0946C153.545 28.0447 153.573 27.9849 153.609 27.929C153.82 27.5919 153.856 27.3964 153.435 27.0872C151.845 25.9141 149.974 25.7825 148.292 25.4792C147.315 25.5152 146.583 25.8343 145.817 26.0917C143.038 27.0233 142.487 31.2486 144.239 32.9861C145.549 34.2888 147.235 34.5103 148.819 35.0589C149.487 35.2903 150.224 35.406 150.73 35.9027C151.069 36.2339 151.203 36.7705 150.94 37.2673C150.573 37.9595 149.89 38.1849 149.198 38.2508C147.668 38.3944 146.371 37.776 145.162 36.8982C144.877 36.6907 144.47 36.1262 144.143 36.7406C143.89 37.2154 143.519 37.6124 143.187 37.9475C142.419 38.7295 142.826 39.0487 143.491 39.4697C145.44 40.7105 147.455 41.3389 149.862 41.1234C152.105 40.922 154.07 38.925 154.205 37.4288C154.495 34.239 153.39 33.1557 150.85 32.2879L150.848 32.2839Z" fill="#FDCF39"/>
<path d="M135.81 26.3452C135.698 26.0798 135.634 25.6689 135.16 25.7946C134.507 25.7946 133.857 25.7946 133.213 25.7966C132.608 25.6928 132.459 26.1137 132.287 26.5686C131.23 29.3635 130.095 32.1284 128.906 34.8715C128.07 36.7986 127.316 38.7616 126.484 40.6907C126.278 41.1674 126.488 41.1654 126.823 41.1595C127.611 41.1595 128.399 41.1595 129.181 41.1595C129.556 41.2293 129.656 40.9879 129.771 40.6847C130.531 38.7197 131.313 36.7626 132.085 34.8036C132.612 33.467 133.147 32.1344 133.655 30.7918C133.743 30.5604 133.817 30.355 134.07 30.3031C134.254 30.2672 134.244 30.4387 134.29 30.5564C134.817 31.905 135.349 33.2516 135.91 34.672C135.188 34.672 134.589 34.6999 133.997 34.662C133.558 34.6341 133.26 34.8515 133.127 35.1827C132.808 35.9747 132.564 36.7966 132.261 37.6943C133.725 37.6943 135.116 37.6983 136.508 37.6923C136.923 37.6923 137.196 37.6843 137.314 38.2708C137.468 39.0389 137.897 39.753 138.196 40.4932C138.338 40.8443 138.507 41.1535 138.946 41.1535C139.904 41.1555 140.861 41.1535 141.901 41.1535C140.837 38.5341 139.824 36.0185 138.794 33.5109C137.811 31.115 136.815 28.7251 135.81 26.3412V26.3452Z" fill="#FDCF39"/>
<path d="M62.2313 25.8603C61.8642 25.8543 61.6548 25.964 61.4692 26.3171C60.396 28.3619 59.2848 30.3868 58.1497 32.4854C56.847 30.5484 56.1149 28.3918 54.894 26.5046C54.7384 26.2652 54.7902 25.8463 54.3055 25.8583C53.31 25.8822 52.3125 25.8663 51.3171 25.8663C50.9739 25.8663 50.8183 25.9341 51.0358 26.3231C52.4003 28.7569 53.7648 31.1907 55.0915 33.6445C55.9353 35.2045 56.7293 36.7226 56.5717 38.6637C56.3722 41.1374 56.5238 41.1334 59.0035 41.0995C59.5441 41.0915 59.7596 40.9838 59.7357 40.3973C59.6898 39.2362 59.7357 38.0732 59.7157 36.9102C59.7097 36.4673 59.7895 36.0543 59.989 35.6713C60.376 34.9312 60.787 34.205 61.188 33.4709C62.5505 30.9713 63.913 28.4716 65.3354 25.8643C64.2063 25.8643 63.2188 25.8742 62.2313 25.8583V25.8603Z" fill="#FDCF39"/>
<path d="M172.146 38.0493C170.384 38.0832 168.623 38.0612 166.861 38.0612C166.506 38.0612 166.091 38.153 166.083 37.5845C166.089 33.854 166.095 30.1214 166.101 26.3989C166.139 25.9541 165.886 25.8503 165.489 25.8603C164.824 25.8782 164.156 25.9042 163.496 25.8523C162.911 25.8064 162.792 26.0338 162.794 26.5785C162.814 31.1648 162.818 35.7511 162.79 40.3375C162.786 40.9579 162.947 41.1115 163.56 41.1015C165.952 41.0636 168.345 41.0856 170.739 41.0856C173.133 41.0856 172.976 41.0856 173 38.8313C173.008 38.1211 172.742 38.0393 172.148 38.0513L172.146 38.0493Z" fill="#FDCF39"/>
<path d="M160.182 26.5106C160.182 26.3211 160.246 26.1076 160.078 25.948C159.847 25.7286 157.157 25.8662 156.952 26.1196C156.9 26.1834 156.924 26.3111 156.914 26.4089C156.914 31.1229 156.914 35.8369 156.914 40.5429C156.944 40.7185 156.876 41.0157 157.118 41.0257C158.043 41.0676 158.971 41.0815 159.896 41.0576C160.291 41.0476 160.18 40.6766 160.18 40.4352C160.186 35.793 160.184 31.1508 160.18 26.5086L160.182 26.5106Z" fill="#FDCF39"/>
</svg>
