<svg width="175" height="70" viewBox="0 0 175 70" fill="none" xmlns="http://www.w3.org/2000/svg">
<path d="M173 42.3939C172.02 43.8321 170.737 44.8906 169.034 45.3225C166.805 45.8882 164.599 45.8694 162.533 44.7012C161.03 43.8518 160.044 42.5765 159.539 40.9232C159.274 40.0541 159.138 39.1739 159.146 38.2636C159.166 35.737 159.093 33.2069 159.196 30.6836C159.314 27.7644 160.942 24.9704 164.466 24.2676C166.395 23.8827 168.355 24.0061 170.121 25.0201C171.683 25.9157 172.499 27.3402 172.751 29.1075C172.795 29.416 172.79 29.734 172.85 30.0271C172.92 30.3614 172.814 30.3828 172.551 30.3794C171.836 30.3708 171.12 30.3597 170.405 30.382C170.052 30.3931 169.981 30.2585 169.991 29.932C170.028 28.5752 169.272 26.8791 167.531 26.502C165.169 25.9903 163.13 26.6785 162.336 29.4203C162.137 30.1085 162.08 30.8028 162.082 31.509C162.087 33.9928 162.011 36.4809 162.123 38.9596C162.221 41.1186 163.209 42.9364 165.689 43.3761C167.213 43.6461 168.758 43.4301 169.802 41.9997C169.95 41.7965 170.019 41.5857 170.017 41.3277C170.006 39.9718 169.999 38.615 170.022 37.2591C170.028 36.9197 169.917 36.864 169.611 36.8709C168.696 36.8915 167.78 36.8615 166.865 36.888C166.513 36.8983 166.429 36.7826 166.449 36.4552C166.476 35.9855 166.464 35.5133 166.451 35.0419C166.445 34.8268 166.5 34.7428 166.735 34.7445C168.823 34.7591 170.911 34.7616 172.999 34.7676V42.3939H173Z" fill="#FDCF39"/>
<path d="M2.00343 34.7514C2.00343 29.6972 2.00258 24.6439 2.00429 19.5897C2.00429 19.0146 2.00859 19.0206 2.59843 19.0197C10.5936 19.018 18.5887 19.018 26.5839 19C27.0355 18.9991 27.1368 19.144 27.1368 19.5597C27.1291 29.6526 27.1325 39.7464 27.1325 49.8394C27.1325 50.5465 27.1248 50.5319 26.4078 50.5319C19.7427 50.5268 13.0775 50.5276 6.41227 50.5268C5.13899 50.5268 3.86656 50.5285 2.59328 50.5311C2.00172 50.5319 2.00086 50.5336 2.00086 49.956C2 44.8872 2 39.8193 2 34.7514H2.00343ZM8.09853 35.2168H8.10711C8.10711 36.9729 8.10711 38.7291 8.10711 40.4852C8.10711 42.07 8.11226 43.6547 8.10454 45.2395C8.10282 45.5352 8.17065 45.6877 8.51065 45.6749C11.3466 45.5694 14.1919 45.8728 17.0201 45.4863C18.8162 45.2403 20.2329 44.3772 21.0546 42.7316C21.744 41.3509 21.835 39.8467 21.5817 38.3554C21.331 36.8812 20.6218 35.6753 19.1193 35.1045C18.9828 35.0522 18.769 35.0557 18.7536 34.8628C18.7381 34.6734 18.9424 34.6314 19.0712 34.5577C19.789 34.1472 20.3291 33.5403 20.6545 32.8153C21.1233 31.7705 21.1713 30.6383 21.046 29.5018C20.8296 27.5408 19.7547 26.2346 17.9808 25.4478C16.7101 24.8847 15.3484 24.829 13.9987 24.7904C12.212 24.739 10.4227 24.7964 8.63514 24.7656C8.17494 24.7579 8.09337 24.9233 8.09423 25.3227C8.10454 28.6207 8.10024 31.9187 8.10024 35.2176L8.09853 35.2168Z" fill="#FDCF39"/>
<path d="M96.0588 29.7632C95.8158 30.5688 95.5917 31.3813 95.3247 32.1793C94.6078 34.3263 94.0239 36.5135 93.2856 38.6545C92.7696 40.1501 92.3583 41.6817 91.8869 43.1936C91.6482 43.9598 91.364 44.7115 91.14 45.4811C91.0841 45.6723 90.9983 45.6543 90.8764 45.6543C90.3896 45.656 89.9036 45.6457 89.4176 45.6603C89.2142 45.6663 89.1395 45.6046 89.0776 45.4031C88.5882 43.8013 88.0791 42.2062 87.5794 40.6078C87.1724 39.305 86.7655 38.0023 86.3688 36.6961C86.0743 35.7284 85.7729 34.7617 85.4613 33.8C85.141 32.8109 84.8869 31.8005 84.5005 30.8311C84.3589 30.4754 84.3451 30.0717 84.1846 29.6955C84.0206 29.8223 84.1202 29.962 84.1227 30.0829C84.1571 31.7516 84.1537 33.4229 84.2421 35.0891C84.4215 38.4642 84.3554 41.8403 84.3829 45.2163C84.3855 45.566 84.3125 45.6825 83.945 45.6646C83.2745 45.632 82.5979 45.62 81.9291 45.6663C81.4878 45.6963 81.4345 45.5343 81.4371 45.1494C81.4543 42.6074 81.4457 40.0661 81.4465 37.524C81.4491 33.2978 81.4568 29.0715 81.4422 24.8453C81.4422 24.6473 81.5066 24.685 81.6054 24.685C82.7353 24.6833 83.866 24.697 84.9959 24.6781C85.3917 24.6713 85.3033 25.0192 85.3213 25.1581C85.3866 25.6586 85.6047 26.1095 85.73 26.5868C85.9378 27.3762 86.1876 28.1553 86.4031 28.9447C86.6581 29.8772 86.9226 30.8088 87.1879 31.7387C87.4326 32.5967 87.6919 33.4503 87.9426 34.3066C88.2929 35.503 88.6475 36.6987 88.9883 37.8977C89.2339 38.7608 89.4528 39.6316 89.6967 40.4964C89.8203 40.9369 89.9723 41.3689 90.1157 41.8197C90.3629 41.3689 90.4248 40.8658 90.5707 40.3935C90.9794 39.0702 91.346 37.734 91.7281 36.4021C92.548 33.5412 93.3671 30.6803 94.1854 27.8185C94.455 26.8757 94.7297 25.9346 94.983 24.9884C95.0542 24.7227 95.1993 24.6773 95.4415 24.6798C96.4572 24.691 97.4737 24.6996 98.4886 24.6764C98.8209 24.6687 98.8904 24.7733 98.8895 25.0861C98.8775 27.9419 98.8835 30.7985 98.8827 33.6543C98.8827 37.5103 98.8767 41.3654 98.8904 45.2214C98.8921 45.5788 98.808 45.6817 98.4482 45.6654C97.7485 45.6354 97.0462 45.6406 96.3456 45.6646C96.0451 45.6748 95.9695 45.5926 95.9712 45.2909C96.0004 41.5223 95.9223 37.7537 96.0803 33.9869C96.1369 32.6472 96.2082 31.3068 96.1644 29.9646C96.1627 29.8995 96.1567 29.8343 96.1524 29.7692C96.1206 29.7675 96.0888 29.7657 96.0571 29.764L96.0588 29.7632Z" fill="#FDCF39"/>
<path d="M137.557 30.1592C137.557 35.1885 137.552 40.1861 137.566 45.1838C137.567 45.5712 137.473 45.6834 137.084 45.6646C136.384 45.6303 135.682 45.6372 134.982 45.6629C134.669 45.674 134.613 45.5703 134.614 45.2806C134.624 41.3115 134.621 37.3415 134.621 33.3715C134.621 31.0154 134.625 28.6593 134.618 26.3032C134.616 25.8669 134.577 25.4298 134.539 24.9944C134.516 24.7459 134.614 24.6739 134.852 24.6764C135.653 24.6867 136.454 24.685 137.255 24.6782C137.43 24.6764 137.506 24.7356 137.603 24.8924C138.258 25.9544 138.781 27.0848 139.352 28.1896C140.337 30.0975 141.307 32.013 142.284 33.9243C143.317 35.9445 144.351 37.9637 145.387 39.9813C145.42 40.0464 145.433 40.1476 145.544 40.1561C145.636 40.0499 145.589 39.9324 145.589 39.8279C145.591 35.1868 145.592 30.5466 145.589 25.9055C145.589 25.5969 145.559 25.2875 145.525 24.9807C145.497 24.7262 145.608 24.6722 145.841 24.6764C146.628 24.6893 147.415 24.6944 148.201 24.6756C148.484 24.6687 148.529 24.7802 148.527 25.0253C148.517 26.3529 148.523 27.6814 148.523 29.009C148.523 34.4069 148.518 39.8039 148.532 45.2018C148.533 45.5823 148.438 45.68 148.064 45.6629C147.336 45.6303 146.605 45.644 145.875 45.6586C145.65 45.6629 145.538 45.6029 145.43 45.3886C143.495 41.572 141.547 37.7606 139.602 33.9492C139.066 32.9001 138.537 31.8468 137.983 30.8071C137.869 30.592 137.954 30.2457 137.558 30.1575L137.557 30.1592Z" fill="#FDCF39"/>
<path d="M34.6115 34.3178C34.6115 35.9531 34.5771 37.2679 34.6226 38.58C34.6578 39.606 34.9008 40.6019 35.4718 41.477C36.4514 42.9794 37.9007 43.438 39.617 43.2983C40.7606 43.2057 41.7128 42.7832 42.3834 41.8189C42.5104 41.6364 42.5765 41.4504 42.5757 41.2241C42.5688 39.8674 42.5594 38.5106 42.5808 37.1547C42.586 36.8153 42.4684 36.7562 42.1661 36.7613C41.208 36.7767 40.2489 36.7553 39.2907 36.7707C39.0469 36.775 38.9731 36.7185 38.9816 36.4725C38.9997 35.9445 38.9954 35.4157 38.9825 34.8877C38.9774 34.6855 39.0349 34.6152 39.2452 34.6161C41.2483 34.6229 43.2514 34.6229 45.2545 34.6161C45.4734 34.6161 45.5129 34.7035 45.5129 34.8963C45.5078 37.2953 45.5069 39.6942 45.5129 42.0932C45.5129 42.3323 45.3815 42.4969 45.2553 42.6632C44.2791 43.9522 43.0299 44.8633 41.4492 45.2524C39.4771 45.7375 37.5126 45.7401 35.6297 44.8787C33.4901 43.8991 32.2692 42.1978 31.8605 39.9008C31.767 39.3763 31.6931 38.8483 31.609 38.3221C31.554 37.9784 31.694 37.6535 31.6931 37.3116C31.6871 35.084 31.633 32.8539 31.7206 30.6298C31.7936 28.7948 32.4057 27.1123 33.7726 25.8036C34.7574 24.8608 35.9405 24.3191 37.31 24.1263C38.0638 24.02 38.8056 23.9711 39.556 24.0423C40.7598 24.1571 41.9335 24.3962 42.9406 25.1222C44.1349 25.9827 44.8655 27.1483 45.1729 28.5822C45.2725 29.0476 45.3618 29.513 45.3515 29.9947C45.3472 30.191 45.3171 30.2698 45.1008 30.2664C44.3572 30.2544 43.6129 30.2578 42.8693 30.2638C42.683 30.2655 42.5971 30.233 42.5834 30.011C42.5388 29.2773 42.4177 28.5419 42.0605 27.8991C41.7549 27.3489 41.311 26.8638 40.6954 26.6384C39.2418 26.1053 37.7874 25.9947 36.4274 26.8972C35.5859 27.4552 35.1386 28.2917 34.8682 29.2602C34.371 31.0403 34.7531 32.8513 34.6123 34.3204L34.6115 34.3178Z" fill="#FDCF39"/>
<path d="M72.2929 45.6544C71.3441 45.6544 70.4435 45.6535 69.5428 45.6552C69.3745 45.6552 69.2603 45.6364 69.2037 45.429C68.7649 43.8468 68.3005 42.2723 67.8703 40.6885C67.7956 40.4133 67.6711 40.3688 67.4256 40.3696C65.5375 40.3773 63.6504 40.3739 61.7623 40.3739C61.048 40.3739 61.0506 40.3739 60.8866 41.0459C60.5775 42.3152 60.2023 43.5648 59.8065 44.8093C59.7189 45.0836 59.7352 45.4778 59.5326 45.6081C59.3179 45.7452 58.953 45.6527 58.6534 45.6544C57.9828 45.6569 57.3123 45.6544 56.5894 45.6544C57.0118 44.2891 57.4213 42.9632 57.8326 41.6381C58.8139 38.4755 59.8039 35.3154 60.7758 32.1494C61.4541 29.939 62.1058 27.7209 62.7763 25.5088C62.8321 25.3245 62.9309 25.1582 62.9643 24.9594C62.9944 24.7785 63.106 24.6645 63.3464 24.6722C64.0754 24.6954 64.8052 24.6911 65.5341 24.6765C65.7453 24.6722 65.8552 24.7168 65.9333 24.9302C66.4013 26.2047 66.7378 27.5195 67.1474 28.8111C67.3904 29.5782 67.6153 30.3512 67.8505 31.1218C69.1178 35.2632 70.3868 39.4046 71.6541 43.5468C71.8644 44.2342 72.0722 44.9224 72.2946 45.6544H72.2929ZM64.4694 28.8796C64.4008 28.9748 64.3398 29.0236 64.3269 29.0819C63.9972 30.6024 63.4692 32.0663 63.0579 33.5627C62.6724 34.9666 62.268 36.3654 61.8628 37.7641C61.801 37.9767 61.849 38.0392 62.0697 38.0375C63.6572 38.0315 65.2456 38.0307 66.8331 38.0384C67.0649 38.0392 67.0976 37.9604 67.0383 37.7615C66.7378 36.7442 66.4373 35.726 66.1471 34.7052C65.7848 33.4307 65.4354 32.1528 65.0722 30.8792C64.885 30.2235 64.6789 29.573 64.4686 28.8788L64.4694 28.8796Z" fill="#FDCF39"/>
<path d="M114.126 35.1524C114.126 31.8115 114.131 28.4697 114.119 25.1289C114.118 24.7852 114.192 24.6583 114.56 24.6746C115.245 24.7063 115.934 24.7072 116.619 24.6746C116.977 24.6575 117.033 24.786 117.033 25.1066C117.031 27.7327 117.051 30.3587 117.055 32.9848C117.06 37.0825 117.051 41.1811 117.066 45.2788C117.067 45.6216 116.959 45.6696 116.66 45.661C115.946 45.6405 115.229 45.6353 114.514 45.6627C114.186 45.6756 114.116 45.577 114.118 45.2608C114.13 41.8907 114.125 38.5216 114.125 35.1515L114.126 35.1524Z" fill="#FDCF39"/>
<path d="M76.6914 34.7678C76.6914 29.699 76.6974 24.6294 76.6802 19.5606C76.6785 19.1449 76.8107 19.0755 77.1807 19.0867C78.1063 19.1141 78.102 19.0978 78.102 20.032C78.1003 30.0135 78.0977 39.9942 78.108 49.9758C78.108 50.34 78.0479 50.466 77.6495 50.4514C76.6922 50.4172 76.6914 50.4412 76.6914 49.5044C76.6914 44.5924 76.6914 39.6805 76.6922 34.7678H76.6914Z" fill="#FDCF39"/>
<path d="M102.199 34.7352C102.199 29.6527 102.202 24.5693 102.191 19.4869C102.191 19.1732 102.251 19.078 102.582 19.0858C103.609 19.108 103.613 19.0926 103.613 20.1185C103.613 30.0701 103.61 40.0208 103.624 49.9723C103.624 50.382 103.5 50.46 103.125 50.4488C102.2 50.4214 102.199 50.4394 102.199 49.512C102.199 44.5864 102.199 39.6608 102.2 34.7352H102.199Z" fill="#FDCF39"/>
<path d="M51.1544 34.7968C51.1544 29.7143 51.1586 24.6319 51.1449 19.5494C51.1441 19.1671 51.2445 19.0728 51.6188 19.084C52.535 19.1114 52.535 19.0917 52.535 19.9899C52.535 29.812 52.535 39.6342 52.535 49.4563C52.535 50.4419 52.535 50.4248 51.5759 50.4488C51.2145 50.4582 51.1337 50.3922 51.1389 50.0005C51.1698 47.6598 51.1544 45.3183 51.1544 42.9768C51.1544 40.2495 51.1544 37.5232 51.1544 34.796V34.7968Z" fill="#FDCF39"/>
<path d="M127.766 34.724C127.766 29.6835 127.771 24.6439 127.757 19.6034C127.756 19.2058 127.826 19.0635 128.26 19.0832C129.141 19.1235 129.143 19.0952 129.143 19.9831C129.143 29.9492 129.143 39.9153 129.143 49.8815C129.143 50.2534 128.963 50.4397 128.603 50.4403C128.046 50.4408 127.767 50.1563 127.767 49.5866C127.767 44.6319 127.767 39.6779 127.767 34.7232L127.766 34.724Z" fill="#FDCF39"/>
<path d="M154.728 34.6999C154.728 39.6821 154.728 44.6652 154.728 49.6474C154.728 50.1765 154.467 50.441 153.947 50.441C153.565 50.441 153.367 50.2422 153.353 49.8445C153.348 49.7022 153.344 49.5591 153.344 49.4168C153.344 39.4661 153.346 29.5154 153.333 19.5639C153.333 19.1602 153.449 19.0762 153.825 19.0856C154.728 19.1096 154.729 19.0916 154.728 20.0087C154.728 24.9052 154.728 29.8026 154.728 34.699V34.6999Z" fill="#FDCF39"/>
<path d="M11.8536 39.4327C11.8536 38.5773 11.8665 37.7211 11.8476 36.8666C11.8399 36.5238 11.9283 36.3935 12.301 36.4081C13.114 36.4389 13.9288 36.4175 14.7436 36.4166C16.2856 36.4141 16.9287 36.8966 17.2859 38.3888C17.4636 39.1319 17.4679 39.8998 17.291 40.6386C17.0137 41.7982 16.3724 42.3639 15.1231 42.4668C14.1727 42.5456 13.2102 42.4848 12.2529 42.495C11.9601 42.4985 11.8476 42.3742 11.8502 42.0854C11.8596 41.2017 11.8536 40.3172 11.8528 39.4336L11.8536 39.4327Z" fill="#FDCF39"/>
<path d="M11.8521 30.8697C11.8521 30.0418 11.8547 29.2147 11.8504 28.3868C11.8495 28.1811 11.8761 28.0011 12.1363 28.0105C13.0756 28.0439 14.0209 27.9051 14.955 28.1202C15.9055 28.3396 16.461 28.919 16.6765 29.8644C16.8594 30.6666 16.8302 31.468 16.5486 32.2205C16.327 32.8144 15.8626 33.2473 15.222 33.4633C14.4115 33.7367 13.5796 33.6312 12.7545 33.645C11.865 33.6604 11.8598 33.6492 11.8487 32.7536C11.8409 32.1262 11.847 31.498 11.847 30.8697H11.8512H11.8521Z" fill="#FDCF39"/>
</svg>
