<svg width="175" height="70" viewBox="0 0 175 70" fill="none" xmlns="http://www.w3.org/2000/svg">
<path d="M53.6421 22.3705C66.7625 22.3705 79.8829 22.3705 93.0033 22.3768C93.3029 22.3768 93.4652 22.2894 93.6025 22.0179C94.4826 20.292 95.6249 18.7502 97.0044 17.3895C98.724 15.698 100.693 14.3591 102.912 13.376C104.17 12.8173 105.475 12.4085 106.817 12.1682C107.934 11.9684 109.082 12.0028 110.222 12.0028C123.223 12.0028 136.225 11.9965 149.227 12.0028C151.162 12.0028 153.072 12.1994 154.888 12.9297C156.311 13.5008 157.591 14.2873 158.702 15.3547C159.785 16.4002 160.547 17.6329 161.074 19.0311C161.436 19.9861 161.617 20.9786 161.742 21.9835C161.801 22.4485 161.91 22.5172 162.379 22.4111C162.491 22.3861 162.61 22.3861 162.725 22.383C163.855 22.3768 164.985 22.3549 166.111 22.3705C167.79 22.3924 169.369 22.7762 170.677 23.8811C171.751 24.7892 172.509 25.9003 172.812 27.3234C173.077 28.5718 173.062 29.7921 172.768 31.0124C172.609 31.6772 172.328 32.3169 172.166 32.9817C171.966 33.79 171.76 34.6077 171.423 35.3567C171.233 35.7812 171.111 36.2275 170.93 36.6519C170.718 37.1544 170.605 37.6943 170.459 38.2218C170.097 39.5169 169.766 40.8246 169.295 42.0855C168.823 43.3432 167.996 44.3638 167.023 45.2626C165.893 46.305 164.613 47.1133 163.165 47.6688C162.082 48.087 160.977 48.371 159.813 48.3554C158.119 48.3336 156.421 48.4366 154.723 48.3024C154.573 48.2899 154.52 48.4022 154.451 48.5177C153.887 49.4727 153.334 50.4371 152.61 51.286C151.362 52.7497 149.982 54.0761 148.387 55.1809C147.008 56.1359 145.56 56.9599 143.996 57.5435C142.636 58.0522 141.237 58.4517 139.764 58.5921C138.797 58.6826 137.832 58.6982 136.865 58.7138C123.763 58.9229 110.662 58.7544 97.5568 58.7887C96.4925 58.7887 95.4127 58.7325 94.3672 58.4236C93.356 58.1271 92.3573 57.8181 91.4397 57.2782C89.5391 56.1547 88.0441 54.6691 87.0954 52.6561C86.5555 51.5107 86.209 50.3216 86.1029 49.0639C86.0998 49.0264 86.0998 48.9859 86.0904 48.9484C85.9562 48.371 85.9562 48.3586 85.3289 48.3586C81.9802 48.3554 78.6314 48.3586 75.2826 48.3586C52.9461 48.3586 30.6127 48.3554 8.27615 48.371C6.48785 48.371 5.02101 47.7312 3.75391 46.5328C3.68837 46.4704 3.61971 46.408 3.57602 46.3331C3.24832 45.7838 2.96119 45.2064 2.59604 44.6821C1.90632 43.6834 1.99995 42.5536 2.00931 41.4457C2.01867 40.4532 2.40879 39.5388 2.7084 38.6056C3.06106 37.5102 3.35443 36.396 3.73519 35.313C4.03167 34.4735 4.22829 33.6059 4.54351 32.7695C4.84936 31.958 5.0647 31.1091 5.28005 30.2665C5.59526 29.04 5.97602 27.8353 6.69383 26.7866C7.32426 25.866 8.1045 25.0639 8.99396 24.3617C10.1206 23.4785 11.3659 22.8792 12.7578 22.5765C13.3321 22.4517 13.9219 22.3768 14.5149 22.3768C24.6767 22.3736 34.8384 22.3705 45.0002 22.3643C47.8808 22.3643 50.7614 22.3643 53.6421 22.3643V22.3705ZM115.811 25.9783C118.782 25.9783 121.756 25.9721 124.728 25.9846C125.115 25.9846 125.336 25.8348 125.436 25.4759C125.477 25.326 125.536 25.1794 125.558 25.0296C125.648 24.4054 125.954 23.8498 126.151 23.26C126.304 22.7919 126.491 22.3143 126.619 21.8431C126.953 20.6134 127.39 19.415 127.73 18.1885C127.87 17.6891 128.136 17.2335 128.207 16.7091C128.276 16.2004 128.267 16.1692 127.746 16.1692C121.775 16.1692 115.805 16.1879 109.838 16.1599C108.814 16.1536 107.828 16.3721 106.823 16.4595C106.529 16.4844 106.295 16.7091 106.03 16.7435C105.381 16.834 104.838 17.1773 104.239 17.3801C103.736 17.5487 103.302 17.8608 102.844 18.1229C101.342 18.9812 100.013 20.0579 98.9612 21.4218C97.925 22.7669 97.0886 24.2244 96.6142 25.8785C96.4145 26.5744 96.1867 27.2673 95.9557 27.9539C95.4657 29.4082 95.0662 30.8876 94.5825 32.3419C94.4265 32.8069 94.3828 33.3032 94.1705 33.7401C93.9365 34.2207 93.8928 34.7513 93.7149 35.2444C93.512 35.8062 93.3435 36.3804 93.1063 36.9266C93.0314 37.1013 92.9159 37.248 92.9346 37.4509C92.9503 37.5976 92.891 37.7286 92.8441 37.8628C92.5445 38.7523 92.2356 39.6387 91.9516 40.5344C91.5271 41.8857 91.1151 43.2402 90.7125 44.5978C90.5284 45.2127 90.2569 45.8337 90.2382 46.4579C90.2038 47.569 90.157 48.6738 90.4816 49.7911C91.293 52.5874 94.0051 54.5567 96.8951 54.5599C99.061 54.5599 101.23 54.5755 103.396 54.5536C105.119 54.538 106.848 54.6535 108.567 54.4818C109.304 54.4069 110.009 54.1947 110.718 53.9731C111.383 53.7671 111.96 53.3677 112.643 53.221C113.03 53.1367 113.386 52.9401 113.623 52.6623C113.926 52.3065 114.257 51.9788 114.619 51.698C115.836 50.7586 116.813 49.61 117.696 48.3648C118.561 47.1414 119.144 45.7931 119.575 44.3731C119.984 43.0311 120.414 41.6922 120.798 40.344C120.954 39.7978 121.267 39.3172 121.419 38.7866C121.591 38.1937 121.794 37.6257 122.072 37.0795C122.253 36.7268 122.094 36.2774 122.403 35.9653C122.421 35.9466 122.412 35.8842 122.393 35.853C122.29 35.6626 122.371 35.544 122.524 35.4285C122.605 35.3661 122.637 35.2569 122.64 35.1508C122.687 34.1146 123.083 33.1627 123.351 32.1796C123.482 31.7052 123.364 31.4993 122.88 31.4868C122.387 31.4774 121.897 31.44 121.404 31.44C118.795 31.4337 116.186 31.4337 113.58 31.4337C112.334 31.4337 111.089 31.4337 109.841 31.4244C109.485 31.4244 109.226 31.5055 109.223 31.9268C109.223 32.0423 109.185 32.1671 109.061 32.2108C108.82 32.2951 108.855 32.4699 108.886 32.654C108.911 32.8007 108.97 32.9723 108.786 33.066C108.521 33.2002 108.421 33.4498 108.418 33.7026C108.414 34.0834 107.934 34.3736 108.224 34.7981C108.23 34.8043 108.224 34.8293 108.215 34.8355C107.834 35.132 107.79 35.5377 107.85 35.9716C107.85 35.984 107.843 35.9965 107.84 36.009C107.544 36.9297 107.25 37.8504 106.948 38.7648C106.757 39.3359 106.829 39.4327 107.447 39.4358C108.499 39.4358 109.547 39.4514 110.599 39.4545C110.924 39.4545 111.061 39.5856 110.952 39.9071C110.793 40.3658 110.652 40.8309 110.552 41.3052C110.512 41.4925 110.512 41.6922 110.434 41.8639C110.065 42.6847 109.916 43.5742 109.635 44.4231C109.529 44.7414 109.432 44.8225 109.123 44.8225C106.464 44.8132 103.802 44.8194 101.143 44.8132C100.955 44.8132 100.715 44.9099 100.593 44.7476C100.472 44.5853 100.743 44.4792 100.771 44.3169C100.778 44.2795 100.793 44.242 100.799 44.2046C101.177 42.5599 101.804 40.9869 102.257 39.364C102.541 38.3435 103.243 37.4727 103.287 36.3742C103.287 36.3117 103.384 36.2556 103.421 36.19C103.499 36.0433 103.611 35.8967 103.63 35.7406C103.755 34.7013 104.111 33.7245 104.395 32.7289C104.751 31.4868 105.144 30.254 105.525 29.015C105.634 28.6592 105.665 28.2379 105.883 27.9695C106.227 27.5513 106.317 27.1237 106.333 26.6119C106.352 26.0345 106.455 25.9752 107.06 25.9752C109.981 25.9752 112.899 25.9752 115.82 25.9752L115.811 25.9783ZM145.647 16.0818C144.115 16.1786 142.224 15.957 140.335 16.2129C139.181 16.369 138.06 16.5968 136.971 17.0244C135.857 17.4644 134.824 18.0418 133.825 18.6878C132.767 19.3744 131.837 20.2046 131.026 21.1783C130.183 22.1864 129.409 23.2257 128.913 24.4459C128.22 26.1531 127.811 27.9476 127.234 29.6922C127.04 30.2821 126.834 30.8688 126.644 31.4618C126.338 32.4262 126.042 33.3937 125.745 34.358C125.474 35.2444 125.199 36.1276 124.934 37.0171C124.547 38.3091 124.181 39.6075 123.785 40.8933C123.476 41.9013 123.111 42.8938 122.805 43.905C122.524 44.8288 122.296 45.7495 122.187 46.7138C121.987 48.4772 122.309 50.1125 123.323 51.5606C124.69 53.5112 126.641 54.5224 129.006 54.5411C132.496 54.5723 135.985 54.6535 139.471 54.4881C140.417 54.4444 141.328 54.2041 142.23 53.9325C142.726 53.7827 143.166 53.5081 143.665 53.3458C144.027 53.2272 144.424 53.221 144.777 52.9713C145.054 52.7778 145.151 52.4688 145.432 52.2909C146.028 51.9133 146.605 51.5013 147.152 51.055C148.503 49.9471 149.626 48.6301 150.503 47.1227C151.087 46.1208 151.462 45.0348 151.839 43.9362C152.279 42.6566 152.648 41.3583 153.072 40.0756C153.718 38.125 154.252 36.137 154.835 34.1645C154.966 33.7245 155.094 33.2844 155.235 32.8444C155.538 31.8894 155.909 30.9531 156.18 29.9918C156.449 29.0431 156.786 28.113 157.039 27.1612C157.316 26.1188 157.625 25.0857 157.841 24.0277C158.028 23.1039 157.916 22.1958 157.747 21.2876C157.638 20.7071 157.394 20.1703 157.139 19.6397C156.951 19.2527 156.658 18.9406 156.38 18.6192C155.494 17.5924 154.373 16.8902 153.097 16.4969C152.067 16.1786 150.981 16.0756 149.892 16.0787C148.593 16.085 147.295 16.0787 145.644 16.0787L145.647 16.0818ZM48.5706 27.6605C48.0244 27.6605 47.4813 27.6605 46.9352 27.6605C46.4702 27.6605 46.0395 27.751 45.5869 27.9133C43.1183 28.7934 41.9354 30.6628 41.4049 33.0816C41.2769 33.6652 41.1271 34.2519 40.9024 34.8012C40.6808 35.3474 40.478 35.9091 40.3531 36.4678C40.2189 37.0639 40.0129 37.6381 39.8132 38.1968C39.6447 38.6618 39.5105 39.1549 39.3544 39.6168C39.1048 40.3596 38.9144 41.1305 38.6928 41.8889C38.6148 42.1573 38.518 42.4225 38.4837 42.6941C38.4525 42.9312 38.5648 43.106 38.8551 43.106C39.8943 43.106 40.9305 43.1091 41.9698 43.106C42.079 43.106 42.2163 43.1247 42.2663 42.9812C42.4629 42.4194 42.6813 41.8576 42.8468 41.2928C43.0746 40.5063 43.2806 39.7104 43.5365 38.9302C43.6988 38.4371 44.0358 38.2654 44.5383 38.2842C45.381 38.3185 46.2236 38.3341 47.0663 38.3216C47.4626 38.3154 47.5094 38.4995 47.497 38.821C47.472 39.4264 46.9539 39.9071 47.0694 40.5469C47.0787 40.5937 46.9789 40.6623 46.9227 40.7154C46.8478 40.7872 46.7854 40.8527 46.7823 40.9744C46.7604 41.5268 46.4764 42.0168 46.3703 42.5536C46.2673 43.0654 46.2517 43.1091 46.7947 43.1123C47.7685 43.1216 48.7422 43.1123 49.7128 43.1216C49.9313 43.1216 50.053 43.0561 50.1435 42.8314C50.5773 41.7203 50.8457 40.5562 51.2171 39.4233C51.523 38.4933 51.6946 37.5164 52.1784 36.6457C52.2127 36.5801 52.2189 36.499 52.2252 36.421C52.272 35.8467 52.4811 35.3037 52.6652 34.7794C52.8306 34.2987 52.9617 33.7994 53.1521 33.3219C53.433 32.6072 53.5859 31.8394 53.7981 31.0935C54.0821 30.0824 53.6483 28.7965 52.762 28.216C52.1503 27.8166 51.4886 27.5669 50.7084 27.6418C49.9999 27.7104 49.2821 27.6574 48.5674 27.6574L48.5706 27.6605ZM19.9266 27.6605C18.6283 27.6605 17.3331 27.673 16.0348 27.6543C15.7071 27.648 15.5573 27.7541 15.4949 28.0725C15.2452 29.3427 14.7677 30.5474 14.4088 31.7864C14.2028 32.5011 13.8813 33.1814 13.7596 33.9242C13.7159 34.1895 13.4944 34.358 13.4351 34.642C13.3227 35.182 13.2478 35.7406 12.9732 36.24C12.9076 36.3586 12.8795 36.499 12.8421 36.6301C12.6798 37.2262 12.5393 37.8285 12.3583 38.4215C11.9589 39.7323 11.5344 41.0368 11.138 42.3476C10.9602 42.9344 11.1193 43.1216 11.7341 43.1216C12.6174 43.1216 13.4975 43.1216 14.3807 43.1372C14.6616 43.1403 14.7583 42.9905 14.8707 42.7596C15.0923 42.3071 15.1734 41.8108 15.3607 41.3458C15.5729 40.8246 15.7602 40.2816 15.8663 39.7292C15.9568 39.2517 15.9318 39.208 16.4249 39.208C17.5547 39.208 18.6813 39.208 19.8111 39.208C20.6475 39.208 21.4309 38.9989 22.1706 38.6275C23.2161 38.1 23.9901 37.2855 24.5643 36.2837C24.7641 35.9341 25.0044 35.569 25.073 35.182C25.2135 34.3955 25.5755 33.6808 25.6972 32.8943C25.7191 32.7508 25.7815 32.6166 25.8845 32.5229C26.0374 32.3887 26.0686 32.2233 26.0748 32.0361C26.0811 31.8301 26.131 31.6397 26.2153 31.4462C26.6241 30.5287 26.4119 29.6173 25.9344 28.8371C25.4694 28.0756 24.6299 27.7136 23.7435 27.6761C22.4764 27.6199 21.2031 27.6605 19.9297 27.6605H19.9266ZM58.0863 43.1996C58.0863 43.1996 58.0863 43.209 58.0863 43.2153C58.5669 43.2153 59.0475 43.2153 59.525 43.2153C59.781 43.2153 59.9745 43.1622 60.1024 42.8969C60.4083 42.2696 60.6142 41.6142 60.789 40.9463C60.8889 40.5656 60.9326 40.1692 61.0605 39.7978C61.1635 39.5013 61.2696 39.208 61.7253 39.1799C62.1279 39.158 62.5336 39.0894 62.9425 38.9146C64.3344 38.3154 65.3924 37.401 66.0259 36.0246C66.3942 35.2288 66.5222 34.3424 66.8624 33.5466C67.1089 32.9723 67.2868 32.37 67.446 31.7864C67.5989 31.2309 67.7799 30.666 67.9453 30.1198C68.1201 29.5518 68.2418 28.9619 68.4603 28.4064C68.5227 28.2441 68.5102 28.0756 68.5196 27.9102C68.5321 27.7073 68.4478 27.648 68.2449 27.648C67.1932 27.6574 66.1445 27.6543 65.0928 27.6574C64.968 27.6574 64.8337 27.6324 64.7745 27.8041C64.4468 28.7497 64.1752 29.7203 63.9412 30.6847C63.6915 31.7146 63.2202 32.6696 63.0361 33.712C63.0299 33.7463 63.0018 33.7807 62.9768 33.8088C62.8051 34.0116 62.7552 34.2426 62.7334 34.5078C62.6678 35.2631 62.415 35.466 61.6473 35.4691C60.8046 35.4691 59.962 35.4691 59.1193 35.4597C58.5888 35.4504 58.5076 35.3193 58.6855 34.8199C58.9102 34.1989 59.0787 33.5591 59.2566 32.9255C59.3628 32.551 59.575 32.2358 59.6842 31.88C60.0088 30.8127 60.2928 29.7328 60.6049 28.6623C60.6673 28.4501 60.711 28.241 60.7328 28.0225C60.7609 27.7448 60.6798 27.6418 60.3739 27.648C59.3315 27.6668 58.2891 27.6543 57.2468 27.6418C57.0845 27.6418 56.9596 27.7292 56.9503 27.8322C56.9284 28.0694 56.8036 28.266 56.7412 28.4813C56.5414 29.1679 56.4166 29.8764 56.17 30.5536C55.989 31.0561 55.8392 31.5679 55.6613 32.0735C55.4148 32.7726 55.2494 33.4935 54.9778 34.1895C54.8249 34.5827 54.6595 34.9947 54.5908 35.4098C54.5034 35.9247 54.5908 36.4678 54.5409 36.9921C54.4785 37.6787 54.9092 38.1063 55.3087 38.5338C55.6988 38.9489 56.2324 39.1175 56.7911 39.208C57.1719 39.2704 57.3341 39.5388 57.175 39.8696C56.9284 40.3814 56.9253 40.9588 56.6912 41.4769C56.5133 41.867 56.4291 42.2977 56.3105 42.7097C56.1981 43.0935 56.2793 43.2028 56.6819 43.2028C57.15 43.2028 57.615 43.2028 58.0832 43.2028L58.0863 43.1996ZM30.3318 43.2121C30.3318 43.2121 30.3318 43.2059 30.3318 43.2028C32.1482 43.2028 33.9646 43.2028 35.7778 43.2028C36.0088 43.2028 36.1586 43.1528 36.2241 42.8876C36.324 42.4662 36.4676 42.0574 36.6049 41.6485C36.8358 40.9432 37.073 40.241 37.3133 39.5357C37.4538 39.1206 37.538 38.6837 37.6722 38.2717C37.925 37.4946 38.2184 36.7299 38.4369 35.9404C38.5274 35.6158 38.4057 35.4785 38.0904 35.4785C37.0137 35.4753 35.937 35.4785 34.8603 35.4785C34.6855 35.4785 34.6012 35.5221 34.5513 35.7281C34.3921 36.3835 34.1893 37.0296 34.0051 37.6756C33.9053 38.022 33.7492 38.3466 33.64 38.6868C33.4496 39.2704 33.4559 39.2985 32.8504 39.2985C31.9547 39.2985 31.059 39.2641 30.1664 39.2922C29.7575 39.3047 29.7388 39.0426 29.8325 38.8428C30.0166 38.4527 30.0416 38.0251 30.1976 37.6475C30.5315 36.8361 30.7375 35.9872 30.9841 35.1539C31.2993 34.0928 31.6176 33.0379 31.9297 31.9768C32.117 31.3401 32.2543 30.6878 32.4821 30.0668C32.6975 29.4831 32.7193 28.8371 33.0595 28.2972C33.1562 28.1411 33.2155 27.9882 33.1313 27.829C33.0408 27.6574 32.8629 27.6574 32.6881 27.6574C31.7674 27.6636 30.8468 27.6636 29.9261 27.6668C29.4361 27.6668 29.2051 27.8602 29.1146 28.344C29.099 28.4314 29.0897 28.5219 29.0616 28.603C28.84 29.2428 28.5747 29.8701 28.4031 30.5224C28.297 30.9281 28.1003 31.3151 28.0442 31.7177C27.9817 32.1952 27.7758 32.6197 27.6353 33.0566C27.4512 33.6371 27.2889 34.2301 27.1204 34.8106C26.8769 35.647 26.621 36.4834 26.3869 37.3229C26.0748 38.4371 25.6285 39.5138 25.2915 40.6249C25.1198 41.196 25.123 41.8327 24.7079 42.3383C24.5893 42.4818 24.6142 42.7534 24.5955 42.9687C24.5768 43.1653 24.6829 43.2246 24.8826 43.2215C26.699 43.2121 28.5154 43.2153 30.3287 43.2153L30.3318 43.2121ZM81.2249 31.5242C80.4041 31.5242 79.8049 31.4961 79.2119 31.5305C78.3474 31.5804 77.4954 31.7146 76.7432 32.1859C75.4324 33.0067 74.3807 34.0303 73.95 35.5814C73.7471 36.3117 73.4507 37.0171 73.2197 37.738C73.0044 38.4028 72.8577 39.0863 72.6111 39.7479C72.3802 40.3721 72.2585 41.0368 72.0774 41.6798C71.9713 42.0574 71.8465 42.4288 71.7279 42.8033C71.6468 43.0623 71.7185 43.1903 72.0119 43.1903C73.1136 43.184 74.2153 43.1903 75.317 43.1903C75.4793 43.1903 75.5666 43.1403 75.6103 42.9593C75.7914 42.2228 76.0067 41.4956 76.2564 40.7778C76.3188 40.5999 76.4249 40.4439 76.4686 40.2566C76.6059 39.6855 76.7432 39.1143 76.9118 38.5526C77.1895 37.6132 77.4954 36.6831 77.7669 35.7437C77.8231 35.544 77.9011 35.4566 78.0946 35.4504C78.4691 35.4379 78.8467 35.416 79.2213 35.4129C79.9204 35.4129 80.6226 35.4192 81.3217 35.4254C81.6337 35.4254 81.8085 35.6844 81.6431 35.8623C81.2873 36.2524 81.6337 36.8673 81.1438 37.1731C81.1781 37.6381 80.9471 38.0283 80.8067 38.4496C80.6226 38.9957 80.5008 39.5731 80.3136 40.113C80.0202 40.9651 79.8829 41.8608 79.5334 42.6941C79.4522 42.8876 79.4023 43.184 79.783 43.1872C80.8722 43.1996 81.9614 43.1996 83.0507 43.2153C83.3409 43.2184 83.4938 43.1154 83.472 42.8095C83.4595 42.6285 83.5219 42.4756 83.5906 42.3008C83.7685 41.8483 83.8777 41.3677 84.0181 40.8995C84.2366 40.1661 84.4582 39.4327 84.6798 38.6993C84.8233 38.2311 84.9794 37.7661 85.1105 37.2948C85.279 36.6894 85.4569 36.0902 85.6847 35.5065C86.0811 34.4922 85.9656 33.506 85.3914 32.5978C84.9607 31.9175 84.246 31.7021 83.4782 31.596C82.6543 31.4805 81.8272 31.5461 81.2249 31.5242ZM71.731 32.0735C71.731 32.0735 71.731 32.0891 71.731 32.0985C72.3521 32.0985 72.9763 32.086 73.5973 32.1016C73.9968 32.1141 74.1529 31.8987 74.2028 31.5523C74.2184 31.4524 74.259 31.3463 74.2621 31.2621C74.2777 30.8938 74.6023 30.666 74.6553 30.3133C74.7646 29.5955 74.9924 28.9058 75.2296 28.2223C75.3825 27.7853 75.3201 27.6668 74.8551 27.6636C73.6754 27.6543 72.4988 27.6636 71.3191 27.6543C71.06 27.6543 70.9321 27.7697 70.8384 28.0038C70.6824 28.3908 70.5014 28.7716 70.4639 29.1929C70.4452 29.4207 70.1737 29.505 70.2174 29.7734C70.311 30.3539 69.8241 30.8158 69.8429 31.39C69.846 31.493 69.7305 31.5242 69.6681 31.5835C69.562 31.6834 69.4496 31.8238 69.4902 31.9393C69.5339 32.0673 69.7149 32.0766 69.8616 32.0766C70.4826 32.0766 71.1037 32.0766 71.7279 32.0766L71.731 32.0735Z" fill="#FDCF39"/>
<path d="M132.486 44.8068C132.664 43.9267 132.948 43.0965 133.222 42.2726C133.597 41.149 133.987 40.0255 134.315 38.8864C134.592 37.9189 134.867 36.9514 135.173 35.9932C135.744 34.1956 136.297 32.3917 136.874 30.5972C137.242 29.458 137.607 28.3126 138.01 27.1828C138.113 26.8926 138.188 26.593 138.266 26.2934C138.322 26.0812 138.419 25.9719 138.665 25.9719C141.468 25.9782 144.27 25.9813 147.07 25.9719C147.401 25.9719 147.41 26.1436 147.351 26.362C147.182 26.98 146.976 27.5854 146.827 28.2065C146.67 28.8432 146.44 29.458 146.24 30.0728C145.996 30.8187 145.822 31.5896 145.538 32.3199C145.176 33.2562 144.923 34.2237 144.62 35.1787C144.249 36.3553 143.89 37.5381 143.528 38.7178C143.284 39.5137 143.097 40.3345 142.813 41.1116C142.632 41.5984 142.482 42.1072 142.339 42.594C142.17 43.1558 141.846 43.6801 141.83 44.2949C141.821 44.6226 141.605 44.813 141.268 44.813C138.412 44.813 135.554 44.813 132.698 44.813C132.633 44.813 132.57 44.8068 132.489 44.8037L132.486 44.8068Z" fill="#FDCF39"/>
<path d="M47.7059 31.4491C48.224 31.4491 48.742 31.4616 49.2601 31.4429C49.5285 31.4335 49.6315 31.5583 49.5909 31.7862C49.5254 32.1701 49.4755 32.5539 49.3132 32.9253C49.129 33.3466 48.9917 33.7961 48.9012 34.2486C48.8544 34.4764 48.7639 34.6886 48.7327 34.9134C48.6734 35.3409 48.4019 35.472 48.0149 35.472C47.0287 35.472 46.0456 35.472 45.0593 35.4658C44.7441 35.4658 44.6536 35.1381 44.8159 34.7729C45.1124 34.105 45.3028 33.3997 45.4807 32.6912C45.5743 32.3167 45.7896 31.9766 45.8146 31.5708C45.824 31.4241 46.0019 31.4616 46.1111 31.4616C46.6417 31.4554 47.1753 31.4616 47.7059 31.4616C47.7059 31.4616 47.7059 31.4616 47.7059 31.4585V31.4491Z" fill="#FDCF39"/>
<path d="M19.0248 35.4753C18.5442 35.4753 18.0635 35.4785 17.586 35.4753C17.2396 35.4722 17.1772 35.3568 17.2833 35.0322C17.5205 34.3081 17.7421 33.5778 17.9699 32.8506C18.0885 32.473 18.257 32.1079 18.2851 31.7053C18.2976 31.5149 18.4349 31.4743 18.5847 31.4712C19.6708 31.4587 20.7569 31.3713 21.8399 31.5242C22.1613 31.5679 22.2706 31.8582 22.1395 32.164C21.9054 32.7071 21.7182 33.2688 21.6464 33.8587C21.6245 34.0272 21.5372 34.1458 21.4622 34.2707C21.3405 34.4735 21.2313 34.692 21.2563 34.9136C21.3 35.3006 21.0909 35.4254 20.7788 35.4348C20.1951 35.4504 19.6115 35.441 19.031 35.441V35.4753H19.0248Z" fill="#FDCF39"/>
</svg>
