<svg width="175" height="70" viewBox="0 0 175 70" fill="none" xmlns="http://www.w3.org/2000/svg">
<path d="M164.474 40.7938C164.043 39.0899 163.589 37.3917 162.877 35.7775C161.095 31.7421 158.242 28.5978 154.649 26.0924C152.715 24.7417 150.642 23.6768 148.394 22.9257C145.894 22.0906 143.344 21.5974 140.716 21.5021C139.819 21.4685 138.916 21.5526 138.02 21.5974C136.602 21.6703 135.212 21.8945 133.861 22.2364C129.433 23.3685 125.521 25.4423 122.237 28.6819C119.602 31.2825 117.669 34.2922 116.447 37.756C115.601 40.1492 115.074 42.6041 115.36 45.031C115.141 48.108 115.696 50.8992 116.85 53.6231C119.614 60.1359 124.31 64.6029 130.862 67.2371C133.513 68.3021 136.271 68.7504 139.085 68.9298C140.144 68.997 141.209 68.9466 142.274 68.8177C144.135 68.5935 145.979 68.2965 147.766 67.7304C149.515 67.1755 151.124 66.2955 152.777 65.5053C154.307 64.771 155.574 63.6949 156.824 62.6132C157.721 61.8341 158.55 60.9486 159.295 60.0014C160.198 58.8524 161.134 57.7258 161.84 56.4423C162.782 54.7273 163.538 52.945 164.088 51.0561C164.514 49.5989 164.704 48.1024 164.889 46.6228C165.136 44.6723 164.962 42.705 164.474 40.7882V40.7938ZM162.087 47.0655C161.89 48.9487 161.465 50.7983 160.753 52.5863C159.649 55.3494 158.051 57.7651 155.933 59.8444C152.906 62.8206 149.33 64.8047 145.183 65.7631C142.963 66.2787 140.716 66.4525 138.457 66.2955C134.483 66.0265 130.784 64.8607 127.505 62.574C123.453 59.7492 120.471 56.0836 118.941 51.342C118.296 49.3523 117.848 47.3178 117.988 45.3449C117.848 41.9316 118.61 38.8265 120.118 35.9793C122.87 30.7836 127.051 27.1742 132.712 25.319C135.649 24.355 138.642 23.957 141.708 24.1588C143.445 24.2709 145.149 24.6576 146.814 25.1621C153.237 27.0957 157.805 31.1872 160.529 37.2516C161.918 40.3454 162.44 43.6746 162.087 47.0655Z" fill="#FDCF39"/>
<path d="M123.7 17.5621C124.636 18.9353 125.454 20.3757 125.959 21.9731C126.138 22.5504 126.452 22.612 127.024 22.2814C128.167 21.62 129.355 21.0539 130.616 20.6392C131.922 20.2132 133.239 19.8769 134.607 19.6415C135.655 19.4622 136.703 19.2155 137.762 19.1595C138.373 19.1259 138.413 18.9633 138.295 18.4141C137.897 16.5701 137.398 14.7373 137.6 12.8149C137.667 12.1423 137.505 11.4361 137.639 10.7803C137.992 9.07089 138.194 7.29978 139.141 5.76406C139.242 5.59592 139.281 5.37173 139.136 5.25403C139.007 5.14754 138.839 5.27084 138.71 5.38854C137.135 6.75051 135.862 8.32545 135.139 10.3095C134.59 11.8228 134.198 13.3585 134.254 15.012C132.085 9.98447 129.467 5.25403 125.981 1C125.768 3.76876 125.88 6.5095 126.071 9.25024C126.25 11.9125 126.906 14.5075 127.332 17.1642C126.329 15.4155 124.782 14.3114 123.173 13.3081C121.497 12.2656 119.659 11.6379 117.625 11.7219C117.854 11.8621 118.09 11.9966 118.314 12.1423C120.5 13.5659 122.254 15.4211 123.711 17.5621H123.7Z" fill="#FDCF39"/>
<path d="M71.7384 39.7684C71.0322 39.8469 70.3036 39.7741 69.5862 39.7684C68.2691 42.8287 66.952 45.8945 65.6124 48.9491C65.5564 49.078 65.5508 49.3526 65.3098 49.3358C65.136 49.319 65.0968 49.1284 65.0127 48.9883C64.6988 48.4334 64.4915 47.8281 64.2504 47.2508C63.4265 45.3172 62.4009 43.4508 61.7787 41.4611C61.3023 39.9254 60.4728 39.5947 59.0548 39.7404C58.4663 39.8021 58.3374 39.9478 58.3374 40.5027C58.3598 43.9608 58.3486 47.4134 58.3486 50.8715C58.3486 52.0186 58.9278 52.5698 60.0861 52.5249C60.0861 52.5249 60.1309 52.5249 60.1534 52.5249C60.5008 52.5698 60.5849 52.396 60.5849 52.0765C60.5793 49.2629 60.5849 46.455 60.5849 43.6357C60.7923 43.6357 60.7979 43.8543 60.8764 44.0449C61.846 46.4718 62.8268 48.893 63.8021 51.3143C64.2953 52.553 64.2897 52.5417 65.6741 52.5361C66.1168 52.5361 66.3634 52.4128 66.5372 51.9588C67.4732 49.5208 68.5269 47.1331 69.4349 44.6838C69.5582 44.3476 69.5245 43.8151 70.085 43.6133C70.085 46.1915 70.085 48.7193 70.085 51.2414C70.085 52.5193 70.085 52.5305 71.3853 52.5249C72.4895 52.5249 72.3045 52.637 72.3213 51.617C72.383 47.873 72.1868 44.1234 72.411 40.3794C72.4278 40.0711 72.3101 39.7012 71.7496 39.7628L71.7384 39.7684Z" fill="#FDCF39"/>
<path d="M56.5541 45.4631C55.5789 45.4911 54.598 45.4743 53.6228 45.4743V45.4575C52.67 45.4575 51.7116 45.4911 50.7644 45.4407C50.3048 45.4183 50.1927 45.5696 50.2487 45.9787C50.2711 46.1637 50.2655 46.3487 50.2487 46.5336C50.2095 46.9484 50.4057 47.038 50.7868 47.0324C52.1095 47.01 53.4379 47.0324 54.7606 47.0156C55.1193 47.0156 55.1417 47.0717 55.0632 47.4528C54.5028 50.2944 51.1119 51.5331 48.6177 50.1487C46.8634 49.1735 46.2189 47.4976 46.4655 45.351C46.6897 43.4342 48.0348 42.0106 49.9068 41.6014C51.2632 41.3044 53.3089 41.9097 53.9199 42.9802C54.329 43.6864 54.8166 43.8713 55.5396 43.7817C55.747 43.7536 55.96 43.7536 56.1674 43.7817C56.7895 43.877 56.7783 43.4958 56.6214 43.1259C56.0217 41.6687 55.0184 40.5869 53.5219 40.0209C52.3393 39.5725 51.1007 39.5501 49.8564 39.6005C47.8891 39.6734 46.3702 40.5926 45.2212 42.1395C44.5038 43.1035 44.246 44.2188 44.0779 45.4015C43.8593 46.9372 44.1731 48.3776 44.9298 49.6162C46.5272 52.2337 50.0301 53.3715 52.8718 52.357C55.8087 51.3089 57.3051 49.0502 57.0978 45.9675C57.0697 45.5752 56.952 45.4519 56.5541 45.4631Z" fill="#FDCF39"/>
<path d="M27.4379 47.7268C27.0119 47.1607 27.4266 47.1831 27.7125 47.1215C29.265 46.802 30.1898 45.838 30.3916 44.3191C30.5821 42.8674 30.3187 41.5167 28.9904 40.5583C28.301 40.0594 27.5556 39.9586 26.7541 39.8521C24.8372 39.5999 22.9204 39.8353 21.082 39.7288C21.082 41.4046 21.082 42.9963 21.082 44.5881C21.082 47.1831 21.0932 49.7725 21.0932 52.3675C21.6313 52.5749 22.203 52.3675 22.741 52.4796C23.2511 52.5861 23.3352 52.3507 23.3295 51.9248C23.3127 50.7197 23.3015 49.5147 23.3183 48.3097C23.3183 48.0519 23.0717 47.5811 23.5033 47.5642C23.9797 47.5474 24.5738 47.2224 24.9605 47.8109C25.5715 48.7356 26.2216 49.6324 26.7709 50.5964C27.4883 51.8463 28.2281 52.9673 29.9544 52.5357C29.9992 52.5245 30.0497 52.5357 30.0945 52.5357C30.2346 52.5301 30.3804 52.715 30.5149 52.4965C30.6326 52.3003 30.4532 52.177 30.386 52.0761C29.4219 50.6132 28.4859 49.128 27.4435 47.7268H27.4379ZM23.6098 45.8604C23.2847 45.8716 23.3183 45.653 23.3183 45.44C23.3239 44.8403 23.3183 44.235 23.3183 43.6353C23.3239 43.6353 23.3295 43.6353 23.3352 43.6353C23.3352 43.0356 23.3352 42.4303 23.3352 41.8306C23.3352 41.612 23.3239 41.4102 23.6434 41.4046C24.854 41.3878 26.0591 41.3878 27.2025 41.8866C27.9647 42.2173 28.2449 43.114 28.1777 44.179C28.1441 44.7899 27.4322 45.5465 26.7765 45.7091C25.734 45.9725 24.6635 45.8212 23.6098 45.8604Z" fill="#FDCF39"/>
<path d="M112.832 48.0915C112.205 48.0915 111.577 48.0915 110.949 48.0859C110.787 48.0859 110.652 48.1587 110.607 48.2764C110.103 49.672 108.954 50.2213 107.625 50.5463C106.168 50.9051 104.358 50.2045 103.534 48.9434C102.788 47.8056 102.592 46.5894 102.749 45.2162C102.962 43.3162 104.604 41.5843 106.516 41.5507C108.18 41.5226 109.576 42.0607 110.478 43.5684C110.585 43.7477 110.658 44.0952 111.05 44.0616C111.582 44.0168 112.12 44.0504 112.653 44.0504C113.023 44.0504 113.185 43.8711 113.028 43.5236C112.3 41.8814 111.224 40.5586 109.458 39.9701C108.455 39.6338 107.407 39.6058 106.348 39.5834C104.195 39.5442 102.637 40.5418 101.449 42.2064C100.311 43.8038 100.02 45.6197 100.39 47.5198C100.642 48.8313 101.242 50.0307 102.217 50.9443C103.416 52.0652 104.851 52.6986 106.325 52.5304C107.222 52.5304 107.883 52.5248 108.556 52.4127C110.758 52.0596 112.389 50.5295 113.056 48.523C113.112 48.3605 113.185 48.0858 112.821 48.0915H112.832Z" fill="#FDCF39"/>
<path d="M84.5888 48.2596C83.8153 46.2587 82.9858 44.2746 82.218 42.2681C81.9489 41.5563 81.7752 40.7548 81.4277 40.1439C80.9961 39.3817 79.948 39.8973 79.1802 39.7796C79.1129 39.7684 79.0401 39.7628 78.9728 39.7796C78.7318 39.8188 78.5244 39.9197 78.4628 40.1776C78.3171 40.7661 77.9752 41.2649 77.779 41.8422C77.084 43.8935 76.2657 45.9 75.4866 47.9234C74.9037 49.4423 74.1919 50.9107 73.6875 52.5529C74.22 52.5529 74.702 52.5529 75.1784 52.5529C75.8678 52.5529 76.3834 52.3455 76.5235 51.5665C76.602 51.1293 76.7701 50.7033 76.9215 50.2774C77.0336 49.9635 77.1961 49.7449 77.6165 49.7505C79.197 49.7729 80.7775 49.7505 82.3581 49.7505C82.6776 49.7505 82.8457 49.8626 82.9298 50.2101C83.0587 50.7818 83.2773 51.3367 83.4454 51.9028C83.5855 52.368 83.8209 52.637 84.3758 52.5641C84.8074 52.5081 85.2558 52.5529 85.6985 52.5641C86.0292 52.5697 86.231 52.5641 86.0573 52.1101C85.564 50.8378 85.082 49.5544 84.5888 48.2821V48.2596ZM81.4277 48.0915C80.3852 48.0691 79.3427 48.0635 78.3002 48.0915C77.8631 48.1027 77.8126 47.8729 77.9359 47.5927C78.6533 46.0177 79.197 44.3755 79.7519 42.7389C79.7911 42.6324 79.8584 42.5372 80.0265 42.526C80.6262 44.1794 81.1979 45.8272 81.8369 47.447C82.0442 47.9682 81.9658 48.0971 81.4277 48.0859V48.0915Z" fill="#FDCF39"/>
<path d="M41.9202 47.6652C41.1691 45.7372 40.334 43.8427 39.6726 41.8867C39.0057 39.897 39.0841 39.8746 37.0104 39.7849C36.9655 39.7849 36.9151 39.7849 36.8703 39.7681C36.4331 39.6672 36.2425 39.8634 36.0856 40.2725C35.4522 41.9147 34.7517 43.5289 34.1183 45.1711C33.3224 47.2224 32.5322 49.2738 31.697 51.3139C31.2431 52.4237 31.3664 52.5414 32.5378 52.5414C32.7003 52.5414 32.8684 52.5246 33.0254 52.5414C33.5915 52.6198 33.8829 52.3228 34.0454 51.8352C34.2136 51.3251 34.4042 50.8151 34.5331 50.2938C34.6396 49.8567 34.8806 49.711 35.3121 49.7166C36.8647 49.7334 38.4228 49.7222 39.9753 49.7278C40.6871 49.7726 40.5582 50.4228 40.7039 50.8151C41.3709 52.5862 41.3485 52.5862 43.1812 52.547C43.6745 52.5358 43.781 52.4181 43.5848 51.9417C43.0075 50.5236 42.475 49.0888 41.9202 47.6652ZM38.6974 48.0856C37.6269 48.0856 36.5564 48.0856 35.441 48.0856C36.1304 46.2024 36.803 44.364 37.5372 42.3575C38.1818 44.0501 38.7703 45.5914 39.3532 47.1328C39.7119 48.08 39.7063 48.0856 38.6974 48.0856Z" fill="#FDCF39"/>
<path d="M17.2032 40.0654C16.4746 39.7684 15.6171 39.6787 14.7763 39.7179C13.5937 39.7684 12.4055 39.7291 11.2173 39.7291C10.3243 39.7291 9.9226 40.1756 10.0123 41.0687C10.0235 41.1584 10.0067 41.2536 10.0067 41.3489C10.0067 43.1088 10.0067 44.8743 10.0067 46.6342H10.0291C10.0291 48.4221 10.0291 50.2045 10.0291 51.9924C10.0291 52.1774 9.90018 52.4912 10.1972 52.5136C10.7969 52.5529 11.4023 52.5136 12.0076 52.4912C12.1421 52.4856 12.2654 52.3623 12.2598 52.2054C12.2262 50.793 12.3887 49.375 12.1757 47.9738C12.1085 47.5198 12.2318 47.531 12.5568 47.5198C13.7787 47.4805 15.0117 47.6711 16.2168 47.3909C17.5507 47.0826 18.6829 46.4437 19.0192 45.0144C19.2658 43.9663 19.2602 42.8678 18.8959 41.8253C18.6044 41.0014 17.9543 40.3625 17.2088 40.0598L17.2032 40.0654ZM15.1575 45.715C14.3392 45.8888 13.5153 45.8327 12.6914 45.8608C12.2934 45.872 12.2374 45.687 12.2542 45.3563C12.2766 44.779 12.2598 44.2018 12.2598 43.6245C12.2598 43.6245 12.2598 43.6245 12.2542 43.6245C12.2542 43.0247 12.2542 42.425 12.2542 41.8197C12.2542 41.6067 12.2262 41.3825 12.5456 41.3994C13.5097 41.4442 14.4849 41.2648 15.4321 41.5787C16.3961 41.9038 17.0463 42.7725 17.007 43.6861C16.9678 44.6782 16.2168 45.4908 15.1575 45.715Z" fill="#FDCF39"/>
<path d="M95.3561 40.3734C95.4401 39.8802 95.2832 39.7121 94.7339 39.7177C92.1053 39.7513 89.4766 39.7345 86.8424 39.7345C85.6654 39.7345 85.6878 39.7345 85.7102 40.9115C85.7158 41.3038 85.8335 41.4271 86.2259 41.4159C87.0834 41.3879 87.9465 41.4327 88.8097 41.3935C89.3309 41.3711 89.4935 41.5392 89.4822 42.0661C89.4486 43.6915 89.471 45.3112 89.471 46.9366C89.4598 46.9366 89.443 46.9366 89.4318 46.9366C89.4318 48.6293 89.4318 50.3219 89.4318 52.0146C89.4318 52.2612 89.3758 52.5526 89.7905 52.5414C90.3005 52.5302 90.8162 52.5302 91.3262 52.5302C91.5224 52.5302 91.7073 52.491 91.6289 52.2444C91.5224 51.8912 91.6513 51.5606 91.6513 51.2187C91.6401 48.1585 91.6457 45.0983 91.6065 42.0324C91.6065 41.556 91.6793 41.3655 92.195 41.3935C92.9628 41.4383 93.7307 41.3711 94.4985 41.4159C95.1431 41.4551 95.4906 41.2926 95.3561 40.5808C95.3448 40.5135 95.3448 40.4407 95.3561 40.3734Z" fill="#FDCF39"/>
<path d="M98.5905 39.8356C98.2262 39.5666 97.5256 39.7683 96.9708 39.7235C96.5728 39.6899 96.4775 39.8132 96.4831 40.2223C96.5 43.843 96.4887 47.4581 96.4831 51.0788C96.4831 52.5753 96.4719 52.5529 98.0076 52.5585C98.5849 52.5585 98.7755 52.3791 98.7643 51.7962C98.7307 49.8738 98.7531 47.9457 98.7531 46.0233C98.7419 46.0233 98.7251 46.0233 98.7138 46.0233C98.7138 44.4708 98.7251 42.9182 98.7138 41.3657C98.7138 40.8389 98.9548 40.1046 98.6073 39.8468L98.5905 39.8356Z" fill="#FDCF39"/>
<path d="M147.1 36.9544C148.232 37.0049 149.47 36.8143 150.631 36.0352C151.623 35.3627 152.217 34.2417 151.987 33.0703C151.606 31.1086 150.395 29.8027 148.759 28.7883C146.915 27.6393 144.897 27.3534 142.773 27.4879C141.304 27.5776 140.15 28.1829 139.382 29.4608C138.575 30.7948 138.838 32.0558 139.662 33.2609C141.399 35.7942 143.804 37.0385 147.088 36.96L147.1 36.9544Z" fill="#FDCF39"/>
<path d="M147.1 40.1884C147.005 39.9418 146.898 39.74 146.562 39.7568C146.074 39.7849 145.587 39.7793 145.099 39.768C144.572 39.7568 144.253 39.953 144.084 40.4911C143.872 41.1805 143.569 41.8418 143.305 42.5144C142.078 45.6643 140.856 48.8198 139.612 51.9584C139.433 52.4124 139.539 52.5413 139.976 52.5357C140.464 52.5357 140.951 52.5245 141.439 52.5357C141.759 52.5413 141.927 52.4517 142.022 52.1042C142.201 51.4316 142.51 50.787 142.678 50.1145C142.751 49.823 142.857 49.739 143.115 49.739C144.645 49.739 146.181 49.7614 147.711 49.7109C148.355 49.6941 148.574 49.9856 148.725 50.5404C148.905 51.213 148.983 52.1266 149.516 52.4293C150.065 52.7375 150.917 52.5133 151.64 52.5189C151.707 52.5189 151.774 52.4965 151.892 52.4741C151.18 50.6637 150.491 48.9151 149.813 47.1664C148.905 44.8404 148.002 42.5144 147.094 40.1828L147.1 40.1884ZM147.352 48.0911C146.102 48.0799 144.852 48.0911 143.518 48.0911C144.191 46.2696 144.836 44.5377 145.48 42.8002C145.519 42.6994 145.48 42.5368 145.643 42.548C145.788 42.5592 145.861 42.6881 145.9 42.8283C146.326 44.4873 147.016 46.0566 147.644 47.6484C147.778 47.9959 147.722 48.0968 147.352 48.0911Z" fill="#FDCF39"/>
<path d="M127.887 39.9982C126.648 39.5834 125.376 39.7964 124.12 39.7235C123.257 39.7235 122.4 39.7404 121.536 39.7123C121.133 39.7011 121.06 39.83 121.06 40.2224C121.082 43.7029 121.06 47.1779 121.105 50.6585C121.105 51.0284 121.004 51.3927 120.993 51.757C120.965 52.693 121.48 52.5473 122.018 52.5417C122.226 52.5417 122.439 52.5249 122.646 52.5417C123.145 52.5865 123.352 52.4016 123.336 51.8691C123.296 50.5968 123.347 49.3189 123.296 48.0466C123.28 47.5702 123.465 47.5142 123.851 47.5254C124.737 47.5478 125.622 47.5702 126.502 47.5198C127.5 47.4581 128.402 47.1331 129.176 46.4549C130.162 45.5918 130.286 44.482 130.257 43.2714C130.224 41.646 129.417 40.5194 127.87 39.9982H127.887ZM126.715 45.5525C125.723 45.9224 124.698 45.8664 123.672 45.8608C123.369 45.8608 123.336 45.687 123.336 45.4572C123.336 44.8351 123.336 44.2074 123.336 43.5852H123.324C123.324 43.0976 123.375 42.61 123.313 42.128C123.229 41.4722 123.509 41.3489 124.087 41.3938C124.815 41.4498 125.549 41.3826 126.278 41.5283C127.237 41.7188 127.932 42.4419 128.038 43.49C128.128 44.3867 127.573 45.2274 126.715 45.5469V45.5525Z" fill="#FDCF39"/>
<path d="M160.164 39.7064C159.514 39.6896 158.864 39.7064 158.214 39.7064C157.883 39.7064 157.794 39.9643 157.681 40.1829C156.897 41.6961 156.135 43.215 155.339 44.7171C155.232 44.9189 155.249 45.3168 154.93 45.2664C154.689 45.2328 154.66 44.8797 154.548 44.6611C153.764 43.1534 152.979 41.6457 152.194 40.1324C152.077 39.9026 151.97 39.7121 151.645 39.7233C150.911 39.7457 150.171 39.7289 149.336 39.7289C150.317 41.5168 151.275 43.2094 152.172 44.9357C152.71 45.9782 153.528 46.875 153.781 48.0632C153.988 49.044 153.848 50.0417 153.865 51.0281C153.893 52.5582 153.87 52.5358 155.389 52.547C155.927 52.547 156.135 52.4069 156.118 51.8408C156.078 50.7086 156.118 49.5709 156.107 48.4331C156.107 48.108 156.157 47.811 156.32 47.5195C156.992 46.3089 157.642 45.087 158.304 43.8708C158.971 42.6377 159.643 41.4047 160.299 40.166C160.377 40.0147 160.646 39.7177 160.17 39.7008L160.164 39.7064Z" fill="#FDCF39"/>
<path d="M138.647 51.3979C138.709 50.972 138.546 50.8374 138.115 50.8486C136.955 50.8767 135.789 50.8374 134.629 50.8767C134.124 50.8935 134.018 50.7422 134.023 50.2601C134.051 47.2952 134.051 44.3303 134.04 41.3654C134.04 39.6783 134.018 39.7007 132.314 39.7232C131.854 39.7288 131.787 39.9025 131.787 40.2948C131.776 44.3583 131.753 48.4218 131.731 52.4852H131.737C133.85 52.4852 135.968 52.4572 138.081 52.5021C138.563 52.5133 138.709 52.4124 138.647 51.9584C138.619 51.779 138.619 51.5829 138.647 51.4035V51.3979Z" fill="#FDCF39"/>
</svg>
