<svg width="175" height="70" viewBox="0 0 175 70" fill="none" xmlns="http://www.w3.org/2000/svg">
<path d="M57.7329 33.8195C55.6829 29.5601 52.4884 26.1326 49.2938 22.7625C44.4793 17.6893 38.929 13.4692 33.1333 9.56371C32.5489 9.17044 32.1492 9.30354 31.6648 9.64539C29.9418 10.8585 28.1432 11.9748 26.5111 13.2998C25.5179 14.1045 24.9668 13.9593 24.1856 13.082C23.0501 11.8054 21.7874 10.6407 20.5641 9.43968C18.7927 7.70323 17.2514 7.71533 15.4679 9.48505C13.1091 11.8265 10.7624 14.1831 8.41266 16.5337C6.7745 18.1703 5.13029 19.8039 3.4982 21.4466C1.51485 23.4371 1.50274 24.5323 3.44975 26.4956C4.69123 27.748 5.89638 29.0398 7.20448 30.2196C8.15831 31.0818 8.24612 31.835 7.59207 32.9604C6.21735 35.3261 5.05762 37.8007 4.81235 40.5899C3.88578 43.7451 4.63976 46.6826 6.05384 49.499C9.79343 56.9439 18.2507 60.1627 26.3021 55.6189C28.0917 54.6085 29.5966 53.2714 31.1258 51.3413C31.0198 52.0311 31.0077 52.2791 30.9441 52.5151C29.3998 58.0209 24.8699 60.2111 19.7738 60.8888C19.3831 60.9402 18.717 60.6498 18.7109 61.3546C18.7049 62.0716 19.3771 61.8145 19.7616 61.8145C28.1795 61.8296 36.5974 61.8326 45.0153 61.8145C45.4089 61.8145 46.0599 62.0716 46.1144 61.397C46.172 60.6619 45.4876 60.9311 45.1 60.8827C40.6489 60.3321 36.8941 58.6743 34.6807 54.4815C34.2174 53.6072 33.5633 52.8025 33.9479 51.5561C34.3022 51.9675 34.5383 52.2852 34.8139 52.5635C38.4566 56.2149 42.6928 58.3628 48.0009 57.5278C53.1485 56.7201 56.8699 53.9036 59.0077 49.1602C60.2825 46.3316 60.5217 43.3398 59.8313 40.2934C59.7435 37.9398 58.7261 35.8797 57.7329 33.8195ZM4.64581 25.8724C3.09244 24.3084 3.11667 23.8788 4.67609 22.3209C8.558 18.4396 12.4429 14.5643 16.3339 10.6891C17.6693 9.36102 18.4112 9.358 19.7465 10.6891C23.6678 14.6006 27.586 18.5182 31.5012 22.4358C31.9221 22.8563 32.4763 23.2254 32.2492 23.8849C32.337 24.4415 32.2098 24.8196 31.8525 25.1827C27.6072 29.4754 23.4377 33.8437 19.0379 37.9852C18.1235 38.8474 17.4028 38.6568 16.5974 37.846C12.6216 33.8468 8.61554 29.8747 4.64278 25.8724H4.64581Z" fill="#FDCF39"/>
<path d="M126.98 42.6652C126.983 38.7566 126.983 38.796 123.035 38.7839C122.045 38.7839 121.633 39.1197 121.342 40.0272C120.128 43.7966 118.841 47.5387 117.53 51.4563C116.049 48.3737 115.613 45.1276 114.351 42.163C113.908 41.1223 113.963 39.5341 113.227 39.0471C112.376 38.4813 110.893 38.923 109.699 38.7929C108.464 38.6568 108.204 39.1469 108.219 40.3025C108.282 44.7313 108.249 49.1632 108.234 53.5921C108.234 54.4119 107.725 55.4132 109.248 55.4495C111.465 55.501 111.58 55.4677 111.583 53.7917C111.589 50.4519 111.583 47.1122 111.583 43.7724C112.958 47.2362 114.117 50.7242 115.183 54.2395C115.441 55.0865 115.749 55.6159 116.691 55.4314C117.709 55.2317 119.062 56.0939 119.619 54.4149C120.497 51.7618 121.481 49.1421 122.363 46.489C122.671 45.5633 122.777 44.568 123.598 43.6483C123.598 47.3058 123.659 50.7303 123.571 54.1517C123.528 55.7127 124.525 55.3437 125.369 55.3739C126.235 55.4042 127.029 55.5373 126.999 54.1457C126.914 50.3219 126.977 46.495 126.98 42.6682V42.6652Z" fill="#FDCF39"/>
<path d="M77.3697 32.3524C78.0964 30.2045 77.6725 28.6556 75.9768 27.2307C75.674 26.9766 75.3863 26.8314 75.9283 26.3595C77.7784 24.741 78.163 23.0984 77.3636 21.0019C76.5915 18.9841 74.8897 18.5485 73.0002 18.5273C70.0812 18.494 67.1592 18.5455 64.2402 18.491C63.3288 18.4729 63.0078 18.7209 63.032 19.6708C63.0956 22.0335 63.0532 24.3992 63.0532 26.7618H63.0714C63.0714 29.0761 63.0986 31.3904 63.0562 33.7016C63.0411 34.5486 63.1925 34.9782 64.1918 34.957C67.2622 34.8905 70.3326 34.951 73.403 34.8965C75.674 34.8542 76.7762 34.0979 77.3697 32.3554V32.3524ZM66.4961 21.5979C68.4007 21.5585 70.3053 21.5192 72.2099 21.4829C73.4484 21.6614 73.9147 22.4207 73.7391 23.5975C73.5725 24.7138 72.8488 25.2039 71.7527 25.2069C71.1531 25.2069 70.5536 25.213 69.9541 25.216C67.6003 25.216 66.4466 24.0099 66.493 21.5979H66.4961ZM72.3795 31.9137C70.6505 32.2798 68.8852 32.0256 67.135 32.0619C66.7958 32.068 66.5718 31.8835 66.5475 31.5204C66.5385 31.3692 66.5445 31.2209 66.5324 31.0697C66.4133 29.1658 67.4933 28.218 69.7724 28.226C70.5233 28.226 71.2773 28.1927 72.0282 28.2351C72.97 28.2896 73.6634 28.6828 73.7603 29.7386C73.8572 30.8186 73.4908 31.6747 72.3825 31.9107L72.3795 31.9137Z" fill="#FDCF39"/>
<path d="M86.2143 38.799C84.1492 38.8565 82.0781 38.7597 80.016 38.8293C76.9486 38.9352 74.1992 39.7368 73.0516 42.9949C72.1795 45.4665 71.8495 48.0046 72.8093 50.573C74.1023 54.0398 75.8828 55.2771 79.5618 55.383C81.7601 55.4466 83.9676 55.1047 86.1659 55.6008C86.8109 55.746 87.4286 55.3921 87.4104 54.4966C87.3831 53.1383 87.4043 51.777 87.4043 50.4187H87.4134C87.4134 49.1088 87.3953 47.7989 87.4225 46.492C87.4377 45.8295 87.2832 45.4665 86.5081 45.4786C84.34 45.5149 82.175 45.4907 80.0069 45.4937C79.6587 45.4937 79.3498 45.4907 79.1984 45.9596C78.6806 47.5872 79.2893 48.4796 80.9729 48.4826C83.9736 48.4856 84.1553 48.6974 83.7374 51.6802C83.695 51.9737 83.7435 52.382 83.3408 52.3639C81.3847 52.2762 79.3014 52.9931 77.5694 51.4412C76.5853 50.5609 76.5762 49.3145 76.3218 48.1801C75.6526 45.1882 77.0062 41.3825 81.1788 41.797C82.8744 41.9664 84.6034 41.8363 86.3173 41.8212C87.4528 41.8091 87.6648 41.6911 87.4225 41.198C87.0349 40.4024 88.337 38.7385 86.2174 38.796L86.2143 38.799Z" fill="#FDCF39"/>
<path d="M156.143 45.66C154.344 45.5542 152.543 45.539 150.744 45.4695C149.469 45.418 148.576 45.0671 148.515 43.6422C148.461 42.3717 149.076 41.8513 150.686 41.8332C153.157 41.806 155.628 41.7727 158.096 41.8271C159.062 41.8483 159.271 41.3643 159.092 40.6383C158.938 39.9999 159.755 38.7899 158.314 38.8262C155.007 38.9109 151.689 38.4904 148.394 39.0803C145.678 39.5643 144.458 41.1677 144.579 44.211C144.667 46.4042 146.568 48.2889 148.903 48.4039C150.411 48.4795 151.928 48.4281 153.439 48.4674C155.283 48.5158 156.085 49.1239 156.122 50.4065C156.173 52.1732 154.774 52.1248 153.642 52.3759C153.257 52.4606 152.839 52.4092 152.434 52.4092C150.366 52.4092 148.297 52.4727 146.235 52.388C145.118 52.3426 145.136 52.9537 145.191 53.704C145.242 54.4421 144.864 55.4132 146.241 55.3678C147.752 55.3164 149.266 55.3557 150.777 55.3557V55.3134C152.24 55.3134 153.699 55.3134 155.162 55.3134C155.362 55.3134 155.565 55.2861 155.764 55.2619C158.211 54.9745 159.456 53.9762 159.925 51.6257C160.4 49.2449 159.571 45.8657 156.143 45.6631V45.66Z" fill="#FDCF39"/>
<path d="M96.97 38.7809C95.9192 38.7537 95.4893 39.1379 95.1319 40.0666C94.2902 42.2689 93.3061 44.4168 92.4098 46.5979C91.2349 49.4597 90.0873 52.3306 88.8579 55.374C90.06 55.374 91.0563 55.3286 92.0464 55.3891C92.7883 55.4345 93.2394 55.1289 93.3575 54.4513C93.8208 51.7377 95.5438 51.0691 97.9965 51.5138C98.1902 51.5501 98.4052 51.5532 98.599 51.5138C100.361 51.1387 101.179 51.9827 101.727 53.5921C102.42 55.6281 103.09 55.855 105.239 55.2741C105.603 55.1773 105.969 55.0926 106.396 54.9898C104.507 50.4006 102.651 45.884 100.794 41.3704C99.7315 38.79 99.7315 38.8505 96.973 38.7809H96.97ZM99.0956 48.5401C97.948 48.5492 96.7974 48.5431 95.4378 48.5431C96.1766 46.6887 96.8367 45.0279 97.6664 42.9465C98.4537 44.8494 99.132 46.4104 99.7376 47.9986C99.9344 48.5159 99.4469 48.5371 99.0956 48.5401Z" fill="#FDCF39"/>
<path d="M112.071 33.9736C112.419 33.0207 112.661 31.968 113.403 31.1844C115.423 31.2026 117.439 31.2207 119.459 31.2389C119.629 31.6533 119.813 32.0617 119.968 32.4822C121.012 35.3289 121.009 35.3017 124.019 35.1928C125.046 35.1565 125.182 34.9175 124.767 33.9404C122.941 29.6265 121.224 25.2642 119.441 20.9321C118.451 18.5301 118.426 18.5937 115.837 18.515C114.735 18.4817 114.142 18.748 113.712 19.8491C112.037 24.1267 110.266 28.368 108.488 32.6063C107.401 35.2019 107.368 35.1444 110.205 35.1988C111.205 35.217 111.71 34.9689 112.071 33.9706V33.9736ZM116.343 22.596C117.106 24.4232 117.775 26.0084 118.426 27.5996C118.696 28.2591 118.208 28.2258 117.8 28.2258C116.643 28.2319 115.489 28.2258 114.06 28.2258C114.832 26.32 115.526 24.6077 116.34 22.596H116.343Z" fill="#FDCF39"/>
<path d="M172.379 32.9725C170.786 29.0973 169.166 25.2372 167.586 21.3559C166.341 18.3005 166.359 18.3035 163.013 18.5273C162.511 18.5606 162.202 18.6574 161.993 19.1747C159.931 24.2237 157.842 29.2576 155.77 34.3036C155.658 34.5759 155.328 34.9147 155.895 35.1567C157.36 35.789 159.592 34.9389 160.264 33.4535C160.594 32.7214 160.906 31.9833 161.227 31.2482C163.244 31.2542 165.263 31.2603 167.28 31.2663C168.515 33.8781 170.34 35.0821 172.755 34.8784C172.803 34.8754 172.848 34.8421 173 34.7755C172.797 34.1796 172.624 33.5624 172.379 32.9695V32.9725ZM162.275 27.6119C162.983 26.0419 163.413 24.3447 164.388 22.6991C165.151 24.5989 165.845 26.3262 166.608 28.223C165.215 28.223 163.979 28.223 162.741 28.223C162.305 28.223 162.051 28.105 162.272 27.6089L162.275 27.6119Z" fill="#FDCF39"/>
<path d="M141.666 52.3942C140.107 52.4728 138.541 52.4275 136.976 52.4033C135.365 52.3791 134.132 51.3807 133.621 49.8651C133.3 48.9183 133.382 48.4887 134.55 48.528C136.767 48.6036 138.992 48.4615 141.206 48.5825C142.575 48.6581 142.42 47.8957 142.484 47.0094C142.559 45.9536 142.223 45.5694 141.145 45.6601C140.095 45.7479 139.029 45.6783 137.969 45.6783C136.809 45.6783 135.647 45.6238 134.49 45.6934C133.318 45.763 133.242 45.1519 133.481 44.2897C133.899 42.7802 135.02 41.9029 136.694 41.8484C138.308 41.797 139.925 41.7758 141.536 41.8363C142.605 41.8787 142.562 41.192 142.438 40.5627C142.314 39.9305 143.089 38.793 141.581 38.8081C139.541 38.8293 137.497 38.7355 135.462 38.8656C133.318 39.0048 131.737 40.1543 130.596 41.9906C128.833 44.8222 129.103 47.8715 129.908 50.7999C130.511 52.9871 132.134 54.6661 134.541 55.0957C136.879 55.5101 139.268 55.3256 141.636 55.3921C142.896 55.4254 142.693 54.6298 142.684 53.8977C142.675 53.1868 142.95 52.3307 141.663 52.3942H141.666Z" fill="#FDCF39"/>
<path d="M85.639 34.8785C87.6193 34.8997 89.5996 34.936 91.5799 34.9179C92.0371 34.9148 93.0818 35.0933 92.6942 34.3279C92.3218 33.5928 93.3543 32.05 91.5496 32.0742C90.1386 32.0923 88.7306 32.053 87.3195 32.0651C85.4664 32.0802 84.1704 31.1666 83.5769 29.4725C83.262 28.5741 83.4346 28.1899 84.4671 28.2201C86.2779 28.2746 88.0916 28.2352 89.9054 28.2352C91.7283 28.2352 92.5731 27.3267 92.4399 25.5096C91.8948 24.9711 91.2165 25.2918 90.6019 25.2464C88.3127 25.0679 85.9872 25.5822 83.7192 24.9045C83.2801 23.7731 83.804 22.9533 84.5489 22.1607C85.3604 21.2955 86.4505 21.7493 87.3831 21.48C88.8365 21.4861 90.29 21.4982 91.7404 21.5012C92.1885 21.5012 92.7487 21.5526 92.7306 20.8992C92.7094 20.1338 93.0334 19.3231 92.5065 18.6031C90.2446 18.5789 87.9735 18.4397 85.7207 18.5759C84.6427 18.6424 83.4497 18.706 82.514 19.5379C79.4406 22.2726 78.6836 25.6366 79.6677 29.5209C80.4459 32.6036 82.6231 34.8452 85.639 34.8785Z" fill="#FDCF39"/>
<path d="M132.204 33.4747C132.119 29.5148 132.18 25.5518 132.183 21.5888C133.951 21.2409 135.78 21.852 137.536 21.2621C137.57 20.9626 137.582 20.6631 137.636 20.3667C137.903 18.8813 137.379 18.3973 135.804 18.4638C132.483 18.603 129.149 18.5062 125.821 18.5062C124.079 18.5062 123.3 19.4238 123.483 21.2591C125.149 21.7855 126.866 21.3347 128.546 21.5253L128.57 21.5586C128.573 25.6123 128.567 29.6691 128.595 33.7228C128.598 34.1796 128.331 34.7271 128.855 35.0992C129.406 35.1234 129.963 35.0902 130.502 35.1809C131.916 35.4169 132.231 34.8088 132.204 33.4717V33.4747Z" fill="#FDCF39"/>
<path d="M105.212 32.0468C103.771 32.2041 102.296 32.1285 100.846 31.8592C99.7161 31.6505 99.0409 31.0213 98.9077 29.8717C98.8441 29.3241 98.838 28.7675 98.8077 28.2169C98.8077 26.8132 98.8017 25.4065 98.7987 24.0029C98.8229 23.903 98.8471 23.8002 98.8713 23.7003C98.9379 23.661 99.0046 23.6247 99.0712 23.5854C99.0046 23.5158 98.9379 23.4462 98.8713 23.3736C98.8471 23.2738 98.8229 23.174 98.7987 23.0741C98.7502 21.5797 99.2105 20.058 98.5685 18.5939C97.9145 18.5757 97.2513 18.6181 96.6094 18.5273C95.4648 18.3639 95.1681 18.8026 95.1983 19.928C95.2831 23.1982 95.2165 26.4684 95.2498 29.7386C95.2771 32.4219 97.6965 35.0962 100.228 35.0084C101.927 34.951 103.625 35.0024 105.324 34.9328C105.987 34.9056 106.914 34.9419 106.641 34.0343C106.429 33.3264 106.995 31.8441 105.206 32.0407L105.212 32.0468Z" fill="#FDCF39"/>
<path d="M143.063 28.828C144.222 28.828 145.382 28.8129 146.542 28.8311C148.798 28.8674 149.9 29.8173 150.036 32.0377C150.081 32.7486 150.36 33.387 150.375 34.0918C150.393 34.839 150.751 35.2868 151.62 35.1869C152.216 35.1174 152.828 35.1506 153.433 35.1809C154.06 35.2111 154.421 34.9994 154.312 34.3248C153.918 31.8744 154.351 29.0549 151.141 27.8327C153.642 26.9615 154.19 25.4308 154.236 23.1649C154.278 21.0624 153.01 19.2745 151.344 18.9387C150.115 18.6907 148.937 18.2762 147.568 18.4426C145.482 18.6937 143.332 18.6332 141.228 18.4668C139.605 18.3367 139.344 18.9418 139.384 20.3908C139.483 24.3145 139.423 28.2442 139.426 32.1708C139.426 34.4458 140.531 35.32 142.742 34.7937C143.193 34.6424 143.384 34.3369 143.244 33.874C142.748 32.2071 143.072 30.513 143.063 28.828ZM143.081 21.4587C144.035 21.3014 144.991 21.2076 145.945 21.2046C144.991 21.2076 144.038 21.3014 143.081 21.4587C144.988 21.4708 146.896 21.4829 148.804 21.495C150.206 21.8066 150.445 22.8261 150.315 24.0301C150.181 25.2674 149.324 25.7303 148.213 25.7605C146.651 25.8059 145.088 25.7787 143.526 25.7787C143.162 25.7787 142.742 25.7696 142.787 25.2734C142.902 24.0029 142.408 22.6839 143.084 21.4587H143.081Z" fill="#FDCF39"/>
</svg>
