<svg width="175" height="70" viewBox="0 0 175 70" fill="none" xmlns="http://www.w3.org/2000/svg">
<path d="M36.5604 31.6753C37.5073 31.6368 38.4542 31.7042 39.4043 31.6849C41.1936 31.6496 42.983 31.6721 44.7723 31.6785C45.1175 31.6785 45.2885 31.5597 45.2347 31.2003C45.2188 31.0976 45.222 30.9917 45.2157 30.8889L45.2093 30.7413C45.2093 30.6867 45.2093 30.629 45.2093 30.5744C45.2093 30.3176 45.2093 30.0609 45.2093 29.8041C45.2093 29.7495 45.2093 29.6918 45.2093 29.6372C45.2093 29.5859 45.2125 29.5377 45.2157 29.4864C45.2663 29.2424 45.2157 29.1108 44.918 29.0691C44.4429 29.0049 43.9711 28.9183 43.4897 28.9632C43.4643 28.9472 43.439 28.9472 43.4168 28.9632C42.7866 28.9568 42.1564 28.9343 41.5293 28.9472C39.55 28.9921 37.5706 28.8444 35.5945 29.0402C35.2809 29.0017 35.0403 29.1654 34.7996 29.3259C34.0237 29.5056 33.5359 30.0159 33.2129 30.7092C32.8994 31.0205 32.8139 31.4217 32.7664 31.8358C32.7885 32.253 32.6555 32.6542 32.665 33.0715C32.6872 34.1531 32.6967 35.2347 32.6745 36.3164C32.6524 37.4012 32.8202 38.4475 33.2383 39.4457C33.5264 40.1325 33.992 40.6878 34.7521 40.8964C35.2334 41.028 35.7338 41.0216 36.2279 40.9863C37.862 40.9895 39.4993 40.9959 41.1335 40.9991C42.1722 40.9991 43.2142 40.9991 44.2529 40.9991C45.1713 40.9991 45.1903 40.9767 45.1428 40.0587C45.1492 39.7378 45.165 39.4168 45.1587 39.0958C45.1397 38.2646 45.1365 38.2646 44.2941 38.2549C44.0946 38.1105 43.8697 38.1811 43.6544 38.1843C43.5752 38.1843 43.496 38.1843 43.4168 38.1843C43.3915 38.1843 43.363 38.1843 43.3377 38.1843C43.2585 38.1843 43.1793 38.1843 43.1001 38.1843C42.4414 38.1843 41.7827 38.1843 41.124 38.1811C40.9403 38.1811 40.7566 38.1811 40.5729 38.1811C39.284 38.1522 37.9919 38.149 36.7029 38.1875C36.5952 38.1875 36.4907 38.1875 36.383 38.1875C36.3577 38.1875 36.3324 38.1875 36.3039 38.1843C35.7718 38.0912 35.4646 37.5681 35.6198 37.0192C35.7116 36.6951 35.851 36.4126 36.2437 36.3773C36.5161 36.3549 36.7916 36.3131 37.0639 36.326C38.9514 36.4062 40.8421 36.2393 42.7296 36.3741C43.0146 36.3934 43.306 36.4062 43.5784 36.2939C43.6924 36.2489 43.8254 36.2169 43.8127 36.0371C43.781 35.5172 43.9394 35.0101 43.895 34.4869C43.876 34.2526 43.7969 34.0215 43.857 33.784C43.9267 33.524 43.7969 33.4695 43.5625 33.4727C42.6948 33.4823 41.8239 33.4887 40.9561 33.4727C40.3259 33.463 39.6988 33.4791 39.0654 33.4438C38.3054 33.402 37.5263 33.3218 36.7694 33.5497C36.4812 33.5689 36.1962 33.5754 35.9492 33.3956C35.7021 33.2159 35.5026 32.5836 35.5976 32.2723C35.6926 31.9642 36.1233 31.6913 36.5572 31.6753H36.5604Z" fill="#FDCF39"/>
<path d="M14.187 34.7113C14.187 34.7113 14.1901 34.7173 14.1932 34.7203C14.1932 34.7203 14.1932 34.7203 14.1963 34.7203L14.187 34.7083V34.7113Z" fill="#FDCF39"/>
<path d="M147.468 31.6721C147.794 31.7074 148.117 31.6561 148.437 31.5951C150.014 31.5951 151.594 31.6208 153.172 31.5951C154.096 31.579 155.021 31.7074 155.949 31.6047C156.148 31.5822 156.224 31.5309 156.221 31.3255C156.205 30.6739 156.205 30.0224 156.202 29.3708C156.202 29.2007 156.148 29.0852 155.958 29.0948C155.68 29.1141 155.414 29.0178 155.145 29.0146C152.75 29.0049 150.359 28.96 147.965 29.0146C147.386 28.9696 146.819 29.0595 146.258 29.1783C144.991 29.4414 144.016 30.5423 143.934 31.7491C143.706 31.9834 143.788 32.2627 143.813 32.5355C143.804 32.6254 143.782 32.7152 143.785 32.8083C143.82 34.4452 143.664 36.0821 143.918 37.7157C144.038 38.5021 144.171 39.2596 144.618 39.9368C145.032 40.5659 145.59 40.9863 146.366 40.9863C149.393 40.9863 152.424 40.9606 155.452 40.9446C156.186 40.9414 156.152 40.9382 156.199 40.1968C156.237 39.603 155.987 39.0156 156.177 38.4219C156.224 38.2774 156.088 38.271 155.977 38.2582C154.891 38.149 153.802 38.1619 152.712 38.194C151.237 38.1651 149.761 38.1651 148.285 38.2068C148.231 38.2068 148.18 38.2068 148.127 38.2068C148.076 38.1876 148.063 38.2197 148.047 38.255C147.889 38.255 147.734 38.255 147.576 38.255C147.085 38.2517 146.689 37.95 146.638 37.5071C146.578 36.9968 146.651 36.3549 147.262 36.2779C147.313 36.2779 147.363 36.2746 147.414 36.2714L147.579 36.2618L147.614 36.2714L147.648 36.2586C147.756 36.2586 147.867 36.2586 147.975 36.2586L148.009 36.2714L148.044 36.2586C148.127 36.2586 148.209 36.2586 148.288 36.2586L148.323 36.2714L148.358 36.2586C148.649 36.2586 148.937 36.2586 149.229 36.2586C150.793 36.265 152.361 36.2682 153.925 36.2746C154.175 36.2746 154.426 36.2811 154.676 36.2714C154.79 36.265 154.939 36.2458 154.91 36.0789C154.79 35.3407 154.932 34.596 154.847 33.8578C154.825 33.662 154.761 33.6267 154.587 33.6267C154.144 33.6267 153.697 33.5818 153.254 33.5754C151.465 33.5433 149.675 33.5625 147.886 33.5658C147.794 33.5625 147.702 33.5529 147.61 33.5529C146.686 33.5433 146.328 32.9142 146.768 32.0861C146.923 31.7909 147.116 31.6272 147.471 31.6657L147.468 31.6721Z" fill="#FDCF39"/>
<path d="M140.592 30.9113C140.431 29.8105 140.07 29.2359 139.053 28.9599C137.983 28.6679 136.874 28.6999 135.782 28.7994C135.158 28.8572 134.515 29.0177 134.068 29.5184C133.711 29.9164 133.425 29.9035 133.033 29.5376C132.624 29.1557 132.146 28.9696 131.63 28.8636C130.67 28.6646 129.682 28.6903 128.729 28.8123C127.06 29.0273 126.715 29.6821 126.572 30.8985C126.465 31.8261 126.556 32.7729 126.56 33.7133C126.556 36.098 126.55 38.486 126.544 40.8707C126.544 41.1595 126.718 41.2141 126.955 41.2173C127.544 41.2237 128.137 41.2077 128.726 41.2494C129.023 41.2687 129.109 41.1435 129.163 40.8996C129.258 40.4502 129.226 39.9945 129.226 39.5419C129.226 37.6258 129.226 35.7097 129.226 33.7936C129.226 33.2961 129.223 32.8018 129.22 32.3043C129.22 32.2786 129.22 32.253 129.22 32.2273C129.255 31.9769 129.476 31.9256 129.657 31.8357C130.227 31.5565 130.848 31.6431 131.433 31.7041C132.051 31.7651 132.228 32.0572 132.232 32.6638C132.232 33.0393 132.241 33.418 132.247 33.7936C132.241 33.8834 132.228 33.9765 132.228 34.0664C132.222 35.8124 132.216 37.5616 132.216 39.3076C132.216 39.5772 132.175 39.8885 132.602 39.8885C133.299 39.8853 133.996 39.8853 134.692 39.8821C134.889 39.8821 135.003 39.8147 135.003 39.5836C134.993 37.6033 134.99 35.6198 134.987 33.6395C134.993 33.1966 135.022 32.7536 134.999 32.3139C134.987 32.0411 135.098 31.9095 135.335 31.8293C136.035 31.5918 136.738 31.611 137.438 31.8068C137.638 31.8614 137.875 31.9416 137.866 32.2337C137.885 32.253 137.907 32.2754 137.926 32.2947C137.938 32.4873 137.954 32.6766 137.967 32.8692C137.967 32.9141 137.964 32.9591 137.961 33.004C137.961 33.0874 137.961 33.1709 137.964 33.2543C137.945 33.2768 137.945 33.2961 137.964 33.3185C137.964 33.4245 137.964 33.5304 137.967 33.6363C137.961 33.662 137.945 33.6876 137.945 33.7101C137.935 36.0724 137.929 38.4378 137.919 40.8001C137.919 41.0665 138.068 41.1274 138.315 41.1692C138.942 41.2815 139.569 41.1628 140.193 41.2141C140.529 41.243 140.614 41.1082 140.627 40.7872C140.656 39.9174 140.621 39.0476 140.662 38.1778C140.738 36.5634 140.678 34.9426 140.675 33.3217C140.747 32.5161 140.703 31.7041 140.586 30.9113H140.592Z" fill="#FDCF39"/>
<path d="M91.3181 29.0917C90.501 28.9312 89.6776 29.0018 88.8542 29.0243C88.2462 29.0083 88.1195 29.0789 87.92 29.5571C87.0997 30.3884 86.517 31.409 85.7284 32.2692C85.4751 32.542 85.3167 32.5645 85.0539 32.3815C85.0539 32.3302 85.0697 32.2596 85.0444 32.2275C84.6073 31.7236 84.1671 31.2261 83.7238 30.7286C83.4134 30.2889 83.0492 29.8877 82.723 29.4608C82.4506 29.1013 82.1371 28.9729 81.6969 28.989C81.016 29.0147 80.3288 28.989 79.6479 28.989C79.4769 28.989 79.3027 28.989 79.138 29.0275C79.0525 29.0468 78.8562 29.1174 78.9828 29.2522C79.2742 29.5667 79.404 30.0032 79.7746 30.2504C80.0184 30.7671 80.3985 31.1908 80.7405 31.6369C81.6937 32.8726 82.6692 34.0922 83.5876 35.3536C83.7713 35.6072 83.9106 35.8864 83.8884 36.217C83.7491 37.6613 83.8884 39.1088 83.8378 40.5563C83.8283 40.8003 83.9043 40.996 84.202 40.9992C84.9525 40.9992 85.6999 41.0025 86.4505 40.9992C86.7039 40.9992 86.8654 40.8933 86.8622 40.6013C86.8559 39.3495 86.8622 38.0978 86.8622 36.846C86.8654 36.6374 86.8907 36.4288 86.8717 36.2202C86.8242 35.7227 87.0047 35.3215 87.3246 34.9556C87.5083 34.7438 87.6951 34.5287 87.8598 34.3041C89.0411 32.6704 90.3712 31.1458 91.4828 29.4608C91.695 29.1431 91.5366 29.1334 91.3149 29.0917H91.3181Z" fill="#FDCF39"/>
<path d="M30.8763 29.6725C30.8415 29.0306 30.8637 29.0306 30.2335 29.0114C30.0371 29.005 29.8408 28.9825 29.6444 28.9825C26.0119 28.9696 22.3826 28.9568 18.7501 28.944C18.3447 28.944 17.9393 28.944 17.534 29.005C17.3851 29.0274 17.3313 29.0756 17.3313 29.22C17.3313 29.9518 17.3313 30.6804 17.3281 31.4121C17.3281 31.5887 17.4041 31.6753 17.591 31.6721C18.8008 31.6529 20.0105 31.7203 21.2203 31.6336L21.2551 31.6464L21.29 31.6336C21.5908 31.6432 21.8949 31.6593 22.1957 31.6593C22.4016 31.6593 22.5536 31.7267 22.6486 31.9096C22.7278 33.723 22.7056 35.5365 22.7151 37.3467C22.7214 38.4026 22.7151 39.4586 22.7151 40.5177C22.7151 40.7584 22.7119 41.0441 23.0381 41.0216C23.9281 40.9606 24.818 41.0248 25.7079 40.9992C25.9201 40.9927 26.0341 40.9029 26.0372 40.6654C26.0499 39.8726 26.0911 39.0798 26.0942 38.2871C26.1037 36.5539 26.0942 34.8175 26.0942 33.0843C26.0942 32.7441 26.0911 32.4039 26.0879 32.0637C26.0816 32.0155 26.0752 31.9674 26.0689 31.9193C26.0816 31.8839 26.0974 31.8486 26.1101 31.8133C26.1608 31.8165 26.1829 31.8005 26.1671 31.7459C26.2969 31.6689 26.4394 31.6689 26.5851 31.6721C27.0855 31.6721 27.5859 31.6593 28.0863 31.6753C28.9477 31.7042 29.8154 31.5887 30.6737 31.7459C30.851 31.778 30.9714 31.6657 30.927 31.4924C30.7655 30.8858 30.9112 30.2792 30.8795 29.6725H30.8763Z" fill="#FDCF39"/>
<path d="M60.424 37.1412C60.1073 36.4607 59.7716 35.7867 59.4581 35.1031C58.7297 33.5207 58.0203 31.9288 57.276 30.3561C57.1335 30.0512 56.934 29.7431 56.6142 29.5601C56.5952 29.4767 56.5287 29.4349 56.459 29.3964C56.4495 29.3515 56.4305 29.3226 56.3798 29.3355C56.3101 29.3034 56.2405 29.2745 56.174 29.236C55.5089 28.8476 54.8058 28.8476 54.0869 29.0273C53.7069 28.9535 53.577 29.2745 53.368 29.4735C53.3079 29.4927 53.235 29.4991 53.1907 29.5377C52.6776 29.9549 52.3831 30.5294 52.1012 31.1007C51.7561 31.7972 51.4235 32.5033 51.1227 33.2223C50.6983 34.2333 50.1219 35.1801 49.7007 36.1911C49.27 37.2278 48.7221 38.2132 48.3484 39.2755C48.1742 39.773 47.7752 40.1774 47.734 40.7455C47.7182 40.967 47.7594 41.0151 47.9589 41.0119C48.8931 41.0055 49.8242 41.0055 50.7585 40.9959C50.9992 40.9959 51.2493 41.0055 51.3317 40.6685C51.6737 39.2852 52.3989 38.0527 52.9437 36.7496C53.4757 35.4754 54.0204 34.2012 54.581 32.9366C54.4733 32.9141 54.3878 32.8885 54.3245 32.8596C54.3878 32.8917 54.4733 32.9141 54.581 32.9366C54.6665 32.7954 54.7647 32.6702 54.9578 32.6863C55.0782 32.6991 55.1574 32.728 55.2017 32.8788C55.4424 33.7197 55.8984 34.474 56.231 35.2764C56.706 36.4222 57.2412 37.5456 57.7226 38.6914C58.0108 39.3782 58.318 40.0522 58.6505 40.7166C58.774 40.967 58.9387 41.0793 59.2491 41.0889C59.8793 41.105 60.5 40.9959 61.1271 41.0023C61.3994 41.0023 61.6559 40.9638 61.8998 40.8739C61.5863 39.7024 61.0352 38.6561 60.576 37.5712C60.5158 37.43 60.4937 37.276 60.4303 37.1379L60.424 37.1412Z" fill="#FDCF39"/>
<path d="M172.949 36.6469C172.743 35.01 171.39 34.0279 169.855 33.9444C169.82 33.8738 169.763 33.8706 169.696 33.8866C169.642 33.8866 169.588 33.8866 169.535 33.8866C168.056 33.5946 166.593 33.9412 165.12 33.9733C165.05 33.9605 164.981 33.9508 164.924 34.0022C164.889 33.954 164.844 33.9573 164.797 33.9701C164.547 33.9605 164.3 33.9508 164.049 33.9412C163.511 33.9155 163.058 33.739 162.65 33.3603C162.222 32.9623 162.403 31.9737 163.058 31.8197C163.473 31.7234 163.901 31.6785 164.331 31.6752C165.934 31.6752 167.539 31.6656 169.142 31.6624L169.18 31.672L169.218 31.6624C169.509 31.6624 169.801 31.6624 170.092 31.6624L170.13 31.672L170.168 31.6624C170.957 31.733 171.742 31.5886 172.531 31.6303C172.724 31.6399 172.778 31.5469 172.778 31.3703C172.778 30.6931 172.79 30.0127 172.8 29.3355C172.8 29.1814 172.759 29.0723 172.581 29.0915C172.094 29.1429 171.622 28.992 171.134 29.0017C168.718 29.0466 166.304 28.9375 163.888 29.0723C163.023 29.1204 162.222 29.2937 161.456 29.6821C160.382 30.2245 159.825 31.3928 159.85 32.3043C159.856 32.3236 159.863 32.3396 159.863 32.3589C159.863 32.3396 159.853 32.3236 159.85 32.3043C159.831 32.3268 159.828 32.3525 159.841 32.3781C159.841 32.5643 159.841 32.7472 159.841 32.9334C159.841 32.9815 159.841 33.0329 159.844 33.081C159.844 33.1388 159.85 33.1934 159.853 33.2512C159.853 33.2993 159.86 33.3442 159.863 33.3924C159.844 34.3841 160.284 35.1384 161.098 35.6808C162.057 36.3195 163.141 36.3356 164.24 36.2585C164.357 36.1687 164.449 36.0563 164.528 35.9376C164.449 36.0563 164.36 36.1687 164.24 36.2585C165.744 36.2649 167.245 36.2682 168.749 36.2746C169.703 36.3773 170.358 36.9261 170.26 37.8601C170.209 38.3576 169.861 38.7203 169.341 38.6432C168.882 38.5726 168.429 38.6112 167.977 38.6465C167.935 38.6112 167.894 38.6112 167.853 38.6465C166.992 38.6593 166.133 38.6753 165.272 38.6882C164.825 38.7427 165.101 39.0798 165.038 39.2852C165.028 39.6992 165.019 40.11 165.009 40.5241C165.003 40.7359 165.129 40.8514 165.307 40.9285C165.319 40.9734 165.338 40.9509 165.357 40.9349C166.507 41.0312 167.657 40.9895 168.806 40.9381C168.844 40.9734 168.882 40.9702 168.917 40.9381C170.545 41.2334 171.619 40.6813 172.477 39.3269C172.987 38.5213 173.072 37.6194 172.952 36.6597L172.949 36.6469Z" fill="#FDCF39"/>
<path d="M122.899 37.6291C122.911 37.5777 122.88 37.5617 122.842 37.5456C122.215 35.9312 121.432 34.3874 120.713 32.8179C120.356 32.038 119.963 31.2709 119.583 30.5006C119.345 29.9871 119.019 29.5474 118.493 29.3002C117.011 28.5973 115.586 29.1333 114.772 30.5744C114.598 30.7221 114.49 30.9147 114.405 31.1169C113.958 32.1535 113.483 33.1774 113.005 34.2013C112.856 34.519 112.581 34.8079 112.65 35.2059C112.451 35.5557 112.258 35.9056 112.153 36.2971C111.963 36.3998 111.998 36.6117 111.925 36.7689C111.846 36.7914 111.846 36.8588 111.833 36.9198C111.726 37.0321 111.669 37.1605 111.691 37.3178C111.577 37.3595 111.545 37.4494 111.545 37.5585C111.235 37.8698 111.19 38.3159 111.023 38.6915C110.769 39.2499 110.481 39.7924 110.228 40.3508C109.99 40.8772 110.06 41.0922 110.646 41.0794C111.444 41.0633 112.239 40.9767 113.04 41.012C113.144 41.0184 113.249 41.012 113.357 41.012C113.458 41.012 113.556 40.9703 113.572 40.874C113.648 40.4246 113.949 40.0523 113.996 39.5966C114.069 39.465 114.158 39.3398 114.212 39.2018C114.848 37.5713 115.643 36.005 116.324 34.3938C116.527 33.9124 116.777 33.4534 116.929 32.9463C116.995 32.7281 117.17 32.574 117.442 32.6286C117.527 32.8404 117.607 33.0554 117.702 33.2641C118.148 34.259 118.601 35.254 119.051 36.249C119.421 37.077 119.789 37.9083 120.156 38.7364C120.156 38.7621 120.159 38.7845 120.172 38.807C120.162 38.8584 120.188 38.8808 120.235 38.8905C120.238 38.9161 120.248 38.9418 120.261 38.9643C120.28 38.9932 120.295 39.0221 120.314 39.0542C120.508 39.5388 120.723 40.0138 120.888 40.5049C121.021 40.9029 121.268 41.0794 121.679 41.0794C122.455 41.0794 123.234 41.0601 124.01 41.089C124.4 41.1019 124.39 40.9542 124.27 40.6846C123.817 39.6672 123.364 38.6465 122.911 37.6291H122.899Z" fill="#FDCF39"/>
<path d="M77.4492 31.3414C77.3827 30.9145 77.2212 30.5133 76.8538 30.2373C76.648 29.8457 76.2806 29.6532 75.9006 29.4798C75.8721 29.4606 75.8467 29.4381 75.8182 29.4189C75.7486 29.3836 75.6789 29.3483 75.6092 29.313C75.3812 28.992 75.036 29.0337 74.7098 29.0305C74.4628 29.008 74.2158 28.9631 73.9687 28.9631C71.7392 28.9599 69.5128 28.9631 67.2833 28.9631C66.5201 28.8893 65.7632 29.0177 65.0031 29.0145C64.8131 29.0145 64.7529 29.114 64.7497 29.2841C64.7466 29.65 64.7276 30.0126 64.7244 30.3785C64.7244 33.6812 64.7244 36.9839 64.7244 40.2865C64.7244 40.3732 64.6737 40.4598 64.6769 40.5433C64.6959 40.8097 64.7751 41.0279 65.1139 40.9958C65.2311 40.9862 65.3515 40.9958 65.4686 40.9958C68.3379 40.9958 71.204 40.9894 74.0732 40.9894C74.3614 40.9926 74.6528 41.0183 74.9378 40.9958C75.6314 40.9413 76.2426 40.7038 76.7081 40.1581C77.4334 39.3076 77.6582 38.3222 77.5347 37.2374C77.5632 37.0994 77.6171 36.9614 77.6139 36.8234C77.5854 34.9939 77.7311 33.158 77.446 31.3414H77.4492ZM74.6496 36.8458C74.6496 36.8972 74.6496 36.9518 74.6465 37.0031C74.6085 37.0769 74.5293 37.1347 74.542 37.2342C74.4501 37.3176 74.3931 37.4236 74.3804 37.5455C74.3044 37.6226 74.2284 37.6996 74.1493 37.7766C73.1738 38.0879 72.1667 38.0366 71.1628 38.0462C70.2571 38.0559 69.3545 38.0783 68.4487 38.104C68.1162 38.1136 67.999 37.9852 67.9864 37.645C67.9579 36.8426 67.9452 36.037 67.9389 35.2378C67.9262 34.0984 67.9769 32.9558 67.9959 31.8132C67.9959 31.7426 68.0497 31.672 68.0782 31.6014C69.5033 31.7587 70.9348 31.6142 72.3599 31.6848C73.0218 31.7169 73.7502 31.7362 74.2221 32.2754C74.6433 32.7568 74.789 33.3891 74.8523 34.0246C74.865 34.153 74.865 34.2846 74.8682 34.4162C74.979 34.8495 74.9537 35.2892 74.8872 35.7225C74.8681 35.838 74.8492 35.9472 74.865 36.0659C74.8998 36.358 74.694 36.5827 74.6401 36.849L74.6496 36.8458Z" fill="#FDCF39"/>
<path d="M14.253 34.8205C14.234 34.7852 14.2118 34.7531 14.1928 34.7178C13.8508 34.5445 13.6069 34.2267 13.2332 34.0984C12.489 33.8448 11.7099 33.848 10.9403 33.7902C9.91107 33.7132 8.88181 33.8512 7.85255 33.8833C7.82721 33.8705 7.80504 33.8737 7.77971 33.8833C7.59286 33.8897 7.40284 33.8962 7.21599 33.9026C7.19382 33.8865 7.17482 33.8897 7.15582 33.909C7.07031 33.909 6.98164 33.909 6.89613 33.9058C6.85179 33.9058 6.81062 33.9058 6.76628 33.9058C6.70611 33.9026 6.64594 33.8962 6.58577 33.8929C6.53826 33.8929 6.49076 33.8929 6.44325 33.8929L6.11706 33.8865C6.06639 33.8865 6.01572 33.8865 5.96505 33.8833C5.89854 33.8769 5.8352 33.8705 5.76869 33.8641C5.25881 33.8223 4.95795 33.4661 4.71727 33.0905C4.50191 32.7535 4.65393 32.3844 4.88195 32.0988C5.13847 31.781 5.51534 31.6687 5.92704 31.6655C8.04573 31.6655 10.1613 31.6527 12.2799 31.6462C13.0527 31.6527 13.8254 31.6527 14.5982 31.6719C14.918 31.6783 15.0225 31.4697 15.032 31.2386C15.0574 30.6416 15.0637 30.0414 15.032 29.4445C15.0225 29.2808 15.032 29.008 14.7122 29.0015C14.1643 28.9887 13.6196 28.886 13.0685 28.9534C10.6458 28.9534 8.22308 28.8764 5.80353 29.0208C5.4615 28.9823 5.14797 29.0625 4.85661 29.2423C4.06171 29.3225 3.45999 29.7686 2.88043 30.2565C2.35472 30.6898 2.1172 31.2643 2.01902 31.9094C2.01586 32.4775 1.97785 33.052 2.01902 33.6169C2.08236 34.5124 2.68408 35.5651 3.73551 35.9086C3.82102 36.0241 3.95403 35.9728 4.06487 35.9984L4.08388 36.0081L4.09971 35.9952C4.42591 36.313 4.83761 36.2969 5.24931 36.2777C5.61668 36.2841 5.98405 36.2905 6.35141 36.2969C6.36091 36.3162 6.37041 36.3322 6.38308 36.3515C6.40208 36.3354 6.42425 36.3162 6.44325 36.3001C6.83596 36.2969 7.22866 36.2905 7.62136 36.2873C7.6467 36.2873 7.67203 36.2873 7.70053 36.2873C7.75437 36.2873 7.80821 36.2873 7.86205 36.2873C8.0204 36.2873 8.17558 36.2873 8.33393 36.2873C9.23651 36.3386 10.1391 36.2616 11.0417 36.3675C11.8144 36.4574 12.2134 36.6243 12.3528 37.3079C12.3971 37.5326 12.3591 37.7733 12.3686 38.0076C12.375 38.2355 12.2831 38.3799 12.0519 38.4249C11.5706 38.4473 11.086 38.4794 10.6046 38.4891C9.60071 38.5083 8.59362 38.4056 7.59286 38.6367C7.36484 38.6881 7.25083 38.794 7.24766 38.9577C7.23816 39.5643 7.16532 40.1741 7.30467 40.7775C7.34267 40.9444 7.41551 40.9957 7.56752 40.9925C8.59045 40.9669 9.61337 41.0214 10.6363 40.9508C11.1335 41.0246 11.6371 41.0375 12.1279 40.9893C12.5966 40.9444 13.1097 40.9508 13.5024 40.6587C14.1516 40.1741 14.6995 39.5803 14.975 38.81C15.3836 37.6706 15.2696 36.5408 14.7913 35.44C14.6995 35.1607 14.4715 35.0035 14.2625 34.8237L14.253 34.8205Z" fill="#FDCF39"/>
<path d="M106.867 35.6165C106.056 35.5876 105.245 35.5106 104.438 35.6679C104.289 35.6968 104.184 35.7321 104.184 35.899C104.191 36.3291 104.004 36.7303 103.96 37.1475C103.915 37.5744 103.665 37.799 103.32 37.9403C102.674 38.2067 101.993 38.3768 101.293 38.4024C100.46 38.4345 99.6303 38.2997 98.8133 38.1585C98.2844 38.0654 97.8188 37.8023 97.5053 37.2919C97.2583 36.8907 97.3628 36.4607 97.2424 36.0627C97.2583 35.3052 97.2741 34.5477 97.2868 33.7903C97.347 33.5431 97.3881 33.2896 97.4673 33.0457C97.632 32.5353 97.9835 32.1502 98.4871 32.0058C99.1743 31.81 99.89 31.749 100.612 31.7522C102.614 31.7618 104.615 31.7618 106.617 31.7618C107.184 31.7618 107.171 31.7522 107.196 31.1648C107.222 30.5486 106.962 29.9356 107.171 29.3161C107.215 29.1877 107.108 29.0882 106.965 29.0979C106.556 29.1235 106.157 29.0176 105.755 29.0176C103.187 29.0112 100.622 29.0112 98.0532 29.0176C97.6763 29.0176 97.2836 29.0112 96.9257 29.1075C95.4404 29.5055 94.4429 30.5646 94.3194 32.2272C94.3194 32.2754 94.3257 32.3267 94.3289 32.3749C94.3257 32.4294 94.3225 32.484 94.3194 32.5385C94.3194 32.5899 94.3194 32.6412 94.3194 32.6894C94.3194 32.821 94.3162 32.9526 94.313 33.0842C94.2877 34.2846 94.2623 35.4881 94.3035 36.6885C94.2972 37.706 94.1958 38.7362 94.8641 39.6285C95.4373 40.3924 96.1118 40.9541 97.1506 40.9476C99.5448 40.9316 101.939 40.9412 104.333 40.938C105.277 40.938 105.942 40.4245 106.408 39.6895C106.965 38.8069 107.158 37.7926 107.222 36.7591C107.228 36.711 107.231 36.6629 107.237 36.6147V36.451C107.237 36.3997 107.237 36.3515 107.241 36.3002C107.241 36.2456 107.241 36.191 107.241 36.1365C107.26 35.8605 107.358 35.5331 106.867 35.6133V35.6165Z" fill="#FDCF39"/>
<path d="M137.927 32.2876C137.909 32.2686 137.887 32.2464 137.868 32.2273C137.858 32.2749 137.88 32.294 137.927 32.2876Z" fill="#FDCF39"/>
</svg>
