<svg width="175" height="70" viewBox="0 0 175 70" fill="none" xmlns="http://www.w3.org/2000/svg">
<path d="M45.5886 13.2126H2.00049C1.9949 14.1589 2.03775 15.1033 2.08618 16.0478C2.12158 16.7277 2.18119 17.4058 2.22589 18.0838C2.2706 18.7563 2.35815 19.4251 2.42894 20.0938C2.50718 20.852 2.62267 21.6064 2.75493 22.3571C2.84435 22.8638 2.93004 23.3724 3.03436 23.8772C3.22809 24.8105 3.45349 25.7381 3.68262 26.6658C3.94341 27.722 4.23587 28.7708 4.57304 29.8047C5.00708 31.1366 5.46906 32.4573 5.99437 33.7576C7.28531 36.956 8.87988 39.9961 10.7483 42.8947C11.0706 43.3958 11.4152 43.8801 11.7468 44.3738C12.6726 45.7523 13.6897 47.0599 14.7515 48.3341C15.5357 49.2748 16.3572 50.182 17.2067 51.065C18.0524 51.9443 18.9093 52.8123 19.8128 53.632C20.4051 54.1703 20.9845 54.7236 21.616 55.221C22.3033 55.763 22.974 56.3275 23.6669 56.8621C23.775 56.9459 23.8551 56.9347 23.9538 56.8546C24.2574 56.6088 24.5667 56.3684 24.8684 56.1207C25.4385 55.6531 26.0308 55.2154 26.5785 54.7217C27.1467 54.2113 27.7204 53.7083 28.283 53.1905C28.8437 52.6726 29.4212 52.1678 29.9372 51.6071C30.4643 51.0333 30.9803 50.4503 31.5168 49.8858C31.7497 49.64 31.9937 49.3903 32.193 49.1277C32.4985 48.7234 32.8786 48.3881 33.1692 47.9709C33.6088 47.3412 34.1266 46.7712 34.5737 46.1453C34.9947 45.5585 35.453 44.9978 35.8498 44.3943C36.3192 43.6808 36.7849 42.9636 37.245 42.2446C38.0199 41.0337 38.7129 39.7782 39.3872 38.5115C39.9666 37.4236 40.4714 36.2985 41.0042 35.1882C41.0638 35.0634 41.0433 35.0243 40.9054 35.0261C40.5571 35.028 40.2087 35.0206 39.8585 35.0206C32.0198 35.0206 24.1829 35.0187 16.3442 35.0168C16.292 35.0168 16.2287 34.9908 16.1952 35.0466C16.1598 35.1063 16.1952 35.1621 16.2361 35.2106C16.4112 35.4211 16.5435 35.6707 16.6571 35.9073C16.9123 36.4326 17.2421 36.9095 17.5289 37.4124C17.8568 37.9843 18.2405 38.5227 18.6019 39.0741C18.7342 39.2771 18.8907 39.4261 19.1719 39.3926C19.4178 39.3646 19.6675 39.3758 19.9152 39.3758C24.0637 39.3758 28.2103 39.3758 32.3588 39.3758C32.8618 39.3758 33.3666 39.4019 33.8696 39.3702C33.8845 39.4094 33.918 39.4075 33.9515 39.4038C33.9478 39.4541 33.9627 39.5025 33.9273 39.5547C33.6833 39.9235 33.4449 40.2942 33.2101 40.6668C32.9028 41.1567 32.5935 41.6522 32.2508 42.116C31.5876 43.012 30.9561 43.9304 30.2334 44.7836C29.777 45.3219 29.3318 45.8696 28.866 46.4005C28.3426 46.9966 27.8098 47.5853 27.2659 48.1627C26.2059 49.2879 25.0454 50.3106 23.9221 51.3724C23.8402 51.4487 23.788 51.4618 23.6949 51.3761C23.1509 50.8694 22.5995 50.3702 22.0388 49.8803C21.6346 49.5263 21.2974 49.096 20.8969 48.7384C20.5691 48.4459 20.2636 48.1292 19.9767 47.8051C19.6749 47.4642 19.3787 47.1084 19.0602 46.788C18.6504 46.3763 18.3374 45.8882 17.922 45.4803C17.5252 45.0891 17.2328 44.5992 16.8714 44.1707C16.156 43.3231 15.5488 42.3973 14.921 41.4901C14.4925 40.8698 14.0939 40.229 13.6934 39.5901C13.4326 39.1765 13.1867 38.7518 12.9464 38.3271C12.6484 37.8017 12.3596 37.2727 12.0709 36.7437C11.8604 36.3581 11.6313 35.9781 11.4617 35.5757C11.309 35.2124 11.1432 34.8529 10.9849 34.4915C10.7166 33.8805 10.3962 33.2919 10.1559 32.666C9.89139 31.9767 9.57285 31.308 9.33813 30.6057C9.12018 29.9537 8.90037 29.3036 8.68801 28.6497C8.50173 28.076 8.29495 27.5041 8.15152 26.9192C7.87768 25.8015 7.55169 24.6968 7.33374 23.5642C7.25364 23.1488 7.12138 22.7409 7.07853 22.3236C7.02265 21.7852 6.8997 21.2599 6.82333 20.7253C6.76744 20.3248 6.70597 19.9224 6.66126 19.5219C6.59606 18.9444 6.54949 18.3632 6.46567 17.7858C6.44518 17.6423 6.48616 17.5734 6.65008 17.5827C6.85872 17.5958 7.06922 17.5827 7.27785 17.5827C18.4808 17.5827 29.6838 17.5809 40.8868 17.5734C41.101 17.5734 41.1346 17.6442 41.101 17.8286C41.0023 18.367 40.9706 18.9165 40.8961 19.4586C40.7993 20.1497 40.7359 20.8445 40.6111 21.53C40.518 22.0516 40.4397 22.5751 40.3336 23.0948C40.138 24.0616 39.9163 25.0228 39.6778 25.9803C39.5922 26.3212 39.5884 26.3193 39.2326 26.3044C39.1246 26.3007 39.0165 26.2951 38.9066 26.2951C30.5258 26.2951 22.145 26.2951 13.7642 26.2951C13.4233 26.2951 13.0843 26.2858 12.7434 26.2802C12.7303 26.2187 12.6893 26.2299 12.6465 26.243C12.5291 26.2895 12.5254 26.4125 12.5645 26.4758C12.7583 26.7795 12.7937 27.1353 12.9129 27.4612C13.2184 28.2995 13.468 29.1601 13.8163 29.9835C13.8611 30.0878 13.9058 30.1921 13.9151 30.3114C13.9337 30.5423 14.0678 30.6541 14.3044 30.6597C14.4367 30.6634 14.5671 30.6672 14.6993 30.6672C23.2515 30.6672 31.8018 30.6672 40.354 30.6672C41.0899 30.6672 41.8275 30.6578 42.5633 30.656C42.6788 30.656 42.7552 30.6504 42.8018 30.507C43.4314 28.5696 43.9605 26.6062 44.387 24.6149C44.497 24.1007 44.551 23.5773 44.6888 23.0669C44.7224 22.9402 44.8136 22.821 44.7931 22.6794C44.7559 22.4316 44.8248 22.1951 44.8732 21.9566C44.944 21.6045 44.9925 21.2469 45.0483 20.8948C45.0949 20.6042 45.1452 20.3043 45.1638 20.0044C45.1881 19.5908 45.2924 19.1792 45.2961 18.7675C45.3017 18.298 45.3799 17.8379 45.4116 17.3704C45.4544 16.7184 45.5178 16.0664 45.5383 15.4107C45.5569 14.8015 45.5699 14.1905 45.5848 13.5814C45.7208 13.4994 45.5662 13.4249 45.5792 13.3448C45.5811 13.3001 45.583 13.2554 45.5848 13.2107L45.5886 13.2126Z" fill="#FDCF39"/>
<path d="M167.101 31.1719C166.888 31.1719 166.81 31.2278 166.819 31.4588C166.84 31.9971 166.836 32.5392 166.819 33.0776C166.814 33.2787 166.864 33.3402 167.073 33.3384C168.149 33.3253 169.224 33.3309 170.301 33.329C170.567 33.329 170.575 33.3328 170.476 33.5842C170.107 34.5175 169.399 35.0838 168.475 35.4154C168.028 35.5756 167.557 35.5924 167.091 35.652C167.06 35.6017 167.03 35.6035 166.998 35.652C166.629 35.6203 166.255 35.6184 165.892 35.5495C164.627 35.3092 163.701 34.5939 163.144 33.4427C162.703 32.5299 162.678 31.5463 162.876 30.5777C163.105 29.4656 164.107 28.1485 165.5 27.7648C166.249 27.558 166.998 27.5841 167.751 27.6996C168.27 27.7778 168.757 27.9865 169.176 28.2827C169.494 28.5081 169.791 28.7949 169.984 29.1563C170.035 29.2513 170.079 29.324 170.213 29.2402C170.793 28.8695 171.393 28.5323 171.998 28.2082C172.145 28.1299 172.134 28.0573 172.058 27.938C171.748 27.45 171.368 27.0253 170.918 26.6657C170.016 25.9467 168.999 25.5182 167.851 25.3487C167.054 25.2314 166.27 25.2388 165.489 25.3785C164.163 25.617 163.045 26.2522 162.108 27.2134C160.963 28.387 160.447 29.8232 160.352 31.429C160.324 31.9021 160.391 32.3697 160.475 32.8391C160.696 34.0611 161.248 35.1118 162.086 36.0115C162.984 36.9746 164.092 37.5912 165.387 37.8576C166.052 37.9954 166.713 38.0941 167.408 38.0308C168.021 37.9749 168.611 37.8482 169.187 37.6657C169.867 37.4515 170.498 37.1106 171.035 36.6411C172.106 35.7023 172.741 34.5231 172.909 33.1018C172.939 33.1167 172.97 33.1334 173 33.1483V31.2017C171.033 31.1495 169.068 31.1905 167.101 31.1738V31.1719Z" fill="#FDCF39"/>
<path d="M141.861 25.4753C141.14 25.4846 140.419 25.4846 139.698 25.4865C139.678 25.466 139.661 25.4716 139.644 25.4921C139.603 25.5256 139.551 25.5536 139.523 25.5945C139.303 25.9429 139.072 26.2857 138.873 26.647C138.48 27.3624 138.037 28.0479 137.616 28.7464C137.372 29.1507 137.113 29.5493 136.865 29.9517C136.626 30.3373 136.373 30.721 136.178 31.1308C136.09 31.3134 136.038 31.2724 135.958 31.129C135.859 30.9483 135.747 30.775 135.641 30.5999C135.024 29.5866 134.404 28.5751 133.789 27.5617C133.443 26.9917 133.091 26.4254 132.767 25.8423C132.629 25.5964 132.51 25.4511 132.18 25.4697C131.524 25.5089 130.863 25.4791 130.203 25.4809C130.122 25.4809 130.004 25.4511 130.027 25.6113C130.081 25.9727 130.041 26.3359 130.041 26.6973C130.041 29.6462 130.041 32.595 130.041 35.5439C129.935 35.6444 129.928 35.745 130.043 35.8456C130.043 35.9313 130.041 36.0152 130.04 36.1008C129.935 36.2033 129.928 36.3039 130.043 36.4026C130.058 36.8609 130.021 37.3191 130.067 37.7774C130.081 37.8165 130.086 37.8649 130.144 37.8649C130.19 37.8649 130.2 37.8295 130.209 37.7941C130.876 37.7941 131.543 37.783 132.21 37.7997C132.454 37.8053 132.498 37.7196 132.497 37.4961C132.485 35.039 132.485 32.582 132.484 30.1268C132.484 30.0709 132.439 29.9871 132.513 29.9629C132.603 29.933 132.62 30.0336 132.653 30.0877C132.834 30.3783 133.011 30.6726 133.184 30.9669C134.045 32.4143 134.967 33.8245 135.79 35.2924C135.844 35.3892 135.919 35.5234 136.062 35.5141C136.174 35.5066 136.293 35.4377 136.334 35.3352C136.474 34.985 136.708 34.6963 136.898 34.3777C137.668 33.0849 138.446 31.7977 139.227 30.5105C139.359 30.2926 139.51 30.0839 139.652 29.8716C139.665 29.879 139.678 29.8865 139.691 29.8939V30.0076C139.691 32.5335 139.693 35.0595 139.687 37.5874C139.687 37.7569 139.719 37.8109 139.898 37.8072C140.564 37.7923 141.231 37.7886 141.898 37.7979C142.081 37.7997 142.114 37.7401 142.114 37.5781C142.111 33.6307 142.111 29.6816 142.114 25.7343C142.114 25.5405 142.047 25.4753 141.859 25.4791L141.861 25.4753Z" fill="#FDCF39"/>
<path d="M116.843 31.1832C115.75 31.187 114.658 31.1777 113.565 31.1758C112.721 31.1758 111.875 31.1814 111.031 31.1814C110.901 31.1814 110.845 31.2112 110.849 31.3621C110.86 31.9638 110.856 32.5673 110.851 33.169C110.851 33.2957 110.879 33.3404 111.018 33.3385C112.119 33.3292 113.22 33.3292 114.321 33.3255C114.61 33.3255 114.625 33.3329 114.506 33.5993C114.109 34.4991 113.449 35.1119 112.503 35.4156C112.071 35.5553 111.624 35.5963 111.179 35.6503C111.117 35.5925 111.056 35.5869 110.992 35.6503C110.463 35.5814 109.927 35.6018 109.411 35.4211C108.437 35.0803 107.716 34.4488 107.233 33.5565C106.797 32.7517 106.736 31.8799 106.846 30.9839C106.985 29.8625 107.527 28.9795 108.429 28.3201C109.521 27.5228 110.748 27.4688 112.011 27.7612C112.863 27.9587 113.548 28.4319 114.053 29.1528C114.101 29.2236 114.131 29.2981 114.249 29.231C114.841 28.8827 115.437 28.5418 116.035 28.2009C116.152 28.1338 116.19 28.0742 116.102 27.9513C115.899 27.6681 115.7 27.3831 115.457 27.1316C114.461 26.0959 113.218 25.5408 111.816 25.3247C111.244 25.2371 110.668 25.2464 110.089 25.3079C108.723 25.4495 107.522 25.9189 106.507 26.8708C105.806 27.5284 105.255 28.2828 104.858 29.149C104.575 29.7656 104.456 30.4362 104.4 31.0994C104.338 31.8483 104.409 32.6008 104.616 33.3367C104.959 34.5549 105.599 35.5832 106.544 36.4196C107.308 37.0958 108.185 37.5671 109.182 37.8149C109.675 37.9378 110.176 38.0086 110.679 38.057C111.253 38.1111 111.823 37.9956 112.386 37.8894C113.036 37.7664 113.651 37.5541 114.222 37.1964C114.586 36.9692 114.951 36.7531 115.262 36.4625C116.15 35.6335 116.676 34.6071 116.897 33.4205C117.022 32.7517 117.007 32.0755 117.037 31.3993C117.045 31.2391 117.015 31.187 116.842 31.1888L116.843 31.1832Z" fill="#FDCF39"/>
<path d="M158.665 25.5035C158.676 25.4607 158.665 25.4439 158.621 25.4644C157.892 25.4718 157.166 25.4923 156.437 25.4812C156.219 25.4774 156.201 25.5575 156.206 25.7326C156.26 27.5843 156.231 29.4378 156.232 31.2894C156.232 31.8147 156.238 32.3382 156.24 32.8635C156.227 32.8784 156.214 32.8952 156.201 32.9101C156.137 32.884 156.082 32.8598 156.037 32.7964C155.603 32.1649 155.161 31.539 154.725 30.9094C154.347 30.3636 153.958 29.8252 153.58 29.2794C152.976 28.4095 152.347 27.5582 151.747 26.6827C151.48 26.2915 151.212 25.9022 150.905 25.5408C150.886 25.4905 150.873 25.4253 150.808 25.5054C150.329 25.4644 149.85 25.4961 149.37 25.4905C149.351 25.47 149.333 25.47 149.314 25.4905C149.271 25.4867 149.23 25.4812 149.187 25.4774C149.171 25.4849 149.152 25.4942 149.135 25.5016C149.09 25.5594 149.1 25.6302 149.083 25.6935C149.025 25.9357 149.09 26.176 149.09 26.4144C149.092 30.1307 149.09 33.8471 149.083 37.5615C149.083 37.7515 149.139 37.7981 149.32 37.7962C149.878 37.7869 150.435 37.8037 150.994 37.7869C151.164 37.7813 151.367 37.9397 151.49 37.7776C151.6 37.6323 151.534 37.4181 151.534 37.2337C151.531 34.9778 151.523 32.7219 151.518 30.4661C151.547 30.4605 151.577 30.4567 151.607 30.4512C151.693 30.4549 151.717 30.5294 151.754 30.5834C153.392 32.9194 155.029 35.2572 156.665 37.5951C156.756 37.7255 156.855 37.7925 157.02 37.7907C157.54 37.7832 158.06 37.7907 158.578 37.7925C158.647 37.8242 158.676 37.8056 158.66 37.7273C158.663 37.094 158.669 36.4625 158.669 35.8291C158.669 32.3866 158.665 28.946 158.663 25.5035H158.665Z" fill="#FDCF39"/>
<path d="M128.536 36.8685C128.316 36.3618 128.158 35.8271 127.968 35.3074C127.802 34.851 127.644 34.3928 127.469 33.9382C127.342 33.6067 127.191 33.2769 127.105 32.9379C126.964 32.3753 126.74 31.8426 126.56 31.2968C126.398 30.8031 126.196 30.3207 126.023 29.8289C125.772 29.1191 125.531 28.4075 125.285 27.6959C125.066 27.0663 124.844 26.4367 124.62 25.807C124.511 25.496 124.511 25.4885 124.158 25.4866C123.322 25.4829 122.486 25.4866 121.647 25.4866C121.629 25.4866 121.612 25.4904 121.593 25.4922C121.517 25.522 121.478 25.5705 121.45 25.6543C121.198 26.4572 120.902 27.2451 120.623 28.0387C119.84 30.261 119.071 32.4871 118.292 34.7095C118.071 35.3428 117.821 35.9669 117.607 36.6021C117.497 36.9318 117.409 37.2727 117.255 37.5838C117.165 37.7626 117.218 37.7868 117.38 37.7868C117.799 37.7868 118.216 37.7812 118.635 37.7924C118.941 37.8017 119.246 37.7607 119.555 37.8148C119.686 37.8371 119.827 37.7794 119.885 37.5801C120.047 37.0119 120.247 36.453 120.435 35.8923C120.548 35.5533 120.55 35.5608 120.895 35.5682C122.406 35.5999 123.916 35.5887 125.427 35.5719C125.576 35.5719 125.647 35.6111 125.697 35.7545C125.906 36.3655 126.127 36.9728 126.345 37.5819C126.379 37.6732 126.396 37.7868 126.53 37.7868C127.266 37.7868 128.001 37.7887 128.737 37.7887C128.847 37.7887 128.881 37.7198 128.825 37.6434C128.659 37.4087 128.644 37.1218 128.534 36.8647L128.536 36.8685ZM124.443 33.2993C123.452 33.2974 122.46 33.3012 121.469 33.303C121.455 33.3198 121.442 33.3272 121.433 33.3254C121.444 33.3254 121.455 33.3198 121.469 33.303C121.448 33.2993 121.428 33.2956 121.405 33.2937C121.34 33.2509 121.375 33.2024 121.394 33.1521C121.936 31.6451 122.411 30.1157 122.925 28.5994C122.951 28.5193 122.968 28.4336 123.069 28.3796C123.268 28.8062 123.4 29.2588 123.559 29.7003C123.944 30.7808 124.328 31.8593 124.71 32.9416C124.838 33.3049 124.831 33.2993 124.443 33.2993Z" fill="#FDCF39"/>
<path d="M76.3866 25.4792C75.7197 25.4904 75.0528 25.4866 74.3859 25.4885C74.3673 25.468 74.3487 25.468 74.3301 25.4885L74.2034 25.4755C74.1755 25.4419 74.155 25.4475 74.1419 25.4885C74.0842 25.5463 74.1028 25.6189 74.1028 25.686C74.1028 28.0965 74.1065 30.5069 74.1065 32.9174C74.1065 33.2341 74.114 33.5508 74.0953 33.8675C74.0655 34.3611 73.9109 34.8268 73.5104 35.1323C73.2031 35.367 72.8342 35.4956 72.4319 35.5775C71.9065 35.6837 71.4036 35.6632 70.9006 35.5421C70.1313 35.3559 69.5482 34.6014 69.5464 33.7948C69.5389 31.1217 69.5408 28.4485 69.5408 25.7754C69.5408 25.7065 69.5352 25.6357 69.5408 25.5667C69.5482 25.4699 69.5054 25.455 69.4178 25.4624C68.7379 25.5165 68.0542 25.4811 67.3724 25.4922C67.1675 25.496 67.1154 25.5407 67.1172 25.7474C67.1247 28.3815 67.1247 31.0174 67.121 33.6514C67.121 34.3853 67.2569 35.0857 67.5848 35.7452C67.8363 36.25 68.1884 36.6859 68.6298 37.0194C69.2017 37.4497 69.8444 37.7608 70.5597 37.9098C71.208 38.0458 71.8656 38.0923 72.512 38.0048C73.4527 37.8781 74.3208 37.5558 75.0752 36.9393C75.716 36.4158 76.1314 35.7582 76.3605 34.987C76.517 34.458 76.545 33.901 76.545 33.3477C76.545 31.0602 76.545 28.7745 76.545 26.487C76.545 26.202 76.5412 25.9151 76.545 25.6301C76.545 25.5109 76.5077 25.4773 76.381 25.4792H76.3866Z" fill="#FDCF39"/>
<path d="M86.5405 32.1183C86.1735 31.7588 85.7544 31.4737 85.2887 31.2502C84.6385 30.9391 83.9549 30.723 83.2694 30.5088C82.7236 30.3374 82.1796 30.1605 81.6785 29.8792C81.2557 29.6426 80.993 29.3054 81.0284 28.795C81.0638 28.2939 81.3376 27.9493 81.7866 27.7798C82.5317 27.4985 83.275 27.5618 83.9698 27.9493C84.4001 28.1896 84.6851 28.5789 84.9087 29.0111C84.9589 29.1098 84.9981 29.175 85.1285 29.0968C85.7115 28.7484 86.3002 28.4075 86.8888 28.0685C87.0174 27.994 87.0043 27.9139 86.941 27.8133C86.8627 27.6904 86.7826 27.5693 86.7044 27.4482C86.4213 27.0123 86.0971 26.6081 85.6854 26.2858C84.4597 25.3246 83.0607 25.0452 81.5705 25.3767C79.5083 25.835 78.2174 27.5208 78.7036 29.7655C78.8545 30.4585 79.2345 31.0024 79.8027 31.4272C80.5869 32.0102 81.496 32.3064 82.4143 32.5877C82.9825 32.7628 83.5637 32.9062 84.0871 33.1931C84.4653 33.3999 84.8192 33.6272 84.9031 34.1245C85.0167 34.7896 84.7335 35.2925 84.0816 35.4788C83.5861 35.6204 83.085 35.652 82.5708 35.6092C81.6059 35.5291 80.8663 35.1006 80.3876 34.2493C80.1082 33.7501 80.1044 33.7408 79.6332 34.0631C79.1674 34.3816 78.685 34.6685 78.1764 34.9162C78.1001 34.9535 78.0796 35.015 78.115 35.0895C78.3795 35.6353 78.6626 36.1643 79.1041 36.5984C80.1603 37.6359 81.4662 38.0066 82.731 38.042C83.7183 38.0327 84.5063 37.8874 85.2589 37.554C85.8494 37.2913 86.3691 36.9132 86.7305 36.399C87.023 35.9799 87.2782 35.5142 87.3285 34.9572C87.3657 34.525 87.3881 34.1115 87.3173 33.683C87.2185 33.0758 86.9764 32.5504 86.5368 32.1201L86.5405 32.1183Z" fill="#FDCF39"/>
<path d="M64.9677 27.4036C64.4796 26.6063 63.8016 26.0754 62.9596 25.7401C62.4473 25.5351 61.8959 25.4793 61.3426 25.4811C59.9008 25.4867 58.4609 25.4867 57.019 25.4811C56.8924 25.4811 56.8477 25.4942 56.8477 25.6376C56.8532 27.629 56.8514 29.6222 56.8514 31.6135H56.857C56.857 33.5974 56.8607 35.5832 56.8514 37.5671C56.8514 37.7608 56.911 37.7981 57.088 37.7944C57.7548 37.785 58.4217 37.7794 59.0868 37.7944C59.288 37.7981 59.3122 37.7273 59.3103 37.5578C59.3047 36.3525 59.3103 35.1491 59.3028 33.9439C59.3028 33.78 59.3457 33.7371 59.5078 33.739C60.1821 33.7483 60.8564 33.7613 61.5308 33.7371C63.103 33.6794 64.3138 32.9883 65.1223 31.634C65.4017 31.1664 65.5247 30.6523 65.601 30.1121C65.6737 29.5998 65.6346 29.1024 65.5228 28.6181C65.4222 28.1859 65.2061 27.7929 64.9658 27.4017L64.9677 27.4036ZM62.1567 31.3248C61.9201 31.4198 61.6686 31.4608 61.4134 31.4626C60.7782 31.4664 60.143 31.4589 59.5078 31.4682C59.3345 31.4701 59.3047 31.3974 59.3066 31.2465C59.314 30.6989 59.3103 30.1493 59.3103 29.6017C59.3103 29.054 59.3178 28.5045 59.3066 27.9568C59.3029 27.7892 59.355 27.7556 59.5133 27.7575C60.0871 27.7668 60.6608 27.7519 61.2327 27.7631C61.4842 27.7687 61.7413 27.7873 61.9834 27.845C62.641 28.0015 62.9745 28.4858 63.1496 29.0894C63.4234 30.0357 62.9931 30.9839 62.1548 31.3229L62.1567 31.3248Z" fill="#FDCF39"/>
<path d="M98.1982 25.4978C97.5183 25.4941 96.8384 25.4885 96.1566 25.4848C96.1361 25.4587 96.1174 25.4587 96.0988 25.4848C96.056 25.4811 96.015 25.4755 95.9721 25.4718C95.9256 25.4345 95.892 25.4382 95.8753 25.4997C95.8436 25.5072 95.8306 25.5202 95.8566 25.5481C95.8585 27.0775 95.8585 28.6069 95.866 30.1363C95.866 30.2983 95.8306 30.3673 95.6461 30.3654C94.2583 30.3579 92.8706 30.3598 91.4846 30.3654C91.3356 30.3654 91.3095 30.3207 91.3095 30.1828C91.317 29.3185 91.3132 28.4523 91.3132 27.5879C91.3132 26.9322 91.3132 26.2746 91.3132 25.6189C91.3132 25.5295 91.3375 25.4438 91.1791 25.455C90.4824 25.5053 89.7857 25.4774 89.0872 25.4811C89.0667 25.4513 89.048 25.4513 89.0276 25.4811C88.9214 25.4569 88.8636 25.4923 88.8674 25.6059C88.8711 25.7139 88.8785 25.822 88.8785 25.93C88.8785 29.8214 88.8785 33.711 88.8748 37.6024C88.8748 37.7608 88.9214 37.7962 89.0723 37.7943C89.7075 37.785 90.3427 37.7887 90.9779 37.7869C91.2027 37.7869 91.3151 37.672 91.3151 37.4422C91.3151 35.9222 91.3151 34.4003 91.3151 32.8802C91.3151 32.7535 91.3095 32.6734 91.4902 32.6753C92.8761 32.6865 94.2639 32.6865 95.6499 32.6827C95.8268 32.6827 95.8678 32.7386 95.8678 32.91C95.8622 34.4226 95.866 35.9371 95.866 37.4497C95.7561 37.5149 95.7505 37.5819 95.866 37.649C95.8716 37.69 95.879 37.731 95.8846 37.7738C95.8846 37.8092 95.8995 37.8167 95.9256 37.7906C96.6204 37.7906 97.3152 37.7906 98.0101 37.7906C98.0455 37.867 98.079 37.8651 98.1144 37.7906C98.2988 37.8185 98.2895 37.6919 98.2895 37.5726C98.2895 33.5955 98.2895 29.6203 98.2895 25.6431C98.2839 25.5817 98.3752 25.4606 98.2019 25.4997L98.1982 25.4978Z" fill="#FDCF39"/>
<path d="M146.802 25.5036C145.998 25.4664 145.193 25.4813 144.39 25.4962C144.351 25.4943 144.338 25.5111 144.351 25.5483C144.36 25.6713 144.377 25.7942 144.377 25.9153C144.377 29.4192 144.373 32.9213 144.371 36.4253C144.258 36.4793 144.267 36.5334 144.371 36.5855C144.386 36.9823 144.349 37.3791 144.396 37.7759C144.518 37.9826 144.64 37.7665 144.763 37.7759C145.398 37.8057 146.033 37.7963 146.668 37.7796L146.72 37.774C146.877 37.7609 146.817 37.6361 146.817 37.5616C146.819 33.5566 146.817 29.5515 146.817 25.5465C146.832 25.5353 146.847 25.5241 146.86 25.5129C146.841 25.5092 146.821 25.5055 146.802 25.5017V25.5036Z" fill="#FDCF39"/>
<path d="M149.137 25.4972C149.153 25.4898 149.171 25.4807 149.188 25.4734C149.171 25.4697 149.157 25.4661 149.14 25.4642C149.14 25.4752 149.137 25.4862 149.137 25.4972Z" fill="#FDCF39"/>
</svg>
