<svg width="175" height="70" viewBox="0 0 175 70" fill="none" xmlns="http://www.w3.org/2000/svg">
<path d="M172.837 16.1456C172.637 14.7669 171.138 13.7678 169.585 14.2731C168.555 14.6099 167.807 15.5376 167.821 16.8535C167.813 16.9334 167.793 17.0162 167.793 17.0961C167.793 22.237 167.793 27.375 167.793 32.5158L167.784 32.5273C167.767 32.533 167.75 32.5387 167.733 32.5444C167.75 32.5501 167.767 32.5558 167.784 32.5615C167.793 32.9982 167.881 33.4007 168.144 33.7775C168.264 33.9516 168.381 34.1457 168.475 34.3427C169.097 35.6472 169.717 36.9545 170.345 38.2561C171.084 39.789 171.823 41.3218 172.583 42.8461C172.674 43.0259 172.722 43.2771 172.977 43.3456V16.2169C172.928 16.1941 172.882 16.1684 172.834 16.1456H172.837Z" fill="#FDCF39"/>
<path d="M172.86 47.4847L172.854 47.4648C172.854 47.3591 172.851 47.2507 172.777 47.165L172.783 47.1679C172.783 47.1137 172.743 47.0965 172.7 47.0823C172.743 46.9167 172.7 46.7797 172.563 46.6769C172.537 46.5827 172.512 46.4914 172.489 46.3972C172.489 46.3886 172.494 46.3801 172.494 46.3715C172.492 46.3544 172.483 46.3401 172.477 46.3258C172.454 46.3001 172.434 46.2745 172.412 46.2488C172.28 45.8006 172.009 45.4124 171.835 44.9814C171.789 44.9072 171.747 44.8358 171.701 44.7616C171.709 44.6588 171.681 44.5646 171.615 44.4847C171.455 44.1764 171.296 43.871 171.136 43.5627C171.116 43.4971 171.104 43.4257 171.076 43.3658C170.705 42.5979 170.331 41.8329 169.957 41.0651C169.543 40.2202 169.129 39.3753 168.718 38.5332C168.715 38.4133 168.655 38.3191 168.572 38.2392L168.438 38.0308C168.364 37.7825 168.318 37.5199 168.144 37.3115C168.121 37.2915 168.099 37.2744 168.076 37.2544C168.053 37.1802 168.107 37.0803 168.001 37.0346C167.807 36.6207 167.576 36.2154 167.408 35.7986C167.119 35.0822 166.748 34.4085 166.42 33.7149C166.397 33.6664 166.374 33.6207 166.352 33.5722C166.195 33.2382 166.04 32.9042 165.883 32.5703C165.858 32.4561 165.815 32.3533 165.732 32.2677C165.701 32.2049 165.669 32.1449 165.635 32.0821C165.121 31.0974 164.799 30.0184 164.154 29.0992C163.94 28.6283 163.726 28.1573 163.509 27.6863C163.526 27.6749 163.543 27.6635 163.563 27.652C163.546 27.6435 163.526 27.6349 163.509 27.6235C163.38 27.5664 163.389 27.4151 163.303 27.3295C163.269 27.2353 163.232 27.1411 163.197 27.0497C163.212 27.044 163.217 27.0355 163.217 27.0183C162.949 26.5188 162.681 26.0193 162.441 25.5055C162.084 24.7348 161.699 23.9784 161.328 23.2162C161.302 23.102 161.259 22.9964 161.177 22.9108C161.137 22.8223 161.097 22.7338 161.059 22.6453C160.914 22.3399 160.768 22.0345 160.623 21.7291C160.354 21.161 160.132 20.5759 159.806 20.0364C159.806 19.9793 159.789 19.9308 159.741 19.8965C159.607 19.5511 159.452 19.2143 159.261 18.8974C159.238 18.8489 159.218 18.8032 159.196 18.7547C159.153 18.7718 159.11 18.7633 159.067 18.7547C159.113 18.7661 159.156 18.7718 159.196 18.7547C158.947 18.2381 158.699 17.7214 158.451 17.2048C158.433 17.1134 158.396 17.0335 158.328 16.9707C158.305 16.8451 158.242 16.7366 158.165 16.6367C158.148 16.5482 158.111 16.4683 158.042 16.4055C157.711 15.6576 157.334 14.944 156.589 14.5102C156.601 14.4645 156.584 14.4474 156.538 14.4588C156.515 14.4531 156.492 14.4474 156.47 14.4417C156.461 14.4045 156.441 14.376 156.395 14.3846C156.324 14.3789 156.253 14.376 156.178 14.3703C156.124 14.2904 156.047 14.3018 155.967 14.3132C155.633 14.2961 155.296 14.2818 154.962 14.3218C154.86 14.3103 154.768 14.3446 154.683 14.3903C154.543 14.3674 154.437 14.4502 154.326 14.5102C154.123 14.5387 153.98 14.6786 153.829 14.7956C153.401 15.0953 153.138 15.5149 152.973 16.0002C152.861 16.0401 152.936 16.1429 152.901 16.2114C152.861 16.22 152.836 16.2371 152.844 16.2828C152.844 16.3541 152.847 16.4255 152.85 16.4969C152.824 16.8137 152.793 17.1305 152.953 17.4245C153.021 17.7956 153.19 18.1296 153.35 18.4664C153.712 19.2257 154.117 19.9622 154.417 20.75C154.406 20.7985 154.431 20.8128 154.474 20.8099L154.489 20.8156C154.509 20.8385 154.526 20.8613 154.546 20.8841C154.611 21.0326 154.677 21.181 154.743 21.3294L154.734 21.3551L154.763 21.3694C154.791 21.4236 154.82 21.475 154.848 21.5292C154.894 21.6605 154.94 21.7919 155.039 21.8975C155.097 22.1258 155.211 22.3256 155.336 22.5226C155.342 22.6254 155.351 22.7281 155.462 22.7766C155.462 22.7995 155.462 22.8252 155.47 22.8451C156.592 25.1687 157.717 27.4922 158.839 29.8157C158.859 29.8157 158.879 29.8157 158.896 29.8186C158.879 29.8186 158.859 29.8157 158.839 29.8157C158.879 29.8871 158.916 29.9584 158.956 30.0326C159.138 30.4237 159.324 30.8148 159.504 31.2058C160.075 32.4504 160.731 33.6521 161.254 34.9195C161.248 34.9651 161.271 34.9823 161.314 34.9823H161.325C161.345 35.0108 161.365 35.0336 161.385 35.0565C161.413 35.302 161.605 35.4732 161.682 35.6987C161.719 35.7729 161.756 35.8472 161.793 35.9185C162.138 36.6721 162.487 37.4228 162.832 38.1764C162.795 38.2906 162.861 38.3134 162.952 38.3163C163.006 38.459 163.058 38.6017 163.112 38.7444C163.098 38.7929 163.129 38.8072 163.166 38.8129C163.237 38.9557 163.312 39.0955 163.38 39.2411C163.937 40.3943 164.545 41.5247 165.036 42.7093C165.096 42.7892 165.158 42.872 165.221 42.9519C165.244 43.0175 165.27 43.086 165.293 43.1517L165.281 43.1745L165.307 43.1859C165.321 43.2145 165.335 43.2459 165.35 43.2744C165.43 43.42 165.507 43.5627 165.587 43.7083C165.664 43.9852 165.806 44.2335 165.949 44.4819C165.958 44.5047 165.963 44.5247 165.972 44.5475C166.038 44.7131 166.106 44.8815 166.172 45.047C166.209 45.2097 166.326 45.3239 166.423 45.4495C166.6 45.8606 166.78 46.2687 166.957 46.6798C166.951 46.7255 166.974 46.7426 167.017 46.7397C167.037 46.7654 167.054 46.794 167.074 46.8197C167.074 46.9024 167.102 46.9767 167.177 47.0252C167.199 47.0994 167.222 47.1736 167.245 47.2478C167.234 47.2935 167.259 47.3106 167.302 47.3106C167.319 47.3363 167.336 47.362 167.356 47.3877C167.548 47.8159 167.713 48.2583 168.007 48.6351C168.17 49.0661 168.455 49.4144 168.789 49.7255C168.835 49.8168 168.904 49.8739 169.009 49.8768C169.569 50.2193 170.134 50.3963 170.822 50.2364C171.992 49.9624 172.743 49.2145 172.86 48.1042C172.905 48.1042 172.954 48.1013 173 48.0985V47.6731C172.9 47.6474 172.945 47.5304 172.88 47.4847H172.86ZM161.702 24.6777C161.693 24.6977 161.685 24.7177 161.676 24.7376L161.702 24.6777ZM165.906 33.3923C165.898 33.4095 165.892 33.4266 165.883 33.4466C165.892 33.4294 165.898 33.4123 165.906 33.3923Z" fill="#FDCF39"/>
<path d="M140.068 21.8687C140.068 21.7888 140.045 21.706 140.028 21.6261C139.845 20.7584 139.58 19.9134 139.169 19.1285C138.772 18.3692 138.347 17.6156 137.65 17.0676C137.599 16.9762 137.524 16.9049 137.433 16.8506C136.991 16.3682 136.503 15.9515 135.932 15.6203C134.933 15.0438 133.902 14.5671 132.735 14.4443C132.706 14.3758 132.649 14.3758 132.589 14.3872C132.258 14.3644 131.93 14.2673 131.593 14.3044C131.516 14.196 131.407 14.2474 131.307 14.2502C129.478 14.2017 127.648 14.2131 125.818 14.2388C125.413 14.2445 125.002 14.176 124.602 14.3073C124.437 14.3358 124.257 14.2474 124.106 14.3758C124.057 14.3844 124.012 14.3901 123.966 14.3986C123.703 14.4386 123.472 14.5499 123.249 14.6869C123.198 14.6584 123.189 14.6984 123.178 14.7298C123.11 14.7583 123.055 14.7983 123.038 14.8753C123.01 14.9096 122.921 14.8639 122.935 14.9553L122.91 14.9638V14.9924C122.784 14.981 122.798 15.0951 122.758 15.1579H122.756C122.73 15.1808 122.704 15.2007 122.681 15.2236C122.621 15.255 122.573 15.2921 122.584 15.3692C122.524 15.4634 122.462 15.5576 122.399 15.6517C122.316 15.6974 122.31 15.7916 122.273 15.863V15.9343C122.096 16.2226 122.093 16.5366 122.128 16.8563C122.128 17.0219 122.128 17.1874 122.128 17.353C122.119 17.3987 122.145 17.4158 122.185 17.4215C122.213 17.5414 122.245 17.6584 122.273 17.7783C122.259 17.8268 122.285 17.8411 122.327 17.8411C122.402 17.961 122.373 18.1437 122.553 18.1979L122.616 18.2607C122.953 18.746 123.381 19.1028 123.972 19.2369C123.994 19.2484 124.014 19.2598 124.037 19.2712C124.28 19.4225 124.554 19.4025 124.822 19.4111C124.982 19.5852 125.153 19.4196 125.316 19.4196C127.2 19.4367 129.087 19.4396 130.971 19.4453C131.273 19.4453 131.579 19.4339 131.873 19.5338C132.104 19.5081 132.304 19.628 132.518 19.6794C132.518 19.7222 132.535 19.7507 132.586 19.745C132.729 19.7964 132.875 19.8478 133.017 19.8992C133.034 19.9877 133.1 19.9563 133.151 19.9534C133.642 20.2902 134.073 20.6927 134.41 21.1837C134.687 21.5861 134.873 22.0229 134.953 22.5224C135.027 22.982 134.961 23.4358 135.013 23.8868C135.115 24.8288 135.147 25.7651 134.955 26.7013C134.93 26.9639 134.907 27.2237 134.881 27.4863L134.87 27.492C134.833 27.492 134.798 27.492 134.824 27.5462C134.816 27.5976 134.807 27.6461 134.796 27.6975C134.616 28.0943 134.407 28.4739 134.145 28.825L134.008 28.962C133.982 28.9877 133.959 29.0134 133.934 29.0391C133.817 29.1447 133.7 29.2475 133.582 29.3531C133.488 29.413 133.391 29.4758 133.297 29.5358C133.123 29.5586 133.02 29.7042 132.869 29.7699C132.74 29.7955 132.615 29.8269 132.535 29.9411L132.532 29.9154H132.506C132.484 29.904 132.464 29.9069 132.444 29.9154C132.421 29.9297 132.395 29.944 132.372 29.9582C132.267 29.9811 132.13 29.9497 132.095 30.1067C131.97 30.1124 131.836 30.0867 131.733 30.1866C131.639 30.1866 131.542 30.1923 131.447 30.1923C131.327 30.1923 131.208 30.1923 131.088 30.1923C131.065 30.1809 131.042 30.178 131.022 30.1923H125.393C125.322 30.1923 125.25 30.1923 125.179 30.1923C125.108 30.1923 125.036 30.1923 124.965 30.1923C124.908 30.178 124.851 30.1695 124.819 30.2408C124.679 30.2408 124.537 30.2408 124.397 30.2408C124.254 30.0924 124.194 30.2437 124.111 30.3179C123.866 30.2637 123.692 30.472 123.463 30.4863C123.415 30.4606 123.404 30.4949 123.392 30.5291C123.249 30.5691 123.195 30.7432 123.038 30.7632C122.99 30.7461 122.975 30.7775 122.967 30.8146C122.85 30.8888 122.75 30.9801 122.687 31.1029C122.541 31.3626 122.225 31.5253 122.242 31.8764C122.213 31.9735 122.082 32.0334 122.142 32.159C122.011 32.513 121.968 32.8669 122.136 33.2209C122.222 33.572 122.279 33.9345 122.533 34.2199C122.915 34.6452 123.304 35.0591 123.903 35.1733C123.923 35.1847 123.946 35.199 123.966 35.2104C124.334 35.3132 124.711 35.3474 125.093 35.3474C127.371 35.3474 129.649 35.356 131.93 35.3389C132.358 35.336 132.798 35.2789 133.211 35.1733C134.325 34.885 135.358 34.414 136.32 33.7689C138.033 32.6186 139.163 31.0172 139.791 29.1162C140.296 27.5891 140.282 25.9649 140.23 24.355C140.205 23.5243 140.045 22.7022 140.068 21.8687Z" fill="#FDCF39"/>
<path d="M148.685 23.2047C148.682 21.1038 148.648 19.0029 148.608 16.9021C148.602 16.6537 148.679 16.3683 148.477 16.1456C148.477 15.9515 148.383 15.7945 148.268 15.649C147.986 14.9268 147.435 14.5386 146.693 14.3759C146.661 14.3216 146.613 14.3102 146.553 14.3216C146.219 14.2988 145.885 14.2874 145.554 14.3274C145.405 14.2731 145.297 14.3502 145.194 14.4415C145.1 14.4758 145.003 14.51 144.909 14.5414C144.857 14.5186 144.849 14.5471 144.846 14.59C144.803 14.6271 144.72 14.5814 144.697 14.6613C144.652 14.6613 144.629 14.6842 144.629 14.7298C144.603 14.7384 144.578 14.7498 144.552 14.7584C144.503 14.7298 144.498 14.7669 144.486 14.8012C144.461 14.824 144.438 14.844 144.412 14.8668C144.389 14.8726 144.361 14.8726 144.343 14.8868C143.838 15.275 143.593 15.8003 143.524 16.4197C143.43 16.7736 143.407 17.1304 143.413 17.4958C143.427 18.1438 143.43 18.7917 143.43 19.4397C143.43 28.2171 143.43 36.9917 143.427 45.7691C143.427 46.3343 143.453 46.8966 143.481 47.4618C143.481 47.5788 143.481 47.6959 143.481 47.8129C143.467 47.8215 143.45 47.8329 143.436 47.8414C143.453 47.8586 143.47 47.8757 143.487 47.8957C143.527 48.0584 143.39 48.2553 143.587 48.3838C143.607 48.5322 143.587 48.6978 143.767 48.772C143.907 49.2087 144.264 49.4827 144.558 49.7996C144.566 49.8338 144.575 49.8681 144.623 49.8453C144.669 49.8795 144.717 49.9109 144.763 49.9452C144.777 49.9794 144.792 50.0137 144.837 49.9908C145.311 50.2249 145.794 50.4133 146.339 50.3048C146.384 50.2934 146.427 50.2848 146.473 50.2734C147.446 50.0308 148.157 49.477 148.505 48.5265C148.742 47.8757 148.699 47.1878 148.699 46.5113C148.699 38.7443 148.699 30.9745 148.685 23.2075V23.2047Z" fill="#FDCF39"/>
<path d="M52.6162 16.6936C52.5619 15.9401 52.2708 15.3635 51.737 14.8696C51.7284 14.8354 51.717 14.804 51.6685 14.8211C51.5372 14.7469 51.4059 14.6727 51.2746 14.5985C50.678 14.2502 50.0414 14.2274 49.3849 14.3787L49.3193 14.4015C49.2136 14.4186 49.1023 14.4186 49.0281 14.5128C48.8568 14.5014 48.7512 14.5871 48.6856 14.7326L48.5999 14.7469C48.5514 14.7326 48.5371 14.7612 48.5229 14.7983C48.3145 15.0381 47.9977 15.1808 47.8949 15.5119C47.7607 15.6518 47.6551 15.803 47.6637 16.0086C47.5923 16.1142 47.5095 16.2198 47.5609 16.3597C47.3782 16.4938 47.5295 16.6651 47.5295 16.8107C47.4981 26.5672 47.4981 36.3265 47.5409 46.083C47.5409 46.377 47.5552 46.6711 47.5638 46.9651C47.5067 47.6701 47.481 48.3723 47.8892 49.006C48.3859 49.7824 49.031 50.3219 50.0215 50.2962C50.6894 50.2791 51.2403 49.9708 51.7455 49.5769C52.0795 49.3171 52.3507 49.0146 52.4649 48.5664C52.6961 47.6501 52.6847 46.7167 52.6847 45.7919C52.6961 36.7033 52.6932 27.6119 52.6875 18.5233C52.6875 17.9153 52.6647 17.3073 52.619 16.6965L52.6162 16.6936Z" fill="#FDCF39"/>
<path d="M95.1867 14.1789C95.1638 14.1703 95.141 14.1732 95.1239 14.1931C94.9697 14.2046 94.8213 14.2303 94.69 14.3216C94.6643 14.3102 94.6443 14.3159 94.6272 14.3359C94.553 14.3558 94.4788 14.3787 94.4046 14.3987C94.356 14.3787 94.3418 14.4072 94.3389 14.4472C94.3132 14.4529 94.2875 14.4615 94.2618 14.4672C94.2105 14.4472 94.199 14.4757 94.1962 14.5186C94.1477 14.55 94.0963 14.5785 94.0478 14.6099C93.9992 14.5899 93.9878 14.6242 93.9792 14.6584C93.3027 15.2008 92.8803 15.9401 92.415 16.6423C92.3808 16.6565 92.3522 16.6737 92.3665 16.7193C92.238 16.805 92.1752 16.9306 92.1324 17.0704C92.0611 17.0933 92.0182 17.1389 92.0097 17.2132C91.847 17.3759 91.7157 17.5614 91.6329 17.7755C91.6101 17.7983 91.5872 17.8211 91.5615 17.844C91.493 17.8697 91.5073 17.9353 91.4873 17.9839C91.4616 18.0067 91.4388 18.0324 91.4131 18.0552C91.2847 18.1551 91.2219 18.3007 91.1362 18.432C91.0534 18.4349 91.0706 18.5034 91.0592 18.5519C91.0278 18.5633 90.9992 18.5804 91.0135 18.6233C90.8879 18.7089 90.8251 18.8402 90.7737 18.9772C90.7509 19 90.7252 19.0229 90.7023 19.0457C90.6338 19.0743 90.6453 19.1342 90.6424 19.1884L90.6367 19.1998C90.5596 19.2569 90.4483 19.2798 90.4597 19.4111C90.3712 19.4168 90.3541 19.4767 90.3484 19.5509C90.2628 19.5938 90.2057 19.6566 90.2028 19.7565C90.1372 19.7822 90.1486 19.8478 90.1315 19.8992C90.0059 19.9563 89.9488 20.059 89.9202 20.1846C89.8774 20.1875 89.8546 20.2103 89.8517 20.2531C89.6833 20.4501 89.5292 20.6556 89.4207 20.8925C89.3779 20.8925 89.3522 20.9125 89.3608 20.9582C89.3322 20.9953 89.3008 21.0324 89.2723 21.0695H89.2494L89.2666 21.0809C89.0154 21.3293 88.8156 21.609 88.7128 21.9515C88.6785 21.9715 88.5986 21.9458 88.6243 22.0315C88.5986 22.0315 88.5815 22.0486 88.5786 22.0743C88.493 22.0514 88.513 22.1199 88.4987 22.1628C88.3703 22.2827 88.2646 22.4197 88.2133 22.5909C88.1705 22.5938 88.1476 22.6166 88.1448 22.6594C88.0734 22.7622 88.0049 22.8678 87.9335 22.9706C87.845 22.9563 87.7994 22.9906 87.8108 23.0848C87.5196 23.5186 87.2285 23.9497 86.9345 24.3835C86.8431 24.4149 86.7917 24.4749 86.7889 24.5719C86.7603 24.5862 86.729 24.5948 86.7518 24.6347C86.7404 24.6604 86.7289 24.689 86.7175 24.7146C86.6462 24.7375 86.6005 24.7832 86.5976 24.8602C86.5662 24.9087 86.5348 24.9573 86.5063 25.0029C86.4635 25.0029 86.4407 25.0258 86.4435 25.0686C86.355 25.1771 86.2465 25.277 86.2209 25.4225C86.198 25.4454 86.1752 25.4682 86.1495 25.4911C85.9839 25.728 85.7385 25.9078 85.6471 26.1961C85.5929 26.2304 85.5358 26.2618 85.5615 26.3417C85.4758 26.4216 85.3788 26.4958 85.3645 26.6271C85.3417 26.65 85.316 26.6728 85.2932 26.6956C85.2418 26.7299 85.1847 26.7584 85.2161 26.8355C85.1961 26.8612 85.1733 26.8869 85.1533 26.9154C85.1105 26.9154 85.0876 26.9383 85.0905 26.9811C85.0049 27.0296 84.9421 27.0924 84.9421 27.198C84.7651 27.4435 84.5881 27.689 84.4111 27.9373V27.9459C84.3655 28.0115 84.3198 28.08 84.2741 28.1457L84.2627 28.16C84.1799 28.2856 84.0486 28.3798 84.0201 28.5396C83.8431 28.6452 83.7746 28.8336 83.669 28.9935C83.5462 29.0049 83.5091 29.0705 83.5491 29.1819C83.4178 29.2304 83.4149 29.356 83.3778 29.4587C83.355 29.4816 83.3293 29.5044 83.3065 29.5301C83.2522 29.5644 83.1951 29.5986 83.2265 29.6785C83.2094 29.6957 83.1923 29.7128 83.1752 29.7299C83.0924 29.7071 83.1095 29.7727 83.0981 29.8155C82.7841 30.2009 82.5015 30.6062 82.2418 31.0258C82.1989 31.0258 82.1761 31.0458 82.1818 31.0915C82.0962 31.2028 81.982 31.297 81.9563 31.4454C81.9335 31.4683 81.9078 31.4911 81.885 31.5139C81.8336 31.5482 81.7765 31.5767 81.805 31.6538C81.785 31.6795 81.7651 31.7052 81.7451 31.7309C81.7023 31.7309 81.6794 31.7537 81.6794 31.7965C81.5224 31.8993 81.4625 32.0677 81.3911 32.2276C81.3198 32.2447 81.2827 32.2875 81.2827 32.3646C81.2712 32.3874 81.2598 32.4131 81.2484 32.4359C81.2256 32.4588 81.1999 32.4816 81.1771 32.5044C81.1542 32.5358 81.1342 32.5701 81.1114 32.6015C81.0229 32.5901 80.9744 32.6215 80.9887 32.7185C80.8859 32.8869 80.7831 33.0553 80.6804 33.2209C80.5947 33.2637 80.5377 33.3265 80.5319 33.4236C80.4406 33.552 80.3493 33.6805 80.2579 33.8089C80.1152 33.8346 80.0524 33.9202 80.061 34.063C80.0524 34.0858 80.0438 34.1086 80.0381 34.1315C80.021 34.14 80.0067 34.1486 79.9896 34.1572C80.0067 34.1743 80.021 34.1886 80.0381 34.2057C80.021 34.2828 79.9553 34.3227 79.8954 34.3627C79.824 34.3798 79.7841 34.4169 79.8069 34.4968C79.7812 34.4968 79.767 34.514 79.7641 34.5397C79.6756 34.5197 79.7013 34.5882 79.6899 34.631C79.6042 34.6795 79.5415 34.7423 79.5415 34.8479C79.4558 34.8908 79.3959 34.9535 79.3987 35.0563C79.373 35.0706 79.3416 35.0791 79.3645 35.1191C78.491 36.3437 78.982 37.7452 79.9696 38.5987C79.9782 38.6329 79.9867 38.6672 80.0353 38.6444C80.0838 38.6786 80.1295 38.71 80.178 38.7443C80.1923 38.7757 80.198 38.8185 80.2494 38.7842C80.275 38.7928 80.3036 38.8042 80.3293 38.8128C80.3293 38.8527 80.3407 38.8841 80.3921 38.8613C80.4178 38.8699 80.4463 38.8756 80.472 38.8841C80.472 38.9269 80.4891 38.9498 80.5348 38.9441C80.6404 38.9298 80.7118 39.064 80.8231 39.0097C80.8459 39.0154 80.8688 39.0211 80.8916 39.0297C80.9002 39.0668 80.9087 39.1011 80.9601 39.0754C81.3084 39.0725 81.6566 39.1382 82.0077 39.0411C82.8669 38.8042 83.4549 38.219 83.9402 37.5311C84.5967 36.6006 85.2389 35.6643 85.9069 34.7423C86.7889 33.5292 87.6338 32.2903 88.5016 31.0658C89.0468 30.2951 89.6034 29.5301 90.1543 28.7594C90.1885 28.748 90.2228 28.7366 90.2 28.688C90.5254 28.1114 90.945 27.5976 91.3246 27.0581C91.5815 26.6928 91.8013 26.2932 92.1467 25.9934L92.2038 25.9249C92.2095 25.8022 92.278 25.708 92.3465 25.6109C92.6805 25.14 92.9973 24.6547 93.3513 24.198C93.6196 23.8555 93.7794 23.4301 94.142 23.159C94.1819 23.1533 94.2076 23.1361 94.199 23.0905C94.4445 22.5281 94.8556 22.0743 95.2124 21.5833C95.258 21.5919 95.2809 21.5833 95.258 21.5319C95.7576 20.707 96.377 19.9705 96.9222 19.177C96.9707 19.1856 96.9878 19.1627 96.9821 19.1171C97.1306 18.883 97.2676 18.6432 97.4303 18.4206C97.9241 17.7384 98.0954 16.9819 97.9669 16.1599C97.8099 15.1408 96.6025 13.9562 95.2067 14.176L95.1867 14.1789Z" fill="#FDCF39"/>
<path d="M116.056 39.0383C115.988 38.907 115.876 38.984 115.779 38.9783C115.114 38.7471 114.478 38.8499 113.853 39.1239C113.741 39.0954 113.687 39.1667 113.636 39.2409C113.593 39.2466 113.57 39.2723 113.567 39.318C113.527 39.3494 113.45 39.3066 113.439 39.3894C113.219 39.5321 113.016 39.6948 112.928 39.9545C112.885 39.9574 112.862 39.9802 112.862 40.0231C112.799 40.0545 112.811 40.1172 112.796 40.1686C112.699 40.2371 112.677 40.3456 112.645 40.4484C112.605 40.4512 112.577 40.4655 112.591 40.514C112.557 40.6539 112.474 40.7852 112.5 40.9393C112.46 40.9479 112.434 40.965 112.443 41.0107L112.451 41.5074C112.414 41.6986 112.408 41.9013 112.3 42.0754C112.3 42.1011 112.305 42.1239 112.308 42.1496C112.308 42.1953 112.308 42.2381 112.308 42.2838C112.223 42.3637 112.22 42.4665 112.214 42.5721C112.066 42.7062 112.069 42.9003 112.003 43.0687C111.912 43.1087 111.854 43.1744 111.86 43.2828C111.812 43.3542 111.763 43.4227 111.715 43.4941C111.697 43.5026 111.683 43.5112 111.666 43.5197C111.683 43.5369 111.697 43.554 111.715 43.5711C111.609 43.8623 111.275 43.9051 111.109 44.1306C111.109 44.1249 111.109 44.1192 111.107 44.1163V44.1392H111.112C111.064 44.1449 111.021 44.1563 111.007 44.2105C110.981 44.2305 110.955 44.2533 110.93 44.2733C110.835 44.3304 110.744 44.3846 110.65 44.4417C110.559 44.4275 110.484 44.4332 110.519 44.5588C110.424 44.6758 110.236 44.6301 110.148 44.7643C110.128 44.7757 110.105 44.7871 110.085 44.7985C109.979 44.8157 109.865 44.8071 109.794 44.907C109.774 44.9184 109.751 44.9298 109.731 44.9413C109.091 45.1182 108.449 45.1925 107.798 44.9898C107.755 44.75 107.579 44.8613 107.444 44.8556C107.396 44.8585 107.347 44.8642 107.299 44.867C107.279 44.8499 107.259 44.8442 107.233 44.8556C106.822 44.6615 106.431 44.436 106.088 44.1335C106.051 44.122 106.1 44.0221 106.014 44.0592C105.994 44.0393 105.974 44.0193 105.954 43.9993C105.989 43.9165 105.897 43.9593 105.88 43.9251C105.863 43.8337 105.775 43.8052 105.723 43.7453C105.378 43.3142 105.021 42.8861 105.012 42.2895C105.021 42.2438 104.995 42.2267 104.955 42.221C104.83 41.9469 104.878 41.6558 104.87 41.3704C104.867 41.2733 104.921 41.162 104.807 41.0878C104.781 41.0392 104.755 40.9907 104.73 40.945C104.73 40.8965 104.73 40.8508 104.73 40.8023C104.436 39.2438 102.615 38.3503 101.176 39.0554C101.127 39.0326 101.116 39.064 101.11 39.1011C101.085 39.1096 101.062 39.1153 101.036 39.1239C100.965 39.1639 100.893 39.2038 100.822 39.2438C100.748 39.3009 100.676 39.3608 100.602 39.4179C100.554 39.3922 100.551 39.4236 100.548 39.4579C100.431 39.5064 100.354 39.5863 100.331 39.7119C100.066 39.9203 99.9457 40.22 99.8287 40.5197L99.823 40.5254C99.783 40.5254 99.7573 40.5426 99.7659 40.5882C99.606 41.2733 99.7459 41.9584 99.7602 42.6463C99.7488 42.7062 99.7431 42.7662 99.8201 42.7862L99.8315 43.0716L99.8373 43.2828C99.9657 43.6139 100.097 43.9451 100.225 44.2762C100.188 44.4988 100.137 44.73 100.448 44.8071C100.445 44.907 100.499 44.9841 100.551 45.0612C100.551 45.1097 100.537 45.1639 100.599 45.1867C100.628 45.2867 100.656 45.3837 100.685 45.4836C100.674 45.4865 100.659 45.4893 100.654 45.495C100.648 45.5007 100.639 45.5207 100.645 45.5264C100.725 45.6006 100.805 45.6749 100.882 45.7491L101.253 46.3314C101.267 46.4027 101.21 46.4912 101.307 46.5426C101.476 46.731 101.644 46.9194 101.813 47.1078C101.813 47.1478 101.83 47.1734 101.875 47.1649C102.306 47.5702 102.737 47.9784 103.168 48.3837C103.166 48.4294 103.188 48.4494 103.231 48.4522C103.297 48.5607 103.411 48.6064 103.517 48.6663C103.539 48.7348 103.602 48.7577 103.659 48.7834C103.731 48.8148 103.805 48.8461 103.876 48.8775C103.876 48.9204 103.891 48.9461 103.942 48.9289C104.03 49.006 104.119 49.0802 104.207 49.1573C104.573 49.2401 104.858 49.5198 105.232 49.5855C105.232 49.6283 105.249 49.6511 105.298 49.6425C105.395 49.6625 105.492 49.6796 105.589 49.6996C105.612 49.7082 105.635 49.7168 105.657 49.7253C105.712 49.7938 105.757 49.8795 105.869 49.8566C106.083 49.9023 106.277 50.0393 106.511 50.0108C106.52 50.0479 106.528 50.0793 106.577 50.0536C106.791 50.0878 107.005 50.1192 107.216 50.1535C107.227 50.1906 107.245 50.2191 107.29 50.2106C107.384 50.2134 107.481 50.2191 107.576 50.222C107.581 50.262 107.598 50.2876 107.644 50.2791C107.858 50.2848 108.072 50.2905 108.286 50.2962C108.312 50.3761 108.369 50.3647 108.429 50.3504C108.715 50.3248 109 50.3019 109.285 50.2762L109.32 50.2819L109.351 50.2705C109.471 50.2734 109.591 50.2762 109.711 50.2791C109.759 50.2534 109.805 50.2306 109.854 50.2049C110.085 50.2677 110.287 50.1421 110.504 50.105C110.541 50.1335 110.55 50.0993 110.564 50.0764C111.084 50.0393 111.555 49.8309 112.026 49.6397C112.637 49.3914 113.222 49.0916 113.77 48.7206C113.815 48.7263 113.835 48.7034 113.835 48.6606C113.981 48.5835 114.101 48.4751 114.232 48.378C114.643 48.0812 114.96 47.6901 115.343 47.3647C115.391 47.379 115.403 47.3561 115.391 47.3133C115.611 47.0279 115.831 46.7424 116.051 46.4541C116.082 46.4484 116.119 46.4484 116.088 46.3999C116.216 46.163 116.342 45.926 116.47 45.6891C117.012 44.6958 117.332 43.6254 117.529 42.5235C117.635 41.9355 117.678 41.3304 117.512 40.7338C117.289 39.9374 116.716 39.4493 116.051 39.0354L116.056 39.0383Z" fill="#FDCF39"/>
<path d="M158.022 32.1191C158.022 31.7166 157.925 31.3341 157.748 30.9659C156.543 28.4711 155.344 25.9763 154.145 23.4787C154.071 23.3246 153.954 23.2018 153.889 23.0334C153.709 22.5653 153.532 22.0914 153.258 21.6661C153.163 21.4235 153.069 21.1809 152.841 20.9382V22.237C152.835 22.3084 152.827 22.3769 152.827 22.4482C152.827 30.3579 152.827 38.2676 152.838 46.1801C152.838 47.0365 152.798 47.9014 153.052 48.7377C153.035 48.7862 153.058 48.7976 153.101 48.7948C153.323 49.0774 153.429 49.4513 153.76 49.654C153.76 49.6882 153.76 49.7196 153.809 49.6939C153.934 49.7653 153.988 49.9366 154.163 49.9423C154.177 49.9794 154.191 50.0079 154.24 49.9937C154.468 50.1792 154.736 50.2648 155.025 50.2962C155.033 50.3362 155.05 50.3619 155.096 50.3533C155.313 50.3533 155.541 50.4304 155.741 50.2791L155.775 50.2848L155.807 50.2705C155.881 50.2763 155.952 50.2791 156.026 50.2848C156.072 50.2934 156.089 50.2677 156.095 50.2277C157.117 49.9794 157.645 49.2601 157.93 48.3124C157.945 48.2924 157.948 48.2696 157.936 48.2467C157.942 48.0013 158.036 47.77 158.036 47.5189C158.027 42.3866 158.027 37.2571 158.022 32.1248V32.1191Z" fill="#FDCF39"/>
<path d="M70.7536 39.732C70.7308 39.7577 70.7079 39.7834 70.6879 39.8091C70.5538 39.9175 70.4796 40.0603 70.4596 40.2287C70.2855 40.5627 70.1427 40.9052 70.2055 41.2962C70.197 41.3676 70.1884 41.4361 70.1827 41.5075C70.0457 41.6159 70.1656 41.7501 70.1456 41.87C70.1285 41.89 70.1228 41.91 70.1342 41.9328C70.1285 41.9984 70.1199 42.0669 70.1142 42.1326C70.0486 42.1982 69.923 42.2696 69.9287 42.3296C69.9658 42.792 69.6832 43.1259 69.4891 43.497C69.2236 43.7653 68.9553 44.0308 68.6898 44.2991C68.6413 44.2734 68.6327 44.3105 68.6213 44.3419C68.4244 44.3819 68.2759 44.5075 68.1247 44.6274C68.099 44.6331 68.0733 44.6417 68.0476 44.6474C67.9991 44.6274 67.9848 44.6588 67.9791 44.6987C67.8649 44.7045 67.7736 44.7558 67.6908 44.8329C67.6251 44.8729 67.5224 44.8072 67.4738 44.9043C67.3026 44.9271 67.1285 44.9471 66.9829 45.0556C66.6717 45.2097 66.3635 45.0242 66.0523 45.0556C66.0067 44.9756 65.961 44.9614 65.9067 45.0498C65.8011 45.0755 65.7098 45.0413 65.627 44.9785C65.5956 44.9043 65.5414 44.9071 65.4814 44.9414C65.4329 44.9385 65.3844 44.9357 65.3359 44.9328C65.313 44.9185 65.293 44.9157 65.2673 44.9271C65.236 44.91 65.2074 44.8871 65.176 44.8757C63.6118 44.3134 62.8154 43.1773 62.6213 41.5589C62.5499 40.9708 62.5528 40.3486 62.1132 39.849C61.5737 39.2325 60.98 38.7815 60.0922 38.8129C59.2216 38.8443 58.508 39.1326 57.9628 39.8205C57.7288 40.1116 57.5946 40.4285 57.5546 40.7996C57.4576 41.7158 57.5546 42.6121 57.7773 43.5084C58.0941 44.7815 58.6793 45.9033 59.47 46.9481C59.9324 47.5589 60.4947 48.0499 61.0913 48.498C61.665 48.9319 62.2616 49.3544 62.9781 49.5599C63.3406 49.6655 63.666 49.8624 64.0628 49.911C64.3425 49.9452 64.5966 50.1736 64.9105 50.1593C64.9134 50.1993 64.9305 50.2278 64.9762 50.2164C65.5928 50.2963 66.2122 50.3391 66.8344 50.282C66.8801 50.282 66.9229 50.282 66.9686 50.282C67.3026 50.2592 67.6365 50.2392 67.9705 50.2164C68.0305 50.2278 68.0847 50.2221 68.1104 50.1507C68.2531 50.1707 68.3416 50.0508 68.4643 50.0223C69.6632 49.7283 70.7365 49.166 71.7098 48.4381C73.2969 47.2563 74.3445 45.6921 74.9011 43.7996C75.1552 42.9376 75.2779 42.0669 75.2379 41.1678C75.2208 40.7824 75.1495 40.4256 74.9525 40.0774C74.0219 38.4361 71.6813 38.4504 70.7479 39.7377L70.7536 39.732Z" fill="#FDCF39"/>
<path d="M100.045 24.4749C100.045 24.4749 100.063 24.4921 100.065 24.5035C100.205 24.8517 100.494 25.0515 100.799 25.2371C101.359 25.5739 101.949 25.7309 102.603 25.5996C103.953 25.3341 104.784 24.1039 104.732 22.7394C104.824 22.6881 104.801 22.6024 104.798 22.5225C104.884 22.3141 104.887 22.0772 105.024 21.8888C105.141 21.7975 105.141 21.6605 105.158 21.5291C105.215 21.4292 105.272 21.3322 105.329 21.2323C105.463 21.0467 105.595 20.8612 105.729 20.6757C105.749 20.6528 105.771 20.63 105.791 20.6072C105.889 20.59 105.943 20.5301 106.006 20.4502C106.428 19.9249 106.993 19.6424 107.653 19.5339C107.838 19.4311 108.038 19.3912 108.252 19.4026C108.62 19.4197 108.988 19.4283 109.354 19.4397C109.545 19.5881 109.782 19.6167 110.002 19.688C110.045 19.7936 110.144 19.7366 110.216 19.7622C110.224 19.8051 110.244 19.8308 110.293 19.8079C110.316 19.8136 110.339 19.8193 110.361 19.8279C110.367 19.8679 110.381 19.8964 110.43 19.8793C110.478 19.9107 110.524 19.9392 110.573 19.9706C111.032 20.2075 111.363 20.5957 111.717 20.9526C111.806 21.0953 111.894 21.2408 111.983 21.3836C112.063 21.572 112.143 21.7604 112.22 21.9488C112.225 21.9973 112.228 22.0458 112.234 22.0943C112.217 22.1628 112.071 22.2228 112.214 22.3056C112.265 22.3769 112.317 22.4483 112.368 22.5196C112.454 22.5425 112.517 22.5596 112.562 22.5796C112.605 22.5996 112.631 22.6195 112.636 22.6452C112.631 22.6195 112.608 22.5996 112.562 22.5796C112.519 22.5596 112.454 22.5425 112.368 22.5196C112.314 22.6766 112.451 22.7937 112.451 22.9392C112.451 22.9878 112.448 23.0392 112.445 23.0877C112.382 23.2418 112.462 23.376 112.511 23.513C112.514 23.5615 112.517 23.61 112.519 23.6586C112.508 23.6785 112.505 23.7014 112.514 23.7242C112.708 24.4892 113.162 25.0515 113.855 25.4255C113.855 25.4654 113.867 25.494 113.915 25.4711C114.272 25.5225 114.592 25.8137 114.986 25.6453C115.026 25.6852 115.031 25.8051 115.134 25.7166C115.765 25.6624 116.324 25.4569 116.764 24.983C116.927 24.9288 116.95 24.749 117.061 24.6491C117.295 24.3579 117.449 24.0325 117.483 23.6557C117.569 23.6015 117.552 23.5216 117.543 23.4416C117.629 23.042 117.637 22.6395 117.552 22.2371C117.552 22.1343 117.595 22.0258 117.486 21.9488C117.469 21.2323 117.241 20.5615 116.998 19.8964C117.072 19.7851 116.989 19.7366 116.912 19.688C116.852 19.5196 116.793 19.3512 116.733 19.1856C116.75 19.1485 116.738 19.14 116.704 19.1542C116.653 19.0772 116.598 19.003 116.556 18.923C116.162 18.2237 115.705 17.5672 115.137 16.9906C115.063 16.8735 114.963 16.7765 114.846 16.6994C114.8 16.6566 114.754 16.6109 114.706 16.5681C114.68 16.5453 114.655 16.5196 114.632 16.4968C113.958 15.8488 113.165 15.3578 112.325 14.981C111.663 14.6842 110.964 14.4159 110.213 14.3702C110.182 14.316 110.133 14.3045 110.076 14.316C109.959 14.3102 109.839 14.3017 109.722 14.296C109.696 14.2789 109.674 14.2617 109.648 14.2446C109.197 14.1875 108.746 14.1161 108.292 14.2246C108.246 14.2275 108.198 14.2303 108.152 14.2332C108.055 14.2332 107.961 14.236 107.864 14.2389C107.815 14.2389 107.77 14.2389 107.721 14.2389C107.313 14.2532 106.908 14.3102 106.508 14.3845C106.459 14.3645 106.445 14.3959 106.437 14.4358C106.348 14.4244 106.291 14.4815 106.222 14.5215C106.197 14.5101 106.177 14.5158 106.16 14.5358C105.837 14.6071 105.523 14.7099 105.226 14.8526C105.169 14.904 105.058 14.8241 105.021 14.9325C104.995 14.9496 104.969 14.9668 104.944 14.9868C104.904 14.9582 104.889 14.9868 104.875 15.0153C104.821 15.0239 104.75 14.981 104.727 15.0724C104.615 15.0867 104.516 15.1238 104.441 15.2151C104.33 15.2294 104.23 15.2665 104.156 15.3578C104.107 15.3807 104.036 15.3464 104.013 15.4235C103.99 15.4463 103.965 15.472 103.942 15.4948C103.89 15.512 103.816 15.4863 103.793 15.5662C103.771 15.589 103.751 15.6147 103.728 15.6376C103.705 15.6461 103.685 15.6547 103.659 15.6604C103.542 15.6433 103.531 15.7831 103.439 15.806C103.394 15.786 103.379 15.8174 103.365 15.8517L103.225 15.9458C103.177 15.923 103.165 15.9573 103.154 15.9944C102.963 16.1571 102.72 16.2627 102.589 16.491C102.563 16.5139 102.54 16.5367 102.515 16.5624C102.143 16.8793 101.798 17.2218 101.521 17.6243C100.967 18.2465 100.579 18.9601 100.337 19.7508C100.308 19.8222 100.282 19.8964 100.254 19.9678C100.134 20.0563 100.117 20.1818 100.123 20.316C99.9912 20.5101 100.023 20.7442 99.9598 20.9526C99.9084 21.1238 99.7457 21.2523 99.7572 21.4492C99.7714 21.6662 99.6373 21.866 99.6944 22.0858C99.6658 22.1343 99.6087 22.1828 99.6087 22.2313C99.6144 22.6681 99.6715 23.1048 99.5459 23.5358C99.5031 23.6814 99.6458 23.6614 99.7286 23.6814C99.8057 23.9526 99.6487 24.3151 100.04 24.4635L100.045 24.4749Z" fill="#FDCF39"/>
<path d="M75.3175 22.3254C75.2576 21.1865 74.9436 20.1189 74.3898 19.1227C74.387 19.0656 74.3813 19.0085 74.3185 18.98C74.2956 18.7859 74.1215 18.6689 74.073 18.4862C74.0273 18.3834 74.0844 18.2122 73.8874 18.2093C73.6163 17.8553 73.348 17.4985 73.0768 17.1446C73.0911 17.1075 73.0825 17.0875 73.0397 17.1018C72.503 16.5708 71.935 16.0799 71.3099 15.6546C71.3184 15.606 71.2956 15.5918 71.2499 15.5946L71.2385 15.5889C71.2242 15.5118 71.17 15.5233 71.1158 15.5347C70.5163 15.2235 69.9283 14.8867 69.2747 14.6898C69.2233 14.6783 69.169 14.6641 69.1177 14.6527C68.6581 14.4814 68.1928 14.3244 67.6933 14.3073C67.4906 14.1959 67.268 14.2216 67.0482 14.2131C66.7428 14.1474 66.4345 14.2045 66.1291 14.2102C65.8408 14.2159 65.561 14.3529 65.2699 14.2502C65.2099 14.2388 65.1528 14.2302 65.1243 14.3016C64.7047 14.3472 64.3079 14.4785 63.9169 14.6213C63.8626 14.6155 63.8084 14.6098 63.777 14.6669C63.6314 14.6584 63.5315 14.7554 63.4173 14.8182C63.3916 14.8068 63.3717 14.8125 63.3517 14.8296C63.2061 14.8753 63.0605 14.9238 62.9149 14.9695C62.8636 14.9467 62.855 14.9781 62.8493 15.0152C62.8236 15.0209 62.7979 15.0294 62.7722 15.0352C62.7494 15.0523 62.7266 15.0694 62.7037 15.0837C62.6552 15.0894 62.6095 15.0951 62.561 15.1008C62.4183 15.1893 62.2755 15.2806 62.1357 15.3691C62.0443 15.3548 61.9872 15.4205 61.9159 15.4605C61.8674 15.4376 61.8559 15.4719 61.8417 15.5061C61.7475 15.5632 61.6533 15.6175 61.5591 15.6717C61.5106 15.6489 61.4991 15.6831 61.4877 15.7174C61.4392 15.7516 61.3935 15.783 61.345 15.8173C61.2965 15.7887 61.2879 15.8287 61.2765 15.8601C61.1595 15.9372 61.0396 16.0171 60.9225 16.0942C60.8283 16.0799 60.7855 16.1227 60.7912 16.2169C60.5743 16.4053 60.3574 16.5937 60.1404 16.7849C60.1176 16.8078 60.0919 16.8306 60.0691 16.8534C59.7922 17.1503 59.5096 17.4415 59.2898 17.784C59.2013 17.8239 59.1471 17.8867 59.1414 17.9867C58.9701 18.0751 58.9986 18.2721 58.913 18.4063C58.5048 18.8573 58.3022 19.4167 58.0938 19.9705L58.0824 20.1132C57.8883 20.2017 57.9825 20.3958 57.9282 20.5357C57.8226 20.5813 57.894 20.6813 57.8626 20.7469C57.6742 20.9781 57.7313 21.2721 57.6571 21.5319H57.6513C57.6085 21.5347 57.5828 21.549 57.5943 21.5975C57.5657 21.8116 57.5343 22.0228 57.5058 22.2369C57.3802 22.6166 57.403 22.9934 57.52 23.3701C57.52 23.4929 57.4858 23.6213 57.5885 23.7241C57.58 23.7469 57.5828 23.7698 57.5971 23.7897C57.5971 23.8383 57.5971 23.8868 57.5971 23.9382C57.58 23.9867 57.6085 24.001 57.6485 24.0038C58.0767 25.0714 58.9102 25.648 60.0177 25.6851C61.2137 25.7251 62.0814 24.9344 62.4754 23.7184C62.4896 23.6955 62.4896 23.6756 62.4811 23.6527C62.4839 23.627 62.4896 23.6042 62.4925 23.5785C62.561 23.5243 62.6552 23.4843 62.6209 23.3673C62.5467 23.2331 62.5667 23.0904 62.5638 22.9477C62.5952 22.9334 62.6266 22.9191 62.6152 22.8763C62.6609 22.6394 62.7094 22.3996 62.7551 22.1627C62.7722 22.1427 62.7751 22.1199 62.7637 22.0971C62.7694 22.0742 62.7722 22.0485 62.7779 22.0257C62.9292 21.7345 63.0805 21.4462 63.2318 21.1551C63.2461 21.1151 63.2632 21.078 63.2775 21.0381C63.3945 20.9753 63.423 20.8468 63.4915 20.7498C63.5144 20.7241 63.5372 20.6984 63.56 20.6755C63.58 20.6527 63.6029 20.6299 63.6228 20.607L63.6286 20.6013C63.6514 20.5813 63.6714 20.5585 63.6942 20.5385C63.9654 20.2531 64.3222 20.0761 64.6305 19.8363C64.6533 19.8363 64.6761 19.8278 64.699 19.8164C64.9016 19.8249 65.0272 19.6622 65.2014 19.6051H65.2356L65.2642 19.5909L65.7694 19.4653C66.2461 19.4653 66.7256 19.3967 67.1938 19.5281C67.2651 19.5366 67.3336 19.5452 67.405 19.5537C67.4535 19.6651 67.5477 19.5994 67.6219 19.608C67.6562 19.6651 67.7161 19.6565 67.7675 19.6594C67.7875 19.6708 67.8103 19.6822 67.8303 19.6965C67.9902 19.7678 68.15 19.8392 68.3099 19.9105C68.3698 19.9848 68.4412 20.039 68.5354 20.059C68.5354 20.059 68.5354 20.059 68.5354 20.0561C68.561 20.0761 68.5896 20.0961 68.6153 20.1161C68.9521 20.393 69.249 20.7069 69.5201 21.0466C69.66 21.3064 69.8027 21.5661 69.9426 21.8259C70.0054 22.0828 70.1738 22.314 70.1253 22.5966C70.2594 22.8906 70.0996 23.2274 70.2651 23.5186C70.2423 23.5899 70.2195 23.6613 70.1966 23.7298C70.2052 23.8811 70.1624 24.0581 70.3965 24.0809C70.5449 24.3635 70.6933 24.6404 70.9274 24.8773C71.2442 25.1998 71.621 25.4196 72.0321 25.5595C72.3717 25.6737 72.7314 25.8792 73.1053 25.6252C73.1481 25.6194 73.1938 25.6137 73.2366 25.608C74.0501 25.511 74.6239 25.0885 75.0321 24.3806C75.2462 24.0124 75.3032 23.6242 75.3632 23.2274C75.3775 23.2046 75.3775 23.1846 75.3632 23.1618C75.3689 23.1132 75.3746 23.0647 75.3803 23.0162L75.4374 22.9819C75.4174 22.9705 75.4003 22.9591 75.3803 22.9477C75.3575 22.7393 75.3232 22.5338 75.3118 22.3254H75.3175Z" fill="#FDCF39"/>
<path d="M40.6178 38.9012C40.595 38.9012 40.5722 38.8984 40.5493 38.8955C40.0669 38.7728 39.5902 38.7642 39.1221 38.964C39.0907 38.9783 39.0622 38.9925 39.0308 39.0068V38.9983C38.9851 39.0182 38.9423 39.0354 38.8966 39.0553C38.2372 39.3465 37.8176 39.8546 37.5579 40.5083C37.5179 40.5197 37.4922 40.5368 37.5036 40.5853C37.4922 40.6538 37.4837 40.7252 37.4722 40.7937C37.3723 40.8965 37.4465 41.0335 37.4037 41.1477C37.2924 41.376 37.378 41.6215 37.3352 41.8556C37.2867 41.8955 37.2838 41.9469 37.2924 42.0011C37.1954 42.3323 37.0954 42.6634 36.9984 42.9945C36.8956 43.1829 36.7957 43.3684 36.693 43.5568C36.4475 43.828 36.2163 44.1134 35.9223 44.3332C35.7339 44.3903 35.5797 44.5016 35.4227 44.6158C35.3999 44.6244 35.3742 44.6329 35.3514 44.6444C35.2971 44.6415 35.2315 44.6101 35.2144 44.6986C34.2924 45.161 33.3447 45.2524 32.3628 44.9127C32.3314 44.8613 32.2828 44.8442 32.2258 44.8499C31.5493 44.5587 30.9612 44.1534 30.5102 43.5654C30.5245 43.4655 30.4617 43.4027 30.3989 43.3427C30.3218 43.2029 30.2448 43.063 30.1648 42.9231C30.1734 42.7947 30.1135 42.7005 30.0221 42.6206C29.9793 42.4807 29.9393 42.3437 29.8965 42.2038C29.8823 42.1838 29.8765 42.1638 29.8737 42.1381C29.848 41.9526 29.8195 41.7642 29.7938 41.5787C29.7938 41.4788 29.8451 41.3674 29.731 41.2904C29.7281 40.1657 29.0488 39.218 28.0554 38.9497C28.0212 38.9355 27.984 38.9212 27.9498 38.9041C27.907 38.8955 27.8642 38.8898 27.8213 38.8812C27.7928 38.8698 27.7671 38.8584 27.7386 38.847C27.299 38.7842 26.868 38.7813 26.4512 38.964C26.3028 38.964 26.1943 39.0525 26.0773 39.1239C26.0487 39.1239 26.0316 39.1353 26.0259 39.161C26.0031 39.1724 25.9802 39.1838 25.9574 39.1952C25.5863 39.4064 25.2609 39.6633 25.0868 40.0687C24.6272 40.8023 24.5587 41.5844 24.8042 42.4008C24.8042 42.5863 24.8327 42.769 24.8641 42.9545C24.9612 43.5311 25.1838 44.0706 25.3294 44.6301C25.3123 44.6786 25.3408 44.6929 25.3808 44.6957C25.4978 44.9355 25.5406 45.2095 25.7376 45.4065C25.7433 45.5521 25.8603 45.6263 25.9403 45.7262C25.9602 45.7804 25.9745 45.8375 26.0002 45.8889C26.3113 46.4741 26.7681 46.9508 27.1762 47.4646C27.1934 47.4902 27.2133 47.5131 27.2305 47.5388C28.1496 48.4008 29.1458 49.1487 30.3447 49.5968C30.4075 49.6653 30.4817 49.711 30.5816 49.6996C30.8813 49.8252 31.1867 49.9365 31.5093 49.9964L31.5407 50.0107L31.5749 50.005C31.6691 50.0278 31.7662 50.0507 31.8604 50.0735C31.926 50.1135 31.9831 50.182 32.0745 50.1306C32.397 50.2476 32.7538 50.2105 33.0707 50.3533C33.2619 50.3533 33.4503 50.3533 33.6416 50.3533C34.3352 50.339 35.0117 50.1991 35.6796 50.0307C37.9518 49.457 39.7586 48.2124 41.0546 46.2571C41.7767 45.1639 42.2763 43.985 42.4133 42.6719C42.4218 42.6405 42.4333 42.612 42.4418 42.5806C42.5075 42.0782 42.5446 41.5787 42.4818 41.0734C42.3591 40.0515 41.6226 39.1924 40.6207 38.9041L40.6178 38.9012Z" fill="#FDCF39"/>
<path d="M2.14698 23.7984C2.18124 23.8641 2.10987 23.9697 2.22405 24.0068C2.66649 25.1229 3.55993 25.6567 4.55614 25.6881C6.0062 25.7337 7.21077 24.4949 7.21077 22.9507C7.24217 22.9364 7.27357 22.925 7.25645 22.8793C7.26501 22.7594 7.27072 22.6367 7.27928 22.5168C7.39346 22.3969 7.3221 22.2313 7.3849 22.1C7.422 21.9801 7.45626 21.8603 7.49336 21.7404C7.75312 21.258 8.03286 20.7898 8.41821 20.3959C9.01193 19.9307 9.67131 19.6081 10.4135 19.4597C10.7931 19.3255 11.1727 19.4996 11.5524 19.4654C11.698 19.4625 11.8321 19.5596 11.9863 19.5196C12.0091 19.5282 12.0319 19.5339 12.0548 19.5424C12.1033 19.5624 12.1547 19.5824 12.2032 19.6024C12.3145 19.7337 12.4744 19.7337 12.6228 19.7565C12.6885 19.7908 12.757 19.825 12.8226 19.8621C12.9511 19.9364 13.0025 20.1276 13.1937 20.1076C13.2165 20.1333 13.2422 20.159 13.2651 20.1876C13.2651 20.2332 13.2907 20.2561 13.3336 20.2618C13.6875 20.5101 13.9673 20.8241 14.2042 21.1809C14.1928 21.2294 14.2184 21.2437 14.2584 21.2437C14.3126 21.3179 14.3669 21.3921 14.4211 21.4635C14.4382 21.4863 14.4554 21.5092 14.4725 21.532C14.4925 21.5777 14.5125 21.6262 14.5296 21.6719C14.501 21.7118 14.5296 21.7261 14.5581 21.7375C14.581 21.8574 14.6067 21.9773 14.6295 22.0972C14.6923 22.2342 14.6609 22.4026 14.7751 22.5225C14.7066 22.768 14.8464 22.9935 14.8493 23.2333C14.8379 23.2561 14.8436 23.2761 14.8607 23.2932C14.855 23.3674 14.8464 23.4388 14.8407 23.513C14.9663 23.65 14.7865 23.9155 15.0434 23.9982C15.3916 24.8831 16.0396 25.4226 16.9644 25.6424C17.1842 25.6938 17.4069 25.7594 17.6209 25.6938C18.0434 25.5653 18.4659 25.474 18.8484 25.1885C19.522 24.6919 19.8874 24.0696 19.9587 23.2561C19.9958 22.845 19.9159 22.4397 19.8845 22.0315C19.9017 22.0144 19.9188 21.9944 19.9331 21.9773C19.9159 21.9687 19.8988 21.9573 19.8817 21.9487C19.856 21.8317 19.8303 21.7175 19.8046 21.6005C19.8189 21.5092 19.8189 21.4235 19.7532 21.3465C19.6248 20.3588 19.2137 19.4768 18.6971 18.6376C18.6571 18.5491 18.6314 18.4492 18.5287 18.4035C18.3488 18.1152 18.2375 17.7813 17.9578 17.5586C17.7865 17.3474 17.6038 17.1533 17.3897 16.9849C16.8017 16.2513 16.011 15.7717 15.2232 15.2893C15.2375 15.2465 15.2232 15.2351 15.1804 15.2436C14.1928 14.8155 13.2023 14.4101 12.1119 14.316C12.089 14.3045 12.0662 14.3017 12.0434 14.316C11.9006 14.3102 11.7579 14.3074 11.618 14.3017C11.3183 14.1076 11.0043 14.1846 10.6875 14.256C10.4506 14.2703 10.2137 14.2874 9.97674 14.3017C9.92821 14.216 9.87968 14.2218 9.83401 14.3017C9.73982 14.3074 9.64276 14.3102 9.54857 14.316C9.48862 14.3045 9.43154 14.2988 9.40014 14.3702C9.26027 14.4187 9.1204 14.4672 8.97768 14.5158C8.87777 14.5243 8.77501 14.5158 8.69223 14.5871C8.34399 14.6414 8.01858 14.7698 7.69318 14.8954C7.61325 14.9182 7.53047 14.9325 7.47909 15.0096C7.26786 15.061 7.08232 15.1609 6.9082 15.2865C6.89108 15.2836 6.87395 15.2865 6.86253 15.3007C6.75406 15.3321 6.63988 15.3493 6.5514 15.432C6.50287 15.4663 6.45435 15.5005 6.40582 15.5319C6.35729 15.5034 6.34873 15.5405 6.33731 15.5748C6.2945 15.5805 6.27166 15.6033 6.27451 15.649C6.22313 15.6775 6.17461 15.7089 6.12323 15.7375C6.07756 15.7203 6.06043 15.7517 6.04901 15.786C6.00334 15.8174 5.95482 15.8488 5.90915 15.8802C5.86062 15.8602 5.84635 15.8916 5.83493 15.9259C5.78926 15.9573 5.74359 15.9887 5.69506 16.0229C5.64654 16.0058 5.63226 16.0372 5.61799 16.0714C5.54663 16.1285 5.47812 16.1828 5.40676 16.2399C5.35824 16.217 5.35253 16.2513 5.34682 16.2855C5.24406 16.3255 5.17841 16.4026 5.12703 16.4968C5.10134 16.5196 5.0785 16.5424 5.05281 16.5653C4.6275 16.9335 4.22502 17.3217 3.95099 17.8241C3.61702 18.021 3.51141 18.3893 3.33729 18.6918C3.14604 19.0258 2.92625 19.3626 2.85203 19.7565C2.82634 19.8051 2.80065 19.8536 2.77496 19.9021C2.58371 20.3817 2.36678 20.8526 2.34109 21.3807C2.30683 21.3921 2.27258 21.4035 2.29827 21.4521C2.30112 21.5006 2.30683 21.5491 2.30969 21.5977C2.29541 21.669 2.284 21.7404 2.26972 21.8089C2.24403 21.8774 2.21834 21.9487 2.19265 22.0173C2.0956 22.1685 2.127 22.3541 2.07277 22.5168C2.10131 22.9421 1.96715 23.3731 2.12415 23.7927L2.14698 23.7984Z" fill="#FDCF39"/>
<path d="M24.688 17.8439C24.6937 22.5053 24.688 27.1666 24.688 31.825C24.688 33.9487 24.688 36.0696 24.688 38.1962C24.7879 38.1762 24.8963 38.1762 25.002 38.102C25.6785 37.631 26.4292 37.3741 27.2627 37.3912C28.0648 37.4083 28.8184 37.6081 29.5063 38.0363C29.6119 38.1162 29.7004 38.2818 29.8374 38.2161C29.9116 38.1819 29.8859 38.0049 29.8488 37.8936C29.8146 37.4883 29.8088 37.0829 29.8088 36.6747C29.8174 30.8688 29.8146 25.0657 29.8088 19.2598C29.8088 18.5747 29.7917 17.8925 29.7832 17.2074C29.7832 17.1132 29.7803 17.019 29.7774 16.9248C29.8146 16.7478 29.7375 16.5823 29.7146 16.4139C29.6404 15.8544 29.395 15.3606 29.0096 14.941C28.9868 14.861 28.9211 14.8839 28.8669 14.8753C28.3017 14.3358 27.6081 14.2445 26.8688 14.3187C26.7717 14.3187 26.6747 14.3073 26.5947 14.3758L26.3721 14.3872C26.3236 14.3786 26.3093 14.4015 26.3121 14.4443C26.1894 14.4985 26.0667 14.5499 25.9439 14.6041C25.8954 14.5842 25.8811 14.6184 25.8669 14.6527C25.8212 14.6869 25.7755 14.7183 25.727 14.7526C25.6785 14.7297 25.6699 14.764 25.6642 14.7983H25.6613C25.6356 14.8239 25.6128 14.8439 25.5871 14.8668C25.3902 14.9866 25.2617 15.1665 25.1618 15.3663C25.119 15.3663 25.0962 15.3891 25.0962 15.4348C24.8849 15.7431 24.6594 16.0828 24.6851 16.4396C24.7194 16.9105 24.6851 17.3758 24.6851 17.8411L24.688 17.8439Z" fill="#FDCF39"/>
<path d="M42.6165 16.7136C42.5936 15.7545 42.2197 14.9695 41.3434 14.5128C40.6412 14.1475 39.8933 13.9847 39.1198 14.333C39.0684 14.3244 39.0056 14.2873 38.9856 14.3758C38.8686 14.3815 38.7744 14.4386 38.6916 14.5185C38.6459 14.5499 38.6003 14.5785 38.5546 14.6099C38.5089 14.5927 38.4918 14.6241 38.4832 14.6584C38.4604 14.6812 38.4376 14.7041 38.4147 14.724C38.2977 14.7983 38.1978 14.8896 38.135 15.0152C38.0322 15.0894 37.9323 15.1636 37.918 15.3035C37.7297 15.4434 37.7268 15.6746 37.6383 15.863C37.5926 15.9258 37.5527 15.9914 37.5669 16.0742C37.4984 16.3311 37.3671 16.5737 37.4356 16.8535C37.4356 16.9705 37.4356 17.0904 37.4385 17.2074C37.4328 17.2645 37.4214 17.3245 37.4214 17.3815C37.3586 24.2265 37.507 31.0743 37.3472 37.9193C37.3472 38.0021 37.2872 38.1248 37.41 38.1648C37.5441 38.2047 37.6669 38.1619 37.7468 38.0363C37.9694 37.9222 38.1921 37.8051 38.4147 37.6909C38.4832 37.6653 38.5546 37.6367 38.6231 37.611C39.1283 37.4026 39.6621 37.3941 40.1959 37.3827L40.2301 37.3941L40.2644 37.3884C40.9523 37.4369 41.5746 37.6881 42.1797 37.9935C42.3139 38.0649 42.4109 38.2904 42.5708 38.2047C42.705 38.1305 42.7078 37.925 42.6793 37.7566C42.685 37.6624 42.6935 37.5682 42.6935 37.474C42.645 30.5548 42.7877 23.6356 42.6193 16.7165L42.6165 16.7136Z" fill="#FDCF39"/>
<path d="M127.228 37.043C127.237 37.0201 127.237 36.9973 127.223 36.9773C127.245 36.7661 127.103 36.7604 126.951 36.7604C126.529 36.7604 126.107 36.769 125.681 36.7604C125.133 36.749 124.585 36.7233 124.037 36.7062C123.951 36.6919 123.863 36.6805 123.777 36.6662L123.774 36.6719C123.746 36.6605 123.715 36.6519 123.686 36.6405C123.383 36.5263 123.058 36.4664 122.793 36.2637C122.807 36.2266 122.798 36.2152 122.761 36.2323C122.658 36.1438 122.53 36.1381 122.407 36.1238C122.304 36.0182 122.147 35.924 122.042 36.0097C121.939 36.0953 121.916 36.2694 121.948 36.4378C122.005 36.7318 122.019 37.0316 122.053 37.3313C122.05 38.4245 122.042 39.5178 122.042 40.6139C122.042 42.5892 122.05 44.5673 122.053 46.5426C121.993 46.8794 121.928 47.2305 122.028 47.5531C122.107 47.81 121.891 48.1125 122.165 48.3209C122.185 48.5207 122.27 48.7005 122.356 48.8804C122.273 49.1744 122.541 49.2229 122.693 49.3571L122.704 49.3742C122.696 49.4142 122.71 49.437 122.755 49.4284C122.818 49.4827 122.878 49.5369 122.941 49.5911C123.586 50.1734 124.325 50.3504 125.182 50.1649C125.964 49.9936 126.466 49.4941 126.889 48.8747C126.932 48.8747 126.954 48.8575 126.949 48.8119C127.18 48.2438 127.214 47.6415 127.234 47.0393C127.24 45.1439 127.245 43.2514 127.248 41.3561C127.248 39.9688 127.24 38.5787 127.237 37.1914C127.237 37.1429 127.234 37.0944 127.231 37.0487L127.228 37.043ZM125.273 37.5739C125.273 37.5739 125.29 37.5568 125.296 37.5425C125.299 37.4711 125.25 37.4369 125.193 37.4141C125.25 37.4369 125.299 37.4683 125.296 37.5397C125.29 37.5539 125.282 37.5625 125.273 37.5711V37.5739Z" fill="#FDCF39"/>
<path d="M19.724 26.3444C19.5184 26.4671 19.3129 26.5927 19.1074 26.7183C19.0589 26.704 19.0417 26.7326 19.0303 26.7725C18.9618 26.7982 18.8762 26.7839 18.8277 26.8553C18.8048 26.8553 18.7791 26.8553 18.7563 26.8639L18.5365 26.9352C18.4908 26.9181 18.4737 26.9466 18.4623 26.9809C18.4166 26.9923 18.371 27.0037 18.3253 27.0152C17.2977 27.2492 16.3357 27.135 15.4423 26.5299C15.3253 26.45 15.1797 26.2816 14.977 26.3529C14.8143 26.6983 14.937 27.058 14.9171 27.4119C14.9142 28.2939 14.9056 29.176 14.9056 30.058C14.9056 32.3644 14.9142 34.6708 14.9171 36.9743C14.8914 37.2997 14.8628 37.6251 14.8371 37.9505C14.82 38.1818 14.9342 38.2189 15.1169 38.1247C15.1968 38.0847 15.3053 38.0733 15.3367 37.9648C15.7334 37.8192 16.076 37.5424 16.4984 37.471C17.2063 37.354 17.9142 37.3254 18.6107 37.5395C18.6164 37.5795 18.6336 37.6052 18.6792 37.5966C18.7534 37.6166 18.8248 37.6366 18.899 37.6565C18.9219 37.6622 18.9447 37.668 18.9675 37.6765V37.6822C18.9704 37.725 18.9875 37.7479 19.036 37.7422C19.2672 37.7679 19.4242 37.9277 19.6069 38.0419C19.7125 38.1589 19.8381 38.2417 19.9866 38.3074C20.0608 38.1332 20.0351 37.9791 20.0208 37.8278C20.0265 37.7222 20.0379 37.6166 20.0379 37.511C20.0379 34.5138 20.0322 31.5195 20.0294 28.5223C20.0294 27.8487 20.0237 27.1779 20.0379 26.5042C20.0437 26.2016 19.9124 26.2302 19.724 26.3415V26.3444Z" fill="#FDCF39"/>
<path d="M121.985 29.5357C121.991 29.5757 121.996 29.6185 122.005 29.6584C122.068 29.6185 122.128 29.5814 122.19 29.5414C122.413 29.4358 122.641 29.3473 122.83 29.1789C122.861 29.1646 122.893 29.1475 122.924 29.1332L122.927 29.1389C123.007 29.0875 123.124 29.1389 123.187 29.0419C124.251 28.7279 125.347 28.7907 126.438 28.7821C126.532 28.7821 126.629 28.7678 126.723 28.7793C127.089 28.8221 127.186 28.6565 127.183 28.3083C127.169 26.2445 127.171 24.1807 127.171 22.117C127.171 21.8572 127.189 21.5975 127.174 21.3377C127.16 21.078 127.103 20.8325 126.763 20.8296C126.144 20.8239 125.522 20.8639 124.908 20.8039C124.602 20.7754 124.297 20.8696 124.014 20.7982C123.438 20.6526 122.861 20.4928 122.362 20.1417C122.267 20.0732 122.148 19.9876 122.036 20.0561C121.911 20.1331 121.999 20.2559 122.028 20.3643C122.053 20.4643 122.048 20.5727 122.048 20.6783C122.048 21.8001 122.076 22.9191 122.033 24.038C122.008 24.7431 122.173 25.4453 121.939 26.1617C121.862 26.3929 122.008 26.7412 121.991 27.058C121.951 27.8801 121.985 28.7079 121.988 29.5328L121.985 29.5357Z" fill="#FDCF39"/>
<path d="M97.045 45.2551C96.8052 44.7385 96.5655 44.2218 96.3257 43.7052C96.3257 43.6452 96.3086 43.5938 96.2543 43.5624C96.2401 43.5111 96.2286 43.4625 96.2144 43.4111C96.2401 43.3712 96.2087 43.3683 96.183 43.3626C95.8262 42.6262 95.4694 41.8897 95.1125 41.1533C95.0754 41.0534 95.1382 40.9107 94.9898 40.8564C94.9898 40.7965 94.947 40.7651 94.9042 40.7308C94.8671 40.571 94.7871 40.4311 94.6901 40.3027C94.673 40.2713 94.6558 40.2399 94.6416 40.2085L94.6501 40.2056C94.6187 40.1428 94.633 40.0572 94.5531 40.0201C94.5474 39.9972 94.5417 39.9715 94.536 39.9487C94.5188 39.923 94.4988 39.8973 94.4817 39.8716C94.319 39.3207 93.9936 38.844 93.7652 38.3217C93.7652 38.2617 93.7481 38.2103 93.6939 38.1789C93.6796 38.1276 93.6682 38.079 93.6539 38.0277C93.6796 37.9877 93.6482 37.9848 93.6225 37.9791C93.5169 37.7365 93.3057 37.5338 93.2343 37.2969C93.0088 36.5519 92.5949 35.8982 92.2695 35.2046C92.2638 35.1818 92.2552 35.1589 92.2495 35.1361C92.2495 35.079 92.2495 35.0191 92.181 34.9962C92.2296 34.8763 92.1839 34.805 92.0583 34.7822C92.0355 34.7079 92.0098 34.6366 91.9869 34.5624C92.0041 34.5509 92.0212 34.5424 92.0383 34.531C92.0212 34.5224 92.0012 34.5138 91.9841 34.5053C91.9784 34.4767 91.9727 34.4482 91.9669 34.4196C91.9869 34.3711 91.9527 34.3597 91.9156 34.3511C91.8442 34.2312 91.7614 34.1199 91.7043 33.9943C91.3418 33.2179 90.985 32.4386 90.6254 31.6594C90.6082 31.5738 90.5883 31.4881 90.4969 31.4424C90.4855 31.2912 90.4969 31.1056 90.3142 31.0685C90.1858 31.04 90.143 31.2169 90.0602 31.2969C89.9574 31.3996 89.8889 31.5366 89.8061 31.6594C89.7747 31.7307 89.7405 31.8021 89.7091 31.8763C89.6663 31.8763 89.6434 31.8992 89.6434 31.9448C89.6177 31.9934 89.592 32.0419 89.5664 32.0876C89.5036 32.1018 89.4779 32.1475 89.4693 32.2017C89.3922 32.3016 89.2724 32.373 89.2495 32.51C89.1753 32.5956 89.0754 32.667 89.0697 32.7926C89.0469 32.8154 89.024 32.8383 88.9983 32.864C88.9298 32.8897 88.9441 32.9553 88.927 33.0038C88.9013 33.0267 88.8784 33.0524 88.8527 33.0752C88.7243 33.1751 88.6615 33.3207 88.5787 33.452C88.4988 33.5576 88.3732 33.6347 88.3589 33.7859C88.2619 33.8259 88.2419 33.9144 88.2162 34C88.1934 34.0229 88.1677 34.0457 88.1448 34.0685C88.0535 34.1114 88.0421 34.2056 88.0107 34.2855L88.005 34.2883C87.9622 34.2883 87.9393 34.3112 87.9393 34.354C87.8537 34.4025 87.7909 34.4625 87.7909 34.5681C87.5968 34.8107 87.397 35.0476 87.2828 35.3388C86.8803 35.7812 86.8718 35.844 87.1201 36.3464C87.2114 36.5291 87.2942 36.7175 87.3827 36.903C87.3998 36.9201 87.417 36.9401 87.4341 36.9572C88.3133 38.7841 89.1924 40.6138 90.0716 42.4406C90.5854 43.5082 91.1249 44.5672 91.6073 45.649C91.9041 46.3113 92.2809 46.9364 92.5435 47.61C92.7748 48.1981 93.0516 48.7575 93.4256 49.2542C94.1049 50.1562 95.0812 50.4845 96.0545 50.1876C97.9442 49.611 98.3866 47.8955 97.4817 46.18C97.359 45.8603 97.242 45.5406 97.0507 45.2551H97.045ZM90.0088 32.3131C90.0602 32.3073 90.1001 32.3245 90.1144 32.3787C90.103 32.3245 90.0602 32.3073 90.0088 32.3131C89.9802 32.3159 89.9603 32.3302 89.9489 32.3473C89.9603 32.3302 89.9802 32.3188 90.0088 32.3131Z" fill="#FDCF39"/>
<path d="M2.39463 38.0506C2.66865 37.905 2.94554 37.7566 3.21956 37.611C3.3737 37.5996 3.51357 37.5511 3.64202 37.4683C4.18722 37.3827 4.73528 37.3941 5.28333 37.4026C5.30617 37.4826 5.36611 37.4711 5.42605 37.4597C5.49741 37.4654 5.56592 37.4711 5.63728 37.4769C5.76288 37.5796 5.91987 37.5653 6.06545 37.6024C6.33662 37.7309 6.62207 37.8337 6.85042 38.0363C7.21294 38.2989 7.2215 38.2989 7.27859 37.9678C7.27859 37.6139 7.27288 37.2599 7.27003 36.906C7.27288 36.8232 7.28144 36.7404 7.28144 36.6605C7.28144 33.7775 7.28144 30.8945 7.28144 28.0115C7.28144 27.6947 7.27003 27.3778 7.26432 27.061V26.5643C7.29572 26.2931 7.15299 26.3359 6.99314 26.4159L6.92178 26.4844C6.86184 26.5358 6.75337 26.4558 6.71626 26.5643C6.66774 26.5928 6.61921 26.6214 6.57069 26.6499C6.54785 26.6499 6.52501 26.6499 6.50218 26.6556C6.1939 26.7784 5.88276 26.8983 5.57448 27.021C5.45174 27.041 5.31758 27.0267 5.21482 27.1209C4.14726 27.2265 3.18816 26.9268 2.30614 26.3445C2.00071 26.1904 2.0892 26.413 2.10062 26.5586C2.10062 26.6071 2.10062 26.6585 2.10062 26.707C2.08635 26.7299 2.08635 26.7498 2.10062 26.7727C2.09491 26.9382 2.08349 27.1009 2.08349 27.2665C2.08349 29.5815 2.08349 31.8993 2.08349 34.2142C2.00642 34.2399 2.01784 34.297 2.0264 34.3569C1.99786 34.5939 2.01213 34.8308 2.04638 35.0648C2.04068 35.1819 2.03782 35.2989 2.03211 35.4159C2.03211 35.4645 2.03211 35.5158 2.03211 35.5644C2.03211 35.61 2.03211 35.6529 2.03211 35.6985V35.847C2.03211 35.9868 2.03211 36.1238 2.03211 36.2637C2.03211 36.4778 2.02926 36.6919 2.0264 36.906C2.02355 37.2342 2.01213 37.5653 2.01784 37.8936C2.01784 37.9849 1.94648 38.1191 2.0892 38.1676C2.21194 38.2104 2.32041 38.1505 2.40034 38.0506H2.39463ZM6.31664 27.5805C6.33091 27.5662 6.33948 27.5462 6.34518 27.5205C6.34233 27.5434 6.33091 27.5634 6.31664 27.5805Z" fill="#FDCF39"/>
<path d="M83.7206 39.7461C83.6721 39.7404 83.6521 39.7661 83.6464 39.8118C83.5979 39.8346 83.518 39.7947 83.4952 39.8774C83.4723 39.8774 83.4523 39.8832 83.4324 39.8946C83.3753 39.886 83.3153 39.8746 83.2896 39.9488C83.2354 39.9631 83.1697 39.9488 83.1469 40.0202C83.0527 40.0858 82.9585 40.1515 82.8643 40.2171C82.8272 40.1886 82.8101 40.2143 82.7958 40.2428C82.7416 40.2485 82.6731 40.2143 82.6474 40.2971C82.5817 40.3285 82.4875 40.2971 82.439 40.377C82.1764 40.4226 81.9138 40.4683 81.654 40.514C81.5827 40.4226 81.5113 40.4198 81.4371 40.5111C80.8177 40.5625 80.281 40.2799 79.7216 40.0944C79.6902 40.0487 79.6474 40.023 79.5903 40.0373C79.5703 40.0259 79.5474 40.0202 79.5218 40.0202C79.4961 40.0002 79.4704 39.9774 79.4447 39.9574C79.3962 39.9317 79.3476 39.906 79.2991 39.8803C79.1678 39.8204 79.0822 39.6006 78.9223 39.6948C78.7996 39.769 78.8738 39.9574 78.8738 40.0944C78.8709 40.4969 78.8738 40.8965 78.8738 41.299C78.8824 43.3056 78.8909 45.3123 78.8995 47.319C78.8567 47.5702 78.9138 47.8157 78.948 48.0583C79.125 49.3628 80.5037 50.5531 82.0622 50.1706C83.341 49.8566 84.0603 48.8604 84.0689 47.4646C84.086 44.9384 84.0775 42.4122 84.0803 39.886C84.1174 39.8746 84.1431 39.8546 84.1345 39.8089C84.0461 39.4607 83.8691 39.6862 83.7178 39.7433L83.7206 39.7461Z" fill="#FDCF39"/>
<path d="M79.0903 32.7957C79.1731 32.7843 79.2388 32.7557 79.2359 32.6558C79.3273 32.4902 79.4214 32.3218 79.5128 32.1563C79.5385 32.1306 79.5613 32.1078 79.587 32.0821C79.6327 32.0821 79.6555 32.0621 79.6498 32.0136C79.744 31.8451 79.8268 31.6682 79.9381 31.5083C80.6945 30.4151 81.4538 29.3218 82.2217 28.2371C82.6584 27.6206 83.0808 26.9897 83.5775 26.416C83.6175 26.4046 83.6403 26.3846 83.6289 26.3389C83.7288 26.1505 83.8287 25.9621 83.9286 25.7737C83.9771 25.7423 83.9943 25.6967 83.9829 25.6396C83.9886 25.6167 83.9971 25.5939 83.9971 25.5711C83.9971 22.6424 84.0085 19.7166 83.9914 16.7879C83.9857 15.7261 83.4291 14.9811 82.5014 14.4844C81.999 14.2161 81.4652 14.3131 80.9372 14.3131C80.7773 14.2931 80.6346 14.336 80.509 14.433C80.3491 14.4473 80.2093 14.5129 80.0837 14.61C79.9609 14.63 79.8981 14.7356 79.8039 14.7984H79.7982C79.7725 14.8241 79.7497 14.844 79.724 14.8669C79.6041 14.9411 79.5071 15.0324 79.4443 15.1609C79.4272 15.1695 79.4072 15.178 79.3901 15.1866C79.4072 15.198 79.4243 15.2094 79.4443 15.2208C79.4186 15.2665 79.3958 15.3122 79.3701 15.3578C79.2245 15.3978 79.1959 15.5234 79.1703 15.6461C79.1531 15.6661 79.136 15.6861 79.1189 15.7032C79.019 15.8945 78.9077 16.0772 78.882 16.3027C78.8077 17.0049 78.8077 17.7071 78.822 18.4121C78.8163 18.5891 78.8049 18.7632 78.8049 18.9402C78.8049 22.1086 78.8049 25.2742 78.8049 28.4426C78.8049 29.2562 78.8135 30.0668 78.8163 30.8803C78.8163 31.1629 78.8163 31.4484 78.8134 31.731C78.8134 32.0392 78.8134 32.3447 78.8134 32.653C78.7878 32.77 78.8049 32.9041 78.9019 32.9527C78.9705 32.9869 79.0532 32.8842 79.0875 32.7957H79.0903Z" fill="#FDCF39"/>
<path d="M57.7769 38.1048C58.0423 37.9307 58.3221 37.7851 58.6218 37.6738C59.3011 37.4226 59.9948 37.3484 60.7112 37.434C60.9025 37.4883 61.0909 37.5453 61.2821 37.5996C61.6618 37.6766 61.99 37.8707 62.3269 38.0449C62.4296 38.0962 62.4525 38.3246 62.638 38.1819C62.7607 38.1077 62.7036 37.9906 62.7008 37.8936C62.678 34.6224 62.7664 31.3512 62.638 28.08C62.6209 27.6689 62.618 27.2551 62.6094 26.844C62.6123 26.707 62.6865 26.5414 62.578 26.4444C62.481 26.3588 62.3611 26.4644 62.2641 26.53C62.2441 26.5414 62.2241 26.5529 62.2013 26.5643C62.1356 26.5957 62.0357 26.5215 61.9957 26.6299C61.9701 26.6385 61.9444 26.6471 61.9187 26.6585C61.8616 26.6299 61.8559 26.6699 61.8502 26.7099C61.7531 26.7355 61.6589 26.7612 61.5619 26.7869C61.4563 26.7727 61.4163 26.8583 61.3592 26.9182C61.1651 26.9867 60.971 27.0581 60.7769 27.1266L60.6342 27.1437C60.3031 27.2037 59.9691 27.2322 59.638 27.1437C59.5695 27.0724 59.4981 27.0638 59.4239 27.138C59.3525 27.118 59.2954 27.0467 59.2069 27.0724C59.1841 27.0581 59.1641 27.0581 59.1384 27.0695C59.0871 27.0438 59.0357 27.0153 58.9843 26.9896C58.9129 26.9011 58.8216 26.8611 58.7103 26.8611C58.6846 26.8554 58.6589 26.8497 58.6332 26.844C58.6275 26.8069 58.6189 26.7755 58.5704 26.7983C58.3792 26.8041 58.2364 26.6642 58.0595 26.6328C58.0395 26.6185 58.0223 26.6042 58.0024 26.59C57.9767 26.5814 57.951 26.57 57.9253 26.5614C57.8111 26.4644 57.6684 26.3216 57.5428 26.3902C57.4258 26.4501 57.4971 26.6499 57.4971 26.7869C57.4971 29.9468 57.4971 33.1067 57.5 36.2665C57.5 36.8317 57.5057 37.3969 57.5057 37.9621C57.5086 38.0106 57.5114 38.0591 57.5143 38.1048C57.5999 38.239 57.6855 38.179 57.7683 38.102L57.7769 38.1048Z" fill="#FDCF39"/>
<path d="M107.592 35.1647C107.986 35.7442 108.36 36.3379 108.779 36.8945C109.544 37.9079 110.25 38.9583 110.937 40.0202C110.989 40.1201 111.037 40.2571 111.16 40.2457C111.263 40.2342 111.28 40.0915 111.311 39.9973C111.4 39.7204 111.571 39.4892 111.708 39.238C111.737 39.1924 111.762 39.1467 111.791 39.101C111.959 39.0382 112.011 38.8926 112.062 38.7414C112.305 38.4987 112.553 38.2618 112.853 38.0934C112.918 38.1048 112.975 38.1048 112.99 38.022C113.121 38.0392 113.172 37.8993 113.284 37.8765C113.329 37.8879 113.347 37.8593 113.355 37.8222C113.427 37.788 113.498 37.7566 113.572 37.7223C113.615 37.7423 113.626 37.708 113.638 37.6795C113.683 37.6652 113.732 37.6481 113.778 37.6338C113.92 37.5967 114.06 37.5596 114.203 37.5225C114.394 37.4997 114.585 37.4768 114.777 37.454C114.837 37.4654 114.894 37.4768 114.922 37.3998C114.994 37.3941 115.062 37.3884 115.133 37.3826C115.388 37.3512 115.393 37.2542 115.208 37.1058C115.079 36.9088 114.976 36.6919 114.785 36.5434C114.765 36.4521 114.728 36.3722 114.637 36.3265C114.523 36.0582 114.334 35.8384 114.14 35.6243C114.12 35.533 114.08 35.4559 113.995 35.4102C113.706 34.9478 113.418 34.4854 113.081 34.0486C112.473 33.2637 111.956 32.4102 111.377 31.6081C110.795 30.8031 110.224 29.9953 109.65 29.1847C108.597 27.7032 107.561 26.2046 106.519 24.7146C106.484 24.5776 106.425 24.4406 106.279 24.4263C106.196 24.4177 106.162 24.549 106.145 24.6404C106.122 24.6803 106.102 24.7232 106.079 24.7631C105.991 24.786 105.939 24.8345 105.954 24.9315C105.868 24.9487 105.888 25.02 105.876 25.0771C105.731 25.2883 105.588 25.4967 105.443 25.7079C105.397 25.7565 105.351 25.8021 105.306 25.8507C105.283 25.8735 105.257 25.8992 105.234 25.922C105.209 25.9449 105.186 25.9677 105.16 25.9934C105.043 26.0933 104.926 26.1961 104.809 26.296C104.763 26.2817 104.743 26.3102 104.735 26.3473C104.712 26.3702 104.689 26.3959 104.666 26.4187C104.641 26.4273 104.615 26.4358 104.589 26.4444C104.541 26.4187 104.532 26.4558 104.521 26.4872C103.896 26.8355 103.245 27.1095 102.528 27.2094C102.348 27.1837 102.163 27.2351 101.932 27.0866C102.086 27.4463 102.229 27.7004 102.46 27.8945C102.779 28.334 103.15 28.7394 103.379 29.2418C103.365 29.256 103.347 29.2674 103.333 29.2817L103.385 29.3017C103.739 29.57 103.933 29.9582 104.17 30.315C104.184 30.3578 104.161 30.4264 104.247 30.4064C104.626 30.943 105.009 31.4796 105.388 32.0163C105.328 32.2075 105.423 32.2932 105.6 32.3217C105.645 32.4102 105.691 32.5015 105.737 32.59C105.719 32.5957 105.705 32.6043 105.688 32.61C105.702 32.6129 105.719 32.6186 105.734 32.6214C106.065 32.8013 106.165 33.1638 106.385 33.4321C106.385 33.572 106.407 33.7004 106.587 33.7147C106.61 33.7375 106.636 33.7632 106.659 33.786L107.455 34.9878C107.429 35.1019 107.472 35.1619 107.592 35.1619V35.1647Z" fill="#FDCF39"/>
<path d="M87.4234 36.9581C87.4069 36.9416 87.3905 36.9224 87.374 36.9059C87.3602 36.9526 87.385 36.9636 87.4234 36.9581Z" fill="#FDCF39"/>
<path d="M62.7031 15.0824C62.7254 15.0657 62.7477 15.0489 62.77 15.035C62.7226 15.0155 62.7087 15.0462 62.7031 15.0824Z" fill="#FDCF39"/>
<path d="M163.242 27.018L163.214 27.0235C163.214 27.0235 163.214 27.0263 163.214 27.029L163.242 27.0153V27.018Z" fill="#FDCF39"/>
<path d="M92.1798 25.9249C92.1603 25.9472 92.1435 25.9695 92.124 25.9918C92.1631 25.9863 92.1881 25.9695 92.1798 25.9249Z" fill="#FDCF39"/>
<path d="M109.653 14.2502C109.678 14.2669 109.701 14.2836 109.726 14.3003C109.712 14.2669 109.698 14.2362 109.653 14.2502Z" fill="#FDCF39"/>
<path d="M104.207 49.1788C104.207 49.1788 104.213 49.1627 104.213 49.1573C104.213 49.1573 104.207 49.1573 104.205 49.1573C104.205 49.1654 104.205 49.1734 104.205 49.1815L104.207 49.1788Z" fill="#FDCF39"/>
<path d="M19.8641 51.3923C19.847 51.3895 19.8298 51.3866 19.8127 51.3809C19.7128 51.2068 19.6129 51.0327 19.513 50.8614C19.5244 50.6559 19.336 50.5588 19.2646 50.399C18.7794 49.5112 18.2998 48.6206 17.8089 47.7358C17.7404 47.6102 17.6576 47.496 17.689 47.3447C17.7775 47.2191 17.866 47.0935 17.9516 46.9651C19.296 45.3808 19.9326 43.5226 20.0011 41.4788C20.0639 39.6063 18.1999 38.3332 16.4673 38.9783C16.4188 38.9612 16.4045 38.9897 16.3959 39.0297C16.2304 39.0354 16.1305 39.1667 16.0049 39.2409C15.2342 39.6834 14.8859 40.3827 14.8403 41.2419C14.8003 41.9555 14.6347 42.6463 14.2637 43.2372C13.8669 43.868 13.2874 44.3618 12.5967 44.6787C11.8973 45.0012 11.1923 45.1725 10.3873 44.9527C10.0248 44.8528 9.62232 44.7985 9.30547 44.6216C8.16655 43.9907 7.40441 43.0745 7.27311 41.7214C7.22744 41.239 7.21316 40.7424 7.00764 40.2857C6.63086 39.4464 5.67176 38.6729 4.50144 38.8299C4.42437 38.827 4.33873 38.7956 4.2845 38.887C4.08754 38.8698 3.90486 38.9269 3.71932 38.984C3.58801 39.0268 3.45956 39.0725 3.3568 39.1696C2.88867 39.5035 2.4862 39.8917 2.29495 40.4541C2.25213 40.4541 2.22644 40.4683 2.24071 40.514C2.235 40.5625 2.22644 40.6111 2.22073 40.6567C2.10941 40.6996 2.18648 40.8023 2.15508 40.8708C2.02092 41.2305 2.0409 41.5873 2.18077 41.9384C2.18077 41.9812 2.17506 42.0269 2.17221 42.0697C2.18933 42.3095 2.16079 42.5635 2.24071 42.7804C2.32635 43.0145 2.22359 43.2971 2.43196 43.4912C2.44338 43.5112 2.4548 43.534 2.46621 43.554L2.46051 43.7053C2.43767 43.7538 2.46907 43.7652 2.50618 43.7766C2.51474 44.0564 2.64319 44.299 2.73453 44.5531C2.72882 44.6016 2.75737 44.6187 2.80018 44.6216C2.85156 44.7643 2.90009 44.907 2.95147 45.0497C2.95147 45.1297 3.02283 45.1268 3.0685 45.1553C3.25119 45.6606 3.56518 46.0945 3.85919 46.5398C3.88488 46.5626 3.90771 46.5826 3.9334 46.6054C4.17317 47.0222 4.51571 47.3704 4.86395 47.6758C5.28926 48.0498 5.74312 48.4009 6.20554 48.7377C6.21696 48.7719 6.23123 48.8033 6.27976 48.7862C6.86492 49.0545 7.40156 49.4227 8.00385 49.6568C8.00385 49.6968 8.0067 49.7282 8.05808 49.7025C8.20651 49.7424 8.35494 49.7767 8.50052 49.8195C9.43678 50.105 10.393 50.2791 11.3721 50.2876C11.8117 50.2905 12.2541 50.2334 12.6851 50.1192C13.0477 50.0222 13.3017 50.1021 13.493 50.4732C14.0125 51.4722 14.5662 52.4542 15.1143 53.4361C15.4054 53.9585 15.7765 54.4095 16.3645 54.6264C16.4102 54.6835 16.4701 54.6978 16.5415 54.6921C16.5986 54.7434 16.6671 54.7663 16.7413 54.7606C16.7699 54.8062 16.7955 54.8519 16.8241 54.8976H18.1057C18.1314 54.8519 18.1571 54.8091 18.1828 54.7634C18.317 54.7577 18.4369 54.7206 18.5425 54.6321C18.5881 54.615 18.6367 54.5979 18.6823 54.5807C18.7023 54.5693 18.7223 54.555 18.7423 54.5436C19.8669 53.9442 20.3151 52.6026 19.8098 51.4123C19.827 51.4066 19.8412 51.398 19.8584 51.3923H19.8641Z" fill="#FDCF39"/>
</svg>
