<svg width="175" height="70" viewBox="0 0 175 70" fill="none" xmlns="http://www.w3.org/2000/svg">
<path d="M49.5349 43.8455C49.5349 43.2055 49.5384 43.1948 48.8912 43.1948C44.5968 43.1876 40.2988 43.1876 36.0044 43.184C35.9365 43.1769 35.8685 43.1733 35.8006 43.1662C35.7684 43.1054 35.7362 43.041 35.7041 42.9802C35.7184 42.8658 35.747 42.7478 35.747 42.6334C35.747 40.7919 35.7613 38.954 35.7219 37.1161C35.7112 36.662 35.8471 36.594 36.2547 36.5976C38.9436 36.6119 41.629 36.5976 44.3179 36.6012C44.5146 36.6012 44.5932 36.6083 44.6076 36.3473C44.6791 35.1745 44.6075 34.0016 44.6433 32.8288C44.6505 32.6214 44.5289 32.625 44.3894 32.6357C43.5456 32.6858 42.7089 32.5606 41.865 32.5606C39.9484 32.5606 38.0318 32.5678 36.1188 32.5714C35.9258 32.5714 35.7076 32.6429 35.7148 32.2889C35.7398 30.5833 35.7398 28.8741 35.7505 27.1685C35.8185 27.1291 35.8113 27.0898 35.747 27.0541C35.679 26.7573 35.8078 26.6822 36.0974 26.6822C39.9127 26.6893 43.7244 26.6822 47.5396 26.6822C47.865 26.6822 48.1904 26.6893 48.5122 26.7287C48.8769 26.7752 49.0879 26.6321 49.0879 26.2746C49.0879 25.1554 49.0879 24.0397 49.0879 22.9205C49.0915 22.8061 49.2166 22.613 48.9341 22.681H31.4347C31.3059 22.6381 31.1736 22.5844 31.1593 22.799C31.0092 23.0922 31.1593 23.3925 31.1486 23.6893C31.0306 26.7823 31.0914 29.8753 31.095 32.9683C31.1021 37.5344 31.0342 42.1006 31.1343 46.6668C31.1486 47.2675 31.1415 47.2496 31.8459 47.2496C37.5813 47.246 43.3167 47.2389 49.0521 47.2568C49.4705 47.2568 49.5563 47.1316 49.5492 46.7562C49.5277 45.7836 49.5384 44.811 49.5384 43.8384L49.5349 43.8455Z" fill="#FDCF39"/>
<path d="M22.5531 29.8037C21.9703 27.8121 21.037 26.0135 19.6568 24.433C18.2837 22.8597 16.6746 21.6368 14.7616 20.7787C13.0989 20.0314 11.354 19.6523 9.55185 19.5522C8.22884 19.4771 6.91298 19.5701 5.61858 19.9062C4.47436 20.203 3.34086 20.5248 2.28961 21.079C2.12512 21.1649 1.90343 21.2113 2.05718 21.526C2.92608 23.3282 3.61977 25.209 4.6746 26.9217C5.54349 28.3306 6.6162 29.5821 7.92848 30.5868C9.38022 31.6989 11.0608 32.414 12.8343 32.886C13.0203 32.9361 13.1383 33.0791 13.3635 33.0934C14.1001 33.1506 14.8296 33.2865 15.5626 33.3937C16.0346 33.4617 16.5066 33.526 16.9786 33.594C17.0823 33.6083 17.211 33.8014 17.2754 33.5511C19.1097 33.5511 20.944 33.6262 22.7819 33.5368C23.2504 33.5153 23.3004 33.3401 23.2289 32.9968C23.0072 31.9313 22.8642 30.8514 22.5567 29.8037H22.5531Z" fill="#FDCF39"/>
<path d="M22.9789 36.3439C21.6916 36.4154 20.4044 36.2652 18.7631 36.233C18.2161 36.1686 17.3364 36.3796 16.4425 36.4476C15.8632 36.4905 15.2697 36.5119 14.7083 36.6442C13.2458 36.9911 11.7798 37.295 10.3888 37.9279C8.40433 38.8325 6.75594 40.1055 5.47584 41.8433C4.00265 43.8457 3.10515 46.1484 2.04316 48.3689C1.93589 48.5978 2.03959 48.6872 2.23268 48.7587C2.52946 48.8695 2.82982 48.9768 3.11587 49.1091C4.82148 49.9172 6.64509 50.2497 8.5116 50.4107C8.9979 50.4536 9.45917 50.2605 9.93831 50.239C11.1505 50.1925 12.3376 49.9673 13.4675 49.5775C15.4127 48.9089 17.1827 47.9255 18.6809 46.481C20.0647 45.1436 21.1374 43.6204 21.899 41.8647C22.6142 40.2163 22.9682 38.4785 23.2292 36.7157C23.2542 36.5477 23.3257 36.326 22.9825 36.3474L22.9789 36.3439Z" fill="#FDCF39"/>
<path d="M152.813 33.7726C152.212 32.7428 151.461 31.8632 150.467 31.1838C149.755 30.6975 148.983 30.3006 148.196 30.0003C147.728 29.8215 147.138 29.7821 146.612 29.682C145.332 29.4389 144.066 29.4532 142.829 29.7535C141.456 30.0897 140.137 30.5724 139.043 31.5628C138.249 32.278 137.58 33.0539 137.072 33.98C135.921 36.079 135.76 38.3424 136.218 40.6129C136.618 42.6153 137.573 44.3638 139.275 45.6618C140.634 46.6988 142.139 47.3746 143.823 47.4604C145.193 47.5319 146.594 47.5283 147.935 47.0528C149.019 46.6702 150.063 46.2053 150.932 45.458C153.002 43.6737 154.046 41.4103 154.028 38.6213C154.057 37.949 153.996 37.216 153.857 36.5152C153.667 35.5569 153.32 34.6344 152.82 33.7762L152.813 33.7726ZM148.926 41.3281C148.343 42.7476 147.242 43.57 145.672 43.7882C144.95 43.8883 144.252 43.8847 143.566 43.6773C142.808 43.4449 142.171 43.0265 141.692 42.365C140.87 41.2244 140.627 39.9407 140.641 38.4282C140.594 37.3662 140.805 36.1934 141.402 35.1314C141.878 34.2875 142.561 33.5617 143.551 33.3364C144.874 33.0325 146.219 32.9645 147.413 33.7905C148.057 34.2339 148.554 34.831 148.89 35.5426C149.244 36.2899 149.29 37.098 149.401 37.9026C149.566 39.1004 149.376 40.2446 148.933 41.3245L148.926 41.3281Z" fill="#FDCF39"/>
<path d="M83.6621 33.9228C82.736 32.0849 81.245 30.887 79.3749 30.1791C77.8302 29.5962 76.2032 29.3745 74.5298 29.6212C72.699 29.893 71.0185 30.4508 69.6418 31.7559C68.7801 32.5712 68.0792 33.4973 67.6001 34.5557C67.2568 35.3102 67.0101 36.104 66.9028 36.9622C66.7491 38.1493 66.8707 39.2899 67.003 40.4485C67.1174 41.4604 67.5536 42.3543 68.0113 43.2411C68.612 44.4032 69.5059 45.3293 70.5787 46.0373C72.0483 47.0027 73.6752 47.5677 75.2664 47.4711C76.1389 47.4711 76.7861 47.396 77.4404 47.3245C78.8814 47.1708 80.1508 46.6058 81.2771 45.7763C82.7718 44.6749 83.8552 43.2411 84.4166 41.4425C84.8958 39.9121 84.9673 38.3674 84.6991 36.8048C84.5239 35.7893 84.1341 34.8453 83.6657 33.9157L83.6621 33.9228ZM80.2366 38.9324C80.115 40.4056 79.8576 41.8215 78.6311 42.8585C78.0018 43.3913 77.2974 43.6809 76.4786 43.7882C75.7241 43.8883 74.9875 43.8847 74.2759 43.6523C73.0387 43.2482 72.32 42.3257 71.8552 41.1636C71.5369 40.3662 71.4476 39.5402 71.444 38.7715C71.4082 37.3376 71.6299 36.0468 72.3808 34.8739C73.0959 33.7583 74.0971 33.1791 75.4309 33.1612C76.3999 33.1469 77.3653 33.1791 78.1949 33.7512C79.2712 34.4913 79.8504 35.5462 80.0614 36.8156C80.1794 37.5164 80.2938 38.2172 80.2366 38.9324Z" fill="#FDCF39"/>
<path d="M172.843 35.6321C172.743 34.3484 172.461 33.1398 171.778 32.0063C171.07 30.8335 170.101 30.1041 168.799 29.7429C167.598 29.4104 166.371 29.3281 165.17 29.6464C163.872 29.9896 162.828 30.7405 162.116 31.8991C161.98 32.1208 161.834 32.3389 161.694 32.557C161.762 31.6023 161.655 30.6833 161.705 29.7215C161.509 29.8573 161.355 29.8144 161.212 29.8144C159.964 29.8144 158.716 29.8252 157.468 29.8144C157.146 29.8144 156.982 29.8931 157.067 30.2399C157.085 30.2757 157.107 30.315 157.125 30.3508C157.103 32.1601 157.064 33.9694 157.06 35.7787C157.05 39.4009 157.06 43.0231 157.06 46.6452C157.06 46.7775 157.067 46.9098 157.06 47.0421C157.057 47.2066 157.11 47.2638 157.293 47.2638C158.616 47.2495 159.935 47.2388 161.258 47.2531C161.612 47.2567 161.705 47.1566 161.705 46.8062C161.691 43.8312 161.716 40.8562 161.684 37.8812C161.677 37.1124 161.823 36.3937 162.056 35.6786C162.567 34.1053 163.64 33.3401 165.295 33.3401C165.503 33.3401 165.714 33.3258 165.917 33.3401C166.575 33.4009 167.14 33.6404 167.58 34.1518C168.277 34.9599 168.442 35.9611 168.438 36.9408C168.42 40.1053 168.499 43.2698 168.392 46.4343C168.381 46.7025 168.292 46.9885 168.46 47.2424C168.492 47.3175 168.531 47.3318 168.581 47.2567C169.901 47.2567 171.22 47.1566 172.532 47.3103C172.897 47.3532 172.986 47.2102 172.979 46.8705C172.915 43.1232 173.137 39.3723 172.843 35.6285V35.6321Z" fill="#FDCF39"/>
<path d="M111.663 29.8219C110.401 29.8398 109.135 29.8469 107.873 29.8219C107.501 29.8147 107.44 29.947 107.44 30.276C107.451 33.0472 107.44 35.8148 107.455 38.5859C107.458 39.3976 107.412 40.195 107.186 40.9781C106.936 41.847 106.561 42.6086 105.795 43.1771C105.116 43.6813 104.376 43.7063 103.6 43.6813C102.506 43.6455 101.715 43.077 101.211 42.1616C100.768 41.3607 100.704 40.4489 100.704 39.5478C100.704 36.6014 100.714 33.655 100.725 30.7087C100.729 29.8112 100.736 29.8112 99.8061 29.8147C98.8692 29.8147 97.9324 29.8147 96.9956 29.8147C96.4497 29.8147 96.1755 30.0853 96.1732 30.6264C96.1732 33.6479 96.1696 36.6694 96.166 39.6872C96.166 40.7063 96.2054 41.7218 96.47 42.7159C96.9777 44.6289 97.9896 46.1414 99.8561 47.0067C100.625 47.3643 101.415 47.4787 102.255 47.4823C103.006 47.4858 103.775 47.493 104.469 47.257C105.449 46.9209 106.314 46.3595 106.94 45.4835C107.09 45.2725 107.204 44.99 107.576 44.8398C107.458 45.5907 107.429 46.2737 107.444 46.9602C107.444 47.1247 107.422 47.2534 107.683 47.2498C108.992 47.2248 110.301 47.2141 111.606 47.2284C111.978 47.232 112.089 47.1247 112.089 46.7564C112.078 41.2463 112.081 35.7361 112.092 30.2224C112.092 29.8755 111.971 29.8076 111.66 29.8112L111.663 29.8219Z" fill="#FDCF39"/>
<path d="M65.9547 29.8287C65.9118 29.8287 65.8653 29.8287 65.8224 29.8287C64.975 29.8287 64.1275 29.8144 63.2801 29.8287C62.8689 29.8359 62.4041 29.6785 62.0572 29.9145C61.7175 30.1434 61.7783 30.6297 61.6639 31.0016C61.6603 31.0159 61.646 31.0266 61.6424 31.0409C60.8808 33.4044 60.0834 35.7572 59.3683 38.1351C58.9928 39.3866 58.5602 40.6238 58.1454 41.8896C57.8808 41.6393 57.7878 41.2996 57.6806 40.9849C57.0584 39.2042 56.4577 37.4164 55.8498 35.6321C55.4171 34.3591 54.9809 33.0862 54.5447 31.8132C54.3444 31.2304 54.1335 30.6547 53.9296 30.0719C53.8653 29.8895 53.7759 29.8144 53.5578 29.818C52.1919 29.8287 50.8224 29.818 49.4564 29.8037C49.2026 29.8037 49.1561 29.8466 49.2705 30.1041C50.0429 31.8168 50.6007 33.6118 51.3301 35.3425C52.0667 37.091 52.7175 38.8788 53.4004 40.6488C54.1978 42.7155 54.9988 44.7823 55.7854 46.8526C55.8856 47.1172 56.025 47.2245 56.2968 47.2245C57.4553 47.2209 58.6138 47.2245 59.7759 47.2245C60.0334 47.2245 60.1907 47.153 60.2837 46.8598C60.5089 46.1339 60.795 45.4295 61.0524 44.7144C61.9714 42.1506 62.9333 39.6011 63.8844 37.0516C64.7068 34.8454 65.5078 32.6285 66.3695 30.4366C66.6091 29.8252 66.5912 29.8037 65.9654 29.8252L65.9547 29.8287Z" fill="#FDCF39"/>
<path d="M92.4762 22.5628C92.5334 22.5378 92.5692 22.4949 92.537 22.4377C92.5263 22.4162 92.4726 22.4162 92.4369 22.4055C90.9923 22.4019 89.5477 22.3984 88.0996 22.3948C87.9887 22.3948 87.9029 22.4127 87.9744 22.5557C87.9744 22.7917 87.9816 23.0277 87.9816 23.2637C87.9816 31.0408 87.9816 38.8215 87.9816 46.5987C87.7992 46.7489 87.7527 46.9062 87.9673 47.0707C87.9565 47.4783 88.2748 47.3245 88.4428 47.3067C89.6264 47.1779 90.8135 47.2673 92.0006 47.2602C92.5263 47.2602 92.5477 47.2852 92.5477 46.7524C92.5477 39.2578 92.5442 31.7631 92.537 24.2649C92.537 23.6999 92.5799 23.1314 92.4726 22.5664L92.4762 22.5628Z" fill="#FDCF39"/>
<path d="M132.51 29.8073C131.233 29.8287 129.953 29.8251 128.677 29.8001C128.355 29.793 128.323 29.9074 128.323 30.172C128.33 32.9575 128.326 35.7394 128.326 38.5248C128.326 41.3246 128.333 44.1244 128.315 46.9241C128.315 47.2817 128.43 47.3425 128.741 47.3139C130.025 47.1959 131.312 47.1923 132.596 47.3139C132.796 47.3318 132.882 47.296 132.882 47.0636C132.889 46.302 132.939 45.5439 132.942 44.7859C132.953 39.9372 132.95 35.0922 132.964 30.2435C132.964 29.8859 132.867 29.8037 132.51 29.8073Z" fill="#FDCF39"/>
<path d="M132.742 22.7738C131.329 22.7738 129.92 22.7738 128.508 22.7666C128.236 22.7666 128.09 22.8667 128.158 23.1599C128.176 23.1957 128.193 23.235 128.211 23.2708V27.1504C129.717 27.1504 131.243 27.1504 132.774 27.1504C132.956 27.1504 133.017 27.1075 133.017 26.9001C133.003 25.6343 133.006 24.3685 133.021 23.1063C133.021 22.8882 132.985 22.7738 132.742 22.7738Z" fill="#FDCF39"/>
<path d="M125.112 29.9037C124.908 29.8143 124.697 29.7893 124.476 29.7929C123.811 29.8036 123.142 29.8 122.477 29.8036C121.744 29.8036 121.747 29.8036 121.751 29.092C121.751 27.4758 121.751 25.8596 121.751 24.2434C121.787 24.1933 121.801 24.154 121.715 24.1504C121.629 24.1397 121.547 24.1289 121.461 24.1754C120.181 24.8834 118.905 25.595 117.614 26.2851C117.331 26.4353 117.228 26.6105 117.235 26.9251C117.253 27.8513 117.242 28.7738 117.242 29.6999C117.217 29.7321 117.192 29.7642 117.167 29.7964C116.513 29.7964 115.862 29.8 115.207 29.8036C114.946 29.8036 114.639 29.8393 114.685 30.1683C114.789 30.9299 114.678 31.6951 114.75 32.4532C114.653 32.5426 114.653 32.632 114.753 32.7178C114.732 32.9001 114.71 33.0789 114.689 33.2613C114.718 33.5724 114.911 33.4115 115.057 33.3864C115.622 33.3864 116.187 33.4115 116.752 33.3829C117.149 33.3614 117.249 33.4973 117.246 33.8835C117.228 36.5795 117.228 39.2756 117.242 41.9681C117.246 42.6511 117.188 43.3412 117.364 44.0134C117.535 44.6785 117.653 45.3579 118.132 45.9085C118.933 46.8239 120.02 47.1672 121.15 47.1851C122.316 47.2029 123.492 47.1958 124.662 47.1672C124.965 47.16 125.048 47.0778 125.041 46.7989C125.026 45.7691 125.016 44.7357 125.023 43.7059C125.023 43.4663 124.937 43.4055 124.712 43.4091C124.132 43.4198 123.553 43.4234 122.974 43.4091C122.287 43.3948 121.694 42.9693 121.704 42.1827C121.744 39.3686 121.726 36.5545 121.715 33.744C121.715 33.4758 121.772 33.39 122.055 33.3936C122.992 33.4043 123.929 33.3721 124.862 33.3936C125.148 33.4007 125.216 33.3292 125.212 33.0646C125.201 32.0634 125.212 31.0622 125.212 30.061C125.312 30.0038 125.294 29.9144 125.241 29.8501C125.198 29.8 125.141 29.8429 125.112 29.8966V29.9037Z" fill="#FDCF39"/>
</svg>
