<svg width="175" height="70" viewBox="0 0 175 70" fill="none" xmlns="http://www.w3.org/2000/svg">
<path d="M145.629 17.13C145.629 17.0675 145.629 17.0031 145.629 16.9405C145.62 16.7056 145.491 16.5849 145.242 16.5786C145.21 16.5786 145.179 16.5786 145.147 16.5786C142.97 16.5786 140.793 16.5786 138.616 16.5786C138.521 16.5786 138.426 16.5786 138.332 16.5805C138.22 16.5805 138.157 16.6393 138.15 16.751C138.144 16.8458 138.146 16.9405 138.146 17.0353C138.146 24.0898 138.146 31.1443 138.146 38.1988V39.1784C137.987 39.0912 137.951 39.0003 137.901 38.9207C136.194 36.1618 134.504 33.3935 132.776 30.6478C130.576 27.1575 128.344 23.6862 126.125 20.2091C125.422 19.1082 124.709 18.0111 124.01 16.9064C123.853 16.6582 123.667 16.5635 123.36 16.5672C121.53 16.5843 119.701 16.571 117.871 16.5767C117.075 16.5786 117.157 16.4611 117.157 17.2702C117.157 25.8217 117.157 34.3712 117.157 42.9226C117.157 46.3864 117.155 49.8521 117.155 53.3158C117.155 53.835 117.141 53.7535 117.579 53.7554C119.741 53.7611 121.901 53.7592 124.063 53.7611C124.126 53.7611 124.19 53.7535 124.253 53.7611C124.476 53.782 124.567 53.6569 124.584 53.4579C124.594 53.348 124.588 53.2381 124.588 53.1282C124.588 46.6251 124.588 40.1201 124.586 33.617C124.586 32.8781 124.56 32.1372 124.554 31.3982C124.554 31.3072 124.484 31.1784 124.658 31.1064C124.776 31.2883 124.897 31.4683 125.013 31.654C127.48 35.6218 129.917 39.6066 132.431 43.5441C134.485 46.7616 136.567 49.962 138.523 53.24C138.724 53.5773 138.957 53.7611 139.383 53.7573C141.323 53.7403 143.264 53.7554 145.204 53.7573C145.236 53.7573 145.267 53.7535 145.299 53.7554C145.547 53.7706 145.642 53.6436 145.625 53.4106C145.621 53.348 145.625 53.2855 145.625 53.2211C145.627 41.1907 145.629 29.1585 145.63 17.1281L145.629 17.13Z" fill="#FDCF39"/>
<path d="M30.1517 16.5597C30.0569 16.5635 29.9622 16.5597 29.8675 16.5597C27.7054 16.5597 25.5453 16.5597 23.3833 16.5597C23.3037 16.5597 23.226 16.5616 23.1464 16.5597C23.0119 16.5559 22.9418 16.6146 22.9494 16.7548C22.9532 16.8325 22.9532 16.9121 22.9532 16.9917C22.9551 24.2508 22.9589 31.51 22.9608 38.7691C22.9608 38.8999 22.9873 39.0401 22.9229 39.1614C22.8035 39.1291 22.777 39.0496 22.7391 38.9851C21.8371 37.5337 20.9352 36.0803 20.037 34.6251C19.2867 33.4105 18.5552 32.1845 17.7935 30.9756C15.9176 28.0026 14.0379 25.0315 12.1109 22.0907C10.9835 20.3702 9.92044 18.608 8.79112 16.8875C8.60921 16.6108 8.44247 16.5521 8.15824 16.5521C6.23308 16.5597 4.30981 16.5559 2.38465 16.5578C2.26149 16.5578 2.13074 16.5237 2.01326 16.6146C2.00947 16.6715 2 16.734 2 16.7965C2 24.4176 2.00379 32.0405 2.00568 39.6616C2.00568 44.196 2.00379 48.7322 2.00379 53.2666C2.00379 53.6664 1.93368 53.6797 2.40929 53.6683C4.52204 53.6171 6.63668 53.6418 8.75133 53.6512C9.41263 53.6531 9.33683 53.7232 9.33683 53.079C9.33683 46.1495 9.33683 39.222 9.33683 32.2926C9.33683 31.8833 9.33683 31.474 9.33683 31.0003C9.48463 31.1689 9.63243 31.2656 9.67032 31.3944C9.8257 31.9344 10.2501 32.3058 10.5154 32.7776C10.8584 33.3859 11.2544 33.9676 11.6239 34.5626C12.9086 36.6317 14.199 38.6971 15.4913 40.7606C16.2075 41.9032 16.9276 43.042 17.6495 44.1808C18.415 45.3878 19.1805 46.5948 19.9574 47.7943C20.5979 48.7834 21.227 49.7782 21.8257 50.7919C21.9849 51.061 22.2274 51.2694 22.3677 51.5536C22.6519 52.1316 23.0403 52.6432 23.37 53.1927C23.5747 53.5356 23.8362 53.6588 24.2511 53.6531C26.0342 53.6285 27.8153 53.6474 29.5984 53.6493C29.7727 53.6493 29.9451 53.6455 30.1195 53.655C30.309 53.6664 30.3734 53.5754 30.362 53.3992C30.3563 53.3215 30.362 53.2419 30.362 53.1624C30.362 41.1149 30.3639 29.0694 30.3658 17.022C30.3658 16.9424 30.362 16.8647 30.3658 16.7852C30.3734 16.6317 30.3165 16.5464 30.1498 16.554L30.1517 16.5597Z" fill="#FDCF39"/>
<path d="M113.497 47.292C113.497 46.5587 113.624 46.6269 112.864 46.6269C107.659 46.625 102.452 46.6269 97.247 46.6269C97.1049 46.6269 96.9627 46.6212 96.8206 46.6269C96.6387 46.6326 96.561 46.5473 96.5686 46.3711C96.5724 46.2934 96.5686 46.2138 96.5686 46.1343C96.5686 44.0405 96.5705 41.9448 96.5724 39.851C96.5724 39.5364 96.5629 39.2219 96.5686 38.9054C96.5743 38.5776 96.5819 38.5776 96.9248 38.5682C96.9722 38.5682 97.0196 38.5682 97.067 38.5682C101.075 38.5682 105.08 38.5682 109.088 38.57C109.639 38.57 110.193 38.5757 110.744 38.57C111.055 38.5663 111.064 38.5492 111.064 38.246C111.064 36.8609 111.057 35.4739 111.057 34.0887C111.057 33.3327 111.066 32.5767 111.062 31.8206C111.062 31.4909 111.047 31.4852 110.712 31.472C110.649 31.4701 110.585 31.472 110.522 31.472C107.998 31.472 105.474 31.472 102.95 31.472C100.963 31.472 98.9751 31.472 96.9874 31.4682C96.5781 31.4682 96.5591 31.4492 96.5591 31.0968C96.5629 28.7813 96.5686 26.4677 96.5724 24.1522C96.5724 24.0726 96.5781 23.9949 96.5762 23.9153C96.5724 23.7315 96.6709 23.6633 96.8434 23.669C96.9229 23.6709 97.0006 23.669 97.0802 23.669C99.9661 23.669 102.854 23.669 105.74 23.669C108.184 23.669 110.63 23.6671 113.075 23.6614C113.499 23.6614 113.501 23.6519 113.501 23.2427C113.501 21.1792 113.497 19.1176 113.495 17.0541C113.495 16.9745 113.495 16.8968 113.495 16.8172C113.501 16.6391 113.418 16.5558 113.238 16.5633C113.143 16.5671 113.048 16.5633 112.953 16.5633C106.107 16.5633 99.2612 16.5633 92.4132 16.5633C92.1915 16.5633 91.9717 16.5558 91.75 16.5595C91.5795 16.5633 91.4791 16.5027 91.4866 16.3151C91.4904 16.2374 91.4866 16.1578 91.4866 16.0783C91.4866 12.6619 91.4866 9.24356 91.4885 5.82716C91.4885 5.63767 91.481 5.45008 91.4829 5.2606C91.4829 5.08248 91.3995 5.00101 91.2252 5.00101C90.9106 5.00101 90.5942 5.0048 90.2796 5.00101C89.5785 4.99343 89.6941 5.01427 89.6941 5.58651C89.6941 15.4283 89.6941 25.2701 89.6941 35.112H89.6903C89.6903 44.986 89.6903 54.8581 89.6903 64.7321C89.6903 64.8269 89.6903 64.9216 89.6903 65.0164C89.6922 65.149 89.7604 65.221 89.8931 65.221C90.3497 65.221 90.8083 65.221 91.2649 65.221C91.4222 65.221 91.4923 65.1357 91.4885 64.9823C91.4866 64.9027 91.4885 64.825 91.4885 64.7454C91.4885 61.3593 91.4885 57.9732 91.4904 54.589C91.4904 54.3692 91.4923 54.1475 91.4866 53.9277C91.481 53.7515 91.553 53.6625 91.7349 53.6738C91.8126 53.6776 91.8921 53.6738 91.9717 53.6738C98.4559 53.6738 104.938 53.6757 111.422 53.6776C112.006 53.6776 112.59 53.6814 113.173 53.6757C113.501 53.6719 113.524 53.6416 113.516 53.3271C113.461 51.3129 113.499 49.2968 113.495 47.2806L113.497 47.292Z" fill="#FDCF39"/>
<path d="M41.9736 24.1923C41.9736 23.6579 41.9736 23.656 42.4852 23.656C47.7529 23.656 53.0224 23.656 58.2901 23.6541C58.4 23.6541 58.5118 23.6465 58.6217 23.656C58.8339 23.6731 58.904 23.567 58.8926 23.3737C58.8888 23.3112 58.8926 23.2486 58.8926 23.1842C58.8926 21.2003 58.8907 19.2164 58.8907 17.2325C58.8907 16.412 58.9097 16.5617 58.1991 16.5617C50.4549 16.5579 42.7088 16.5579 34.9646 16.5579C34.885 16.5579 34.8073 16.5617 34.7277 16.5579C34.561 16.5485 34.5041 16.6337 34.5136 16.7891C34.5193 16.8838 34.5136 16.9786 34.5136 17.0733C34.5136 23.0724 34.5136 29.0715 34.5136 35.0706C34.5136 38.6139 34.5136 42.1573 34.5136 45.6987C34.5136 48.1867 34.5136 50.6746 34.5136 53.1625C34.5136 53.6324 34.4075 53.6684 35.0366 53.6609C35.5406 53.6552 36.0465 53.6438 36.5505 53.6438C43.8381 53.6438 51.1257 53.6457 58.4132 53.6476C58.8794 53.6476 58.8888 53.6476 58.8888 53.1909C58.8926 51.1275 58.8907 49.0659 58.8888 47.0024C58.8888 46.6348 58.8813 46.6329 58.5326 46.6253C58.453 46.6253 58.3753 46.6253 58.2958 46.6253C55.4251 46.6253 52.5544 46.6253 49.6837 46.6253C47.2394 46.6253 44.7931 46.6253 42.3488 46.6253C41.9868 46.6253 41.9793 46.6215 41.9774 46.3278C41.9755 43.8247 41.9774 41.3197 41.9698 38.8167C41.9698 38.6063 42.0323 38.5476 42.2351 38.5495C42.7391 38.5533 43.245 38.5267 43.7491 38.5267C47.8021 38.5267 51.8571 38.5267 55.9102 38.5286C56.0049 38.5286 56.0996 38.5248 56.1944 38.5286C56.3554 38.5362 56.4218 38.4547 56.4218 38.3013C56.4218 38.1762 56.4312 38.0492 56.4312 37.9242C56.4312 36.0028 56.4312 34.0814 56.4293 32.162C56.4293 32.0047 56.418 31.8474 56.4199 31.6902C56.4199 31.5329 56.3517 31.4628 56.1925 31.4647C55.9727 31.4685 55.751 31.459 55.5293 31.459C51.1598 31.459 46.7903 31.459 42.4208 31.4571C41.9452 31.4571 41.9679 31.4988 41.9698 30.9928C41.9736 28.7247 41.9736 26.4585 41.9736 24.1904V24.1923Z" fill="#FDCF39"/>
<path d="M172.997 22.7254C172.997 20.8514 172.999 18.9774 173 17.1034C173 16.5198 173.021 16.5786 172.453 16.5786C164.692 16.5786 156.932 16.5786 149.171 16.5786C149.061 16.5786 148.949 16.5842 148.839 16.5786C148.655 16.5672 148.582 16.6525 148.593 16.8306C148.599 16.9253 148.593 17.0201 148.593 17.1148C148.593 19.1461 148.593 21.1773 148.593 23.2086C148.593 23.8339 148.568 23.76 149.161 23.7619C151.67 23.7638 154.177 23.7619 156.686 23.7619C157.103 23.7619 157.103 23.7676 157.108 24.175C157.108 24.2072 157.108 24.2375 157.108 24.2697C157.108 29.1035 157.108 33.9372 157.108 38.771H157.112C157.112 43.5725 157.112 48.3759 157.112 53.1774C157.112 53.2873 157.118 53.3972 157.112 53.5071C157.103 53.6853 157.182 53.7686 157.362 53.7611C157.442 53.7573 157.52 53.763 157.599 53.763C159.619 53.763 161.637 53.7648 163.655 53.7648C163.875 53.7648 164.097 53.7516 164.316 53.7516C164.517 53.7516 164.602 53.653 164.587 53.4579C164.584 53.3953 164.584 53.3328 164.584 53.2684C164.584 43.6009 164.584 33.9334 164.584 24.2659C164.584 24.1863 164.587 24.1087 164.584 24.0291C164.57 23.8225 164.673 23.7448 164.87 23.7581C164.98 23.7657 165.091 23.7581 165.201 23.7581C167.598 23.7581 169.997 23.7581 172.394 23.7581C172.521 23.7581 172.646 23.7524 172.773 23.7562C172.936 23.7619 172.999 23.6804 172.995 23.525C172.989 23.2579 172.989 22.9888 172.989 22.7216L172.997 22.7254Z" fill="#FDCF39"/>
<path d="M86.2578 16.6185C85.9527 16.662 85.6742 16.554 85.3805 16.5559C77.7007 16.5635 70.019 16.5616 62.3392 16.5616C62.2444 16.5616 62.1497 16.5654 62.0549 16.5616C61.9204 16.5578 61.8484 16.6128 61.8522 16.753C61.8541 16.8477 61.8522 16.9425 61.8522 17.0372C61.8522 19.0988 61.8522 21.1623 61.8522 23.2239C61.8522 23.3186 61.8541 23.4134 61.8522 23.5081C61.8503 23.6408 61.8996 23.7146 62.0455 23.7071C62.1554 23.7014 62.2653 23.7071 62.3771 23.7071C64.8366 23.7071 67.298 23.7071 69.7575 23.7109C70.4643 23.7109 70.3695 23.6426 70.3695 24.3058C70.3695 33.8937 70.3695 43.4817 70.3695 53.0696C70.3695 53.1946 70.3714 53.3216 70.3695 53.4466C70.3657 53.5963 70.4188 53.6873 70.5874 53.6778C70.6651 53.6721 70.7447 53.6778 70.8243 53.6759C72.9219 53.6172 75.0195 53.6551 77.117 53.6532C77.8011 53.6532 77.8011 53.6532 77.8011 52.9862C77.8011 43.4457 77.8011 33.9051 77.7973 24.3646C77.7973 24.213 77.8504 24.0481 77.7386 23.9098C77.8655 23.9174 77.8295 23.8321 77.8219 23.7639C78.0645 23.6654 78.3203 23.7128 78.5685 23.7128C80.9806 23.7071 83.3947 23.709 85.8068 23.7033C86.2691 23.7033 86.271 23.6919 86.2729 23.2334C86.2729 21.1396 86.2729 19.0458 86.2729 16.952C86.2729 16.8421 86.2635 16.734 86.2578 16.6241V16.6185Z" fill="#FDCF39"/>
</svg>
