<svg width="175" height="70" viewBox="0 0 175 70" fill="none" xmlns="http://www.w3.org/2000/svg">
<path d="M73.6701 10.1544C74.4143 9.76691 74.9022 9.15086 75.5963 8.81636C75.9754 8.63238 76.0478 8.65468 76.0618 9.03657C76.1733 11.9077 76.6109 14.751 76.7865 17.6166C76.7977 17.8173 76.9148 18.0013 76.859 18.3051C75.3482 17.7058 73.9182 17.0061 72.4714 16.3538C71.0247 15.7016 69.5891 15.027 68.1285 14.3189C68.2957 13.9482 68.672 13.8311 68.9452 13.6025C69.21 13.3795 69.4972 13.1872 69.8261 12.9419C69.3745 12.3788 68.7473 12.075 68.1201 11.8436C67.2002 11.5007 66.2748 11.1635 65.2657 11.1133C63.412 11.0185 61.7506 11.4924 60.2314 12.5544C59.1052 13.3405 58.3331 14.4444 57.4606 15.4618C55.6905 17.533 54.1546 19.7992 52.2981 21.7951C50.4834 23.7464 48.6492 25.6837 46.553 27.3479C44.6937 28.8253 42.7146 30.0992 40.5347 31.0553C38.8761 31.7828 37.1479 31.886 35.375 31.7187C34.3297 31.6184 33.2816 31.4009 32.3477 31.0051C29.3121 29.72 26.9399 27.6517 25.482 24.63C25.05 23.738 24.8047 22.7958 24.5426 21.8509C24.144 20.4181 24.1942 18.9602 24.3419 17.5246C24.459 16.3845 24.8437 15.2695 25.3092 14.1991C25.5908 13.5524 25.7831 12.8694 26.2179 12.2952C26.9483 11.3223 27.687 10.3802 28.6738 9.61917C30.3379 8.3369 32.1108 7.41981 34.1959 6.96823C36.7632 6.41351 39.1605 6.71177 41.5856 7.62051C43.5118 8.34248 45.0617 9.51603 46.4331 10.9851C47.1133 11.7126 47.7851 12.4485 48.4652 13.1761C48.6827 13.4102 48.7496 13.6388 48.5126 13.9064C47.5899 14.9406 46.6645 15.9692 45.753 17.1148C45.0394 16.1085 44.2003 15.3197 43.4505 14.45C42.5724 13.4297 41.5187 12.6436 40.3256 12.0527C37.0642 10.4387 33.5631 11.0966 31.2021 13.4492C30.0174 14.6311 29.3121 16.0305 28.9246 17.6389C28.565 19.1414 28.6403 20.6327 29.209 22.0237C29.97 23.8857 31.2383 25.3715 33.0585 26.3388C34.5555 27.1332 36.1332 27.4761 37.8057 27.1778C38.8343 26.9938 39.7653 26.506 40.6601 25.9792C42.8288 24.6997 44.7634 23.1359 46.4721 21.2738C49.3071 18.1797 51.9915 14.9629 54.6508 11.721C55.9275 10.1655 57.3686 8.808 59.2 7.91599C61.2572 6.91526 63.4454 6.43581 65.7089 6.64208C68.5884 6.9069 71.2477 7.81563 73.3662 9.91743C73.461 10.0122 73.5809 10.0847 73.6701 10.1516V10.1544Z" fill="#FDCF39"/>
<path d="M95.3936 23.1944C95.7476 22.7121 95.8006 22.241 96.0041 21.8369C96.8654 20.1225 97.7546 18.4221 98.6076 16.7022C99.4299 15.0464 100.213 13.3711 101.027 11.7125C101.306 11.1467 101.601 10.5892 101.941 10.0595C102.139 9.75012 102.231 9.39889 102.376 9.07832C102.638 8.50131 103.082 8.03579 103.288 7.41974C103.441 6.96538 103.951 6.88454 104.389 6.86502C105.153 6.83157 105.919 6.83994 106.686 6.83715C107.452 6.83715 108.216 6.83715 108.983 6.8483C109.604 6.85666 109.607 6.86224 109.61 7.45598C109.613 7.9884 109.61 8.52082 109.61 9.05324C109.607 16.3984 109.602 23.7407 109.599 31.0859C109.599 31.2253 109.585 31.3646 109.599 31.504C109.635 31.8692 109.482 31.9751 109.117 31.9723C107.77 31.9556 106.427 31.9779 105.08 31.9751C104.475 31.9751 104.47 31.9667 104.467 31.3646C104.453 28.2593 104.439 25.1568 104.431 22.0515C104.425 19.9469 104.431 17.8423 104.431 15.7266C104.227 15.721 104.222 15.9217 104.155 16.0471C102.959 18.3469 101.763 20.6494 100.576 22.9519C99.731 24.5909 98.8808 26.2244 98.0612 27.8746C97.5288 28.9423 96.6954 29.458 95.5079 29.4078C95.0563 29.3883 94.6019 29.4496 94.1615 29.2266C93.5705 28.9255 93.1914 28.46 92.8959 27.8914C91.5747 25.3185 90.2478 22.7456 88.9181 20.1755C88.2687 18.9211 87.6136 17.6723 86.9585 16.4207C86.8247 16.1642 86.6881 15.9078 86.3954 15.6987C86.4317 16.3231 86.4958 16.9113 86.4986 17.4995C86.5069 22.11 86.5069 26.7206 86.5041 31.3312C86.5041 31.911 86.493 31.8998 85.902 31.9361C84.6504 32.0141 83.3961 31.9807 82.1445 31.9639C81.2106 31.95 81.3556 32.0197 81.3556 31.1862C81.3528 24.0278 81.3556 16.8695 81.35 9.70831C81.35 8.91943 81.3193 8.13335 81.3193 7.34448C81.3193 6.8483 81.3333 6.83715 81.8183 6.83436C83.2567 6.83157 84.695 6.84551 86.1334 6.83436C86.9585 6.82879 87.4658 7.15214 87.8422 7.94101C88.8512 10.0595 89.9746 12.1251 91.0283 14.2241C91.5914 15.3447 92.1405 16.4764 92.7008 17.597C93.0799 18.3552 93.4786 19.1134 93.8967 19.8577C94.4793 20.8947 94.8946 22.0069 95.3936 23.186V23.1944Z" fill="#FDCF39"/>
<path d="M101.636 46.6935C101.304 47.3429 100.972 47.9952 100.638 48.6447C99.2634 51.2957 97.8864 53.9438 96.5121 56.5948C96.0773 57.4338 95.6675 58.2868 95.2271 59.1203C94.8731 59.7921 94.3685 60.3328 93.5936 60.4639C92.2639 60.6896 90.9203 60.6813 90.2235 59.2067C90.0423 58.822 89.7747 58.4763 89.6074 58.0861C89.2506 57.2526 88.7126 56.5139 88.353 55.6916C87.9461 54.7606 87.4108 53.902 86.9704 52.9905C85.9613 50.9054 84.8798 48.8594 83.8261 46.7966C83.7982 46.7408 83.7452 46.6962 83.7062 46.6461C83.5055 46.7213 83.5864 46.8858 83.6003 46.9973C83.7954 48.405 83.7202 49.8183 83.7257 51.2316C83.7341 54.9836 83.7313 58.7356 83.7313 62.4904C83.7313 63.1064 83.7313 63.1036 83.1459 63.1009C81.7772 63.0953 80.4086 63.0786 79.0399 63.0925C78.6914 63.0953 78.5437 63.02 78.5632 62.6381C78.5939 62.0388 78.5716 61.4339 78.5716 60.8318C78.5716 53.4895 78.5716 46.1443 78.5716 38.802C78.5716 37.9016 78.4907 38.041 79.3549 38.0382C80.7013 38.0298 82.0449 38.0521 83.3912 38.0298C84.1132 38.0187 84.5871 38.3197 84.9132 38.9581C86.6025 42.2947 88.3056 45.6258 90.006 48.9569C90.6081 50.1333 91.227 51.3012 91.8151 52.4859C92.0577 52.9738 92.3587 53.4476 92.3977 54.0191C92.4061 54.1417 92.5065 54.2337 92.6124 54.2672C92.7964 54.3229 92.8493 54.1557 92.8995 54.0358C94.4298 50.3953 96.4313 46.9889 98.1651 43.4516C98.8871 41.9769 99.6119 40.5051 100.39 39.0612C100.766 38.3587 101.262 38.0075 102.084 38.0298C103.475 38.0688 104.869 38.0382 106.26 38.041C106.834 38.041 106.832 38.0493 106.832 38.6013C106.832 46.2224 106.832 53.8435 106.832 61.4646C106.832 61.905 106.832 62.3454 106.846 62.7859C106.854 63.0256 106.748 63.1232 106.519 63.1204C105.011 63.1092 103.503 63.0953 101.995 63.0925C101.747 63.0925 101.666 62.9894 101.683 62.758C101.694 62.6186 101.683 62.4792 101.683 62.3399C101.683 57.6596 101.683 52.9821 101.683 48.3019C101.683 47.7667 101.697 47.237 101.836 46.7185C101.82 46.6684 101.811 46.5764 101.783 46.5708C101.697 46.5541 101.641 46.6043 101.638 46.7018L101.636 46.6935Z" fill="#FDCF39"/>
<path d="M16.8049 18.9684C17.3652 19.3252 17.959 19.4089 18.4914 19.6374C19.5506 20.089 20.3311 20.7162 20.8775 21.7922C21.5772 23.1665 21.6413 24.5463 21.3347 25.9623C20.8078 28.3875 19.2886 30.0182 17.0391 31.0301C15.3582 31.7855 13.5881 31.9778 11.7818 31.9834C8.79077 31.989 5.79975 31.9834 2.80873 31.989C1.85818 31.989 2.00871 31.9416 2.00871 31.2029C2.00313 25.0675 2.00313 18.9322 2.00592 12.7968C2.00592 10.9905 2.00592 9.1842 2.01428 7.38066C2.01428 6.86218 2.03101 6.84546 2.55785 6.84546C5.87223 6.84546 9.18939 6.84546 12.5038 6.87055C13.3567 6.87612 14.1902 7.0824 15.0321 7.22178C15.8627 7.35836 16.6432 7.60645 17.3987 7.91308C18.9374 8.53749 20.0385 9.6302 20.5319 11.2525C20.7381 11.9327 20.9305 12.6212 20.9416 13.3432C20.9695 15.4617 20.0719 17.0701 18.274 18.1796C17.8279 18.4555 17.3513 18.6813 16.8077 18.974L16.8049 18.9684ZM7.8681 24.4153H7.87089C7.87089 25.271 7.87089 26.1268 7.87089 26.9854C7.87089 27.5261 7.87646 27.5401 8.38379 27.5429C9.61309 27.554 10.8396 27.5596 12.0689 27.5485C12.4369 27.5457 12.816 27.5234 13.1756 27.4425C14.0787 27.2418 14.8927 26.8711 15.3387 25.993C15.8404 25.0062 15.8126 23.9804 15.4669 22.9602C15.2634 22.3581 14.7895 21.9567 14.2042 21.7448C13.6689 21.5525 13.1198 21.3573 12.5372 21.3546C11.1239 21.3462 9.71066 21.3601 8.29459 21.3462C7.96566 21.3434 7.84859 21.4382 7.85695 21.7783C7.87925 22.6563 7.86531 23.5372 7.86531 24.4153H7.8681ZM7.87089 14.2631C7.87089 15.0966 7.86531 15.93 7.87089 16.7635C7.87646 17.3823 7.88482 17.3991 8.48136 17.3935C9.82495 17.3795 11.1713 17.4687 12.5121 17.2764C13.4209 17.1454 14.2348 16.7914 14.6697 15.969C15.1073 15.1439 15.2328 14.2268 14.9233 13.2958C14.7421 12.7467 14.5693 12.1836 14.0425 11.8714C13.5519 11.5815 13.0334 11.3417 12.4424 11.286C11.0515 11.1606 9.66048 11.2971 8.2695 11.2107C7.96845 11.1912 7.86252 11.325 7.86531 11.6205C7.87646 12.5014 7.8681 13.3822 7.8681 14.2603L7.87089 14.2631Z" fill="#FDCF39"/>
<path d="M130.277 16.2674C130.257 16.3092 130.221 16.3482 130.224 16.3844C130.505 19.8075 130.305 23.239 130.355 26.6649C130.377 28.2621 130.349 29.8622 130.366 31.4594C130.369 31.8134 130.274 31.9667 129.909 31.9667C128.47 31.9612 127.032 31.964 125.594 31.9751C125.223 31.9779 125.106 31.7995 125.12 31.4622C125.131 31.2085 125.117 30.9521 125.117 30.6984C125.117 23.0773 125.112 15.4534 125.12 7.8323C125.12 6.73123 124.941 6.85109 126.129 6.83994C126.94 6.83158 127.754 6.85388 128.565 6.85109C129.218 6.85109 129.717 7.13263 130.112 7.63717C131.977 10.001 133.845 12.3648 135.715 14.7231C137.34 16.7747 138.974 18.818 140.602 20.8668C141.048 21.4271 141.449 22.0236 142.023 22.5979C142.023 22.3721 142.029 22.2048 142.023 22.0376C141.851 17.8228 141.976 13.6053 141.937 9.39053C141.931 8.69643 141.943 7.99955 141.929 7.30546C141.923 7.00162 141.987 6.82879 142.344 6.83158C143.805 6.84551 145.268 6.84551 146.729 6.84551C146.991 6.84551 147.108 6.94586 147.097 7.21347C147.08 7.58421 147.083 7.95495 147.083 8.32569C147.083 16.0165 147.083 23.7101 147.083 31.4009C147.083 31.9389 147.083 31.9444 146.576 31.9528C145.787 31.964 144.998 31.9389 144.209 31.9779C143.239 32.0281 142.522 31.6155 141.943 30.8852C141.137 29.8677 140.331 28.8503 139.526 27.8328C136.825 24.4153 134.124 20.9978 131.425 17.5747C131.127 17.1984 130.748 16.8862 130.53 16.4402C130.486 16.351 130.411 16.2367 130.268 16.2646L130.277 16.2674Z" fill="#FDCF39"/>
<path d="M172.959 24.3067C172.959 25.8817 172.951 27.4566 172.965 29.0316C172.968 29.4107 172.865 29.6421 172.524 29.8706C169.865 31.6352 166.924 32.3125 163.772 32.2373C162.868 32.215 161.954 32.1815 161.079 32.0003C160.257 31.8275 159.415 31.6352 158.634 31.3174C157.179 30.7264 155.833 29.932 154.64 28.8922C153.472 27.872 152.571 26.6538 151.858 25.2824C151.18 23.9834 150.79 22.6008 150.634 21.154C150.425 19.2279 150.525 17.3268 151.038 15.4424C151.994 11.9245 154.171 9.4269 157.408 7.85473C158.506 7.31953 159.719 7.04356 160.942 6.8568C161.508 6.77038 162.06 6.63101 162.637 6.60313C164.126 6.53066 165.603 6.58641 167.064 6.90697C168.982 7.32789 170.799 7.98575 172.357 9.22899C172.483 9.32934 172.611 9.43247 172.728 9.54119C173.054 9.84782 173.085 10.0625 172.831 10.4443C172.396 11.0994 171.95 11.7489 171.51 12.4012C170.849 13.3796 170.013 13.558 169.074 12.9615C167.925 12.2312 166.676 11.7656 165.347 11.5371C163.825 11.2778 162.297 11.3224 160.845 11.8911C158.854 12.6716 157.645 14.2103 156.981 16.1867C156.351 18.0682 156.365 20.0056 156.739 21.9318C157.207 24.3374 158.668 26.0434 160.808 27.1082C161.572 27.4873 162.456 27.7047 163.37 27.7382C164.683 27.7856 165.951 27.6741 167.192 27.2197C167.532 27.0943 167.669 26.9382 167.66 26.5758C167.641 25.628 167.641 24.6775 167.66 23.7269C167.669 23.3646 167.554 23.2308 167.186 23.2447C166.632 23.267 166.074 23.2447 165.517 23.2475C165.235 23.2503 164.956 23.2168 164.697 23.1109C164.304 22.952 164.048 22.6677 164.042 22.2189C164.028 21.2683 164.009 20.3206 164.017 19.37C164.023 18.8934 164.048 18.8934 164.555 18.8934C167.198 18.9017 169.843 18.9212 172.485 18.9073C172.87 18.9073 172.962 19.016 172.959 19.37C172.945 21.0147 172.954 22.6593 172.954 24.3039L172.959 24.3067Z" fill="#FDCF39"/>
<path d="M28.1418 50.9191C28.1056 50.5177 28.1028 50.1191 28.1558 49.7205L28.1753 49.6926L28.1558 49.6731C28.1391 48.2626 28.3565 46.9023 28.8833 45.5754C29.6861 43.5405 30.8681 41.8234 32.6186 40.4742C34.3831 39.1139 36.3678 38.3668 38.5421 37.9933C39.646 37.8038 40.7443 37.7647 41.8565 37.7452C42.6928 37.7285 43.4984 37.9097 44.3012 38.0825C44.5743 38.141 44.8447 38.1243 45.1151 38.1912C46.8434 38.6317 48.4239 39.3759 49.8539 40.4324C50.1299 40.6359 50.364 40.9007 50.64 41.1572C50.0797 41.9823 49.5334 42.7934 48.9814 43.6018C48.3793 44.4855 47.518 44.7224 46.6037 44.1872C45.943 43.7997 45.2712 43.4513 44.5604 43.167C43.8802 42.8966 43.1666 42.8046 42.4586 42.6624C41.6865 42.5063 40.9645 42.5286 40.2119 42.5955C39.0355 42.6987 37.9651 43.1029 37.0201 43.7858C35.3281 45.0067 34.4723 46.7155 34.1573 48.756C33.9371 50.172 33.9789 51.5797 34.2047 52.9707C34.4054 54.2112 34.9574 55.3401 35.7462 56.3297C36.8445 57.7039 38.2857 58.6099 40.0139 58.8245C41.6251 59.0224 43.2809 59.0447 44.8364 58.3479C45.1207 58.2196 45.2684 58.0747 45.2601 57.7374C45.2322 56.7422 45.2266 55.7443 45.2378 54.7492C45.2406 54.4342 45.1235 54.3589 44.8336 54.3617C44.0001 54.3701 43.1666 54.4147 42.3332 54.3199C41.9373 54.2753 41.5861 54.0077 41.5777 53.623C41.5499 52.5582 41.5554 51.4933 41.5415 50.4285C41.5387 50.1915 41.6335 50.0884 41.8704 50.1051C41.9847 50.1135 42.1018 50.1051 42.2189 50.1051C44.7946 50.1051 47.3702 50.1051 49.9431 50.1051C50.4978 50.1051 50.4951 50.0522 50.4951 50.6794C50.4867 53.8293 50.4811 56.9792 50.4951 60.1319C50.4951 60.5807 50.4588 60.8622 49.9403 61.0601C49.472 61.2413 49.0651 61.626 48.6135 61.8964C47.858 62.348 47.0302 62.6351 46.2023 62.8581C44.75 63.2483 43.2558 63.4184 41.7394 63.3766C41.1011 63.3598 40.4627 63.3208 39.8132 63.3989C39.3979 63.449 38.9435 63.226 38.5031 63.1424C37.8536 63.017 37.1734 62.9529 36.563 62.6323C36.1253 62.4037 35.6515 62.2504 35.2055 62.0358C34.7734 61.8295 34.2967 61.6594 33.9232 61.3946C33.2514 60.9207 32.4625 60.5695 31.9691 59.8699C31.8047 59.6385 31.6123 59.4406 31.4088 59.2622C30.3412 58.3256 29.6332 57.1576 29.0896 55.8586C28.7913 55.1422 28.5656 54.4091 28.3481 53.6704C28.0972 52.8174 28.2283 51.9393 28.1558 51.0752C28.1558 51.0278 28.1558 50.9776 28.153 50.9275L28.1418 50.9191Z" fill="#FDCF39"/>
<path d="M76.5975 63.0116C76.4386 63.059 76.3745 63.0925 76.3132 63.0925C74.6686 63.0925 73.0267 63.0897 71.3821 63.0757C71.2009 63.0757 71.0587 62.9977 70.8998 62.836C70.5486 62.4792 70.1109 62.1698 69.9855 61.6764C69.6733 60.4638 69.2189 59.2986 68.851 58.1056C68.6614 57.4923 68.6559 57.4923 68.0342 57.4923C65.2523 57.4923 62.4675 57.4923 59.6856 57.4923C59.05 57.4923 59.0528 57.4951 58.8354 58.1223C58.4173 59.3432 57.9963 60.5614 57.5754 61.7795C57.2799 62.6381 56.767 63.059 55.8639 63.0785C54.4506 63.1064 53.0345 63.0785 51.6212 63.0953C51.2951 63.098 51.2812 62.9308 51.3146 62.7078C51.3369 62.5573 51.3982 62.4095 51.4512 62.2646C51.9112 61.0604 52.3599 59.8506 52.8422 58.6519C54.0687 55.6135 55.1949 52.5361 56.4102 49.4949C57.6423 46.4147 58.7629 43.2926 59.9643 40.2013C60.1901 39.6187 60.4187 39.0389 60.6417 38.4535C60.7421 38.1859 60.9009 38.0214 61.2327 38.0242C62.9721 38.0381 64.7115 38.0354 66.4509 38.0242C66.7185 38.0242 66.8412 38.105 66.9415 38.3726C67.3206 39.3845 67.7499 40.3769 68.1429 41.3832C68.6503 42.6822 69.1409 43.9895 69.6426 45.2913C70.1611 46.6321 70.6852 47.9701 71.2092 49.3081C71.7472 50.688 72.2685 52.0761 72.8121 53.456C73.2915 54.6686 73.7403 55.8923 74.2198 57.1049C74.8665 58.7356 75.4853 60.3774 76.1264 62.0137C76.2575 62.3482 76.3216 62.705 76.5947 63.0088L76.5975 63.0116ZM67.315 53.5508C66.9722 52.5361 66.6042 51.5549 66.306 50.5514C65.6035 48.2043 64.5052 45.9826 64.0843 43.5463C64.0648 43.4404 64.0174 43.3651 63.9115 43.3846C63.8306 43.3986 63.7359 43.4264 63.7136 43.5435C63.4655 44.7951 62.947 45.9631 62.5679 47.1757C62.0438 48.8621 61.4111 50.5123 60.8452 52.1876C60.7002 52.6197 60.5079 53.0518 60.5107 53.548H67.315V53.5508Z" fill="#FDCF39"/>
<path d="M111.704 50.5848C111.704 46.6711 111.704 42.7574 111.704 38.8437C111.704 38.682 111.709 38.5203 111.704 38.3587C111.692 38.1301 111.779 38.0102 112.024 38.0297C112.164 38.0409 112.303 38.0297 112.442 38.0297C117.312 38.0297 122.182 38.0297 127.052 38.0297C127.169 38.0297 127.286 38.0437 127.4 38.0297C127.779 37.9796 127.866 38.1607 127.863 38.5092C127.846 39.6437 127.857 40.7782 127.855 41.9128C127.855 42.4731 127.849 42.4786 127.291 42.4814C124.345 42.4814 121.401 42.4814 118.455 42.4814C117.855 42.4814 117.555 42.7908 117.555 43.4097C117.555 44.8675 117.555 46.3282 117.555 47.7861C117.555 48.3464 117.518 48.3213 118.073 48.3213C120.253 48.3213 122.433 48.3213 124.613 48.3213C124.774 48.3213 124.939 48.3269 125.1 48.3213C125.335 48.3101 125.435 48.4189 125.438 48.6502C125.446 49.8767 125.46 51.106 125.471 52.3325C125.474 52.6921 125.251 52.7144 124.961 52.7144C122.664 52.7033 120.37 52.7033 118.073 52.7005C117.566 52.7005 117.56 52.7005 117.557 53.219C117.555 54.8413 117.557 56.4609 117.557 58.0832C117.557 58.624 117.502 58.6129 118.081 58.6129C121.05 58.6129 124.019 58.6129 126.988 58.6129C127.127 58.6129 127.269 58.6268 127.406 58.6129C127.785 58.5627 127.874 58.7439 127.868 59.0923C127.852 60.2491 127.866 61.4088 127.86 62.5656C127.86 63.0952 127.852 63.1036 127.319 63.1036C125.418 63.1036 123.517 63.0952 121.613 63.0952C118.553 63.0952 115.492 63.0952 112.428 63.0896C111.949 63.0896 111.709 62.8388 111.709 62.337C111.709 58.4233 111.709 54.5096 111.709 50.5959L111.704 50.5848Z" fill="#FDCF39"/>
<path d="M137.84 63.307C137.26 63.307 136.683 63.3014 136.103 63.307C135.621 63.3126 135.194 63.0784 134.746 62.9641C134.077 62.7941 133.433 62.5042 132.758 62.323C132.555 62.2673 132.424 62.1028 132.24 62.008C131.42 61.5927 130.651 61.0881 129.918 60.5278C129.477 60.1906 129.48 60.0958 129.784 59.647C130.221 59.0031 130.634 58.3424 131.041 57.679C131.236 57.3584 131.467 57.0964 131.788 56.8901C132.538 56.4051 133.173 56.8204 133.762 57.1828C134.495 57.6344 135.222 58.0999 136.019 58.4093C137.408 58.9473 138.829 58.9696 140.231 58.426C140.666 58.256 140.981 57.9159 141.252 57.5452C141.976 56.5473 141.709 54.9444 140.778 54.1193C140.187 53.598 139.479 53.4224 138.787 53.1437C137.427 52.5945 135.953 52.3994 134.617 51.7722C132.769 50.9053 131.345 49.6174 130.759 47.6188C130.428 46.4871 130.394 45.2968 130.573 44.1204C130.949 41.6591 132.357 39.981 134.506 38.7963C136.343 37.7844 138.314 37.5976 140.315 37.8095C141.834 37.9711 143.348 38.3307 144.736 39.0416C145.369 39.3649 145.96 39.7524 146.52 40.19C146.637 40.282 146.651 40.3573 146.595 40.5273C146.453 40.9677 146.247 41.3719 146.029 41.7733C145.812 42.1747 145.592 42.5761 145.374 42.9776C144.848 43.9588 143.967 44.1985 143.022 43.6075C142.277 43.142 141.497 42.7685 140.652 42.5232C139.512 42.1943 138.367 42.2054 137.274 42.6347C136.516 42.933 136.025 43.5741 135.939 44.4159C135.805 45.7177 136.184 46.2752 137.408 46.9303C138.584 47.5603 139.88 47.8362 141.112 48.2962C142.208 48.7031 143.334 49.0265 144.321 49.6955C146.077 50.8858 146.974 52.5304 147.078 54.6406C147.156 56.1988 146.838 57.6595 146.141 59.0477C145.489 60.3522 144.524 61.3334 143.259 62.0805C141.569 63.0756 139.766 63.4575 137.834 63.3098L137.84 63.307Z" fill="#FDCF39"/>
<path d="M120.337 19.4063C120.337 23.3674 120.337 27.3284 120.337 31.2895C120.337 31.3815 120.331 31.4763 120.34 31.5683C120.367 31.8303 120.264 31.9446 119.991 31.9446C119.503 31.9446 119.018 31.9808 118.53 31.9836C117.349 31.9892 116.164 31.9892 114.982 31.978C114.502 31.9753 114.494 31.9613 114.458 31.4791C114.433 31.1557 114.422 30.8324 114.422 30.509C114.419 23.005 114.416 15.5009 114.416 7.99413C114.416 6.84288 114.422 6.84009 115.553 6.84009C116.944 6.84009 118.338 6.84288 119.729 6.85403C120.334 6.8596 120.337 6.86796 120.337 7.45892C120.337 11.4423 120.337 15.4257 120.337 19.4119V19.4063Z" fill="#FDCF39"/>
<path d="M53.5029 25.8871C54.4172 24.7804 55.3343 23.7658 56.2793 22.779C56.5358 22.5114 56.7114 22.556 56.9678 22.7957C57.9463 23.7156 58.9107 24.6578 60.009 25.4383C61.0181 26.1547 62.0607 26.8097 63.3095 27.0467C65.5033 27.462 67.5326 27.1136 69.3835 25.809C70.4065 25.0871 71.2428 24.2034 71.856 23.1218C72.224 22.4696 72.5139 21.7727 72.6087 21.02C72.6365 20.7915 72.7257 20.7608 72.9125 20.7636C73.0575 20.7636 73.1801 20.8193 73.3083 20.8779C74.3927 21.3852 75.477 21.8953 76.567 22.3943C76.8095 22.5058 76.9349 22.6006 76.829 22.9128C76.1488 24.9337 75.0979 26.7122 73.5509 28.2007C71.9647 29.7227 70.0943 30.729 67.9953 31.3116C66.281 31.7883 64.5193 31.8691 62.777 31.5764C61.046 31.2865 59.4097 30.6621 57.949 29.653C56.3629 28.5575 54.9497 27.2558 53.5085 25.8871H53.5029Z" fill="#FDCF39"/>
<path d="M101.635 46.6937C101.635 46.5958 101.694 46.5455 101.781 46.5623C101.806 46.5679 101.817 46.6601 101.834 46.7105C101.769 46.7021 101.702 46.6965 101.638 46.6909L101.635 46.6937Z" fill="#FDCF39"/>
<path d="M28.1419 50.9194C28.1419 50.9698 28.1419 51.0201 28.1447 51.0677C28.1084 51.1292 28.0497 51.1711 28.0021 51.104C27.9714 51.0565 27.9658 50.9642 27.9909 50.9111C28.0245 50.8412 28.0916 50.8607 28.1392 50.9194H28.1419Z" fill="#FDCF39"/>
<path d="M28.1564 49.6735L28.176 49.6931L28.1564 49.7211C28.1144 49.7322 28.0641 49.7658 28.0361 49.7518C27.9886 49.7294 27.9886 49.6651 28.0361 49.6428C28.0641 49.6288 28.1144 49.6623 28.1564 49.6735Z" fill="#FDCF39"/>
</svg>
