<svg width="171" height="43" viewBox="0 0 171 43" fill="none" xmlns="http://www.w3.org/2000/svg">
<path d="M0.404928 22.8377C0.352525 22.328 0.838438 21.8992 0.638356 21.3657C1.3053 21.037 1.39105 20.2938 1.76739 19.7603C3.22989 17.688 5.22595 16.3398 7.62217 15.6157C8.91793 15.2203 10.2709 15.4156 11.6047 15.7062C12.891 15.9873 14.0677 16.5209 15.2491 17.0687C15.4635 17.1687 15.4492 17.2735 15.4397 17.4117C15.3777 18.2215 15.1491 18.979 14.6822 19.6555C14.5298 19.8794 14.3678 20.008 14.0581 19.7793C12.5385 18.6646 10.8711 18.1691 8.95605 18.474C7.34586 18.7313 5.99293 19.4649 4.82578 20.513C3.91112 21.3371 3.49191 22.4947 3.22513 23.6762C3.02981 24.5527 3.05363 25.4531 3.05363 26.3487C3.05363 30.1931 3.05363 34.0328 3.06316 37.8772C3.06316 38.063 2.98217 38.2774 3.20607 38.406C3.24418 38.5013 3.28706 38.5108 3.33946 38.4155C6.79802 38.406 10.2613 38.3917 13.7199 38.3869C21.6708 38.3774 29.6216 38.3726 37.5725 38.3869C38.1394 38.3869 38.2633 38.2011 38.2585 37.6724C38.2442 34.2043 38.349 30.7314 38.2204 27.2633C38.168 25.8008 38.4729 24.7052 39.6496 23.8191C40.0211 23.538 40.2593 23.0807 40.569 22.7139C40.6309 22.6424 40.6786 22.4709 40.8262 22.5424C40.8977 22.5757 40.9453 22.6948 40.9596 22.7806C41.1692 23.881 41.3121 24.991 41.3121 26.1057C41.3217 31.2221 41.3074 36.3385 41.3312 41.4549C41.3312 42.0027 41.1788 42.1551 40.6357 42.1551C27.7209 42.1361 14.8108 42.1361 1.89601 42.1313C1.26242 42.1313 0.628829 42.1313 0 42.1313V24.8338C0.238193 24.7671 0.447802 24.6718 0.447802 24.3812C0.447802 23.8619 0.543079 23.3427 0.400164 22.8282L0.404928 22.8377Z" fill="#FDCF39"/>
<path d="M41.1026 0.476146C41.3837 0.485673 41.3265 0.695283 41.3265 0.862018C41.3265 5.68304 41.3742 10.5088 41.298 15.3298C41.2741 16.7495 41.2456 18.2167 40.7263 19.584C39.6401 22.4566 37.7155 24.5336 34.8048 25.6865C33.5805 26.1724 32.3324 26.3867 31.0176 26.3772C29.1263 26.3629 27.5257 25.5912 25.9631 24.6432C25.663 24.4621 25.7535 24.2525 25.8107 24.0572C26.0203 23.3379 26.3633 22.6709 26.7158 22.0135C26.8587 21.7468 26.9588 21.7658 27.197 21.9468C27.9544 22.5233 28.769 23.0425 29.7075 23.2712C31.0176 23.5951 32.3229 23.5427 33.5853 23.0187C34.9096 22.4709 36.1625 21.8039 37.0105 20.5891C37.6298 19.7031 38.03 18.7169 38.1109 17.6451C38.4444 13.0718 38.1824 8.49371 38.2491 3.92041C38.2586 3.40115 37.968 3.42021 37.606 3.42021C31.594 3.42021 25.5772 3.42021 19.5653 3.42021C14.244 3.42021 8.92282 3.42497 3.60159 3.41068C3.11092 3.41068 2.93942 3.5393 2.968 4.03951C3.15855 7.2694 3.00611 10.5041 3.05375 13.7339C3.05375 13.9483 3.02517 14.1722 3.05851 14.3818C3.29671 15.8396 2.86796 17.0162 1.62936 17.888C1.31494 18.1072 1.13392 18.4692 0.92907 18.7932C0.824266 18.9599 0.767099 19.241 0.481268 19.1838C0.233548 19.1362 0.452685 18.8646 0.319297 18.7455C0.190673 18.6312 0.266895 18.4883 0.271659 18.3597C0.452685 18.0548 0.305006 17.7165 0.366936 17.4021C0.447921 16.9924 0.190673 17.1544 0.00488281 17.1925V0.366577C0.0429936 0.366577 0.0811045 0.376105 0.119215 0.380869C0.152562 0.438035 0.185909 0.495201 0.247839 0.409452C13.6009 0.404688 26.954 0.39516 40.3071 0.390396C40.5262 0.390396 40.7406 0.399924 40.9597 0.404688C41.0074 0.428507 41.055 0.452327 41.1026 0.476146Z" fill="#FDCF39"/>
<path d="M0.405046 22.8376C0.547962 23.3521 0.447921 23.8714 0.452685 24.3907C0.452685 24.6813 0.243075 24.7813 0.00488281 24.8432V23.4331C0.309769 23.3474 0.257367 23.0282 0.405046 22.8376Z" fill="#FDCF39"/>
<path d="M0.00488281 17.1926C0.185909 17.1545 0.443157 16.9926 0.366936 17.4022C0.305006 17.7167 0.452685 18.0549 0.271659 18.3598C0.181145 18.3598 0.095396 18.3598 0.00488281 18.3645V17.1879V17.1926Z" fill="#FDCF39"/>
<path d="M10.6327 4.60167C12.1 4.60167 12.8051 5.1257 13.1909 6.40717C13.2052 6.45957 13.2957 6.5215 13.2814 6.55009C12.886 7.39329 13.572 7.45998 14.0865 7.69818C16.0921 8.64142 17.5737 10.123 18.6455 12.038C19.665 13.8578 19.827 15.7777 19.6221 17.8166C19.4745 19.2934 18.96 20.6225 18.1549 21.7897C16.8019 23.7476 14.9774 25.1815 12.6383 25.9104C9.78954 26.7965 7.1599 26.2629 4.63982 24.8338C4.36828 24.6813 4.29206 24.5003 4.36828 24.1382C4.51119 23.4713 4.77797 22.8758 5.10668 22.2899C5.32105 21.9088 5.45444 21.7944 5.89271 22.1136C6.85977 22.8186 7.9364 23.2665 9.17501 23.3379C10.9472 23.4427 12.5621 23.0902 13.9817 22.0136C15.4681 20.8845 16.3494 19.4173 16.64 17.5641C16.9115 15.8491 16.6066 14.2866 15.6681 12.8384C14.9488 11.7284 13.9627 10.9138 12.7574 10.3421C12.3573 10.1516 12.1048 10.2325 11.8761 10.5851C11.2997 11.4616 10.3993 11.514 9.49895 11.4045C8.77961 11.3187 8.28893 10.828 8.01263 10.1897C7.86018 9.84191 7.67439 9.61801 7.35045 9.39411C6.60729 8.87961 6.08803 8.13645 6.20236 7.19321C6.31193 6.30237 6.83119 5.63066 7.70298 5.25908C7.90306 5.17333 8.08408 5.18286 8.27464 5.19239C8.77008 5.21144 9.22741 5.13999 9.64186 4.83986C9.97057 4.60167 10.3517 4.54451 10.6423 4.60167H10.6327Z" fill="#FDCF39"/>
<path d="M21.4947 25.4102C21.5328 23.7953 21.9187 22.3232 22.5475 20.9131C23.1811 19.4887 24.2625 18.4216 25.4582 17.4546C26.7254 16.4304 28.2022 15.7825 29.7981 15.5872C31.3034 15.4014 32.8326 15.5157 34.319 15.954C35.1812 16.2065 35.9244 16.7067 36.739 17.0497C37.082 17.1926 36.9581 17.4736 36.9105 17.6356C36.7104 18.3264 36.496 19.0171 36.0721 19.6221C35.8815 19.8984 35.6814 19.9508 35.4004 19.7412C33.4377 18.3073 31.2463 18.0834 29.0216 18.8647C26.492 19.7603 24.9866 21.5991 24.5769 24.2859C24.2196 26.625 25.0199 28.5544 26.6206 30.1979C27.1351 30.7267 27.7734 31.1268 28.469 31.446C28.9263 31.6556 29.1692 31.4984 29.4074 31.1697C30.2125 30.055 32.261 30.0645 32.9613 31.265C33.3043 31.8557 33.7521 32.2845 34.2427 32.718C35.0383 33.423 35.1812 34.3424 34.843 35.2809C34.5048 36.2242 33.6663 36.6243 32.7183 36.7101C32.1848 36.7577 31.7465 36.8482 31.2653 37.1484C30.3507 37.7057 28.3689 36.9102 28.145 35.7001C28.126 35.6096 28.0545 35.5144 28.0736 35.4286C28.2308 34.5521 27.6258 34.2805 26.9826 33.9661C24.0148 32.4988 22.3569 30.0359 21.6566 26.8918C21.5471 26.3963 21.4185 25.8675 21.4947 25.4055V25.4102Z" fill="#FDCF39"/>
<path d="M21.9902 19.4507C21.49 18.1025 21.4043 16.8544 21.5138 15.611C21.6282 14.3247 22.0283 13.1052 22.6667 11.9666C23.4813 10.5184 24.5389 9.28459 25.949 8.38899C26.5254 8.02217 27.1399 7.69347 27.7783 7.46004C28.1022 7.34094 28.1499 7.21232 28.1594 6.93601C28.2404 4.93519 29.8934 4.0253 31.7132 4.95901C32.0038 5.10669 32.3278 5.21626 32.6517 5.18768C33.7474 5.10193 34.4334 5.70694 34.8669 6.5692C35.2671 7.36476 35.1575 8.27942 34.5048 8.86537C33.7807 9.51326 33.3139 10.3612 32.5802 10.9758C31.5941 11.8094 30.0602 11.7475 29.3789 10.5947C29.1598 10.2231 28.8216 10.1993 28.4929 10.3803C26.4825 11.476 25.001 12.9766 24.7104 15.349C24.6151 16.1445 24.3578 16.8162 23.6861 17.3307C22.9858 17.8643 22.4761 18.5741 21.995 19.4459L21.9902 19.4507Z" fill="#FDCF39"/>
<path d="M19.7174 24.9101C19.7555 28.04 18.636 30.4933 16.4684 32.4703C15.6157 33.2468 14.6534 33.8995 13.5291 34.2616C13.1861 34.3711 13.0527 34.5521 13.0527 34.9333C13.0527 36.5577 11.6521 37.682 10.1087 37.1484C9.43219 36.915 8.77002 36.7864 8.07926 36.653C6.96452 36.4291 6.36427 35.5907 6.2023 34.5569C6.04509 33.5708 6.66439 32.8324 7.43137 32.2798C7.69815 32.0892 7.90776 31.8844 8.04115 31.6081C8.84148 29.9169 11.0138 29.855 11.9761 31.3127C12.1285 31.5414 12.3048 31.6128 12.5096 31.5176C14.4009 30.6267 15.83 29.2929 16.4541 27.2587C16.6161 26.7347 16.6304 26.1678 16.7542 25.6342C16.84 25.2626 17.0115 24.9482 17.3545 24.691C18.0119 24.1955 18.5026 23.5286 18.979 22.8664C19.0599 22.7521 19.1028 22.5996 19.26 22.6235C19.4363 22.652 19.4506 22.814 19.4935 22.976C19.6697 23.6715 19.7602 24.3718 19.7126 24.9053L19.7174 24.9101Z" fill="#FDCF39"/>
<path d="M56.9473 24C57.3522 23.0568 57.7238 22.2231 58.0715 21.3847C58.6908 19.8793 59.3054 18.3739 59.9056 16.859C59.9961 16.6256 60.1295 16.5113 60.3772 16.5113C60.8108 16.5113 61.249 16.5113 61.6825 16.5017C61.9588 16.497 62.1399 16.697 62.0684 16.8876C61.8874 17.3783 62.0684 17.8356 62.0732 18.3072C62.0827 20.6987 62.0732 23.0901 62.0636 25.4863C62.0636 26.0485 61.3967 26.4105 60.9013 26.1295C60.7012 26.0151 60.8012 25.8103 60.8012 25.6531C60.7917 23.3998 60.8012 21.1417 60.7917 18.8884C60.7917 18.6836 60.8536 18.4692 60.7202 18.2453C60.4439 18.3549 60.4725 18.6216 60.4011 18.817C60.0247 19.8459 59.6388 20.894 59.1815 21.8706C58.586 23.1521 58.2192 24.5336 57.4761 25.7484C57.3522 25.9532 57.3379 26.301 57.0044 26.239C56.7329 26.1866 56.4995 26.0294 56.3756 25.715C56.0088 24.7908 55.5896 23.8905 55.2275 22.9615C54.7035 21.6181 54.0413 20.3271 53.5983 18.9503C53.5459 18.7884 53.5173 18.574 53.2315 18.4644C53.2172 18.6979 53.1981 18.8979 53.1981 19.098C53.1981 21.237 53.1838 23.3712 53.2076 25.5102C53.2124 25.9913 53.0885 26.1723 52.5788 26.1533C52.1358 26.1342 51.9166 26.1057 51.9214 25.5578C51.9452 22.6947 51.9262 19.8317 51.9023 16.9686C51.9023 16.6256 52.0119 16.5017 52.3311 16.5065C52.3501 16.5065 52.3692 16.5065 52.3883 16.5065C53.6983 16.4207 53.7269 16.4064 54.2414 17.5926C55.1465 19.684 56.0183 21.7896 56.9473 24Z" fill="#FDCF39"/>
<path d="M144.187 19.889C144.106 19.4269 144.311 18.9457 144.049 18.417C143.63 18.9791 143.439 19.5936 143.196 20.1748C142.444 21.9851 141.696 23.7953 140.953 25.6056C140.833 25.8962 140.748 26.1534 140.324 26.1534C139.866 26.1534 139.766 25.8057 139.652 25.5389C138.685 23.2951 137.742 21.0418 136.808 18.7838C136.717 18.5599 136.665 18.5313 136.517 18.7123C136.417 18.7933 136.413 18.8743 136.517 18.96C136.527 21.0752 136.541 23.1951 136.551 25.3102C136.551 26.0868 136.146 26.3726 135.403 26.1296C135.126 26.0391 135.26 25.8343 135.26 25.6914C135.26 23.5762 135.288 21.4563 135.293 19.3411C135.293 18.517 135.264 17.6976 135.26 16.8735C135.26 16.7353 135.174 16.5114 135.422 16.5066C135.974 16.4971 136.527 16.5114 137.08 16.5352C137.251 16.54 137.241 16.7067 137.294 16.8354C138.232 19.0553 139.185 21.2753 140.133 23.4952C140.186 23.6238 140.209 23.7906 140.376 23.7572C140.452 23.7429 140.519 23.5953 140.562 23.5C141.372 21.5611 142.182 19.6174 142.987 17.6738C143.101 17.3927 143.296 17.1498 143.33 16.8354C143.344 16.7163 143.425 16.6019 143.554 16.5972C144.106 16.5876 144.659 16.5972 145.216 16.6019C145.35 16.6019 145.34 16.7163 145.35 16.8163C145.445 18.074 145.416 19.3268 145.373 20.5893C145.35 21.3181 145.464 22.0613 145.454 22.8045C145.445 23.7048 145.435 24.61 145.469 25.5103C145.497 26.2154 145.035 26.1058 144.587 26.1439C144.035 26.1916 144.159 25.8438 144.159 25.5532C144.168 23.7477 144.182 21.947 144.197 20.1415C144.297 20.1367 144.392 20.1034 144.363 19.989C144.354 19.9414 144.259 19.9176 144.201 19.8842L144.187 19.889Z" fill="#FDCF39"/>
<path d="M151.652 17.3164C151.643 17.1973 151.633 17.0782 151.629 16.9591C151.629 16.9163 151.624 16.8734 151.619 16.8305C151.61 16.6543 151.695 16.5971 151.867 16.6019C152.243 16.6114 152.619 16.6209 152.996 16.6019C153.305 16.5828 153.482 16.7067 153.653 16.9639C155.23 19.3315 156.816 21.6849 158.408 24.043C158.469 24.1335 158.555 24.205 158.765 24.4336C158.765 23.7095 158.765 23.1569 158.765 22.6043C158.765 21.1752 158.751 19.7412 158.765 18.3121C158.765 17.9405 158.703 17.5832 158.641 17.2259C158.565 16.7924 158.712 16.5352 159.213 16.6114C159.327 16.6304 159.451 16.6304 159.57 16.6114C159.999 16.5352 160.061 16.721 160.08 17.1211C160.208 19.6793 160.084 22.2423 160.142 24.8005C160.151 25.1625 160.094 25.5293 160.065 25.8914C160.061 25.9867 160.075 26.0819 159.965 26.1391C159.57 26.3439 158.422 26.0533 158.165 25.677C157.298 24.4146 156.435 23.1522 155.568 21.8945C154.858 20.8607 154.144 19.8365 153.444 18.798C153.344 18.6455 153.282 18.4502 153.067 18.5122C152.824 18.5884 152.977 18.7885 152.977 18.9457C152.977 19.2029 152.934 19.4602 152.939 19.7222C152.958 21.2085 153.001 22.6948 153.01 24.1811C153.01 24.7195 152.958 25.2625 152.939 25.8056C152.929 26.0581 152.796 26.1296 152.562 26.1486C151.772 26.2248 151.348 25.8247 151.543 25.0529C151.629 24.7195 151.629 24.4003 151.629 24.0811C151.643 22.1422 151.638 20.1986 151.638 18.2597C151.814 17.95 151.81 17.6404 151.657 17.326L151.652 17.3164Z" fill="#FDCF39"/>
<path d="M169.645 22.0422C169.074 22.0375 168.497 22.0089 167.925 22.0279C167.616 22.0375 167.492 21.9565 167.535 21.6421C167.554 21.4896 167.554 21.3277 167.535 21.1704C167.492 20.8417 167.606 20.7179 167.954 20.7322C168.745 20.7608 169.536 20.7465 170.326 20.756C170.755 20.756 171.022 20.8465 170.998 21.3991C170.946 22.5948 170.97 23.7906 170.989 24.9863C170.993 25.3245 170.903 25.5294 170.579 25.6485C168.735 26.3202 166.911 26.7489 164.972 25.9057C163.443 25.2388 162.58 24.0526 162.218 22.5424C161.713 20.4511 162.318 18.6123 164.019 17.245C164.662 16.7305 165.439 16.3447 166.334 16.3732C167.492 16.4066 168.678 16.216 169.764 16.8353C170.079 17.0116 170.35 17.2117 170.608 17.4832C170.579 17.5213 170.55 17.569 170.517 17.6023C169.879 18.2454 169.893 18.2121 169.04 17.8357C166.663 16.7877 163.976 17.6928 163.424 20.494C162.881 23.257 165.086 25.7295 167.959 25.1102C168.388 25.0196 168.84 25.0959 169.259 24.8672C169.55 24.71 169.717 24.5528 169.707 24.205C169.693 23.5571 169.707 22.914 169.717 22.2661C169.831 22.147 169.783 22.0803 169.645 22.047V22.0422Z" fill="#FDCF39"/>
<path d="M95.9824 16.3684C99.2837 16.3493 100.994 18.5026 101.018 21.2323C101.042 24.3431 99.0646 26.2962 95.8728 26.3486C93.2765 26.3915 91.1804 24.3097 91.0756 21.6229C90.947 18.2834 93.4147 16.1635 95.9824 16.3684ZM96.0681 17.4212C93.5623 17.5736 92.2713 19.1314 92.2952 21.3942C92.319 23.6475 93.6576 25.0767 95.7632 25.1577C98.0642 25.2482 99.884 23.8714 99.7315 20.7845C99.641 18.9313 98.1214 17.5022 96.0729 17.4164L96.0681 17.4212Z" fill="#FDCF39"/>
<path d="M121.373 20.7988C121.921 20.8369 122.521 20.5939 122.969 21.1608C123.084 21.3038 123.117 21.4133 123.107 21.5562C123.045 22.3709 123.193 23.1902 123.022 24.0001C122.988 24.1621 123.022 24.3383 123.074 24.5146C123.293 25.2625 123.074 25.6913 122.336 25.8771C121.326 26.1295 120.33 26.4154 119.258 26.3773C116.705 26.2867 114.766 24.5479 114.323 22.0279C114.051 20.4844 114.513 19.1314 115.371 17.9976C116.095 17.0401 117.205 16.3636 118.544 16.3684C119.706 16.3684 120.883 16.2302 121.974 16.821C122.093 16.8829 122.212 16.9401 122.321 17.021C122.55 17.1973 122.993 17.2783 122.669 17.6928C122.417 18.0167 122.193 18.4788 121.616 18.0977C120.411 17.3021 119.115 17.1973 117.777 17.7309C115.966 18.4454 115.161 20.5987 115.719 22.409C116.366 24.5289 118.358 25.5817 120.416 25.0815C120.53 25.0529 120.654 25.0815 120.768 25.072C121.688 24.9672 121.84 24.8004 121.845 23.8953C121.845 23.4237 121.831 22.952 121.845 22.4852C121.859 22.1327 121.712 21.9897 121.359 21.9993C120.845 22.0088 120.33 21.9993 119.816 21.9897C119.782 21.9564 119.744 21.9278 119.711 21.8945C119.701 21.7801 119.692 21.6658 119.687 21.5515C119.681 21.0243 119.95 20.7686 120.497 20.7845C120.783 21.1037 121.073 21.0846 121.369 20.7988H121.373Z" fill="#FDCF39"/>
<path d="M64.0736 26.1391C63.2161 26.1391 63.2161 26.1057 63.5257 25.3816C63.8306 24.6575 64.1355 23.9334 64.4166 23.1998C64.5833 22.771 64.8072 22.2994 65.0597 21.8706C65.8981 20.4129 66.5127 18.8456 67.1701 17.3021C67.3607 16.8591 67.556 16.5828 68.1324 16.5828C68.6755 16.5828 68.8374 16.8638 68.9899 17.2592C69.9427 19.746 71.1289 22.1279 72.1483 24.586C72.2579 24.848 72.4675 25.072 72.5056 25.3673C72.539 25.6246 72.8962 25.9104 72.5485 26.1248C72.1721 26.3582 71.3671 26.0676 71.2241 25.7198C71.1003 25.4197 70.9526 25.1291 70.824 24.8338C70.5096 24.1065 69.9617 23.746 69.1804 23.7524C68.1324 23.7619 67.0843 23.7857 66.0363 23.7857C65.7362 23.7857 65.6028 23.8667 65.517 24.1859C65.3932 24.6432 65.1169 25.0624 64.9787 25.515C64.8263 26.0342 64.5214 26.2296 64.0736 26.1391ZM67.999 22.6138C67.999 22.6138 67.999 22.6281 67.999 22.6329C68.1943 22.6329 68.3944 22.6329 68.5897 22.6329C68.8089 22.6329 69.0232 22.6376 69.2424 22.6329C69.895 22.6138 69.9284 22.5662 69.6902 21.9897C69.2233 20.875 68.7469 19.7603 68.2848 18.6407C68.2372 18.5217 68.18 18.4073 68.0752 18.3883C67.918 18.3644 67.8561 18.4931 67.7989 18.6312C67.294 19.8365 66.7795 21.0322 66.2793 22.2375C66.1792 22.4804 66.2554 22.6376 66.5794 22.6186C67.051 22.5947 67.5274 22.6138 67.999 22.6138Z" fill="#FDCF39"/>
<path d="M124.451 26.0199C125.49 23.8143 126.395 21.6039 127.414 19.4411C127.791 18.636 128.157 17.8118 128.457 16.9686C128.558 16.6923 128.667 16.5589 128.943 16.6113C129.291 16.678 129.725 16.3874 129.953 16.9353C130.458 18.1405 131.006 19.322 131.53 20.5177C132.197 22.0374 132.854 23.557 133.517 25.0767C133.54 25.1291 133.56 25.1815 133.579 25.2387C133.674 25.5293 134.012 25.8342 133.712 26.1152C133.431 26.3772 132.531 26.0771 132.354 25.7055C132.13 25.2196 131.916 24.7289 131.74 24.2287C131.621 23.881 131.421 23.7381 131.059 23.7381C129.791 23.7428 128.529 23.7524 127.262 23.7238C126.923 23.7142 126.747 23.8381 126.633 24.1239C126.457 24.567 126.238 24.9957 126.118 25.453C125.995 25.9199 125.752 26.0866 125.289 26.0295C125.037 26.0009 124.775 26.0247 124.446 26.0247L124.451 26.0199ZM130.601 22.6376C130.644 22.7138 130.687 22.7234 130.735 22.6424C131.159 22.5804 130.968 22.3423 130.887 22.1326C130.601 21.3895 130.211 20.6844 129.953 19.927C129.758 19.3458 129.486 18.7932 129.239 18.212C128.991 18.3835 128.953 18.6074 128.867 18.7884C128.372 19.8936 127.895 21.0036 127.405 22.1136C127.19 22.6043 127.319 22.8043 127.881 22.7186C128.786 22.5804 129.691 22.6852 130.596 22.6424L130.601 22.6376Z" fill="#FDCF39"/>
<path d="M86.2353 16.3779C87.3453 16.2588 88.3076 16.6352 89.1794 17.3116C89.3794 17.4688 89.6653 17.5689 89.4604 17.8928C89.2127 18.2834 88.6411 18.4692 88.3886 18.2358C86.9642 16.921 84.6537 17.3307 83.6057 18.5693C82.7339 19.5983 82.348 20.7702 82.6958 22.2327C82.953 23.3045 83.4294 24.0572 84.2774 24.6575C85.4064 25.4578 87.8217 25.3292 88.5839 24.1477C88.8316 23.7619 89.0984 24.143 89.308 24.2668C89.9082 24.6241 89.8939 24.7909 89.3556 25.1958C88.3457 25.9532 87.2405 26.3582 85.959 26.382C84.6966 26.4106 82.248 25.1529 81.6048 23.3808C80.795 21.1608 81.1713 19.1838 82.8673 17.5069C83.7819 16.6066 84.9395 16.2683 86.2353 16.3731V16.3779Z" fill="#FDCF39"/>
<path d="M73.3921 25.01C73.6208 24.8528 73.8875 24.7528 74.0209 24.5622C74.321 24.1382 74.5354 24.2621 74.8355 24.5622C75.4977 25.2244 77.1031 25.3006 77.8082 24.7623C78.3513 24.3479 78.6514 23.8286 78.4704 23.1712C78.3227 22.6329 77.8558 22.3804 77.327 22.1994C76.298 21.8516 75.2405 21.5372 74.3973 20.8226C73.9923 20.4796 73.8018 19.9413 73.7541 19.4411C73.5731 17.6404 74.564 16.4494 76.4505 16.2588C77.2175 16.1778 77.9844 16.2636 78.7228 16.5732C79.0182 16.6971 79.1849 16.921 79.4088 17.102C79.5994 17.2545 79.5613 17.3783 79.3945 17.5213C79.2469 17.6499 79.1039 17.788 78.9801 17.9405C78.7657 18.2025 78.5942 18.1787 78.3513 17.9548C77.7701 17.4212 76.4076 17.2735 75.7454 17.6642C75.1785 17.9929 74.9927 18.4978 75.0261 19.1457C75.0594 19.7746 75.4501 20.1366 75.9407 20.351C76.6315 20.6511 77.3747 20.8226 78.0892 21.0799C79.809 21.6944 80.4045 23.6809 79.0944 25.2244C78.418 26.02 77.4985 26.2629 76.4457 26.282C75.2071 26.301 74.221 25.9152 73.3921 25.01Z" fill="#FDCF39"/>
<path d="M105.11 21.9039C105.11 20.651 105.095 19.3981 105.119 18.1452C105.129 17.7546 104.981 17.6307 104.614 17.6403C103.942 17.6545 103.266 17.6164 102.599 17.6641C102.113 17.6974 101.999 17.5212 101.98 17.0686C101.961 16.5589 102.18 16.4922 102.613 16.4969C104.728 16.516 106.844 16.516 108.959 16.5017C109.359 16.5017 109.588 16.5827 109.607 17.0352C109.626 17.5116 109.345 17.6498 108.959 17.6593C108.306 17.6784 107.649 17.7117 107.006 17.6498C106.453 17.5974 106.377 17.807 106.381 18.2929C106.405 20.7034 106.381 23.1139 106.405 25.5197C106.41 26.0246 106.248 26.158 105.762 26.1485C105.305 26.139 105.095 26.077 105.119 25.5435C105.167 24.3335 105.133 23.1139 105.133 21.9039C105.129 21.9039 105.119 21.9039 105.114 21.9039H105.11Z" fill="#FDCF39"/>
<path d="M147.827 21.3038C147.827 19.8746 147.837 18.4455 147.818 17.0163C147.818 16.6781 147.913 16.559 148.247 16.6066C148.38 16.6257 148.528 16.6257 148.661 16.6066C149.056 16.5447 149.147 16.7067 149.142 17.083C149.123 19.6507 149.133 22.2184 149.133 24.7814C149.133 25.0958 149.133 25.4102 149.133 25.7199C149.142 26.3439 148.666 26.0915 148.361 26.1343C148.047 26.182 147.851 26.12 147.861 25.7103C147.885 24.2431 147.87 22.771 147.87 21.3038C147.856 21.3038 147.842 21.3038 147.827 21.3038Z" fill="#FDCF39"/>
<path d="M151.653 17.3164C151.805 17.6308 151.81 17.9452 151.634 18.2501C151.438 17.9357 151.419 17.6213 151.653 17.3164Z" fill="#FDCF39"/>
<path d="M121.374 20.7987C121.078 21.0846 120.788 21.0989 120.502 20.7845C120.793 20.7225 121.083 20.713 121.374 20.7987Z" fill="#FDCF39"/>
<path d="M144.187 19.8889C144.245 19.9223 144.34 19.9508 144.349 19.9937C144.378 20.1081 144.283 20.1414 144.183 20.1462C144.183 20.0604 144.183 19.9699 144.183 19.8842L144.187 19.8889Z" fill="#FDCF39"/>
<path d="M136.513 18.9648C136.408 18.879 136.418 18.798 136.513 18.717C136.513 18.798 136.513 18.8838 136.513 18.9648Z" fill="#FDCF39"/>
<path d="M169.645 22.0422C169.783 22.0803 169.831 22.147 169.716 22.2614C169.693 22.1899 169.669 22.1137 169.645 22.0422Z" fill="#FDCF39"/>
<path d="M119.711 21.8944C119.745 21.9279 119.783 21.9567 119.816 21.9902C119.716 22.0238 119.687 21.9902 119.711 21.8944Z" fill="#FDCF39"/>
<path d="M151.62 16.8304C151.62 16.8736 151.624 16.9167 151.629 16.9598C151.6 16.9502 151.567 16.9359 151.538 16.9263C151.567 16.8927 151.596 16.864 151.62 16.8304Z" fill="#FDCF39"/>
<path d="M41.1032 0.47672C41.0553 0.452763 41.0074 0.428806 40.9595 0.404849C41.0409 0.356935 41.0745 0.414432 41.1032 0.47672Z" fill="#FDCF39"/>
<path d="M0.248508 0.40973C0.181429 0.495975 0.147889 0.438478 0.119141 0.380981C0.162263 0.390564 0.205386 0.400147 0.248508 0.40973Z" fill="#FDCF39"/>
<path d="M3.34021 38.4203C3.28751 38.5162 3.24439 38.5066 3.20605 38.4108C3.24918 38.4108 3.29709 38.4156 3.34021 38.4203Z" fill="#FDCF39"/>
<path d="M130.606 22.6376C130.65 22.6376 130.697 22.6376 130.741 22.6424C130.693 22.7238 130.65 22.7142 130.606 22.6376Z" fill="#FDCF39"/>
</svg>
