<svg width="175" height="70" viewBox="0 0 175 70" fill="none" xmlns="http://www.w3.org/2000/svg">
<path d="M4.01139 50.3455C4.04577 50.3248 4.13172 50.3523 4.16611 50.3317C7.3119 50.3248 10.4543 50.3111 13.6001 50.3317C14.0539 50.3317 14.1536 50.2045 14.1261 49.7919C14.1089 49.5375 14.0642 49.4206 13.7926 49.4688C13.3491 49.5478 12.9124 49.4241 12.4827 49.3656C11.5441 49.2315 10.7362 48.9496 10.468 47.8701C10.358 47.4197 10.4371 46.9796 10.5677 46.5499C11.2622 44.2567 11.9532 41.967 12.7165 39.6945C12.8162 39.3988 12.9365 39.3232 13.215 39.3266C14.4871 39.3369 15.7591 39.33 17.0312 39.3335C18.7605 39.3335 20.4899 39.3335 22.2192 39.3369C22.4152 39.3369 22.6042 39.3025 22.6902 39.5776C22.9618 40.4302 23.254 41.2725 23.5497 42.1183C23.9382 43.2219 24.3645 44.3152 24.7152 45.4325C24.949 46.1717 25.2515 46.904 25.1759 47.7154C25.114 48.4202 24.8493 48.8877 24.1823 49.125C23.5841 49.3381 22.9652 49.4688 22.3326 49.4619C21.9235 49.455 21.9992 49.6957 21.9957 49.926C21.9888 50.1564 21.9476 50.3592 22.3258 50.3558C26.4858 50.3352 30.6458 50.3352 34.8058 50.3317C35.019 50.3317 35.184 50.3248 35.1221 50.0464C35.0705 49.8229 35.2871 49.4516 34.7955 49.4722C34.3554 49.4928 33.9188 49.4653 33.4925 49.3553C32.3889 49.0768 31.7185 48.3377 31.2199 47.3613C29.9891 44.9409 29.2396 42.3383 28.2907 39.8113C27.5584 37.8585 26.9087 35.8748 26.2107 33.9117C25.6194 32.2443 25.0143 30.5768 24.4126 28.9128C23.9313 27.5788 23.3984 26.2586 22.9755 24.9041C22.4564 23.2366 21.7997 21.6207 21.2531 19.9636C20.9437 19.025 20.6343 18.0693 20.2354 17.1513C19.9948 16.5944 19.8676 15.9893 19.6716 15.4151C19.6269 15.2845 19.62 15.1126 19.4206 15.0576C18.8293 14.896 18.4992 15.0679 18.3067 15.6592C17.8804 16.9622 17.461 18.2687 17.0278 19.5717C16.4605 21.2804 15.9173 22.996 15.3053 24.6909C14.463 27.0253 13.7651 29.4079 12.9331 31.7457C12.4518 33.0969 12.0323 34.4687 11.5613 35.8232C10.884 37.7657 10.2686 39.7254 9.66007 41.6885C9.16156 43.2975 8.56678 44.8721 7.96856 46.4467C7.71759 47.1068 7.36691 47.7326 6.87871 48.2483C6.11547 49.0596 5.12875 49.3794 4.02858 49.3931C3.5782 49.4 3.50257 49.4997 3.55757 49.9295C3.59539 50.2251 3.69166 50.3489 4.00796 50.3489L4.01139 50.3455ZM13.5485 37.0403C14.1811 35.5344 14.5318 33.9392 15.0475 32.3955C15.515 31.0066 15.9964 29.6245 16.4674 28.239C16.7733 27.3416 17.0106 26.4168 17.2822 25.5057C17.3269 25.3544 17.3888 25.2238 17.5091 25.0828C17.7188 25.3923 17.7944 25.7395 17.9113 26.0627C18.4855 27.6889 19.0424 29.3185 19.6132 30.9447C20.3008 32.9044 20.923 34.8881 21.7207 36.81C21.927 37.305 21.8719 37.3738 21.3425 37.3635C20.8577 37.3532 19.8126 37.3463 19.7747 37.3463C19.8126 37.3463 19.4688 37.3463 19.4309 37.3463C19.4688 37.3463 19.1628 37.3291 19.1456 37.336C19.1628 37.3291 18.8224 37.3291 18.8018 37.336C18.819 37.3291 18.4786 37.3291 18.458 37.336C18.4752 37.3291 18.1348 37.3291 18.1142 37.336C18.1314 37.3291 17.791 37.3291 17.7704 37.336C17.7876 37.3291 17.4472 37.3291 17.4266 37.336C17.4438 37.3291 17.1034 37.3291 17.0828 37.336C17.1 37.3291 16.7596 37.3291 16.739 37.336C16.7562 37.3291 16.378 37.3463 16.3402 37.3463C16.378 37.3463 16.0342 37.3463 15.9964 37.3463C16.0342 37.3463 15.6904 37.3463 15.6526 37.3463C15.6904 37.3463 15.35 37.3463 15.3088 37.3463C15.3466 37.3463 14.1398 37.3497 13.772 37.3635C13.5485 37.3704 13.4557 37.2535 13.545 37.0369L13.5485 37.0403Z" fill="#FDCF39"/>
<path d="M43.8802 47.6018C43.7392 48.2379 43.5192 48.7914 42.8556 49.0974C42.4499 49.283 42.058 49.3896 41.6145 49.3896C40.9063 49.3896 40.8788 49.424 40.8719 49.9809C40.8719 50.0394 40.896 50.0669 40.9544 50.0669C41.3085 50.0841 41.6661 50.1116 42.0202 50.115C44.1449 50.1219 46.2662 50.1219 48.3909 50.1253C48.4287 50.1253 48.4665 50.1253 48.5043 50.1219C48.8344 50.1047 48.7759 49.8675 48.7656 49.6578C48.7553 49.3999 48.5524 49.4618 48.4184 49.4756C48.1261 49.5099 47.8614 49.3965 47.5795 49.369C46.799 49.2968 46.0117 48.9977 45.7229 47.8803C45.5889 47.3577 45.5407 46.8352 45.5442 46.2919C45.5476 40.7636 45.5339 35.2318 45.527 29.7035C45.5785 29.6725 45.5854 29.645 45.527 29.6106C45.5407 29.4456 45.5545 29.284 45.5682 29.119C45.5992 29.119 45.6267 29.1121 45.6576 29.1087C45.7505 29.2909 45.857 29.4697 45.9292 29.6588C46.5137 31.2609 47.0878 32.8664 47.6757 34.4686C48.0849 35.5859 48.5524 36.6827 48.9272 37.8138C49.5667 39.7494 50.354 41.6334 51.0381 43.5518C51.5607 45.013 52.1039 46.4707 52.7056 47.9009C52.9772 48.5439 53.2144 49.2005 53.4757 49.8503C53.5204 49.9638 53.5754 50.0807 53.7439 50.0772C53.9226 50.0738 54.0017 49.9569 54.0498 49.8228C54.1839 49.4377 54.3077 49.0492 54.4418 48.6676C54.985 47.148 55.5729 45.6456 56.1264 44.1294C56.9206 41.9669 57.6907 39.7941 58.4849 37.6316C59.1691 35.7716 59.8945 33.9254 60.5615 32.0585C60.9775 30.893 61.3935 29.7275 61.8748 28.5861C61.9814 28.5139 62.0226 28.5827 62.0226 28.6755C62.0226 28.8165 62.0054 28.9574 61.9986 29.0984C61.9883 29.1052 61.9711 29.1156 61.9711 29.1224C61.9711 29.1431 61.9848 29.1637 61.9917 29.1878C61.9848 29.6003 61.9745 30.0094 61.9745 30.422C61.9745 35.249 61.9676 40.0794 61.9745 44.9064C61.9745 45.8347 61.9229 46.763 61.782 47.6775C61.6891 48.2757 61.4347 48.8086 60.7849 49.0802C60.2211 49.314 59.6504 49.4034 59.0556 49.3827C58.7771 49.3724 58.6981 49.4652 58.6843 49.7472C58.6637 50.1666 58.9422 50.0807 59.1622 50.0807C62.1223 50.0807 65.079 50.0703 68.0392 50.0703C68.4105 50.0703 68.4758 49.95 68.4105 49.5959C68.3383 49.2177 68.0804 49.4034 67.9154 49.3827C66.7259 49.2521 66.1895 49.1043 65.8217 47.8184C65.7426 47.5399 65.6669 47.2512 65.6601 46.9658C65.6394 45.3912 65.6463 43.8166 65.6291 42.2419C65.6085 40.2857 65.5913 38.3295 65.6119 36.3767C65.6429 33.6503 65.6291 30.924 65.6566 28.1976C65.6635 27.6922 65.6635 27.1903 65.7219 26.6814C65.8629 25.4162 66.6674 24.818 67.8742 24.7527C68.4139 24.7252 68.5067 24.598 68.3142 24.0479C68.2386 24.072 68.1698 24.0617 68.1045 24.0204C67.8913 24.0135 67.6782 24.0032 67.4685 23.9963C67.4306 23.9963 67.3894 23.9963 67.3516 23.9998C67.1247 24.0067 66.8943 24.0204 66.6674 24.0204C65.1925 24.0101 63.7176 23.9963 62.2392 23.9895C62.0914 23.9895 61.8301 23.9448 61.8439 24.1304C61.8748 24.5774 61.531 24.8593 61.4416 25.2443C61.3316 25.7119 61.2113 26.1829 61.0256 26.6264C60.589 27.675 60.2245 28.7511 59.8292 29.8135C59.3616 31.0752 58.9215 32.3473 58.4574 33.6091C57.9761 34.9224 57.4707 36.2288 56.9859 37.5422C56.6077 38.5598 56.2811 39.5947 55.8651 40.5951C55.4973 41.4718 55.2807 42.4001 54.8647 43.2837C54.7375 43.1083 54.6481 42.933 54.5759 42.7301C54.2389 41.7778 53.8848 40.8289 53.5376 39.8766C53.015 38.4464 52.4924 37.0161 51.9664 35.5859C51.4851 34.2692 51.0003 32.9558 50.5156 31.6391C50.0067 30.2673 49.4979 28.8955 48.9891 27.5238C48.6521 26.6127 48.274 25.7188 48.0505 24.7699C47.8855 24.072 47.7617 23.986 47.0363 23.986C45.1488 23.986 43.2613 23.9963 41.3773 23.9963C41.1366 23.9963 40.9063 23.9895 40.8719 24.2989C40.8375 24.6255 41.1332 24.7218 41.3326 24.7355C41.6867 24.7596 42.0202 24.8283 42.364 24.9074C43.196 25.0931 43.7495 25.5503 43.8561 26.3376C43.9489 27.0287 44.028 27.73 44.028 28.428C44.0418 34.1213 44.0486 39.8147 44.0177 45.5081C44.0142 46.1991 44.0211 46.9108 43.8698 47.5984L43.8802 47.6018Z" fill="#FDCF39"/>
<path d="M172.936 53.4155C172.877 53.1164 172.516 53.2264 172.279 53.2196C171.867 53.2058 171.451 53.2127 171.035 53.2127C115.538 53.2127 60.0379 53.2127 4.54127 53.2127C3.82616 53.2127 3.11105 53.2127 2.39594 53.2161C2.27217 53.2161 2.13121 53.1817 2.04182 53.309C1.93868 53.4602 2.04182 54.2613 2.18278 54.4229C2.37875 54.3266 2.58847 54.3197 2.80163 54.3197C10.379 54.3197 17.953 54.3197 25.5304 54.3197C74.3057 54.3197 123.078 54.3197 171.853 54.3197C172.135 54.3197 172.424 54.275 172.705 54.361C173.115 54.1272 172.998 53.7181 172.936 53.4087V53.4155Z" fill="#FDCF39"/>
<path d="M77.3619 50.098C79.3628 50.1049 81.3638 50.1118 83.3647 50.1186C83.6191 50.1186 83.877 50.1496 84.1314 50.1393C84.3755 50.1289 84.4442 49.9674 84.4511 49.7336C84.458 49.486 84.3308 49.4551 84.1314 49.462C83.6913 49.4723 83.2616 49.3829 82.8421 49.2798C82.4571 49.1835 82.1476 48.9428 81.9413 48.5715C81.6354 48.0214 81.7969 47.4851 81.9482 46.9522C82.4055 45.3329 82.8799 43.7136 83.3441 42.0977C83.4128 41.8536 83.5675 41.7917 83.8151 41.7952C85.4309 41.8055 87.0468 41.7952 88.6593 41.7952C89.1371 41.7952 89.615 41.8261 90.086 41.8192C90.3748 41.8158 90.478 41.8639 90.557 42.1149C90.8527 43.0638 91.1484 44.0127 91.475 44.9513C91.7707 45.8005 92.0698 46.6462 92.2898 47.5195C92.4376 48.1039 92.2898 48.6506 91.8772 48.9359C91.4578 49.2247 90.973 49.3244 90.478 49.376C90.2236 49.4035 90.0001 49.3691 90.007 49.7473C90.0138 50.1221 90.2579 50.0705 90.4745 50.0705C91.9047 50.0739 93.3315 50.0705 94.7617 50.0705C96.2057 50.0671 97.6497 50.0705 99.0937 50.0602C99.214 50.0602 99.3962 50.1358 99.4409 49.9192C99.4787 49.737 99.4031 49.5892 99.2965 49.4517C99.214 49.3451 99.0868 49.376 98.9768 49.3795C97.8732 49.4035 97.1684 48.8603 96.6939 47.8942C95.8241 46.1202 95.2809 44.2293 94.6414 42.3693C93.751 39.777 92.8777 37.1779 91.9873 34.5856C91.5919 33.4373 91.1759 32.2925 90.8149 31.1373C90.4848 30.0818 90.0895 29.0435 89.7835 27.9777C89.615 27.3933 89.4534 26.7675 89.1784 26.1865C88.8208 25.4302 88.6352 24.5947 88.3773 23.7971C88.2948 23.5461 88.1264 23.4499 87.8582 23.4705C87.6107 23.4877 87.4697 23.5633 87.4388 23.8315C87.4181 23.9931 87.3287 24.1443 87.2737 24.3025C86.7958 25.6777 86.4727 27.101 85.9982 28.4797C85.2969 30.5047 84.7296 32.5709 84.0523 34.6062C83.3819 36.6278 82.8387 38.6941 82.1201 40.7053C81.8279 41.527 81.6457 42.3831 81.3844 43.2151C80.9856 44.494 80.5283 45.7558 80.0814 47.0244C79.6035 48.379 78.8506 49.4104 77.2141 49.3863C77.0181 49.3863 76.9218 49.5135 76.8978 49.7129C76.8565 50.0774 77.0937 50.098 77.355 50.098H77.3619ZM84.0557 40.0658C84.4924 38.6941 84.9152 37.3189 85.3312 35.9402C85.761 34.51 86.177 33.0763 86.5964 31.6461C86.6102 31.5945 86.6033 31.5258 86.6343 31.488C86.7168 31.3848 86.6893 31.1648 86.868 31.1751C87.0262 31.1854 86.9815 31.3676 87.0227 31.4811C87.6003 33.0832 87.9992 34.7403 88.6042 36.339C89.0615 37.5458 89.4603 38.78 89.8832 40.004C89.9691 40.2549 89.9416 40.3581 89.6391 40.3512C88.7383 40.3374 87.841 40.3443 86.9402 40.3443C86.0532 40.3443 85.1697 40.3443 84.2826 40.3443C84.0695 40.3443 83.9732 40.3271 84.0557 40.0624V40.0658Z" fill="#FDCF39"/>
<path d="M103.313 29.604C103.313 29.8412 103.302 30.0681 103.66 30.044C103.973 30.0234 104.024 29.8859 104.014 29.5868C103.993 28.9026 104.076 28.2184 104.368 27.5893C105.011 26.2003 106.228 25.7293 107.651 25.6021C108.834 25.4955 110.017 25.5368 111.199 25.5402C111.519 25.4955 111.474 25.6846 111.416 25.8771C111.423 26.3172 111.437 26.7573 111.43 27.1973C111.354 33.8877 111.612 40.5816 111.285 47.2685C111.237 48.2828 111.003 49.0013 109.676 49.3073C109.147 49.4311 108.604 49.2867 108.085 49.4654C107.985 49.4998 107.895 49.4654 107.84 49.6202C107.717 49.9846 107.768 50.0877 108.256 50.0877C111.485 50.098 114.713 50.098 117.941 50.1015C118.168 50.1015 118.395 50.074 118.622 50.0602C118.815 50.0465 118.842 49.9124 118.839 49.7577C118.835 49.6064 118.808 49.4758 118.612 49.4654C118.23 49.4414 117.852 49.4001 117.47 49.3761C116.631 49.321 115.954 49.0563 115.59 48.2106C115.339 47.6295 115.28 47.0176 115.26 46.4228C115.205 44.9651 115.26 43.5039 115.26 42.0427C115.267 36.5935 115.27 31.1442 115.273 25.6949C115.243 25.6434 115.26 25.609 115.318 25.5952C115.356 25.578 115.394 25.5402 115.428 25.5402C116.972 25.5333 118.526 25.4233 120.039 25.7912C120.792 25.9734 121.5 26.2966 121.936 27.0083C122.418 27.799 122.669 28.6654 122.689 29.5799C122.7 29.9581 122.951 29.9856 123.181 30.0268C123.49 30.0819 123.463 29.8309 123.463 29.6349C123.463 27.8884 123.463 26.1419 123.463 24.3954C123.463 24.2681 123.487 24.1375 123.391 24.0309C123.332 24.0309 123.274 24.024 123.219 24.0206C122.617 24.055 122.019 24.055 121.417 24.0206H121.328C121.242 24.0206 121.159 24.0206 121.073 24.0206C121.046 24.0206 121.015 24.0206 120.984 24.0206C120.898 24.0206 120.444 24.0206 120.386 24.0206C120.355 24.0206 120.327 24.0206 120.296 24.0206C118.495 24.055 116.693 24.0756 114.892 24.0137C114.854 24.0137 114.816 24.0137 114.778 24.0137C114.713 24.0137 114.644 24.0103 114.579 24.0069C114.503 24.0069 114.424 24.0069 114.349 24.0103C114.311 24.0103 114.273 24.0069 114.235 24.0034C114.16 24.0034 114.084 24.0069 114.008 24.0103C113.967 24.0103 112.389 23.969 112.324 24.0172C112.265 24.0172 108.432 24.0687 106.658 24.0137C106.589 23.969 106.383 24.0137 106.348 24.0103C106.269 24.0103 103.447 23.8281 103.309 24.0722C103.213 24.2406 103.316 24.5191 103.316 24.746C103.316 26.3653 103.316 27.9847 103.316 29.6005L103.313 29.604Z" fill="#FDCF39"/>
<path d="M133.292 49.2969C132.855 49.3829 132.408 49.4413 131.964 49.4585C131.676 49.4688 131.607 49.5754 131.61 49.8333C131.614 50.1117 131.751 50.1392 131.992 50.1392C134.251 50.1324 136.506 50.1392 138.765 50.1392C139.807 50.1392 140.852 50.1221 141.894 50.1221C142.138 50.1221 142.272 50.0464 142.261 49.7783C142.251 49.5376 142.127 49.4413 141.904 49.4723C141.515 49.5273 141.147 49.3932 140.766 49.3726C139.975 49.3244 139.391 48.7847 139.147 48.0524C138.94 47.4266 138.861 46.8112 138.868 46.1443C138.902 42.9778 138.885 39.8114 138.885 36.6484H138.871C138.871 33.7811 138.871 30.9138 138.871 28.0465C138.871 27.5136 138.854 26.9669 138.999 26.4512C139.195 25.7464 139.511 25.1242 140.329 24.9385C140.838 24.8216 141.35 24.7666 141.869 24.7597C142.093 24.7563 142.258 24.715 142.261 24.4366C142.261 24.1581 142.117 24.1099 141.88 24.1134C141.178 24.1203 140.477 24.1134 139.772 24.1134C137.173 24.1099 134.571 24.1065 131.971 24.0962C131.744 24.0962 131.6 24.0962 131.61 24.4022C131.617 24.6738 131.683 24.7632 131.961 24.7769C132.422 24.801 132.882 24.856 133.336 24.9419C134.203 25.107 134.815 25.7946 134.877 26.661C134.956 27.7405 135.048 28.82 135.045 29.9065C135.035 34.7885 135.038 39.6739 135.045 44.5559C135.045 45.5701 134.987 46.5809 134.883 47.5882C134.787 48.5199 134.24 49.1216 133.295 49.3038L133.292 49.2969Z" fill="#FDCF39"/>
<path d="M151.733 36.9647C151.733 36.9887 151.747 37.0094 151.754 37.03C151.754 37.5663 151.754 38.1061 151.754 38.6424C151.744 38.6528 151.727 38.6631 151.73 38.6699C151.737 38.6906 151.751 38.7112 151.761 38.7353C151.768 39.3954 151.819 40.0486 151.95 40.6984C152.228 42.077 152.586 43.4385 153.277 44.6624C153.817 45.6148 154.432 46.5293 155.199 47.3406C156.388 48.5955 157.819 49.4585 159.4 50.0945C161.016 50.7443 162.708 50.8887 164.433 50.6687C166.012 50.4658 167.459 49.9501 168.703 48.9325C170.061 47.822 171.038 46.4193 171.839 44.8893C171.921 44.7312 171.901 44.5077 171.64 44.4046C171.416 44.3186 171.296 44.3049 171.189 44.5662C170.931 45.2022 170.45 45.7076 170.089 46.2852C169.694 46.9143 169.126 47.4025 168.559 47.8701C167.38 48.8431 166.015 49.345 164.471 49.3485C164.323 49.3932 164.172 49.3932 164.024 49.3485C163.158 49.29 162.309 49.1869 161.473 48.8946C159.94 48.3549 158.795 47.3819 158.018 45.9964C157.434 44.9547 156.945 43.882 156.743 42.6684C156.605 41.8536 156.364 41.0284 156.344 40.2136C156.299 38.4465 156.237 36.6759 156.392 34.9053C156.488 33.8086 156.646 32.7222 156.859 31.6529C157.114 30.3774 157.551 29.1466 158.19 27.9949C158.946 26.6334 160.043 25.6639 161.525 25.1791C162.525 24.8525 163.567 24.7734 164.633 24.9213C166.183 25.1344 167.473 25.8152 168.514 26.9428C169.48 27.988 170.031 29.2532 170.299 30.6421C170.378 31.0478 170.412 31.4604 170.491 31.8661C170.539 32.1033 170.722 32.2511 170.959 32.2477C171.138 32.2477 171.182 32.0792 171.261 31.9177C171.399 31.6289 171.23 31.3951 171.227 31.1407C171.217 30.2399 171.151 29.3426 171.083 28.4452C170.969 26.9669 170.952 25.4851 170.9 24.0033C170.89 23.7489 170.842 23.5289 170.553 23.4945C170.271 23.4601 170.12 23.5564 170.02 23.883C169.872 24.3643 169.903 25.0313 169.102 25.076C168.886 25.0863 168.724 25.0244 168.552 24.9625C167.325 24.5121 166.166 23.8727 164.849 23.6905C163.808 23.5461 162.759 23.4911 161.717 23.6905C160.493 23.9242 159.307 24.268 158.224 24.9144C156.808 25.7567 155.56 26.7709 154.594 28.1186C153.978 28.9781 153.48 29.903 153.088 30.8759C152.906 31.3298 152.693 31.7801 152.552 32.2511C152.191 33.4579 151.967 34.6956 151.792 35.9367C151.747 36.2599 151.727 36.9716 151.73 36.9784L151.733 36.9647Z" fill="#FDCF39"/>
<path d="M115.27 25.6961C115.283 25.6625 115.296 25.6288 115.313 25.5985C115.259 25.6153 115.239 25.6456 115.27 25.6961Z" fill="#FDCF39"/>
</svg>
