<svg width="175" height="70" viewBox="0 0 175 70" fill="none" xmlns="http://www.w3.org/2000/svg">
<path d="M20.2992 27.1963C20.7522 27.2823 21.0108 27.502 21.0222 27.8914C21.0279 27.9414 21.0337 27.9914 21.0379 28.0414C21.0379 32.5599 21.0365 37.0784 21.0351 41.5981C21.0294 41.6469 21.0251 41.6958 21.0194 41.7457C20.4264 42.7327 19.8219 42.5502 19.1374 42.0154C18.4001 41.4388 17.6956 40.8332 16.9626 40.2531C14.1418 38.0177 11.3682 35.7428 8.53175 33.5248C6.34402 31.8148 4.2606 30.0164 2 28.3692C2 28.0984 2 27.8263 2 27.5555C2.18719 27.4369 2.37581 27.3183 2.56301 27.1998C8.47459 27.1998 14.3862 27.1975 20.2978 27.1963H20.2992Z" fill="#FDCF39"/>
<path d="M75.8512 27.217V36.4191C75.8884 36.4261 75.927 36.4342 75.9641 36.4412C76.4057 35.753 76.8558 35.0683 77.2873 34.3755C78.149 32.9933 79.0107 31.6111 79.8437 30.2173C80.0038 29.9488 80.1953 29.9023 80.5325 29.8639C81.83 29.7151 82.5973 30.0441 83.1303 31.1124C83.9706 32.7957 85.0737 34.3929 86.0697 36.025C86.1083 36.0889 86.2069 36.1285 86.2769 36.1785C86.2926 36.2703 86.2697 36.4063 86.3326 36.4423C86.4598 36.5156 86.5555 36.3924 86.5741 36.3145C86.6098 36.1657 86.6027 36.0087 86.6027 35.8553C86.6041 34.2557 86.6098 32.6573 86.6027 31.0578C86.5955 29.807 86.5712 28.5562 86.5541 27.3065C86.5484 27.2716 86.5584 27.2391 86.5813 27.2089C87.7673 27.2123 88.9533 27.2147 90.1379 27.2182C90.1379 32.247 90.1379 37.2758 90.1379 42.3047C88.9462 42.3151 87.753 42.3256 86.5613 42.3361C85.9654 41.4537 85.3238 40.5958 84.7836 39.6833C83.9105 38.2058 82.8888 36.7864 81.9372 35.3392C81.7528 35.0602 81.6228 34.7556 81.4185 34.4871C81.3427 34.3883 81.3613 34.1872 81.1484 34.1941C80.9655 34.1999 80.9212 34.3464 80.844 34.4685C79.8152 36.1006 78.7735 37.728 77.7346 39.3555C77.1073 40.3389 76.4771 41.3201 75.847 42.3035C74.6595 42.3105 73.4706 42.3163 72.2832 42.3233C72.256 42.2942 72.2431 42.2617 72.246 42.2245C72.266 41.9943 72.3046 41.7653 72.306 41.5351C72.3089 36.9492 72.316 32.3632 72.296 27.7773C72.2946 27.3286 72.4232 27.1717 72.9991 27.1972C73.9479 27.2391 74.901 27.2135 75.8527 27.217H75.8512Z" fill="#FDCF39"/>
<path d="M41.4446 27.196C42.3048 27.4936 42.4477 28.0598 41.7503 28.6201C40.3657 29.7314 38.9896 30.852 37.5721 31.9378C35.7888 33.3025 34.1026 34.7498 32.3607 36.1505C29.9158 38.1163 27.4551 40.0669 25.0116 42.0326C24.6258 42.343 24.1185 42.4162 23.6984 42.3174C23.2711 42.2163 23.1382 41.8315 23.1397 41.4212C23.1582 36.991 23.1539 32.562 23.1454 28.1318C23.1454 27.7319 23.1997 27.382 23.7098 27.1995C29.6214 27.1984 35.533 27.1972 41.4446 27.196Z" fill="#FDCF39"/>
<path d="M62.3187 27.1787C63.2304 27.596 63.309 28.0715 62.576 28.6609C58.8392 31.66 55.1082 34.6638 51.3672 37.6595C49.4939 39.1603 47.6034 40.6471 45.7214 42.142C45.087 42.6454 44.3739 42.478 44.1039 41.7595C44.1139 41.6828 44.1339 41.6073 44.1339 41.5305C44.1353 37.0922 44.1367 32.6528 44.1339 28.2145C44.1339 28.0668 44.1953 27.9018 44.021 27.782C44.171 27.4728 44.3525 27.1915 44.8341 27.1799C45.0941 27.1892 45.3556 27.2066 45.6157 27.2066C49.9226 27.2078 54.2309 27.2101 58.5377 27.2066C59.7981 27.2066 61.0584 27.1892 62.3173 27.1787H62.3187Z" fill="#FDCF39"/>
<path d="M169.845 42.3491C168.609 40.9821 167.57 39.5115 166.432 38.0922C165.173 36.5205 163.922 34.943 162.663 33.3714C162.617 33.3144 162.521 33.2842 162.295 33.1517V42.3084C161.112 42.3084 159.928 42.3073 158.744 42.3061C158.736 39.8103 158.72 37.3145 158.719 34.8186C158.719 32.2845 158.733 29.7491 158.74 27.2149C159.789 27.2091 160.838 27.2033 161.887 27.1975C163.174 28.854 164.465 30.5094 165.749 32.1671C166.715 33.4121 167.673 34.6629 168.643 35.9056C168.729 36.0148 168.881 36.0892 169.003 36.1799C169.13 36.3147 169.023 36.6344 169.317 36.5972C169.61 36.56 169.426 36.2892 169.456 36.1229C169.462 36.0904 169.43 36.0532 169.416 36.0183C169.424 33.0819 169.434 30.1444 169.443 27.208C170.629 27.2115 171.815 27.2149 173 27.2184C173 32.2473 173 37.2761 173 42.3049C171.948 42.3201 170.895 42.334 169.843 42.3491H169.845Z" fill="#FDCF39"/>
<path d="M132.738 27.1987C136.011 27.3358 138.163 28.7052 138.861 31.3533C139.362 33.2586 139.264 35.1872 139.035 37.118C138.956 37.7829 138.814 38.4304 138.536 39.0419C137.525 41.2657 135.395 42.2038 132.61 42.3421C132.4 42.3317 132.189 42.3131 131.979 42.3119C129.664 42.3073 127.348 42.3061 125.033 42.3038C125.181 42.0155 125.148 41.7121 125.148 41.411C125.156 36.6798 125.163 31.9485 125.17 27.2161C127.692 27.2103 130.216 27.2033 132.738 27.1975V27.1987ZM135.415 33.8492C135.464 33.7701 135.421 33.7271 135.328 33.7015C135.321 33.3935 135.348 33.0819 135.301 32.7774C135.043 31.0883 134.61 29.8584 132.029 29.7375C131.064 29.6096 130.1 29.6189 129.135 29.7317C129.091 29.7329 129.052 29.7456 129.019 29.7677C128.789 29.8921 128.889 30.0839 128.887 30.2455C128.874 30.8256 128.882 31.4068 128.882 31.9869C128.882 34.4443 128.879 36.9018 128.889 39.3581C128.889 39.5441 128.744 39.8754 129.137 39.8696C130.241 39.8521 131.357 40.0253 132.45 39.7719C133.546 39.6999 134.335 39.2628 134.81 38.4549C135.191 37.805 135.267 37.1029 135.324 36.3996C135.52 36.2985 135.467 36.1601 135.41 36.0218C135.411 35.2976 135.414 34.5734 135.415 33.8492Z" fill="#FDCF39"/>
<path d="M145.176 39.5392C144.787 40.4622 144.4 41.3863 144.011 42.3093C142.679 42.3105 141.346 42.3128 140.014 42.314C140.224 41.434 140.691 40.6214 141.039 39.7786C141.949 37.5699 142.918 35.3775 143.867 33.1793C144.635 31.3996 145.398 29.6175 146.197 27.8471C146.292 27.639 146.207 27.3774 146.463 27.217C147.695 27.2135 148.928 27.21 150.16 27.2065C150.67 28.0517 150.96 28.9642 151.353 29.8453C152.673 32.8085 153.969 35.7786 155.261 38.7499C155.776 39.9321 156.253 41.1248 156.747 42.3117C155.414 42.3082 154.082 42.3047 152.749 42.3024C152.357 41.3805 151.966 40.4587 151.576 39.5368C151.52 39.3846 151.36 39.4101 151.226 39.4101C149.328 39.4078 147.43 39.4078 145.533 39.4101C145.394 39.4101 145.241 39.3973 145.176 39.538V39.5392ZM150.486 36.7213C149.864 35.1939 149.119 33.7001 148.594 32.147C148.545 32.0029 148.484 31.8669 148.306 31.8715C148.083 31.8762 148.063 32.0436 148.006 32.1993C147.438 33.7106 146.85 35.2159 146.267 36.7237C146.057 36.955 146.277 36.9783 146.472 36.9794C147.741 36.9852 149.011 36.9841 150.281 36.9794C150.481 36.9794 150.691 36.9515 150.487 36.7225L150.486 36.7213Z" fill="#FDCF39"/>
<path d="M102.279 27.2181C104.471 32.247 106.663 37.2758 108.856 42.3047C107.521 42.314 106.187 42.3221 104.852 42.3314C104.469 41.4026 104.088 40.4738 103.705 39.5438C103.693 39.5264 103.683 39.4961 103.67 39.495C101.543 39.3636 99.415 39.3276 97.2873 39.5124C96.8186 40.4191 96.4828 41.3607 96.1313 42.3C94.9753 42.3047 93.8178 42.3105 92.6618 42.3128C92.4403 42.3128 92.1645 42.3732 92.1445 42.0756C93.0734 39.9053 94.045 37.7466 94.9138 35.56C95.3082 34.5684 95.7569 33.5861 96.1999 32.6166C97.0215 30.823 97.5846 28.9525 98.5977 27.2158C99.8252 27.2158 101.051 27.2158 102.279 27.217V27.2181ZM102.577 36.8469C102.034 35.2554 101.243 33.7315 100.615 32.1633C100.568 32.0459 100.67 31.8273 100.337 31.8541C100.061 31.8762 100.167 32.0563 100.125 32.161C99.5136 33.7187 98.9135 35.2799 98.3119 36.8399C98.3219 36.9306 98.3905 36.9759 98.4948 36.9759C99.7909 36.9782 101.088 36.9782 102.384 36.9771C102.487 36.9771 102.56 36.9364 102.577 36.848V36.8469Z" fill="#FDCF39"/>
<path d="M122.284 27.217C122.632 28.6852 121.805 29.8407 120.906 31.0392C118.781 33.8745 116.769 36.7667 114.713 39.6357C114.559 40.1135 115.035 39.8763 115.192 39.8763C117.648 39.8926 120.105 39.8879 122.561 39.8879C122.562 40.6935 122.565 41.498 122.567 42.3036C118.293 42.3036 114.017 42.3036 109.743 42.3036C109.736 41.7223 109.693 41.1411 109.733 40.5622C109.775 39.9658 110.332 39.5462 110.673 39.0626C111.888 37.341 113.26 35.6903 114.399 33.9384C115.326 32.5109 116.578 31.2485 117.415 29.7849C117.228 29.5513 116.939 29.6698 116.704 29.6675C114.382 29.6501 112.059 29.6466 109.737 29.6396C109.737 28.8317 109.74 28.025 109.742 27.217C113.921 27.217 118.103 27.217 122.282 27.217H122.284Z" fill="#FDCF39"/>
</svg>
