<svg width="171" height="38" viewBox="0 0 171 38" fill="none" xmlns="http://www.w3.org/2000/svg">
<path d="M61.6187 9.86058C61.7222 8.83822 61.5732 7.84728 61.2046 6.8951C60.6922 5.57315 59.8228 4.51098 58.6966 3.64679C58.0755 3.17018 57.4057 2.77422 56.6969 2.44111C55.6362 1.9425 54.5281 1.5853 53.3808 1.34124C52.4269 1.13802 51.4729 0.941089 50.4926 0.907569C50.2908 0.900237 50.089 0.881382 49.8873 0.866716C49.8196 0.861479 49.7394 0.875096 49.7288 0.774536H46.0335C45.9828 0.875096 45.8845 0.849956 45.8011 0.856241C45.275 0.894999 44.7489 0.930614 44.2228 0.969372C43.328 1.03432 42.4406 1.15373 41.5564 1.29934C40.6817 1.44389 39.8049 1.57692 38.9355 1.75919C37.354 2.0923 35.7842 2.4694 34.2302 2.91144C32.9298 3.28121 31.6378 3.67822 30.3606 4.12131C27.09 5.25471 23.889 6.55466 20.7684 8.0484C19.5219 8.64548 18.2922 9.27712 17.0752 9.93077C16.8808 10.0355 16.8301 10.1832 16.7963 10.3655C16.6262 11.2779 16.4572 12.1902 16.284 13.1026C16.078 14.1878 15.872 15.272 15.6607 16.3562C15.5846 16.7479 15.5149 17.1397 15.4325 17.5304C15.3797 17.7787 15.3174 18.0363 15.311 18.2951C15.3596 18.3066 15.3871 18.2898 15.4093 18.2605C15.9882 17.4948 16.7139 16.9019 17.5643 16.4525C18.0534 16.1948 18.5848 16.0723 19.1225 15.9885C20.1282 15.8314 21.1223 15.9047 22.091 16.22C22.8305 16.4599 23.4697 16.8652 24.0264 17.4016C25.0574 18.3956 25.5254 19.6296 25.5941 21.027C25.6321 21.7927 25.6047 22.5584 25.4483 23.3137C25.3416 23.8301 25.2117 24.3413 25.0004 24.8273C24.975 24.8849 24.9655 24.9425 24.9486 25.0002C24.9655 25.0012 24.9835 25.0033 25.0004 25.0043C24.9835 25.0043 24.9655 25.0022 24.9486 25.0002C24.7764 25.4181 24.5514 25.8109 24.337 26.209C23.9619 26.7442 23.5679 27.2638 23.0798 27.7079C21.8217 28.8518 20.3628 29.4918 18.6345 29.5149C17.745 29.5264 16.8872 29.4164 16.0611 29.0781C15.6205 28.8979 15.2339 28.6277 14.8272 28.3899C14.655 28.1165 14.3465 27.9793 14.1648 27.7006C14.0349 27.5016 13.8901 27.312 13.7824 27.0983C13.7623 27.0595 13.738 27.0229 13.6567 27.0051C13.5701 27.5047 13.4834 28.0044 13.3968 28.503C13.4274 28.4988 13.457 28.4936 13.4866 28.4883C13.5458 28.4768 13.6049 28.4632 13.6662 28.4559C13.6049 28.4632 13.5468 28.4768 13.4866 28.4883C13.457 28.4946 13.4274 28.4999 13.3968 28.503C13.3292 28.6633 13.3524 28.8382 13.3091 29.0037C13.2584 29.1954 13.269 29.1985 13.0725 29.1985C12.2474 29.1985 11.4224 29.2006 10.5973 29.1985C10.4853 29.1985 10.3691 29.2174 10.254 29.164C10.2677 29.0875 10.2815 29.011 10.2931 28.9356C10.3068 28.8497 10.3184 28.7649 10.3311 28.679C10.516 27.8996 10.6111 27.1056 10.7589 26.32C10.9153 25.4862 11.0547 24.6492 11.2026 23.8144C11.4604 22.3615 11.7213 20.9086 11.9759 19.4557C12.0383 19.0975 12.0837 18.7329 12.1576 18.3789C12.2369 17.9965 12.3024 17.6132 12.371 17.2298C12.6309 15.7947 12.8823 14.3586 13.139 12.9235C13.1644 12.7789 13.2035 12.6365 13.2309 12.4919C13.2468 12.4081 13.2764 12.3222 13.2362 12.2321C13.1475 12.1976 13.0862 12.2719 13.0345 12.3086C12.3784 12.781 11.6759 13.1885 11.041 13.6882C10.8202 13.862 10.5868 14.0213 10.3596 14.1836C10.0121 14.4319 9.67191 14.6917 9.3328 14.9504C8.99263 15.2102 8.67043 15.4982 8.33555 15.7633C7.99855 16.0304 7.72706 16.374 7.34675 16.5887C7.28759 16.6222 7.23794 16.6767 7.19146 16.7291C6.96116 16.9867 6.67276 17.1837 6.44458 17.4466C6.32098 17.5891 6.1509 17.6896 6.00723 17.8153C5.82869 17.9704 5.69453 18.1652 5.53395 18.337C5.27513 18.6156 4.99307 18.8733 4.74165 19.1582C4.41311 19.5301 4.10146 19.9177 3.78982 20.3031C2.84751 21.4669 2.00872 22.6977 1.3453 24.0396C0.813923 25.1143 0.401923 26.2289 0.192755 27.4115C0.148385 27.6598 0.126201 27.9112 0.095565 28.1615C0.0807753 28.282 0.0533087 28.3972 0.000488281 28.5072V30.0743C0.0247857 30.0439 0.0702112 30.0271 0.0839445 30.0606C0.113524 30.1319 0.133596 30.2094 0.140991 30.2859C0.201206 30.8693 0.368118 31.4255 0.581513 31.9681C0.831882 32.6019 1.15409 33.1958 1.6263 33.6997C1.94745 34.1354 2.34466 34.4926 2.78307 34.8079C2.89188 34.9232 3.02604 35.007 3.15492 35.096C3.92504 35.6229 4.75961 36.0262 5.63431 36.3488C7.49359 37.0349 9.42682 37.3513 11.396 37.4885C12.2728 37.5492 13.1517 37.5492 14.0296 37.5419C14.6349 37.5367 15.2413 37.5451 15.8445 37.4738C16.1646 37.4592 16.4868 37.4592 16.8048 37.4246C17.0794 37.3942 17.3604 37.4026 17.6309 37.3293C17.6657 37.3481 17.6985 37.346 17.7302 37.3219C17.7672 37.3198 17.8031 37.3177 17.8401 37.3167C18.1802 37.2842 18.5225 37.2643 18.8605 37.2151C19.7817 37.081 20.704 36.9501 21.6209 36.7909C23.1443 36.5258 24.6497 36.1781 26.1466 35.7947C28.6397 35.1557 31.0885 34.3764 33.4981 33.4745C36.3114 32.4207 39.0548 31.2108 41.7212 29.8333C42.4618 29.451 43.1907 29.0488 43.9238 28.6528C44.0696 28.5742 44.0686 28.5669 43.9682 28.4443C43.8636 28.3176 43.7548 28.1971 43.6756 28.0494C43.4157 27.5634 43.2953 27.0491 43.2963 26.4991C43.2974 25.7931 43.3925 25.1018 43.5351 24.4104C43.739 23.4247 43.8995 22.4306 44.0844 21.4407C44.2344 20.6373 44.3929 19.836 44.5471 19.0336C44.5841 18.8419 44.5767 18.8304 44.3686 18.8293C43.7622 18.8283 43.1548 18.8314 42.5484 18.8293C42.4459 18.8293 42.336 18.8586 42.2579 18.7885C42.3688 18.1558 42.4998 17.5377 42.5832 16.9113C42.6171 16.7521 42.6614 16.5939 42.6815 16.4337C42.7016 16.2797 42.7766 16.2378 42.9266 16.2399C43.5213 16.2472 44.1172 16.243 44.713 16.243C44.7742 16.243 44.8355 16.242 44.8968 16.2409C44.9686 16.2409 45.0066 16.2105 45.0172 16.1351C45.0669 15.802 45.1207 15.4689 45.1725 15.1369C45.1883 15.0688 45.2074 15.0017 45.219 14.9336C45.3468 14.1805 45.4736 13.4263 45.6014 12.6721C45.6225 12.5457 45.6989 12.4797 45.8306 12.4741C45.875 12.472 45.9183 12.4731 45.9627 12.4731C46.8237 12.4741 47.6846 12.4762 48.5456 12.4772C48.59 12.4772 48.6333 12.4772 48.6777 12.4772C48.759 12.4752 48.7854 12.5181 48.7749 12.5914C48.7675 12.6428 48.759 12.6941 48.7506 12.7454C48.6248 13.508 48.4991 14.2695 48.3734 15.0321C48.3121 15.3453 48.254 15.6585 48.1875 15.9707C48.1304 16.2409 48.1262 16.242 48.4051 16.242C48.8784 16.243 49.3506 16.242 49.8239 16.242C50.1915 16.242 50.5591 16.2399 50.9278 16.243C51.0884 16.2451 51.0958 16.2566 51.0651 16.4064C51.0356 16.551 51.0007 16.6945 51.0028 16.8422C50.894 17.4236 50.7863 18.0039 50.6774 18.5852C50.632 18.8262 50.631 18.8283 50.3732 18.8283C49.5724 18.8283 48.7717 18.8262 47.972 18.8283C47.7364 18.8283 47.7322 18.8304 47.6889 19.0629C47.5853 19.6181 47.4871 20.1754 47.3825 20.7305C47.1121 22.1656 46.8374 23.6007 46.568 25.0368C46.5236 25.2756 46.4941 25.5187 46.512 25.7638C46.5384 26.1262 46.6472 26.4457 46.9832 26.6489C47.0825 26.7086 47.1638 26.7243 47.2695 26.65C47.6646 26.3745 48.0871 26.1388 48.4875 25.8706C50.875 24.2721 53.1251 22.506 55.2031 20.5273C55.4873 20.2571 55.7778 19.9899 56.0292 19.6862C56.2954 19.3468 56.6208 19.0619 56.906 18.7403C57.0751 18.6093 57.2124 18.4501 57.3265 18.271C57.5758 18.0175 57.7839 17.7315 58.0058 17.456C58.1727 17.2486 58.3681 17.0611 58.4949 16.8223C58.5287 16.7835 58.5657 16.7458 58.5963 16.7039C59.0632 16.0608 59.5058 15.4029 59.9115 14.72C60.8095 13.2115 61.4338 11.612 61.6123 9.85744L61.6187 9.86058ZM40.5792 21.3747C40.5475 22.0441 40.4842 22.7114 40.3352 23.3671C40.3278 23.4006 40.3246 23.4362 40.3162 23.4698C40.2789 23.629 40.1739 23.7082 40.0014 23.7075C36.9579 23.7075 33.9144 23.7054 30.8698 23.7065C30.5 23.7065 30.5022 23.6573 30.5138 24.0564C30.5434 25.0483 30.9733 25.8266 31.8111 26.3776C32.6572 26.9338 33.5932 27.0721 34.5873 26.9716C35.4726 26.8825 36.2448 26.54 36.9389 26.0016C37.1607 25.8298 37.3836 25.6632 37.5685 25.4485C37.6889 25.3081 37.7206 25.305 37.841 25.4307C38.3323 25.9429 38.89 26.385 39.3992 26.8773C39.5239 26.9977 39.5239 27.0019 39.4056 27.1234C38.965 27.576 38.496 27.9971 37.9572 28.3333C36.9758 28.9461 35.9215 29.3641 34.7616 29.5107C33.6302 29.6542 32.5157 29.5976 31.4181 29.2886C30.8656 29.1326 30.3479 28.8948 29.8651 28.5847C28.5584 27.7446 27.8295 26.5327 27.5632 25.0379C27.3731 23.9705 27.4608 22.9083 27.6699 21.8493C27.7671 21.359 27.9045 20.8824 28.1231 20.4393C28.2816 20.1188 28.4369 19.793 28.6292 19.4892C28.6883 19.395 28.739 19.2954 28.794 19.198C29.226 18.668 29.6771 18.1547 30.1483 17.6572C30.387 17.5367 30.5645 17.3324 30.7895 17.1931C31.4381 16.793 32.0921 16.4054 32.8432 16.2179C33.7432 15.9927 34.6538 15.8596 35.5835 15.9225C36.792 16.0042 37.9213 16.3101 38.8784 17.0915C39.3876 17.5063 39.8038 17.9913 40.0827 18.5894C40.4958 19.4767 40.6247 20.4121 40.5792 21.3758V21.3747Z" fill="#FDCF39"/>
<path d="M75.6055 16.2304C74.7434 16.2294 73.8814 16.2304 73.0194 16.2304C72.975 16.2304 72.9317 16.2325 72.8873 16.2315C72.8039 16.2294 72.7616 16.265 72.7489 16.3509C72.6961 16.7018 72.6391 17.0517 72.5841 17.4026C72.5472 17.6341 72.5102 17.8666 72.4732 18.0981C72.4669 18.1411 72.4595 18.1924 72.4098 18.1997C72.3655 18.206 72.3296 18.1704 72.3021 18.1358C72.2862 18.1159 72.2788 18.0897 72.2651 18.0678C71.9957 17.6781 71.7697 17.2528 71.3408 16.9982C71.326 16.9899 71.3143 16.9752 71.3006 16.9637C70.8949 16.6369 70.4544 16.3561 69.9611 16.1948C68.854 15.8324 67.7204 15.802 66.5742 15.9989C65.2305 16.2304 64.1001 16.8663 63.1113 17.7692C62.749 18.1002 62.4299 18.4721 62.169 18.8879C61.8003 19.3646 61.5288 19.8915 61.3292 20.4561C61.3154 20.477 61.2964 20.4969 61.2869 20.521C60.652 22.1321 60.4513 23.7892 60.8369 25.4841C61.1306 26.7715 61.8405 27.8074 62.9497 28.5575C63.3501 28.8277 63.7874 29.0393 64.2533 29.1702C64.7498 29.3096 65.2463 29.4457 65.7745 29.4688C66.664 29.5075 67.5282 29.4038 68.3522 29.0854C69.2068 28.7554 69.9727 28.2778 70.5738 27.5718C70.6097 27.5288 70.6319 27.4586 70.7122 27.4712C70.7492 27.5204 70.7249 27.5697 70.7122 27.6178C70.6425 27.8829 70.5569 28.1447 70.5041 28.4129C70.4576 28.6475 70.4122 28.8769 70.3351 29.1084C70.2294 29.4258 70.1491 29.7506 70.0224 30.0627C69.81 30.5844 69.5776 31.084 69.1931 31.5167C68.6511 32.1263 67.9888 32.5306 67.2102 32.7433C66.0703 33.0554 64.9305 32.9978 63.8064 32.6532C62.9159 32.3798 62.1447 31.9105 61.5225 31.2139C61.3852 31.0599 61.3809 31.0662 61.2447 31.216C60.9024 31.59 60.5591 31.9629 60.2157 32.3358C59.9432 32.6322 59.6706 32.9276 59.3991 33.2241C59.2586 33.377 59.2597 33.3781 59.4181 33.5289C59.6019 33.7049 59.7942 33.8693 60.0023 34.016C61.0133 34.7283 62.1447 35.1651 63.3427 35.4479C63.6575 35.5223 63.9713 35.6072 64.2987 35.6166C64.3315 35.6271 64.3632 35.6438 64.397 35.648C65.2072 35.735 66.0186 35.7486 66.8288 35.6438C67.3063 35.625 67.7669 35.5202 68.2265 35.3977C69.9569 34.9336 71.3154 33.9835 72.2598 32.4563C72.8884 31.4402 73.2412 30.3256 73.5413 29.1881C73.7578 28.3668 73.8339 27.5194 74.0124 26.6908C74.1497 26.056 74.2279 25.4076 74.3399 24.7676C74.5269 23.6908 74.7191 22.616 74.9082 21.5402C75.0773 20.5818 75.2431 19.6222 75.4111 18.6638C75.5389 17.9358 75.652 17.2057 75.803 16.4818C75.8548 16.2346 75.8484 16.2315 75.6065 16.2304H75.6055ZM71.6049 22.9072C71.4781 23.6007 71.2129 24.2239 70.8316 24.8001C70.1703 25.7994 69.2734 26.4897 68.0733 26.7516C67.7627 26.8196 67.4479 26.8469 67.131 26.8437C66.7602 26.8427 66.3968 26.8071 66.0376 26.7023C65.1724 26.4499 64.604 25.8727 64.2512 25.0829C63.9311 24.3664 63.8846 23.608 63.9649 22.8318C64.0315 22.1918 64.192 21.579 64.472 21.005C65.0763 19.7658 66.026 18.912 67.3951 18.5664C68.0257 18.4071 68.6659 18.3893 69.3008 18.5433C70.0107 18.7151 70.5928 19.0849 71.0534 19.6558C71.513 20.2256 71.7073 20.8813 71.7306 21.5926C71.7454 22.0336 71.6873 22.4673 71.607 22.9072H71.6049Z" fill="#FDCF39"/>
<path d="M112.289 16.9113C111.44 16.2127 110.438 15.9047 109.353 15.8837C108.28 15.8628 107.25 16.0597 106.327 16.6568C105.928 16.9155 105.538 17.1889 105.226 17.5409C105.015 17.7776 104.758 17.9829 104.618 18.2783C104.602 18.3129 104.581 18.359 104.521 18.3569C104.454 18.3192 104.453 18.2417 104.43 18.1809C104.044 17.1764 103.317 16.5248 102.309 16.1655C101.393 15.8387 100.455 15.8104 99.5051 15.9948C99.0899 16.0754 98.7022 16.2242 98.3398 16.4431C98.1391 16.5636 97.9775 16.728 97.7937 16.8652C97.4408 17.1282 97.1366 17.434 96.8788 17.7871C96.7679 17.9389 96.6549 18.0887 96.5228 18.2689C96.4858 18.1327 96.5133 18.0416 96.5239 17.9505C96.5883 17.433 96.6517 16.9155 96.7204 16.3981C96.7362 16.2745 96.7024 16.2273 96.5693 16.2273C95.6724 16.2315 94.7745 16.2315 93.8776 16.2294C93.7603 16.2294 93.7054 16.2608 93.7001 16.3897C93.68 16.8726 93.5955 17.3492 93.5184 17.8248C93.4054 18.5182 93.2944 19.2117 93.1624 19.902C92.9669 20.9254 92.7937 21.953 92.612 22.9785C92.5169 23.5179 92.4187 24.0564 92.3236 24.5958C92.1694 25.4694 92.0172 26.3431 91.8619 27.2167C91.7552 27.8159 91.6422 28.414 91.5387 29.0142C91.5017 29.23 91.5102 29.2363 91.732 29.2363C92.6469 29.2363 93.5617 29.2363 94.4766 29.2331C94.6963 29.2331 94.71 29.2321 94.7438 29.0111C94.8009 28.6434 94.8812 28.2799 94.9498 27.9154C95.0512 27.3769 95.14 26.8375 95.2372 26.298C95.4992 24.8378 95.7537 23.3765 96.0274 21.9184C96.1911 21.0437 96.5799 20.2665 97.1979 19.6191C97.875 18.91 98.7011 18.5214 99.7089 18.5926C100.303 18.6345 100.795 18.8607 101.125 19.3761C101.219 19.5238 101.272 19.6883 101.335 19.8485C101.512 20.2979 101.515 20.7651 101.418 21.2271C101.368 21.4659 101.302 21.71 101.266 21.9467C101.17 22.5794 101.067 23.2121 100.954 23.8416C100.909 24.0962 100.882 24.3507 100.793 24.6011C100.733 24.7729 100.769 24.9782 100.726 25.1667C100.524 26.0644 100.425 26.9799 100.217 27.8777C100.128 28.2621 100.065 28.6612 100.028 29.0592C100.012 29.2279 100.01 29.2342 100.187 29.2342C101.147 29.2373 102.105 29.2342 103.064 29.2394C103.202 29.2394 103.245 29.1881 103.258 29.0603C103.287 28.7837 103.321 28.503 103.382 28.238C103.454 27.9269 103.52 27.6137 103.578 27.2994C103.757 26.3001 103.925 25.2987 104.098 24.2983C104.191 23.7599 104.302 23.2236 104.377 22.682C104.4 22.5113 104.376 22.329 104.44 22.1709C104.538 21.9299 104.594 21.6775 104.667 21.4303C104.876 20.7211 105.256 20.1125 105.74 19.5647C106.032 19.2347 106.42 19.0252 106.819 18.844C107.014 18.7549 107.223 18.6848 107.434 18.645C108.197 18.5025 108.914 18.6062 109.554 19.0755C109.934 19.483 110.138 19.9669 110.19 20.5168C110.203 21.0615 110.145 21.6 110.048 22.1342C109.912 22.8832 109.779 23.6332 109.624 24.3779C109.559 24.6932 109.573 25.0243 109.438 25.3249C109.472 25.7491 109.275 26.143 109.27 26.563C109.27 26.6049 109.261 26.6531 109.239 26.6887C109.14 26.849 109.143 27.0365 109.128 27.2093C109.105 27.4807 109.051 27.7425 108.993 28.0065C108.966 28.1259 108.925 28.2474 108.922 28.3752C108.914 28.6591 108.864 28.9388 108.773 29.209C108.863 29.2457 108.951 29.2373 109.039 29.2373C109.946 29.2373 110.851 29.2373 111.757 29.2373C111.792 29.2373 111.828 29.2342 111.863 29.2373C111.959 29.2457 112.006 29.2038 112.022 29.1085C112.128 28.5103 112.253 27.9143 112.341 27.3141C112.423 26.7642 112.53 26.2174 112.626 25.6706C112.733 25.0557 112.849 24.4408 112.97 23.828C113.148 22.9324 113.281 22.0284 113.449 21.1317C113.6 20.3262 113.596 19.528 113.396 18.7309C113.215 18.0123 112.873 17.39 112.295 16.9145L112.289 16.9113Z" fill="#FDCF39"/>
<path d="M127.969 17.9705C127.785 17.6876 127.518 17.4928 127.299 17.2487C127.045 16.9659 126.728 16.7711 126.399 16.592C125.78 16.2568 125.113 16.0797 124.419 15.9645C123.339 15.7854 122.277 15.9027 121.234 16.1541C120.592 16.3091 119.986 16.5993 119.412 16.9387C118.613 17.4101 117.945 18.0228 117.364 18.7341C117.2 18.9363 117.08 19.1667 116.946 19.3877C115.873 21.1674 115.471 23.0781 115.826 25.1249C116.084 26.6155 116.905 27.7604 118.138 28.633C118.34 28.7765 118.578 28.8404 118.796 28.9483C119.551 29.3233 120.362 29.5286 121.2 29.5852C122.061 29.6439 122.92 29.5988 123.766 29.3851C124.744 29.1369 125.665 28.7681 126.459 28.1407C126.906 27.7877 127.366 27.4483 127.755 27.0062C127.535 26.8282 127.348 26.6145 127.131 26.427C126.771 26.1159 126.442 25.7702 126.104 25.435C125.965 25.2967 125.952 25.2894 125.818 25.4318C125.535 25.7325 125.22 25.9954 124.882 26.2332C124.455 26.5328 123.977 26.7465 123.48 26.8659C123.034 26.9727 122.563 27.001 122.094 26.9895C121.39 26.9717 120.733 26.803 120.144 26.428C119.261 25.8676 118.777 25.0725 118.783 24.0135C118.785 23.7485 118.786 23.7485 119.043 23.7454C119.096 23.7454 119.149 23.7454 119.201 23.7454C122.095 23.7454 124.988 23.7454 127.882 23.7454C128.032 23.7454 128.181 23.7401 128.331 23.7454C128.466 23.7495 128.534 23.7076 128.561 23.561C128.625 23.2185 128.685 22.877 128.73 22.5313C128.844 21.6744 128.912 20.8197 128.756 19.9586C128.627 19.2432 128.368 18.5822 127.971 17.9684L127.969 17.9705ZM125.934 21.0218C125.931 21.0564 125.924 21.091 125.921 21.1255C125.899 21.3406 125.774 21.4485 125.547 21.4492C123.471 21.4492 121.396 21.4503 119.319 21.4513C119.259 21.4513 119.197 21.4513 119.098 21.4513C119.172 21.1664 119.255 20.9286 119.37 20.7065C119.85 19.7806 120.528 19.0483 121.503 18.6189C122.4 18.2229 123.326 18.1883 124.258 18.4712C125.141 18.7383 126.052 19.6517 125.935 21.0239L125.934 21.0218Z" fill="#FDCF39"/>
<path d="M87.5801 16.5593C86.6367 16.0712 85.6078 15.8942 84.5598 15.8837C83.0999 15.869 81.697 16.1686 80.367 16.7783C79.9391 16.9752 79.5208 17.1899 79.1362 17.4633C78.9799 17.5744 78.9831 17.5827 79.0824 17.7577C79.3285 18.1892 79.5778 18.6187 79.8229 19.0513C79.9254 19.2326 80.0226 19.418 80.1166 19.6044C80.161 19.6935 80.2095 19.7228 80.2951 19.6547C80.8529 19.2116 81.5005 18.9372 82.1702 18.7266C83.1104 18.4323 84.0728 18.2929 85.0532 18.5297C85.4599 18.6282 85.8275 18.7769 86.0969 19.1425C86.2839 19.396 86.38 19.6558 86.4085 19.9522C86.436 20.2392 86.4064 20.5252 86.3737 20.8111C86.3568 20.9599 86.2881 20.9892 86.1508 20.9924C85.2803 21.0123 84.4109 21.0385 83.5446 21.1338C82.5453 21.2448 81.5512 21.3663 80.5994 21.7162C80.0944 21.9016 79.5894 22.0755 79.1214 22.3457C78.6714 22.6066 78.2742 22.9313 77.9161 23.2979C77.7619 23.455 77.6404 23.6478 77.4872 23.8122C77.4587 23.8437 77.4396 23.8835 77.4185 23.9212C77.1924 24.3276 77.0446 24.7571 76.9769 25.2201C76.8935 25.7931 76.8681 26.3734 76.9854 26.9317C77.1312 27.6231 77.4904 28.2107 78.0957 28.6329C78.6672 29.032 79.2894 29.2834 79.9803 29.3996C80.7441 29.5274 81.5005 29.5295 82.26 29.3892C82.9467 29.2624 83.5985 29.0414 84.1816 28.658C84.507 28.4433 84.8187 28.2044 85.0828 27.9122C85.1514 27.8368 85.2116 27.7467 85.3511 27.7016C85.3437 27.7582 85.3405 27.7928 85.3342 27.8263C85.2613 28.238 85.1947 28.6496 85.1958 29.0697C85.1958 29.1891 85.2222 29.2394 85.3553 29.2383C86.2258 29.232 87.0973 29.2341 87.9678 29.231C88.1485 29.231 88.1569 29.2226 88.1611 29.0351C88.1706 28.6517 88.2182 28.2725 88.2552 27.8923C88.3809 26.6185 88.6492 25.3678 88.8753 24.1097C88.9841 23.5053 89.0749 22.8978 89.1975 22.2955C89.264 21.9665 89.3158 21.6324 89.3802 21.3035C89.4827 20.7808 89.544 20.257 89.5397 19.7238C89.5292 18.2762 88.8647 17.2234 87.578 16.5583L87.5801 16.5593ZM86.0145 23.4037C85.9078 23.8908 85.7916 24.3727 85.6194 24.8451C84.975 26.6112 83.0798 27.3622 81.6114 27.1098C81.4202 27.0773 81.2322 27.0365 81.0494 26.9757C79.7384 26.5347 79.8229 25.0043 80.5022 24.4051C80.9311 24.028 81.4403 23.8081 81.9833 23.6488C82.4312 23.5179 82.8939 23.4634 83.3502 23.3775C83.5489 23.387 83.7422 23.3377 83.9387 23.3262C83.9714 23.3451 84.0042 23.3472 84.0359 23.3241C84.1077 23.3377 84.1795 23.3356 84.2514 23.3178C84.7426 23.3053 85.2338 23.2906 85.7251 23.2812C85.8191 23.2791 85.9173 23.2581 86.005 23.3011C86.0304 23.3377 86.0208 23.3702 86.0135 23.4048L86.0145 23.4037Z" fill="#FDCF39"/>
<path d="M140.952 17.1773C140.229 16.5404 139.36 16.2167 138.433 16.0229C137.59 15.847 136.743 15.8491 135.889 15.9653C135.054 16.0795 134.263 16.3068 133.524 16.708C133.23 16.8672 132.95 17.0484 132.701 17.2695C132.527 17.4224 132.37 17.5931 132.21 17.7597C131.807 18.1777 131.548 18.6857 131.415 19.2314C131.319 19.6295 131.302 20.0558 131.338 20.4759C131.411 21.3275 131.765 22.0251 132.454 22.552C132.726 22.7615 133.02 22.9323 133.331 23.0789C133.856 23.3261 134.403 23.5178 134.953 23.7001C135.528 23.8907 136.092 24.0992 136.628 24.3914C137.419 24.822 137.442 25.9313 136.881 26.4571C136.706 26.6216 136.512 26.7515 136.289 26.8405C135.539 27.1422 134.768 27.159 133.983 27.0123C133.306 26.8856 132.724 26.5891 132.246 26.0926C132.112 25.9522 132.008 25.792 131.901 25.6327C131.807 25.4913 131.803 25.4924 131.657 25.5887C131.495 25.6945 131.337 25.8035 131.175 25.9082C130.618 26.2728 130.06 26.6352 129.502 27.0008C129.338 27.1076 129.333 27.1212 129.431 27.2616C130.009 28.0891 130.76 28.7208 131.679 29.1408C132.628 29.5745 133.64 29.7285 134.828 29.7096C135.605 29.7641 136.488 29.5609 137.351 29.2665C137.887 29.0832 138.359 28.7805 138.823 28.4568C139.324 28.1069 139.7 27.6586 139.985 27.1349C140.457 26.2612 140.522 25.3269 140.327 24.3705C140.176 23.6331 139.795 23.0349 139.181 22.5856C138.725 22.2524 138.235 21.9874 137.713 21.7695C137.112 21.5181 136.477 21.3704 135.864 21.1589C135.522 21.0405 135.192 20.9022 134.896 20.6917C134.718 20.5649 134.581 20.4067 134.533 20.1951C134.43 19.7552 134.493 19.3477 134.812 19.002C134.988 18.8124 135.199 18.6731 135.441 18.583C136.037 18.362 136.649 18.3002 137.281 18.3693C137.874 18.4343 138.379 18.6668 138.8 19.0775C138.919 19.1927 139.025 19.3205 139.135 19.4451C139.242 19.5656 139.284 19.575 139.423 19.4923C139.568 19.4053 139.708 19.3069 139.86 19.2304C140.471 18.9224 141.04 18.5453 141.636 18.2122C141.739 18.1546 141.74 18.0939 141.675 18.0059C141.458 17.7094 141.23 17.4235 140.951 17.1794L140.952 17.1773Z" fill="#FDCF39"/>
<path d="M156.837 16.2314C156.784 16.2283 156.732 16.2293 156.679 16.2293C155.878 16.2293 155.078 16.2293 154.278 16.2293C154.216 16.2293 154.154 16.2293 154.093 16.2293C154.014 16.2293 153.983 16.1906 153.997 16.1141C154.067 15.7046 154.135 15.295 154.208 14.8854C154.342 14.1354 154.482 13.3864 154.614 12.6354C154.642 12.4751 154.628 12.4636 154.449 12.4615C154.194 12.4583 153.939 12.4615 153.684 12.4615C153.015 12.4615 152.348 12.4636 151.679 12.4604C151.542 12.4604 151.468 12.4887 151.418 12.6406C151.377 12.7653 151.393 12.8847 151.368 13.0041C151.304 13.3194 151.252 13.6368 151.204 13.9552C151.167 14.1941 151.093 14.4276 151.069 14.6644C151.024 15.1316 150.917 15.5862 150.849 16.0481C150.822 16.2283 150.805 16.2304 150.597 16.2304C149.999 16.2314 149.401 16.2304 148.803 16.2304C148.742 16.2304 148.68 16.2325 148.618 16.2325C148.546 16.2325 148.521 16.2608 148.51 16.3393C148.421 16.906 148.33 17.4727 148.224 18.0363C148.176 18.2971 148.161 18.5663 148.04 18.8114C148.126 18.8659 148.214 18.8492 148.299 18.8492C148.845 18.8492 149.39 18.8492 149.935 18.8492C150.04 18.8492 150.146 18.8429 150.252 18.8471C150.381 18.8523 150.406 18.8879 150.374 19.0073C150.35 19.0974 150.274 19.1686 150.29 19.2744C150.311 19.4138 150.274 19.5499 150.246 19.6872C150.187 19.9763 150.132 20.2675 150.077 20.5576C149.834 21.8649 149.591 23.1733 149.348 24.4805C149.217 25.1824 149.109 25.8852 149.118 26.6038C149.124 27.1098 149.241 27.6 149.474 28.0326C149.68 28.416 149.952 28.7879 150.402 28.9659C150.61 29.0487 150.791 29.2142 151.004 29.2613C151.37 29.3431 151.738 29.4394 152.117 29.4667C152.636 29.5044 153.152 29.5054 153.67 29.4572C153.871 29.4384 154.055 29.3514 154.252 29.342C154.449 29.3326 154.615 29.2362 154.796 29.187C154.899 29.1587 154.951 29.0916 154.956 28.9785C154.967 28.7533 154.994 28.5281 155.013 28.3029C155.054 27.8263 155.064 27.3476 155.126 26.872C155.144 26.7358 155.121 26.7243 154.981 26.7526C154.869 26.7746 154.758 26.8018 154.646 26.8186C154.174 26.8908 153.703 26.9223 153.233 26.8018C152.651 26.652 152.372 26.3095 152.355 25.7197C152.351 25.5626 152.36 25.4076 152.378 25.2515C152.436 24.7592 152.542 24.2752 152.633 23.7892C152.753 23.1408 152.874 22.4924 153.007 21.8461C153.195 20.9264 153.351 20.0004 153.523 19.0775C153.566 18.8492 153.569 18.8471 153.815 18.8471C154.589 18.8471 155.363 18.8481 156.137 18.8492C156.208 18.8492 156.277 18.846 156.348 18.8471C156.432 18.8471 156.48 18.8094 156.493 18.7276C156.502 18.6679 156.51 18.6072 156.52 18.5475C156.584 18.1735 156.627 17.7943 156.716 17.4256C156.802 17.0632 156.824 16.6892 156.925 16.3299C156.944 16.2639 156.902 16.2346 156.84 16.2304L156.837 16.2314Z" fill="#FDCF39"/>
<path d="M170.553 16.2295C169.799 16.2337 169.044 16.2369 168.289 16.241C168.114 16.2369 167.938 16.2327 167.763 16.2306C167.682 16.2295 167.606 16.2421 167.565 16.3269C167.4 16.6747 167.19 16.9984 167.014 17.3399C166.947 17.4677 166.828 17.5714 166.816 17.7264C166.802 17.7316 166.781 17.7337 166.774 17.7432C166.577 18.0805 166.371 18.4146 166.187 18.7592C166.08 18.9604 165.921 19.1363 165.868 19.3658C165.833 19.4265 165.799 19.4862 165.764 19.547C165.373 20.2341 164.984 20.9213 164.593 21.6074C164.563 21.6147 164.546 21.6294 164.554 21.6619C164.539 21.6996 164.489 21.7184 164.496 21.7677C164.353 21.9625 164.249 22.1793 164.128 22.3857C163.907 22.8089 163.636 23.2049 163.43 23.6375C163.413 23.6553 163.391 23.671 163.378 23.6919C163.031 24.2964 162.686 24.9008 162.338 25.5041C162.293 25.5837 162.265 25.6791 162.145 25.744C162.107 25.4978 162.074 25.2695 162.037 25.0422C161.903 24.2188 161.768 23.3955 161.634 22.5711C161.447 21.421 161.262 20.2708 161.076 19.1217C161.007 18.6954 160.906 18.2711 160.86 17.8437C160.811 17.3765 160.71 16.9177 160.659 16.4516C160.634 16.2274 160.622 16.2264 160.404 16.2264C159.428 16.2264 158.452 16.2264 157.476 16.2285C157.391 16.2285 157.301 16.2107 157.229 16.2599C157.297 16.5731 157.379 16.88 157.425 17.1922C157.447 17.3378 157.534 17.4614 157.527 17.6133C157.517 17.8804 157.627 18.1297 157.658 18.3947C157.696 18.7236 157.795 19.0515 157.875 19.3783C158.028 20.0005 158.13 20.6343 158.253 21.2638C158.405 22.04 158.56 22.8162 158.712 23.5924C158.917 24.6326 159.118 25.6738 159.325 26.714C159.424 27.2084 159.534 27.6997 159.637 28.1931C159.683 28.4487 159.727 28.7032 159.776 28.9577C159.828 29.2343 159.83 29.2353 160.103 29.2353C161.014 29.2353 161.924 29.2353 162.835 29.2353C163.258 29.2353 163.267 29.2395 163.468 28.8666C163.56 28.6959 163.705 28.5503 163.74 28.3502C163.806 28.2612 163.879 28.1763 163.935 28.082C164.053 27.8851 164.16 27.6829 164.276 27.485C164.578 26.9727 164.882 26.4626 165.186 25.9525C164.974 25.9441 164.863 25.9608 164.806 25.9158C164.792 25.9043 164.781 25.8896 164.772 25.8687C164.781 25.8896 164.791 25.9043 164.806 25.9158C164.863 25.9608 164.974 25.9441 165.186 25.9525C165.212 25.9294 165.243 25.9106 165.261 25.8833C165.598 25.347 165.93 24.8065 166.239 24.2534C166.348 24.1382 166.432 24.0072 166.487 23.8574C166.602 23.7171 166.635 23.5359 166.737 23.384C166.926 23.1043 167.082 22.8016 167.251 22.5083C167.424 22.3281 167.55 22.1196 167.623 21.8808C167.701 21.8222 167.75 21.7415 167.799 21.6598C168.145 21.0805 168.493 20.5012 168.839 19.922C168.884 19.8487 168.94 19.7795 168.938 19.6863C169.496 18.8766 170.946 16.4516 171 16.2295C170.848 16.2295 170.699 16.2295 170.551 16.2295H170.553Z" fill="#FDCF39"/>
<path d="M144.726 25.4045C143.815 25.1447 142.963 25.5186 142.404 26.1649C142.222 26.3765 142.226 26.6656 142.066 26.8825C142.104 27.0878 142.05 27.291 142.061 27.4974C142.099 28.2736 142.45 28.8403 143.181 29.1493C143.606 29.3295 144.047 29.3944 144.508 29.2876C144.776 29.2257 144.995 29.0917 145.215 28.9335C145.786 28.5281 146.07 27.9876 146.075 27.2983C146.075 27.2543 146.076 27.2114 146.075 27.1674C146.049 26.3064 145.531 25.6349 144.726 25.4045Z" fill="#FDCF39"/>
<path d="M16.7524 26.7957C17.4591 27.0198 18.1711 27.0146 18.8831 26.8334C20.323 26.4657 21.3012 25.5586 21.8876 24.2366C22.2488 23.4227 22.3767 22.5554 22.3418 21.6629C22.3165 21.0092 22.1369 20.408 21.8052 19.8434C21.5749 19.4516 21.2421 19.1646 20.8692 18.9247C20.5744 18.7351 20.2385 18.6126 19.8931 18.5487C19.2465 18.4272 18.6021 18.4649 17.9683 18.6429C17.7 18.7184 17.4475 18.8367 17.2024 18.9635C16.6541 19.2473 16.1639 19.6077 15.79 20.1063C15.3611 20.5808 15.0642 21.1297 14.8667 21.7331C14.4948 22.7502 14.3934 23.7851 14.7357 24.8243C15.061 25.8162 15.7435 26.4751 16.7524 26.7957Z" fill="#FDCF39"/>
<path d="M37.6199 20.1008C37.3991 19.4011 36.9628 18.87 36.2898 18.562C35.3951 18.1514 34.458 18.1807 33.5411 18.4552C32.8364 18.6668 32.2639 19.1161 31.7885 19.6755C31.648 19.841 31.4853 19.9918 31.405 20.2003C31.1303 20.5743 30.955 20.9912 30.8335 21.4322C30.9444 21.4793 31.0332 21.4636 31.1198 21.4636C33.203 21.4636 35.2863 21.4636 37.3695 21.4636C37.4139 21.4636 37.4572 21.4604 37.5015 21.4636C37.5945 21.4699 37.6516 21.4384 37.6621 21.3379C37.697 20.9922 37.7392 20.6476 37.6442 20.304C37.6368 20.2349 37.6399 20.1626 37.6188 20.0976L37.6199 20.1008Z" fill="#FDCF39"/>
</svg>
