<svg width="175" height="70" viewBox="0 0 175 70" fill="none" xmlns="http://www.w3.org/2000/svg">
<path d="M132.117 22.1396C132.264 23.3799 132.736 23.4274 133.64 23.3562C134.031 23.3254 134.43 23.3515 134.823 23.3515C135.376 23.3515 135.938 23.2898 136.481 23.3657C137.456 23.5033 137.555 22.9032 137.42 22.2416C137.029 20.3158 136.469 18.4541 135.435 16.7394C134.015 14.3843 131.904 12.9661 129.331 12.3518C127.808 11.989 126.195 11.7684 124.575 12.091C121.877 12.627 119.754 14.0737 118.027 16.1322C117.482 16.7821 117.238 16.6848 116.737 16.0919C115.397 14.5029 113.856 13.1843 111.788 12.5534C110.196 12.0673 108.626 12.1028 106.985 12.1835C101.087 12.4728 97.731 17.8872 97.1167 22.6044C97.0456 23.1546 97.2258 23.3847 97.8211 23.3657C99.0045 23.3278 100.195 23.2851 101.374 23.3823C102.192 23.4487 102.384 22.972 102.524 22.4005C103.342 19.0114 104.59 17.8778 107.974 17.4271C111.133 17.005 114.093 18.9948 114.423 22.2463C114.496 22.9744 114.811 23.4511 115.698 23.3752C116.6 23.2993 117.525 23.2708 118.419 23.3776C119.602 23.5199 120.065 23.1001 120.138 21.9095C120.188 21.0818 120.615 20.3348 121.144 19.6328C122.515 17.8185 124.338 17.3536 126.499 17.4153C129.625 17.503 131.75 19.0636 132.115 22.1467L132.117 22.1396Z" fill="#FDCF39"/>
<path d="M53.5334 24.7843C53.2559 24.7843 52.9808 24.7843 52.7033 24.7843C52.2693 24.7843 51.8258 24.8412 51.4013 24.7725C50.1372 24.5638 49.7886 25.0926 49.8977 26.3069C50.149 29.1078 48.7308 31.0929 46.4896 32.5159C45.4983 33.1467 44.3433 33.4621 43.1361 33.6424C40.506 34.0361 38.2553 33.3673 36.3082 31.5885C34.5959 30.0233 34.086 27.9718 34.0385 25.7733C34.0219 25.0357 33.8891 24.7132 33.0733 24.763C31.9325 24.8318 30.7823 24.8033 29.6392 24.7725C29.0747 24.7582 28.8162 24.8578 28.7972 25.5314C28.7118 28.5268 29.3806 31.2707 31.1475 33.7372C33.3081 36.7516 36.2347 38.388 39.8917 38.7841C42.0452 39.0165 44.1322 38.8149 46.2809 38.3667C49.0818 37.7832 51.0716 36.1444 52.7721 34.1309C54.5223 32.0581 55.1485 29.4493 55.3595 26.767C55.5161 24.7891 55.5066 24.7867 53.531 24.7843H53.5334Z" fill="#FDCF39"/>
<path d="M29.4874 23.3516C30.7895 23.3445 32.0915 23.3327 33.3935 23.3587C33.8394 23.3682 33.9153 23.1382 34.0955 22.7919C34.4726 22.0662 34.5912 21.2599 35.0276 20.5436C37.034 17.2447 42.2065 16.7134 45.1544 17.7356C47.2699 18.4684 49.0629 19.5689 49.625 21.7555C50.0021 23.2259 50.6685 23.558 51.9586 23.3564C52.1887 23.3208 52.4306 23.3516 52.6678 23.3516C53.3769 23.3493 54.0884 23.3421 54.7975 23.3516C55.1675 23.3564 55.4307 23.2734 55.3169 22.8228C54.6505 20.1499 53.7682 17.5862 51.7713 15.5561C49.7412 13.4928 47.1561 12.7101 44.405 12.1955C41.6942 11.6879 39.0593 11.9654 36.543 12.9188C32.0725 14.6145 29.7293 18.0676 28.9064 22.6828C28.7973 23.2947 29.0178 23.354 29.4851 23.3516H29.4874Z" fill="#FDCF39"/>
<path d="M18.8767 23.3562C20.1004 23.3348 21.3266 23.304 22.548 23.368C23.2808 23.406 23.3852 23.0929 23.3686 22.4787C23.2286 17.5884 19.8965 13.9669 15.4402 12.6791C12.9476 11.9605 10.4123 12.1739 7.22721 12.1099C6.22638 12.1099 4.56624 12.1289 2.90847 12.1004C2.2705 12.0885 1.99302 12.2664 2.00013 12.966C2.02859 16.163 2.02622 19.36 2.00013 22.5593C1.99539 23.1996 2.23967 23.3775 2.83732 23.3609C3.98045 23.3277 5.12832 23.3111 6.27145 23.368C7.03985 23.406 7.32208 23.1688 7.29125 22.3767C7.2367 20.9585 7.29599 19.5355 7.2699 18.1149C7.26042 17.5243 7.44778 17.2397 8.07389 17.2516C9.61308 17.2824 11.1641 17.1615 12.6891 17.318C15.9121 17.6477 17.826 19.2343 18.1106 22.6305C18.1604 23.2186 18.3407 23.368 18.8719 23.3585L18.8767 23.3562Z" fill="#FDCF39"/>
<path d="M77.6744 34.581C77.6863 33.8932 77.4444 33.6276 76.6997 33.6371C73.702 33.675 70.7018 33.6015 67.7041 33.6584C66.7317 33.6774 66.5064 33.3501 66.5301 32.4442C66.5894 30.1959 66.5301 27.9475 66.5633 25.6992C66.5728 25.0162 66.4258 24.7079 65.6526 24.7601C64.5522 24.8336 63.4399 24.8312 62.3395 24.7601C61.4904 24.7055 61.2888 25.0091 61.2959 25.8226C61.3339 29.8069 61.3292 33.7936 61.2888 37.778C61.2793 38.6365 61.526 38.9756 62.4225 38.959C64.7894 38.914 67.1586 38.9424 69.5255 38.9424V38.9353C71.9327 38.9353 74.3399 38.9092 76.7471 38.9496C77.4752 38.9614 77.7148 38.7337 77.6816 38.0104C77.6294 36.8696 77.6555 35.7218 77.6744 34.5786V34.581Z" fill="#FDCF39"/>
<path d="M172.056 11.9652C169.449 12.0031 166.843 11.9794 164.234 11.9794C161.587 11.9794 158.941 11.996 156.294 11.9652C155.639 11.9581 155.374 12.1359 155.4 12.8237C155.445 14.0072 155.443 15.193 155.4 16.3764C155.376 17.0381 155.568 17.2658 156.261 17.2444C157.76 17.1946 159.263 17.2753 160.762 17.2326C161.452 17.2136 161.644 17.4579 161.628 18.1148C161.59 19.5757 161.654 21.039 161.602 22.4976C161.578 23.183 161.799 23.387 162.465 23.3609C163.648 23.3158 164.837 23.3134 166.02 23.3609C166.71 23.3893 166.926 23.1 166.921 22.4644C166.909 21.0438 166.966 19.6208 166.914 18.2002C166.886 17.4626 167.135 17.216 167.853 17.2349C169.274 17.2681 170.697 17.2089 172.118 17.2515C172.77 17.2705 173.023 17.1021 172.99 16.4072C172.936 15.2238 172.921 14.0356 172.995 12.8545C173.042 12.079 172.746 11.9509 172.053 11.9604L172.056 11.9652Z" fill="#FDCF39"/>
<path d="M119.138 24.7556C117.955 24.7983 116.766 24.8125 115.585 24.7556C114.81 24.7176 114.665 25.0544 114.675 25.7327C114.708 27.7462 114.687 29.7621 114.687 31.7756C114.677 31.7756 114.668 31.7756 114.658 31.7756C114.658 33.8674 114.696 35.9615 114.639 38.0533C114.62 38.7767 114.907 38.9451 115.524 38.9379C116.629 38.9261 117.746 38.8478 118.839 38.9711C119.804 39.0802 120.023 38.511 120.027 37.8517C120.049 33.7464 120.011 29.6411 120.008 25.5335C120.008 24.9074 119.74 24.7319 119.14 24.7556H119.138Z" fill="#FDCF39"/>
<path d="M89.1009 24.7628C87.9175 24.777 86.7316 24.8031 85.5506 24.7533C84.7988 24.7224 84.5189 24.9406 84.5403 25.7399C84.5948 27.789 84.5592 29.8428 84.5592 31.8943H84.5355C84.5355 33.986 84.5402 36.0755 84.5308 38.1672C84.5308 38.6819 84.6185 39.2819 85.228 39.1159C86.402 38.7981 87.5688 38.9949 88.7333 38.9641C89.4756 38.9451 89.7792 38.7483 89.7768 37.9514C89.7697 33.7726 89.8076 29.5914 89.8409 25.4126C89.8456 24.8671 89.5681 24.7556 89.0985 24.7604L89.1009 24.7628Z" fill="#FDCF39"/>
<path d="M166.91 25.4551C166.915 24.8408 166.606 24.7602 166.103 24.7697C164.92 24.791 163.737 24.8171 162.555 24.7626C161.827 24.7294 161.607 24.9618 161.623 25.6923C161.671 27.7414 161.64 29.7904 161.64 31.8419H161.645C161.645 33.891 161.673 35.9425 161.628 37.9916C161.612 38.7007 161.797 38.9853 162.541 38.9568C163.722 38.9094 164.908 38.9189 166.089 38.9568C166.658 38.9758 166.803 38.7837 166.829 38.2169C167.033 33.9645 166.869 29.7098 166.91 25.4575V25.4551Z" fill="#FDCF39"/>
<path d="M101.433 24.7602C100.292 24.8219 99.1444 24.8219 98.0036 24.7602C97.2589 24.7199 97.0834 24.9784 97.0905 25.6946C97.1237 29.7952 97.1237 33.8934 97.0905 37.9939C97.0858 38.7007 97.2518 38.99 98.0012 38.9521C99.0637 38.8999 100.136 38.8643 101.191 38.9616C102.194 39.0541 102.377 38.5892 102.365 37.7449C102.334 35.7741 102.356 33.8033 102.356 31.8324C102.356 29.7833 102.329 27.7319 102.37 25.6828C102.384 24.9618 102.166 24.7175 101.433 24.7555V24.7602Z" fill="#FDCF39"/>
<path d="M137.632 31.8965H137.613C137.613 29.8071 137.589 27.72 137.627 25.633C137.639 24.9594 137.421 24.7365 136.754 24.7602C135.535 24.8029 134.312 24.7839 133.09 24.7673C132.635 24.7626 132.353 24.8266 132.355 25.3982C132.367 29.6529 132.362 33.9076 132.341 38.1623C132.338 38.8122 132.64 38.9592 133.209 38.9473C134.352 38.926 135.495 38.9141 136.636 38.9568C137.407 38.9853 137.663 38.696 137.646 37.9252C137.603 35.9164 137.632 33.9076 137.632 31.8965Z" fill="#FDCF39"/>
<path d="M148.562 24.7648C147.341 24.8027 146.117 24.8027 144.898 24.7576C144.232 24.7315 144.028 24.9545 144.04 25.6209C144.08 27.67 144.054 29.7191 144.054 31.7682C144.054 33.8576 144.075 35.947 144.04 38.034C144.028 38.6815 144.206 38.9732 144.891 38.9542C146.072 38.921 147.256 38.9234 148.439 38.9495C149.025 38.9637 149.274 38.8001 149.271 38.1526C149.26 33.9359 149.276 29.7191 149.307 25.5047C149.312 24.945 149.139 24.7482 148.562 24.7648Z" fill="#FDCF39"/>
<path d="M6.43497 24.7578C5.21121 24.81 3.98508 24.7886 2.76131 24.7602C2.20635 24.7483 1.99765 24.9286 2.00002 25.5049C2.01899 29.6529 2.01899 33.8032 2.00002 37.9512C1.99765 38.5702 2.21347 38.7884 2.83009 38.7671C3.97559 38.7267 5.12583 38.6912 6.26659 38.7671C7.1014 38.8216 7.2769 38.4303 7.27453 37.7401C7.26742 35.7242 7.27216 33.7107 7.27216 31.6948C7.27453 29.679 7.25556 27.6654 7.28876 25.6495C7.30062 25.0021 7.13698 24.7294 6.43497 24.7602V24.7578Z" fill="#FDCF39"/>
<path d="M22.6523 24.9405C21.5495 24.9666 20.4419 24.9855 19.3391 24.931C18.4948 24.8883 18.1391 25.1255 18.1699 26.0504C18.2363 28.0212 18.1889 29.9944 18.1889 31.9653C18.177 31.9653 18.1652 31.9653 18.1533 31.9653C18.1533 33.9764 18.196 35.9899 18.132 37.9987C18.1059 38.7742 18.4 38.9592 19.0782 38.945C20.1028 38.9236 21.1345 38.8738 22.1543 38.9639C23.148 39.0541 23.4705 38.6793 23.4634 37.7236C23.4373 33.7392 23.442 29.7573 23.4658 25.7729C23.4705 25.1515 23.2618 24.9239 22.6523 24.9381V24.9405Z" fill="#FDCF39"/>
<path d="M85.1635 23.3397C86.4655 23.3469 87.7675 23.3255 89.0696 23.3587C89.7336 23.3753 89.8498 23.0409 89.8427 22.4765C89.8214 20.8993 89.8356 19.3198 89.8356 17.7427C89.8332 16.1252 89.8143 14.5078 89.8403 12.8903C89.8498 12.2666 89.7004 11.9417 88.9866 11.9678C87.7248 12.0128 86.4608 11.9915 85.1991 11.9749C84.4472 11.9654 84.2599 12.3306 84.3548 13.016C84.7959 16.1466 84.5231 19.2961 84.4804 22.4338C84.471 23.1548 84.5303 23.3374 85.1635 23.3397Z" fill="#FDCF39"/>
<path d="M62.1495 23.3609C63.2926 23.3229 64.4429 23.2992 65.5836 23.3656C66.409 23.4154 66.5773 23.0668 66.556 22.334C66.5133 20.7948 66.5441 19.2556 66.5441 17.7164C66.5418 16.0586 66.5299 14.4009 66.5489 12.7431C66.556 12.219 66.4445 11.951 65.835 11.9699C64.5733 12.0103 63.3069 12.0055 62.0451 11.9699C61.4641 11.9533 61.3076 12.1763 61.3099 12.7241C61.3265 15.9993 61.3218 19.2769 61.3052 22.5522C61.3028 23.1593 61.5376 23.3799 62.1495 23.3585V23.3609Z" fill="#FDCF39"/>
<path d="M148.517 11.97C147.293 12.0104 146.067 12.0104 144.844 11.97C144.206 11.9487 144.03 12.1906 144.04 12.793C144.07 14.4128 144.049 16.0326 144.049 17.6525C144.049 19.232 144.082 20.8139 144.037 22.3934C144.016 23.1001 144.215 23.3989 144.96 23.3634C145.946 23.3159 146.945 23.2661 147.92 23.3752C149.013 23.4962 149.3 22.9412 149.302 22.0447C149.312 18.964 149.293 15.8809 149.316 12.8001C149.321 12.2001 149.155 11.9487 148.517 11.97Z" fill="#FDCF39"/>
<path d="M44.716 48.3036C43.6298 47.974 42.4962 47.8269 41.3886 48.121C39.47 48.6309 38.6328 50.099 38.3482 51.9204C37.9758 54.3086 39.2518 57.7854 42.5673 57.4961C43.1507 57.4653 43.7223 57.4724 44.3105 57.3135C45.0931 57.1024 45.3564 56.6115 45.1476 55.9545C44.9295 55.2691 44.365 55.6652 43.9191 55.7601C41.8985 56.1988 40.5609 55.4209 40.4447 53.6683C40.3996 52.9829 40.3854 52.2927 40.587 51.5789C41.0424 49.978 41.3578 49.6673 42.9586 49.6697C43.4377 49.6697 43.8836 49.7835 44.3389 49.8926C45.0362 50.061 45.2046 49.4729 45.3777 49.0246C45.6054 48.4412 45.003 48.3914 44.7113 48.3013L44.716 48.3036Z" fill="#FDCF39"/>
<path d="M131.321 49.9897C131.159 50.3431 131.069 50.7368 130.863 51.0617C130.543 51.5692 130.194 51.842 129.865 51.0143C129.566 50.2648 129.189 49.5486 128.833 48.8229C128.693 48.5359 126.808 47.8671 126.651 48.0758C126.186 48.7043 126.993 49.0695 127.054 49.6079C127.066 49.7028 127.223 49.7739 127.277 49.8759C128.389 51.9439 129.931 53.8792 129.426 56.4714C129.284 57.2042 129.616 57.3489 130.251 57.2706C130.82 57.2019 131.584 57.5386 131.458 56.4192C131.252 54.5883 131.584 52.876 132.642 51.3036C133.261 50.3834 133.723 49.3565 134.309 48.2845C132.861 48.2276 131.863 48.7952 131.316 49.9873L131.321 49.9897Z" fill="#FDCF39"/>
<path d="M102.488 48.0233C100.631 48.047 98.7743 48.0352 96.9173 48.0138C96.3553 48.0067 96.1798 48.2486 96.1323 48.787C96.0517 49.6882 96.424 50.0605 97.2873 49.9064C98.5443 49.6811 98.938 50.2028 98.772 51.4124C98.6771 52.1096 98.7553 52.833 98.7553 53.5445C98.7553 54.4931 98.8289 55.4489 98.734 56.3881C98.6415 57.3201 99.1514 57.2751 99.7917 57.2822C100.43 57.2917 100.774 57.2418 100.738 56.4165C100.657 54.524 100.748 52.6243 100.698 50.7293C100.676 49.9491 100.992 49.6669 101.708 49.6835C101.986 49.6906 102.265 49.6526 102.538 49.6906C103.228 49.7878 103.273 49.4107 103.285 48.8581C103.302 48.2439 103.112 48.0209 102.488 48.0304V48.0233Z" fill="#FDCF39"/>
<path d="M70.9222 48.23C70.2178 48.1755 69.9475 48.3534 69.9902 49.1123C70.0566 50.291 70.0068 51.4768 70.0068 52.6603H70.0186C70.0186 53.922 70.0803 55.1884 69.9973 56.4454C69.9404 57.3158 70.4052 57.2683 70.9981 57.2755C71.61 57.2826 72.0108 57.2897 71.9895 56.4383C71.9254 53.9955 71.9136 51.5456 71.9942 49.1028C72.0274 48.1399 71.5246 48.2775 70.9199 48.23H70.9222Z" fill="#FDCF39"/>
</svg>
